<?xml version="1.0" standalone="no"?>
<!DOCTYPE svg PUBLIC "-//W3C//DTD SVG 1.1//EN" "http://www.w3.org/Graphics/SVG/1.1/DTD/svg11.dtd" >
<svg xmlns="http://www.w3.org/2000/svg" xmlns:xlink="http://www.w3.org/1999/xlink" version="1.1">
<metadata>
Created by FontForge 20170731 at Fri Sep  9 18:41:09 2016
 By Aleksey,,,
Copyright (c) 2016 by Lucas Sharp. All rights reserved.
</metadata>
<defs>
<font id="SharpSans-ExtraboldItalic" horiz-adv-x="522" >
  <font-face 
    font-family="Sharp Sans Extrabold"
    font-weight="800"
    font-style="italic"
    font-stretch="normal"
    units-per-em="1000"
    panose-1="0 0 0 0 0 0 0 0 0 0"
    ascent="800"
    descent="-200"
    x-height="540"
    cap-height="730"
    bbox="-141 -310 1524 1127"
    underline-thickness="50"
    underline-position="-150"
    unicode-range="U+000D-F472"
  />
<missing-glyph horiz-adv-x="708" 
d="M135 730h600l-128 -730h-600zM212 170h250l68 390h-250z" />
    <glyph glyph-name=".notdef" horiz-adv-x="708" 
d="M135 730h600l-128 -730h-600zM212 170h250l68 390h-250z" />
    <glyph glyph-name=".null" horiz-adv-x="0" 
 />
    <glyph glyph-name="nonmarkingreturn" unicode="&#xd;" horiz-adv-x="227" 
 />
    <glyph glyph-name="NULL" horiz-adv-x="0" 
 />
    <glyph glyph-name="NULL" horiz-adv-x="0" 
 />
    <glyph glyph-name="space" unicode=" " horiz-adv-x="227" 
 />
    <glyph glyph-name="exclam" unicode="!" horiz-adv-x="278" 
d="M83 219q2 101 8.5 197t24.5 197l20 117h175l-20 -117q-18 -101 -47.5 -197t-64.5 -197h-96zM101 -11q-23 0 -41 8.5t-29.5 23.5t-16 35t-0.5 42q7 40 37.5 64t70.5 24q24 0 42 -9t29 -24t15 -35t0 -42q-8 -38 -35 -62.5t-72 -24.5z" />
    <glyph glyph-name="quotedbl" unicode="&#x22;" horiz-adv-x="392" 
d="M128 500q-3 9 -7 28.5t-7 41.5t-4 43t1 33l15 84h129l-15 -84q-2 -12 -10.5 -33.5t-19 -43.5t-21 -41.5t-16.5 -27.5h-45zM288 500q-3 9 -7 28.5t-7 41.5t-4.5 43t0.5 33l15 84h130l-15 -84q-2 -12 -10.5 -33.5t-19 -43.5t-21 -41.5t-16.5 -27.5h-45z" />
    <glyph glyph-name="numbersign" unicode="#" horiz-adv-x="833" 
d="M462 138h-129l-24 -138h-172l24 138h-131l30 165h130l23 131h-130l30 167h129l23 129h172l-23 -129h129l23 129h172l-23 -129h133l-30 -167h-132l-23 -131h132l-30 -165h-131l-24 -138h-172zM362 303h129l23 131h-129z" />
    <glyph glyph-name="dollar" unicode="$" horiz-adv-x="600" 
d="M548 195q-6 -36 -23.5 -69.5t-45.5 -60.5t-65.5 -46t-84.5 -26l-11 -61h-144l12 68q-66 16 -110.5 52.5t-73.5 83.5l155 105q20 -44 54 -66.5t75 -22.5q39 0 60.5 17.5t26.5 44.5q3 19 -5.5 33t-25 25t-39 21t-47.5 21q-33 15 -65 33t-55.5 44.5t-34.5 64t-2 91.5
q14 81 72 130.5t146 60.5l11 61h145l-14 -72q54 -17 93 -47t63 -62l-146 -100q-16 30 -46 50.5t-68 20.5q-35 0 -56 -16t-26 -42q-3 -17 5 -29.5t24 -23.5t38 -21t48 -21q33 -15 66 -33.5t57 -46t35.5 -66.5t1.5 -95z" />
    <glyph glyph-name="percent" unicode="%" horiz-adv-x="931" 
d="M757 730h215l-755 -730h-215zM269 371q-45 0 -79.5 17.5t-56 46t-30 65.5t-1.5 76q6 33 23.5 63t44 52.5t60.5 35.5t73 13q44 0 78.5 -17t56.5 -45t31 -64.5t2 -75.5q-6 -34 -22.5 -64.5t-43 -53t-61 -36t-75.5 -13.5zM294 523q14 5 21 18t4 25q-2 14 -14 21.5t-26 2.5
t-21 -18t-4 -25q2 -14 13 -21.5t27 -2.5zM670 -11q-45 0 -79.5 17.5t-56 46t-30 65.5t-1.5 76q6 33 23.5 63t44 52.5t60.5 35.5t73 13q44 0 78.5 -17t56.5 -45t31 -64.5t2 -75.5q-6 -34 -23 -64.5t-43 -53t-60.5 -36t-75.5 -13.5zM695 141q14 5 21 18t4 25q-2 14 -14 21.5
t-26 2.5t-21 -18t-4 -25q2 -14 13 -21.5t27 -2.5z" />
    <glyph glyph-name="ampersand" unicode="&#x26;" horiz-adv-x="784" 
d="M257 -11q-68 0 -115.5 19.5t-76 51.5t-38 74t-1.5 87q6 36 23 65t40.5 52t52.5 40.5t60 32.5q-26 40 -35.5 78.5t-1.5 86.5q6 34 24.5 64t47 52.5t66 35t80.5 12.5q48 0 86 -16t62.5 -44t34 -66t2.5 -81q-11 -60 -51 -100t-91 -69l56 -69l127 144h196l-227 -252l150 -187
h-195l-62 76q-51 -46 -101 -66.5t-113 -20.5zM270 138q35 0 59.5 10t51.5 36l-92 113q-38 -19 -64.5 -38.5t-30.5 -43.5q-6 -37 17 -57t59 -20zM311 554q-3 -17 2.5 -34t27.5 -48q32 15 52.5 32t25.5 40q5 29 -9.5 44t-36.5 15t-39.5 -12t-22.5 -37z" />
    <glyph glyph-name="quotesingle" unicode="'" horiz-adv-x="232" 
d="M128 500q-3 9 -7 28.5t-7 41.5t-4 43t1 33l15 84h129l-15 -84q-2 -12 -10.5 -33.5t-19 -43.5t-21 -41.5t-16.5 -27.5h-45v0z" />
    <glyph glyph-name="parenleft" unicode="(" horiz-adv-x="465" 
d="M240 -271q-128 118 -175 255t-16 306q14 84 47 155.5t79.5 131t104 109t121.5 90.5l100 -147q-114 -64 -182.5 -158.5t-88.5 -205.5q-9 -54 -8.5 -105t15.5 -101t46 -98.5t83 -96.5z" />
    <glyph glyph-name="parenright" unicode=")" horiz-adv-x="465" 
d="M223 775q128 -118 175 -258t17 -309q-14 -84 -46.5 -155t-79 -130t-104 -108t-120.5 -89l-102 145q114 64 183.5 160t88.5 207q9 54 8.5 105.5t-15 101t-45.5 98t-83 96.5z" />
    <glyph glyph-name="asterisk" unicode="*" horiz-adv-x="461" 
d="M313 480l11 -103h-144l49 104l-92 -79l-47 126l110 25l-102 29l96 123l61 -78l-13 104h144l-50 -109l95 83l49 -126l-115 -27l105 -27l-96 -123z" />
    <glyph glyph-name="plus" unicode="+" horiz-adv-x="474" 
d="M85 436h114l20 113h142l-20 -113h114l-25 -143h-114l-20 -114h-142l20 114h-115z" />
    <glyph glyph-name="comma" unicode="," horiz-adv-x="290" 
d="M1 -107q58 41 90 77.5t40 75.5q-19 -43 -61 -43q-15 0 -28.5 6t-23 17.5t-14 28t-0.5 37.5q8 45 39.5 69.5t76.5 24.5q26 0 46 -10.5t32.5 -28t17 -41t-0.5 -49.5q-7 -34 -22.5 -63t-37.5 -54.5t-50 -49t-61 -46.5z" />
    <glyph glyph-name="hyphen" unicode="-" horiz-adv-x="473" 
d="M65 326h370l-25 -143h-370z" />
    <glyph glyph-name="period" unicode="." horiz-adv-x="278" 
d="M95 -11q-23 0 -41 8.5t-30 23.5t-16.5 35t-0.5 42q7 40 38 64t70 24q24 0 42 -9t29.5 -24t15.5 -35t-1 -42q-8 -38 -34.5 -62.5t-71.5 -24.5z" />
    <glyph glyph-name="slash" unicode="/" horiz-adv-x="595" 
d="M459 730h188l-466 -730h-187z" />
    <glyph glyph-name="zero" unicode="0" horiz-adv-x="650" 
d="M306 -10q-71 0 -124 24t-85.5 72.5t-42 122.5t7.5 173l6 35q15 85 44.5 146t70 100.5t90 58t104.5 18.5q74 0 128 -27t86.5 -76.5t42 -120.5t-5.5 -159l-7 -41q-14 -77 -38.5 -137.5t-63 -102.5t-91.5 -64t-122 -22zM315 156q50 0 83.5 41t50.5 136l8 47q10 56 8 93.5
t-13 60.5t-30 32.5t-44 9.5t-46.5 -9t-39 -30t-31 -56t-22.5 -86l-6 -35q-10 -57 -7 -96t15 -63t31.5 -34.5t42.5 -10.5z" />
    <glyph glyph-name="one" unicode="1" horiz-adv-x="463" 
d="M260 471q-28 -46 -74.5 -65t-113.5 -19h-15l32 178h9q94 0 144.5 39.5t71.5 125.5h166l-128 -730h-175z" />
    <glyph glyph-name="two" unicode="2" horiz-adv-x="607" 
d="M23 143q9 49 34 88t59.5 69.5t74.5 54.5t79 45q30 15 57 29.5t48.5 29t35.5 29.5t17 32q7 31 -15.5 50.5t-60.5 19.5q-42 0 -72 -27t-44 -68l-148 72q36 83 108 128t164 45q58 0 106 -18t80.5 -50.5t46.5 -77.5t4 -98q-7 -40 -29 -71.5t-52.5 -57t-67 -46.5t-72.5 -40
q-28 -15 -54 -28.5t-47.5 -28t-37 -29.5t-22.5 -32h330l-29 -163h-518z" />
    <glyph glyph-name="three" unicode="3" horiz-adv-x="595" 
d="M264 -10q-55 0 -98.5 9.5t-78.5 27.5t-61.5 44t-47.5 58l154 88q9 -19 24 -32.5t33.5 -22.5t38.5 -13t39 -4q41 0 72 18t36 54q6 35 -19 58t-75 23h-101l27 155h98q51 0 76.5 18t31.5 50t-18 54t-75 22q-42 0 -72 -19.5t-51 -47.5l-132 95q44 50 107.5 82.5t157.5 32.5
q63 0 113 -17t83 -48.5t47 -75.5t5 -98q-15 -87 -103 -133q42 -32 61.5 -79t8.5 -108q-17 -92 -90 -141.5t-191 -49.5z" />
    <glyph glyph-name="four" unicode="4" horiz-adv-x="658" 
d="M353 154h-333l27 155l388 421h178l-76 -430h104l-27 -146h-102l-27 -154h-159zM378 300l34 193l-176 -193h142z" />
    <glyph glyph-name="five" unicode="5" horiz-adv-x="584" 
d="M261 -10q-93 0 -161.5 44t-94.5 121l177 70q7 -33 33 -52.5t60 -19.5q39 0 67.5 23.5t35.5 61.5q7 43 -16 73.5t-73 30.5q-38 0 -61.5 -19t-40.5 -46l-144 57l119 396h436l-28 -162h-296l-33 -105q22 13 50 21t65 8q49 0 89.5 -21t67.5 -57t38 -85t1 -104
q-20 -112 -94.5 -173.5t-196.5 -61.5z" />
    <glyph glyph-name="six" unicode="6" horiz-adv-x="628" 
d="M314 -10q-63 0 -113 20t-84 60q-43 51 -56.5 134.5t1.5 180.5q16 95 50.5 162.5t82 110t107 62.5t125.5 20q143 0 213 -67l-116 -125q-14 17 -42.5 28t-65.5 11q-72 0 -119.5 -38t-70.5 -121q27 35 66 51t90 16t93 -22.5t70 -60.5t39.5 -87.5t1.5 -104.5
q-8 -45 -29.5 -87t-56 -73.5t-81 -50.5t-105.5 -19zM316 147q43 0 72.5 26t34.5 63q4 22 0 42t-16 35t-31.5 24t-44.5 9q-43 0 -73 -23.5t-36 -58.5q-5 -24 0 -45.5t18 -37.5t32.5 -25t43.5 -9z" />
    <glyph glyph-name="seven" unicode="7" horiz-adv-x="585" 
d="M409 570h-318l28 160h507l-26 -148l-368 -582h-201z" />
    <glyph glyph-name="eight" unicode="8" horiz-adv-x="627" 
d="M289 -10q-68 0 -119.5 18t-85 51t-46.5 80.5t-3 106.5q9 51 39.5 91t76.5 66q-27 29 -40 67t-4 84q7 40 27.5 74t54 59t79 39t104.5 14q63 0 111.5 -18.5t79.5 -50t43.5 -74t3.5 -91.5q-8 -47 -32.5 -80t-60.5 -56q35 -31 52.5 -74t9.5 -94q-17 -100 -91 -156t-199 -56z
M302 141q55 0 81.5 21.5t33.5 56.5q8 42 -19 67.5t-84 25.5q-50 0 -80.5 -22t-36.5 -56q-8 -42 18.5 -67.5t86.5 -25.5zM350 452q52 0 76 17t29 47q6 32 -15.5 56.5t-75.5 24.5q-45 0 -70.5 -18.5t-31.5 -47.5q-7 -34 17.5 -56.5t70.5 -22.5z" />
    <glyph glyph-name="nine" unicode="9" horiz-adv-x="631" 
d="M243 -15q-72 0 -127.5 20t-90.5 54l116 125q14 -17 45 -31.5t68 -14.5q80 0 125.5 40.5t65.5 131.5q-27 -42 -68.5 -60t-95.5 -18q-51 0 -93.5 22t-71 59.5t-40.5 87t-2 104.5q8 45 29.5 87t56.5 73.5t82.5 50.5t108.5 19q60 0 111.5 -20t85.5 -60q43 -51 57.5 -136
t-0.5 -185q-17 -94 -49 -160.5t-78 -108.5t-105 -61t-130 -19zM334 381q48 0 76.5 24.5t34.5 59.5q5 25 -0.5 46.5t-19 37.5t-33.5 24.5t-45 8.5q-21 0 -40 -7.5t-33.5 -20t-24 -29t-12.5 -34.5q-5 -22 0.5 -42t18 -35t32.5 -24t46 -9z" />
    <glyph glyph-name="colon" unicode=":" horiz-adv-x="278" 
d="M101 -11q-23 0 -41 8.5t-30 23.5t-16.5 35t-0.5 42q7 40 38 64t70 24q24 0 42 -9t29.5 -24t15.5 -35t-1 -42q-8 -38 -34.5 -62.5t-71.5 -24.5zM158 316q-23 0 -41 8.5t-29.5 23.5t-16 34.5t-0.5 41.5q7 40 37.5 64t70.5 24q24 0 42 -9t29 -24t15 -35t0 -42
q-8 -38 -35 -62t-72 -24z" />
    <glyph glyph-name="semicolon" unicode=";" horiz-adv-x="290" 
d="M1 -107q58 41 90 77.5t40 75.5q-19 -43 -61 -43q-15 0 -28.5 6t-23 17.5t-14 28t-0.5 37.5q8 45 39.5 69.5t76.5 24.5q26 0 46 -10.5t32.5 -28t17 -41t-0.5 -49.5q-7 -34 -22.5 -63t-37.5 -54.5t-50 -49t-61 -46.5zM158 316q-23 0 -41 8.5t-29.5 23.5t-16 34.5t-0.5 41.5
q7 40 37.5 64t70.5 24q24 0 42 -9t29 -24t15 -35t0 -42q-8 -38 -35 -62t-72 -24z" />
    <glyph glyph-name="less" unicode="&#x3c;" horiz-adv-x="474" 
d="M59 293l25 141l393 129l-26 -151l-193 -53l174 -55l-25 -142z" />
    <glyph glyph-name="equal" unicode="=" horiz-adv-x="474" 
d="M100 519h370l-25 -142h-371zM68 343h371l-26 -143h-370z" />
    <glyph glyph-name="greater" unicode="&#x3e;" horiz-adv-x="474" 
d="M63 314l193 53l-174 55l25 141l348 -130l-25 -141l-393 -130z" />
    <glyph glyph-name="question" unicode="?" horiz-adv-x="587" 
d="M200 231q11 64 29.5 104.5t40.5 65t44.5 38t42.5 24.5t34 24t18 37q5 28 -13.5 48.5t-53.5 20.5q-58 0 -83 -56l-152 78q39 63 101 94t145 31q61 0 106.5 -19t74.5 -50.5t40.5 -72t3.5 -84.5q-8 -46 -26 -72.5t-41 -44t-48.5 -29.5t-48.5 -28.5t-41 -41.5t-25 -67l-2 -12
h-148zM241 -11q-23 0 -41 8.5t-29.5 23.5t-16 35t-0.5 42q7 40 37.5 64t69.5 24q24 0 42 -9t29.5 -24t15.5 -35t-1 -42q-8 -38 -34.5 -62.5t-71.5 -24.5z" />
    <glyph glyph-name="at" unicode="@" horiz-adv-x="830" 
d="M380 -125q-84 0 -151.5 33.5t-112.5 89.5t-63.5 130.5t-4.5 157.5q12 69 47.5 131t90 108.5t124 73.5t149.5 27q67 0 132.5 -26t115 -74t75 -117t10.5 -155q-16 -84 -68.5 -132t-132.5 -48q-40 0 -65.5 12t-39.5 29q-19 -18 -44.5 -28.5t-59.5 -10.5q-39 0 -70 15.5
t-51.5 41.5t-28 61.5t-0.5 76.5q7 38 24 68t40.5 50.5t52 31.5t58.5 11q29 0 50 -9.5t35 -25.5q2 13 3 20l2 8h125l-35 -178q-8 -44 27 -44q13 0 22.5 8t16 20t10 25t5.5 22q9 53 -7 95t-48.5 71.5t-76 45.5t-89.5 16q-50 0 -95.5 -19t-81 -50.5t-59.5 -73t-32 -87.5
q-9 -54 2 -103.5t39 -87.5t71.5 -61t98.5 -23q24 0 43.5 3.5t36.5 10.5t33 18.5t34 27.5l105 -82q-47 -47 -109.5 -75.5t-152.5 -28.5zM411 192q27 0 44 17t22 43q5 28 -9.5 48t-40.5 20q-27 0 -45.5 -18t-23.5 -42q-5 -27 10.5 -47.5t42.5 -20.5z" />
    <glyph glyph-name="A" unicode="A" horiz-adv-x="723" 
d="M363 730h168l139 -730h-168l-20 114h-277l-60 -114h-183zM286 266h170l-41 244z" />
    <glyph glyph-name="B" unicode="B" horiz-adv-x="656" 
d="M135 730h296q58 0 103.5 -17.5t75.5 -48.5t42 -73.5t3 -91.5q-8 -46 -33.5 -79t-63.5 -55q36 -27 52 -69.5t5 -105.5q-17 -92 -91.5 -141t-199.5 -49h-317zM229 295l-25 -142h125q53 0 79 18t32 49q6 33 -15 54t-78 21h-118zM279 578l-23 -130h130q50 0 71.5 18t26.5 42
q7 32 -11.5 51t-65.5 19h-128z" />
    <glyph glyph-name="C" unicode="C" horiz-adv-x="770" 
d="M405 -10q-93 -1 -163.5 33t-115.5 91.5t-62 132.5t-3 158q12 72 47.5 133t89 106t121.5 70.5t145 25.5q58 0 109 -15.5t92 -43t72 -65t50 -82.5l-170 -82q-18 51 -59.5 84t-107.5 33q-41 0 -76.5 -13.5t-63.5 -38t-47 -58.5t-26 -74q-8 -44 1 -84.5t33 -71t60.5 -49
t84.5 -18.5q52 0 94.5 27.5t73.5 77.5l155 -97q-27 -40 -60 -73t-74 -56.5t-90.5 -37t-109.5 -13.5z" />
    <glyph glyph-name="D" unicode="D" horiz-adv-x="735" 
d="M135 730h254q81 0 146.5 -30.5t109 -83t61.5 -121.5t5 -146q-12 -69 -45 -132.5t-84 -111.5t-119 -76.5t-151 -28.5h-305zM280 571l-71 -410h110q40 0 76 17t64.5 44.5t47.5 63t25 73.5q7 44 -0.5 82.5t-29 67.5t-56 45.5t-81.5 16.5h-85z" />
    <glyph glyph-name="E" unicode="E" horiz-adv-x="616" 
d="M135 730h514l-29 -161h-339l-21 -123h339l-29 -162h-339l-21 -123h339l-28 -161h-514z" />
    <glyph glyph-name="F" unicode="F" horiz-adv-x="581" 
d="M135 730h486l-29 -162h-312l-23 -131h312l-29 -162h-311l-48 -275h-174z" />
    <glyph glyph-name="G" unicode="G" horiz-adv-x="816" 
d="M401 -10q-87 0 -156.5 33.5t-115 90t-64 130.5t-4.5 156q12 70 47.5 132t89 108.5t122.5 73t148 26.5q57 0 107 -14.5t90.5 -40.5t71 -61.5t50.5 -76.5l-170 -82q-20 52 -61 81t-103 29q-45 0 -82 -15.5t-65.5 -41.5t-47 -60.5t-25.5 -72.5q-8 -45 1 -86t33.5 -72.5
t62 -50.5t86.5 -19q62 0 104 28.5t67 75.5h-202l29 162h393l-15 -85q-14 -79 -48 -143t-84.5 -109.5t-116.5 -70.5t-142 -25z" />
    <glyph glyph-name="H" unicode="H" horiz-adv-x="708" 
d="M481 281h-250l-49 -281h-175l128 730h175l-49 -277h250l49 277h175l-128 -730h-175z" />
    <glyph glyph-name="I" unicode="I" horiz-adv-x="288" 
d="M138 730h174l-128 -730h-175z" />
    <glyph glyph-name="J" unicode="J" horiz-adv-x="539" 
d="M230 -10q-96 0 -155.5 49.5t-81.5 138.5l172 51q12 -76 68 -76q29 0 47 20t24 52l90 505h175l-91 -513q-20 -107 -81 -167t-167 -60z" />
    <glyph glyph-name="K" unicode="K" horiz-adv-x="675" 
d="M331 316l-115 -122l-34 -194h-175l128 730h175l-54 -308l273 308h215l-274 -301l158 -429h-184z" />
    <glyph glyph-name="L" unicode="L" horiz-adv-x="556" 
d="M135 730h175l-99 -563h288l-29 -167h-463z" />
    <glyph glyph-name="M" unicode="M" horiz-adv-x="832" 
d="M135 730h148l159 -264l260 264h157l-128 -730h-171l79 451l-232 -236l-148 245l-81 -460h-171z" />
    <glyph glyph-name="N" unicode="N" horiz-adv-x="751" 
d="M135 730h172l219 -453l80 453h172l-128 -730h-167l-224 460l-81 -460h-171z" />
    <glyph glyph-name="O" unicode="O" horiz-adv-x="829" 
d="M400 -10q-86 0 -155 33.5t-114.5 90t-65 130.5t-5.5 156q12 72 48.5 134.5t90 108t121.5 71.5t143 26q85 0 153.5 -33.5t114.5 -90t65.5 -130.5t5.5 -156q-12 -72 -47.5 -134.5t-88 -108t-120.5 -71.5t-146 -26zM414 162q42 0 77.5 14t63.5 39t46 58.5t25 72.5
q8 44 -1.5 84.5t-33.5 71t-60.5 49t-83.5 18.5q-42 0 -77.5 -14.5t-63 -39t-46 -58.5t-25.5 -73q-8 -44 1.5 -84t33.5 -70.5t60.5 -49t83.5 -18.5z" />
    <glyph glyph-name="P" unicode="P" horiz-adv-x="671" 
d="M135 730h291q52 0 101 -21.5t84 -60.5t52 -94t5 -122q-9 -57 -34 -104.5t-64.5 -82.5t-92.5 -54.5t-119 -19.5h-146l-30 -171h-175zM282 572l-42 -238h125q56 0 89 32t43 85q4 25 -1.5 47t-19 38.5t-33.5 26t-45 9.5h-116z" />
    <glyph glyph-name="Q" unicode="Q" horiz-adv-x="837" 
d="M582 38q-42 -23 -88 -35.5t-94 -12.5q-86 0 -155 33.5t-114.5 90t-65 130.5t-5.5 156q12 72 48.5 134.5t90 108t121.5 71.5t143 26q85 0 153.5 -33.5t114.5 -90t65.5 -130.5t5.5 -156q-10 -51 -34.5 -99.5t-59.5 -90.5l95 -140h-195zM414 159q36 0 71 11l-137 204h196
l62 -98q16 33 23 70q8 44 -1.5 85t-34 72.5t-61.5 50t-85 18.5q-42 0 -78 -14.5t-64 -40t-47 -59.5t-26 -74q-8 -44 2 -84.5t34 -72t61 -50t85 -18.5z" />
    <glyph glyph-name="R" unicode="R" horiz-adv-x="681" 
d="M135 730h301q60 0 110 -20.5t84 -58t48.5 -89t3.5 -113.5q-11 -63 -57 -116.5t-122 -82.5l129 -250h-195l-106 224h-110l-39 -224h-175zM282 574l-34 -195h119q54 0 89.5 22.5t43.5 67.5q4 22 0 41t-16.5 33t-34 22.5t-52.5 8.5h-115z" />
    <glyph glyph-name="S" unicode="S" horiz-adv-x="627" 
d="M295 -11q-56 0 -104 12t-87 33t-69.5 48.5t-51.5 59.5l161 117q25 -51 67 -78t101 -27q40 0 67.5 17.5t32.5 44.5q3 20 -7 34t-29.5 24.5t-45.5 19.5t-55 18q-38 12 -76.5 28t-67.5 42t-43 65t-4 98q8 45 33.5 81t63.5 61.5t85.5 39.5t98.5 14q54 0 97 -9t77.5 -26
t62.5 -41.5t52 -55.5l-153 -103q-17 32 -54 57.5t-94 25.5q-43 0 -67 -16t-29 -42q-3 -17 6.5 -28.5t28 -21t43.5 -17.5t53 -17q39 -12 79 -29t70.5 -45.5t45.5 -71t4 -106.5q-8 -42 -31.5 -79.5t-61 -65.5t-88 -44.5t-111.5 -16.5z" />
    <glyph glyph-name="T" unicode="T" horiz-adv-x="641" 
d="M187 0l99 568h-196l29 162h565l-28 -162h-197l-99 -568h-173z" />
    <glyph glyph-name="U" unicode="U" horiz-adv-x="703" 
d="M317 -10q-62 0 -115 19t-90.5 56t-54 91t-4.5 123l80 451h177l-82 -443q-12 -63 16.5 -101.5t83.5 -38.5q62 0 99.5 36.5t47.5 89.5l81 457h177l-81 -453q-12 -66 -38.5 -119.5t-68 -90.5t-98.5 -57t-130 -20z" />
    <glyph glyph-name="V" unicode="V" horiz-adv-x="723" 
d="M227 0l-139 730h174l84 -494l261 494h189l-401 -730h-168z" />
    <glyph glyph-name="W" unicode="W" horiz-adv-x="1035" 
d="M593 0l-46 459l-223 -459h-173l-55 730h179l24 -446l219 446h153l48 -455l201 455h184l-337 -730h-174z" />
    <glyph glyph-name="X" unicode="X" horiz-adv-x="649" 
d="M324 228l-164 -228h-202l290 381l-153 349h182l90 -213l158 213h199l-285 -369l163 -361h-184z" />
    <glyph glyph-name="Y" unicode="Y" horiz-adv-x="667" 
d="M247 327l-161 403h178l98 -255l187 255h198l-330 -429l-53 -301h-174z" />
    <glyph glyph-name="Z" unicode="Z" horiz-adv-x="651" 
d="M5 0l27 156l405 418h-321l27 156h534l-27 -155l-402 -416h336l-28 -159h-551z" />
    <glyph glyph-name="bracketleft" unicode="[" horiz-adv-x="405" 
d="M136 730h302l-28 -162h-128l-112 -636h127l-28 -162h-301z" />
    <glyph glyph-name="backslash" unicode="\" horiz-adv-x="595" 
d="M122 730h172l225 -730h-172z" />
    <glyph glyph-name="bracketright" unicode="]" horiz-adv-x="405" 
d="M-5 -68h128l113 636h-128l28 162h302l-169 -960h-302z" />
    <glyph glyph-name="asciicircum" unicode="^" 
d="M295 738h106l86 -171h-120l-32 71l-58 -71h-128z" />
    <glyph glyph-name="underscore" unicode="_" horiz-adv-x="473" 
d="M1 -49h370l-25 -143h-370z" />
    <glyph glyph-name="grave" unicode="`" 
d="M184 775h162l80 -177h-119z" />
    <glyph glyph-name="a" unicode="a" horiz-adv-x="645" 
d="M251 -11q-58 0 -102.5 25t-73 67.5t-39 99t1.5 119.5q9 56 34 102.5t61.5 79.5t82.5 51t97 18q59 0 97 -23t58 -62l13 74h166l-95 -540h-163l12 66q-26 -35 -64 -56t-86 -21zM309 145q24 0 45.5 8.5t38.5 24t28.5 36.5t16.5 45q5 28 -0.5 53.5t-20 44t-37 29.5t-49.5 11
q-25 0 -47.5 -9t-39.5 -24t-28.5 -35.5t-14.5 -44.5q-5 -27 1 -52.5t20.5 -44.5t36.5 -30.5t50 -11.5z" />
    <glyph glyph-name="b" unicode="b" horiz-adv-x="646" 
d="M337 -11q-59 0 -98.5 24t-61.5 64l-13 -77h-165l140 788h163l-51 -292q24 25 56.5 39.5t75.5 15.5q58 0 105 -24.5t77 -66.5t42 -97.5t1 -118.5q-10 -59 -35 -106t-61 -80t-80.5 -51t-94.5 -18zM314 144q25 0 46.5 8.5t39 24t29 36.5t15.5 45q4 27 -1.5 52.5t-20 44.5
t-37 30.5t-51.5 11.5q-24 0 -45.5 -8.5t-38.5 -23.5t-29 -36t-16 -45q-5 -27 1 -52.5t20.5 -45t37 -31t50.5 -11.5z" />
    <glyph glyph-name="c" unicode="c" horiz-adv-x="602" 
d="M297 -11q-72 0 -125.5 27t-86.5 71t-45.5 101t-1.5 117q10 51 36 96t65.5 78.5t90.5 52.5t110 19q48 0 88.5 -13t72.5 -36.5t54.5 -55t34.5 -67.5l-158 -58q-11 33 -36 54.5t-67 22.5q-21 0 -42 -8t-38.5 -23t-30.5 -36t-17 -46q-5 -27 1 -52.5t20 -45t36 -31.5t51 -12
q36 0 65 20.5t46 52.5l147 -72q-38 -70 -107 -113t-163 -43z" />
    <glyph glyph-name="d" unicode="d" horiz-adv-x="645" 
d="M252 -11q-58 0 -102.5 25t-73 67.5t-39 99t1.5 119.5q9 56 34 102.5t61.5 79.5t82.5 51t97 18q59 0 97 -23t58 -63l57 323h163l-138 -788h-161l12 66q-26 -35 -64 -56t-86 -21zM310 145q24 0 45.5 8.5t38.5 24t28.5 36.5t16.5 45q5 28 -0.5 53.5t-20 44t-37 29.5
t-49.5 11q-25 0 -47.5 -9t-39.5 -24t-28.5 -35.5t-14.5 -44.5q-5 -27 1 -52.5t20.5 -44.5t36.5 -30.5t50 -11.5z" />
    <glyph glyph-name="e" unicode="e" horiz-adv-x="622" 
d="M300 -11q-70 0 -124 25.5t-88.5 68.5t-48 99.5t-2.5 118.5q10 57 38 103t69 78.5t92.5 50.5t107.5 18q64 0 115 -24t84.5 -65t47 -94.5t3.5 -111.5l-7 -42h-402q10 -39 41.5 -62t80.5 -23q33 0 61.5 15.5t48.5 39.5l131 -85q-41 -49 -100.5 -79.5t-147.5 -30.5zM334 412
q-45 0 -78 -20t-52 -54h236q-7 34 -33 54t-73 20z" />
    <glyph glyph-name="f" unicode="f" horiz-adv-x="422" 
d="M74 540h79l1 6q14 79 31.5 126.5t47 73t73.5 34t110 8.5h69l-27 -153h-56q-38 0 -55 -15t-25 -61l-4 -19h124l-27 -151h-123l-67 -389h-167l68 389h-79z" />
    <glyph glyph-name="g" unicode="g" horiz-adv-x="646" 
d="M262 -5q-60 0 -106.5 24.5t-76 66.5t-40.5 98t0 119q10 56 35 102t61.5 78.5t82.5 50t97 17.5q57 0 93.5 -21.5t56.5 -57.5l13 68h169l-89 -510q-11 -59 -33.5 -108.5t-59.5 -84.5t-88.5 -54.5t-119.5 -19.5q-47 0 -89.5 11.5t-77 32t-60 49.5t-40.5 65l173 54
q11 -32 36 -50.5t66 -18.5q55 0 84.5 34.5t37.5 84.5q0 -1 1.5 8t4.5 23q-20 -28 -51.5 -44.5t-79.5 -16.5zM312 151q50 0 84.5 29.5t42.5 78.5q5 28 -1 53t-20 44t-36 30t-49 11q-26 0 -48 -8.5t-39 -23t-28 -34.5t-15 -44q-5 -27 1 -51.5t20.5 -43.5t36.5 -30t51 -11z" />
    <glyph glyph-name="h" unicode="h" horiz-adv-x="596" 
d="M139 788h163l-55 -311q28 37 65 55.5t87 18.5q45 0 79.5 -16.5t56 -48t28 -76t-3.5 -100.5l-55 -310h-171l53 299q10 51 -7 77.5t-59 26.5q-41 0 -67.5 -26.5t-34.5 -82.5l-53 -294h-166z" />
    <glyph glyph-name="i" unicode="i" horiz-adv-x="263" 
d="M-1 0l96 540h169l-95 -540h-170zM195 585q-23 0 -41.5 8.5t-30 23.5t-16.5 34.5t-1 42.5q4 19 14 35.5t24.5 27.5t32.5 17.5t37 6.5q24 0 42.5 -9t30 -24t15.5 -35t0 -42q-8 -38 -35.5 -62t-71.5 -24z" />
    <glyph glyph-name="j" unicode="j" horiz-adv-x="261" 
d="M-107 -70q32 0 51 2t30 11t16.5 26.5t11.5 49.5l92 521h169l-92 -522q-13 -73 -28 -120t-41 -74.5t-68.5 -38.5t-109.5 -11h-60zM196 585q-48 0 -72.5 32t-16.5 77q7 39 37.5 63t68.5 24q24 0 42.5 -9t30 -24t15.5 -35t0 -42q-8 -38 -35.5 -62t-69.5 -24z" />
    <glyph glyph-name="k" unicode="k" horiz-adv-x="584" 
d="M272 222l-81 -78l-25 -144h-168l140 788h166l-79 -452l205 204h206l-230 -227l142 -313h-180z" />
    <glyph glyph-name="l" unicode="l" horiz-adv-x="261" 
d="M139 788h166l-138 -788h-168z" />
    <glyph glyph-name="m" unicode="m" horiz-adv-x="918" 
d="M94 540h166l-12 -67q27 37 63.5 57.5t84.5 20.5q52 0 88.5 -22t54.5 -62q64 84 170 84q50 0 87.5 -16t60 -46t30 -72.5t-2.5 -94.5l-59 -322h-168l55 305q9 47 -7 73t-57 26q-42 0 -66 -29t-32 -78l-54 -297h-169l55 305q9 48 -7 73.5t-57 25.5q-40 0 -65 -29t-34 -79
q-1 -4 -3.5 -18.5t-6.5 -36.5t-9 -48t-10 -53q-11 -63 -25 -140h-167z" />
    <glyph glyph-name="n" unicode="n" horiz-adv-x="597" 
d="M94 540h166l-12 -66q29 38 66 57.5t88 19.5q44 0 78 -17t55 -48.5t28 -76t-3 -99.5l-55 -310h-171l55 299q9 51 -7.5 77.5t-59.5 26.5q-85 0 -103 -109l-54 -294h-167z" />
    <glyph glyph-name="o" unicode="o" horiz-adv-x="637" 
d="M297 -11q-72 0 -125.5 27t-86.5 71t-45.5 101t-1.5 117q10 51 36 96t65.5 78.5t90.5 52.5t110 19q71 0 124.5 -26.5t87 -70.5t46 -100.5t1.5 -116.5q-10 -52 -35 -97.5t-64 -79t-90.5 -52.5t-112.5 -19zM308 144q46 0 82.5 30.5t45.5 81.5q5 27 -0.5 52.5t-19.5 45
t-36 31.5t-50 13q-23 0 -44 -8t-38.5 -23t-30 -36t-16.5 -46q-5 -27 1 -52.5t20 -45t36 -31.5t50 -12z" />
    <glyph glyph-name="p" unicode="p" horiz-adv-x="644" 
d="M94 540h163l-11 -62q23 32 58.5 52t86.5 21q54 0 99 -24t74.5 -66t41.5 -98.5t1 -120.5q-9 -56 -33.5 -102.5t-60.5 -80t-81.5 -52t-97.5 -18.5q-59 0 -97.5 22.5t-58.5 61.5l-51 -289h-167zM313 144q25 0 47 9t39.5 24t28.5 35.5t15 44.5q4 27 -1.5 52t-19.5 44.5
t-36.5 31t-51.5 11.5q-48 0 -83.5 -32.5t-44.5 -81.5q-6 -28 0 -53t20.5 -44t37 -30t49.5 -11z" />
    <glyph glyph-name="q" unicode="q" horiz-adv-x="643" 
d="M270 -11q-63 0 -111 24.5t-79 67.5t-42 99.5t0 119.5q10 55 35.5 101.5t62 79.5t82.5 51.5t97 18.5q58 0 94.5 -22.5t56.5 -58.5l13 70h166l-133 -756h-166l44 254q-22 -23 -51.5 -35.5t-68.5 -13.5zM312 145q50 0 85 32.5t43 81.5q5 28 -1 53t-20 44t-36 30t-49 11
q-26 0 -48 -9t-39.5 -24t-29 -35.5t-14.5 -44.5q-5 -27 1 -52t20.5 -44.5t36.5 -31t51 -11.5z" />
    <glyph glyph-name="r" unicode="r" horiz-adv-x="430" 
d="M94 540h158l-19 -102q47 102 146 102h73l-31 -172h-69q-35 0 -58.5 -5t-39.5 -18.5t-25.5 -37.5t-16.5 -61l-44 -246h-170z" />
    <glyph glyph-name="s" unicode="s" horiz-adv-x="519" 
d="M236 -11q-95 0 -159.5 31.5t-102.5 77.5l138 98q22 -32 59 -52t76 -20q25 0 40.5 10.5t18.5 28.5q1 10 -6 17.5t-20.5 14t-32 12t-38.5 11.5q-32 9 -64.5 21t-57 32t-37 50.5t-4.5 75.5q6 34 25.5 62.5t50 48.5t70 31.5t85.5 11.5q77 0 139.5 -25.5t98.5 -67.5l-125 -90
q-17 23 -48 40t-67 17q-51 0 -56 -34q-2 -16 23 -27t73 -25q31 -8 63 -21t56.5 -34.5t37.5 -53t5 -77.5q-6 -35 -24 -64.5t-48.5 -52t-72.5 -35t-96 -12.5z" />
    <glyph glyph-name="t" unicode="t" horiz-adv-x="436" 
d="M71 540h95l23 127l177 91l-39 -218h121l-26 -148h-121l-26 -149q-6 -29 -6 -46t9 -26t28 -11.5t51 -2.5h24l-28 -157h-51q-69 0 -111.5 12t-63.5 39.5t-23.5 72.5t9.5 111l27 157h-96z" />
    <glyph glyph-name="u" unicode="u" horiz-adv-x="590" 
d="M195 -11q-94 0 -136 61t-22 168l56 322h172l-54 -304q-9 -50 7.5 -75t55.5 -25q37 0 62.5 25.5t34.5 78.5l54 300h167l-95 -540h-166l11 62q-28 -35 -64 -54t-83 -19z" />
    <glyph glyph-name="v" unicode="v" horiz-adv-x="585" 
d="M55 540h172l50 -317l164 317h184l-297 -540h-168z" />
    <glyph glyph-name="w" unicode="w" horiz-adv-x="917" 
d="M59 540h168l36 -305l164 305h142l53 -308l153 308h179l-281 -540h-162l-52 310l-170 -310h-154z" />
    <glyph glyph-name="x" unicode="x" horiz-adv-x="593" 
d="M205 282l-142 258h179l75 -145l118 145h199l-240 -277l143 -263h-178l-76 150l-120 -150h-201z" />
    <glyph glyph-name="y" unicode="y" horiz-adv-x="594" 
d="M62 -224q-60 0 -105.5 18t-74.5 45l118 131q11 -17 29 -27.5t44 -10.5q29 0 51.5 12.5t42.5 50.5l17 31l-128 514h174l69 -309l160 309h177l-302 -553q-32 -60 -62.5 -100t-63 -65t-68.5 -35.5t-78 -10.5z" />
    <glyph glyph-name="z" unicode="z" horiz-adv-x="554" 
d="M11 149l307 245h-259l26 146h481l-27 -148l-305 -245h266l-26 -147h-490z" />
    <glyph glyph-name="braceleft" unicode="{" horiz-adv-x="416" 
d="M273 -230q-63 0 -104 11t-62.5 36.5t-25.5 67t7 102.5l15 86q5 30 5.5 49.5t-7 30t-24.5 14.5t-47 4l27 156q31 0 50 4t30 14.5t17 29.5t11 49l16 89q11 61 29.5 102.5t49.5 67t75.5 36.5t106.5 11h11l-27 -156q-21 0 -34 -2t-21 -9t-12.5 -19t-8.5 -32l-15 -89
q-13 -70 -37 -112.5t-70 -63.5q36 -23 45.5 -65t-1.5 -108l-15 -86q-3 -20 -3 -32t6 -19t18.5 -9t33.5 -2l-28 -156h-11z" />
    <glyph glyph-name="bar" unicode="|" horiz-adv-x="277" 
d="M135 730h175l-169 -961h-174z" />
    <glyph glyph-name="braceright" unicode="}" horiz-adv-x="416" 
d="M-10 -76q20 0 33 2t21.5 9t13 19t7.5 32l15 87q12 70 36.5 111.5t70.5 63.5q-37 23 -46.5 65t1.5 108l16 89q3 20 3 32t-5.5 19t-18 9t-33.5 2l27 156h11q63 0 104 -11t62.5 -36.5t25.5 -67t-7 -102.5l-16 -89q-5 -30 -5.5 -49.5t7 -30t24.5 -14.5t47 -4l-27 -155
q-31 0 -49.5 -4t-29.5 -15t-17 -29.5t-11 -48.5l-16 -87q-11 -61 -29.5 -102.5t-49.5 -67t-75.5 -36.5t-106.5 -11h-11z" />
    <glyph glyph-name="asciitilde" unicode="~" horiz-adv-x="545" 
d="M152 551q10 69 47 110t92 41q25 0 41.5 -7.5t30.5 -15.5q11 -8 20.5 -15t19.5 -7q22 0 26 42h94q-11 -69 -46 -110.5t-92 -41.5q-26 0 -42.5 8.5t-30.5 17.5q-11 7 -20 12.5t-20 5.5q-22 0 -26 -40h-94v0z" />
    <glyph glyph-name="nonbreakingspace" unicode="&#xa0;" horiz-adv-x="227" 
 />
    <glyph glyph-name="exclamdown" unicode="&#xa1;" horiz-adv-x="278" 
d="M-12 -112q18 102 47.5 198t64.5 197h95q-1 -101 -7.5 -197t-24.5 -198l-20 -117h-176zM158 316q-46 0 -71 32t-15 79q7 38 35 62t72 24q24 0 41.5 -9t29 -24t15.5 -34.5t0 -41.5q-7 -39 -36.5 -63.5t-70.5 -24.5z" />
    <glyph glyph-name="cent" unicode="&#xa2;" horiz-adv-x="596" 
d="M177 12q-39 17 -67 45.5t-44.5 64.5t-21.5 77t3 83q7 40 26 76t47 65.5t64.5 50t79.5 29.5l23 127h169l-25 -140q49 -21 82.5 -58.5t47.5 -85.5l-160 -56q-8 29 -29 47.5t-56 18.5t-66 -25.5t-39 -68.5q-4 -23 0.5 -43.5t16.5 -37t30 -26t41 -9.5q31 0 54.5 17t37.5 44
l148 -72q-29 -54 -78.5 -91.5t-117.5 -48.5l-21 -125h-169z" />
    <glyph glyph-name="sterling" unicode="&#xa3;" horiz-adv-x="730" 
d="M125 441h88q-3 24 -3 50t5 55q7 44 29.5 80t56 61.5t76.5 39t93 13.5q87 0 139.5 -36.5t70.5 -94.5l-160 -61q-6 20 -21.5 32.5t-40.5 12.5q-29 0 -48.5 -15.5t-23.5 -41.5q-5 -23 -3.5 -46.5t5.5 -48.5h159l-23 -133h-115q2 -23 1.5 -46t-5.5 -48q-6 -35 -21 -70
q27 -16 52 -16q29 0 42 13t18 42l11 61h177l-15 -86q-14 -75 -62 -121.5t-137 -46.5q-48 0 -87 15.5t-71 37.5q-27 -24 -62.5 -39t-80.5 -15q-44 0 -75 11t-49.5 30.5t-25 46t-0.5 57.5q9 49 48.5 79t96.5 30q52 -1 96 -22q0 20 -4.5 42t-10.5 45h-143zM172 94q23 0 45 22
q-13 8 -24 13.5t-22 5.5q-22 0 -25 -17q-2 -10 3.5 -17t22.5 -7z" />
    <glyph glyph-name="currency" unicode="&#xa4;" horiz-adv-x="831" 
d="M542 122q-49 -20 -104 -20q-79 0 -139 37l-152 -141l-101 111l153 141q-24 51 -24 112q0 76 37 136l-107 126l121 104l108 -126q23 9 49 14.5t55 5.5q72 0 132 -34l149 138l101 -109l-148 -136q14 -27 21.5 -57t7.5 -62q0 -75 -37 -137l104 -121l-120 -105zM438 260
q41 0 69 29t28 73t-28 73.5t-69 29.5q-42 0 -69 -29.5t-27 -73.5t27 -73t69 -29z" />
    <glyph glyph-name="yen" unicode="&#xa5;" horiz-adv-x="688" 
d="M124 401h154l-165 329h182l90 -185l157 185h200l-287 -329h158l-24 -136h-165l-8 -47h165l-23 -136h-166l-14 -82h-164l14 82h-159l23 136h160l8 47h-160z" />
    <glyph glyph-name="brokenbar" unicode="&#xa6;" horiz-adv-x="277" 
d="M135 730h175l-74 -420h-174zM41 190h174l-74 -420h-174z" />
    <glyph glyph-name="section" unicode="&#xa7;" horiz-adv-x="657" 
d="M302 -10q-53 0 -95.5 12t-74 32t-51 47t-27.5 56l181 45q5 -23 26 -38t53 -15q29 0 42.5 7.5t16.5 20.5q4 17 -27.5 25.5t-87.5 21.5q-56 14 -96 29t-64 35.5t-32.5 48.5t-0.5 69q8 38 41 66.5t81 36.5q-14 22 -19 48t0 56t23 57t46.5 47t67.5 31.5t87 11.5q51 0 91 -12
t69 -32t46 -46t22 -54l-167 -38q-2 23 -21 38t-51 15q-25 0 -37 -7.5t-14 -19.5q-2 -16 26.5 -29.5t83.5 -26.5q48 -11 87.5 -24.5t66 -33.5t38 -48.5t4.5 -68.5q-8 -43 -37 -71t-67 -40q17 -31 12 -77q-5 -42 -24.5 -74.5t-51.5 -55t-74.5 -34t-91.5 -11.5zM372 331
q18 -5 34 -9.5t30 -9.5q26 7 29 27q3 19 -33 31t-107 29q-29 7 -53 19q-17 -4 -25 -12.5t-9 -17.5q-2 -19 30 -29.5t104 -27.5z" />
    <glyph glyph-name="dieresis" unicode="&#xa8;" horiz-adv-x="529" 
d="M215 594q-22 0 -39 8t-28 22.5t-15 33t-1 39.5q7 38 36 60.5t66 22.5q45 0 67.5 -31t13.5 -73q-7 -36 -32.5 -59t-67.5 -23zM436 594q-22 0 -39 8t-27.5 22.5t-15 33t-0.5 39.5q6 38 35 60.5t66 22.5q45 0 68 -31t14 -73q-8 -36 -33.5 -59t-67.5 -23z" />
    <glyph glyph-name="copyright" unicode="&#xa9;" horiz-adv-x="840" 
d="M399 -67q-86 0 -155 33.5t-114.5 90t-65 130.5t-5.5 156q12 72 48.5 134.5t90 108t121.5 71.5t143 26q85 0 154 -33.5t115 -90t65.5 -130.5t5.5 -156q-12 -72 -47.5 -134t-89 -107.5t-121.5 -72t-145 -26.5zM412 70q48 0 90 17t74.5 46.5t54 69t29.5 85.5q9 51 -2 98
t-38.5 83t-70.5 57.5t-97 21.5q-49 0 -91 -17t-74.5 -46.5t-54.5 -69t-30 -85.5q-9 -51 2 -98t38.5 -83t71 -57.5t98.5 -21.5zM415 110q-46 0 -81.5 17.5t-58.5 47.5t-32.5 69.5t-2.5 82.5q6 36 24 68.5t46 57t64 39t78 14.5q66 0 109 -34.5t60 -88.5l-122 -46
q-6 21 -17.5 34t-36.5 13q-28 0 -49 -19.5t-26 -49.5q-5 -32 10.5 -56t50.5 -24q21 0 36 12.5t25 34.5l111 -53q-25 -51 -70.5 -85t-117.5 -34z" />
    <glyph glyph-name="ordfeminine" unicode="&#xaa;" horiz-adv-x="440" 
d="M292 460q-13 -22 -32 -35t-48 -13q-30 0 -54.5 11.5t-41.5 33t-24 53t-1 71.5q5 41 21 70.5t38 48.5t47.5 28t50.5 9q33 0 53 -12.5t30 -32.5l7 38h121l-56 -313h-118zM255 525q20 0 35 14t18 35q3 20 -8.5 35.5t-32.5 15.5q-22 0 -37.5 -13t-18.5 -35q-3 -23 9 -37.5
t35 -14.5z" />
    <glyph glyph-name="guillemotleft" unicode="&#xab;" horiz-adv-x="501" 
d="M52 202l18 103l197 119l-21 -127l-84 -47l67 -46l-21 -121zM256 202l18 103l197 119l-22 -127l-83 -47l67 -46l-21 -121z" />
    <glyph glyph-name="logicalnot" unicode="&#xac;" horiz-adv-x="661" 
d="M461 421h-371l27 156h539l-61 -364h-169z" />
    <glyph glyph-name="uni00AD" unicode="&#xad;" horiz-adv-x="473" 
d="M65 326h370l-25 -143h-370z" />
    <glyph glyph-name="registered" unicode="&#xae;" horiz-adv-x="841" 
d="M389 -125q-86 0 -155 33.5t-114.5 90t-65 131t-5.5 156.5q12 72 48.5 134.5t90 108t121.5 71.5t143 26q85 0 154 -33.5t115 -90t65.5 -130.5t5.5 -156q-12 -72 -47.5 -134.5t-89 -108t-121.5 -72t-145 -26.5zM192 273q-10 -51 1 -98t39 -83l60 338h171q43 0 73.5 -12.5
t49 -32.5t25 -45.5t2.5 -51.5q-12 -72 -80 -98l39 -108q30 29 50 67t28 82q9 51 -2 98t-38.5 83t-70.5 57.5t-97 21.5q-49 0 -91 -17t-74.5 -46.5t-54.5 -69t-30 -85.5zM402 13q48 0 89.5 17t73.5 46h-132l-43 150l-27 -150h-117q28 -29 67.5 -46t88.5 -17zM407 322l-12 -64
h33q19 0 32.5 8t16.5 25t-8 24t-30 7h-32z" />
    <glyph glyph-name="macron" unicode="&#xaf;" 
d="M201 711h264l-21 -113h-264z" />
    <glyph glyph-name="degree" unicode="&#xb0;" horiz-adv-x="465" 
d="M277 372q-43 0 -77.5 16.5t-57.5 43.5t-34 62.5t-8 73.5q3 36 19 67t41.5 54.5t59.5 37t73 13.5q43 0 77.5 -16t58 -43t35 -62.5t7.5 -74.5q-3 -36 -18.5 -67t-41 -54.5t-60 -37t-74.5 -13.5zM284 513q17 0 30 12t14 30t-11 31.5t-30 13.5q-17 0 -30 -12.5t-14 -29.5
q-1 -18 11 -31.5t30 -13.5z" />
    <glyph glyph-name="plusminus" unicode="&#xb1;" horiz-adv-x="474" 
d="M105 550h114l20 114h143l-21 -114h114l-25 -142h-114l-20 -114h-142l20 114h-114zM53 253h370l-25 -142h-371z" />
    <glyph glyph-name="twosuperior" unicode="&#xb2;" horiz-adv-x="401" 
d="M63 400q5 30 20 53t35.5 41t44 31t44.5 24q30 15 52.5 26t25.5 26q5 27 -33 27q-23 0 -39.5 -16t-25.5 -40l-108 53q27 54 74.5 82.5t103.5 28.5q81 0 122 -42t30 -110q-4 -24 -17.5 -41.5t-32 -31t-39.5 -24.5t-40 -20q-23 -11 -43 -21t-31 -21h174l-20 -117h-313z" />
    <glyph glyph-name="threesuperior" unicode="&#xb3;" horiz-adv-x="402" 
d="M202 302q-54 0 -97 17t-74 48l111 78q14 -15 30 -20.5t39 -5.5q37 0 42 24q2 11 -7 18t-30 7h-53l19 109h56q32 0 38 24q3 11 -7 18.5t-28 7.5q-26 0 -46 -10.5t-28 -22.5l-84 85q26 23 70.5 40t91.5 17q42 0 73.5 -11t51.5 -30t28.5 -45.5t3.5 -56.5q-9 -51 -54 -76
q21 -17 30.5 -42t3.5 -58q-5 -28 -20 -49.5t-39 -36t-55 -22t-66 -7.5z" />
    <glyph glyph-name="acute" unicode="&#xb4;" 
d="M354 775h170l-187 -177h-126z" />
    <glyph glyph-name="mu" unicode="&#xb5;" horiz-adv-x="591" 
d="M94 540h172l-54 -304q-9 -50 7.5 -75t55.5 -25q37 0 62.5 25.5t34.5 78.5l54 300h167l-95 -540h-166l11 66q-23 -37 -52 -57t-65 -20q-34 0 -59 17l-39 -222h-168z" />
    <glyph glyph-name="mu" unicode="&#x3bc;" horiz-adv-x="591" 
d="M94 540h172l-54 -304q-9 -50 7.5 -75t55.5 -25q37 0 62.5 25.5t34.5 78.5l54 300h167l-95 -540h-166l11 66q-23 -37 -52 -57t-65 -20q-34 0 -59 17l-39 -222h-168z" />
    <glyph glyph-name="paragraph" unicode="&#xb6;" horiz-adv-x="753" 
d="M364 302h-76q-51 1 -90.5 19.5t-65 49.5t-36 73.5t-1.5 92.5q7 41 28.5 76t53 61t70.5 41t82 15h457l-128 -730h-153l99 572h-40l-100 -572h-153z" />
    <glyph glyph-name="periodcentered" unicode="&#xb7;" horiz-adv-x="276" 
d="M129 154q-23 0 -41 8.5t-29.5 23.5t-16 34.5t-0.5 41.5q7 40 37.5 64t69.5 24q24 0 42 -9t29.5 -24t15.5 -35t-1 -42q-8 -38 -34.5 -62t-71.5 -24z" />
    <glyph glyph-name="cedilla" unicode="&#xb8;" 
d="M172 -286q-61 0 -104 18t-70 47l105 62q13 -14 31.5 -23t39.5 -9q22 0 35.5 6t15.5 19q7 25 -43 25h-65l26 141h113l-12 -61q52 -6 77.5 -37.5t17.5 -82.5q-10 -51 -55.5 -78t-111.5 -27z" />
    <glyph glyph-name="onesuperior" unicode="&#xb9;" horiz-adv-x="327" 
d="M134 309l44 249q-17 -27 -39.5 -34.5t-51.5 -7.5h-7l23 128h3q50 0 76 18t35 69h116l-74 -422h-125z" />
    <glyph glyph-name="ordmasculine" unicode="&#xba;" horiz-adv-x="404" 
d="M243 414q-37 0 -66.5 14t-49.5 38t-29 55t-5 65q4 32 18.5 60t38 48.5t53.5 32.5t65 12q37 0 66.5 -14t49.5 -37.5t29.5 -55t5.5 -65.5q-5 -32 -19 -59.5t-36.5 -48.5t-53 -33t-67.5 -12zM252 528q18 0 33 13t17 33t-10 35.5t-33 15.5q-19 0 -33.5 -13.5t-15.5 -33.5
q-3 -20 8.5 -35t33.5 -15z" />
    <glyph glyph-name="guillemotright" unicode="&#xbb;" horiz-adv-x="501" 
d="M450 303l-18 -102l-197 -119l22 127l83 46l-67 47l21 120zM246 303l-18 -102l-197 -119l22 127l83 46l-67 47l21 120z" />
    <glyph glyph-name="onequarter" unicode="&#xbc;" horiz-adv-x="879" 
d="M647 78h-180l19 109l203 235h137l-43 -241h63l-19 -103h-62l-13 -78h-118zM665 181l16 89l-72 -89h56zM667 730h197l-646 -730h-198zM136 309l44 249q-17 -27 -39.5 -34.5t-51.5 -7.5h-7l23 128h3q50 0 76 18t35 69h116l-74 -422h-125z" />
    <glyph glyph-name="onehalf" unicode="&#xbd;" horiz-adv-x="933" 
d="M542 92q5 30 20 53t35.5 41t44 31t44.5 24q30 15 52.5 26t25.5 26q5 27 -33 27q-23 0 -39.5 -16t-25.5 -40l-108 53q27 54 74.5 82.5t103.5 28.5q81 0 122 -42t30 -110q-4 -24 -17.5 -41.5t-32 -31t-39.5 -24.5t-40 -20q-23 -11 -43 -21t-31 -21h174l-20 -117h-313z
M667 730h197l-646 -730h-198zM136 309l44 249q-17 -27 -39.5 -34.5t-51.5 -7.5h-7l23 128h3q50 0 76 18t35 69h116l-74 -422h-125z" />
    <glyph glyph-name="threequarters" unicode="&#xbe;" horiz-adv-x="954" 
d="M203 302q-54 0 -97 17t-74 48l111 78q14 -15 30 -20.5t39 -5.5q37 0 42 24q2 11 -7 18t-30 7h-53l19 109h56q32 0 38 24q3 11 -7 18.5t-28 7.5q-26 0 -46 -10.5t-28 -22.5l-84 85q26 23 70.5 40t91.5 17q42 0 73.5 -11t51.5 -30t28.5 -45.5t3.5 -56.5q-9 -51 -54 -76
q21 -17 30.5 -42t3.5 -58q-5 -28 -20 -49.5t-39 -36t-55 -22t-66 -7.5zM722 78h-180l19 109l203 235h137l-43 -241h63l-19 -103h-62l-13 -78h-118zM740 181l16 89l-72 -89h56zM742 730h197l-646 -730h-198z" />
    <glyph glyph-name="questiondown" unicode="&#xbf;" horiz-adv-x="587" 
d="M232 -241q-61 0 -106.5 19t-74.5 50.5t-40.5 72t-3.5 84.5q8 46 26 73t41.5 44t49 29.5t48.5 28.5t41 40.5t25 67.5l2 12h148l-2 -12q-11 -64 -29.5 -104.5t-40.5 -65t-45 -37.5t-42.5 -24t-33.5 -24.5t-18 -37.5q-5 -28 13 -48.5t53 -20.5q31 0 51 14.5t33 41.5l152 -78
q-78 -125 -247 -125zM324 313q-24 0 -41.5 9t-29 24t-15.5 34.5t0 41.5q7 39 36.5 63.5t70.5 24.5q46 0 71 -32t15 -79q-7 -38 -35 -62t-72 -24z" />
    <glyph glyph-name="Agrave" unicode="&#xc0;" horiz-adv-x="723" 
d="M363 730h168l139 -730h-168l-20 114h-277l-60 -114h-183zM286 266h170l-41 244zM270 965h162l80 -177h-119z" />
    <glyph glyph-name="Aacute" unicode="&#xc1;" horiz-adv-x="723" 
d="M363 730h168l139 -730h-168l-20 114h-277l-60 -114h-183zM286 266h170l-41 244zM523 965h170l-187 -177h-126z" />
    <glyph glyph-name="Acircumflex" unicode="&#xc2;" horiz-adv-x="723" 
d="M363 730h168l139 -730h-168l-20 114h-277l-60 -114h-183zM286 266h170l-41 244zM436 966h103l87 -177h-120l-33 76l-61 -76h-126z" />
    <glyph glyph-name="Atilde" unicode="&#xc3;" horiz-adv-x="723" 
d="M363 730h168l139 -730h-168l-20 114h-277l-60 -114h-183zM286 266h170l-41 244zM279 788q11 69 47 110t88 41q28 0 45 -7.5t31 -15.5q11 -8 20.5 -15t20.5 -7q21 0 25 42h95q-11 -69 -45.5 -110.5t-88.5 -41.5q-29 0 -46.5 8.5t-31.5 17.5q-11 7 -20 12.5t-20 5.5
q-22 0 -26 -40h-94z" />
    <glyph glyph-name="Adieresis" unicode="&#xc4;" horiz-adv-x="723" 
d="M363 730h168l139 -730h-168l-20 114h-277l-60 -114h-183zM286 266h170l-41 244zM341 784q-22 0 -39 8t-28 22.5t-15 33t-1 39.5q7 38 36 60.5t66 22.5q45 0 67.5 -31t13.5 -73q-7 -36 -32.5 -59t-67.5 -23zM562 784q-22 0 -39 8t-27.5 22.5t-15 33t-0.5 39.5
q6 38 35 60.5t66 22.5q45 0 68 -31t14 -73q-8 -36 -33.5 -59t-67.5 -23z" />
    <glyph glyph-name="Aring" unicode="&#xc5;" horiz-adv-x="723" 
d="M348 702q-28 41 -16 94q9 43 45 72.5t85 29.5q30 0 53 -11.5t37.5 -31t19.5 -44t-1 -51.5q-9 -39 -34 -64l133 -696h-168l-20 114h-277l-60 -114h-183zM286 266h170l-41 244zM446 730q18 0 32 10.5t18 30.5q5 23 -6 39.5t-34 16.5q-17 0 -31 -11.5t-18 -30.5
q-5 -22 4.5 -37.5t29.5 -17.5h5z" />
    <glyph glyph-name="AE" unicode="&#xc6;" horiz-adv-x="919" 
d="M423 730h531l-29 -162h-315l-5 -120h300l-30 -162h-277l-6 -124h262l-28 -162h-407l4 98h-201l-61 -98h-195zM430 255l8 189l-118 -189h110z" />
    <glyph glyph-name="Ccedilla" unicode="&#xc7;" horiz-adv-x="770" 
d="M384 -291q-61 0 -104 18t-70 47l105 62q13 -14 31.5 -23t39.5 -9q22 0 35.5 6t15.5 19q7 25 -43 25h-65l25 139q-80 9 -141 45.5t-99.5 92.5t-52.5 126.5t0 147.5q12 72 47.5 133t89 106t121.5 70.5t145 25.5q58 0 109 -15.5t92 -43t72 -65t50 -82.5l-170 -82
q-18 51 -59.5 84t-107.5 33q-41 0 -76.5 -13.5t-63.5 -38t-47 -58.5t-26 -74q-8 -44 1 -84.5t33 -71t60.5 -49t84.5 -18.5q52 0 94.5 27.5t73.5 77.5l155 -97q-47 -69 -112 -115.5t-159 -59.5l-12 -61q52 -6 77.5 -37.5t17.5 -82.5q-10 -51 -55.5 -78t-111.5 -27z" />
    <glyph glyph-name="Egrave" unicode="&#xc8;" horiz-adv-x="616" 
d="M135 730h514l-29 -161h-339l-21 -123h339l-29 -162h-339l-21 -123h339l-28 -161h-514zM221 965h162l80 -177h-119z" />
    <glyph glyph-name="Eacute" unicode="&#xc9;" horiz-adv-x="616" 
d="M135 730h514l-29 -161h-339l-21 -123h339l-29 -162h-339l-21 -123h339l-28 -161h-514zM474 965h170l-187 -177h-126z" />
    <glyph glyph-name="Ecircumflex" unicode="&#xca;" horiz-adv-x="616" 
d="M135 730h514l-29 -161h-339l-21 -123h339l-29 -162h-339l-21 -123h339l-28 -161h-514zM387 966h103l87 -177h-120l-33 76l-61 -76h-126z" />
    <glyph glyph-name="Edieresis" unicode="&#xcb;" horiz-adv-x="616" 
d="M135 730h514l-29 -161h-339l-21 -123h339l-29 -162h-339l-21 -123h339l-28 -161h-514zM292 784q-22 0 -39 8t-28 22.5t-15 33t-1 39.5q7 38 36 60.5t66 22.5q45 0 67.5 -31t13.5 -73q-7 -36 -32.5 -59t-67.5 -23zM513 784q-22 0 -39 8t-27.5 22.5t-15 33t-0.5 39.5
q6 38 35 60.5t66 22.5q45 0 68 -31t14 -73q-8 -36 -33.5 -59t-67.5 -23z" />
    <glyph glyph-name="Igrave" unicode="&#xcc;" horiz-adv-x="288" 
d="M138 730h174l-128 -730h-175zM52 965h162l80 -177h-119z" />
    <glyph glyph-name="Iacute" unicode="&#xcd;" horiz-adv-x="288" 
d="M138 730h174l-128 -730h-175zM305 965h170l-187 -177h-126z" />
    <glyph glyph-name="Icircumflex" unicode="&#xce;" horiz-adv-x="288" 
d="M138 730h174l-128 -730h-175zM218 966h103l87 -177h-120l-33 76l-61 -76h-126z" />
    <glyph glyph-name="Idieresis" unicode="&#xcf;" horiz-adv-x="288" 
d="M138 730h174l-128 -730h-175zM123 784q-22 0 -39 8t-28 22.5t-15 33t-1 39.5q7 38 36 60.5t66 22.5q45 0 67.5 -31t13.5 -73q-7 -36 -32.5 -59t-67.5 -23zM344 784q-22 0 -39 8t-27.5 22.5t-15 33t-0.5 39.5q6 38 35 60.5t66 22.5q45 0 68 -31t14 -73q-8 -36 -33.5 -59
t-67.5 -23z" />
    <glyph glyph-name="Eth" unicode="&#xd0;" horiz-adv-x="742" 
d="M43 434h66l52 296h234q81 0 146 -30.5t108.5 -83t61.5 -121.5t5 -146q-12 -68 -44.5 -131t-83.5 -111.5t-119.5 -77.5t-152.5 -29h-283l54 311h-68zM262 311l-26 -151h90q40 0 76 17t64 45t47 63.5t25 73.5q7 44 -0.5 82.5t-29 67.5t-56 45.5t-81.5 16.5h-64l-23 -137
h129l-24 -123h-127z" />
    <glyph glyph-name="Ntilde" unicode="&#xd1;" horiz-adv-x="751" 
d="M135 730h172l219 -453l80 453h172l-128 -730h-167l-224 460l-81 -460h-171zM550 954h170l-187 -177h-126z" />
    <glyph glyph-name="Ograve" unicode="&#xd2;" horiz-adv-x="829" 
d="M400 -10q-86 0 -155 33.5t-114.5 90t-65 130.5t-5.5 156q12 72 48.5 134.5t90 108t121.5 71.5t143 26q85 0 153.5 -33.5t114.5 -90t65.5 -130.5t5.5 -156q-12 -72 -47.5 -134.5t-88 -108t-120.5 -71.5t-146 -26zM414 162q42 0 77.5 14t63.5 39t46 58.5t25 72.5
q8 44 -1.5 84.5t-33.5 71t-60.5 49t-83.5 18.5q-42 0 -77.5 -14.5t-63 -39t-46 -58.5t-25.5 -73q-8 -44 1.5 -84t33.5 -70.5t60.5 -49t83.5 -18.5zM289 970h162l80 -177h-119z" />
    <glyph glyph-name="Oacute" unicode="&#xd3;" horiz-adv-x="829" 
d="M400 -10q-86 0 -155 33.5t-114.5 90t-65 130.5t-5.5 156q12 72 48.5 134.5t90 108t121.5 71.5t143 26q85 0 153.5 -33.5t114.5 -90t65.5 -130.5t5.5 -156q-12 -72 -47.5 -134.5t-88 -108t-120.5 -71.5t-146 -26zM414 162q42 0 77.5 14t63.5 39t46 58.5t25 72.5
q8 44 -1.5 84.5t-33.5 71t-60.5 49t-83.5 18.5q-42 0 -77.5 -14.5t-63 -39t-46 -58.5t-25.5 -73q-8 -44 1.5 -84t33.5 -70.5t60.5 -49t83.5 -18.5zM298 793q11 69 47 110t88 41q28 0 45 -7.5t31 -15.5q11 -8 20.5 -15t20.5 -7q21 0 25 42h95q-11 -69 -45.5 -110.5
t-88.5 -41.5q-29 0 -46.5 8.5t-31.5 17.5q-11 7 -20 12.5t-20 5.5q-22 0 -26 -40h-94z" />
    <glyph glyph-name="Ocircumflex" unicode="&#xd4;" horiz-adv-x="829" 
d="M400 -10q-86 0 -155 33.5t-114.5 90t-65 130.5t-5.5 156q12 72 48.5 134.5t90 108t121.5 71.5t143 26q85 0 153.5 -33.5t114.5 -90t65.5 -130.5t5.5 -156q-12 -72 -47.5 -134.5t-88 -108t-120.5 -71.5t-146 -26zM414 162q42 0 77.5 14t63.5 39t46 58.5t25 72.5
q8 44 -1.5 84.5t-33.5 71t-60.5 49t-83.5 18.5q-42 0 -77.5 -14.5t-63 -39t-46 -58.5t-25.5 -73q-8 -44 1.5 -84t33.5 -70.5t60.5 -49t83.5 -18.5zM455 971h103l87 -177h-120l-33 76l-61 -76h-126z" />
    <glyph glyph-name="Otilde" unicode="&#xd5;" horiz-adv-x="829" 
d="M400 -10q-86 0 -155 33.5t-114.5 90t-65 130.5t-5.5 156q12 72 48.5 134.5t90 108t121.5 71.5t143 26q85 0 153.5 -33.5t114.5 -90t65.5 -130.5t5.5 -156q-12 -72 -47.5 -134.5t-88 -108t-120.5 -71.5t-146 -26zM414 162q42 0 77.5 14t63.5 39t46 58.5t25 72.5
q8 44 -1.5 84.5t-33.5 71t-60.5 49t-83.5 18.5q-42 0 -77.5 -14.5t-63 -39t-46 -58.5t-25.5 -73q-8 -44 1.5 -84t33.5 -70.5t60.5 -49t83.5 -18.5zM298 793q11 69 47 110t88 41q28 0 45 -7.5t31 -15.5q11 -8 20.5 -15t20.5 -7q21 0 25 42h95q-11 -69 -45.5 -110.5
t-88.5 -41.5q-29 0 -46.5 8.5t-31.5 17.5q-11 7 -20 12.5t-20 5.5q-22 0 -26 -40h-94z" />
    <glyph glyph-name="Odieresis" unicode="&#xd6;" horiz-adv-x="829" 
d="M400 -10q-86 0 -155 33.5t-114.5 90t-65 130.5t-5.5 156q12 72 48.5 134.5t90 108t121.5 71.5t143 26q85 0 153.5 -33.5t114.5 -90t65.5 -130.5t5.5 -156q-12 -72 -47.5 -134.5t-88 -108t-120.5 -71.5t-146 -26zM414 162q42 0 77.5 14t63.5 39t46 58.5t25 72.5
q8 44 -1.5 84.5t-33.5 71t-60.5 49t-83.5 18.5q-42 0 -77.5 -14.5t-63 -39t-46 -58.5t-25.5 -73q-8 -44 1.5 -84t33.5 -70.5t60.5 -49t83.5 -18.5zM360 789q-22 0 -39 8t-28 22.5t-15 33t-1 39.5q7 38 36 60.5t66 22.5q45 0 67.5 -31t13.5 -73q-7 -36 -32.5 -59t-67.5 -23z
M581 789q-22 0 -39 8t-27.5 22.5t-15 33t-0.5 39.5q6 38 35 60.5t66 22.5q45 0 68 -31t14 -73q-8 -36 -33.5 -59t-67.5 -23z" />
    <glyph glyph-name="multiply" unicode="&#xd7;" horiz-adv-x="487" 
d="M52 269l112 96l-78 95l117 97l76 -94l112 96l84 -102l-112 -96l78 -94l-117 -97l-76 92l-112 -95z" />
    <glyph glyph-name="Oslash" unicode="&#xd8;" horiz-adv-x="829" 
d="M400 -10q-64 0 -118 18.5t-98 51.5l-81 -83l-64 57l85 87q-43 57 -60.5 128.5t-3.5 150.5q12 72 48.5 134.5t90 108t121.5 71.5t143 26q59 0 110 -16.5t93 -46.5l71 73l64 -57l-72 -74q47 -57 67 -131.5t6 -157.5q-12 -72 -47.5 -134.5t-88 -108t-120.5 -71.5t-146 -26z
M414 162q42 0 77.5 14t63.5 39t46 58.5t25 72.5t0 75.5t-25 65.5l-289 -296q43 -29 102 -29zM235 384q-12 -71 19 -130l284 292q-40 23 -91 23q-42 0 -77.5 -14.5t-63 -39t-46 -58.5t-25.5 -73z" />
    <glyph glyph-name="Ugrave" unicode="&#xd9;" horiz-adv-x="703" 
d="M317 -10q-62 0 -115 19t-90.5 56t-54 91t-4.5 123l80 451h177l-82 -443q-12 -63 16.5 -101.5t83.5 -38.5q62 0 99.5 36.5t47.5 89.5l81 457h177l-81 -453q-12 -66 -38.5 -119.5t-68 -90.5t-98.5 -57t-130 -20zM261 954h162l80 -177h-119z" />
    <glyph glyph-name="Uacute" unicode="&#xda;" horiz-adv-x="703" 
d="M317 -10q-62 0 -115 19t-90.5 56t-54 91t-4.5 123l80 451h177l-82 -443q-12 -63 16.5 -101.5t83.5 -38.5q62 0 99.5 36.5t47.5 89.5l81 457h177l-81 -453q-12 -66 -38.5 -119.5t-68 -90.5t-98.5 -57t-130 -20zM514 954h170l-187 -177h-126z" />
    <glyph glyph-name="Ucircumflex" unicode="&#xdb;" horiz-adv-x="703" 
d="M317 -10q-62 0 -115 19t-90.5 56t-54 91t-4.5 123l80 451h177l-82 -443q-12 -63 16.5 -101.5t83.5 -38.5q62 0 99.5 36.5t47.5 89.5l81 457h177l-81 -453q-12 -66 -38.5 -119.5t-68 -90.5t-98.5 -57t-130 -20zM427 955h103l87 -177h-120l-33 76l-61 -76h-126z" />
    <glyph glyph-name="Udieresis" unicode="&#xdc;" horiz-adv-x="703" 
d="M317 -10q-62 0 -115 19t-90.5 56t-54 91t-4.5 123l80 451h177l-82 -443q-12 -63 16.5 -101.5t83.5 -38.5q62 0 99.5 36.5t47.5 89.5l81 457h177l-81 -453q-12 -66 -38.5 -119.5t-68 -90.5t-98.5 -57t-130 -20zM332 773q-22 0 -39 8t-28 22.5t-15 33t-1 39.5q7 38 36 60.5
t66 22.5q45 0 67.5 -31t13.5 -73q-7 -36 -32.5 -59t-67.5 -23zM553 773q-22 0 -39 8t-27.5 22.5t-15 33t-0.5 39.5q6 38 35 60.5t66 22.5q45 0 68 -31t14 -73q-8 -36 -33.5 -59t-67.5 -23z" />
    <glyph glyph-name="Yacute" unicode="&#xdd;" horiz-adv-x="667" 
d="M247 327l-161 403h178l98 -255l187 255h198l-330 -429l-53 -301h-174zM480 955h170l-187 -177h-126z" />
    <glyph glyph-name="Thorn" unicode="&#xde;" horiz-adv-x="599" 
d="M138 730h175l-21 -116h68q45 0 87.5 -18.5t73 -52.5t46 -82t6.5 -107q-8 -51 -30 -93t-57 -72t-83 -46.5t-106 -16.5h-90l-22 -126h-175zM264 453l-29 -166h71q41 0 64 24t31 59q6 35 -14.5 59t-55.5 24h-67z" />
    <glyph glyph-name="germandbls" unicode="&#xdf;" horiz-adv-x="588" 
d="M-107 -70q32 0 51 2t30 11t16.5 26.5t11.5 49.5l96 539q9 53 27.5 95t48.5 71.5t73.5 45t103.5 15.5q58 0 102.5 -20.5t73 -54.5t39.5 -78t3 -92q-18 -94 -92 -146q23 -15 38 -36.5t23 -46.5t9.5 -52.5t-2.5 -53.5q-9 -48 -29 -88t-51.5 -68.5t-75 -44.5t-99.5 -16
q-23 0 -49 3.5t-39 9.5l27 152q22 -9 52 -9q36 0 59.5 22t30.5 58q8 45 -15 71.5t-74 26.5h-16l27 150h16q45 0 70 24.5t30 59.5q7 34 -11.5 57.5t-53.5 23.5q-64 0 -78 -80l-96 -539q-13 -73 -28 -120t-41 -74.5t-68 -38.5t-109 -11h-60z" />
    <glyph glyph-name="agrave" unicode="&#xe0;" horiz-adv-x="645" 
d="M251 -11q-58 0 -102.5 25t-73 67.5t-39 99t1.5 119.5q9 56 34 102.5t61.5 79.5t82.5 51t97 18q59 0 97 -23t58 -62l13 74h166l-95 -540h-163l12 66q-26 -35 -64 -56t-86 -21zM309 145q24 0 45.5 8.5t38.5 24t28.5 36.5t16.5 45q5 28 -0.5 53.5t-20 44t-37 29.5t-49.5 11
q-25 0 -47.5 -9t-39.5 -24t-28.5 -35.5t-14.5 -44.5q-5 -27 1 -52.5t20.5 -44.5t36.5 -30.5t50 -11.5zM197 781h162l80 -177h-119z" />
    <glyph glyph-name="aacute" unicode="&#xe1;" horiz-adv-x="645" 
d="M251 -11q-58 0 -102.5 25t-73 67.5t-39 99t1.5 119.5q9 56 34 102.5t61.5 79.5t82.5 51t97 18q59 0 97 -23t58 -62l13 74h166l-95 -540h-163l12 66q-26 -35 -64 -56t-86 -21zM309 145q24 0 45.5 8.5t38.5 24t28.5 36.5t16.5 45q5 28 -0.5 53.5t-20 44t-37 29.5t-49.5 11
q-25 0 -47.5 -9t-39.5 -24t-28.5 -35.5t-14.5 -44.5q-5 -27 1 -52.5t20.5 -44.5t36.5 -30.5t50 -11.5zM431 781h170l-187 -177h-126z" />
    <glyph glyph-name="acircumflex" unicode="&#xe2;" horiz-adv-x="645" 
d="M251 -11q-58 0 -102.5 25t-73 67.5t-39 99t1.5 119.5q9 56 34 102.5t61.5 79.5t82.5 51t97 18q59 0 97 -23t58 -62l13 74h166l-95 -540h-163l12 66q-26 -35 -64 -56t-86 -21zM309 145q24 0 45.5 8.5t38.5 24t28.5 36.5t16.5 45q5 28 -0.5 53.5t-20 44t-37 29.5t-49.5 11
q-25 0 -47.5 -9t-39.5 -24t-28.5 -35.5t-14.5 -44.5q-5 -27 1 -52.5t20.5 -44.5t36.5 -30.5t50 -11.5zM358 782h103l87 -177h-120l-33 76l-61 -76h-126z" />
    <glyph glyph-name="atilde" unicode="&#xe3;" horiz-adv-x="645" 
d="M251 -11q-58 0 -102.5 25t-73 67.5t-39 99t1.5 119.5q9 56 34 102.5t61.5 79.5t82.5 51t97 18q59 0 97 -23t58 -62l13 74h166l-95 -540h-163l12 66q-26 -35 -64 -56t-86 -21zM309 145q24 0 45.5 8.5t38.5 24t28.5 36.5t16.5 45q5 28 -0.5 53.5t-20 44t-37 29.5t-49.5 11
q-25 0 -47.5 -9t-39.5 -24t-28.5 -35.5t-14.5 -44.5q-5 -27 1 -52.5t20.5 -44.5t36.5 -30.5t50 -11.5zM198 604q11 69 47 110t88 41q28 0 45 -7.5t31 -15.5q11 -8 20.5 -15t20.5 -7q21 0 25 42h95q-11 -69 -45.5 -110.5t-88.5 -41.5q-29 0 -46.5 8.5t-31.5 17.5
q-11 7 -20 12.5t-20 5.5q-22 0 -26 -40h-94z" />
    <glyph glyph-name="adieresis" unicode="&#xe4;" horiz-adv-x="645" 
d="M251 -11q-58 0 -102.5 25t-73 67.5t-39 99t1.5 119.5q9 56 34 102.5t61.5 79.5t82.5 51t97 18q59 0 97 -23t58 -62l13 74h166l-95 -540h-163l12 66q-26 -35 -64 -56t-86 -21zM309 145q24 0 45.5 8.5t38.5 24t28.5 36.5t16.5 45q5 28 -0.5 53.5t-20 44t-37 29.5t-49.5 11
q-25 0 -47.5 -9t-39.5 -24t-28.5 -35.5t-14.5 -44.5q-5 -27 1 -52.5t20.5 -44.5t36.5 -30.5t50 -11.5zM261 600q-22 0 -39 8t-28 22.5t-15 33t-1 39.5q7 38 36 60.5t66 22.5q45 0 67.5 -31t13.5 -73q-7 -36 -32.5 -59t-67.5 -23zM482 600q-22 0 -39 8t-27.5 22.5t-15 33
t-0.5 39.5q6 38 35 60.5t66 22.5q45 0 68 -31t14 -73q-8 -36 -33.5 -59t-67.5 -23z" />
    <glyph glyph-name="aring" unicode="&#xe5;" horiz-adv-x="645" 
d="M251 -11q-58 0 -102.5 25t-73 67.5t-39 99t1.5 119.5q9 56 34 102.5t61.5 79.5t82.5 51t97 18q59 0 97 -23t58 -62l13 74h166l-95 -540h-163l12 66q-26 -35 -64 -56t-86 -21zM309 145q24 0 45.5 8.5t38.5 24t28.5 36.5t16.5 45q5 28 -0.5 53.5t-20 44t-37 29.5t-49.5 11
q-25 0 -47.5 -9t-39.5 -24t-28.5 -35.5t-14.5 -44.5q-5 -27 1 -52.5t20.5 -44.5t36.5 -30.5t50 -11.5zM357 599q-30 0 -53 11.5t-37 31t-19 44.5t1 52q9 43 45 72.5t85 29.5q30 0 53 -11.5t37.5 -31t19.5 -44t-1 -51.5q-10 -45 -44 -74t-87 -29zM363 672q18 0 32 10.5
t18 30.5q5 23 -6 39.5t-34 16.5q-17 0 -31 -11.5t-18 -30.5q-5 -23 5.5 -39t33.5 -16z" />
    <glyph glyph-name="ae" unicode="&#xe6;" horiz-adv-x="982" 
d="M204 -11q-53 0 -91 13.5t-62 37.5t-33 57t-2 73q7 43 29 74t55.5 51t77 29.5t94.5 9.5h134q3 16 0 30.5t-12.5 25.5t-26 18t-41.5 7q-36 0 -59.5 -16t-41.5 -45l-164 75q59 63 126.5 92.5t148.5 29.5q121 0 183 -57q40 28 88 42.5t101 14.5q63 0 113.5 -23.5t83.5 -64
t46.5 -94t2.5 -113.5l-7 -39h-403q9 -41 41 -64.5t82 -23.5q33 0 61.5 15.5t48.5 39.5l131 -85q-41 -49 -100.5 -79.5t-147.5 -30.5q-69 0 -122 24t-88 66q-51 -48 -108.5 -69t-137.5 -21zM246 121q42 0 82 18t68 58q-1 5 -1.5 10t-0.5 10h-120q-34 0 -56.5 -13t-26.5 -36
t11 -35t44 -12zM695 413q-45 0 -79 -21.5t-54 -57.5h238q-7 35 -33.5 57t-71.5 22z" />
    <glyph glyph-name="ccedilla" unicode="&#xe7;" horiz-adv-x="602" 
d="M251 -282q-61 0 -104 18t-70 47l105 62q13 -14 31.5 -23t39.5 -9q22 0 35.5 6t15.5 19q7 25 -43 25h-65l25 135q-53 13 -91.5 43.5t-62 72t-31 91t1.5 100.5q10 51 36 96t65.5 78.5t90.5 52.5t110 19q48 0 88.5 -13t72.5 -36.5t54.5 -55t34.5 -67.5l-158 -58
q-11 33 -36 54.5t-67 22.5q-21 0 -42 -8t-38.5 -23t-30.5 -36t-17 -46q-5 -27 1 -52.5t20 -45t36 -31.5t51 -12q36 0 65 20.5t46 52.5l147 -72q-34 -63 -94 -104.5t-141 -49.5l-9 -48q52 -6 77.5 -37.5t17.5 -82.5q-10 -51 -55.5 -78t-111.5 -27z" />
    <glyph glyph-name="egrave" unicode="&#xe8;" horiz-adv-x="622" 
d="M300 -11q-70 0 -124 25.5t-88.5 68.5t-48 99.5t-2.5 118.5q10 57 38 103t69 78.5t92.5 50.5t107.5 18q64 0 115 -24t84.5 -65t47 -94.5t3.5 -111.5l-7 -42h-402q10 -39 41.5 -62t80.5 -23q33 0 61.5 15.5t48.5 39.5l131 -85q-41 -49 -100.5 -79.5t-147.5 -30.5zM334 412
q-45 0 -78 -20t-52 -54h236q-7 34 -33 54t-73 20zM169 781h162l80 -177h-119z" />
    <glyph glyph-name="eacute" unicode="&#xe9;" horiz-adv-x="622" 
d="M300 -11q-70 0 -124 25.5t-88.5 68.5t-48 99.5t-2.5 118.5q10 57 38 103t69 78.5t92.5 50.5t107.5 18q64 0 115 -24t84.5 -65t47 -94.5t3.5 -111.5l-7 -42h-402q10 -39 41.5 -62t80.5 -23q33 0 61.5 15.5t48.5 39.5l131 -85q-41 -49 -100.5 -79.5t-147.5 -30.5zM334 412
q-45 0 -78 -20t-52 -54h236q-7 34 -33 54t-73 20zM422 781h170l-187 -177h-126z" />
    <glyph glyph-name="ecircumflex" unicode="&#xea;" horiz-adv-x="622" 
d="M300 -11q-70 0 -124 25.5t-88.5 68.5t-48 99.5t-2.5 118.5q10 57 38 103t69 78.5t92.5 50.5t107.5 18q64 0 115 -24t84.5 -65t47 -94.5t3.5 -111.5l-7 -42h-402q10 -39 41.5 -62t80.5 -23q33 0 61.5 15.5t48.5 39.5l131 -85q-41 -49 -100.5 -79.5t-147.5 -30.5zM334 412
q-45 0 -78 -20t-52 -54h236q-7 34 -33 54t-73 20zM345 782h103l87 -177h-120l-33 76l-61 -76h-126z" />
    <glyph glyph-name="edieresis" unicode="&#xeb;" horiz-adv-x="622" 
d="M300 -11q-70 0 -124 25.5t-88.5 68.5t-48 99.5t-2.5 118.5q10 57 38 103t69 78.5t92.5 50.5t107.5 18q64 0 115 -24t84.5 -65t47 -94.5t3.5 -111.5l-7 -42h-402q10 -39 41.5 -62t80.5 -23q33 0 61.5 15.5t48.5 39.5l131 -85q-41 -49 -100.5 -79.5t-147.5 -30.5zM334 412
q-45 0 -78 -20t-52 -54h236q-7 34 -33 54t-73 20zM249 600q-22 0 -39 8t-28 22.5t-15 33t-1 39.5q7 38 36 60.5t66 22.5q45 0 67.5 -31t13.5 -73q-7 -36 -32.5 -59t-67.5 -23zM470 600q-22 0 -39 8t-27.5 22.5t-15 33t-0.5 39.5q6 38 35 60.5t66 22.5q45 0 68 -31t14 -73
q-8 -36 -33.5 -59t-67.5 -23z" />
    <glyph glyph-name="igrave" unicode="&#xec;" horiz-adv-x="263" 
d="M-1 0l96 540h169l-95 -540h-170zM4 775h162l80 -177h-119z" />
    <glyph glyph-name="iacute" unicode="&#xed;" horiz-adv-x="263" 
d="M-1 0l96 540h169l-95 -540h-170zM266 775h170l-187 -177h-126z" />
    <glyph glyph-name="icircumflex" unicode="&#xee;" horiz-adv-x="263" 
d="M-1 0l96 540h169l-95 -540h-170zM170 776h103l87 -177h-120l-33 76l-61 -76h-126z" />
    <glyph glyph-name="idieresis" unicode="&#xef;" horiz-adv-x="263" 
d="M-1 0l96 540h169l-95 -540h-170zM75 594q-22 0 -39 8t-28 22.5t-15 33t-1 39.5q7 38 36 60.5t66 22.5q45 0 67.5 -31t13.5 -73q-7 -36 -32.5 -59t-67.5 -23zM296 594q-22 0 -39 8t-27.5 22.5t-15 33t-0.5 39.5q6 38 35 60.5t66 22.5q45 0 68 -31t14 -73q-8 -36 -33.5 -59
t-67.5 -23z" />
    <glyph glyph-name="eth" unicode="&#xf0;" horiz-adv-x="648" 
d="M184 625l106 50q-25 27 -52.5 55t-59.5 59h212q11 -12 21 -24l20 -24l117 55l38 -71l-106 -50q78 -110 113 -221t15 -217q-10 -51 -34.5 -96.5t-63 -79t-89.5 -53t-114 -19.5q-68 0 -121 25.5t-87.5 68.5t-48.5 100t-3 120q9 52 33 95.5t59 75t80 49.5t96 18q27 0 50 -5
t42 -13q-26 44 -62 88l-122 -57zM317 144q47 0 83 30t45 81q5 27 0 52.5t-19 45t-36 32t-51 12.5q-45 0 -82 -30.5t-46 -82.5q-5 -27 0.5 -52.5t20 -45t36 -31t49.5 -11.5z" />
    <glyph glyph-name="ntilde" unicode="&#xf1;" horiz-adv-x="597" 
d="M94 540h166l-12 -66q29 38 66 57.5t88 19.5q44 0 78 -17t55 -48.5t28 -76t-3 -99.5l-55 -310h-171l55 299q9 51 -7.5 77.5t-59.5 26.5q-85 0 -103 -109l-54 -294h-167zM203 605q11 69 47 110t88 41q28 0 45 -7.5t31 -15.5q11 -8 20.5 -15t20.5 -7q21 0 25 42h95
q-11 -69 -45.5 -110.5t-88.5 -41.5q-29 0 -46.5 8.5t-31.5 17.5q-11 7 -20 12.5t-20 5.5q-22 0 -26 -40h-94z" />
    <glyph glyph-name="ograve" unicode="&#xf2;" horiz-adv-x="637" 
d="M297 -11q-72 0 -125.5 27t-86.5 71t-45.5 101t-1.5 117q10 51 36 96t65.5 78.5t90.5 52.5t110 19q71 0 124.5 -26.5t87 -70.5t46 -100.5t1.5 -116.5q-10 -52 -35 -97.5t-64 -79t-90.5 -52.5t-112.5 -19zM308 144q46 0 82.5 30.5t45.5 81.5q5 27 -0.5 52.5t-19.5 45
t-36 31.5t-50 13q-23 0 -44 -8t-38.5 -23t-30 -36t-16.5 -46q-5 -27 1 -52.5t20 -45t36 -31.5t50 -12zM164 781h162l80 -177h-119z" />
    <glyph glyph-name="oacute" unicode="&#xf3;" horiz-adv-x="637" 
d="M297 -11q-72 0 -125.5 27t-86.5 71t-45.5 101t-1.5 117q10 51 36 96t65.5 78.5t90.5 52.5t110 19q71 0 124.5 -26.5t87 -70.5t46 -100.5t1.5 -116.5q-10 -52 -35 -97.5t-64 -79t-90.5 -52.5t-112.5 -19zM308 144q46 0 82.5 30.5t45.5 81.5q5 27 -0.5 52.5t-19.5 45
t-36 31.5t-50 13q-23 0 -44 -8t-38.5 -23t-30 -36t-16.5 -46q-5 -27 1 -52.5t20 -45t36 -31.5t50 -12zM417 781h170l-187 -177h-126z" />
    <glyph glyph-name="ocircumflex" unicode="&#xf4;" horiz-adv-x="637" 
d="M297 -11q-72 0 -125.5 27t-86.5 71t-45.5 101t-1.5 117q10 51 36 96t65.5 78.5t90.5 52.5t110 19q71 0 124.5 -26.5t87 -70.5t46 -100.5t1.5 -116.5q-10 -52 -35 -97.5t-64 -79t-90.5 -52.5t-112.5 -19zM308 144q46 0 82.5 30.5t45.5 81.5q5 27 -0.5 52.5t-19.5 45
t-36 31.5t-50 13q-23 0 -44 -8t-38.5 -23t-30 -36t-16.5 -46q-5 -27 1 -52.5t20 -45t36 -31.5t50 -12zM330 782h103l87 -177h-120l-33 76l-61 -76h-126z" />
    <glyph glyph-name="otilde" unicode="&#xf5;" horiz-adv-x="637" 
d="M297 -11q-72 0 -125.5 27t-86.5 71t-45.5 101t-1.5 117q10 51 36 96t65.5 78.5t90.5 52.5t110 19q71 0 124.5 -26.5t87 -70.5t46 -100.5t1.5 -116.5q-10 -52 -35 -97.5t-64 -79t-90.5 -52.5t-112.5 -19zM308 144q46 0 82.5 30.5t45.5 81.5q5 27 -0.5 52.5t-19.5 45
t-36 31.5t-50 13q-23 0 -44 -8t-38.5 -23t-30 -36t-16.5 -46q-5 -27 1 -52.5t20 -45t36 -31.5t50 -12zM173 604q11 69 47 110t88 41q28 0 45 -7.5t31 -15.5q11 -8 20.5 -15t20.5 -7q21 0 25 42h95q-11 -69 -45.5 -110.5t-88.5 -41.5q-29 0 -46.5 8.5t-31.5 17.5
q-11 7 -20 12.5t-20 5.5q-22 0 -26 -40h-94z" />
    <glyph glyph-name="odieresis" unicode="&#xf6;" horiz-adv-x="637" 
d="M297 -11q-72 0 -125.5 27t-86.5 71t-45.5 101t-1.5 117q10 51 36 96t65.5 78.5t90.5 52.5t110 19q71 0 124.5 -26.5t87 -70.5t46 -100.5t1.5 -116.5q-10 -52 -35 -97.5t-64 -79t-90.5 -52.5t-112.5 -19zM308 144q46 0 82.5 30.5t45.5 81.5q5 27 -0.5 52.5t-19.5 45
t-36 31.5t-50 13q-23 0 -44 -8t-38.5 -23t-30 -36t-16.5 -46q-5 -27 1 -52.5t20 -45t36 -31.5t50 -12zM253 600q-22 0 -39 8t-28 22.5t-15 33t-1 39.5q7 38 36 60.5t66 22.5q45 0 67.5 -31t13.5 -73q-7 -36 -32.5 -59t-67.5 -23zM474 600q-22 0 -39 8t-27.5 22.5t-15 33
t-0.5 39.5q6 38 35 60.5t66 22.5q45 0 68 -31t14 -73q-8 -36 -33.5 -59t-67.5 -23z" />
    <glyph glyph-name="divide" unicode="&#xf7;" horiz-adv-x="474" 
d="M85 436h370l-25 -143h-371zM220 121q-35 0 -54 24.5t-13 59.5q5 29 28.5 48t53.5 19q37 0 56 -25t11 -60q-5 -29 -26.5 -47.5t-55.5 -18.5zM280 458q-36 0 -54.5 24t-12.5 59q5 30 28.5 48.5t53.5 18.5q36 0 55 -25t11 -59q-5 -29 -26.5 -47.5t-54.5 -18.5z" />
    <glyph glyph-name="oslash" unicode="&#xf8;" horiz-adv-x="637" 
d="M297 -11q-91 0 -153 42l-62 -61l-58 53l62 62q-34 45 -46.5 102t-1.5 118q10 51 36 96t65.5 78.5t90.5 52.5t110 19q49 0 89.5 -13t72.5 -36l64 64l59 -54l-67 -67q30 -44 41 -97.5t0 -110.5q-10 -52 -35 -97.5t-64 -79t-90.5 -52.5t-112.5 -19zM201 285
q-4 -20 -1.5 -39.5t10.5 -36.5l174 174q-24 13 -54 15q-23 0 -44 -8t-38.5 -23t-30 -36t-16.5 -46zM308 144q46 0 82.5 30.5t45.5 81.5q6 32 -4 64l-167 -168q21 -8 43 -8z" />
    <glyph glyph-name="ugrave" unicode="&#xf9;" horiz-adv-x="590" 
d="M195 -11q-94 0 -136 61t-22 168l56 322h172l-54 -304q-9 -50 7.5 -75t55.5 -25q37 0 62.5 25.5t34.5 78.5l54 300h167l-95 -540h-166l11 62q-28 -35 -64 -54t-83 -19zM169 770h162l80 -177h-119z" />
    <glyph glyph-name="uacute" unicode="&#xfa;" horiz-adv-x="590" 
d="M195 -11q-94 0 -136 61t-22 168l56 322h172l-54 -304q-9 -50 7.5 -75t55.5 -25q37 0 62.5 25.5t34.5 78.5l54 300h167l-95 -540h-166l11 62q-28 -35 -64 -54t-83 -19zM422 762h170l-187 -177h-126z" />
    <glyph glyph-name="ucircumflex" unicode="&#xfb;" horiz-adv-x="590" 
d="M195 -11q-94 0 -136 61t-22 168l56 322h172l-54 -304q-9 -50 7.5 -75t55.5 -25q37 0 62.5 25.5t34.5 78.5l54 300h167l-95 -540h-166l11 62q-28 -35 -64 -54t-83 -19zM323 764h103l87 -177h-120l-33 76l-61 -76h-126z" />
    <glyph glyph-name="udieresis" unicode="&#xfc;" horiz-adv-x="590" 
d="M195 -11q-94 0 -136 61t-22 168l56 322h172l-54 -304q-9 -50 7.5 -75t55.5 -25q37 0 62.5 25.5t34.5 78.5l54 300h167l-95 -540h-166l11 62q-28 -35 -64 -54t-83 -19zM242 590q-22 0 -39 8t-28 22.5t-15 33t-1 39.5q7 38 36 60.5t66 22.5q45 0 67.5 -31t13.5 -73
q-7 -36 -32.5 -59t-67.5 -23zM463 590q-22 0 -39 8t-27.5 22.5t-15 33t-0.5 39.5q6 38 35 60.5t66 22.5q45 0 68 -31t14 -73q-8 -36 -33.5 -59t-67.5 -23z" />
    <glyph glyph-name="yacute" unicode="&#xfd;" horiz-adv-x="594" 
d="M62 -224q-60 0 -105.5 18t-74.5 45l118 131q11 -17 29 -27.5t44 -10.5q29 0 51.5 12.5t42.5 50.5l17 31l-128 514h174l69 -309l160 309h177l-302 -553q-32 -60 -62.5 -100t-63 -65t-68.5 -35.5t-78 -10.5zM414 767h170l-187 -177h-126z" />
    <glyph glyph-name="thorn" unicode="&#xfe;" horiz-adv-x="655" 
d="M343 -11q-60 0 -99 21.5t-62 57.5q-8 -45 -16 -94.5t-16 -91.5q-9 -49 -17 -98h-167l177 1004h166q-8 -46 -16 -94q-8 -42 -16.5 -91t-16.5 -97q26 20 57.5 32t70.5 13q58 0 104.5 -24t77 -66t42.5 -98t1 -119q-10 -59 -35 -106t-61 -80t-80.5 -51t-93.5 -18zM319 144
q25 0 47 9t39 24.5t28.5 36.5t15.5 45q5 27 -1 52t-20.5 44t-37 30.5t-50.5 11.5q-24 0 -45.5 -8.5t-39 -24t-29 -36.5t-15.5 -45q-5 -29 0.5 -54.5t20 -44t36.5 -29.5t51 -11z" />
    <glyph glyph-name="ydieresis" unicode="&#xff;" horiz-adv-x="594" 
d="M62 -224q-60 0 -105.5 18t-74.5 45l118 131q11 -17 29 -27.5t44 -10.5q29 0 51.5 12.5t42.5 50.5l17 31l-128 514h174l69 -309l160 309h177l-302 -553q-32 -60 -62.5 -100t-63 -65t-68.5 -35.5t-78 -10.5zM232 586q-22 0 -39 8t-28 22.5t-15 33t-1 39.5q7 38 36 60.5
t66 22.5q45 0 67.5 -31t13.5 -73q-7 -36 -32.5 -59t-67.5 -23zM453 586q-22 0 -39 8t-27.5 22.5t-15 33t-0.5 39.5q6 38 35 60.5t66 22.5q45 0 68 -31t14 -73q-8 -36 -33.5 -59t-67.5 -23z" />
    <glyph glyph-name="Amacron" unicode="&#x100;" horiz-adv-x="723" 
d="M363 730h168l139 -730h-168l-20 114h-277l-60 -114h-183zM286 266h170l-41 244zM334 901h264l-21 -113h-264z" />
    <glyph glyph-name="amacron" unicode="&#x101;" horiz-adv-x="645" 
d="M251 -11q-58 0 -102.5 25t-73 67.5t-39 99t1.5 119.5q9 56 34 102.5t61.5 79.5t82.5 51t97 18q59 0 97 -23t58 -62l13 74h166l-95 -540h-163l12 66q-26 -35 -64 -56t-86 -21zM309 145q24 0 45.5 8.5t38.5 24t28.5 36.5t16.5 45q5 28 -0.5 53.5t-20 44t-37 29.5t-49.5 11
q-25 0 -47.5 -9t-39.5 -24t-28.5 -35.5t-14.5 -44.5q-5 -27 1 -52.5t20.5 -44.5t36.5 -30.5t50 -11.5zM234 727h264l-21 -113h-264z" />
    <glyph glyph-name="Abreve" unicode="&#x102;" horiz-adv-x="723" 
d="M363 730h168l139 -730h-168l-20 114h-277l-60 -114h-183zM286 266h170l-41 244zM451 783q-84 0 -118.5 50t-20.5 128h107q-8 -39 4.5 -57t39.5 -19q26 1 44 19t26 57h107q-14 -78 -61 -128t-128 -50z" />
    <glyph glyph-name="abreve" unicode="&#x103;" horiz-adv-x="645" 
d="M251 -11q-58 0 -102.5 25t-73 67.5t-39 99t1.5 119.5q9 56 34 102.5t61.5 79.5t82.5 51t97 18q59 0 97 -23t58 -62l13 74h166l-95 -540h-163l12 66q-26 -35 -64 -56t-86 -21zM309 145q24 0 45.5 8.5t38.5 24t28.5 36.5t16.5 45q5 28 -0.5 53.5t-20 44t-37 29.5t-49.5 11
q-25 0 -47.5 -9t-39.5 -24t-28.5 -35.5t-14.5 -44.5q-5 -27 1 -52.5t20.5 -44.5t36.5 -30.5t50 -11.5zM375 599q-84 0 -118.5 50t-20.5 128h107q-8 -39 4.5 -57t39.5 -19q26 1 44 19t26 57h107q-14 -78 -61 -128t-128 -50z" />
    <glyph glyph-name="Aogonek" unicode="&#x104;" horiz-adv-x="723" 
d="M522 -238q-39 0 -68.5 10t-47.5 27.5t-25 40t-2 48.5q3 17 10 32.5t21 31.5t35.5 32t53.5 33l-17 97h-277l-60 -114h-183l401 730h168l139 -730q-48 -27 -79 -45t-50 -30.5t-27 -21t-9 -17.5q-2 -12 6 -17.5t21 -5.5q16 0 28.5 9t23.5 20l95 -63q-30 -28 -70.5 -47.5
t-86.5 -19.5zM286 266h170l-41 244z" />
    <glyph glyph-name="aogonek" unicode="&#x105;" horiz-adv-x="645" 
d="M454 -238q-39 0 -68.5 10t-47.5 27.5t-25 40t-2 48.5q5 31 24 58.5t55 57.5l11 62q-26 -35 -64 -56t-86 -21q-58 0 -102.5 25t-73 67.5t-39 99t1.5 119.5q9 56 34 102.5t61.5 79.5t82.5 51t97 18q59 0 97 -23t58 -62l13 74h166l-95 -540q-37 -26 -59 -44t-34 -30.5
t-16.5 -21.5t-5.5 -18q-2 -12 6 -17.5t21 -5.5q16 0 28.5 9t23.5 20l95 -63q-30 -28 -70.5 -47.5t-86.5 -19.5zM309 145q24 0 45.5 8.5t38.5 24t28.5 36.5t16.5 45q5 28 -0.5 53.5t-20 44t-37 29.5t-49.5 11q-25 0 -47.5 -9t-39.5 -24t-28.5 -35.5t-14.5 -44.5
q-5 -27 1 -52.5t20.5 -44.5t36.5 -30.5t50 -11.5z" />
    <glyph glyph-name="Cacute" unicode="&#x106;" horiz-adv-x="770" 
d="M405 -10q-93 -1 -163.5 33t-115.5 91.5t-62 132.5t-3 158q12 72 47.5 133t89 106t121.5 70.5t145 25.5q58 0 109 -15.5t92 -43t72 -65t50 -82.5l-170 -82q-18 51 -59.5 84t-107.5 33q-41 0 -76.5 -13.5t-63.5 -38t-47 -58.5t-26 -74q-8 -44 1 -84.5t33 -71t60.5 -49
t84.5 -18.5q52 0 94.5 27.5t73.5 77.5l155 -97q-27 -40 -60 -73t-74 -56.5t-90.5 -37t-109.5 -13.5zM546 970h170l-187 -177h-126z" />
    <glyph glyph-name="cacute" unicode="&#x107;" horiz-adv-x="602" 
d="M297 -11q-72 0 -125.5 27t-86.5 71t-45.5 101t-1.5 117q10 51 36 96t65.5 78.5t90.5 52.5t110 19q48 0 88.5 -13t72.5 -36.5t54.5 -55t34.5 -67.5l-158 -58q-11 33 -36 54.5t-67 22.5q-21 0 -42 -8t-38.5 -23t-30.5 -36t-17 -46q-5 -27 1 -52.5t20 -45t36 -31.5t51 -12
q36 0 65 20.5t46 52.5l147 -72q-38 -70 -107 -113t-163 -43zM418 781h170l-187 -177h-126z" />
    <glyph glyph-name="Ccircumflex" unicode="&#x108;" horiz-adv-x="770" 
d="M405 -10q-93 -1 -163.5 33t-115.5 91.5t-62 132.5t-3 158q12 72 47.5 133t89 106t121.5 70.5t145 25.5q58 0 109 -15.5t92 -43t72 -65t50 -82.5l-170 -82q-18 51 -59.5 84t-107.5 33q-41 0 -76.5 -13.5t-63.5 -38t-47 -58.5t-26 -74q-8 -44 1 -84.5t33 -71t60.5 -49
t84.5 -18.5q52 0 94.5 27.5t73.5 77.5l155 -97q-27 -40 -60 -73t-74 -56.5t-90.5 -37t-109.5 -13.5zM459 971h103l87 -177h-120l-33 76l-61 -76h-126z" />
    <glyph glyph-name="ccircumflex" unicode="&#x109;" horiz-adv-x="602" 
d="M297 -11q-72 0 -125.5 27t-86.5 71t-45.5 101t-1.5 117q10 51 36 96t65.5 78.5t90.5 52.5t110 19q48 0 88.5 -13t72.5 -36.5t54.5 -55t34.5 -67.5l-158 -58q-11 33 -36 54.5t-67 22.5q-21 0 -42 -8t-38.5 -23t-30.5 -36t-17 -46q-5 -27 1 -52.5t20 -45t36 -31.5t51 -12
q36 0 65 20.5t46 52.5l147 -72q-38 -70 -107 -113t-163 -43zM331 782h103l87 -177h-120l-33 76l-61 -76h-126z" />
    <glyph glyph-name="Cdotaccent" unicode="&#x10a;" horiz-adv-x="770" 
d="M405 -10q-93 -1 -163.5 33t-115.5 91.5t-62 132.5t-3 158q12 72 47.5 133t89 106t121.5 70.5t145 25.5q58 0 109 -15.5t92 -43t72 -65t50 -82.5l-170 -82q-18 51 -59.5 84t-107.5 33q-41 0 -76.5 -13.5t-63.5 -38t-47 -58.5t-26 -74q-8 -44 1 -84.5t33 -71t60.5 -49
t84.5 -18.5q52 0 94.5 27.5t73.5 77.5l155 -97q-27 -40 -60 -73t-74 -56.5t-90.5 -37t-109.5 -13.5zM479 788q-24 0 -42 8.5t-30 23.5t-16.5 35t-0.5 43q7 41 38 65.5t72 24.5q24 0 42.5 -9t29.5 -24.5t15 -36t0 -42.5q-7 -38 -35 -63t-73 -25z" />
    <glyph glyph-name="cdotaccent" unicode="&#x10b;" horiz-adv-x="602" 
d="M297 -11q-72 0 -125.5 27t-86.5 71t-45.5 101t-1.5 117q10 51 36 96t65.5 78.5t90.5 52.5t110 19q48 0 88.5 -13t72.5 -36.5t54.5 -55t34.5 -67.5l-158 -58q-11 33 -36 54.5t-67 22.5q-21 0 -42 -8t-38.5 -23t-30.5 -36t-17 -46q-5 -27 1 -52.5t20 -45t36 -31.5t51 -12
q36 0 65 20.5t46 52.5l147 -72q-38 -70 -107 -113t-163 -43zM351 599q-24 0 -42 8.5t-30 23.5t-16.5 35t-0.5 43q7 41 38 65.5t72 24.5q24 0 42.5 -9t29.5 -24.5t15 -36t0 -42.5q-7 -38 -35 -63t-73 -25z" />
    <glyph glyph-name="Ccaron" unicode="&#x10c;" horiz-adv-x="770" 
d="M405 -10q-93 -1 -163.5 33t-115.5 91.5t-62 132.5t-3 158q12 72 47.5 133t89 106t121.5 70.5t145 25.5q58 0 109 -15.5t92 -43t72 -65t50 -82.5l-170 -82q-18 51 -59.5 84t-107.5 33q-41 0 -76.5 -13.5t-63.5 -38t-47 -58.5t-26 -74q-8 -44 1 -84.5t33 -71t60.5 -49
t84.5 -18.5q52 0 94.5 27.5t73.5 77.5l155 -97q-27 -40 -60 -73t-74 -56.5t-90.5 -37t-109.5 -13.5zM339 970h121l34 -76l60 76h125l-150 -177h-103z" />
    <glyph glyph-name="ccaron" unicode="&#x10d;" horiz-adv-x="602" 
d="M297 -11q-72 0 -125.5 27t-86.5 71t-45.5 101t-1.5 117q10 51 36 96t65.5 78.5t90.5 52.5t110 19q48 0 88.5 -13t72.5 -36.5t54.5 -55t34.5 -67.5l-158 -58q-11 33 -36 54.5t-67 22.5q-21 0 -42 -8t-38.5 -23t-30.5 -36t-17 -46q-5 -27 1 -52.5t20 -45t36 -31.5t51 -12
q36 0 65 20.5t46 52.5l147 -72q-38 -70 -107 -113t-163 -43zM211 781h121l34 -76l60 76h125l-150 -177h-103z" />
    <glyph glyph-name="Dcaron" unicode="&#x10e;" horiz-adv-x="735" 
d="M135 730h254q81 0 146.5 -30.5t109 -83t61.5 -121.5t5 -146q-12 -69 -45 -132.5t-84 -111.5t-119 -76.5t-151 -28.5h-305zM280 571l-71 -410h110q40 0 76 17t64.5 44.5t47.5 63t25 73.5q7 44 -0.5 82.5t-29 67.5t-56 45.5t-81.5 16.5h-85zM272 963h121l34 -76l60 76h125
l-150 -177h-103z" />
    <glyph glyph-name="dcaron" unicode="&#x10f;" horiz-adv-x="645" 
d="M252 -11q-58 0 -102.5 25t-73 67.5t-39 99t1.5 119.5q9 56 34 102.5t61.5 79.5t82.5 51t97 18q59 0 97 -23t58 -63l57 323h163l-138 -788h-161l12 66q-26 -35 -64 -56t-86 -21zM310 145q24 0 45.5 8.5t38.5 24t28.5 36.5t16.5 45q5 28 -0.5 53.5t-20 44t-37 29.5
t-49.5 11q-25 0 -47.5 -9t-39.5 -24t-28.5 -35.5t-14.5 -44.5q-5 -27 1 -52.5t20.5 -44.5t36.5 -30.5t50 -11.5zM746 617q51 24 76.5 49.5t30.5 56.5v6q-8 -26 -23 -35t-37 -9q-13 0 -24.5 5.5t-20 15t-12 24t-0.5 32.5q7 37 34.5 58t65.5 21q23 0 41.5 -9t30 -25
t15.5 -36.5t0 -42.5q-11 -52 -47 -90.5t-98 -67.5z" />
    <glyph glyph-name="Dcroat" unicode="&#x110;" horiz-adv-x="742" 
d="M43 434h66l52 296h234q81 0 146 -30.5t108.5 -83t61.5 -121.5t5 -146q-12 -68 -44.5 -131t-83.5 -111.5t-119.5 -77.5t-152.5 -29h-283l54 311h-68zM262 311l-26 -151h90q40 0 76 17t64 45t47 63.5t25 73.5q7 44 -0.5 82.5t-29 67.5t-56 45.5t-81.5 16.5h-64l-23 -137
h129l-24 -123h-127z" />
    <glyph glyph-name="dcroat" unicode="&#x111;" horiz-adv-x="647" 
d="M426 694h83l17 94h163l-17 -94h59l-19 -104h-58l-103 -590h-161l12 66q-26 -35 -64 -56t-86 -21q-58 0 -102.5 25t-73 67.5t-39 99t1.5 119.5q9 56 34 102.5t61.5 79.5t82.5 51t97 18q59 0 97 -23t58 -63l22 125h-85zM310 145q24 0 45.5 8.5t38.5 24t28.5 36.5t16.5 45
q5 28 -0.5 53.5t-20 44t-37 29.5t-49.5 11q-25 0 -47.5 -9t-39.5 -24t-28.5 -35.5t-14.5 -44.5q-5 -27 1 -52.5t20.5 -44.5t36.5 -30.5t50 -11.5z" />
    <glyph glyph-name="Emacron" unicode="&#x112;" horiz-adv-x="616" 
d="M135 730h514l-29 -161h-339l-21 -123h339l-29 -162h-339l-21 -123h339l-28 -161h-514zM285 901h264l-21 -113h-264z" />
    <glyph glyph-name="emacron" unicode="&#x113;" horiz-adv-x="622" 
d="M300 -11q-70 0 -124 25.5t-88.5 68.5t-48 99.5t-2.5 118.5q10 57 38 103t69 78.5t92.5 50.5t107.5 18q64 0 115 -24t84.5 -65t47 -94.5t3.5 -111.5l-7 -42h-402q10 -39 41.5 -62t80.5 -23q33 0 61.5 15.5t48.5 39.5l131 -85q-41 -49 -100.5 -79.5t-147.5 -30.5zM334 412
q-45 0 -78 -20t-52 -54h236q-7 34 -33 54t-73 20zM233 717h264l-21 -113h-264z" />
    <glyph glyph-name="Ebreve" unicode="&#x114;" horiz-adv-x="616" 
d="M135 730h514l-29 -161h-339l-21 -123h339l-29 -162h-339l-21 -123h339l-28 -161h-514zM402 783q-84 0 -118.5 50t-20.5 128h107q-8 -39 4.5 -57t39.5 -19q26 1 44 19t26 57h107q-14 -78 -61 -128t-128 -50z" />
    <glyph glyph-name="ebreve" unicode="&#x115;" horiz-adv-x="622" 
d="M300 -11q-70 0 -124 25.5t-88.5 68.5t-48 99.5t-2.5 118.5q10 57 38 103t69 78.5t92.5 50.5t107.5 18q64 0 115 -24t84.5 -65t47 -94.5t3.5 -111.5l-7 -42h-402q10 -39 41.5 -62t80.5 -23q33 0 61.5 15.5t48.5 39.5l131 -85q-41 -49 -100.5 -79.5t-147.5 -30.5zM334 412
q-45 0 -78 -20t-52 -54h236q-7 34 -33 54t-73 20zM360 599q-84 0 -118.5 50t-20.5 128h107q-8 -39 4.5 -57t39.5 -19q26 1 44 19t26 57h107q-14 -78 -61 -128t-128 -50z" />
    <glyph glyph-name="Edotaccent" unicode="&#x116;" horiz-adv-x="616" 
d="M135 730h514l-29 -161h-339l-21 -123h339l-29 -162h-339l-21 -123h339l-28 -161h-514zM407 783q-24 0 -42 8.5t-30 23.5t-16.5 35t-0.5 43q7 41 38 65.5t72 24.5q24 0 42.5 -9t29.5 -24.5t15 -36t0 -42.5q-7 -38 -35 -63t-73 -25z" />
    <glyph glyph-name="edotaccent" unicode="&#x117;" horiz-adv-x="622" 
d="M300 -11q-70 0 -124 25.5t-88.5 68.5t-48 99.5t-2.5 118.5q10 57 38 103t69 78.5t92.5 50.5t107.5 18q64 0 115 -24t84.5 -65t47 -94.5t3.5 -111.5l-7 -42h-402q10 -39 41.5 -62t80.5 -23q33 0 61.5 15.5t48.5 39.5l131 -85q-41 -49 -100.5 -79.5t-147.5 -30.5zM334 412
q-45 0 -78 -20t-52 -54h236q-7 34 -33 54t-73 20zM355 599q-24 0 -42 8.5t-30 23.5t-16.5 35t-0.5 43q7 41 38 65.5t72 24.5q24 0 42.5 -9t29.5 -24.5t15 -36t0 -42.5q-7 -38 -35 -63t-73 -25z" />
    <glyph glyph-name="Eogonek" unicode="&#x118;" horiz-adv-x="616" 
d="M135 730h514l-29 -161h-339l-21 -123h339l-29 -162h-339l-21 -123h339l-28 -161q-48 -27 -79 -45t-50 -30.5t-27 -21t-9 -17.5q-2 -12 6 -17.5t21 -5.5q16 0 28.5 9t23.5 20l95 -63q-30 -28 -70.5 -47.5t-86.5 -19.5q-39 0 -68.5 10t-47.5 27.5t-25 40t-2 48.5
q5 30 24 56.5t66 55.5h-313z" />
    <glyph glyph-name="eogonek" unicode="&#x119;" horiz-adv-x="622" 
d="M309 -212q-39 0 -68.5 10t-47.5 27.5t-25 40t-2 48.5q4 23 15.5 43.5t37.5 41.5q-51 13 -89.5 42t-62 69.5t-31.5 89t1 101.5q10 57 38 103t69 78.5t92.5 50.5t107.5 18q64 0 115 -24t84.5 -65t47 -94.5t3.5 -111.5l-7 -42h-402q10 -39 41.5 -62t80.5 -23q33 0 61.5 15.5
t48.5 39.5l131 -85q-41 -49 -100.5 -79.5t-147.5 -30.5q-22 0 -42 2.5t-39 7.5q21 17 53 36t79 41l106 -50q-48 -27 -79 -45t-50 -30.5t-27 -21t-9 -17.5q-2 -12 6 -17.5t21 -5.5q16 0 28.5 9t23.5 20l95 -63q-30 -28 -70.5 -47.5t-86.5 -19.5zM334 412q-45 0 -78 -20
t-52 -54h236q-7 34 -33 54t-73 20z" />
    <glyph glyph-name="Ecaron" unicode="&#x11a;" horiz-adv-x="616" 
d="M135 730h514l-29 -161h-339l-21 -123h339l-29 -162h-339l-21 -123h339l-28 -161h-514zM267 965h121l34 -76l60 76h125l-150 -177h-103z" />
    <glyph glyph-name="ecaron" unicode="&#x11b;" horiz-adv-x="622" 
d="M300 -11q-70 0 -124 25.5t-88.5 68.5t-48 99.5t-2.5 118.5q10 57 38 103t69 78.5t92.5 50.5t107.5 18q64 0 115 -24t84.5 -65t47 -94.5t3.5 -111.5l-7 -42h-402q10 -39 41.5 -62t80.5 -23q33 0 61.5 15.5t48.5 39.5l131 -85q-41 -49 -100.5 -79.5t-147.5 -30.5zM334 412
q-45 0 -78 -20t-52 -54h236q-7 34 -33 54t-73 20zM215 781h121l34 -76l60 76h125l-150 -177h-103z" />
    <glyph glyph-name="Gcircumflex" unicode="&#x11c;" horiz-adv-x="816" 
d="M401 -10q-87 0 -156.5 33.5t-115 90t-64 130.5t-4.5 156q12 70 47.5 132t89 108.5t122.5 73t148 26.5q57 0 107 -14.5t90.5 -40.5t71 -61.5t50.5 -76.5l-170 -82q-20 52 -61 81t-103 29q-45 0 -82 -15.5t-65.5 -41.5t-47 -60.5t-25.5 -72.5q-8 -45 1 -86t33.5 -72.5
t62 -50.5t86.5 -19q62 0 104 28.5t67 75.5h-202l29 162h393l-15 -85q-14 -79 -48 -143t-84.5 -109.5t-116.5 -70.5t-142 -25zM461 971h103l87 -177h-120l-33 76l-61 -76h-126z" />
    <glyph glyph-name="gcircumflex" unicode="&#x11d;" horiz-adv-x="646" 
d="M262 -5q-60 0 -106.5 24.5t-76 66.5t-40.5 98t0 119q10 56 35 102t61.5 78.5t82.5 50t97 17.5q57 0 93.5 -21.5t56.5 -57.5l13 68h169l-89 -510q-11 -59 -33.5 -108.5t-59.5 -84.5t-88.5 -54.5t-119.5 -19.5q-47 0 -89.5 11.5t-77 32t-60 49.5t-40.5 65l173 54
q11 -32 36 -50.5t66 -18.5q55 0 84.5 34.5t37.5 84.5q0 -1 1.5 8t4.5 23q-20 -28 -51.5 -44.5t-79.5 -16.5zM312 151q50 0 84.5 29.5t42.5 78.5q5 28 -1 53t-20 44t-36 30t-49 11q-26 0 -48 -8.5t-39 -23t-28 -34.5t-15 -44q-5 -27 1 -51.5t20.5 -43.5t36.5 -30t51 -11z
M346 782h103l87 -177h-120l-33 76l-61 -76h-126z" />
    <glyph glyph-name="Gbreve" unicode="&#x11e;" horiz-adv-x="816" 
d="M401 -10q-87 0 -156.5 33.5t-115 90t-64 130.5t-4.5 156q12 70 47.5 132t89 108.5t122.5 73t148 26.5q57 0 107 -14.5t90.5 -40.5t71 -61.5t50.5 -76.5l-170 -82q-20 52 -61 81t-103 29q-45 0 -82 -15.5t-65.5 -41.5t-47 -60.5t-25.5 -72.5q-8 -45 1 -86t33.5 -72.5
t62 -50.5t86.5 -19q62 0 104 28.5t67 75.5h-202l29 162h393l-15 -85q-14 -79 -48 -143t-84.5 -109.5t-116.5 -70.5t-142 -25zM476 788q-84 0 -118.5 50t-20.5 128h107q-8 -39 4.5 -57t39.5 -19q26 1 44 19t26 57h107q-14 -78 -61 -128t-128 -50z" />
    <glyph glyph-name="gbreve" unicode="&#x11f;" horiz-adv-x="646" 
d="M262 -5q-60 0 -106.5 24.5t-76 66.5t-40.5 98t0 119q10 56 35 102t61.5 78.5t82.5 50t97 17.5q57 0 93.5 -21.5t56.5 -57.5l13 68h169l-89 -510q-11 -59 -33.5 -108.5t-59.5 -84.5t-88.5 -54.5t-119.5 -19.5q-47 0 -89.5 11.5t-77 32t-60 49.5t-40.5 65l173 54
q11 -32 36 -50.5t66 -18.5q55 0 84.5 34.5t37.5 84.5q0 -1 1.5 8t4.5 23q-20 -28 -51.5 -44.5t-79.5 -16.5zM312 151q50 0 84.5 29.5t42.5 78.5q5 28 -1 53t-20 44t-36 30t-49 11q-26 0 -48 -8.5t-39 -23t-28 -34.5t-15 -44q-5 -27 1 -51.5t20.5 -43.5t36.5 -30t51 -11z
M361 599q-84 0 -118.5 50t-20.5 128h107q-8 -39 4.5 -57t39.5 -19q26 1 44 19t26 57h107q-14 -78 -61 -128t-128 -50z" />
    <glyph glyph-name="Gdotaccent" unicode="&#x120;" horiz-adv-x="816" 
d="M401 -10q-87 0 -156.5 33.5t-115 90t-64 130.5t-4.5 156q12 70 47.5 132t89 108.5t122.5 73t148 26.5q57 0 107 -14.5t90.5 -40.5t71 -61.5t50.5 -76.5l-170 -82q-20 52 -61 81t-103 29q-45 0 -82 -15.5t-65.5 -41.5t-47 -60.5t-25.5 -72.5q-8 -45 1 -86t33.5 -72.5
t62 -50.5t86.5 -19q62 0 104 28.5t67 75.5h-202l29 162h393l-15 -85q-14 -79 -48 -143t-84.5 -109.5t-116.5 -70.5t-142 -25zM481 788q-24 0 -42 8.5t-30 23.5t-16.5 35t-0.5 43q7 41 38 65.5t72 24.5q24 0 42.5 -9t29.5 -24.5t15 -36t0 -42.5q-7 -38 -35 -63t-73 -25z" />
    <glyph glyph-name="gdotaccent" unicode="&#x121;" horiz-adv-x="646" 
d="M262 -5q-60 0 -106.5 24.5t-76 66.5t-40.5 98t0 119q10 56 35 102t61.5 78.5t82.5 50t97 17.5q57 0 93.5 -21.5t56.5 -57.5l13 68h169l-89 -510q-11 -59 -33.5 -108.5t-59.5 -84.5t-88.5 -54.5t-119.5 -19.5q-47 0 -89.5 11.5t-77 32t-60 49.5t-40.5 65l173 54
q11 -32 36 -50.5t66 -18.5q55 0 84.5 34.5t37.5 84.5q0 -1 1.5 8t4.5 23q-20 -28 -51.5 -44.5t-79.5 -16.5zM312 151q50 0 84.5 29.5t42.5 78.5q5 28 -1 53t-20 44t-36 30t-49 11q-26 0 -48 -8.5t-39 -23t-28 -34.5t-15 -44q-5 -27 1 -51.5t20.5 -43.5t36.5 -30t51 -11z
M366 599q-24 0 -42 8.5t-30 23.5t-16.5 35t-0.5 43q7 41 38 65.5t72 24.5q24 0 42.5 -9t29.5 -24.5t15 -36t0 -42.5q-7 -38 -35 -63t-73 -25z" />
    <glyph glyph-name="Gcommaaccent" unicode="&#x122;" horiz-adv-x="816" 
d="M401 -10q-87 0 -156.5 33.5t-115 90t-64 130.5t-4.5 156q12 70 47.5 132t89 108.5t122.5 73t148 26.5q57 0 107 -14.5t90.5 -40.5t71 -61.5t50.5 -76.5l-170 -82q-20 52 -61 81t-103 29q-45 0 -82 -15.5t-65.5 -41.5t-47 -60.5t-25.5 -72.5q-8 -45 1 -86t33.5 -72.5
t62 -50.5t86.5 -19q62 0 104 28.5t67 75.5h-202l29 162h393l-15 -85q-14 -79 -48 -143t-84.5 -109.5t-116.5 -70.5t-142 -25zM310 -259q51 22 75.5 45.5t29.5 52.5v6q-8 -24 -23 -34t-37 -10q-13 0 -24.5 5.5t-20 15t-12 23.5t-0.5 32q7 37 34.5 58t65.5 21q23 0 41.5 -9
t30 -25t15.5 -36.5t0 -42.5q-11 -49 -47 -85.5t-98 -63.5z" />
    <glyph glyph-name="gcommaaccent" unicode="&#x123;" horiz-adv-x="646" 
d="M262 -5q-60 0 -106.5 24.5t-76 66.5t-40.5 98t0 119q10 56 35 102t61.5 78.5t82.5 50t97 17.5q57 0 93.5 -21.5t56.5 -57.5l13 68h169l-89 -510q-11 -59 -33.5 -108.5t-59.5 -84.5t-88.5 -54.5t-119.5 -19.5q-47 0 -89.5 11.5t-77 32t-60 49.5t-40.5 65l173 54
q11 -32 36 -50.5t66 -18.5q55 0 84.5 34.5t37.5 84.5q0 -1 1.5 8t4.5 23q-20 -28 -51.5 -44.5t-79.5 -16.5zM312 151q50 0 84.5 29.5t42.5 78.5q5 28 -1 53t-20 44t-36 30t-49 11q-26 0 -48 -8.5t-39 -23t-28 -34.5t-15 -44q-5 -27 1 -51.5t20.5 -43.5t36.5 -30t51 -11z
M448 824q-51 -24 -76.5 -49.5t-30.5 -56.5q-1 -2 -1 -6q9 25 24 34.5t37 9.5q13 0 24.5 -5.5t20 -15t12 -24t0.5 -32.5q-7 -37 -34.5 -58t-65.5 -21q-23 0 -41.5 9t-30 25t-16 36t0.5 43q11 52 47 90.5t98 67.5z" />
    <glyph glyph-name="Hcircumflex" unicode="&#x124;" horiz-adv-x="708" 
d="M481 281h-250l-49 -281h-175l128 730h175l-49 -277h250l49 277h175l-128 -730h-175zM424 954h103l87 -177h-120l-33 76l-61 -76h-126z" />
    <glyph glyph-name="hcircumflex" unicode="&#x125;" horiz-adv-x="596" 
d="M139 788h163l-55 -311q28 37 65 55.5t87 18.5q45 0 79.5 -16.5t56 -48t28 -76t-3.5 -100.5l-55 -310h-171l53 299q10 51 -7 77.5t-59 26.5q-41 0 -67.5 -26.5t-34.5 -82.5l-53 -294h-166zM210 1023h103l87 -177h-120l-33 76l-61 -76h-126z" />
    <glyph glyph-name="Hbar" unicode="&#x126;" horiz-adv-x="728" 
d="M70 643h60l15 87h175l-16 -87h250l16 87h175l-15 -87h59l-17 -88h-58l-97 -555h-175l49 281h-250l-49 -281h-175l97 555h-61zM521 453l18 102h-250l-18 -102h250z" />
    <glyph glyph-name="hbar" unicode="&#x127;" horiz-adv-x="598" 
d="M64 704h62l15 84h163l-15 -84h74l-18 -104h-74l-22 -123q28 37 65 55.5t87 18.5q45 0 79.5 -16.5t56 -48t28 -76t-3.5 -100.5l-55 -310h-171l53 299q10 51 -7 77.5t-59 26.5q-41 0 -67.5 -26.5t-34.5 -82.5l-53 -294h-166l106 600h-61z" />
    <glyph glyph-name="Itilde" unicode="&#x128;" horiz-adv-x="288" 
d="M138 730h174l-128 -730h-175zM61 788q11 69 47 110t88 41q28 0 45 -7.5t31 -15.5q11 -8 20.5 -15t20.5 -7q21 0 25 42h95q-11 -69 -45.5 -110.5t-88.5 -41.5q-29 0 -46.5 8.5t-31.5 17.5q-11 7 -20 12.5t-20 5.5q-22 0 -26 -40h-94z" />
    <glyph glyph-name="itilde" unicode="&#x129;" horiz-adv-x="263" 
d="M-1 0l96 540h169l-95 -540h-170zM13 598q11 69 47 110t88 41q28 0 45 -7.5t31 -15.5q11 -8 20.5 -15t20.5 -7q21 0 25 42h95q-11 -69 -45.5 -110.5t-88.5 -41.5q-29 0 -46.5 8.5t-31.5 17.5q-11 7 -20 12.5t-20 5.5q-22 0 -26 -40h-94z" />
    <glyph glyph-name="Imacron" unicode="&#x12a;" horiz-adv-x="288" 
d="M138 730h174l-128 -730h-175zM116 901h264l-21 -113h-264z" />
    <glyph glyph-name="imacron" unicode="&#x12b;" horiz-adv-x="263" 
d="M-1 0l96 540h169l-95 -540h-170zM68 711h264l-21 -113h-264z" />
    <glyph glyph-name="Ibreve" unicode="&#x12c;" horiz-adv-x="288" 
d="M138 730h174l-128 -730h-175zM233 783q-84 0 -118.5 50t-20.5 128h107q-8 -39 4.5 -57t39.5 -19q26 1 44 19t26 57h107q-14 -78 -61 -128t-128 -50z" />
    <glyph glyph-name="ibreve" unicode="&#x12d;" horiz-adv-x="263" 
d="M-1 0l96 540h169l-95 -540h-170zM185 593q-84 0 -118.5 50t-20.5 128h107q-8 -39 4.5 -57t39.5 -19q26 1 44 19t26 57h107q-14 -78 -61 -128t-128 -50z" />
    <glyph glyph-name="Iogonek" unicode="&#x12e;" horiz-adv-x="288" 
d="M138 730h174l-128 -730q-37 -26 -59 -44t-34 -30.5t-16.5 -21.5t-5.5 -18q-2 -12 6 -17.5t21 -5.5q16 0 28.5 9t23.5 20l95 -63q-30 -28 -70.5 -47.5t-86.5 -19.5q-39 0 -68.5 10t-47.5 27.5t-25 40t-2 48.5q5 29 22.5 56t50.5 56h-7z" />
    <glyph glyph-name="iogonek" unicode="&#x12f;" horiz-adv-x="263" 
d="M70 -238q-39 0 -68.5 10t-47.5 27.5t-25 40t-2 48.5q5 29 22.5 56t50.5 56h-1l96 540h169l-95 -540h-1q-37 -26 -59 -44t-34 -30.5t-16.5 -21.5t-5.5 -18q-2 -12 6 -17.5t21 -5.5q16 0 28.5 9t23.5 20l95 -63q-30 -28 -70.5 -47.5t-86.5 -19.5zM195 585q-23 0 -41.5 8.5
t-30 23.5t-16.5 34.5t-1 42.5q4 19 14 35.5t24.5 27.5t32.5 17.5t37 6.5q24 0 42.5 -9t30 -24t15.5 -35t0 -42q-8 -38 -35.5 -62t-71.5 -24z" />
    <glyph glyph-name="Idotaccent" unicode="&#x130;" horiz-adv-x="288" 
d="M138 730h174l-128 -730h-175zM238 783q-24 0 -42 8.5t-30 23.5t-16.5 35t-0.5 43q7 41 38 65.5t72 24.5q24 0 42.5 -9t29.5 -24.5t15 -36t0 -42.5q-7 -38 -35 -63t-73 -25z" />
    <glyph glyph-name="dotlessi" unicode="&#x131;" horiz-adv-x="263" 
d="M-1 0l96 540h169l-95 -540h-170z" />
    <glyph glyph-name="IJ" unicode="&#x132;" horiz-adv-x="611" 
d="M248 162h61q37 0 50 15.5t20 50.5l90 502h174l-94 -523q-12 -62 -27 -102.5t-42 -63.5t-69 -32t-106 -9h-86zM138 730h175l-128 -730h-175z" />
    <glyph glyph-name="ij" unicode="&#x133;" horiz-adv-x="490" 
d="M8 0l95 540h169l-95 -540h-169zM0 -47h145q24 0 39.5 2t24.5 10t14 23.5t10 41.5q0 2 4.5 25t11 59t15 82t16.5 93q19 111 44 251h168l-92 -517q-13 -70 -27.5 -114t-41 -68.5t-69 -33.5t-111.5 -9h-179zM203 585q-23 0 -41 8.5t-29 23.5t-15.5 34.5t-0.5 42.5
q7 39 37 63t69 24q24 0 42 -9t28.5 -24t14 -35t-0.5 -42q-8 -38 -34 -62t-70 -24zM424 585q-23 0 -41 8.5t-29.5 23.5t-16 34.5t-0.5 42.5q8 39 37.5 63t69.5 24q24 0 41.5 -9t28.5 -24t14.5 -35t-0.5 -42q-8 -38 -34.5 -62t-69.5 -24z" />
    <glyph glyph-name="Jcircumflex" unicode="&#x134;" horiz-adv-x="539" 
d="M230 -10q-96 0 -155.5 49.5t-81.5 138.5l172 51q12 -76 68 -76q29 0 47 20t24 52l90 505h175l-91 -513q-20 -107 -81 -167t-167 -60zM473 966h103l87 -177h-120l-33 76l-61 -76h-126z" />
    <glyph glyph-name="jcircumflex" unicode="&#x135;" horiz-adv-x="261" 
d="M-112 -94q32 0 51 2t30 11t16.5 26.5t11.5 49.5q0 2 4.5 26.5t11.5 63t15.5 87t17.5 99.5q21 119 48 269h169l-97 -546q-12 -73 -27 -120t-41.5 -74.5t-69 -38t-109.5 -10.5h-60zM168 776h103l87 -177h-120l-33 76l-61 -76h-126z" />
    <glyph glyph-name="Kcommaaccent" unicode="&#x136;" horiz-adv-x="675" 
d="M331 316l-115 -122l-34 -194h-175l128 730h175l-54 -308l273 308h215l-274 -301l158 -429h-184zM216 -253q51 24 76.5 49.5t30.5 56.5v6q-8 -25 -23 -34.5t-37 -9.5q-13 0 -24.5 5.5t-20 15t-12 24t-0.5 32.5q7 37 34.5 58t65.5 21q23 0 41.5 -9t30 -25t15.5 -36.5
t0 -42.5q-11 -52 -47 -90.5t-98 -67.5z" />
    <glyph glyph-name="kcommaaccent" unicode="&#x137;" horiz-adv-x="584" 
d="M272 222l-81 -78l-25 -144h-168l140 788h166l-79 -452l205 204h206l-230 -227l142 -313h-180zM169 -255q51 24 76.5 49.5t30.5 56.5v6q-8 -25 -23 -34.5t-37 -9.5q-13 0 -24.5 5.5t-20 15t-12 24t-0.5 32.5q7 37 34.5 58t65.5 21q23 0 41.5 -9t30 -25t15.5 -36.5t0 -42.5
q-11 -52 -47 -90.5t-98 -67.5z" />
    <glyph glyph-name="kgreenlandic" unicode="&#x138;" horiz-adv-x="584" 
d="M272 222l-81 -78l-25 -144h-168l96 540h167l-36 -204l205 204h206l-230 -227l142 -313h-180z" />
    <glyph glyph-name="Lacute" unicode="&#x139;" horiz-adv-x="556" 
d="M135 730h175l-99 -563h288l-29 -167h-463zM298 965h170l-187 -177h-126z" />
    <glyph glyph-name="lacute" unicode="&#x13a;" horiz-adv-x="261" 
d="M139 788h166l-138 -788h-168zM301 1023h170l-187 -177h-126z" />
    <glyph glyph-name="Lcommaaccent" unicode="&#x13b;" horiz-adv-x="556" 
d="M160 -259q51 23 76.5 47.5t30.5 54.5v6q-8 -25 -23 -34.5t-37 -9.5q-13 0 -24.5 5.5t-20 15t-12 24t-0.5 32.5q7 37 34.5 58t65.5 21q23 0 41.5 -9t30 -25t15.5 -36.5t0 -42.5q-11 -51 -47 -88.5t-98 -65.5zM135 730h175l-99 -563h288l-29 -167h-463z" />
    <glyph glyph-name="lcommaaccent" unicode="&#x13c;" horiz-adv-x="261" 
d="M139 788h166l-138 -788h-168zM-12 -259q51 23 76.5 48t30.5 54v6q-8 -25 -23 -34.5t-37 -9.5q-13 0 -24.5 5.5t-20 15t-12 24t-0.5 32.5q7 37 34.5 58t65.5 21q23 0 41.5 -9t30 -25t15.5 -36.5t0 -42.5q-20 -98 -145 -154z" />
    <glyph glyph-name="Lcaron" unicode="&#x13d;" horiz-adv-x="556" 
d="M135 730h175l-99 -563h288l-29 -167h-463zM445 529q51 24 76.5 49.5t30.5 56.5v6q-8 -26 -23 -35t-37 -9q-13 0 -24.5 5.5t-20 15t-12 24t-0.5 32.5q7 37 34.5 58t65.5 21q23 0 41.5 -9t30 -25t15.5 -36.5t0 -42.5q-11 -52 -47 -90.5t-98 -67.5z" />
    <glyph glyph-name="lcaron" unicode="&#x13e;" horiz-adv-x="261" 
d="M139 788h166l-138 -788h-168zM369 631q51 24 76.5 49.5t30.5 56.5v6q-8 -26 -23 -35t-37 -9q-13 0 -24.5 5.5t-20 15t-12 24t-0.5 32.5q7 37 34.5 58t65.5 21q23 0 41.5 -9t30 -25t15.5 -36.5t0 -42.5q-11 -52 -47 -90.5t-98 -67.5z" />
    <glyph glyph-name="Ldot" unicode="&#x13f;" horiz-adv-x="556" 
d="M135 730h175l-99 -563h288l-29 -167h-463zM487 255q-24 0 -42 8.5t-30 23.5t-16.5 35t-0.5 43q7 41 38 65.5t72 24.5q24 0 42.5 -9t29.5 -24.5t15 -36t0 -42.5q-7 -38 -35 -63t-73 -25z" />
    <glyph glyph-name="ldot" unicode="&#x140;" horiz-adv-x="455" 
d="M139 788h166l-138 -788h-168zM346 164q-24 0 -42 8.5t-30 23.5t-16.5 35t-0.5 43q7 41 38 65.5t72 24.5q24 0 42.5 -9t29.5 -24.5t15 -36t0 -42.5q-7 -38 -35 -63t-73 -25z" />
    <glyph glyph-name="Lslash" unicode="&#x141;" horiz-adv-x="609" 
d="M28 373l102 29l58 328h175l-49 -276l136 38l16 -80l-167 -47l-35 -198h288l-29 -167h-463l55 313l-71 -20z" />
    <glyph glyph-name="lslash" unicode="&#x142;" horiz-adv-x="364" 
d="M58 444l78 21l58 323h166l-48 -276l78 21l-22 -125l-78 -21l-68 -387h-168l60 340l-78 -21z" />
    <glyph glyph-name="Nacute" unicode="&#x143;" horiz-adv-x="751" 
d="M135 730h172l219 -453l80 453h172l-128 -730h-167l-224 460l-81 -460h-171zM550 954h170l-187 -177h-126z" />
    <glyph glyph-name="nacute" unicode="&#x144;" horiz-adv-x="597" 
d="M94 540h166l-12 -66q29 38 66 57.5t88 19.5q44 0 78 -17t55 -48.5t28 -76t-3 -99.5l-55 -310h-171l55 299q9 51 -7.5 77.5t-59.5 26.5q-85 0 -103 -109l-54 -294h-167zM447 782h170l-187 -177h-126z" />
    <glyph glyph-name="Ncommaaccent" unicode="&#x145;" horiz-adv-x="751" 
d="M135 730h172l219 -453l80 453h172l-128 -730h-167l-224 460l-81 -460h-171zM225 -256q51 24 76.5 49.5t30.5 56.5v6q-8 -25 -23 -34.5t-37 -9.5q-13 0 -24.5 5.5t-20 15t-12 24t-0.5 32.5q7 37 34.5 58t65.5 21q23 0 41.5 -9t30 -25t15.5 -36.5t0 -42.5
q-11 -52 -47 -90.5t-98 -67.5z" />
    <glyph glyph-name="ncommaaccent" unicode="&#x146;" horiz-adv-x="597" 
d="M94 540h166l-12 -66q29 38 66 57.5t88 19.5q44 0 78 -17t55 -48.5t28 -76t-3 -99.5l-55 -310h-171l55 299q9 51 -7.5 77.5t-59.5 26.5q-85 0 -103 -109l-54 -294h-167zM155 -251q51 24 76.5 49.5t30.5 56.5v6q-8 -25 -23 -34.5t-37 -9.5q-13 0 -24.5 5.5t-20 15t-12 24
t-0.5 32.5q7 37 34.5 58t65.5 21q23 0 41.5 -9t30 -25t15.5 -36.5t0 -42.5q-11 -52 -47 -90.5t-98 -67.5z" />
    <glyph glyph-name="Ncaron" unicode="&#x147;" horiz-adv-x="751" 
d="M135 730h172l219 -453l80 453h172l-128 -730h-167l-224 460l-81 -460h-171zM343 954h121l34 -76l60 76h125l-150 -177h-103z" />
    <glyph glyph-name="ncaron" unicode="&#x148;" horiz-adv-x="597" 
d="M94 540h166l-12 -66q29 38 66 57.5t88 19.5q44 0 78 -17t55 -48.5t28 -76t-3 -99.5l-55 -310h-171l55 299q9 51 -7.5 77.5t-59.5 26.5q-85 0 -103 -109l-54 -294h-167zM240 782h121l34 -76l60 76h125l-150 -177h-103z" />
    <glyph glyph-name="Eng" unicode="&#x14a;" horiz-adv-x="711" 
d="M324 -85h31q39 0 57 16t24 54l6 23l-182 427l-77 -435h-174l130 730h179l175 -414l74 414h174l-132 -753q-11 -62 -28.5 -105t-46 -69t-70.5 -37.5t-102 -11.5h-67z" />
    <glyph glyph-name="eng" unicode="&#x14b;" horiz-adv-x="598" 
d="M224 -94q33 0 52 2t30 11t16.5 26.5t11.5 49.5q0 1 3 15t6.5 36t8.5 49t10 55q11 66 26 149q9 51 -7.5 77.5t-58.5 26.5q-86 0 -104 -109l-53 -294h-167l96 540h166l-12 -65q56 76 153 76q44 0 78 -17t55.5 -48.5t29 -76t-2.5 -99.5l-57 -316q-13 -72 -28 -119t-42 -74.5
t-69 -38.5t-109 -11h-60z" />
    <glyph glyph-name="Omacron" unicode="&#x14c;" horiz-adv-x="829" 
d="M400 -10q-86 0 -155 33.5t-114.5 90t-65 130.5t-5.5 156q12 72 48.5 134.5t90 108t121.5 71.5t143 26q85 0 153.5 -33.5t114.5 -90t65.5 -130.5t5.5 -156q-12 -72 -47.5 -134.5t-88 -108t-120.5 -71.5t-146 -26zM414 162q42 0 77.5 14t63.5 39t46 58.5t25 72.5
q8 44 -1.5 84.5t-33.5 71t-60.5 49t-83.5 18.5q-42 0 -77.5 -14.5t-63 -39t-46 -58.5t-25.5 -73q-8 -44 1.5 -84t33.5 -70.5t60.5 -49t83.5 -18.5zM353 906h264l-21 -113h-264z" />
    <glyph glyph-name="omacron" unicode="&#x14d;" horiz-adv-x="637" 
d="M297 -11q-72 0 -125.5 27t-86.5 71t-45.5 101t-1.5 117q10 51 36 96t65.5 78.5t90.5 52.5t110 19q71 0 124.5 -26.5t87 -70.5t46 -100.5t1.5 -116.5q-10 -52 -35 -97.5t-64 -79t-90.5 -52.5t-112.5 -19zM308 144q46 0 82.5 30.5t45.5 81.5q5 27 -0.5 52.5t-19.5 45
t-36 31.5t-50 13q-23 0 -44 -8t-38.5 -23t-30 -36t-16.5 -46q-5 -27 1 -52.5t20 -45t36 -31.5t50 -12zM228 717h264l-21 -113h-264z" />
    <glyph glyph-name="Obreve" unicode="&#x14e;" horiz-adv-x="829" 
d="M400 -10q-86 0 -155 33.5t-114.5 90t-65 130.5t-5.5 156q12 72 48.5 134.5t90 108t121.5 71.5t143 26q85 0 153.5 -33.5t114.5 -90t65.5 -130.5t5.5 -156q-12 -72 -47.5 -134.5t-88 -108t-120.5 -71.5t-146 -26zM414 162q42 0 77.5 14t63.5 39t46 58.5t25 72.5
q8 44 -1.5 84.5t-33.5 71t-60.5 49t-83.5 18.5q-42 0 -77.5 -14.5t-63 -39t-46 -58.5t-25.5 -73q-8 -44 1.5 -84t33.5 -70.5t60.5 -49t83.5 -18.5zM470 788q-84 0 -118.5 50t-20.5 128h107q-8 -39 4.5 -57t39.5 -19q26 1 44 19t26 57h107q-14 -78 -61 -128t-128 -50z" />
    <glyph glyph-name="obreve" unicode="&#x14f;" horiz-adv-x="637" 
d="M297 -11q-72 0 -125.5 27t-86.5 71t-45.5 101t-1.5 117q10 51 36 96t65.5 78.5t90.5 52.5t110 19q71 0 124.5 -26.5t87 -70.5t46 -100.5t1.5 -116.5q-10 -52 -35 -97.5t-64 -79t-90.5 -52.5t-112.5 -19zM308 144q46 0 82.5 30.5t45.5 81.5q5 27 -0.5 52.5t-19.5 45
t-36 31.5t-50 13q-23 0 -44 -8t-38.5 -23t-30 -36t-16.5 -46q-5 -27 1 -52.5t20 -45t36 -31.5t50 -12zM345 599q-84 0 -118.5 50t-20.5 128h107q-8 -39 4.5 -57t39.5 -19q26 1 44 19t26 57h107q-14 -78 -61 -128t-128 -50z" />
    <glyph glyph-name="Ohungarumlaut" unicode="&#x150;" horiz-adv-x="829" 
d="M400 -10q-86 0 -155 33.5t-114.5 90t-65 130.5t-5.5 156q12 72 48.5 134.5t90 108t121.5 71.5t143 26q85 0 153.5 -33.5t114.5 -90t65.5 -130.5t5.5 -156q-12 -72 -47.5 -134.5t-88 -108t-120.5 -71.5t-146 -26zM414 162q42 0 77.5 14t63.5 39t46 58.5t25 72.5
q8 44 -1.5 84.5t-33.5 71t-60.5 49t-83.5 18.5q-42 0 -77.5 -14.5t-63 -39t-46 -58.5t-25.5 -73q-8 -44 1.5 -84t33.5 -70.5t60.5 -49t83.5 -18.5zM451 970h145l-161 -177h-101zM628 970h145l-161 -177h-101z" />
    <glyph glyph-name="ohungarumlaut" unicode="&#x151;" horiz-adv-x="637" 
d="M297 -11q-72 0 -125.5 27t-86.5 71t-45.5 101t-1.5 117q10 51 36 96t65.5 78.5t90.5 52.5t110 19q71 0 124.5 -26.5t87 -70.5t46 -100.5t1.5 -116.5q-10 -52 -35 -97.5t-64 -79t-90.5 -52.5t-112.5 -19zM308 144q46 0 82.5 30.5t45.5 81.5q5 27 -0.5 52.5t-19.5 45
t-36 31.5t-50 13q-23 0 -44 -8t-38.5 -23t-30 -36t-16.5 -46q-5 -27 1 -52.5t20 -45t36 -31.5t50 -12zM326 781h145l-161 -177h-101zM503 781h145l-161 -177h-101z" />
    <glyph glyph-name="OE" unicode="&#x152;" horiz-adv-x="1136" 
d="M553 35q-35 -21 -74.5 -33t-85.5 -12q-83 0 -150.5 33.5t-112.5 90t-64.5 130.5t-5.5 156q12 72 48.5 134.5t90 108t121.5 71.5t143 26q65 0 115 -17.5t87 -49.5l10 57h494l-29 -161h-319l-21 -123h319l-29 -162h-319l-21 -123h319l-28 -161h-494zM415 162q41 0 77 14.5
t63.5 39.5t46 59t25.5 73q8 44 -1.5 84.5t-33 71t-60.5 49t-83 18.5q-42 0 -78 -14.5t-64 -40t-46.5 -59.5t-25.5 -73q-8 -44 1.5 -84t33.5 -70.5t61 -49t84 -18.5z" />
    <glyph glyph-name="oe" unicode="&#x153;" horiz-adv-x="1024" 
d="M297 -11q-72 0 -125.5 27t-86.5 71t-45.5 101t-1.5 117q10 51 36 96t65.5 78.5t90.5 52.5t110 19q64 0 113 -21.5t83 -58.5q44 38 100 59t119 21q61 0 110 -23.5t82 -64t46.5 -94t2.5 -113.5l-7 -41h-403q10 -40 42 -63t81 -23q33 0 61.5 15.5t48.5 39.5l131 -85
q-41 -49 -100.5 -79.5t-147.5 -30.5q-63 0 -112.5 20.5t-84.5 55.5q-39 -35 -91.5 -55.5t-116.5 -20.5zM308 144q46 0 82.5 30.5t45.5 81.5q5 27 -0.5 52.5t-19.5 45t-36 31.5t-50 13q-23 0 -44 -8t-38.5 -23t-30 -36t-16.5 -46q-5 -27 1 -52.5t20 -45t36 -31.5t50 -12z
M741 413q-48 0 -82 -21t-54 -56h236q-7 35 -32.5 56t-67.5 21z" />
    <glyph glyph-name="Racute" unicode="&#x154;" horiz-adv-x="681" 
d="M135 730h301q60 0 110 -20.5t84 -58t48.5 -89t3.5 -113.5q-11 -63 -57 -116.5t-122 -82.5l129 -250h-195l-106 224h-110l-39 -224h-175zM282 574l-34 -195h119q54 0 89.5 22.5t43.5 67.5q4 22 0 41t-16.5 33t-34 22.5t-52.5 8.5h-115zM474 965h170l-187 -177h-126z" />
    <glyph glyph-name="racute" unicode="&#x155;" horiz-adv-x="430" 
d="M94 540h158l-19 -102q47 102 146 102h73l-31 -172h-69q-35 0 -58.5 -5t-39.5 -18.5t-25.5 -37.5t-16.5 -61l-44 -246h-170zM359 766h170l-187 -177h-126z" />
    <glyph glyph-name="Rcommaaccent" unicode="&#x156;" horiz-adv-x="681" 
d="M135 730h301q60 0 110 -20.5t84 -58t48.5 -89t3.5 -113.5q-11 -63 -57 -116.5t-122 -82.5l129 -250h-195l-106 224h-110l-39 -224h-175zM282 574l-34 -195h119q54 0 89.5 22.5t43.5 67.5q4 22 0 41t-16.5 33t-34 22.5t-52.5 8.5h-115zM213 -246q51 24 76.5 49.5
t30.5 56.5v6q-8 -25 -23 -34.5t-37 -9.5q-13 0 -24.5 5.5t-20 15t-12 24t-0.5 32.5q7 37 34.5 58t65.5 21q23 0 41.5 -9t30 -25t15.5 -36.5t0 -42.5q-11 -52 -47 -90.5t-98 -67.5z" />
    <glyph glyph-name="rcommaaccent" unicode="&#x157;" horiz-adv-x="430" 
d="M-12 -259q51 23 76.5 48t30.5 54v6q-8 -25 -23 -34.5t-37 -9.5q-13 0 -24.5 5.5t-20 15t-12 24t-0.5 32.5q7 37 34.5 58t65.5 21q23 0 41.5 -9t30 -25t15.5 -36.5t0 -42.5q-20 -98 -145 -154zM94 540h158l-19 -102q47 102 146 102h73l-31 -172h-69q-35 0 -58.5 -5
t-39.5 -18.5t-25.5 -37.5t-16.5 -61l-44 -246h-170z" />
    <glyph glyph-name="Rcaron" unicode="&#x158;" horiz-adv-x="681" 
d="M135 730h301q60 0 110 -20.5t84 -58t48.5 -89t3.5 -113.5q-11 -63 -57 -116.5t-122 -82.5l129 -250h-195l-106 224h-110l-39 -224h-175zM282 574l-34 -195h119q54 0 89.5 22.5t43.5 67.5q4 22 0 41t-16.5 33t-34 22.5t-52.5 8.5h-115zM267 965h121l34 -76l60 76h125
l-150 -177h-103z" />
    <glyph glyph-name="rcaron" unicode="&#x159;" horiz-adv-x="430" 
d="M94 540h158l-19 -102q47 102 146 102h73l-31 -172h-69q-35 0 -58.5 -5t-39.5 -18.5t-25.5 -37.5t-16.5 -61l-44 -246h-170zM152 766h121l34 -76l60 76h125l-150 -177h-103z" />
    <glyph glyph-name="Sacute" unicode="&#x15a;" horiz-adv-x="627" 
d="M295 -11q-56 0 -104 12t-87 33t-69.5 48.5t-51.5 59.5l161 117q25 -51 67 -78t101 -27q40 0 67.5 17.5t32.5 44.5q3 20 -7 34t-29.5 24.5t-45.5 19.5t-55 18q-38 12 -76.5 28t-67.5 42t-43 65t-4 98q8 45 33.5 81t63.5 61.5t85.5 39.5t98.5 14q54 0 97 -9t77.5 -26
t62.5 -41.5t52 -55.5l-153 -103q-17 32 -54 57.5t-94 25.5q-43 0 -67 -16t-29 -42q-3 -17 6.5 -28.5t28 -21t43.5 -17.5t53 -17q39 -12 79 -29t70.5 -45.5t45.5 -71t4 -106.5q-8 -42 -31.5 -79.5t-61 -65.5t-88 -44.5t-111.5 -16.5zM451 970h170l-187 -177h-126z" />
    <glyph glyph-name="sacute" unicode="&#x15b;" horiz-adv-x="519" 
d="M236 -11q-95 0 -159.5 31.5t-102.5 77.5l138 98q22 -32 59 -52t76 -20q25 0 40.5 10.5t18.5 28.5q1 10 -6 17.5t-20.5 14t-32 12t-38.5 11.5q-32 9 -64.5 21t-57 32t-37 50.5t-4.5 75.5q6 34 25.5 62.5t50 48.5t70 31.5t85.5 11.5q77 0 139.5 -25.5t98.5 -67.5l-125 -90
q-17 23 -48 40t-67 17q-51 0 -56 -34q-2 -16 23 -27t73 -25q31 -8 63 -21t56.5 -34.5t37.5 -53t5 -77.5q-6 -35 -24 -64.5t-48.5 -52t-72.5 -35t-96 -12.5zM360 781h170l-187 -177h-126z" />
    <glyph glyph-name="Scircumflex" unicode="&#x15c;" horiz-adv-x="627" 
d="M295 -11q-56 0 -104 12t-87 33t-69.5 48.5t-51.5 59.5l161 117q25 -51 67 -78t101 -27q40 0 67.5 17.5t32.5 44.5q3 20 -7 34t-29.5 24.5t-45.5 19.5t-55 18q-38 12 -76.5 28t-67.5 42t-43 65t-4 98q8 45 33.5 81t63.5 61.5t85.5 39.5t98.5 14q54 0 97 -9t77.5 -26
t62.5 -41.5t52 -55.5l-153 -103q-17 32 -54 57.5t-94 25.5q-43 0 -67 -16t-29 -42q-3 -17 6.5 -28.5t28 -21t43.5 -17.5t53 -17q39 -12 79 -29t70.5 -45.5t45.5 -71t4 -106.5q-8 -42 -31.5 -79.5t-61 -65.5t-88 -44.5t-111.5 -16.5zM364 971h103l87 -177h-120l-33 76
l-61 -76h-126z" />
    <glyph glyph-name="scircumflex" unicode="&#x15d;" horiz-adv-x="519" 
d="M236 -11q-95 0 -159.5 31.5t-102.5 77.5l138 98q22 -32 59 -52t76 -20q25 0 40.5 10.5t18.5 28.5q1 10 -6 17.5t-20.5 14t-32 12t-38.5 11.5q-32 9 -64.5 21t-57 32t-37 50.5t-4.5 75.5q6 34 25.5 62.5t50 48.5t70 31.5t85.5 11.5q77 0 139.5 -25.5t98.5 -67.5l-125 -90
q-17 23 -48 40t-67 17q-51 0 -56 -34q-2 -16 23 -27t73 -25q31 -8 63 -21t56.5 -34.5t37.5 -53t5 -77.5q-6 -35 -24 -64.5t-48.5 -52t-72.5 -35t-96 -12.5zM273 782h103l87 -177h-120l-33 76l-61 -76h-126z" />
    <glyph glyph-name="Scedilla" unicode="&#x15e;" horiz-adv-x="627" 
d="M230 -288q-61 0 -104 18t-70 47l105 62q13 -14 31.5 -23t39.5 -9q22 0 35.5 6t15.5 19q7 25 -43 25h-65l26 141h4q-78 16 -133.5 55t-88.5 89l161 117q25 -51 67 -78t101 -27q40 0 67.5 17.5t32.5 44.5q3 20 -7 34t-29.5 24.5t-45.5 19.5t-55 18q-38 12 -76.5 28
t-67.5 42t-43 65t-4 98q8 45 33.5 81t63.5 61.5t85.5 39.5t98.5 14q54 0 97 -9t77.5 -26t62.5 -41.5t52 -55.5l-153 -103q-17 32 -54 57.5t-94 25.5q-43 0 -67 -16t-29 -42q-3 -17 6.5 -28.5t28 -21t43.5 -17.5t53 -17q39 -12 79 -29t70.5 -45.5t45.5 -71t4 -106.5
q-8 -41 -30 -77.5t-57.5 -64t-83 -44.5t-104.5 -20l-10 -52q52 -6 77.5 -37.5t17.5 -82.5q-10 -51 -55.5 -78t-111.5 -27z" />
    <glyph glyph-name="scedilla" unicode="&#x15f;" horiz-adv-x="519" 
d="M184 -293q-61 0 -104 18t-70 47l105 62q13 -14 31.5 -23t39.5 -9q22 0 35.5 6t15.5 19q7 25 -43 25h-65l26 141h18q-69 10 -118 38.5t-81 66.5l138 98q22 -32 59 -52t76 -20q25 0 40.5 10.5t18.5 28.5q1 10 -6 17.5t-20.5 14t-32 12t-38.5 11.5q-32 9 -64.5 21t-57 32
t-37 50.5t-4.5 75.5q6 34 25.5 62.5t50 48.5t70 31.5t85.5 11.5q77 0 139.5 -25.5t98.5 -67.5l-125 -90q-17 23 -48 40t-67 17q-51 0 -56 -34q-2 -16 23 -27t73 -25q31 -8 63 -21t56.5 -34.5t37.5 -53t5 -77.5q-11 -64 -63.5 -109.5t-146.5 -53.5l-11 -58q52 -6 77.5 -37.5
t17.5 -82.5q-10 -51 -55.5 -78t-111.5 -27z" />
    <glyph glyph-name="Scaron" unicode="&#x160;" horiz-adv-x="627" 
d="M295 -11q-56 0 -104 12t-87 33t-69.5 48.5t-51.5 59.5l161 117q25 -51 67 -78t101 -27q40 0 67.5 17.5t32.5 44.5q3 20 -7 34t-29.5 24.5t-45.5 19.5t-55 18q-38 12 -76.5 28t-67.5 42t-43 65t-4 98q8 45 33.5 81t63.5 61.5t85.5 39.5t98.5 14q54 0 97 -9t77.5 -26
t62.5 -41.5t52 -55.5l-153 -103q-17 32 -54 57.5t-94 25.5q-43 0 -67 -16t-29 -42q-3 -17 6.5 -28.5t28 -21t43.5 -17.5t53 -17q39 -12 79 -29t70.5 -45.5t45.5 -71t4 -106.5q-8 -42 -31.5 -79.5t-61 -65.5t-88 -44.5t-111.5 -16.5zM244 970h121l34 -76l60 76h125l-150 -177
h-103z" />
    <glyph glyph-name="scaron" unicode="&#x161;" horiz-adv-x="519" 
d="M236 -11q-95 0 -159.5 31.5t-102.5 77.5l138 98q22 -32 59 -52t76 -20q25 0 40.5 10.5t18.5 28.5q1 10 -6 17.5t-20.5 14t-32 12t-38.5 11.5q-32 9 -64.5 21t-57 32t-37 50.5t-4.5 75.5q6 34 25.5 62.5t50 48.5t70 31.5t85.5 11.5q77 0 139.5 -25.5t98.5 -67.5l-125 -90
q-17 23 -48 40t-67 17q-51 0 -56 -34q-2 -16 23 -27t73 -25q31 -8 63 -21t56.5 -34.5t37.5 -53t5 -77.5q-6 -35 -24 -64.5t-48.5 -52t-72.5 -35t-96 -12.5zM153 781h121l34 -76l60 76h125l-150 -177h-103z" />
    <glyph glyph-name="Tcommaaccent" unicode="&#x162;" horiz-adv-x="641" 
d="M187 0l99 568h-196l29 162h565l-28 -162h-197l-99 -568h-173zM178 -259q51 23 76.5 47.5t30.5 54.5v6q-8 -25 -23 -34.5t-37 -9.5q-13 0 -24.5 5.5t-20 15t-12 24t-0.5 32.5q7 37 34.5 58t65.5 21q23 0 41.5 -9t30 -25t15.5 -36.5t0 -42.5q-11 -51 -47 -88.5t-98 -65.5z
" />
    <glyph glyph-name="tcommaaccent" unicode="&#x163;" horiz-adv-x="436" 
d="M71 540h95l23 127l177 91l-39 -218h121l-26 -148h-121l-26 -149q-6 -29 -6 -46t9 -26t28 -11.5t51 -2.5h24l-28 -157h-51q-69 0 -111.5 12t-63.5 39.5t-23.5 72.5t9.5 111l27 157h-96zM108 -259q51 24 76.5 49t30.5 56v6q-8 -25 -23 -34.5t-37 -9.5q-13 0 -24.5 5.5
t-20 15t-12 24t-0.5 32.5q7 37 34.5 58t65.5 21q23 0 41.5 -9t30 -25t15.5 -36.5t0 -42.5q-11 -52 -47 -90t-98 -67z" />
    <glyph glyph-name="Tcaron" unicode="&#x164;" horiz-adv-x="641" 
d="M187 0l99 568h-196l29 162h565l-28 -162h-197l-99 -568h-173zM270 965h121l34 -76l60 76h125l-150 -177h-103z" />
    <glyph glyph-name="tcaron" unicode="&#x165;" horiz-adv-x="436" 
d="M71 540h95l23 127l177 91l-39 -218h121l-26 -148h-121l-26 -149q-6 -29 -6 -46t9 -26t28 -11.5t51 -2.5h24l-28 -157h-51q-69 0 -111.5 12t-63.5 39.5t-23.5 72.5t9.5 111l27 157h-96zM419 644q51 24 76.5 49.5t30.5 56.5v6q-8 -26 -23 -35t-37 -9q-13 0 -24.5 5.5
t-20 15t-12 24t-0.5 32.5q7 37 34.5 58t65.5 21q23 0 41.5 -9t30 -25t15.5 -36.5t0 -42.5q-11 -52 -47 -90.5t-98 -67.5z" />
    <glyph glyph-name="Tbar" unicode="&#x166;" horiz-adv-x="641" 
d="M187 0l49 281h-102l23 114h99l30 173h-196l29 162h565l-28 -162h-197l-30 -173h101l-24 -114h-97l-49 -281h-173z" />
    <glyph glyph-name="tbar" unicode="&#x167;" horiz-adv-x="435" 
d="M71 540h95l23 127l177 91l-39 -218h121l-26 -148h-121l-12 -65h91l-17 -82h-88v-2q-6 -29 -6 -46t9 -26t28 -11.5t51 -2.5h24l-28 -157h-51q-69 0 -111.5 12t-63.5 39.5t-23.5 72.5t9.5 111l1 10h-71l17 82h68l12 65h-96z" />
    <glyph glyph-name="Utilde" unicode="&#x168;" horiz-adv-x="703" 
d="M317 -10q-62 0 -115 19t-90.5 56t-54 91t-4.5 123l80 451h177l-82 -443q-12 -63 16.5 -101.5t83.5 -38.5q62 0 99.5 36.5t47.5 89.5l81 457h177l-81 -453q-12 -66 -38.5 -119.5t-68 -90.5t-98.5 -57t-130 -20zM270 777q11 69 47 110t88 41q28 0 45 -7.5t31 -15.5
q11 -8 20.5 -15t20.5 -7q21 0 25 42h95q-11 -69 -45.5 -110.5t-88.5 -41.5q-29 0 -46.5 8.5t-31.5 17.5q-11 7 -20 12.5t-20 5.5q-22 0 -26 -40h-94z" />
    <glyph glyph-name="utilde" unicode="&#x169;" horiz-adv-x="590" 
d="M195 -11q-94 0 -136 61t-22 168l56 322h172l-54 -304q-9 -50 7.5 -75t55.5 -25q37 0 62.5 25.5t34.5 78.5l54 300h167l-95 -540h-166l11 62q-28 -35 -64 -54t-83 -19zM178 585q11 69 47 110t88 41q28 0 45 -7.5t31 -15.5q11 -8 20.5 -15t20.5 -7q21 0 25 42h95
q-11 -69 -45.5 -110.5t-88.5 -41.5q-29 0 -46.5 8.5t-31.5 17.5q-11 7 -20 12.5t-20 5.5q-22 0 -26 -40h-94z" />
    <glyph glyph-name="Umacron" unicode="&#x16a;" horiz-adv-x="703" 
d="M317 -10q-62 0 -115 19t-90.5 56t-54 91t-4.5 123l80 451h177l-82 -443q-12 -63 16.5 -101.5t83.5 -38.5q62 0 99.5 36.5t47.5 89.5l81 457h177l-81 -453q-12 -66 -38.5 -119.5t-68 -90.5t-98.5 -57t-130 -20zM325 890h264l-21 -113h-264z" />
    <glyph glyph-name="umacron" unicode="&#x16b;" horiz-adv-x="590" 
d="M195 -11q-94 0 -136 61t-22 168l56 322h172l-54 -304q-9 -50 7.5 -75t55.5 -25q37 0 62.5 25.5t34.5 78.5l54 300h167l-95 -540h-166l11 62q-28 -35 -64 -54t-83 -19zM237 704h264l-21 -113h-264z" />
    <glyph glyph-name="Ubreve" unicode="&#x16c;" horiz-adv-x="703" 
d="M317 -10q-62 0 -115 19t-90.5 56t-54 91t-4.5 123l80 451h177l-82 -443q-12 -63 16.5 -101.5t83.5 -38.5q62 0 99.5 36.5t47.5 89.5l81 457h177l-81 -453q-12 -66 -38.5 -119.5t-68 -90.5t-98.5 -57t-130 -20zM442 772q-84 0 -118.5 50t-20.5 128h107q-8 -39 4.5 -57
t39.5 -19q26 1 44 19t26 57h107q-14 -78 -61 -128t-128 -50z" />
    <glyph glyph-name="ubreve" unicode="&#x16d;" horiz-adv-x="590" 
d="M195 -11q-94 0 -136 61t-22 168l56 322h172l-54 -304q-9 -50 7.5 -75t55.5 -25q37 0 62.5 25.5t34.5 78.5l54 300h167l-95 -540h-166l11 62q-28 -35 -64 -54t-83 -19zM350 580q-84 0 -118.5 50t-20.5 128h107q-8 -39 4.5 -57t39.5 -19q26 1 44 19t26 57h107
q-14 -78 -61 -128t-128 -50z" />
    <glyph glyph-name="Uring" unicode="&#x16e;" horiz-adv-x="703" 
d="M317 -10q-62 0 -115 19t-90.5 56t-54 91t-4.5 123l80 451h177l-82 -443q-12 -63 16.5 -101.5t83.5 -38.5q62 0 99.5 36.5t47.5 89.5l81 457h177l-81 -453q-12 -66 -38.5 -119.5t-68 -90.5t-98.5 -57t-130 -20zM444 768q-30 0 -53 11.5t-37 31t-19 44.5t1 52q9 43 45 72.5
t85 29.5q30 0 53 -11.5t37.5 -31t19.5 -44t-1 -51.5q-10 -45 -44 -74t-87 -29zM450 841q18 0 32 10.5t18 30.5q5 23 -6 39.5t-34 16.5q-17 0 -31 -11.5t-18 -30.5q-5 -23 5.5 -39t33.5 -16z" />
    <glyph glyph-name="uring" unicode="&#x16f;" horiz-adv-x="590" 
d="M195 -11q-94 0 -136 61t-22 168l56 322h172l-54 -304q-9 -50 7.5 -75t55.5 -25q37 0 62.5 25.5t34.5 78.5l54 300h167l-95 -540h-166l11 62q-28 -35 -64 -54t-83 -19zM352 580q-30 0 -53 11.5t-37 31t-19 44.5t1 52q9 43 45 72.5t85 29.5q30 0 53 -11.5t37.5 -31
t19.5 -44t-1 -51.5q-10 -45 -44 -74t-87 -29zM358 653q18 0 32 10.5t18 30.5q5 23 -6 39.5t-34 16.5q-17 0 -31 -11.5t-18 -30.5q-5 -23 5.5 -39t33.5 -16z" />
    <glyph glyph-name="Uhungarumlaut" unicode="&#x170;" horiz-adv-x="703" 
d="M317 -10q-62 0 -115 19t-90.5 56t-54 91t-4.5 123l80 451h177l-82 -443q-12 -63 16.5 -101.5t83.5 -38.5q62 0 99.5 36.5t47.5 89.5l81 457h177l-81 -453q-12 -66 -38.5 -119.5t-68 -90.5t-98.5 -57t-130 -20zM423 954h145l-161 -177h-101zM600 954h145l-161 -177h-101z
" />
    <glyph glyph-name="uhungarumlaut" unicode="&#x171;" horiz-adv-x="590" 
d="M195 -11q-94 0 -136 61t-22 168l56 322h172l-54 -304q-9 -50 7.5 -75t55.5 -25q37 0 62.5 25.5t34.5 78.5l54 300h167l-95 -540h-166l11 62q-28 -35 -64 -54t-83 -19zM314 775h145l-161 -177h-101zM491 775h145l-161 -177h-101z" />
    <glyph glyph-name="Uogonek" unicode="&#x172;" horiz-adv-x="703" 
d="M330 -213q-39 0 -68.5 10t-47.5 27.5t-25 40t-2 48.5q4 23 15.5 43.5t37.5 42.5q-47 10 -86 33.5t-65 58.5t-36 82.5t0 105.5l80 451h177l-82 -443q-12 -63 16.5 -101.5t83.5 -38.5q62 0 99.5 36.5t47.5 89.5l81 457h177l-81 -453q-17 -97 -64.5 -163.5t-127.5 -98.5
l-70 -40t-44.5 -27.5t-24 -20t-8.5 -16.5q-2 -12 6 -17.5t21 -5.5q16 0 28.5 9t23.5 20l95 -63q-30 -28 -70.5 -47.5t-86.5 -19.5z" />
    <glyph glyph-name="uogonek" unicode="&#x173;" horiz-adv-x="590" 
d="M399 -238q-39 0 -68.5 10t-47.5 27.5t-25 40t-2 48.5q5 30 22.5 57t52.5 56l11 61q-28 -35 -64 -54t-83 -19q-94 0 -136 61t-22 168l56 322h172l-54 -304q-9 -50 7.5 -75t55.5 -25q37 0 62.5 25.5t34.5 78.5l54 300h167l-95 -540q-37 -26 -59 -44t-34 -30.5t-16.5 -21.5
t-5.5 -18q-2 -12 6 -17.5t21 -5.5q16 0 28.5 9t23.5 20l95 -63q-30 -28 -70.5 -47.5t-86.5 -19.5z" />
    <glyph glyph-name="Wcircumflex" unicode="&#x174;" horiz-adv-x="1035" 
d="M593 0l-46 459l-223 -459h-173l-55 730h179l24 -446l219 446h153l48 -455l201 455h184l-337 -730h-174zM590 966h103l87 -177h-120l-33 76l-61 -76h-126z" />
    <glyph glyph-name="wcircumflex" unicode="&#x175;" horiz-adv-x="917" 
d="M59 540h168l36 -305l164 305h142l53 -308l153 308h179l-281 -540h-162l-52 310l-170 -310h-154zM489 776h103l87 -177h-120l-33 76l-61 -76h-126z" />
    <glyph glyph-name="Ycircumflex" unicode="&#x176;" horiz-adv-x="667" 
d="M247 327l-161 403h178l98 -255l187 255h198l-330 -429l-53 -301h-174zM393 956h103l87 -177h-120l-33 76l-61 -76h-126z" />
    <glyph glyph-name="ycircumflex" unicode="&#x177;" horiz-adv-x="594" 
d="M62 -224q-60 0 -105.5 18t-74.5 45l118 131q11 -17 29 -27.5t44 -10.5q29 0 51.5 12.5t42.5 50.5l17 31l-128 514h174l69 -309l160 309h177l-302 -553q-32 -60 -62.5 -100t-63 -65t-68.5 -35.5t-78 -10.5zM327 768h103l87 -177h-120l-33 76l-61 -76h-126z" />
    <glyph glyph-name="Ydieresis" unicode="&#x178;" horiz-adv-x="667" 
d="M247 327l-161 403h178l98 -255l187 255h198l-330 -429l-53 -301h-174zM298 774q-22 0 -39 8t-28 22.5t-15 33t-1 39.5q7 38 36 60.5t66 22.5q45 0 67.5 -31t13.5 -73q-7 -36 -32.5 -59t-67.5 -23zM519 774q-22 0 -39 8t-27.5 22.5t-15 33t-0.5 39.5q6 38 35 60.5t66 22.5
q45 0 68 -31t14 -73q-8 -36 -33.5 -59t-67.5 -23z" />
    <glyph glyph-name="Zacute" unicode="&#x179;" horiz-adv-x="651" 
d="M5 0l27 156l405 418h-321l27 156h534l-27 -155l-402 -416h336l-28 -159h-551zM486 965h170l-187 -177h-126z" />
    <glyph glyph-name="zacute" unicode="&#x17a;" horiz-adv-x="554" 
d="M11 149l307 245h-259l26 146h481l-27 -148l-305 -245h266l-26 -147h-490zM399 776h170l-187 -177h-126z" />
    <glyph glyph-name="Zdotaccent" unicode="&#x17b;" horiz-adv-x="651" 
d="M5 0l27 156l405 418h-321l27 156h534l-27 -155l-402 -416h336l-28 -159h-551zM419 783q-24 0 -42 8.5t-30 23.5t-16.5 35t-0.5 43q7 41 38 65.5t72 24.5q24 0 42.5 -9t29.5 -24.5t15 -36t0 -42.5q-7 -38 -35 -63t-73 -25z" />
    <glyph glyph-name="zdotaccent" unicode="&#x17c;" horiz-adv-x="554" 
d="M11 149l307 245h-259l26 146h481l-27 -148l-305 -245h266l-26 -147h-490zM332 594q-24 0 -42 8.5t-30 23.5t-16.5 35t-0.5 43q7 41 38 65.5t72 24.5q24 0 42.5 -9t29.5 -24.5t15 -36t0 -42.5q-7 -38 -35 -63t-73 -25z" />
    <glyph glyph-name="Zcaron" unicode="&#x17d;" horiz-adv-x="651" 
d="M5 0l27 156l405 418h-321l27 156h534l-27 -155l-402 -416h336l-28 -159h-551zM279 965h121l34 -76l60 76h125l-150 -177h-103z" />
    <glyph glyph-name="zcaron" unicode="&#x17e;" horiz-adv-x="554" 
d="M11 149l307 245h-259l26 146h481l-27 -148l-305 -245h266l-26 -147h-490zM192 776h121l34 -76l60 76h125l-150 -177h-103z" />
    <glyph glyph-name="florin" unicode="&#x192;" horiz-adv-x="515" 
d="M87 443h133l21 57q25 70 52.5 115t61 70.5t76 35t97.5 9.5h19l-28 -161q-18 0 -34.5 -2t-30 -9.5t-25 -22t-19.5 -39.5l-19 -53h106l-27 -155h-134l-27 -77q-22 -64 -47 -105t-57 -64.5t-74 -32.5t-98 -9h-24l28 161q22 0 38.5 2t29.5 9t22.5 21.5t18.5 39.5l19 55h-105z
" />
    <glyph glyph-name="Aringacute" unicode="&#x1fa;" horiz-adv-x="723" 
d="M348 702q-28 41 -16 94q9 43 45 72.5t85 29.5q30 0 53 -11.5t37.5 -31t19.5 -44t-1 -51.5q-9 -39 -34 -64l133 -696h-168l-20 114h-277l-60 -114h-183zM544 1127h170l-187 -177h-126zM286 266h170l-41 244zM446 730q18 0 32 10.5t18 30.5q5 23 -6 39.5t-34 16.5
q-17 0 -31 -11.5t-18 -30.5q-5 -23 5.5 -39t33.5 -16z" />
    <glyph glyph-name="aringacute" unicode="&#x1fb;" horiz-adv-x="645" 
d="M251 -11q-58 0 -102.5 25t-73 67.5t-39 99t1.5 119.5q9 56 34 102.5t61.5 79.5t82.5 51t97 18q59 0 97 -23t58 -62l13 74h166l-95 -540h-163l12 66q-26 -35 -64 -56t-86 -21zM309 145q24 0 45.5 8.5t38.5 24t28.5 36.5t16.5 45q5 28 -0.5 53.5t-20 44t-37 29.5t-49.5 11
q-25 0 -47.5 -9t-39.5 -24t-28.5 -35.5t-14.5 -44.5q-5 -27 1 -52.5t20.5 -44.5t36.5 -30.5t50 -11.5zM475 1059h170l-187 -177h-126zM357 599q-30 0 -53 11.5t-37 31t-19 44.5t1 52q9 43 45 72.5t85 29.5q30 0 53 -11.5t37.5 -31t19.5 -44t-1 -51.5q-10 -45 -44 -74
t-87 -29zM363 672q18 0 32 10.5t18 30.5q5 23 -6 39.5t-34 16.5q-17 0 -31 -11.5t-18 -30.5q-5 -23 5.5 -39t33.5 -16z" />
    <glyph glyph-name="AEacute" unicode="&#x1fc;" horiz-adv-x="919" 
d="M423 730h531l-29 -162h-315l-5 -120h300l-30 -162h-277l-6 -124h262l-28 -162h-407l4 98h-201l-61 -98h-195zM430 255l8 189l-118 -189h110zM603 965h170l-187 -177h-126z" />
    <glyph glyph-name="aeacute" unicode="&#x1fd;" horiz-adv-x="982" 
d="M204 -11q-53 0 -91 13.5t-62 37.5t-33 57t-2 73q7 43 29 74t55.5 51t77 29.5t94.5 9.5h134q3 16 0 30.5t-12.5 25.5t-26 18t-41.5 7q-36 0 -59.5 -16t-41.5 -45l-164 75q59 63 126.5 92.5t148.5 29.5q121 0 183 -57q40 28 88 42.5t101 14.5q63 0 113.5 -23.5t83.5 -64
t46.5 -94t2.5 -113.5l-7 -39h-403q9 -41 41 -64.5t82 -23.5q33 0 61.5 15.5t48.5 39.5l131 -85q-41 -49 -100.5 -79.5t-147.5 -30.5q-69 0 -122 24t-88 66q-51 -48 -108.5 -69t-137.5 -21zM246 121q42 0 82 18t68 58q-1 5 -1.5 10t-0.5 10h-120q-34 0 -56.5 -13t-26.5 -36
t11 -35t44 -12zM695 413q-45 0 -79 -21.5t-54 -57.5h238q-7 35 -33.5 57t-71.5 22zM591 768h170l-187 -177h-126z" />
    <glyph glyph-name="Oslashacute" unicode="&#x1fe;" horiz-adv-x="829" 
d="M400 -10q-64 0 -118 18.5t-98 51.5l-81 -83l-64 57l85 87q-43 57 -60.5 128.5t-3.5 150.5q12 72 48.5 134.5t90 108t121.5 71.5t143 26q59 0 110 -16.5t93 -46.5l71 73l64 -57l-72 -74q47 -57 67 -131.5t6 -157.5q-12 -72 -47.5 -134.5t-88 -108t-120.5 -71.5t-146 -26z
M414 162q42 0 77.5 14t63.5 39t46 58.5t25 72.5t0 75.5t-25 65.5l-289 -296q43 -29 102 -29zM235 384q-12 -71 19 -130l284 292q-40 23 -91 23q-42 0 -77.5 -14.5t-63 -39t-46 -58.5t-25.5 -73zM540 966h170l-187 -177h-126z" />
    <glyph glyph-name="oslashacute" unicode="&#x1ff;" horiz-adv-x="637" 
d="M297 -11q-91 0 -153 42l-62 -61l-58 53l62 62q-34 45 -46.5 102t-1.5 118q10 51 36 96t65.5 78.5t90.5 52.5t110 19q49 0 89.5 -13t72.5 -36l64 64l59 -54l-67 -67q30 -44 41 -97.5t0 -110.5q-10 -52 -35 -97.5t-64 -79t-90.5 -52.5t-112.5 -19zM201 285
q-4 -20 -1.5 -39.5t10.5 -36.5l174 174q-24 13 -54 15q-23 0 -44 -8t-38.5 -23t-30 -36t-16.5 -46zM308 144q46 0 82.5 30.5t45.5 81.5q6 32 -4 64l-167 -168q21 -8 43 -8zM418 781h170l-187 -177h-126z" />
    <glyph glyph-name="Scommaaccent" unicode="&#x218;" horiz-adv-x="627" 
d="M295 -11q-56 0 -104 12t-87 33t-69.5 48.5t-51.5 59.5l161 117q25 -51 67 -78t101 -27q40 0 67.5 17.5t32.5 44.5q3 20 -7 34t-29.5 24.5t-45.5 19.5t-55 18q-38 12 -76.5 28t-67.5 42t-43 65t-4 98q8 45 33.5 81t63.5 61.5t85.5 39.5t98.5 14q54 0 97 -9t77.5 -26
t62.5 -41.5t52 -55.5l-153 -103q-17 32 -54 57.5t-94 25.5q-43 0 -67 -16t-29 -42q-3 -17 6.5 -28.5t28 -21t43.5 -17.5t53 -17q39 -12 79 -29t70.5 -45.5t45.5 -71t4 -106.5q-8 -42 -31.5 -79.5t-61 -65.5t-88 -44.5t-111.5 -16.5zM163 -259q51 23 75.5 47t29.5 53v6
q-8 -24 -23 -34t-37 -10q-13 0 -24.5 5.5t-20 15t-12 23.5t-0.5 32q7 37 34.5 58t65.5 21q23 0 41.5 -9t30 -25t15.5 -36.5t0 -42.5q-11 -50 -47 -87t-98 -64z" />
    <glyph glyph-name="scommaaccent" unicode="&#x219;" horiz-adv-x="519" 
d="M236 -11q-95 0 -159.5 31.5t-102.5 77.5l138 98q22 -32 59 -52t76 -20q25 0 40.5 10.5t18.5 28.5q1 10 -6 17.5t-20.5 14t-32 12t-38.5 11.5q-32 9 -64.5 21t-57 32t-37 50.5t-4.5 75.5q6 34 25.5 62.5t50 48.5t70 31.5t85.5 11.5q77 0 139.5 -25.5t98.5 -67.5l-125 -90
q-17 23 -48 40t-67 17q-51 0 -56 -34q-2 -16 23 -27t73 -25q31 -8 63 -21t56.5 -34.5t37.5 -53t5 -77.5q-6 -35 -24 -64.5t-48.5 -52t-72.5 -35t-96 -12.5zM117 -259q51 21 75.5 44.5t29.5 51.5v6q-8 -24 -23 -34t-37 -10q-13 0 -24.5 5.5t-20 15t-12 23.5t-0.5 32
q7 37 34.5 58t65.5 21q23 0 41.5 -9t30 -25t15.5 -36.5t0 -42.5q-11 -48 -47 -84t-98 -63z" />
    <glyph glyph-name="dotlessj" unicode="&#x237;" horiz-adv-x="261" 
d="M-112 -94q32 0 51 2t30 11t16.5 26.5t11.5 49.5q0 2 4.5 26.5t11.5 63t15.5 87t17.5 99.5q21 119 48 269h169l-97 -546q-12 -73 -27 -120t-41.5 -74.5t-69 -38t-109.5 -10.5h-60z" />
    <glyph glyph-name="circumflex" unicode="&#x2c6;" 
d="M304 776h103l87 -177h-120l-33 76l-61 -76h-126z" />
    <glyph glyph-name="caron" unicode="&#x2c7;" 
d="M179 775h121l34 -76l60 76h125l-150 -177h-103z" />
    <glyph glyph-name="breve" unicode="&#x2d8;" 
d="M319 593q-84 0 -118.5 50t-20.5 128h107q-8 -39 4.5 -57t39.5 -19q26 1 44 19t26 57h107q-14 -78 -61 -128t-128 -50z" />
    <glyph glyph-name="dotaccent" unicode="&#x2d9;" 
d="M321 593q-24 0 -42 8.5t-30 23.5t-16.5 35t-0.5 43q7 41 38 65.5t72 24.5q24 0 42.5 -9t29.5 -24.5t15 -36t0 -42.5q-7 -38 -35 -63t-73 -25z" />
    <glyph glyph-name="ring" unicode="&#x2da;" 
d="M311 593q-30 0 -53 11.5t-37 31t-19 44.5t1 52q9 43 45 72.5t85 29.5q30 0 53 -11.5t37.5 -31t19.5 -44t-1 -51.5q-10 -45 -44 -74t-87 -29zM317 666q18 0 32 10.5t18 30.5q5 23 -6 39.5t-34 16.5q-17 0 -31 -11.5t-18 -30.5q-5 -23 5.5 -39t33.5 -16z" />
    <glyph glyph-name="ogonek" unicode="&#x2db;" 
d="M185 -238q-39 0 -68.5 10t-47.5 27.5t-25 40t-2 48.5q3 21 13 39.5t31 38t55.5 40t85.5 44.5l106 -50q-48 -27 -79 -45t-50 -30.5t-27 -21t-9 -17.5q-2 -12 6 -17.5t21 -5.5q16 0 28.5 9t23.5 20l95 -63q-30 -28 -70.5 -47.5t-86.5 -19.5z" />
    <glyph glyph-name="tilde" unicode="&#x2dc;" 
d="M140 598q11 69 47 110t88 41q28 0 45 -7.5t31 -15.5q11 -8 20.5 -15t20.5 -7q21 0 25 42h95q-11 -69 -45.5 -110.5t-88.5 -41.5q-29 0 -46.5 8.5t-31.5 17.5q-11 7 -20 12.5t-20 5.5q-22 0 -26 -40h-94v0z" />
    <glyph glyph-name="hungarumlaut" unicode="&#x2dd;" 
d="M235 775h145l-161 -177h-101zM412 775h145l-161 -177h-101z" />
    <glyph glyph-name="uni0328" unicode="&#x328;" 
d="M235 -238q-39 0 -68.5 10t-47.5 27.5t-25 40t-2 48.5q7 42 39.5 79t100.5 83l101 -50q-37 -26 -59 -44t-34 -30.5t-16.5 -21.5t-5.5 -18q-2 -12 6 -17.5t21 -5.5q16 0 28.5 9t23.5 20l95 -63q-30 -28 -70.5 -47.5t-86.5 -19.5z" />
    <glyph glyph-name="pi" unicode="&#x3c0;" horiz-adv-x="755" 
d="M107 730h709l-29 -162h-113l-62 -349q-5 -29 3 -40.5t37 -11.5h46l-30 -167h-66q-53 0 -89 11.5t-56.5 36.5t-25.5 65t6 98l63 357h-133l-100 -568h-174l100 568h-114z" />
    <glyph glyph-name="pi" unicode="&#x3d6;" horiz-adv-x="755" 
d="M107 730h709l-29 -162h-113l-62 -349q-5 -29 3 -40.5t37 -11.5h46l-30 -167h-66q-53 0 -89 11.5t-56.5 36.5t-25.5 65t6 98l63 357h-133l-100 -568h-174l100 568h-114z" />
    <glyph glyph-name="uni0E3F" unicode="&#xe3f;" horiz-adv-x="620" 
d="M124 660h210l12 70h90l-13 -70q106 -2 152 -50t31 -132q-7 -40 -25.5 -67.5t-45.5 -46.5q26 -20 36 -51t2 -76q-15 -88 -80 -129.5t-175 -43.5l-11 -64h-89l11 64h-211zM210 209h44l15 84h-44zM250 436h44l14 79h-44zM401 250q2 19 -7 29.5t-36 12.5l-14 -83
q28 2 40.5 12.5t16.5 28.5zM440 474q6 38 -43 41l-14 -79q26 1 40 11t17 27z" />
    <glyph glyph-name="Wgrave" unicode="&#x1e80;" horiz-adv-x="1035" 
d="M593 0l-46 459l-223 -459h-173l-55 730h179l24 -446l219 446h153l48 -455l201 455h184l-337 -730h-174zM424 965h162l80 -177h-119z" />
    <glyph glyph-name="wgrave" unicode="&#x1e81;" horiz-adv-x="917" 
d="M59 540h168l36 -305l164 305h142l53 -308l153 308h179l-281 -540h-162l-52 310l-170 -310h-154zM323 775h162l80 -177h-119z" />
    <glyph glyph-name="Wacute" unicode="&#x1e82;" horiz-adv-x="1035" 
d="M593 0l-46 459l-223 -459h-173l-55 730h179l24 -446l219 446h153l48 -455l201 455h184l-337 -730h-174zM677 965h170l-187 -177h-126z" />
    <glyph glyph-name="wacute" unicode="&#x1e83;" horiz-adv-x="917" 
d="M59 540h168l36 -305l164 305h142l53 -308l153 308h179l-281 -540h-162l-52 310l-170 -310h-154zM576 775h170l-187 -177h-126z" />
    <glyph glyph-name="Wdieresis" unicode="&#x1e84;" horiz-adv-x="1035" 
d="M593 0l-46 459l-223 -459h-173l-55 730h179l24 -446l219 446h153l48 -455l201 455h184l-337 -730h-174zM495 784q-22 0 -39 8t-28 22.5t-15 33t-1 39.5q7 38 36 60.5t66 22.5q45 0 67.5 -31t13.5 -73q-7 -36 -32.5 -59t-67.5 -23zM716 784q-22 0 -39 8t-27.5 22.5t-15 33
t-0.5 39.5q6 38 35 60.5t66 22.5q45 0 68 -31t14 -73q-8 -36 -33.5 -59t-67.5 -23z" />
    <glyph glyph-name="wdieresis" unicode="&#x1e85;" horiz-adv-x="917" 
d="M59 540h168l36 -305l164 305h142l53 -308l153 308h179l-281 -540h-162l-52 310l-170 -310h-154zM394 594q-22 0 -39 8t-28 22.5t-15 33t-1 39.5q7 38 36 60.5t66 22.5q45 0 67.5 -31t13.5 -73q-7 -36 -32.5 -59t-67.5 -23zM615 594q-22 0 -39 8t-27.5 22.5t-15 33
t-0.5 39.5q6 38 35 60.5t66 22.5q45 0 68 -31t14 -73q-8 -36 -33.5 -59t-67.5 -23z" />
    <glyph glyph-name="Ygrave" unicode="&#x1ef2;" horiz-adv-x="667" 
d="M247 327l-161 403h178l98 -255l187 255h198l-330 -429l-53 -301h-174zM227 955h162l80 -177h-119z" />
    <glyph glyph-name="ygrave" unicode="&#x1ef3;" horiz-adv-x="594" 
d="M62 -224q-60 0 -105.5 18t-74.5 45l118 131q11 -17 29 -27.5t44 -10.5q29 0 51.5 12.5t42.5 50.5l17 31l-128 514h174l69 -309l160 309h177l-302 -553q-32 -60 -62.5 -100t-63 -65t-68.5 -35.5t-78 -10.5zM161 767h162l80 -177h-119z" />
    <glyph glyph-name="figuredash" unicode="&#x2012;" horiz-adv-x="649" 
d="M65 326h545l-25 -143h-545z" />
    <glyph glyph-name="endash" unicode="&#x2013;" horiz-adv-x="498" 
d="M65 326h395l-25 -143h-395z" />
    <glyph glyph-name="emdash" unicode="&#x2014;" horiz-adv-x="699" 
d="M65 326h595l-25 -143h-595z" />
    <glyph glyph-name="uni2015" unicode="&#x2015;" horiz-adv-x="1044" 
d="M65 326h940l-25 -143h-940z" />
    <glyph glyph-name="doublebar" unicode="&#x2016;" horiz-adv-x="491" 
d="M135 730h175l-169 -961h-174zM350 730h174l-169 -961h-173z" />
    <glyph glyph-name="quoteleft" unicode="&#x2018;" horiz-adv-x="288" 
d="M176 398q-26 0 -46 10.5t-32.5 28t-17 41t0.5 49.5q6 34 21.5 63.5t37.5 55t50.5 48.5t61.5 46l43 -49q-59 -41 -90.5 -77.5t-39.5 -75.5q19 43 61 43q15 0 28.5 -6t23 -17.5t14 -28t0.5 -37.5q-8 -45 -39.5 -69.5t-76.5 -24.5z" />
    <glyph glyph-name="quoteright" unicode="&#x2019;" horiz-adv-x="288" 
d="M99 447q58 41 90 77.5t40 75.5q-19 -43 -61 -43q-15 0 -28.5 6t-23 17.5t-14 28t-0.5 37.5q8 45 39.5 69.5t76.5 24.5q26 0 45.5 -10t32 -27.5t17 -41t0.5 -50.5q-6 -34 -21 -63t-37.5 -54.5t-51 -49t-61.5 -46.5z" />
    <glyph glyph-name="quotesinglbase" unicode="&#x201a;" horiz-adv-x="290" 
d="M1 -107q58 41 90 77.5t40 75.5q-19 -43 -61 -43q-15 0 -28.5 6t-23 17.5t-14 28t-0.5 37.5q8 45 39.5 69.5t76.5 24.5q26 0 46 -10.5t32.5 -28t17 -41t-0.5 -49.5q-7 -34 -22.5 -63t-37.5 -54.5t-50 -49t-61 -46.5z" />
    <glyph glyph-name="reversequoteleft" unicode="&#x201b;" horiz-adv-x="288" 
d="M210 392q-26 23 -47.5 49.5t-35.5 56.5t-20 62t0 66q9 51 43.5 83.5t85.5 32.5q25 0 43 -9.5t28.5 -24.5t14 -34.5t-0.5 -39.5q-7 -38 -30.5 -56.5t-58.5 -18.5q-39 0 -50 34q-6 -77 78 -155l-50 -46v0z" />
    <glyph glyph-name="quotedblleft" unicode="&#x201c;" horiz-adv-x="542" 
d="M180 398q-27 0 -47 10t-32.5 27.5t-17.5 41t0 50.5q6 34 21 63t37.5 54.5t51 49t61.5 46.5l43 -49q-60 -42 -92 -79.5t-39 -78.5q19 39 60 39q15 0 28.5 -5t23.5 -15.5t14.5 -26t0.5 -36.5q-8 -45 -38 -68t-75 -23zM434 398q-27 0 -47 10t-32.5 27.5t-17.5 41t0 50.5
q6 34 21 63t37.5 54.5t51 49t61.5 46.5l43 -49q-60 -42 -92 -79.5t-39 -78.5q19 39 60 39q15 0 28.5 -5t23.5 -15.5t14.5 -26t0.5 -36.5q-8 -45 -38 -68t-75 -23z" />
    <glyph glyph-name="quotedblright" unicode="&#x201d;" horiz-adv-x="542" 
d="M99 447q60 42 92 79.5t39 78.5v2q-19 -41 -60 -41q-15 0 -29 5t-23.5 15.5t-14 26t-0.5 36.5q8 45 38 68t75 23q27 0 47 -10t32.5 -27.5t17 -41t0.5 -50.5q-6 -34 -21 -63t-37.5 -54.5t-51 -49t-61.5 -46.5zM353 447q60 42 92 79.5t39 78.5v2q-19 -41 -60 -41
q-15 0 -29 5t-23.5 15.5t-14 26t-0.5 36.5q8 45 38 68t75 23q27 0 47 -10t32.5 -27.5t17 -41t0.5 -50.5q-6 -34 -21 -63t-37.5 -54.5t-51 -49t-61.5 -46.5z" />
    <glyph glyph-name="quotedblbase" unicode="&#x201e;" horiz-adv-x="542" 
d="M0 -107q60 42 92 79.5t39 78.5v2q-19 -41 -60 -41q-15 0 -29 5t-23.5 15.5t-14 26t-0.5 36.5q8 45 38 68t75 23q27 0 47 -10t32.5 -27.5t17 -41t0.5 -50.5q-6 -34 -21 -63t-37.5 -54.5t-51 -49t-61.5 -46.5zM254 -107q60 42 92 79.5t39 78.5v2q-19 -41 -60 -41
q-15 0 -29 5t-23.5 15.5t-14 26t-0.5 36.5q8 45 38 68t75 23q27 0 47 -10t32.5 -27.5t17 -41t0.5 -50.5q-6 -34 -21 -63t-37.5 -54.5t-51 -49t-61.5 -46.5z" />
    <glyph glyph-name="reversequotedblleft" unicode="&#x201f;" horiz-adv-x="542" 
d="M205 392q-26 23 -47.5 49.5t-35.5 56.5t-20 62t0 66q9 51 43.5 83.5t85.5 32.5q25 0 43 -9.5t28.5 -24.5t14 -34.5t-0.5 -39.5q-7 -38 -30.5 -56.5t-58.5 -18.5q-39 0 -50 34q-6 -77 78 -155zM459 392q-26 23 -47.5 49.5t-35.5 56.5t-20 62t0 66q9 51 43.5 83.5
t85.5 32.5q25 0 43 -9.5t28.5 -24.5t14 -34.5t-0.5 -39.5q-7 -38 -30.5 -56.5t-58.5 -18.5q-39 0 -50 34q-3 -38 16.5 -77.5t61.5 -77.5z" />
    <glyph glyph-name="dagger" unicode="&#x2020;" horiz-adv-x="558" 
d="M96 500h139l41 230h175l-41 -230h141l-29 -161h-140l-59 -339h-175l59 339h-139z" />
    <glyph glyph-name="daggerdbl" unicode="&#x2021;" horiz-adv-x="564" 
d="M111 585h139l26 145h175l-26 -145h141l-29 -161h-140l-19 -108h140l-28 -161h-140l-27 -155h-175l27 155h-140l28 161h140l19 108h-139z" />
    <glyph glyph-name="bullet" unicode="&#x2022;" horiz-adv-x="497" 
d="M247 120q-27 0 -51.5 10.5t-42.5 28.5t-28.5 42.5t-10.5 51.5t10.5 51.5t28.5 42.5t42.5 28.5t51.5 10.5t51.5 -10.5t42.5 -28.5t28.5 -42.5t10.5 -51.5t-10.5 -51.5t-28.5 -42.5t-42.5 -28.5t-51.5 -10.5z" />
    <glyph glyph-name="ellipsis" unicode="&#x2026;" horiz-adv-x="724" 
d="M101 -11q-23 0 -41 8.5t-30 23.5t-16.5 35t-0.5 42q7 40 38 64t70 24q24 0 42 -9t29.5 -24t15.5 -35t-1 -42q-8 -38 -34.5 -62.5t-71.5 -24.5zM325 -11q-23 0 -41 8.5t-29.5 23.5t-16 35t-0.5 42q7 40 37.5 64t69.5 24q24 0 42 -9t29.5 -24t15.5 -35t-1 -42
q-8 -38 -34.5 -62.5t-71.5 -24.5zM548 -11q-23 0 -41 8.5t-29.5 23.5t-16 35t-0.5 42q7 40 37.5 64t70.5 24q24 0 42 -9t29 -24t15 -35t0 -42q-8 -38 -35 -62.5t-72 -24.5z" />
    <glyph glyph-name="perthousand" unicode="&#x2030;" horiz-adv-x="1327" 
d="M757 730h215l-755 -730h-215zM269 371q-45 0 -79.5 17.5t-56 46t-30 65.5t-1.5 76q6 33 23.5 63t44 52.5t60.5 35.5t73 13q44 0 78.5 -17t56.5 -45t31 -64.5t2 -75.5q-6 -34 -22.5 -64.5t-43 -53t-61 -36t-75.5 -13.5zM294 523q14 5 21 18t4 25q-2 14 -14 21.5t-26 2.5
t-21 -18t-4 -25q2 -14 13 -21.5t27 -2.5zM670 -11q-45 0 -79.5 17.5t-56 46t-30 65.5t-1.5 76q6 33 23.5 63t44 52.5t60.5 35.5t73 13q44 0 78.5 -17t56.5 -45t31 -64.5t2 -75.5q-6 -34 -23 -64.5t-43 -53t-60.5 -36t-75.5 -13.5zM695 141q14 5 21 18t4 25q-2 14 -14 21.5
t-26 2.5t-21 -18t-4 -25q2 -14 13 -21.5t27 -2.5zM1065 -11q-45 0 -79 17.5t-56 46t-30.5 65.5t-1.5 76q6 33 23.5 63t44.5 52.5t61 35.5t73 13q44 0 78 -17t56.5 -45t31.5 -64.5t2 -75.5q-6 -34 -23 -64.5t-43.5 -53t-61 -36t-75.5 -13.5zM1090 141q14 5 21.5 18t3.5 25
q-2 14 -13.5 21.5t-26.5 2.5q-14 -5 -20.5 -18t-3.5 -25q2 -14 13 -21.5t26 -2.5z" />
    <glyph glyph-name="minute" unicode="&#x2032;" horiz-adv-x="288" 
d="M86 507l82 223h164l-121 -223h-125z" />
    <glyph glyph-name="second" unicode="&#x2033;" horiz-adv-x="479" 
d="M278 507l82 223h163l-120 -223h-125zM86 507l82 223h164l-121 -223h-125z" />
    <glyph glyph-name="tripleprime" unicode="&#x2034;" horiz-adv-x="552" 
d="M129 500q-3 9 -7 28.5t-7 41.5t-4 43t1 33l15 84h129l-15 -84q-2 -12 -10.5 -33.5t-19 -43.5t-21 -41.5t-16.5 -27.5h-45zM289 500q-3 9 -7 28.5t-7 41.5t-4.5 43t0.5 33l15 84h130l-15 -84q-2 -12 -10.5 -33.5t-19 -43.5t-21 -41.5t-16.5 -27.5h-45zM448 500
q-3 9 -7 28.5t-7 41.5t-4 43t1 33l15 84h129l-15 -84q-2 -12 -10.5 -33.5t-19 -43.5t-21 -41.5t-16.5 -27.5h-45z" />
    <glyph glyph-name="guilsinglleft" unicode="&#x2039;" horiz-adv-x="297" 
d="M52 202l18 103l197 119l-21 -127l-84 -47l67 -46l-21 -121z" />
    <glyph glyph-name="guilsinglright" unicode="&#x203a;" horiz-adv-x="297" 
d="M246 304l-18 -103l-197 -119l22 127l83 46l-67 47l21 121z" />
    <glyph glyph-name="interrobang" unicode="&#x203d;" horiz-adv-x="588" 
d="M227 219q0 2 1 9.5t1 9.5q4 37 12.5 86.5t18 100.5t19.5 98.5t16 81.5q-44 -15 -66 -69l-133 70q82 134 251 134q61 0 108 -19t78 -50.5t44 -72t5 -84.5q-8 -46 -27 -72.5t-43 -44t-51 -29.5t-51 -28.5t-42.5 -41.5t-25.5 -67l-2 -12h-113zM254 -11q-23 0 -41 8.5
t-29.5 23.5t-16 35t-0.5 42q7 40 37.5 64t70.5 24q24 0 42 -9t29 -24t15 -35t0 -42q-8 -38 -35 -62.5t-72 -24.5zM438 533q3 18 -5 34t-25 27q-6 -33 -14 -67.5t-17 -68.5q23 14 39.5 30t21.5 45z" />
    <glyph glyph-name="fraction" unicode="&#x2044;" horiz-adv-x="776" 
d="M634 730h197l-646 -730h-198z" />
    <glyph glyph-name="uni2070" unicode="&#x2070;" horiz-adv-x="478" 
d="M257 302q-43 0 -77 13t-56 38.5t-30.5 64t0.5 88.5l10 59q15 87 68.5 129t127.5 42q45 0 79 -15t55.5 -42t29.5 -64t0 -81l-12 -67q-14 -78 -62.5 -121.5t-132.5 -43.5zM264 418q28 0 43 16t21 48l11 58q8 44 -4 64.5t-41 20.5q-27 0 -43 -16.5t-24 -59.5l-9 -51
q-7 -40 6 -60t40 -20z" />
    <glyph glyph-name="uni2074" unicode="&#x2074;" horiz-adv-x="429" 
d="M236 386h-180l19 109l203 235h137l-43 -241h63l-19 -103h-62l-13 -78h-118zM254 489l16 89l-72 -89h56z" />
    <glyph glyph-name="uni2075" unicode="&#x2075;" horiz-adv-x="406" 
d="M218 302q-52 0 -93.5 21.5t-63.5 59.5l124 62q3 -11 13.5 -19t27.5 -8q18 0 29 9.5t13 22.5q3 17 -7.5 27t-28.5 10q-14 0 -25.5 -8t-16.5 -16l-103 46l68 221h259l-20 -114h-162l-17 -53q24 23 60 23q29 0 52.5 -10t39 -29.5t21.5 -47t0 -61.5q-14 -72 -59 -104
t-111 -32z" />
    <glyph glyph-name="uni2076" unicode="&#x2076;" horiz-adv-x="417" 
d="M232 302q-39 0 -67.5 13.5t-48.5 36.5q-12 14 -20.5 30.5t-12.5 38t-3.5 50t7.5 66.5q9 51 29 88t48.5 62t64 37t75.5 12q48 0 78.5 -8.5t57.5 -26.5l-71 -96q-9 9 -27.5 15.5t-44.5 6.5q-36 0 -61.5 -17t-39.5 -58q14 20 38 32t60 12q28 0 51 -12t39 -32.5t22.5 -48
t0.5 -59.5q-6 -30 -18.5 -56t-34 -45t-52 -30t-70.5 -11zM242 409q17 0 30.5 9.5t17.5 33.5q3 20 -7.5 34.5t-32.5 14.5q-17 0 -30.5 -11.5t-17.5 -28.5q-4 -21 7 -36.5t33 -15.5z" />
    <glyph glyph-name="uni2077" unicode="&#x2077;" horiz-adv-x="364" 
d="M255 614h-168l20 116h302l-18 -106l-183 -316h-138z" />
    <glyph glyph-name="uni2078" unicode="&#x2078;" horiz-adv-x="399" 
d="M219 302q-39 0 -70.5 10.5t-52.5 30t-30 46.5t-3 61q5 29 23.5 52.5t46.5 38.5q-17 17 -24.5 39.5t-2.5 48.5q8 46 49 76.5t109 30.5q36 0 65 -11.5t47.5 -30.5t26.5 -44.5t3 -53.5t-19 -45.5t-34 -28.5q22 -19 32.5 -44.5t5.5 -54.5q-10 -58 -53.5 -89.5t-118.5 -31.5z
M226 412q44 0 49 31q3 17 -8.5 28.5t-35.5 11.5q-20 0 -33 -9t-15 -23q-3 -16 8.5 -27.5t34.5 -11.5zM252 571q22 0 33.5 8.5t13.5 22.5t-7.5 24.5t-32.5 10.5q-20 0 -31 -8t-14 -21q-3 -16 7.5 -26.5t30.5 -10.5z" />
    <glyph glyph-name="uni2079" unicode="&#x2079;" horiz-adv-x="439" 
d="M212 302q-45 0 -74.5 7.5t-53.5 23.5l72 98q17 -20 63 -20q38 0 64.5 19.5t40.5 67.5q-11 -21 -33.5 -34.5t-65.5 -13.5q-28 0 -52 12.5t-40.5 33.5t-23.5 48t-2 56q11 60 54.5 98t115.5 38q75 0 116 -46q24 -26 37.5 -72.5t0.5 -112.5q-9 -51 -28.5 -89t-48 -63.5
t-65 -38t-77.5 -12.5zM267 546q17 0 28.5 10t15.5 26q4 20 -6 33.5t-30 13.5q-16 0 -29 -8.5t-16 -29.5q-3 -18 7 -31.5t30 -13.5z" />
    <glyph glyph-name="uni207A" unicode="&#x207a;" horiz-adv-x="314" 
d="M104 569h56l10 56h102l-10 -56h56l-17 -101h-57l-10 -56h-101l9 56h-56z" />
    <glyph glyph-name="uni207B" unicode="&#x207b;" horiz-adv-x="314" 
d="M104 569h214l-17 -101h-215z" />
    <glyph glyph-name="uni207C" unicode="&#x207c;" horiz-adv-x="316" 
d="M113 621h215l-18 -101h-214zM93 504h215l-18 -101h-216z" />
    <glyph glyph-name="uni207D" unicode="&#x207d;" horiz-adv-x="341" 
d="M212 210q-75 69 -104.5 151t-10.5 185q9 51 28.5 94t47.5 79t63 65.5t73 53.5l76 -93q-68 -38 -108.5 -94t-51.5 -121q-12 -64 4 -121t76 -113z" />
    <glyph glyph-name="uni207E" unicode="&#x207e;" horiz-adv-x="341" 
d="M224 837q75 -69 104 -150.5t11 -184.5q-9 -51 -28.5 -94t-47.5 -79t-63 -66t-73 -54l-76 94q68 38 108.5 94t51.5 121q12 64 -4 121t-76 113z" />
    <glyph glyph-name="uni2080" unicode="&#x2080;" horiz-adv-x="478" 
d="M204 -6q-43 0 -77 13t-56 38.5t-30.5 64t0.5 88.5l10 59q15 87 68.5 129t127.5 42q45 0 79 -15t55.5 -42t29.5 -64t0 -81l-12 -67q-14 -78 -62.5 -121.5t-132.5 -43.5zM211 110q28 0 43 16t21 48l11 58q8 44 -4 64.5t-41 20.5q-27 0 -43 -16.5t-24 -59.5l-9 -51
q-7 -40 6 -60t40 -20z" />
    <glyph glyph-name="uni2081" unicode="&#x2081;" horiz-adv-x="327" 
d="M81 1l44 249q-17 -27 -39.5 -34.5t-51.5 -7.5h-7l23 128h3q50 0 76 18t35 69h116l-74 -422h-125z" />
    <glyph glyph-name="uni2082" unicode="&#x2082;" horiz-adv-x="401" 
d="M10 92q5 30 20 53t35.5 41t44 31t44.5 24q30 15 52.5 26t25.5 26q5 27 -33 27q-23 0 -39.5 -16t-25.5 -40l-108 53q27 54 74.5 82.5t103.5 28.5q81 0 122 -42t30 -110q-4 -24 -17.5 -41.5t-32 -31t-39.5 -24.5t-40 -20q-23 -11 -43 -21t-31 -21h174l-20 -117h-313z" />
    <glyph glyph-name="uni2083" unicode="&#x2083;" horiz-adv-x="402" 
d="M149 -6q-54 0 -97 17t-74 48l111 78q14 -15 30 -20.5t39 -5.5q37 0 42 24q2 11 -7 18t-30 7h-53l19 109h56q32 0 38 24q3 11 -7 18.5t-28 7.5q-26 0 -46 -10.5t-28 -22.5l-84 85q26 23 70.5 40t91.5 17q42 0 73.5 -11t51.5 -30t28.5 -45.5t3.5 -56.5q-9 -51 -54 -76
q21 -17 30.5 -42t3.5 -58q-5 -28 -20 -49.5t-39 -36t-55 -22t-66 -7.5z" />
    <glyph glyph-name="uni2084" unicode="&#x2084;" horiz-adv-x="429" 
d="M183 78h-180l19 109l203 235h137l-43 -241h63l-19 -103h-62l-13 -78h-118zM201 181l16 89l-72 -89h56z" />
    <glyph glyph-name="uni2085" unicode="&#x2085;" horiz-adv-x="406" 
d="M165 -6q-52 0 -93.5 21.5t-63.5 59.5l124 62q3 -11 13.5 -19t27.5 -8q18 0 29 9.5t13 22.5q3 17 -7.5 27t-28.5 10q-14 0 -25.5 -8t-16.5 -16l-103 46l68 221h259l-20 -114h-162l-17 -53q24 23 60 23q29 0 52.5 -10t39 -29.5t21.5 -47t0 -61.5q-14 -72 -59 -104t-111 -32
z" />
    <glyph glyph-name="uni2086" unicode="&#x2086;" horiz-adv-x="417" 
d="M179 -6q-39 0 -67.5 13.5t-48.5 36.5q-12 14 -20.5 30.5t-12.5 38t-3.5 50t7.5 66.5q9 51 29 88t48.5 62t64 37t75.5 12q48 0 78.5 -8.5t57.5 -26.5l-71 -96q-9 9 -27.5 15.5t-44.5 6.5q-36 0 -61.5 -17t-39.5 -58q14 20 38 32t60 12q28 0 51 -12t39 -32.5t22.5 -48
t0.5 -59.5q-6 -30 -18.5 -56t-34 -45t-52 -30t-70.5 -11zM189 101q17 0 30.5 9.5t17.5 33.5q3 20 -7.5 34.5t-32.5 14.5q-17 0 -30.5 -11.5t-17.5 -28.5q-4 -21 7 -36.5t33 -15.5z" />
    <glyph glyph-name="uni2087" unicode="&#x2087;" horiz-adv-x="364" 
d="M202 306h-168l20 116h302l-18 -106l-183 -316h-138z" />
    <glyph glyph-name="uni2088" unicode="&#x2088;" horiz-adv-x="399" 
d="M166 -6q-39 0 -70.5 10.5t-52.5 30t-30 46.5t-3 61q5 29 23.5 52.5t46.5 38.5q-17 17 -24.5 39.5t-2.5 48.5q8 46 49 76.5t109 30.5q36 0 65 -11.5t47.5 -30.5t26.5 -44.5t3 -53.5t-19 -45.5t-34 -28.5q22 -19 32.5 -44.5t5.5 -54.5q-10 -58 -53.5 -89.5t-118.5 -31.5z
M173 104q44 0 49 31q3 17 -8.5 28.5t-35.5 11.5q-20 0 -33 -9t-15 -23q-3 -16 8.5 -27.5t34.5 -11.5zM199 263q22 0 33.5 8.5t13.5 22.5t-7.5 24.5t-32.5 10.5q-20 0 -31 -8t-14 -21q-3 -16 7.5 -26.5t30.5 -10.5z" />
    <glyph glyph-name="uni2089" unicode="&#x2089;" horiz-adv-x="439" 
d="M159 -6q-45 0 -74.5 7.5t-53.5 23.5l72 98q17 -20 63 -20q38 0 64.5 19.5t40.5 67.5q-11 -21 -33.5 -34.5t-65.5 -13.5q-28 0 -52 12.5t-40.5 33.5t-23.5 48t-2 56q11 60 54.5 98t115.5 38q75 0 116 -46q24 -26 37.5 -72.5t0.5 -112.5q-9 -51 -28.5 -89t-48 -63.5
t-65 -38t-77.5 -12.5zM214 238q17 0 28.5 10t15.5 26q4 20 -6 33.5t-30 13.5q-16 0 -29 -8.5t-16 -29.5q-3 -18 7 -31.5t30 -13.5z" />
    <glyph glyph-name="uni208A" unicode="&#x208a;" horiz-adv-x="314" 
d="M51 261h56l10 56h102l-10 -56h56l-17 -101h-57l-10 -56h-101l9 56h-56z" />
    <glyph glyph-name="uni208B" unicode="&#x208b;" horiz-adv-x="314" 
d="M51 261h214l-17 -101h-215z" />
    <glyph glyph-name="uni208C" unicode="&#x208c;" horiz-adv-x="316" 
d="M60 313h215l-18 -101h-214zM40 196h215l-18 -101h-216z" />
    <glyph glyph-name="uni208D" unicode="&#x208d;" horiz-adv-x="341" 
d="M159 -98q-75 69 -104.5 151t-10.5 185q9 51 28.5 94t47.5 79t63 65.5t73 53.5l76 -93q-68 -38 -108.5 -94t-51.5 -121q-12 -64 4 -121t76 -113z" />
    <glyph glyph-name="uni208E" unicode="&#x208e;" horiz-adv-x="341" 
d="M171 529q75 -69 104 -150.5t11 -184.5q-9 -51 -28.5 -94t-47.5 -79t-63 -66t-73 -54l-76 94q68 38 108.5 94t51.5 121q12 64 -4 121t-76 113z" />
    <glyph glyph-name="uni20A1" unicode="&#x20a1;" horiz-adv-x="795" 
d="M170 77q-64 58 -90.5 144t-9.5 184q12 72 48 133t90 106t122 70.5t145 25.5q25 0 49 -3l56 103h81l-65 -119q18 -7 31 -13l71 132h81l-90 -167q74 -54 111 -139l-170 -82q-6 15 -13.5 29t-17.5 26l-186 -345h12q52 0 94.5 27.5t73.5 77.5l155 -97q-27 -40 -60 -73
t-74 -56.5t-90.5 -37t-109.5 -13.5q-49 0 -89 9l-64 -119h-80l75 140l-29 15l-84 -155h-79zM246 385q-7 -36 -1.5 -69.5t20.5 -62.5l168 314q-36 -4 -67 -19t-55.5 -39t-41.5 -55.5t-23 -68.5zM314 196q7 -5 13.5 -9t14.5 -8l201 373l-16 6t-16 5z" />
    <glyph glyph-name="uni20A2" unicode="&#x20a2;" horiz-adv-x="764" 
d="M414 -10q-93 -1 -163.5 33t-115.5 91.5t-62 132.5t-3 158q12 72 47.5 133t89 106t121.5 70.5t145 25.5q101 0 175.5 -44.5t119.5 -113.5l-152 -99q-22 42 -60 67t-96 25q-42 0 -78.5 -14t-65.5 -39.5t-48.5 -60t-26.5 -76.5q-11 -64 10 -118.5t69 -84.5l17 84
q9 39 -26 39h-18l26 147h60q46 0 70 -19t30 -54q25 38 59 55.5t75 17.5h52l-28 -163h-45q-29 0 -47.5 -4.5t-31 -16.5t-20.5 -31.5t-14 -49.5l-6 -27q32 9 58.5 29.5t50.5 51.5l130 -116q-28 -31 -59 -55.5t-67 -42t-78.5 -27.5t-93.5 -10z" />
    <glyph glyph-name="franc" unicode="&#x20a3;" horiz-adv-x="517" 
d="M136 730h415l-28 -162h-241l-15 -86h241l-26 -145h-241l-7 -39h241l-26 -145h-240l-27 -153h-175z" />
    <glyph glyph-name="lira" unicode="&#x20a4;" horiz-adv-x="730" 
d="M129 500h81q1 11 2 22.5t3 23.5q7 44 29 80t55 61.5t74 39t88 13.5q90 0 143 -36t76 -91l-162 -70q-5 20 -21.5 35t-43.5 15q-26 0 -44.5 -15.5t-23.5 -41.5q-2 -9 -3 -18t-1 -18h199l-18 -99h-172q2 -8 3 -15.5t2 -15.5h162l-17 -99h-136q0 -17 -1 -34.5t-4 -35.5
q-4 -28 -17 -58q14 -7 27 -11t27 -4q29 0 42 13t18 42l11 61h177l-15 -86q-14 -75 -62 -121.5t-137 -46.5q-50 0 -89 15.5t-71 36.5q-28 -24 -62 -38.5t-75 -14.5t-69.5 10.5t-46 29t-23.5 44t-1 54.5q9 47 46.5 75.5t91.5 27.5q28 0 52.5 -6.5t46.5 -16.5q1 28 -8 64h-173
l17 99h126q-2 8 -4.5 15.5t-4.5 15.5h-112zM177 91q25 0 46 17q-13 9 -24.5 14.5t-22.5 5.5q-20 0 -24 -15q-1 -9 4 -15.5t21 -6.5z" />
    <glyph glyph-name="uni20A6" unicode="&#x20a6;" horiz-adv-x="846" 
d="M89 495h74l42 235h164l100 -235h123l42 235h175l-41 -235h74l-16 -87h-74l-11 -65h74l-16 -87h-73l-45 -256h-153l-109 256h-124l-45 -256h-175l45 256h-74l16 87h74l11 65h-74zM310 343h72l-28 65h-32zM533 343h32l12 65h-71z" />
    <glyph glyph-name="peseta" unicode="&#x20a7;" horiz-adv-x="1403" 
d="M1123 149q21 0 30.5 5.5t10.5 16.5q2 14 -22 20t-58 14q-28 6 -58 15.5t-53.5 27.5t-36 46.5t-4.5 72.5q6 31 25 57.5t48 45.5t66.5 29.5t81.5 10.5q72 0 131.5 -23t94.5 -61l-124 -92q-14 20 -42.5 35.5t-59.5 15.5q-41 0 -45 -24q-2 -14 24.5 -21.5t64.5 -17.5
q28 -8 57.5 -19t51.5 -29.5t33.5 -47.5t3.5 -71q-6 -34 -22 -62.5t-43 -49t-67 -32t-94 -11.5h-304q-65 0 -105.5 12t-61 39t-23 71t8.5 108l21 120h-68q-35 -73 -104.5 -115.5t-170.5 -42.5h-94l-34 -192h-175l129 730h243q44 0 86.5 -16t75.5 -46t54 -72.5t23 -95.5h61
l20 116l186 92q-5 -31 -11 -64q-5 -29 -12 -66t-14 -78h83l-27 -150h-83q-9 -54 -15.5 -90t-6.5 -38q-5 -24 -5 -38.5t6.5 -22t22.5 -10t44 -2.5h256zM283 571l-39 -218h75q54 0 85.5 31t39.5 77q8 48 -18.5 79t-74.5 31h-68z" />
    <glyph glyph-name="uni20A8" unicode="&#x20a8;" horiz-adv-x="1086" 
d="M136 730h230q67 0 119.5 -21t86 -57.5t47 -86.5t3.5 -108q-5 -28 -16.5 -55.5t-30.5 -51.5t-45.5 -44.5t-62.5 -33.5q45 -69 120.5 -104t177.5 -35q45 0 64 7t22 22q2 14 -21 20t-56 14q-28 7 -58 17.5t-54 29.5t-37 48t-5 73q5 32 24 58.5t48 46t66.5 30.5t81.5 11
q72 0 131.5 -23t94.5 -61l-124 -92q-14 20 -42.5 35.5t-59.5 15.5q-20 0 -31 -7.5t-13 -19.5q-3 -15 23 -22.5t63 -17.5q28 -8 57.5 -19.5t52 -31t33.5 -49.5t2 -75q-6 -36 -24 -65.5t-51 -51t-82.5 -33.5t-119.5 -12q-112 0 -198.5 31t-149 83t-101.5 120t-56 142l-63 -357
h-175zM283 574l-32 -182h54q35 0 59.5 7t41 19t25.5 28.5t13 36.5q8 41 -18 66t-88 25h-55z" />
    <glyph glyph-name="uni20A9" unicode="&#x20a9;" horiz-adv-x="1118" 
d="M90 495h73l-24 235h179l20 -235h119l108 235h157l25 -235h119l102 235h184l-106 -235h68l-16 -87h-92l-29 -65h110l-16 -87h-134l-115 -256h-172l-26 256h-119l-117 -256h-173l-27 256h-140l15 87h116l-7 65h-97zM763 343h37l28 65h-72zM351 343h36l30 65h-72zM544 343
h71l-6 65h-35z" />
    <glyph glyph-name="uni20AA" unicode="&#x20aa;" horiz-adv-x="886" 
d="M307 538q50 0 80.5 -7t46.5 -23t18.5 -42.5t-3.5 -66.5l-42 -241h43q59 0 99 11.5t66.5 34t40.5 55.5t22 76l71 395h166l-71 -399q-15 -84 -42 -146.5t-76 -103.5t-123.5 -61t-184.5 -20h-206zM136 730h202q87 0 152 -19.5t105.5 -60t55 -103t-0.5 -149.5l-12 -64
q-6 -34 -17.5 -60t-32.5 -44t-54 -27t-82 -9l37 204q7 46 3 79.5t-23.5 54.5t-56.5 31t-96 10h-44l-100 -573h-165z" />
    <glyph glyph-name="Euro" unicode="&#x20ac;" horiz-adv-x="883" 
d="M105 522h68q26 49 64 89t85.5 68.5t103.5 44.5t117 16q56 0 107.5 -16t94 -44.5t74.5 -68.5t50 -88l-155 -72q-18 60 -65.5 98t-122.5 38q-48 0 -88 -17.5t-71 -47.5h258l-59 -133h-265q-1 -2 -1 -6q-5 -25 -5 -44h247l-58 -132h-147q26 -29 63 -46t86 -17q71 0 124 38
t82 101l147 -69q-25 -50 -60 -91t-81 -70.5t-103 -46t-124 -16.5q-60 0 -111.5 16t-92.5 45t-71.5 68.5t-48.5 87.5h-97l22 132h54q0 12 1 24.5t3 25.5h-48z" />
    <glyph glyph-name="uni20AE" unicode="&#x20ae;" horiz-adv-x="586" 
d="M500 390l-102 -39l-8 -45l100 38l-14 -83l-100 -39l-39 -222h-173l26 151l-105 -40l14 83l106 40l8 46l-104 -40l14 82l104 39l36 207h-196l29 162h565l-28 -162h-197l-24 -136l102 39z" />
    <glyph glyph-name="uni20B1" unicode="&#x20b1;" horiz-adv-x="799" 
d="M102 536h72l34 194h246q51 0 94.5 -14.5t76.5 -40t55 -61t31 -78.5h91l-15 -84h-71l-3 -25h70l-15 -85h-79q-18 -42 -47.5 -77.5t-70 -61t-92 -40t-114.5 -14.5h-83l-26 -149h-176l60 342h-72l15 85h72l4 25h-72zM540 441q0 3 2 11h-207l-4 -25h206zM356 571l-6 -35h173
q-27 35 -86 35h-81zM395 308q56 0 95 34h-174l-6 -34h85z" />
    <glyph glyph-name="published" unicode="&#x2117;" horiz-adv-x="841" 
d="M399 -68q-86 0 -155 33.5t-114.5 90t-65 131t-5.5 156.5q12 72 48.5 134.5t90 108t121.5 71.5t143 26q85 0 154 -33.5t115 -90t65.5 -130.5t5.5 -156q-12 -72 -47.5 -134.5t-89 -108t-121.5 -72t-145 -26.5zM412 70q48 0 90 17t74.5 46.5t54 69t29.5 85.5q9 51 -2 98
t-38.5 83t-70.5 57.5t-97 21.5q-49 0 -91 -17t-74.5 -46.5t-54.5 -69t-30 -85.5q-11 -55 2.5 -104.5t45.5 -86.5l62 348h161q39 0 69 -12.5t50.5 -33.5t29 -49t3.5 -59q-10 -60 -56.5 -94t-115.5 -34h-58l-12 -72h-127q28 -29 67.5 -46t88.5 -17zM426 377l-11 -63h29
q18 0 32.5 7.5t16.5 24.5q3 17 -8 24t-31 7h-28z" />
    <glyph glyph-name="servicemark" unicode="&#x2120;" horiz-adv-x="680" 
d="M383 730h115l38 -66l65 66h111l-50 -290h-114l21 121l-60 -55l-41 55l-22 -121h-114zM203 434q-44 0 -76.5 17t-48.5 43l85 58q6 -13 15.5 -21t19.5 -8q8 0 11 3t5 8q1 6 -9.5 11t-24.5 12q-12 6 -25.5 13.5t-23 19t-14.5 27.5t-1 39q7 39 42 60t81 21q42 0 72 -15.5
t44 -36.5l-84 -55q-5 11 -15 18.5t-20 7.5t-13 -9q-1 -6 10 -11.5t26 -12.5q12 -6 26 -13.5t24.5 -19t16 -28t1.5 -40.5q-6 -36 -38.5 -62t-85.5 -26z" />
    <glyph glyph-name="trademark" unicode="&#x2122;" horiz-adv-x="692" 
d="M395 730h115l38 -66l65 66h111l-50 -290h-114l21 121l-60 -55l-41 55l-22 -121h-114zM174 620h-62l19 110h239l-19 -110h-60l-31 -180h-117z" />
    <glyph glyph-name="uni2153" unicode="&#x2153;" horiz-adv-x="950" 
d="M711 -6q-54 0 -97 17t-74 48l111 78q14 -15 30 -20.5t39 -5.5q37 0 42 24q2 11 -7 18t-30 7h-53l19 109h56q32 0 38 24q3 11 -7 18.5t-28 7.5q-26 0 -46 -10.5t-28 -22.5l-84 85q26 23 70.5 40t91.5 17q42 0 73.5 -11t51.5 -30t28.5 -45.5t3.5 -56.5q-9 -51 -54 -76
q21 -17 30.5 -42t3.5 -58q-5 -28 -20 -49.5t-39 -36t-55 -22t-66 -7.5zM667 730h197l-646 -730h-198zM136 309l44 249q-17 -27 -39.5 -34.5t-51.5 -7.5h-7l23 128h3q50 0 76 18t35 69h116l-74 -422h-125z" />
    <glyph glyph-name="uni2154" unicode="&#x2154;" horiz-adv-x="1050" 
d="M64 400q5 30 20 53t35.5 41t44 31t44.5 24q30 15 52.5 26t25.5 26q5 27 -33 27q-23 0 -39.5 -16t-25.5 -40l-108 53q27 54 74.5 82.5t103.5 28.5q81 0 122 -42t30 -110q-4 -24 -17.5 -41.5t-32 -31t-39.5 -24.5t-40 -20q-23 -11 -43 -21t-31 -21h174l-20 -117h-313z
M811 -6q-54 0 -97 17t-74 48l111 78q14 -15 30 -20.5t39 -5.5q37 0 42 24q2 11 -7 18t-30 7h-53l19 109h56q32 0 38 24q3 11 -7 18.5t-28 7.5q-26 0 -46 -10.5t-28 -22.5l-84 85q26 23 70.5 40t91.5 17q42 0 73.5 -11t51.5 -30t28.5 -45.5t3.5 -56.5q-9 -51 -54 -76
q21 -17 30.5 -42t3.5 -58q-5 -28 -20 -49.5t-39 -36t-55 -22t-66 -7.5zM767 730h197l-646 -730h-198z" />
    <glyph glyph-name="uni2155" unicode="&#x2155;" horiz-adv-x="927" 
d="M700 -6q-52 0 -93.5 21.5t-63.5 59.5l124 62q3 -11 13.5 -19t27.5 -8q18 0 29 9.5t13 22.5q3 17 -7.5 27t-28.5 10q-14 0 -25.5 -8t-16.5 -16l-103 46l68 221h259l-20 -114h-162l-17 -53q24 23 60 23q29 0 52.5 -10t39 -29.5t21.5 -47t0 -61.5q-14 -72 -59 -104t-111 -32
zM667 730h197l-646 -730h-198zM136 309l44 249q-17 -27 -39.5 -34.5t-51.5 -7.5h-7l23 128h3q50 0 76 18t35 69h116l-74 -422h-125z" />
    <glyph glyph-name="uni2156" unicode="&#x2156;" horiz-adv-x="1027" 
d="M64 400q5 30 20 53t35.5 41t44 31t44.5 24q30 15 52.5 26t25.5 26q5 27 -33 27q-23 0 -39.5 -16t-25.5 -40l-108 53q27 54 74.5 82.5t103.5 28.5q81 0 122 -42t30 -110q-4 -24 -17.5 -41.5t-32 -31t-39.5 -24.5t-40 -20q-23 -11 -43 -21t-31 -21h174l-20 -117h-313z
M800 -6q-52 0 -93.5 21.5t-63.5 59.5l124 62q3 -11 13.5 -19t27.5 -8q18 0 29 9.5t13 22.5q3 17 -7.5 27t-28.5 10q-14 0 -25.5 -8t-16.5 -16l-103 46l68 221h259l-20 -114h-162l-17 -53q24 23 60 23q29 0 52.5 -10t39 -29.5t21.5 -47t0 -61.5q-14 -72 -59 -104t-111 -32z
M767 730h197l-646 -730h-198z" />
    <glyph glyph-name="uni2157" unicode="&#x2157;" horiz-adv-x="1007" 
d="M203 302q-54 0 -97 17t-74 48l111 78q14 -15 30 -20.5t39 -5.5q37 0 42 24q2 11 -7 18t-30 7h-53l19 109h56q32 0 38 24q3 11 -7 18.5t-28 7.5q-26 0 -46 -10.5t-28 -22.5l-84 85q26 23 70.5 40t91.5 17q42 0 73.5 -11t51.5 -30t28.5 -45.5t3.5 -56.5q-9 -51 -54 -76
q21 -17 30.5 -42t3.5 -58q-5 -28 -20 -49.5t-39 -36t-55 -22t-66 -7.5zM780 -6q-52 0 -93.5 21.5t-63.5 59.5l124 62q3 -11 13.5 -19t27.5 -8q18 0 29 9.5t13 22.5q3 17 -7.5 27t-28.5 10q-14 0 -25.5 -8t-16.5 -16l-103 46l68 221h259l-20 -114h-162l-17 -53q24 23 60 23
q29 0 52.5 -10t39 -29.5t21.5 -47t0 -61.5q-14 -72 -59 -104t-111 -32zM747 730h197l-646 -730h-198z" />
    <glyph glyph-name="uni2158" unicode="&#x2158;" horiz-adv-x="1017" 
d="M237 386h-180l19 109l203 235h137l-43 -241h63l-19 -103h-62l-13 -78h-118zM255 489l16 89l-72 -89h56zM790 -6q-52 0 -93.5 21.5t-63.5 59.5l124 62q3 -11 13.5 -19t27.5 -8q18 0 29 9.5t13 22.5q3 17 -7.5 27t-28.5 10q-14 0 -25.5 -8t-16.5 -16l-103 46l68 221h259
l-20 -114h-162l-17 -53q24 23 60 23q29 0 52.5 -10t39 -29.5t21.5 -47t0 -61.5q-14 -72 -59 -104t-111 -32zM757 730h197l-646 -730h-198z" />
    <glyph glyph-name="uni2159" unicode="&#x2159;" horiz-adv-x="933" 
d="M695 -6q-39 0 -67.5 13.5t-48.5 36.5q-12 14 -20.5 30.5t-12.5 38t-3.5 50t7.5 66.5q9 51 29 88t48.5 62t64 37t75.5 12q48 0 78.5 -8.5t57.5 -26.5l-71 -96q-9 9 -27.5 15.5t-44.5 6.5q-36 0 -61.5 -17t-39.5 -58q14 20 38 32t60 12q28 0 51 -12t39 -32.5t22.5 -48
t0.5 -59.5q-6 -30 -18.5 -56t-34 -45t-52 -30t-70.5 -11zM705 101q17 0 30.5 9.5t17.5 33.5q3 20 -7.5 34.5t-32.5 14.5q-17 0 -30.5 -11.5t-17.5 -28.5q-4 -21 7 -36.5t33 -15.5zM667 730h197l-646 -730h-198zM136 309l44 249q-17 -27 -39.5 -34.5t-51.5 -7.5h-7l23 128h3
q50 0 76 18t35 69h116l-74 -422h-125z" />
    <glyph glyph-name="uni215A" unicode="&#x215a;" horiz-adv-x="1015" 
d="M219 302q-52 0 -93.5 21.5t-63.5 59.5l124 62q3 -11 13.5 -19t27.5 -8q18 0 29 9.5t13 22.5q3 17 -7.5 27t-28.5 10q-14 0 -25.5 -8t-16.5 -16l-103 46l68 221h259l-20 -114h-162l-17 -53q24 23 60 23q29 0 52.5 -10t39 -29.5t21.5 -47t0 -61.5q-14 -72 -59 -104
t-111 -32zM777 -6q-39 0 -67.5 13.5t-48.5 36.5q-12 14 -20.5 30.5t-12.5 38t-3.5 50t7.5 66.5q9 51 29 88t48.5 62t64 37t75.5 12q48 0 78.5 -8.5t57.5 -26.5l-71 -96q-9 9 -27.5 15.5t-44.5 6.5q-36 0 -61.5 -17t-39.5 -58q14 20 38 32t60 12q28 0 51 -12t39 -32.5
t22.5 -48t0.5 -59.5q-6 -30 -18.5 -56t-34 -45t-52 -30t-70.5 -11zM787 101q17 0 30.5 9.5t17.5 33.5q3 20 -7.5 34.5t-32.5 14.5q-17 0 -30.5 -11.5t-17.5 -28.5q-4 -21 7 -36.5t33 -15.5zM749 730h197l-646 -730h-198z" />
    <glyph glyph-name="uni215B" unicode="&#x215b;" horiz-adv-x="938" 
d="M705 -6q-39 0 -70.5 10.5t-52.5 30t-30 46.5t-3 61q5 29 23.5 52.5t46.5 38.5q-17 17 -24.5 39.5t-2.5 48.5q8 46 49 76.5t109 30.5q36 0 65 -11.5t47.5 -30.5t26.5 -44.5t3 -53.5t-19 -45.5t-34 -28.5q22 -19 32.5 -44.5t5.5 -54.5q-10 -58 -53.5 -89.5t-118.5 -31.5z
M712 104q44 0 49 31q3 17 -8.5 28.5t-35.5 11.5q-20 0 -33 -9t-15 -23q-3 -16 8.5 -27.5t34.5 -11.5zM738 263q22 0 33.5 8.5t13.5 22.5t-7.5 24.5t-32.5 10.5q-20 0 -31 -8t-14 -21q-3 -16 7.5 -26.5t30.5 -10.5zM667 730h197l-646 -730h-198zM136 309l44 249
q-17 -27 -39.5 -34.5t-51.5 -7.5h-7l23 128h3q50 0 76 18t35 69h116l-74 -422h-125z" />
    <glyph glyph-name="uni215C" unicode="&#x215c;" horiz-adv-x="1018" 
d="M203 302q-54 0 -97 17t-74 48l111 78q14 -15 30 -20.5t39 -5.5q37 0 42 24q2 11 -7 18t-30 7h-53l19 109h56q32 0 38 24q3 11 -7 18.5t-28 7.5q-26 0 -46 -10.5t-28 -22.5l-84 85q26 23 70.5 40t91.5 17q42 0 73.5 -11t51.5 -30t28.5 -45.5t3.5 -56.5q-9 -51 -54 -76
q21 -17 30.5 -42t3.5 -58q-5 -28 -20 -49.5t-39 -36t-55 -22t-66 -7.5zM785 -6q-39 0 -70.5 10.5t-52.5 30t-30 46.5t-3 61q5 29 23.5 52.5t46.5 38.5q-17 17 -24.5 39.5t-2.5 48.5q8 46 49 76.5t109 30.5q36 0 65 -11.5t47.5 -30.5t26.5 -44.5t3 -53.5t-19 -45.5t-34 -28.5
q22 -19 32.5 -44.5t5.5 -54.5q-10 -58 -53.5 -89.5t-118.5 -31.5zM792 104q44 0 49 31q3 17 -8.5 28.5t-35.5 11.5q-20 0 -33 -9t-15 -23q-3 -16 8.5 -27.5t34.5 -11.5zM818 263q22 0 33.5 8.5t13.5 22.5t-7.5 24.5t-32.5 10.5q-20 0 -31 -8t-14 -21q-3 -16 7.5 -26.5
t30.5 -10.5zM747 730h197l-646 -730h-198z" />
    <glyph glyph-name="uni215D" unicode="&#x215d;" horiz-adv-x="1020" 
d="M219 302q-52 0 -93.5 21.5t-63.5 59.5l124 62q3 -11 13.5 -19t27.5 -8q18 0 29 9.5t13 22.5q3 17 -7.5 27t-28.5 10q-14 0 -25.5 -8t-16.5 -16l-103 46l68 221h259l-20 -114h-162l-17 -53q24 23 60 23q29 0 52.5 -10t39 -29.5t21.5 -47t0 -61.5q-14 -72 -59 -104
t-111 -32zM787 -6q-39 0 -70.5 10.5t-52.5 30t-30 46.5t-3 61q5 29 23.5 52.5t46.5 38.5q-17 17 -24.5 39.5t-2.5 48.5q8 46 49 76.5t109 30.5q36 0 65 -11.5t47.5 -30.5t26.5 -44.5t3 -53.5t-19 -45.5t-34 -28.5q22 -19 32.5 -44.5t5.5 -54.5q-10 -58 -53.5 -89.5
t-118.5 -31.5zM794 104q44 0 49 31q3 17 -8.5 28.5t-35.5 11.5q-20 0 -33 -9t-15 -23q-3 -16 8.5 -27.5t34.5 -11.5zM820 263q22 0 33.5 8.5t13.5 22.5t-7.5 24.5t-32.5 10.5q-20 0 -31 -8t-14 -21q-3 -16 7.5 -26.5t30.5 -10.5zM749 730h197l-646 -730h-198z" />
    <glyph glyph-name="uni215E" unicode="&#x215e;" horiz-adv-x="923" 
d="M259 614h-168l20 116h302l-18 -106l-183 -316h-138zM690 -6q-39 0 -70.5 10.5t-52.5 30t-30 46.5t-3 61q5 29 23.5 52.5t46.5 38.5q-17 17 -24.5 39.5t-2.5 48.5q8 46 49 76.5t109 30.5q36 0 65 -11.5t47.5 -30.5t26.5 -44.5t3 -53.5t-19 -45.5t-34 -28.5
q22 -19 32.5 -44.5t5.5 -54.5q-10 -58 -53.5 -89.5t-118.5 -31.5zM697 104q44 0 49 31q3 17 -8.5 28.5t-35.5 11.5q-20 0 -33 -9t-15 -23q-3 -16 8.5 -27.5t34.5 -11.5zM723 263q22 0 33.5 8.5t13.5 22.5t-7.5 24.5t-32.5 10.5q-20 0 -31 -8t-14 -21q-3 -16 7.5 -26.5
t30.5 -10.5zM652 730h197l-646 -730h-198z" />
    <glyph glyph-name="uni215F" unicode="&#x215f;" horiz-adv-x="809" 
d="M667 730h197l-646 -730h-198zM136 309l44 249q-17 -27 -39.5 -34.5t-51.5 -7.5h-7l23 128h3q50 0 76 18t35 69h116l-74 -422h-125z" />
    <glyph glyph-name="arrowleft" unicode="&#x2190;" horiz-adv-x="924" 
d="M349 37q-20 41 -48 80.5t-62 75t-72 66.5t-77 55v90q39 27 77.5 64t70.5 76.5t55 77.5t31 67l145 -73q-17 -46 -51 -89t-72 -78h518v-171h-516q39 -31 74.5 -72.5t58.5 -83.5l-132 -85v0z" />
    <glyph glyph-name="arrowup" unicode="&#x2191;" horiz-adv-x="924" 
d="M408 502q-32 -39 -74 -74t-87 -55l-80 139q36 14 74.5 40t76 59t71 71t59.5 77h87q26 -39 63 -77t77 -70t78 -55t67 -31l-74 -145q-46 17 -88.5 50t-76.5 71v-502h-173v502z" />
    <glyph glyph-name="arrowright" unicode="&#x2192;" horiz-adv-x="924" 
d="M476 122q22 42 57.5 83.5t75.5 72.5h-515v171h517q-38 35 -71.5 78t-50.5 89l145 73q8 -29 31 -67t55 -77.5t70 -76.5t77 -64v-90q-39 -24 -76.5 -55t-71.5 -66.5t-62.5 -75t-47.5 -80.5z" />
    <glyph glyph-name="arrowdown" unicode="&#x2193;" horiz-adv-x="924" 
d="M420 -30q-27 39 -64 77.5t-76.5 70.5t-77.5 55t-67 31l73 145q45 -17 87.5 -50t77.5 -71v502h174v-503q32 40 74 75t87 55l79 -139q-35 -14 -74 -40t-76.5 -59t-71 -71.5t-58.5 -77.5h-87v0z" />
    <glyph glyph-name="uni2196" unicode="&#x2196;" horiz-adv-x="924" 
d="M154 206q15 43 23 92.5t9 100.5t-4 101.5t-15 94.5l63 63q46 -9 101 -9.5t107.5 5t97.5 16t71 25.5l30 -154q-39 -20 -90.5 -26.5t-102.5 -4.5l356 -356l-123 -122l-351 350q7 -48 4 -100.5t-17 -97.5l-159 22v0z" />
    <glyph glyph-name="uni2197" unicode="&#x2197;" horiz-adv-x="924" 
d="M124 163l350 350q-48 -7 -100 -3.5t-97 17.5l21 159q43 -15 92.5 -23t100.5 -9t101.5 4t94.5 15l63 -63q-9 -47 -9.5 -101.5t5 -107t16 -97.5t25.5 -71l-154 -30q-20 39 -26.5 90t-4.5 102l-355 -355z" />
    <glyph glyph-name="uni2198" unicode="&#x2198;" horiz-adv-x="924" 
d="M715 68q-47 9 -101.5 9.5t-107 -5t-97.5 -16t-71 -25.5l-30 154q39 19 90.5 26t102.5 5l-356 356l123 122l352 -352q-7 48 -4 101.5t17 98.5l159 -22q-15 -43 -23 -92.5t-9.5 -100.5t3.5 -101.5t16 -94.5l-64 -63v0z" />
    <glyph glyph-name="uni2199" unicode="&#x2199;" horiz-adv-x="924" 
d="M651 48q-43 15 -92.5 23t-100.5 9.5t-101.5 -4t-94.5 -15.5l-63 64q9 46 9.5 101t-5 107.5t-16 97.5t-25.5 71l154 30q19 -40 25.5 -91.5t4.5 -102.5l356 357l123 -123l-352 -352q48 7 101 4t98 -17l-21 -159v0z" />
    <glyph glyph-name="partialdiff" unicode="&#x2202;" horiz-adv-x="616" 
d="M288 -10q-64 0 -113.5 24t-81 64.5t-44 93.5t-2.5 110q8 47 30 87t54 69.5t73.5 46t88.5 16.5q20 0 36.5 -3t31.5 -8q-32 53 -81 111.5t-119 129.5h212q54 -64 95.5 -129t67.5 -129.5t35 -128t-3 -124.5q-9 -47 -31.5 -89t-58 -73.5t-83.5 -49.5t-107 -18zM298 146
q38 0 68 25t38 68q4 22 -0.5 43t-16 37.5t-29.5 26.5t-41 10q-37 0 -67.5 -25.5t-38.5 -68.5q-4 -23 0.5 -43.5t16 -37t29.5 -26t41 -9.5z" />
    <glyph glyph-name="Delta" unicode="&#x2206;" horiz-adv-x="924" 
d="M-8 0l553 742l299 -742h-852zM319 168h277l-97 240z" />
    <glyph glyph-name="product" unicode="&#x220f;" horiz-adv-x="813" 
d="M136 730h709l-29 -162h-107l-100 -568h-174l100 568h-139l-100 -568h-174l100 568h-114z" />
    <glyph glyph-name="summation" unicode="&#x2211;" horiz-adv-x="594" 
d="M38 170l234 206l-158 192l28 162h483l-29 -162h-273l158 -209l-217 -197h262l-28 -162h-490z" />
    <glyph glyph-name="minus" unicode="&#x2212;" horiz-adv-x="474" 
d="M85 435h370l-25 -142h-371z" />
    <glyph glyph-name="radical" unicode="&#x221a;" horiz-adv-x="834" 
d="M151 334h-86l18 166h194l81 -301l313 531h195l-439 -730h-181z" />
    <glyph glyph-name="infinity" unicode="&#x221e;" horiz-adv-x="948" 
d="M300 177q-42 0 -79.5 16t-65 43.5t-43.5 65t-16 79.5t16 79.5t43.5 65t65 43.5t79.5 16q59 0 106.5 -28t88.5 -67q41 38 89 66.5t108 28.5q42 0 79.5 -16t65 -43.5t43.5 -65t16 -79.5t-16 -79.5t-43.5 -65t-65 -43.5t-79.5 -16q-59 0 -107.5 29.5t-89.5 69.5
q-42 -40 -89 -69.5t-106 -29.5zM300 330q23 0 45.5 15t46.5 38q-23 22 -46 35.5t-46 13.5q-20 0 -35.5 -15t-15.5 -36q0 -20 15.5 -35.5t35.5 -15.5zM693 330q20 0 35 15t15 36t-15 36.5t-35 15.5q-24 0 -47.5 -14t-47.5 -36q25 -23 48 -38t47 -15z" />
    <glyph glyph-name="integral" unicode="&#x222b;" horiz-adv-x="400" 
d="M-39 -76h41q27 0 37.5 10.5t17.5 48.5l92 518q11 76 26 122t41.5 70t67.5 31.5t104 7.5h49l-27 -156h-36q-14 0 -23 -2t-14.5 -8.5t-9.5 -18t-7 -30.5q0 -2 -4 -24.5t-10.5 -59t-14.5 -82t-17 -93.5q-20 -112 -45 -253q-13 -72 -25 -118.5t-33.5 -72.5t-57.5 -36t-97 -10
h-82z" />
    <glyph glyph-name="approxequal" unicode="&#x2248;" horiz-adv-x="472" 
d="M97 508q23 11 45.5 17.5t53.5 6.5q22 0 44.5 -6t44.5 -13.5t42.5 -13.5t40.5 -6q29 0 50.5 8t49.5 19l-24 -137q-23 -12 -45 -19.5t-55 -7.5q-21 0 -43 6t-44 13.5t-43.5 14t-40.5 6.5q-30 0 -53.5 -7.5t-47.5 -18.5zM66 335q24 11 45.5 19t52.5 8q22 0 45 -6t45.5 -13.5
t44 -13.5t41.5 -6q29 0 50 7t48 18l-24 -135q-23 -13 -44 -20t-54 -7q-21 0 -44 6t-46 13.5t-45 13.5t-41 6q-30 0 -52 -7.5t-45 -18.5z" />
    <glyph glyph-name="notequal" unicode="&#x2260;" horiz-adv-x="474" 
d="M100 519h173l33 67h125l-34 -67h73l-25 -142h-120l-18 -34h132l-26 -143h-178l-34 -67h-118l33 67h-73l25 143h118l17 34h-129z" />
    <glyph glyph-name="equivalence" unicode="&#x2261;" horiz-adv-x="474" 
d="M84 431h370l-25 -142h-370zM53 255h370l-25 -142h-371zM116 607h370l-25 -142h-371z" />
    <glyph glyph-name="lessequal" unicode="&#x2264;" horiz-adv-x="474" 
d="M76 386l24 141l393 130l-26 -151l-193 -54l174 -54l-25 -142zM48 231h371l-26 -142h-371z" />
    <glyph glyph-name="greaterequal" unicode="&#x2265;" horiz-adv-x="474" 
d="M79 408l193 53l-174 55l24 141l348 -130l-25 -141l-393 -130zM48 231h370l-25 -142h-371z" />
    <glyph glyph-name="squaremultiply" unicode="&#x22a0;" horiz-adv-x="984" 
d="M146 730h726v-730h-726v730zM285 133h448v464h-448v-464zM305 241l122 126l-123 128l82 80l121 -125l123 126l82 -80l-125 -129l124 -127l-82 -80l-122 125l-120 -124z" />
    <glyph glyph-name="house" unicode="&#x2302;" horiz-adv-x="932" 
d="M125 0v427l337 323l337 -323v-427h-674z" />
    <glyph glyph-name="blacksquare" unicode="&#x25a0;" horiz-adv-x="984" 
d="M146 730h726v-730h-726v730z" />
    <glyph glyph-name="blacksquare" unicode="&#xe740;" horiz-adv-x="984" 
d="M146 730h726v-730h-726v730z" />
    <glyph glyph-name="whitesquare" unicode="&#x25a1;" horiz-adv-x="984" 
d="M146 730h726v-730h-726v730zM285 133h448v464h-448v-464z" />
    <glyph glyph-name="blacksmallsquare" unicode="&#x25aa;" horiz-adv-x="758" 
d="M129 500h500v-500h-500v500z" />
    <glyph glyph-name="whitesmallsquare" unicode="&#x25ab;" horiz-adv-x="758" 
d="M129 500h500v-500h-500v500zM266 136h226v228h-226v-228z" />
    <glyph glyph-name="triagup" unicode="&#x25b2;" horiz-adv-x="955" 
d="M11 0l429 742l428 -742h-857z" />
    <glyph glyph-name="triagrt" unicode="&#x25ba;" horiz-adv-x="955" 
d="M167 800l742 -428l-742 -429v857z" />
    <glyph glyph-name="triagdn" unicode="&#x25bc;" horiz-adv-x="955" 
d="M986 730l-428 -742l-429 742h857z" />
    <glyph glyph-name="triaglf" unicode="&#x25c4;" horiz-adv-x="955" 
d="M826 -57l-742 429l742 428v-857z" />
    <glyph glyph-name="lozenge" unicode="&#x25ca;" horiz-adv-x="853" 
d="M64 378l434 368l328 -394l-434 -368zM416 209l183 155l-133 160l-183 -155z" />
    <glyph glyph-name="whitecircle" unicode="&#x25cb;" horiz-adv-x="985" 
d="M512 -10q-78 0 -146 29.5t-118.5 80t-79.5 119t-29 146.5t29 146t79.5 119t118.5 80.5t146 29.5t146 -29.5t119 -80.5t80 -119t29 -146t-29 -146.5t-80 -119t-119 -80t-146 -29.5zM512 127q49 0 92 19t75 51t50.5 75.5t18.5 92.5t-18.5 92.5t-50.5 75.5t-75 51t-92 19
t-92 -19t-74.5 -51t-50 -75.5t-18.5 -92.5t18.5 -92.5t50 -75.5t74.5 -51t92 -19z" />
    <glyph glyph-name="whitecircle" unicode="&#x25ef;" horiz-adv-x="985" 
d="M512 -10q-78 0 -146 29.5t-118.5 80t-79.5 119t-29 146.5t29 146t79.5 119t118.5 80.5t146 29.5t146 -29.5t119 -80.5t80 -119t29 -146t-29 -146.5t-80 -119t-119 -80t-146 -29.5zM512 127q49 0 92 19t75 51t50.5 75.5t18.5 92.5t-18.5 92.5t-50.5 75.5t-75 51t-92 19
t-92 -19t-74.5 -51t-50 -75.5t-18.5 -92.5t18.5 -92.5t50 -75.5t74.5 -51t92 -19z" />
    <glyph glyph-name="bullseye" unicode="&#x25ce;" horiz-adv-x="985" 
d="M508 -10q-78 0 -146 29.5t-118.5 80t-79.5 119t-29 146.5t29 146t79.5 119t118.5 80.5t146 29.5t146 -29.5t119 -80.5t80 -119t29 -146t-29 -146.5t-80 -119t-119 -80t-146 -29.5zM508 127q49 0 92 19t75 51t50.5 75.5t18.5 92.5t-18.5 92.5t-50.5 75.5t-75 51t-92 19
t-92 -19t-74.5 -51t-50 -75.5t-18.5 -92.5t18.5 -92.5t50 -75.5t74.5 -51t92 -19zM508 250q-24 0 -44.5 9t-36 25t-24.5 36.5t-9 44.5t9 44.5t24.5 36.5t36 25t44.5 9t44.5 -9t36 -25t24.5 -36.5t9 -44.5t-9 -44.5t-24.5 -36.5t-36 -25t-44.5 -9z" />
    <glyph glyph-name="blackcircle" unicode="&#x25cf;" horiz-adv-x="985" 
d="M512 -10q-78 0 -146 29.5t-118.5 80t-79.5 119t-29 146.5t29 146t79.5 119t118.5 80.5t146 29.5t146 -29.5t119 -80.5t80 -119t29 -146t-29 -146.5t-80 -119t-119 -80t-146 -29.5z" />
    <glyph glyph-name="uni25E2" unicode="&#x25e2;" horiz-adv-x="955" 
d="M348 -73l-222 828l828 -222z" />
    <glyph glyph-name="uni25E3" unicode="&#x25e3;" horiz-adv-x="955" 
d="M113 533l828 222l-222 -828z" />
    <glyph glyph-name="uni25E4" unicode="&#x25e4;" horiz-adv-x="955" 
d="M38 168l606 606l222 -828z" />
    <glyph glyph-name="uni25E5" unicode="&#x25e5;" horiz-adv-x="955" 
d="M43 -58l223 828l605 -607z" />
    <glyph glyph-name="uni2605" unicode="&#x2605;" horiz-adv-x="958" 
d="M663 85l-187 135l-186 -135l72 219l-186 135l229 -1l72 218l71 -218l230 -1l-187 -134z" />
    <glyph glyph-name="ballotboxwithx" unicode="&#x2612;" horiz-adv-x="758" 
d="M129 500h500v-500h-500v500zM249 119h260v262h-260v-262zM261 195l52 53l-53 54l66 66l53 -53l54 55l66 -66l-54 -55l53 -53l-66 -66l-53 52l-52 -53z" />
    <glyph glyph-name="uni263C" unicode="&#x263c;" horiz-adv-x="986" 
d="M333 365q0 36 14 67.5t37.5 55t55 37.5t67.5 14t67.5 -14t55 -37.5t37.5 -55t14 -67.5t-14 -67.5t-37.5 -55t-55 -37.5t-67.5 -14t-67.5 14t-55 37.5t-37.5 55t-14 67.5zM480 719h54l-17 -142h-20zM534 13h-54l17 142h20zM154 339v54l142 -17v-20zM860 393v-54l-142 17
v20zM186 519l28 47l115 -87l-10 -15zM828 213l-28 -47l-115 87l10 15zM307 659l47 28l55 -133l-15 -10zM707 73l-47 -28l-55 133l15 10zM660 687l47 -28l-87 -115l-15 10zM354 45l-47 28l87 115l15 -10zM798 566l30 -46l-133 -56l-10 16zM216 166l-30 46l133 56l10 -16z" />
    <glyph glyph-name="uni263E" unicode="&#x263e;" horiz-adv-x="845" 
d="M575 616q-50 0 -93.5 -20t-75.5 -54t-51 -79.5t-19 -97.5t19 -97.5t51 -79.5t75.5 -54t93.5 -20q18 0 36 3.5t35 8.5q-38 -27 -83.5 -42t-94.5 -15q-61 0 -115 23.5t-94 63.5t-63.5 94t-23.5 115t23.5 115t63.5 94t94 63.5t115 23.5q49 0 94.5 -15t83.5 -42
q-17 5 -35 8.5t-36 3.5z" />
    <glyph glyph-name="spade" unicode="&#x2660;" horiz-adv-x="978" 
d="M374 0q10 19 26 49.5t31 69t26 82.5t11 89q-9 -26 -24 -50.5t-36 -43.5t-48.5 -30.5t-61.5 -11.5q-35 0 -66 12.5t-54.5 34t-37 50.5t-13.5 61q0 43 13.5 80.5t42 75t73 77.5t106.5 90l140 112h1l140 -112q62 -50 105.5 -90t70.5 -77.5t39.5 -75t12.5 -80.5
q0 -32 -12.5 -60.5t-34 -50t-50 -34t-60.5 -12.5q-37 0 -66 11t-51.5 30t-38.5 43.5t-25 50.5q0 -45 12 -89t28 -82.5t33 -69t27 -49.5h-259z" />
    <glyph glyph-name="club" unicode="&#x2663;" horiz-adv-x="978" 
d="M372 0q9 17 22.5 43t27.5 58t25 69.5t16 77.5q-21 -52 -65 -85t-102 -33q-37 0 -69 14t-56 38t-38 56t-14 69t14 69t38 56t56 38t69 14q11 0 21.5 -2t20.5 -5q-19 41 -19 87q0 36 13.5 68t37.5 56t56 38t68 14t68 -14t56 -38t38 -56t14 -68q0 -45 -19 -88q22 8 46 8
q37 0 69 -14t56 -38t37.5 -56t13.5 -69t-14 -69t-38 -56t-56 -38t-69 -14q-58 0 -100.5 33t-62.5 84q5 -39 17.5 -76.5t27.5 -69.5t29.5 -58t23.5 -43h-259z" />
    <glyph glyph-name="heart" unicode="&#x2665;" horiz-adv-x="978" 
d="M168 550q0 39 14 73.5t39 60.5t58 41t72 15q38 0 70.5 -12.5t56.5 -34t39 -51t19 -63.5q4 34 19 63.5t39 51t56 34t71 12.5t73 -15t60 -41t41 -60.5t15 -73.5q0 -43 -13 -86.5t-41 -92.5t-72 -105.5t-106 -125.5l-142 -157l-141 157q-62 69 -105.5 125.5t-70.5 105.5
t-39 92.5t-12 86.5z" />
    <glyph glyph-name="diamond" unicode="&#x2666;" horiz-adv-x="978" 
d="M511 791l327 -401l-327 -400l-327 400z" />
    <glyph glyph-name="uni267B" unicode="&#x267b;" horiz-adv-x="979" 
d="M868 244l-91 -157q-7 -11 -14 -20.5t-16 -16.5t-21.5 -11t-30.5 -4h-54v-47l-106 128l106 127v-46h136q21 0 37.5 7.5t28.5 16.5q13 11 24 25zM228 111l-90 158q-6 11 -11 21.5t-6.5 22t1.5 24t12 28.5l27 46l-40 23l164 29l55 -156l-38 23q-18 -31 -33 -57
q-13 -22 -23.5 -40.5t-11.5 -20.5q-11 -18 -13 -36.5t0 -32.5q2 -17 9 -32h-2zM435 729h182q13 0 25 -1t22.5 -5.5t20 -13t18.5 -24.5l26 -46l41 23l-58 -157l-162 30l38 22l-67 118q-11 18 -25.5 29t-28.5 16q-16 6 -32 8v1zM306 670q4 6 12.5 14.5t19.5 14.5
q21 12 45 13.5t46 -4.5t39.5 -17.5t24.5 -24.5l-109 -189l-141 81zM348 35q-8 0 -19.5 2.5t-22.5 9.5q-21 12 -34.5 32t-19.5 42t-4.5 42.5t9.5 33.5h218v-162h-127zM878 381q9 -14 9 -41q0 -24 -10.5 -45.5t-27 -37.5t-34.5 -25.5t-33 -9.5l-109 189l140 80z" />
    <glyph glyph-name="uni267C" unicode="&#x267c;" horiz-adv-x="979" 
d="M883 366q0 -78 -29.5 -146.5t-80.5 -119t-119 -80t-146 -29.5t-147 29.5t-120 80t-80.5 119t-29.5 146.5t29.5 146.5t80.5 120t120 81t147 29.5t146 -29.5t119 -81t80.5 -120t29.5 -146.5zM301 520l109 -63l84 146q-6 10 -19 19t-30.5 13.5t-36 3.5t-34.5 -10
q-8 -5 -15 -11.5t-9 -11.5zM445 651q14 -2 26 -7q11 -5 22 -12.5t19 -21.5l53 -91l-30 -18l126 -23l44 122l-31 -18l-21 36q-14 24 -30 29t-37 5h-141v-1zM477 114v126h-170q-6 -11 -7 -26.5t4 -32.5t15 -32.5t27 -25.5q8 -5 17 -7t15 -2h99zM290 173q-4 12 -6 25
q-2 11 -0.5 25.5t9.5 28.5l53 91l30 -18l-43 121l-127 -22l31 -18l-21 -36q-15 -25 -10.5 -41t13.5 -34l70 -122h1zM743 468l-110 -63l85 -147q12 0 26 7.5t27 20t21 29.5t8 36q0 10 -2.5 18.5t-5.5 13.5zM784 277q-8 -11 -19 -19q-9 -7 -21.5 -12.5t-29.5 -5.5h-105v35
l-83 -98l83 -99v36h41q29 0 41.5 11.5t22.5 28.5l71 122z" />
    <glyph glyph-name="uni267D" unicode="&#x267d;" horiz-adv-x="979" 
d="M883 366q0 -78 -29.5 -146.5t-80.5 -119t-119 -80t-146 -29.5t-147 29.5t-120 80t-80.5 119t-29.5 146.5t29.5 146.5t80.5 120t120 81t147 29.5t146 -29.5t119 -81t80.5 -120t29.5 -146.5zM864 366q0 74 -28 139.5t-76 114t-113 76.5t-139 28q-75 0 -140 -28t-114 -76.5
t-77 -114t-28 -139.5t28 -139t77 -113.5t114 -76.5t140 -28q74 0 139 28t113 76.5t76 113.5t28 139zM350 606q2 5 9 11.5t15 11.5q16 9 34.5 10t36 -3.5t30.5 -13.5t19 -19l-84 -146l-109 63zM445 652h141q21 0 37 -5t30 -29l21 -36l31 18l-44 -122l-126 23l30 18l-53 91
q-8 14 -19 21.5t-22 12.5q-12 5 -26 7v1zM378 114q-6 0 -15 2t-17 7q-17 10 -27 25.5t-15 32.5t-4 32.5t7 26.5h170v-126h-99zM289 173l-70 122q-9 18 -13.5 34t10.5 41l21 36l-31 18l127 22l43 -121l-30 18l-53 -91q-8 -14 -9.5 -28.5t0.5 -25.5q2 -13 6 -25h-1zM792 383
q3 -5 5.5 -13.5t2.5 -18.5q0 -19 -8 -36t-21 -29.5t-27 -20t-26 -7.5l-85 147l110 63zM785 276l-71 -122q-10 -17 -22.5 -28.5t-41.5 -11.5h-41v-36l-83 99l83 98v-35h105q17 0 29.5 5.5t21.5 12.5q11 8 19 19z" />
    <glyph glyph-name="mediumwhitecircle" unicode="&#x26aa;" horiz-adv-x="756" 
d="M377 -10q-54 0 -101 20.5t-82.5 55.5t-55.5 82.5t-20 101.5t20 101.5t55.5 82.5t82.5 55.5t101 20.5t101 -20.5t82.5 -55.5t55.5 -82.5t20 -101.5t-20 -101.5t-55.5 -82.5t-82.5 -55.5t-101 -20.5zM377 120q26 0 49 10.5t40 28t27 41t10 50.5t-10 50.5t-27 41t-40 28
t-49 10.5q-27 0 -49.5 -10.5t-39.5 -28t-26.5 -41t-9.5 -50.5t9.5 -50.5t26.5 -41t39.5 -28t49.5 -10.5z" />
    <glyph glyph-name="mediumblackcircle" unicode="&#x26ab;" horiz-adv-x="756" 
d="M377 -10q-54 0 -101 20.5t-82.5 55.5t-55.5 82.5t-20 101.5t20 101.5t55.5 82.5t82.5 55.5t101 20.5t101 -20.5t82.5 -55.5t55.5 -82.5t20 -101.5t-20 -101.5t-55.5 -82.5t-82.5 -55.5t-101 -20.5z" />
    <glyph glyph-name="anglebracketleft" unicode="&#x3008;" horiz-adv-x="437" 
d="M38 264l260 466h189l-274 -486l109 -475h-173z" />
    <glyph glyph-name="anglebracketright" unicode="&#x3009;" horiz-adv-x="437" 
d="M225 255l-108 475h173l110 -495l-259 -466h-190z" />
    <glyph glyph-name="cordinal" unicode="&#xe181;" horiz-adv-x="404" 
d="M247 414q-35 0 -64.5 13.5t-50 37t-30 54t-4.5 65.5q4 34 19 62.5t38.5 49t53 32t63.5 11.5q52 0 90.5 -25.5t55.5 -67.5l-113 -49q-5 13 -15 21t-26 8q-20 0 -34.5 -14t-16.5 -34q-3 -20 8.5 -35.5t34.5 -15.5q15 0 26.5 8.5t17.5 21.5l108 -50q-22 -44 -63 -68.5
t-98 -24.5z" />
    <glyph glyph-name="fi" unicode="&#xe38c;" horiz-adv-x="685" 
d="M74 540h79l1 6q14 79 31.5 126.5t47 73t73.5 34t110 8.5h69l-27 -153h-56q-38 0 -55 -15t-25 -61l-4 -19h124l-27 -151h-123l-67 -389h-167l68 389h-79zM421 0l96 540h169l-95 -540h-170zM617 585q-23 0 -41.5 8.5t-30 23.5t-16.5 34.5t-1 42.5q4 19 14 35.5t24.5 27.5
t32.5 17.5t37 6.5q24 0 42.5 -9t30 -24t15.5 -35t0 -42q-8 -38 -35.5 -62t-71.5 -24z" />
    <glyph glyph-name="fi" unicode="&#xfb01;" horiz-adv-x="685" 
d="M74 540h79l1 6q14 79 31.5 126.5t47 73t73.5 34t110 8.5h69l-27 -153h-56q-38 0 -55 -15t-25 -61l-4 -19h124l-27 -151h-123l-67 -389h-167l68 389h-79zM421 0l96 540h169l-95 -540h-170zM617 585q-23 0 -41.5 8.5t-30 23.5t-16.5 34.5t-1 42.5q4 19 14 35.5t24.5 27.5
t32.5 17.5t37 6.5q24 0 42.5 -9t30 -24t15.5 -35t0 -42q-8 -38 -35.5 -62t-71.5 -24z" />
    <glyph glyph-name="fl" unicode="&#xe38d;" horiz-adv-x="683" 
d="M74 540h79l1 6q14 79 31.5 126.5t47 73t73.5 34t110 8.5h69l-27 -153h-56q-38 0 -55 -15t-25 -61l-4 -19h124l-27 -151h-123l-67 -389h-167l68 389h-79zM561 788h166l-138 -788h-168z" />
    <glyph glyph-name="fl" unicode="&#xfb02;" horiz-adv-x="683" 
d="M74 540h79l1 6q14 79 31.5 126.5t47 73t73.5 34t110 8.5h69l-27 -153h-56q-38 0 -55 -15t-25 -61l-4 -19h124l-27 -151h-123l-67 -389h-167l68 389h-79zM561 788h166l-138 -788h-168z" />
    <glyph glyph-name="invertedbreve" unicode="&#xe411;" 
d="M143 598q14 81 61 129.5t128 48.5q42 0 71.5 -14t46.5 -38t22.5 -56.5t-1.5 -69.5h-107q8 39 -4 57t-39 19q-27 -1 -45 -19t-26 -57h-107v0z" />
    <glyph glyph-name="doublegrave" unicode="&#xe412;" horiz-adv-x="526" 
d="M289 775h152l75 -177h-108zM113 775h152l75 -177h-109z" />
    <glyph glyph-name="caronSlovak" unicode="&#xe413;" 
d="M232 587q51 24 76.5 49.5t30.5 56.5v6q-8 -26 -23 -35t-37 -9q-13 0 -24.5 5.5t-20 15t-12 24t-0.5 32.5q7 37 34.5 58t65.5 21q23 0 41.5 -9t30 -25t15.5 -36.5t0 -42.5q-11 -52 -47 -90.5t-98 -67.5z" />
    <glyph glyph-name="commaaccent" unicode="&#xe414;" 
d="M148 -259q51 24 76.5 49.5t30.5 56.5v6q-8 -25 -23 -34.5t-37 -9.5q-13 0 -24.5 5.5t-20 15t-12 24t-0.5 32.5q7 37 34.5 58t65.5 21q23 0 41.5 -9t30 -25t15.5 -36.5t0 -42.5q-11 -52 -47 -90.5t-98 -67.5z" />
    <glyph glyph-name="commaaccent" unicode="&#xf6c3;" 
d="M148 -259q51 24 76.5 49.5t30.5 56.5v6q-8 -25 -23 -34.5t-37 -9.5q-13 0 -24.5 5.5t-20 15t-12 24t-0.5 32.5q7 37 34.5 58t65.5 21q23 0 41.5 -9t30 -25t15.5 -36.5t0 -42.5q-11 -52 -47 -90.5t-98 -67.5z" />
    <glyph glyph-name="dotbelow" unicode="&#xe415;" 
d="M185 -227q-48 0 -72 32.5t-16 77.5q7 41 38 65.5t71 24.5q24 0 42.5 -9t30 -24.5t15.5 -36t0 -42.5q-8 -38 -36.5 -63t-72.5 -25z" />
    <glyph glyph-name="altcedilla" unicode="&#xe416;" 
d="M174 -273q-61 0 -104 18t-70 47l105 62q13 -14 31.5 -23t39.5 -9q22 0 35.5 6t15.5 19q3 11 -7 18.5t-35 7.5h-54l15 80h65q73 -1 106 -34t23 -87q-9 -51 -54.5 -78t-111.5 -27z" />
    <glyph glyph-name="exclamdown.cap" unicode="&#xe441;" horiz-adv-x="278" 
d="M235 512q-1 -101 -7.5 -197.5t-24.5 -197.5l-20 -117h-176l21 117q18 101 47.5 197.5t64.5 197.5h95zM198 545q-23 0 -41 8.5t-29.5 23.5t-16 35t0.5 43q7 38 35 62t72 24q24 0 41.5 -9t29 -24t15.5 -34.5t0 -40.5q-7 -40 -36.5 -64t-70.5 -24z" />
    <glyph glyph-name="questiondown.cap" unicode="&#xe444;" horiz-adv-x="587" 
d="M272 -10q-61 0 -106.5 19t-74.5 50.5t-40.5 72t-3.5 84.5q8 46 26 73t41.5 44t49 29.5t48.5 28.5t41 40.5t25 67.5l2 12h148l-2 -12q-11 -64 -29.5 -104.5t-40.5 -64.5t-45 -37.5t-42.5 -24.5t-33.5 -24t-18 -37q-5 -29 13 -49t53 -20q31 0 51 14t33 42l152 -79
q-79 -125 -247 -125zM364 545q-24 0 -41.5 9t-29 24t-15.5 34.5t0 40.5q7 40 36 64t71 24q22 0 40.5 -8.5t30 -23.5t16 -35t-0.5 -43q-7 -38 -35 -62t-72 -24z" />
    <glyph glyph-name="guilsinglleft.cap" unicode="&#xe451;" horiz-adv-x="297" 
d="M71 312l18 103l197 119l-21 -127l-84 -47l67 -46l-21 -121z" />
    <glyph glyph-name="guilsinglright.cap" unicode="&#xe452;" horiz-adv-x="297" 
d="M265 414l-18 -102l-197 -119l22 127l83 46l-67 47l21 120z" />
    <glyph glyph-name="guillemotleft.cap" unicode="&#xe453;" horiz-adv-x="501" 
d="M71 312l18 103l197 119l-21 -127l-84 -47l67 -46l-21 -121zM275 312l18 103l197 119l-22 -127l-83 -47l67 -46l-21 -121z" />
    <glyph glyph-name="guillemotright.cap" unicode="&#xe454;" horiz-adv-x="501" 
d="M469 414l-18 -102l-197 -119l22 127l83 46l-67 47l21 120zM265 414l-18 -102l-197 -119l22 127l83 46l-67 47l21 120z" />
    <glyph glyph-name="slash.cap" unicode="&#xe461;" horiz-adv-x="595" 
d="M459 730h188l-466 -730h-187z" />
    <glyph glyph-name="backslash.cap" unicode="&#xe462;" horiz-adv-x="595" 
d="M122 730h172l225 -730h-172z" />
    <glyph glyph-name="bar.cap" unicode="&#xe463;" horiz-adv-x="277" 
d="M155 840h174l-169 -960h-173z" />
    <glyph glyph-name="doublebar.cap" unicode="&#xe464;" horiz-adv-x="490" 
d="M155 840h174l-169 -960h-173zM369 840h175l-171 -960h-173z" />
    <glyph glyph-name="brokenbar.cap" unicode="&#xe465;" horiz-adv-x="277" 
d="M155 840h174l-74 -420h-174zM60 300h174l-74 -420h-173z" />
    <glyph glyph-name="bullet.cap" unicode="&#xe466;" horiz-adv-x="497" 
d="M266 230q-27 0 -51.5 10.5t-42.5 28.5t-28.5 42.5t-10.5 51.5t10.5 51.5t28.5 42.5t42.5 28.5t51.5 10.5t51.5 -10.5t42.5 -28.5t28.5 -42.5t10.5 -51.5t-10.5 -51.5t-28.5 -42.5t-42.5 -28.5t-51.5 -10.5z" />
    <glyph glyph-name="slash.smcp" unicode="&#xe467;" horiz-adv-x="547" 
d="M378 596h189l-373 -596h-188z" />
    <glyph glyph-name="backslash.smcp" unicode="&#xe468;" horiz-adv-x="547" 
d="M110 596h172l180 -596h-171z" />
    <glyph glyph-name="bar.smcp" unicode="&#xe469;" horiz-adv-x="273" 
d="M128 686h171l-138 -784h-171z" />
    <glyph glyph-name="doublebar.smcp" unicode="&#xe46a;" horiz-adv-x="483" 
d="M128 686h171l-138 -784h-171zM339 686h170l-138 -784h-170z" />
    <glyph glyph-name="onethirdemdash" unicode="&#xe471;" horiz-adv-x="424" 
d="M65 326h320l-25 -143h-320z" />
    <glyph glyph-name="threequarteremdash" unicode="&#xe472;" horiz-adv-x="599" 
d="M65 326h495l-25 -143h-495z" />
    <glyph glyph-name="periodcentered.cap" unicode="&#xe481;" horiz-adv-x="276" 
d="M147 263q-23 0 -41 8.5t-29.5 23.5t-16 34.5t-0.5 41.5q7 40 37.5 64t69.5 24q24 0 42 -9t29.5 -24t15.5 -35t-1 -42q-8 -38 -34.5 -62t-71.5 -24z" />
    <glyph glyph-name="hyphen.cap" unicode="&#xe482;" horiz-adv-x="473" 
d="M84 435h370l-25 -142h-370z" />
    <glyph glyph-name="onethirdemdash.cap" unicode="&#xe483;" horiz-adv-x="424" 
d="M84 435h320l-25 -143h-320z" />
    <glyph glyph-name="endash.cap" unicode="&#xe484;" horiz-adv-x="498" 
d="M84 435h395l-25 -142h-395z" />
    <glyph glyph-name="threequarteremdash.cap" unicode="&#xe485;" horiz-adv-x="599" 
d="M84 435h495l-25 -143h-495z" />
    <glyph glyph-name="emdash.cap" unicode="&#xe486;" horiz-adv-x="623" 
d="M84 435h520l-25 -142h-520z" />
    <glyph glyph-name="figuredash.cap" unicode="&#xe487;" horiz-adv-x="649" 
d="M84 435h545l-25 -143h-545z" />
    <glyph glyph-name="uni2015.cap" unicode="&#xe488;" horiz-adv-x="1044" 
d="M84 435h940l-25 -143h-940z" />
    <glyph glyph-name="parenleft.cap" unicode="&#xe491;" horiz-adv-x="465" 
d="M260 -152q-128 118 -174 254.5t-16 306.5q14 84 46.5 155.5t79 131t104 109t121.5 90.5l100 -147q-114 -64 -182 -158.5t-87 -205.5q-9 -54 -9 -105.5t14.5 -101t45.5 -98t83 -96.5z" />
    <glyph glyph-name="parenright.cap" unicode="&#xe492;" horiz-adv-x="465" 
d="M244 883q129 -119 175 -257.5t16 -309.5q-14 -84 -46.5 -154.5t-78.5 -130t-103.5 -108.5t-120.5 -89l-102 145q114 64 183 160t88 207q9 54 9 105.5t-14.5 101t-45.5 98t-83 96.5z" />
    <glyph glyph-name="bracketleft.cap" unicode="&#xe493;" horiz-adv-x="405" 
d="M155 840h302l-28 -162h-128l-112 -635h127l-28 -163h-301z" />
    <glyph glyph-name="bracketright.cap" unicode="&#xe494;" horiz-adv-x="405" 
d="M14 43h128l113 635h-128l28 162h302l-169 -960h-302z" />
    <glyph glyph-name="braceleft.cap" unicode="&#xe495;" horiz-adv-x="416" 
d="M293 -120q-63 0 -104 11t-62.5 36.5t-25.5 67t7 102.5l15 86q5 30 5.5 49.5t-7 30t-24.5 14.5t-47 4l27 156q31 0 50 4t30 14.5t17 29.5t11 49l16 89q11 61 29.5 102.5t49.5 67t75.5 36.5t106.5 11h11l-27 -156q-21 0 -34 -2t-21 -9t-12.5 -19t-8.5 -32l-15 -89
q-13 -70 -37 -112.5t-70 -63.5q36 -23 45.5 -65t-1.5 -108l-15 -86q-3 -20 -3 -31.5t6 -18.5t18.5 -9t33.5 -2l-28 -157h-11z" />
    <glyph glyph-name="braceright.cap" unicode="&#xe496;" horiz-adv-x="416" 
d="M10 37q20 0 33 2t21.5 9t13 18.5t7.5 31.5l15 87q12 70 36.5 111.5t70.5 63.5q-37 23 -46.5 65t1.5 108l16 89q3 20 3 32t-5.5 19t-18 9t-33.5 2l27 156h11q63 0 104 -11t62.5 -36.5t25.5 -67t-7 -102.5l-16 -89q-5 -30 -5.5 -49.5t7 -30t24.5 -14.5t47 -4l-27 -155
q-31 0 -49.5 -4t-29.5 -15t-17 -29.5t-11 -48.5l-16 -87q-11 -61 -29.5 -102.5t-49.5 -67t-75.5 -36.5t-106.5 -11h-11z" />
    <glyph glyph-name="anglebracketleft.cap" unicode="&#xe497;" horiz-adv-x="437" 
d="M57 375l260 466h189l-274 -486l109 -475h-173z" />
    <glyph glyph-name="anglebracketright.cap" unicode="&#xe498;" horiz-adv-x="437" 
d="M242 366l-108 475h173l111 -495l-260 -466h-189z" />
    <glyph glyph-name="a.alt" unicode="&#xe4c0;" horiz-adv-x="591" 
d="M169 -11q-43 0 -76.5 13.5t-55 37.5t-30.5 57t-2 73q7 43 29 73.5t55.5 49.5t77 27.5t94.5 8.5h133l1 4q3 16 0.5 31t-12 26t-26.5 18t-42 7q-36 0 -59.5 -16t-41.5 -45l-164 75q59 63 126.5 92.5t148.5 29.5q62 0 110 -15.5t78 -46t41 -76t0 -106.5l-54 -307h-163l15 83
q-26 -44 -75.5 -69t-107.5 -25zM235 121q39 0 74 19t58 51l4 26h-108q-34 0 -56.5 -13t-26.5 -36t11 -35t44 -12z" />
    <glyph glyph-name="lowline" unicode="&#xe511;" horiz-adv-x="473" 
d="M33 143h370l-25 -143h-371z" />
    <glyph glyph-name="underscoremonospace" unicode="&#xe512;" horiz-adv-x="633" 
d="M1 -49h534l-25 -143h-534z" />
    <glyph glyph-name="underscoremonospace" unicode="&#xff3f;" horiz-adv-x="633" 
d="M1 -49h534l-25 -143h-534z" />
    <glyph glyph-name="at.cap" unicode="&#xe513;" horiz-adv-x="830" 
d="M399 -10q-84 0 -151.5 33t-112 89.5t-63 130.5t-4.5 157q12 69 47.5 131t90 108.5t124 73.5t149.5 27q66 0 132 -26t115 -74t74.5 -116.5t10.5 -154.5q-15 -85 -67.5 -133t-132.5 -48q-41 0 -66.5 12t-39.5 30q-18 -19 -43.5 -29.5t-60.5 -10.5q-39 0 -70 15.5t-51 42
t-28 62t-1 76.5q7 38 24.5 67.5t41 50t52 31.5t57.5 11q55 0 85 -35q2 13 3 20q1 4 2 9h125l-34 -178q-5 -22 1 -33.5t26 -11.5q13 0 22 8t15.5 20t10 25t5.5 23q9 52 -7 94.5t-48 72t-75.5 45.5t-89.5 16q-50 0 -95.5 -19t-81.5 -50.5t-60 -73.5t-31 -87q-9 -54 2 -103.5
t39 -88t71 -61.5t98 -23q25 0 44.5 3.5t36.5 11t32.5 18.5t33.5 27l106 -81q-48 -47 -110.5 -75.5t-152.5 -28.5zM430 307q27 0 44.5 17t22.5 43q5 28 -10 47.5t-40 19.5q-27 0 -46 -17.5t-24 -42.5q-5 -27 11 -47t42 -20z" />
    <glyph glyph-name="zero.LT" unicode="&#xe53f;" horiz-adv-x="638" 
d="M296 -10q-75 0 -127.5 25t-82 71t-36.5 111t8 145l18 102q29 155 103.5 225.5t192.5 70.5q76 0 128 -25t81.5 -70.5t36.5 -110t-5 -143.5l-20 -116q-12 -63 -35.5 -115.5t-60 -90t-86.5 -58.5t-115 -21zM305 156q51 0 78 36t39 110l20 111q16 87 -4 125t-74 38
q-25 0 -43.5 -8.5t-32 -27.5t-23.5 -50t-19 -75l-15 -84q-18 -97 1 -136t73 -39z" />
    <glyph glyph-name="one.LT" unicode="&#xe541;" horiz-adv-x="638" 
d="M44 163h173l58 331q-18 -28 -50.5 -45t-74.5 -17h-11l31 178h6q35 0 61.5 10.5t45 27.5t29 38.5t13.5 43.5h166l-100 -567h172l-28 -163h-520z" />
    <glyph glyph-name="two.LT" unicode="&#xe542;" horiz-adv-x="638" 
d="M41 143q9 49 34 88t59.5 69.5t74.5 54.5t79 45q30 15 57 29.5t48.5 29t35.5 29.5t17 32q7 31 -15.5 50.5t-60.5 19.5q-42 0 -72 -27t-44 -68l-148 72q36 83 108 128t164 45q58 0 106 -18t80.5 -50.5t46.5 -77.5t4 -98q-7 -40 -29 -71.5t-52.5 -57t-67 -46.5t-72.5 -40
q-28 -15 -54 -28.5t-47.5 -28t-37 -29.5t-22.5 -32h330l-29 -163h-518z" />
    <glyph glyph-name="three.LT" unicode="&#xe543;" horiz-adv-x="638" 
d="M288 -10q-57 0 -102.5 10t-81.5 28.5t-64.5 44t-51.5 56.5l161 96q19 -40 57.5 -60t84.5 -20q52 0 84 18t37 54q6 35 -21.5 58t-77.5 23h-109l27 155h104q51 0 79 18t34 50t-20 54t-77 22q-54 0 -87.5 -19.5t-54.5 -47.5l-134 95q45 52 113 83.5t173 31.5q64 0 115 -17
t84.5 -48.5t47.5 -75.5t5 -98q-15 -86 -107 -131q45 -32 66 -79t10 -110q-17 -88 -90 -139.5t-204 -51.5z" />
    <glyph glyph-name="four.LT" unicode="&#xe544;" horiz-adv-x="638" 
d="M327 154h-307l27 155l368 421h179l-75 -426h92l-27 -150h-91l-27 -154h-166zM353 304l30 167l-147 -167h117z" />
    <glyph glyph-name="five.LT" unicode="&#xe545;" horiz-adv-x="638" 
d="M283 -10q-46 0 -89 12.5t-78 35t-61 54t-39 68.5l177 70q8 -35 36 -56t66 -21q44 0 75.5 25t38.5 66q7 52 -17 82t-76 30q-40 0 -66 -18.5t-49 -50.5l-141 54l112 389h456l-28 -162h-314l-28 -99q23 17 53 27t69 10q54 0 96 -22.5t69 -60.5t37 -88.5t0 -105.5
q-10 -56 -35 -100t-63.5 -75t-89 -47.5t-111.5 -16.5z" />
    <glyph glyph-name="six.LT" unicode="&#xe546;" horiz-adv-x="638" 
d="M314 -10q-63 0 -113 20t-84 60q-43 51 -56.5 134.5t1.5 180.5q16 95 50.5 162.5t82 110t107 62.5t125.5 20q143 0 213 -67l-116 -125q-14 17 -42.5 28t-65.5 11q-72 0 -119.5 -38t-70.5 -121q27 35 66 51t90 16t93 -22.5t70 -60.5t39.5 -87.5t1.5 -104.5
q-8 -45 -29.5 -87t-56 -73.5t-81 -50.5t-105.5 -19zM316 147q43 0 72.5 26t34.5 63q4 22 0 42t-16 35t-31.5 24t-44.5 9q-43 0 -73 -23.5t-36 -58.5q-5 -24 0 -45.5t18 -37.5t32.5 -25t43.5 -9z" />
    <glyph glyph-name="seven.LT" unicode="&#xe547;" horiz-adv-x="638" 
d="M442 568h-341l29 162h531l-26 -148l-369 -582h-201z" />
    <glyph glyph-name="eight.LT" unicode="&#xe548;" horiz-adv-x="638" 
d="M293 -10q-68 0 -119.5 18t-85 51t-46.5 80.5t-3 106.5q9 51 39.5 91t76.5 66q-27 29 -40 67t-4 84q7 40 27.5 74t54 59t79 39t104.5 14q63 0 111.5 -18.5t79.5 -50t43.5 -74t3.5 -91.5q-8 -47 -32.5 -80t-60.5 -56q35 -31 52.5 -74t9.5 -94q-17 -100 -91 -156t-199 -56z
M306 141q55 0 81.5 21.5t33.5 56.5q8 42 -19 67.5t-84 25.5q-50 0 -80.5 -22t-36.5 -56q-8 -42 18.5 -67.5t86.5 -25.5zM354 452q52 0 76 17t29 47q6 32 -15.5 56.5t-75.5 24.5q-45 0 -70.5 -18.5t-31.5 -47.5q-7 -34 17.5 -56.5t70.5 -22.5z" />
    <glyph glyph-name="nine.LT" unicode="&#xe549;" horiz-adv-x="638" 
d="M239 -15q-72 0 -127.5 20t-90.5 54l116 125q14 -17 45 -31.5t68 -14.5q80 0 125.5 45.5t65.5 134.5q-26 -40 -66.5 -57.5t-92.5 -17.5q-50 0 -91.5 21.5t-69.5 58.5t-39.5 85t-2.5 102q8 44 29.5 85t55 72t80.5 49.5t106 18.5q58 0 109.5 -19.5t83.5 -59.5
q46 -57 58 -133t-3 -180q-16 -92 -47.5 -159.5t-77 -111.5t-104.5 -65.5t-130 -21.5zM331 390q46 0 74 23.5t34 57.5q5 24 -0.5 45t-18.5 36t-32.5 23.5t-43.5 8.5q-21 0 -39 -7t-32.5 -19t-23.5 -28t-12 -34q-4 -21 1 -40t17.5 -34t31.5 -23.5t44 -8.5z" />
    <glyph glyph-name="zero.inf" unicode="&#xe571;" horiz-adv-x="478" 
d="M169 -217q-43 0 -77 13t-56 38.5t-30.5 64t0.5 88.5l10 59q15 87 68.5 129t127.5 42q45 0 79 -15t55.5 -42t29.5 -64t0 -81l-12 -67q-14 -78 -62.5 -121.5t-132.5 -43.5zM176 -101q28 0 43 16t21 48l11 58q8 44 -4 64.5t-41 20.5q-27 0 -43 -16.5t-24 -59.5l-9 -51
q-7 -40 6 -60t40 -20z" />
    <glyph glyph-name="one.inf" unicode="&#xe572;" horiz-adv-x="327" 
d="M46 -210l44 249q-17 -27 -39.5 -34.5t-51.5 -7.5h-7l23 128h3q50 0 76 18t35 69h116l-74 -422h-125z" />
    <glyph glyph-name="two.inf" unicode="&#xe573;" horiz-adv-x="401" 
d="M-25 -119q5 30 20 53t35.5 41t44 31t44.5 24q30 15 52.5 26t25.5 26q5 27 -33 27q-23 0 -39.5 -16t-25.5 -40l-108 53q27 54 74.5 82.5t103.5 28.5q81 0 122 -42t30 -110q-4 -24 -17.5 -41.5t-32 -31t-39.5 -24.5t-40 -20q-23 -11 -43 -21t-31 -21h174l-20 -117h-313z
" />
    <glyph glyph-name="three.inf" unicode="&#xe574;" horiz-adv-x="402" 
d="M114 -217q-54 0 -97 17t-74 48l111 78q14 -15 30 -20.5t39 -5.5q37 0 42 24q2 11 -7 18t-30 7h-53l19 109h56q32 0 38 24q3 11 -7 18.5t-28 7.5q-26 0 -46 -10.5t-28 -22.5l-84 85q26 23 70.5 40t91.5 17q42 0 73.5 -11t51.5 -30t28.5 -45.5t3.5 -56.5q-9 -51 -54 -76
q21 -17 30.5 -42t3.5 -58q-5 -28 -20 -49.5t-39 -36t-55 -22t-66 -7.5z" />
    <glyph glyph-name="four.inf" unicode="&#xe575;" horiz-adv-x="429" 
d="M148 -133h-180l19 109l203 235h137l-43 -241h63l-19 -103h-62l-13 -78h-118zM166 -30l16 89l-72 -89h56z" />
    <glyph glyph-name="five.inf" unicode="&#xe576;" horiz-adv-x="406" 
d="M130 -217q-52 0 -93.5 21.5t-63.5 59.5l124 62q3 -11 13.5 -19t27.5 -8q18 0 29 9.5t13 22.5q3 17 -7.5 27t-28.5 10q-14 0 -25.5 -8t-16.5 -16l-103 46l68 221h259l-20 -114h-162l-17 -53q24 23 60 23q29 0 52.5 -10t39 -29.5t21.5 -47t0 -61.5q-14 -72 -59 -104
t-111 -32z" />
    <glyph glyph-name="six.inf" unicode="&#xe577;" horiz-adv-x="417" 
d="M144 -217q-39 0 -67.5 13.5t-48.5 36.5q-12 14 -20.5 30.5t-12.5 38t-3.5 50t7.5 66.5q9 51 29 88t48.5 62t64 37t75.5 12q48 0 78.5 -8.5t57.5 -26.5l-71 -96q-9 9 -27.5 15.5t-44.5 6.5q-36 0 -61.5 -17t-39.5 -58q14 20 38 32t60 12q28 0 51 -12t39 -32.5t22.5 -48
t0.5 -59.5q-6 -30 -18.5 -56t-34 -45t-52 -30t-70.5 -11zM154 -110q17 0 30.5 9.5t17.5 33.5q3 20 -7.5 34.5t-32.5 14.5q-17 0 -30.5 -11.5t-17.5 -28.5q-4 -21 7 -36.5t33 -15.5z" />
    <glyph glyph-name="seven.inf" unicode="&#xe578;" horiz-adv-x="364" 
d="M167 95h-168l20 116h302l-18 -106l-183 -316h-138z" />
    <glyph glyph-name="eight.inf" unicode="&#xe579;" horiz-adv-x="399" 
d="M131 -217q-39 0 -70.5 10.5t-52.5 30t-30 46.5t-3 61q5 29 23.5 52.5t46.5 38.5q-17 17 -24.5 39.5t-2.5 48.5q8 46 49 76.5t109 30.5q36 0 65 -11.5t47.5 -30.5t26.5 -44.5t3 -53.5t-19 -45.5t-34 -28.5q22 -19 32.5 -44.5t5.5 -54.5q-10 -58 -53.5 -89.5t-118.5 -31.5z
M138 -107q44 0 49 31q3 17 -8.5 28.5t-35.5 11.5q-20 0 -33 -9t-15 -23q-3 -16 8.5 -27.5t34.5 -11.5zM164 52q22 0 33.5 8.5t13.5 22.5t-7.5 24.5t-32.5 10.5q-20 0 -31 -8t-14 -21q-3 -16 7.5 -26.5t30.5 -10.5z" />
    <glyph glyph-name="nine.inf" unicode="&#xe57a;" horiz-adv-x="439" 
d="M124 -217q-45 0 -74.5 7.5t-53.5 23.5l72 98q17 -20 63 -20q38 0 64.5 19.5t40.5 67.5q-11 -21 -33.5 -34.5t-65.5 -13.5q-28 0 -52 12.5t-40.5 33.5t-23.5 48t-2 56q11 60 54.5 98t115.5 38q75 0 116 -46q24 -26 37.5 -72.5t0.5 -112.5q-9 -51 -28.5 -89t-48 -63.5
t-65 -38t-77.5 -12.5zM179 27q17 0 28.5 10t15.5 26q4 20 -6 33.5t-30 13.5q-16 0 -29 -8.5t-16 -29.5q-3 -18 7 -31.5t30 -13.5z" />
    <glyph glyph-name="plus.inf" unicode="&#xe57b;" horiz-adv-x="314" 
d="M14 50h56l10 56h102l-10 -56h56l-17 -101h-57l-10 -56h-101l9 56h-56z" />
    <glyph glyph-name="minus.inf" unicode="&#xe57c;" horiz-adv-x="314" 
d="M14 50h214l-17 -101h-215z" />
    <glyph glyph-name="equal.inf" unicode="&#xe57d;" horiz-adv-x="316" 
d="M23 102h215l-18 -101h-214zM3 -15h215l-18 -101h-216z" />
    <glyph glyph-name="parenleft.inf" unicode="&#xe57e;" horiz-adv-x="341" 
d="M122 -309q-75 69 -104.5 151t-10.5 185q9 51 28.5 94t47.5 79t63 65.5t73 53.5l76 -93q-68 -38 -108.5 -94t-51.5 -121q-12 -64 4 -121t76 -113z" />
    <glyph glyph-name="parenright.inf" unicode="&#xe57f;" horiz-adv-x="341" 
d="M134 318q75 -69 104 -150.5t11 -184.5q-9 -51 -28.5 -94t-47.5 -79t-63 -66t-73 -54l-76 94q68 38 108.5 94t51.5 121q12 64 -4 121t-76 113z" />
    <glyph glyph-name="Anocross" unicode="&#xe731;" horiz-adv-x="723" 
d="M363 730h168l139 -730h-173l-85 496l-262 -496h-188z" />
    <glyph glyph-name="idotaccent" unicode="&#xe785;" horiz-adv-x="263" 
d="M-1 0l96 540h169l-95 -540h-170zM195 585q-23 0 -41.5 8.5t-30 23.5t-16.5 34.5t-1 42.5q4 19 14 35.5t24.5 27.5t32.5 17.5t37 6.5q24 0 42.5 -9t30 -24t15.5 -35t0 -42q-8 -38 -35.5 -62t-71.5 -24z" />
    <glyph glyph-name="ohm" unicode="&#xe821;" horiz-adv-x="887" 
d="M452 158q34 33 62.5 62t50 58t36 59t20.5 65q6 37 0 68.5t-23 55t-44 37t-63 13.5q-31 0 -60 -12t-52 -34t-39.5 -51.5t-22.5 -63.5q-12 -69 10.5 -130t67.5 -126l-92 -159h-299l30 168h152q-27 51 -41.5 115t-0.5 141q12 69 43.5 127t78.5 100t108 66t132 24
q72 0 131 -27.5t98.5 -76t55.5 -114t3 -141.5q-13 -67 -44 -119.5t-71 -94.5h147l-30 -168h-300z" />
    <glyph glyph-name="aacute.alt" unicode="&#xe891;" horiz-adv-x="591" 
d="M169 -11q-43 0 -76.5 13.5t-55 37.5t-30.5 57t-2 73q7 43 29 73.5t55.5 49.5t77 27.5t94.5 8.5h133l1 4q3 16 0.5 31t-12 26t-26.5 18t-42 7q-36 0 -59.5 -16t-41.5 -45l-164 75q59 63 126.5 92.5t148.5 29.5q62 0 110 -15.5t78 -46t41 -76t0 -106.5l-54 -307h-163l15 83
q-26 -44 -75.5 -69t-107.5 -25zM235 121q39 0 74 19t58 51l4 26h-108q-34 0 -56.5 -13t-26.5 -36t11 -35t44 -12zM417 780h170l-187 -177h-126z" />
    <glyph glyph-name="agrave.alt" unicode="&#xe892;" horiz-adv-x="591" 
d="M169 -11q-43 0 -76.5 13.5t-55 37.5t-30.5 57t-2 73q7 43 29 73.5t55.5 49.5t77 27.5t94.5 8.5h133l1 4q3 16 0.5 31t-12 26t-26.5 18t-42 7q-36 0 -59.5 -16t-41.5 -45l-164 75q59 63 126.5 92.5t148.5 29.5q62 0 110 -15.5t78 -46t41 -76t0 -106.5l-54 -307h-163l15 83
q-26 -44 -75.5 -69t-107.5 -25zM235 121q39 0 74 19t58 51l4 26h-108q-34 0 -56.5 -13t-26.5 -36t11 -35t44 -12zM170 783h162l80 -177h-119z" />
    <glyph glyph-name="acircumflex.alt" unicode="&#xe893;" horiz-adv-x="591" 
d="M169 -11q-43 0 -76.5 13.5t-55 37.5t-30.5 57t-2 73q7 43 29 73.5t55.5 49.5t77 27.5t94.5 8.5h133l1 4q3 16 0.5 31t-12 26t-26.5 18t-42 7q-36 0 -59.5 -16t-41.5 -45l-164 75q59 63 126.5 92.5t148.5 29.5q62 0 110 -15.5t78 -46t41 -76t0 -106.5l-54 -307h-163l15 83
q-26 -44 -75.5 -69t-107.5 -25zM235 121q39 0 74 19t58 51l4 26h-108q-34 0 -56.5 -13t-26.5 -36t11 -35t44 -12zM336 784h103l87 -177h-120l-33 76l-61 -76h-126z" />
    <glyph glyph-name="adieresis.alt" unicode="&#xe894;" horiz-adv-x="591" 
d="M169 -11q-43 0 -76.5 13.5t-55 37.5t-30.5 57t-2 73q7 43 29 73.5t55.5 49.5t77 27.5t94.5 8.5h133l1 4q3 16 0.5 31t-12 26t-26.5 18t-42 7q-36 0 -59.5 -16t-41.5 -45l-164 75q59 63 126.5 92.5t148.5 29.5q62 0 110 -15.5t78 -46t41 -76t0 -106.5l-54 -307h-163l15 83
q-26 -44 -75.5 -69t-107.5 -25zM235 121q39 0 74 19t58 51l4 26h-108q-34 0 -56.5 -13t-26.5 -36t11 -35t44 -12zM236 593q-22 0 -39 8t-28 22.5t-15 33t-1 39.5q7 38 36 60.5t66 22.5q45 0 67.5 -31t13.5 -73q-7 -36 -32.5 -59t-67.5 -23zM457 593q-22 0 -39 8t-27.5 22.5
t-15 33t-0.5 39.5q6 38 35 60.5t66 22.5q45 0 68 -31t14 -73q-8 -36 -33.5 -59t-67.5 -23z" />
    <glyph glyph-name="amacron.alt" unicode="&#xe895;" horiz-adv-x="591" 
d="M169 -11q-43 0 -76.5 13.5t-55 37.5t-30.5 57t-2 73q7 43 29 73.5t55.5 49.5t77 27.5t94.5 8.5h133l1 4q3 16 0.5 31t-12 26t-26.5 18t-42 7q-36 0 -59.5 -16t-41.5 -45l-164 75q59 63 126.5 92.5t148.5 29.5q62 0 110 -15.5t78 -46t41 -76t0 -106.5l-54 -307h-163l15 83
q-26 -44 -75.5 -69t-107.5 -25zM235 121q39 0 74 19t58 51l4 26h-108q-34 0 -56.5 -13t-26.5 -36t11 -35t44 -12zM234 719h264l-21 -113h-264z" />
    <glyph glyph-name="abreve.alt" unicode="&#xe896;" horiz-adv-x="591" 
d="M169 -11q-43 0 -76.5 13.5t-55 37.5t-30.5 57t-2 73q7 43 29 73.5t55.5 49.5t77 27.5t94.5 8.5h133l1 4q3 16 0.5 31t-12 26t-26.5 18t-42 7q-36 0 -59.5 -16t-41.5 -45l-164 75q59 63 126.5 92.5t148.5 29.5q62 0 110 -15.5t78 -46t41 -76t0 -106.5l-54 -307h-163l15 83
q-26 -44 -75.5 -69t-107.5 -25zM235 121q39 0 74 19t58 51l4 26h-108q-34 0 -56.5 -13t-26.5 -36t11 -35t44 -12zM351 601q-84 0 -118.5 50t-20.5 128h107q-8 -39 4.5 -57t39.5 -19q26 1 44 19t26 57h107q-14 -78 -61 -128t-128 -50z" />
    <glyph glyph-name="aring.alt" unicode="&#xe897;" horiz-adv-x="591" 
d="M169 -11q-43 0 -76.5 13.5t-55 37.5t-30.5 57t-2 73q7 43 29 73.5t55.5 49.5t77 27.5t94.5 8.5h133l1 4q3 16 0.5 31t-12 26t-26.5 18t-42 7q-36 0 -59.5 -16t-41.5 -45l-164 75q59 63 126.5 92.5t148.5 29.5q62 0 110 -15.5t78 -46t41 -76t0 -106.5l-54 -307h-163l15 83
q-26 -44 -75.5 -69t-107.5 -25zM235 121q39 0 74 19t58 51l4 26h-108q-34 0 -56.5 -13t-26.5 -36t11 -35t44 -12zM353 601q-30 0 -53 11.5t-37 31t-19 44.5t1 52q9 43 45 72.5t85 29.5q30 0 53 -11.5t37.5 -31t19.5 -44t-1 -51.5q-10 -45 -44 -74t-87 -29zM359 674
q18 0 32 10.5t18 30.5q5 23 -6 39.5t-34 16.5q-17 0 -31 -11.5t-18 -30.5q-5 -23 5.5 -39t33.5 -16z" />
    <glyph glyph-name="atilde.alt" unicode="&#xe898;" horiz-adv-x="591" 
d="M169 -11q-43 0 -76.5 13.5t-55 37.5t-30.5 57t-2 73q7 43 29 73.5t55.5 49.5t77 27.5t94.5 8.5h133l1 4q3 16 0.5 31t-12 26t-26.5 18t-42 7q-36 0 -59.5 -16t-41.5 -45l-164 75q59 63 126.5 92.5t148.5 29.5q62 0 110 -15.5t78 -46t41 -76t0 -106.5l-54 -307h-163l15 83
q-26 -44 -75.5 -69t-107.5 -25zM235 121q39 0 74 19t58 51l4 26h-108q-34 0 -56.5 -13t-26.5 -36t11 -35t44 -12zM179 606q11 69 47 110t88 41q28 0 45 -7.5t31 -15.5q11 -8 20.5 -15t20.5 -7q21 0 25 42h95q-11 -69 -45.5 -110.5t-88.5 -41.5q-29 0 -46.5 8.5t-31.5 17.5
q-11 7 -20 12.5t-20 5.5q-22 0 -26 -40h-94z" />
    <glyph glyph-name="aogonek.alt" unicode="&#xe899;" horiz-adv-x="591" 
d="M402 -238q-39 0 -68.5 10t-47.5 27.5t-25 40t-2 48.5q5 31 24 58.5t55 57.5l14 79q-26 -44 -75.5 -69t-107.5 -25q-43 0 -76.5 13.5t-55 37.5t-30.5 57t-2 73q7 43 29 73.5t55.5 49.5t77 27.5t94.5 8.5h133l1 4q3 16 0.5 31t-12 26t-26.5 18t-42 7q-36 0 -59.5 -16
t-41.5 -45l-164 75q59 63 126.5 92.5t148.5 29.5q62 0 110 -15.5t78 -46t41 -76t0 -106.5l-54 -307q-37 -26 -59 -44t-34 -30.5t-16.5 -21.5t-5.5 -18q-2 -12 6 -17.5t21 -5.5q16 0 28.5 9t23.5 20l95 -63q-30 -28 -70.5 -47.5t-86.5 -19.5zM235 121q39 0 74 19t58 51l4 26
h-108q-34 0 -56.5 -13t-26.5 -36t11 -35t44 -12z" />
    <glyph glyph-name="ordfeminine.alt" unicode="&#xe926;" horiz-adv-x="440" 
d="M182 412q-50 0 -78 27t-20 74q9 50 54 72.5t109 22.5h74l1 2q3 19 -11.5 28t-37.5 9q-22 0 -36 -8t-24 -23l-101 56q35 35 77.5 50t96.5 15q34 0 64 -8.5t51.5 -26t31 -44t3.5 -62.5l-32 -179h-116l9 49q-17 -25 -48.5 -39.5t-66.5 -14.5zM233 495q20 0 43 11t34 31v3
h-59q-17 0 -29.5 -5.5t-14.5 -16.5q-5 -23 26 -23z" />
    <glyph glyph-name="interrobangdown" unicode="&#xe935;" horiz-adv-x="588" 
d="M239 -241q-61 0 -108 19t-78 50.5t-44 72t-5 84.5q8 46 27 73t43.5 44.5t51.5 29.5t51 28.5t42.5 41t25.5 67.5l2 12h112q0 -3 -1 -11.5t-1 -12.5q-5 -38 -13 -86.5t-18 -99t-19 -97.5t-15 -80q21 8 37.5 25t27.5 45l134 -70q-42 -69 -103.5 -102t-148.5 -33zM334 511
q46 0 71 -32t15 -79q-7 -38 -35 -62t-72 -24q-24 0 -41.5 9t-29 24t-15.5 34.5t0 41.5q7 39 36.5 63.5t70.5 24.5zM148 -33q-4 -19 4 -35t25 -27q14 68 32 137q-23 -15 -39.5 -30.5t-21.5 -44.5z" />
    <glyph glyph-name="interrobangdown.cap" unicode="&#xe99b;" horiz-adv-x="588" 
d="M281 -10q-61 0 -108 19t-78 50.5t-43.5 72t-4.5 84.5q8 46 26.5 73t43 44t51.5 29.5t51 28.5t42.5 40.5t25.5 67.5l2 12h112q0 -2 -1 -11t-1 -12q-5 -38 -13 -86.5t-18 -99t-19 -97.5t-15 -80q21 8 37.5 25t27.5 45l134 -70q-42 -69 -103.5 -102t-148.5 -33zM355 545
q-24 0 -41.5 9t-29 24t-15.5 34.5t0 40.5q7 40 36.5 64t70.5 24q23 0 41 -8.5t29.5 -23.5t16 -35t-0.5 -43q-7 -38 -35 -62t-72 -24zM190 198q-4 -19 4 -35.5t25 -27.5q14 68 32 137q-23 -14 -39.5 -29.5t-21.5 -44.5z" />
    <glyph glyph-name="registered.cap" unicode="&#xe99c;" horiz-adv-x="841" 
d="M410 -10q-86 0 -155 33.5t-114.5 90t-65 130.5t-5.5 156q12 72 48.5 134.5t90 108t121.5 71.5t143 26q85 0 153.5 -33.5t114.5 -90t65.5 -130.5t5.5 -156q-12 -72 -47.5 -134t-89 -107.5t-121 -72t-144.5 -26.5zM212 387q-9 -51 1.5 -98t39.5 -83l59 338h171
q43 0 73.5 -12.5t49 -32.5t25.5 -45.5t3 -51.5q-14 -73 -80 -98l39 -108q61 60 78 149q9 51 -2 98t-39 83t-70.5 57.5t-96.5 21.5q-50 0 -92 -17t-74.5 -46.5t-54.5 -69t-30 -85.5zM423 127q48 0 89.5 17t73.5 46h-133l-43 153l-27 -153h-116q28 -29 67 -46t89 -17zM427 436
l-12 -63h34q19 0 32.5 7.5t15.5 24.5q3 17 -8 24t-30 7h-32z" />
    <glyph glyph-name="Aumlaut" unicode="&#xf176;" horiz-adv-x="723" 
d="M167 553q-22 0 -39 8t-28 22.5t-15 33t-1 39.5q7 38 36 60.5t66 22.5q45 0 67.5 -31t13.5 -73q-7 -36 -32.5 -59t-67.5 -23zM669 553q-22 0 -39 8t-27.5 22.5t-15 33t-0.5 39.5q6 38 35 60.5t66 22.5q45 0 68 -31t14 -73q-8 -36 -33.5 -59t-67.5 -23zM363 730h168
l139 -730h-168l-20 114h-277l-60 -114h-183zM286 266h170l-41 244z" />
    <glyph glyph-name="Oumlaut" unicode="&#xf177;" horiz-adv-x="829" 
d="M138 634q-23 0 -36 17t-9 40q3 20 19 32.5t36 12.5q25 0 37 -16.5t7 -39.5q-3 -20 -17 -33t-37 -13zM771 634q-24 0 -36.5 17t-7.5 40q3 20 19 32.5t36 12.5q25 0 37 -16.5t7 -39.5q-5 -20 -18.5 -33t-36.5 -13zM400 -10q-86 0 -155 33.5t-114.5 90t-65 130.5t-5.5 156
q12 72 48.5 134.5t90 108t121.5 71.5t143 26q85 0 153.5 -33.5t114.5 -90t65.5 -130.5t5.5 -156q-12 -72 -47.5 -134.5t-88 -108t-120.5 -71.5t-146 -26zM414 162q42 0 77.5 14t63.5 39t46 58.5t25 72.5q8 44 -1.5 84.5t-33.5 71t-60.5 49t-83.5 18.5q-42 0 -77.5 -14.5
t-63 -39t-46 -58.5t-25.5 -73q-8 -44 1.5 -84t33.5 -70.5t60.5 -49t83.5 -18.5z" />
    <glyph glyph-name="Uumlaut" unicode="&#xf178;" horiz-adv-x="703" 
d="M344 556q-26 0 -32.5 29t1.5 69q6 35 19 56.5t40 21.5q29 0 35.5 -29t-2.5 -69q-7 -35 -19 -56.5t-42 -21.5zM460 556q-26 0 -32.5 29t0.5 69q6 35 19.5 56.5t39.5 21.5q29 0 35.5 -29t-1.5 -69q-7 -35 -18.5 -56.5t-42.5 -21.5zM317 -10q-62 0 -115 19t-90.5 56t-54 91
t-4.5 123l80 451h177l-82 -443q-12 -63 16.5 -101.5t83.5 -38.5q62 0 99.5 36.5t47.5 89.5l81 457h177l-81 -453q-12 -66 -38.5 -119.5t-68 -90.5t-98.5 -57t-130 -20z" />
    <glyph glyph-name="period.T" unicode="&#xf182;" horiz-adv-x="327" 
d="M123 -11q-23 0 -41 8.5t-29.5 23.5t-16 35t-0.5 42q7 40 37.5 64t69.5 24q24 0 42 -9t29.5 -24t15.5 -35t-1 -42q-8 -38 -34.5 -62.5t-71.5 -24.5z" />
    <glyph glyph-name="comma.T" unicode="&#xf183;" horiz-adv-x="327" 
d="M32 -107q58 41 90 77.5t40 75.5q-19 -43 -61 -43q-15 0 -28.5 6t-23 17.5t-14 28t-0.5 37.5q8 45 39.5 69.5t76.5 24.5q26 0 46 -10.5t32.5 -28t17 -41t-0.5 -49.5q-7 -34 -22.5 -63t-37.5 -54.5t-50 -49t-61 -46.5z" />
    <glyph glyph-name="colon.T" unicode="&#xf184;" horiz-adv-x="327" 
d="M123 -11q-23 0 -41 8.5t-29.5 23.5t-16 35t-0.5 42q7 40 37.5 64t69.5 24q24 0 42 -9t29.5 -24t15.5 -35t-1 -42q-8 -38 -34.5 -62.5t-71.5 -24.5zM180 315q-23 0 -41 8.5t-29.5 23.5t-16 34.5t-0.5 42.5q7 39 37.5 63.5t70.5 24.5q24 0 42 -9t29 -24t15 -35.5t0 -42.5
q-8 -38 -35 -62t-72 -24z" />
    <glyph glyph-name="semicolon.T" unicode="&#xf185;" horiz-adv-x="327" 
d="M24 -107q58 41 90 77.5t40 75.5q-19 -43 -61 -43q-15 0 -28.5 6t-23 17.5t-14 28t-0.5 37.5q8 45 39.5 69.5t76.5 24.5q26 0 46 -10.5t32.5 -28t17 -41t-0.5 -49.5q-7 -34 -22.5 -63t-37.5 -54.5t-50 -49t-61 -46.5zM181 316q-23 0 -41 8.5t-29.5 23.5t-16 34.5
t-0.5 41.5q7 40 37.5 64t70.5 24q24 0 42 -9t29 -24t15 -35t0 -42q-8 -38 -35 -62t-72 -24z" />
    <glyph glyph-name="onesixteenth" unicode="&#xf215;" horiz-adv-x="1197" 
d="M667 730h197l-646 -730h-198zM136 309l44 249q-17 -27 -39.5 -34.5t-51.5 -7.5h-7l23 128h3q50 0 76 18t35 69h116l-74 -422h-125zM583 0l44 249q-17 -27 -39.5 -34.5t-51.5 -7.5h-7l23 128h3q50 0 76 18t35 69h116l-74 -422h-125zM959 -6q-39 0 -67.5 13.5t-48.5 36.5
q-12 14 -20.5 30.5t-12.5 38t-3.5 50t7.5 66.5q9 51 29 88t48.5 62t64 37t75.5 12q48 0 78.5 -8.5t57.5 -26.5l-71 -96q-9 9 -27.5 15.5t-44.5 6.5q-36 0 -61.5 -17t-39.5 -58q14 20 38 32t60 12q28 0 51 -12t39 -32.5t22.5 -48t0.5 -59.5q-6 -30 -18.5 -56t-34 -45t-52 -30
t-70.5 -11zM969 101q17 0 30.5 9.5t17.5 33.5q3 20 -7.5 34.5t-32.5 14.5q-17 0 -30.5 -11.5t-17.5 -28.5q-4 -21 7 -36.5t33 -15.5z" />
    <glyph glyph-name="threesixteenths" unicode="&#xf216;" horiz-adv-x="1272" 
d="M203 302q-54 0 -97 17t-74 48l111 78q14 -15 30 -20.5t39 -5.5q37 0 42 24q2 11 -7 18t-30 7h-53l19 109h56q32 0 38 24q3 11 -7 18.5t-28 7.5q-26 0 -46 -10.5t-28 -22.5l-84 85q26 23 70.5 40t91.5 17q42 0 73.5 -11t51.5 -30t28.5 -45.5t3.5 -56.5q-9 -51 -54 -76
q21 -17 30.5 -42t3.5 -58q-5 -28 -20 -49.5t-39 -36t-55 -22t-66 -7.5zM742 730h197l-646 -730h-198zM658 0l44 249q-17 -27 -39.5 -34.5t-51.5 -7.5h-7l23 128h3q50 0 76 18t35 69h116l-74 -422h-125zM1034 -6q-39 0 -67.5 13.5t-48.5 36.5q-12 14 -20.5 30.5t-12.5 38
t-3.5 50t7.5 66.5q9 51 29 88t48.5 62t64 37t75.5 12q48 0 78.5 -8.5t57.5 -26.5l-71 -96q-9 9 -27.5 15.5t-44.5 6.5q-36 0 -61.5 -17t-39.5 -58q14 20 38 32t60 12q28 0 51 -12t39 -32.5t22.5 -48t0.5 -59.5q-6 -30 -18.5 -56t-34 -45t-52 -30t-70.5 -11zM1044 101
q17 0 30.5 9.5t17.5 33.5q3 20 -7.5 34.5t-32.5 14.5q-17 0 -30.5 -11.5t-17.5 -28.5q-4 -21 7 -36.5t33 -15.5z" />
    <glyph glyph-name="fivesixteenths" unicode="&#xf217;" horiz-adv-x="1279" 
d="M665 0l44 249q-17 -27 -39.5 -34.5t-51.5 -7.5h-7l23 128h3q50 0 76 18t35 69h116l-74 -422h-125zM1041 -6q-39 0 -67.5 13.5t-48.5 36.5q-12 14 -20.5 30.5t-12.5 38t-3.5 50t7.5 66.5q9 51 29 88t48.5 62t64 37t75.5 12q48 0 78.5 -8.5t57.5 -26.5l-71 -96
q-9 9 -27.5 15.5t-44.5 6.5q-36 0 -61.5 -17t-39.5 -58q14 20 38 32t60 12q28 0 51 -12t39 -32.5t22.5 -48t0.5 -59.5q-6 -30 -18.5 -56t-34 -45t-52 -30t-70.5 -11zM1051 101q17 0 30.5 9.5t17.5 33.5q3 20 -7.5 34.5t-32.5 14.5q-17 0 -30.5 -11.5t-17.5 -28.5
q-4 -21 7 -36.5t33 -15.5zM219 302q-52 0 -93.5 21.5t-63.5 59.5l124 62q3 -11 13.5 -19t27.5 -8q18 0 29 9.5t13 22.5q3 17 -7.5 27t-28.5 10q-14 0 -25.5 -8t-16.5 -16l-103 46l68 221h259l-20 -114h-162l-17 -53q24 23 60 23q29 0 52.5 -10t39 -29.5t21.5 -47t0 -61.5
q-14 -72 -59 -104t-111 -32zM749 730h197l-646 -730h-198z" />
    <glyph glyph-name="sevensixteenths" unicode="&#xf218;" horiz-adv-x="1182" 
d="M259 614h-168l20 116h302l-18 -106l-183 -316h-138zM652 730h197l-646 -730h-198zM568 0l44 249q-17 -27 -39.5 -34.5t-51.5 -7.5h-7l23 128h3q50 0 76 18t35 69h116l-74 -422h-125zM944 -6q-39 0 -67.5 13.5t-48.5 36.5q-12 14 -20.5 30.5t-12.5 38t-3.5 50t7.5 66.5
q9 51 29 88t48.5 62t64 37t75.5 12q48 0 78.5 -8.5t57.5 -26.5l-71 -96q-9 9 -27.5 15.5t-44.5 6.5q-36 0 -61.5 -17t-39.5 -58q14 20 38 32t60 12q28 0 51 -12t39 -32.5t22.5 -48t0.5 -59.5q-6 -30 -18.5 -56t-34 -45t-52 -30t-70.5 -11zM954 101q17 0 30.5 9.5t17.5 33.5
q3 20 -7.5 34.5t-32.5 14.5q-17 0 -30.5 -11.5t-17.5 -28.5q-4 -21 7 -36.5t33 -15.5z" />
    <glyph glyph-name="ninesixteenths" unicode="&#xf219;" horiz-adv-x="1282" 
d="M213 302q-45 0 -74.5 7.5t-53.5 23.5l72 98q17 -20 63 -20q38 0 64.5 19.5t40.5 67.5q-11 -21 -33.5 -34.5t-65.5 -13.5q-28 0 -52 12.5t-40.5 33.5t-23.5 48t-2 56q11 60 54.5 98t115.5 38q75 0 116 -46q24 -26 37.5 -72.5t0.5 -112.5q-9 -51 -28.5 -89t-48 -63.5
t-65 -38t-77.5 -12.5zM268 546q17 0 28.5 10t15.5 26q4 20 -6 33.5t-30 13.5q-16 0 -29 -8.5t-16 -29.5q-3 -18 7 -31.5t30 -13.5zM752 730h197l-646 -730h-198zM668 0l44 249q-17 -27 -39.5 -34.5t-51.5 -7.5h-7l23 128h3q50 0 76 18t35 69h116l-74 -422h-125zM1044 -6
q-39 0 -67.5 13.5t-48.5 36.5q-12 14 -20.5 30.5t-12.5 38t-3.5 50t7.5 66.5q9 51 29 88t48.5 62t64 37t75.5 12q48 0 78.5 -8.5t57.5 -26.5l-71 -96q-9 9 -27.5 15.5t-44.5 6.5q-36 0 -61.5 -17t-39.5 -58q14 20 38 32t60 12q28 0 51 -12t39 -32.5t22.5 -48t0.5 -59.5
q-6 -30 -18.5 -56t-34 -45t-52 -30t-70.5 -11zM1054 101q17 0 30.5 9.5t17.5 33.5q3 20 -7.5 34.5t-32.5 14.5q-17 0 -30.5 -11.5t-17.5 -28.5q-4 -21 7 -36.5t33 -15.5z" />
    <glyph glyph-name="elevensixteenths" unicode="&#xf220;" horiz-adv-x="1470" 
d="M940 730h197l-646 -730h-198zM409 309l44 249q-17 -27 -39.5 -34.5t-51.5 -7.5h-7l23 128h3q50 0 76 18t35 69h116l-74 -422h-125zM856 0l44 249q-17 -27 -39.5 -34.5t-51.5 -7.5h-7l23 128h3q50 0 76 18t35 69h116l-74 -422h-125zM1232 -6q-39 0 -67.5 13.5t-48.5 36.5
q-12 14 -20.5 30.5t-12.5 38t-3.5 50t7.5 66.5q9 51 29 88t48.5 62t64 37t75.5 12q48 0 78.5 -8.5t57.5 -26.5l-71 -96q-9 9 -27.5 15.5t-44.5 6.5q-36 0 -61.5 -17t-39.5 -58q14 20 38 32t60 12q28 0 51 -12t39 -32.5t22.5 -48t0.5 -59.5q-6 -30 -18.5 -56t-34 -45t-52 -30
t-70.5 -11zM1242 101q17 0 30.5 9.5t17.5 33.5q3 20 -7.5 34.5t-32.5 14.5q-17 0 -30.5 -11.5t-17.5 -28.5q-4 -21 7 -36.5t33 -15.5zM136 309l44 249q-17 -27 -39.5 -34.5t-51.5 -7.5h-7l23 128h3q50 0 76 18t35 69h116l-74 -422h-125z" />
    <glyph glyph-name="thirteensixteenths" unicode="&#xf221;" horiz-adv-x="1554" 
d="M485 302q-54 0 -97 17t-74 48l111 78q14 -15 30 -20.5t39 -5.5q37 0 42 24q2 11 -7 18t-30 7h-53l19 109h56q32 0 38 24q3 11 -7 18.5t-28 7.5q-26 0 -46 -10.5t-28 -22.5l-84 85q26 23 70.5 40t91.5 17q42 0 73.5 -11t51.5 -30t28.5 -45.5t3.5 -56.5q-9 -51 -54 -76
q21 -17 30.5 -42t3.5 -58q-5 -28 -20 -49.5t-39 -36t-55 -22t-66 -7.5zM1024 730h197l-646 -730h-198zM940 0l44 249q-17 -27 -39.5 -34.5t-51.5 -7.5h-7l23 128h3q50 0 76 18t35 69h116l-74 -422h-125zM1316 -6q-39 0 -67.5 13.5t-48.5 36.5q-12 14 -20.5 30.5t-12.5 38
t-3.5 50t7.5 66.5q9 51 29 88t48.5 62t64 37t75.5 12q48 0 78.5 -8.5t57.5 -26.5l-71 -96q-9 9 -27.5 15.5t-44.5 6.5q-36 0 -61.5 -17t-39.5 -58q14 20 38 32t60 12q28 0 51 -12t39 -32.5t22.5 -48t0.5 -59.5q-6 -30 -18.5 -56t-34 -45t-52 -30t-70.5 -11zM1326 101
q17 0 30.5 9.5t17.5 33.5q3 20 -7.5 34.5t-32.5 14.5q-17 0 -30.5 -11.5t-17.5 -28.5q-4 -21 7 -36.5t33 -15.5zM136 309l44 249q-17 -27 -39.5 -34.5t-51.5 -7.5h-7l23 128h3q50 0 76 18t35 69h116l-74 -422h-125z" />
    <glyph glyph-name="fifteensixteenths" unicode="&#xf222;" horiz-adv-x="1547" 
d="M933 0l44 249q-17 -27 -39.5 -34.5t-51.5 -7.5h-7l23 128h3q50 0 76 18t35 69h116l-74 -422h-125zM1309 -6q-39 0 -67.5 13.5t-48.5 36.5q-12 14 -20.5 30.5t-12.5 38t-3.5 50t7.5 66.5q9 51 29 88t48.5 62t64 37t75.5 12q48 0 78.5 -8.5t57.5 -26.5l-71 -96
q-9 9 -27.5 15.5t-44.5 6.5q-36 0 -61.5 -17t-39.5 -58q14 20 38 32t60 12q28 0 51 -12t39 -32.5t22.5 -48t0.5 -59.5q-6 -30 -18.5 -56t-34 -45t-52 -30t-70.5 -11zM1319 101q17 0 30.5 9.5t17.5 33.5q3 20 -7.5 34.5t-32.5 14.5q-17 0 -30.5 -11.5t-17.5 -28.5
q-4 -21 7 -36.5t33 -15.5zM136 309l44 249q-17 -27 -39.5 -34.5t-51.5 -7.5h-7l23 128h3q50 0 76 18t35 69h116l-74 -422h-125zM487 302q-52 0 -93.5 21.5t-63.5 59.5l124 62q3 -11 13.5 -19t27.5 -8q18 0 29 9.5t13 22.5q3 17 -7.5 27t-28.5 10q-14 0 -25.5 -8t-16.5 -16
l-103 46l68 221h259l-20 -114h-162l-17 -53q24 23 60 23q29 0 52.5 -10t39 -29.5t21.5 -47t0 -61.5q-14 -72 -59 -104t-111 -32zM1017 730h197l-646 -730h-198z" />
    <glyph glyph-name="aringacute.alt" unicode="&#xf458;" horiz-adv-x="591" 
d="M169 -11q-43 0 -76.5 13.5t-55 37.5t-30.5 57t-2 73q7 43 29 73.5t55.5 49.5t77 27.5t94.5 8.5h133l1 4q3 16 0.5 31t-12 26t-26.5 18t-42 7q-36 0 -59.5 -16t-41.5 -45l-164 75q59 63 126.5 92.5t148.5 29.5q62 0 110 -15.5t78 -46t41 -76t0 -106.5l-54 -307h-163l15 83
q-26 -44 -75.5 -69t-107.5 -25zM235 121q39 0 74 19t58 51l4 26h-108q-34 0 -56.5 -13t-26.5 -36t11 -35t44 -12zM353 601q-30 0 -53 11.5t-37 31t-19 44.5t1 52q9 43 45 72.5t85 29.5q30 0 53 -11.5t37.5 -31t19.5 -44t-1 -51.5q-10 -45 -44 -74t-87 -29zM359 674
q18 0 32 10.5t18 30.5q5 23 -6 39.5t-34 16.5q-17 0 -31 -11.5t-18 -30.5q-5 -23 5.5 -39t33.5 -16zM474 1072h170l-187 -177h-126z" />
    <glyph glyph-name="arrowdown.alt" unicode="&#xf459;" horiz-adv-x="1154" 
d="M907 86q-41 -20 -81.5 -47.5t-76.5 -61t-66.5 -71t-52.5 -76.5h-90q-25 39 -61 76t-75.5 68t-77.5 53t-67 30l70 145q46 -17 89 -49.5t78 -69.5l-1 709h171v-702q31 38 72.5 72.5t83.5 56.5zM858 890v-103l-169 -84v90zM472 704l-167 82v103l167 -96v-89zM858 636v-100
l-169 -75v86zM858 760v-99l-169 -79v85zM472 582l-167 78v99l167 -91v-86zM472 462l-167 73v100l167 -88v-85z" />
    </font>
</defs>
</svg>
