<?xml version="1.0" standalone="no"?>
<!DOCTYPE svg PUBLIC "-//W3C//DTD SVG 1.1//EN" "http://www.w3.org/Graphics/SVG/1.1/DTD/svg11.dtd" >
<svg xmlns="http://www.w3.org/2000/svg" xmlns:xlink="http://www.w3.org/1999/xlink" version="1.1">
<metadata>
Created by FontForge 20170731 at Sat Aug 20 04:21:40 2016
 By Aleksey,,,
Copyright (c) 2016 by Lucas Sharp. All rights reserved.
</metadata>
<defs>
<font id="SharpSans-ThinItalic" horiz-adv-x="523" >
  <font-face 
    font-family="Sharp Sans Thin"
    font-weight="280"
    font-style="italic"
    font-stretch="normal"
    units-per-em="1000"
    panose-1="0 0 0 0 0 0 0 0 0 0"
    ascent="800"
    descent="-200"
    x-height="540"
    cap-height="730"
    bbox="-146 -328 1339 1080"
    underline-thickness="50"
    underline-position="-150"
    unicode-range="U+000D-F472"
  />
<missing-glyph horiz-adv-x="726" 
d="M179 730h530l-128 -730h-530zM70 15h496l123 700h-496z" />
    <glyph glyph-name=".notdef" horiz-adv-x="726" 
d="M179 730h530l-128 -730h-530zM70 15h496l123 700h-496z" />
    <glyph glyph-name=".null" horiz-adv-x="0" 
 />
    <glyph glyph-name="nonmarkingreturn" unicode="&#xd;" horiz-adv-x="214" 
 />
    <glyph glyph-name="NULL" horiz-adv-x="0" 
 />
    <glyph glyph-name="NULL" horiz-adv-x="0" 
 />
    <glyph glyph-name="space" unicode=" " horiz-adv-x="214" 
 />
    <glyph glyph-name="exclam" unicode="!" horiz-adv-x="259" 
d="M94 144q3 17 8.5 49t12.5 73t14.5 88t15.5 93t15.5 89t13.5 77l20 117h18l-20 -117l-85 -469h-13zM77 -4q-11 0 -17.5 8t-4.5 19q2 9 9 15t17 6q13 0 18 -8.5t3 -19.5q-2 -8 -8.5 -14t-16.5 -6z" />
    <glyph glyph-name="quotedbl" unicode="&#x22;" horiz-adv-x="266" 
d="M120 500q1 10 3.5 29.5t6 41.5t6.5 42.5t5 32.5l15 84h17l-15 -84l-5.5 -33t-8 -42.5t-8.5 -41t-6 -29.5h-10zM207 500q1 10 3.5 29.5t6 41.5t6.5 42.5t5 32.5l15 84h17l-15 -84l-5.5 -33t-8 -42.5t-8.5 -41t-6 -29.5h-10z" />
    <glyph glyph-name="numbersign" unicode="#" horiz-adv-x="852" 
d="M543 237h-254l-41 -237h-17l41 237h-206l2 15h207l42 238h-206l2 15h206l40 225h17l-40 -225h254l40 225h17l-40 -225h216l-2 -15h-216l-42 -238h215l-2 -15h-216l-41 -237h-17zM292 252h254l42 238h-254z" />
    <glyph glyph-name="dollar" unicode="$" horiz-adv-x="596" 
d="M265 -10q-3 0 -6 0.5t-6 0.5l-19 -108h-17l19 109q-69 6 -115.5 40.5t-75.5 79.5l13 11q26 -42 70.5 -75t110.5 -41l66 376q-30 14 -62.5 32t-57 42.5t-37.5 58.5t-5 80q5 31 21.5 57t42.5 45.5t60.5 30.5t76.5 11q6 0 11.5 -0.5t11.5 -0.5l18 104h17l-19 -106
q51 -7 93 -32.5t70 -70.5l-13 -10q-26 44 -65.5 67.5t-87.5 29.5l-58 -328q35 -17 68.5 -38t58.5 -49.5t37 -65t4 -84.5q-7 -39 -26.5 -69.5t-49.5 -52t-68 -33t-81 -11.5zM473 156q7 43 -2.5 76.5t-31.5 59.5t-53 46.5t-66 37.5l-64 -370h12q39 0 74 11t62 31t45 47.5
t24 60.5zM159 592q-7 -41 5 -71t34.5 -52.5t51.5 -39t57 -29.5l57 323q-5 0 -11 0.5t-11 0.5q-78 0 -125 -36.5t-58 -95.5z" />
    <glyph glyph-name="percent" unicode="%" horiz-adv-x="875" 
d="M823 730h23l-755 -730h-23zM298 420q-37 0 -67 14.5t-50 39t-28 57t-2 69.5q6 31 21.5 57t37.5 44.5t49.5 28.5t56.5 10q36 0 66 -14.5t50.5 -39.5t29 -58t1.5 -70q-6 -31 -21.5 -56.5t-37.5 -43.5t-49.5 -28t-56.5 -10zM298 435q27 0 51.5 9.5t45 26t34.5 40t19 50.5
q5 31 -1.5 60.5t-24 52.5t-44.5 37t-62 14q-27 0 -52.5 -9.5t-45.5 -26.5t-34 -40.5t-18 -51.5q-5 -31 2 -60t24.5 -51.5t44 -36.5t61.5 -14zM594 -11q-37 0 -67 14.5t-50 39t-28 57t-2 69.5q6 31 21.5 57t37.5 44.5t49.5 28.5t56.5 10q36 0 66 -14.5t50.5 -39.5t29 -58
t1.5 -70q-6 -31 -21.5 -56.5t-37.5 -43.5t-49.5 -28t-56.5 -10zM594 4q27 0 51.5 9.5t45 26t34.5 40t19 50.5q5 31 -1.5 60.5t-24 52.5t-44.5 37t-62 14q-27 0 -52.5 -9.5t-45.5 -26.5t-34 -40.5t-18 -51.5q-5 -31 2 -60t24.5 -51.5t44 -36.5t61.5 -14z" />
    <glyph glyph-name="ampersand" unicode="&#x26;" horiz-adv-x="798" 
d="M226 -11q-41 0 -76 15t-59 41t-34.5 62.5t-2.5 80.5q7 41 33 72.5t63.5 58t83 48.5t90.5 43q-44 55 -69.5 105t-15.5 100q9 53 50 89t112 36q36 0 64.5 -12.5t48 -33.5t28 -49.5t2.5 -59.5t-24 -56t-44.5 -47t-59.5 -40.5t-69 -36.5l8 -8l174 -204l8 9l215 237h19
l-224 -247l-8 -9l160 -183h-20l-150 172q-43 -47 -79 -81.5t-71 -57t-71.5 -33.5t-81.5 -11zM229 4q42 0 77 11t68.5 33t68 55.5t76.5 78.5l-174 203l-12 13q-45 -21 -89 -43t-81 -47t-62 -55t-32 -68q-7 -40 2.5 -73t32 -57t55 -37.5t70.5 -13.5zM255 613q-9 -48 14.5 -95
t68.5 -101q35 17 67 34.5t57.5 38t43 43.5t22.5 52q5 30 -2 55t-24.5 44t-43.5 29.5t-59 10.5q-63 0 -99 -30t-45 -81z" />
    <glyph glyph-name="quotesingle" unicode="'" horiz-adv-x="179" 
d="M120 500q1 10 3.5 29.5t6 41.5t6.5 42.5t5 32.5l15 84h17l-15 -84l-5.5 -33t-8 -42.5t-8.5 -41t-6 -29.5h-10v0z" />
    <glyph glyph-name="parenleft" unicode="(" horiz-adv-x="431" 
d="M279 -231q-50 32 -92 85.5t-69.5 122.5t-37 151t6.5 170q16 89 53.5 164.5t86.5 134.5t103.5 100t105.5 62l7 -13q-50 -21 -104 -62.5t-101 -99.5t-83.5 -131t-51.5 -158q-15 -86 -6 -165t35.5 -146t67.5 -119t90 -84z" />
    <glyph glyph-name="parenright" unicode=")" horiz-adv-x="431" 
d="M144 760q49 -32 91.5 -85.5t70 -122.5t37 -151t-6.5 -170q-16 -89 -53.5 -164.5t-86.5 -134.5t-103.5 -100t-105.5 -62l-7 13q50 21 104 62.5t101 99.5t83.5 131t51.5 158q15 86 6 165t-35.5 146t-67.5 119t-90 84z" />
    <glyph glyph-name="asterisk" unicode="*" horiz-adv-x="454" 
d="M271 547l-24 -172h-20l35 171l-159 -90l-9 17l167 81l-138 81l12 17l130 -91l24 168h20l-36 -168l158 89l9 -17l-164 -79l134 -79l-12 -17z" />
    <glyph glyph-name="plus" unicode="+" horiz-adv-x="492" 
d="M70 373h177l31 176h16l-31 -176h177l-3 -16h-177l-31 -178h-16l31 178h-177z" />
    <glyph glyph-name="comma" unicode="," horiz-adv-x="180" 
d="M-15 -110q14 7 27.5 19.5t24 27t17.5 29.5t10 29q2 14 0.5 21t-6.5 11q3 -5 2 -11q-3 -19 -22 -19q-9 0 -15.5 7t-4.5 18q5 25 30 25q17 0 26 -13t4 -39q-6 -33 -31.5 -65t-55.5 -50z" />
    <glyph glyph-name="hyphen" unicode="-" horiz-adv-x="492" 
d="M63 263h370l-3 -15h-370z" />
    <glyph glyph-name="period" unicode="." horiz-adv-x="180" 
d="M40 -4q-11 0 -17.5 8t-4.5 19q2 9 9 15t17 6q13 0 18 -8.5t3 -19.5q-2 -8 -8.5 -14t-16.5 -6z" />
    <glyph glyph-name="slash" unicode="/" horiz-adv-x="437" 
d="M454 730h20l-474 -730h-20z" />
    <glyph glyph-name="zero" unicode="0" horiz-adv-x="694" 
d="M307 -10q-58 0 -105 17.5t-76.5 59.5t-38.5 111.5t9 173.5l6 34q17 98 48.5 165.5t73.5 109.5t91.5 60.5t103.5 18.5q53 0 98.5 -18.5t76 -60.5t41 -109.5t-5.5 -165.5l-6 -34q-18 -104 -49 -173.5t-72 -111.5t-90.5 -59.5t-104.5 -17.5zM307 5q51 0 97.5 17t85.5 57.5
t68.5 107.5t47.5 166l6 32q16 94 7 159t-36.5 105t-70 58t-93.5 18t-98 -18.5t-86.5 -59t-70 -105t-46.5 -157.5l-5 -31q-18 -102 -9.5 -169.5t36.5 -107t71.5 -56t95.5 -16.5z" />
    <glyph glyph-name="one" unicode="1" horiz-adv-x="333" 
d="M280 665q-9 -22 -26 -43.5t-40.5 -38t-51.5 -27t-60 -10.5h-11l2 15h5q36 0 68.5 14.5t58.5 38.5t43 54.5t23 61.5h17l-128 -730h-17z" />
    <glyph glyph-name="two" unicode="2" horiz-adv-x="595" 
d="M24 22q7 40 31 76t58.5 69t77 63t86.5 58q46 30 91.5 58.5t83 58.5t63.5 63.5t33 72.5t-4 72.5t-36 58.5t-62.5 39t-83.5 14q-72 0 -132 -31.5t-95 -84.5l-13 10q38 55 101 88t141 33q51 0 91.5 -16t67.5 -43.5t38 -64.5t4 -78q-8 -42 -34.5 -77.5t-65.5 -66.5t-86 -60.5
t-94 -59.5q-43 -28 -84 -56.5t-74 -59.5t-56 -65t-30 -71l-1 -6h439l-3 -16h-456z" />
    <glyph glyph-name="three" unicode="3" horiz-adv-x="588" 
d="M245 -10q-39 0 -74 7.5t-64.5 20.5t-52 30t-34.5 36l13 10q12 -18 33 -34.5t48.5 -28.5t61 -19t70.5 -7q46 0 85 11.5t69 33.5t50 53.5t27 71.5q7 44 -3.5 80.5t-35 62.5t-61 40.5t-80.5 14.5h-86l2 15h85q43 0 81.5 11.5t69.5 32.5t51.5 51t27.5 68q7 41 -4 73
t-36.5 54.5t-62.5 34.5t-82 12q-75 0 -126 -23.5t-83 -55.5l-10 12q36 34 88 58t131 24q49 0 89.5 -13.5t68 -38.5t39.5 -60t5 -78q-11 -68 -62 -113t-129 -58q36 -8 64.5 -26.5t47.5 -45t27 -60.5t1 -73q-16 -90 -82.5 -137t-166.5 -47z" />
    <glyph glyph-name="four" unicode="4" horiz-adv-x="588" 
d="M415 198h-390l-3 16l487 516h16l-91 -517h112l-3 -15h-111l-35 -198h-17zM417 213l86 488l-461 -488h375z" />
    <glyph glyph-name="five" unicode="5" horiz-adv-x="590" 
d="M234 -10q-71 0 -126 26.5t-84 69.5l14 10q28 -42 77.5 -66.5t118.5 -24.5q48 0 92 15.5t78.5 44.5t58 69t32.5 90q8 45 -0.5 87.5t-32.5 76.5t-64 54.5t-94 20.5q-65 0 -113 -20.5t-88 -64.5l-15 6l112 346h367l-2 -15h-353l-101 -309q38 35 85 53.5t110 18.5
q58 0 101 -22.5t69 -58.5t35 -82t1 -93q-9 -51 -33 -93.5t-60.5 -73t-83.5 -48t-101 -17.5z" />
    <glyph glyph-name="six" unicode="6" horiz-adv-x="653" 
d="M322 -10q-58 0 -112.5 25.5t-82.5 73.5q-16 24 -26 49t-14 55t-2 66t10 81q18 98 56 173t92.5 125.5t124.5 76t152 25.5q31 0 53.5 -3t45.5 -10l-6 -14q-21 6 -43 9t-50 3q-159 0 -266.5 -98t-142.5 -289l-3 -16q14 39 39 70.5t57 53.5t70 34t79 12q61 0 108 -24.5
t77.5 -64.5t42.5 -91t3 -105q-10 -49 -34.5 -89t-59 -68.5t-77.5 -44t-91 -15.5zM323 5q45 0 86 15t73 42t54.5 65t30.5 83q9 51 -2 99t-39.5 85.5t-72.5 60t-101 22.5q-44 0 -85 -15t-74.5 -42.5t-56.5 -65t-31 -82.5q-8 -43 1 -90t36 -86.5t72 -65t109 -25.5z" />
    <glyph glyph-name="seven" unicode="7" horiz-adv-x="620" 
d="M622 715h-483l3 15h501l-2 -15l-483 -715h-21z" />
    <glyph glyph-name="eight" unicode="8" horiz-adv-x="641" 
d="M283 -10q-65 0 -113 18.5t-78 48.5t-42 69t-4 81q6 39 25.5 70.5t49 55t67 39t80.5 23.5q-29 7 -55 21.5t-44.5 36.5t-26.5 52t-1 67q6 35 25.5 66t50.5 53.5t72 35.5t91 13q54 0 95.5 -15.5t69 -41.5t39 -60.5t4.5 -72.5q-6 -33 -23 -60.5t-41.5 -48t-56 -33.5
t-66.5 -18q38 -8 71 -26.5t56 -45.5t33.5 -62.5t3.5 -78.5q-7 -39 -28.5 -73t-57 -59.5t-85 -40t-111.5 -14.5zM285 5q57 0 103 13.5t79.5 37t54.5 55.5t27 69q8 45 -6 83t-44 65t-73.5 42.5t-94.5 15.5q-58 0 -104.5 -14.5t-81 -39.5t-56 -58t-27.5 -69q-6 -38 4 -74
t37.5 -64t72.5 -45t109 -17zM333 398q50 0 91.5 11t72.5 31.5t50.5 48.5t25.5 62q6 35 -4.5 66.5t-35.5 55.5t-64 38t-90 14q-45 0 -83 -12t-67 -33t-47.5 -49.5t-24.5 -60.5q-7 -39 5 -70.5t37 -54t60 -35t74 -12.5z" />
    <glyph glyph-name="nine" unicode="9" horiz-adv-x="625" 
d="M215 -10q-49 0 -86.5 10.5t-60.5 25.5l11 14q21 -14 55.5 -24.5t84.5 -10.5q71 0 125 29t93.5 81t65 123.5t39.5 155.5l4 23q-13 -33 -35.5 -61t-52.5 -49t-65 -33t-73 -12q-55 0 -100 21.5t-74.5 58t-42 85t-2.5 103.5q8 47 31 85.5t56 66.5t74.5 43t86.5 15
q62 0 107 -25.5t76 -71.5q16 -24 25 -49t11.5 -55t-1 -66t-10.5 -81q-14 -88 -40.5 -161.5t-68 -127t-99.5 -83.5t-134 -30zM321 277q40 0 78.5 15t70 41t53 61.5t28.5 76.5q9 51 -2.5 97.5t-39 81t-68.5 55t-92 20.5q-42 0 -80.5 -15t-70 -41t-53 -62.5t-28.5 -79.5
q-8 -48 2.5 -93t37.5 -80t68.5 -56t95.5 -21z" />
    <glyph glyph-name="colon" unicode=":" horiz-adv-x="179" 
d="M40 -4q-11 0 -17.5 8t-4.5 19q2 9 9 15t17 6q12 0 17.5 -8.5t3.5 -19.5q-2 -8 -8.5 -14t-16.5 -6zM121 451q-11 0 -17.5 8t-4.5 19q2 9 9 15t17 6q12 0 17.5 -8.5t3.5 -19.5q-2 -8 -8.5 -14t-16.5 -6z" />
    <glyph glyph-name="semicolon" unicode=";" horiz-adv-x="180" 
d="M-15 -110q14 7 27.5 19.5t24 27t17.5 29.5t10 29q2 14 0.5 21t-6.5 11q3 -5 2 -11q-3 -19 -22 -19q-9 0 -15.5 7t-4.5 18q5 25 30 25q17 0 26 -13t4 -39q-6 -33 -31.5 -65t-55.5 -50zM121 451q-11 0 -17.5 8t-4.5 19q2 9 9 15t17 6q12 0 17.5 -8.5t3.5 -19.5
q-2 -8 -8.5 -14t-16.5 -6z" />
    <glyph glyph-name="less" unicode="&#x3c;" horiz-adv-x="492" 
d="M68 360l3 16l395 146l-4 -19l-372 -136l324 -141l-4 -17z" />
    <glyph glyph-name="equal" unicode="=" horiz-adv-x="492" 
d="M84 450h370l-3 -16h-370zM56 292h370l-3 -16h-370z" />
    <glyph glyph-name="greater" unicode="&#x3e;" horiz-adv-x="492" 
d="M46 227l372 136l-324 141l4 17l342 -151l-3 -16l-395 -146z" />
    <glyph glyph-name="question" unicode="?" horiz-adv-x="518" 
d="M201 199q11 62 33.5 102t51 68t59 47t57.5 38.5t47 43.5t27 61q7 40 -4.5 71t-35.5 52t-58 32t-73 11q-44 0 -81 -14t-66 -40l-12 10q31 29 72 44t89 15q41 0 78.5 -12.5t63.5 -36t38.5 -58t4.5 -78.5q-7 -39 -27 -64.5t-47 -45t-57.5 -38t-58.5 -45t-50.5 -65
t-32.5 -98.5l-10 -55h-18zM177 -4q-11 0 -17.5 8t-4.5 19q2 9 9 15t17 6q13 0 18 -8.5t3 -19.5q-2 -8 -8.5 -14t-16.5 -6z" />
    <glyph glyph-name="at" unicode="@" horiz-adv-x="889" 
d="M410 -133q-90 0 -159.5 33.5t-113.5 90.5t-60.5 133.5t-1.5 162.5q13 73 49.5 134t90 104.5t120.5 67.5t141 24q86 0 152 -31.5t109 -82.5t60 -115.5t4 -130.5q-5 -33 -18 -67t-33.5 -61t-48 -44t-61.5 -17q-51 0 -75 31t-22 78q-9 -19 -24 -38.5t-36 -35.5t-47 -26
t-57 -10q-32 0 -56.5 12.5t-40.5 34.5t-22 52t0 64q6 36 24.5 71.5t46 63.5t63 45t77.5 17q29 0 49.5 -10.5t33.5 -26.5t18.5 -35.5t5.5 -37.5q11 36 16.5 56.5t8.5 31.5q4 12 5 16h14l-51 -181q-12 -44 -11 -73.5t11.5 -48.5t28.5 -27t41 -8q30 0 54 16t42.5 41.5t31 57
t17.5 63.5q11 61 -4.5 122t-55.5 110t-103.5 79t-148.5 30q-71 0 -135 -23.5t-115 -66t-86 -101t-47 -128.5q-14 -77 0.5 -149t55 -128t107 -90t157.5 -34q74 0 142.5 29t121.5 82l13 -10q-55 -55 -127.5 -85.5t-150.5 -30.5zM381 83q36 0 64.5 13.5t51 36.5t37.5 53t24 63
q9 32 9 61.5t-11 52t-32 36t-54 13.5q-36 0 -69 -15.5t-58.5 -41.5t-43 -59.5t-23.5 -69.5q-5 -31 0 -57t19 -45t35.5 -30t50.5 -11z" />
    <glyph glyph-name="A" unicode="A" horiz-adv-x="732" 
d="M439 730h17l177 -730h-17l-59 243h-389l-143 -243h-19zM177 258h377l-109 452z" />
    <glyph glyph-name="B" unicode="B" horiz-adv-x="688" 
d="M179 730h275q40 0 75 -15.5t59.5 -42.5t36 -63t4.5 -77q-11 -60 -53.5 -102.5t-101.5 -53.5q30 -9 55 -28t41.5 -45.5t23.5 -58t1 -65.5q-7 -38 -26.5 -71t-48 -57t-65 -37.5t-77.5 -13.5h-327zM132 370l-62 -355h309q38 0 71.5 12.5t60 35t44.5 53t24 65.5q7 39 -3.5 73
t-32 60t-52.5 41t-65 15h-294zM193 715l-58 -330h301q33 0 62.5 11.5t53.5 32t40 47.5t21 59q6 35 -4 67.5t-32.5 57.5t-54.5 40t-69 15h-260z" />
    <glyph glyph-name="C" unicode="C" horiz-adv-x="832" 
d="M432 -10q-87 0 -155.5 33.5t-112.5 90.5t-61.5 133.5t-2.5 162.5q13 73 51 134t92.5 104.5t121 67.5t136.5 24q106 0 182.5 -42t119.5 -123l-15 -8q-38 75 -109.5 116.5t-178.5 41.5q-67 0 -131 -23.5t-116 -66t-88.5 -101t-48.5 -128.5q-14 -77 1.5 -149t56.5 -128
t106.5 -90t152.5 -34q45 0 89 10.5t83.5 30t74 48t60.5 64.5l14 -9q-27 -39 -63 -68.5t-77.5 -49.5t-87.5 -30.5t-94 -10.5z" />
    <glyph glyph-name="D" unicode="D" horiz-adv-x="753" 
d="M179 730h189q79 -2 144.5 -33.5t110 -85t63.5 -125t5 -151.5q-14 -79 -51 -141.5t-90.5 -105.5t-120.5 -65.5t-141 -22.5h-237zM193 715l-122 -700h218q70 0 134 22t115 64t86.5 102t49.5 136q13 76 -5 144.5t-60.5 120t-105.5 81.5t-140 30h-170z" />
    <glyph glyph-name="E" unicode="E" horiz-adv-x="644" 
d="M179 730h473l-3 -16h-456l-60 -341h456l-2 -15h-456l-61 -342h456l-2 -16h-473z" />
    <glyph glyph-name="F" unicode="F" horiz-adv-x="631" 
d="M179 730h468l-3 -16h-451l-60 -342h451l-3 -15h-450l-63 -357h-17z" />
    <glyph glyph-name="G" unicode="G" horiz-adv-x="892" 
d="M448 -10q-88 0 -159.5 33.5t-118.5 90.5t-66.5 133.5t-4.5 162.5q13 73 49.5 134t89.5 104.5t118 67.5t135 24q105 0 183.5 -47t126.5 -128l-14 -8q-46 78 -120.5 123t-176.5 45q-68 0 -130 -23.5t-112.5 -66t-85.5 -101t-47 -128.5q-14 -77 3.5 -149t61 -128t112 -90
t157.5 -34q76 0 141 27.5t113 74.5t78 110.5t36 135.5h-362l2 15h378q-5 -73 -32.5 -141t-77 -120.5t-119.5 -84.5t-158 -32z" />
    <glyph glyph-name="H" unicode="H" horiz-adv-x="726" 
d="M626 357h-496l-62 -357h-17l128 730h17l-63 -358h496l63 358h17l-128 -730h-17z" />
    <glyph glyph-name="I" unicode="I" horiz-adv-x="237" 
d="M191 730h17l-128 -730h-17z" />
    <glyph glyph-name="J" unicode="J" horiz-adv-x="519" 
d="M207 -10q-69 0 -113.5 30.5t-61.5 73.5l14 8q17 -42 58 -69t104 -27q77 0 122 46.5t57 118.5l98 559h17l-98 -559q-7 -39 -22 -72t-39.5 -57t-58 -38t-77.5 -14z" />
    <glyph glyph-name="K" unicode="K" horiz-adv-x="676" 
d="M343 420l-240 -222h-1l-34 -198h-17l128 730h17l-89 -507l546 507h24l-321 -298l231 -432h-19z" />
    <glyph glyph-name="L" unicode="L" horiz-adv-x="610" 
d="M179 730h17l-126 -714h438l-2 -16h-455z" />
    <glyph glyph-name="M" unicode="M" horiz-adv-x="871" 
d="M179 730h17l240 -432l403 432h15l-128 -730h-17l123 699l-399 -427l-242 432l-123 -704h-17z" />
    <glyph glyph-name="N" unicode="N" horiz-adv-x="760" 
d="M179 730h17l406 -705l124 705h17l-128 -730h-18l-406 703l-123 -703h-17z" />
    <glyph glyph-name="O" unicode="O" horiz-adv-x="895" 
d="M444 -10q-87 0 -157.5 33.5t-117 90.5t-66 133.5t-4.5 162.5q13 73 49.5 134t89 104.5t116.5 67.5t133 24q93 0 163.5 -37.5t115 -98t61.5 -136.5t2 -153q-13 -74 -49.5 -133.5t-88 -102.5t-115.5 -66t-132 -23zM445 5q65 0 126 23t110.5 64.5t84.5 99t47 126.5
q13 73 -2.5 146t-58 131t-110 94t-156.5 36q-66 0 -127.5 -23.5t-111.5 -66t-85 -101t-47 -128.5q-14 -83 5 -155.5t63.5 -127.5t111.5 -86.5t150 -31.5z" />
    <glyph glyph-name="P" unicode="P" horiz-adv-x="697" 
d="M179 730h239q60 0 109 -20.5t81.5 -56.5t46 -86t3.5 -109q-9 -51 -33 -93.5t-61 -73t-87.5 -47.5t-111.5 -17h-257l-40 -227h-17zM193 715l-83 -473h255q59 0 106.5 16.5t82.5 45.5t57 69t31 88q10 54 -2 100.5t-42 80.5t-76.5 53.5t-105.5 19.5h-223z" />
    <glyph glyph-name="Q" unicode="Q" horiz-adv-x="895" 
d="M681 73q-51 -40 -112 -61.5t-125 -21.5q-87 0 -157.5 33.5t-117 90.5t-66 133.5t-4.5 162.5q13 73 49.5 134t89 104.5t116.5 67.5t133 24q93 0 163.5 -37.5t115 -98t61.5 -136.5t2 -153q-14 -72 -50 -131.5t-87 -102.5l54 -81h-17zM445 5q63 0 121 21t107 59l-129 195h17
l122 -186q50 42 83.5 98.5t46.5 125.5q13 73 -2.5 146t-58 131t-110 94t-156.5 36q-66 0 -127.5 -23.5t-111.5 -66t-85 -101t-47 -128.5q-14 -83 5 -155.5t63.5 -127.5t111.5 -86.5t150 -31.5z" />
    <glyph glyph-name="R" unicode="R" horiz-adv-x="706" 
d="M179 730h275q54 0 97 -20.5t72 -55t41.5 -80.5t3.5 -97q-7 -45 -27 -81t-49.5 -62t-67.5 -42t-81 -20l150 -272h-19l-148 271h-311l-47 -271h-17zM193 715l-75 -429h297q46 0 86.5 14t71.5 39.5t51.5 61t27.5 78.5q8 46 -3 88.5t-37.5 75t-67.5 52t-92 20.5h-259z" />
    <glyph glyph-name="S" unicode="S" horiz-adv-x="658" 
d="M315 -11q-50 0 -94 11t-80.5 30t-65.5 43.5t-50 50.5l15 11q19 -26 46.5 -49.5t62.5 -41.5t77 -29t90 -11q53 0 95 12.5t73 33.5t49.5 50t24.5 62q9 54 -6.5 89.5t-47 59.5t-75 39.5t-88.5 29.5t-87 29t-73.5 38.5t-47 57.5t-6.5 85q11 66 72.5 108t168.5 42q43 0 83 -10
t75 -27t62.5 -40t45.5 -49l-13 -10q-17 25 -43.5 47t-59.5 38.5t-71.5 26t-79.5 9.5q-100 0 -156.5 -37t-67.5 -100q-8 -48 7 -79.5t45.5 -53t72 -36t85.5 -27.5q46 -14 90 -30.5t76.5 -42t48.5 -63t6 -94.5q-6 -38 -26.5 -69.5t-53.5 -54.5t-78 -36t-101 -13z" />
    <glyph glyph-name="T" unicode="T" horiz-adv-x="643" 
d="M266 0l125 715h-269l2 15h557l-2 -15h-271l-125 -715h-17z" />
    <glyph glyph-name="U" unicode="U" horiz-adv-x="700" 
d="M325 -10q-68 0 -117 21t-79 57.5t-40 86t0 107.5l82 468h17l-83 -473q-9 -51 0 -96.5t36.5 -80t74 -54.5t112.5 -20q50 0 93 15.5t75.5 43t54 65t29.5 81.5l91 519h17l-91 -519q-9 -48 -32 -89t-58.5 -70t-81.5 -45.5t-100 -16.5z" />
    <glyph glyph-name="V" unicode="V" horiz-adv-x="732" 
d="M310 0l-177 730h17l171 -711l420 711h19l-433 -730h-17z" />
    <glyph glyph-name="W" unicode="W" horiz-adv-x="1111" 
d="M754 0l-129 702l-369 -702h-19l-91 730h17l88 -705l371 705h14l130 -705l335 705h18l-347 -730h-18z" />
    <glyph glyph-name="X" unicode="X" horiz-adv-x="692" 
d="M365 367l-337 -367h-22l351 381l-196 349h18l189 -339l308 339h21l-321 -353l216 -377h-18z" />
    <glyph glyph-name="Y" unicode="Y" horiz-adv-x="645" 
d="M316 276l-196 454h19l188 -439l338 439h21l-353 -456l-48 -274h-17z" />
    <glyph glyph-name="Z" unicode="Z" horiz-adv-x="656" 
d="M22 0l3 16l617 699h-484l3 15h505l-3 -16l-617 -699h498l-3 -15h-519z" />
    <glyph glyph-name="bracketleft" unicode="[" horiz-adv-x="444" 
d="M180 730h273l-2 -15h-256l-164 -930h256l-3 -15h-272z" />
    <glyph glyph-name="backslash" unicode="\" horiz-adv-x="437" 
d="M109 730h17l220 -730h-19z" />
    <glyph glyph-name="bracketright" unicode="]" horiz-adv-x="445" 
d="M5 -216h255l164 931h-255l2 15h273l-169 -960h-272z" />
    <glyph glyph-name="asciicircum" unicode="^" 
d="M315 648h5l104 -164h-19l-90 143l-136 -143h-22z" />
    <glyph glyph-name="underscore" unicode="_" horiz-adv-x="492" 
d="M8 -46h369l-4 -15h-370z" />
    <glyph glyph-name="grave" unicode="`" 
d="M266 762h23l99 -140h-16z" />
    <glyph glyph-name="a" unicode="a" horiz-adv-x="684" 
d="M315 -11q-65 0 -116.5 25t-86 68.5t-48.5 100.5t-3 122q10 55 37 100.5t66 77.5t88 50t103 18t96.5 -16.5t74 -45.5t50 -68t24.5 -84l36 203h14l-95 -540h-14l28 155q-18 -38 -44 -68.5t-59 -52t-71 -33.5t-80 -12zM316 4q51 0 96.5 18.5t81 50.5t59.5 76.5t33 97.5
q10 56 -1.5 108.5t-41.5 92.5t-77.5 64t-111.5 24q-51 0 -97.5 -17.5t-83.5 -48.5t-62 -74t-34 -95q-10 -60 3 -114t44.5 -94.5t80.5 -64.5t111 -24z" />
    <glyph glyph-name="b" unicode="b" horiz-adv-x="689" 
d="M340 -11q-54 0 -98 16t-76 44t-52 65.5t-26 80.5l-33 -195h-17l139 788h16q-16 -88 -30 -167q-6 -34 -12 -69t-12 -67.5t-11 -61t-8 -47.5q19 42 47 75t62.5 55t73.5 33.5t80 11.5q62 0 112 -25t83.5 -68t47 -100t2.5 -121q-10 -55 -37 -100.5t-65.5 -78.5t-86 -51
t-99.5 -18zM341 4q49 0 94.5 18t81.5 49.5t61 75t34 93.5q10 58 -2 112t-43 94.5t-78.5 65t-108.5 24.5q-50 0 -96 -19t-83 -53t-62.5 -80t-34.5 -100q-10 -54 1.5 -104.5t42 -89.5t79.5 -62.5t114 -23.5z" />
    <glyph glyph-name="c" unicode="c" horiz-adv-x="632" 
d="M321 -11q-65 0 -118 25t-88.5 68t-50.5 100t-3 121q10 55 36.5 100.5t65.5 78.5t88 51t102 18q87 0 147.5 -40.5t90.5 -104.5l-15 -7q-27 60 -84.5 98.5t-138.5 38.5q-51 0 -97 -17.5t-83 -49t-62 -75t-34 -95.5q-10 -59 3.5 -112t46 -94t82 -65t112.5 -24q34 0 68 7.5
t64.5 22.5t56.5 37t45 51l14 -9q-20 -30 -47 -53.5t-59.5 -39t-68.5 -23.5t-73 -8z" />
    <glyph glyph-name="d" unicode="d" horiz-adv-x="687" 
d="M315 -11q-65 0 -116.5 25t-86 68.5t-48.5 100.5t-3 122q10 55 37 100.5t66 77.5t88 50t103 18q52 0 94.5 -16t73.5 -43.5t50 -65.5t26 -81l78 443h15l-139 -788h-15l26 145q-37 -72 -102.5 -114t-146.5 -42zM316 4q51 0 96.5 18.5t81 50.5t59.5 76.5t33 97.5
q10 56 -1.5 108.5t-41.5 92.5t-77.5 64t-111.5 24q-51 0 -97.5 -17.5t-83.5 -48.5t-62 -74t-34 -95q-10 -60 3 -114t44.5 -94.5t80.5 -64.5t111 -24z" />
    <glyph glyph-name="e" unicode="e" horiz-adv-x="659" 
d="M323 -11q-70 0 -124.5 23t-89 64.5t-48 98t-1.5 123.5q10 58 38.5 104.5t70 79.5t92.5 51t105 18q61 0 109 -21.5t79 -59t45 -88t8 -108.5l-1 -10h-535q-5 -57 11.5 -105t49.5 -82.5t82 -53.5t111 -19q65 0 124.5 25t99.5 75l14 -9q-45 -54 -106.5 -80t-133.5 -26z
M72 278h519q6 54 -6.5 101t-42 81.5t-74.5 54.5t-103 20q-51 0 -99 -17t-87 -48t-66.5 -75.5t-37.5 -98.5z" />
    <glyph glyph-name="f" unicode="f" horiz-adv-x="343" 
d="M75 540h102l13 72q10 54 24 88t37 53.5t56.5 27t83.5 7.5h8l-4 -15h-5q-46 0 -77 -6.5t-52 -24t-33.5 -49t-21.5 -82.5l-13 -71h159l-2 -13h-159l-92 -527h-16l92 527h-102z" />
    <glyph glyph-name="g" unicode="g" horiz-adv-x="685" 
d="M315 -11q-65 0 -116.5 25t-86 68.5t-48.5 100.5t-3 122q10 55 37 100.5t66 77.5t88 50t103 18t96.5 -16.5t73.5 -45.5t50 -68t25 -84q1 6 4 23t7 39t8.5 46t8 44.5t6 34.5t3.5 16h14l-89 -499q-23 -127 -90.5 -197t-192.5 -70q-94 0 -158.5 39.5t-89.5 105.5l16 5
q24 -63 83 -98.5t149 -35.5q60 0 105.5 17.5t78.5 50.5t53.5 79.5t31.5 103.5q3 20 7 39q3 17 6.5 36.5t6.5 37.5q-18 -38 -44 -68t-58.5 -52t-70.5 -33.5t-80 -11.5zM316 4q51 0 96.5 18.5t81 50.5t59.5 76.5t33 97.5q10 56 -1.5 108.5t-41.5 92.5t-77.5 64t-111.5 24
q-51 0 -97.5 -17.5t-83.5 -48.5t-62 -74t-34 -95q-10 -60 3 -114t44.5 -94.5t80.5 -64.5t111 -24z" />
    <glyph glyph-name="h" unicode="h" horiz-adv-x="645" 
d="M177 788h15l-71 -399q14 35 37.5 64.5t55 51.5t69 34t79.5 12q61 0 104.5 -21.5t70 -58t34.5 -86t-2 -104.5l-48 -281h-16l49 281q10 51 3.5 97t-30.5 81.5t-65 56t-101 20.5q-46 0 -87.5 -16.5t-74.5 -44.5t-55.5 -65.5t-29.5 -80.5l-59 -329h-16z" />
    <glyph glyph-name="i" unicode="i" horiz-adv-x="188" 
d="M38 0l96 540h16l-96 -540h-16zM169 684q-12 0 -18.5 8.5t-3.5 19.5q2 9 9 14.5t17 5.5q13 0 18 -8.5t3 -19.5q-2 -8 -8.5 -14t-16.5 -6z" />
    <glyph glyph-name="j" unicode="j" horiz-adv-x="193" 
d="M-135 -201q41 0 69.5 6.5t48 24t31.5 47.5t21 78l104 585h15l-104 -586q-9 -52 -22.5 -85t-34.5 -52t-51.5 -26t-75.5 -7h-5zM174 684q-12 0 -18.5 8.5t-3.5 19.5q2 9 9 14.5t17 5.5q13 0 18 -8.5t3 -19.5q-2 -8 -8.5 -14t-16.5 -6z" />
    <glyph glyph-name="k" unicode="k" horiz-adv-x="555" 
d="M263 298l-183 -152l-25 -146h-16l138 788h16l-110 -624l449 376h22l-279 -233l206 -307h-19z" />
    <glyph glyph-name="l" unicode="l" horiz-adv-x="188" 
d="M177 788h16l-139 -788h-16z" />
    <glyph glyph-name="m" unicode="m" horiz-adv-x="1033" 
d="M130 540h15l-25 -137q28 63 84 105.5t137 42.5q45 0 81 -15.5t60.5 -41t36.5 -58t10 -67.5q9 36 28.5 69t48.5 58t67.5 40t83.5 15q58 0 100 -21.5t67 -58t33 -86t-2 -104.5l-50 -281h-14l49 281q9 53 2.5 99.5t-29.5 81t-62 54.5t-95 20q-47 0 -85 -16t-66.5 -44
t-47.5 -66t-28 -81l-57 -329h-15l58 324q9 46 -1 85t-34 67t-60 44t-79 16q-50 0 -89.5 -17t-68.5 -45.5t-48 -66t-27 -79.5l-58 -328h-15z" />
    <glyph glyph-name="n" unicode="n" horiz-adv-x="643" 
d="M130 540h15l-24 -136q13 32 35.5 59t51.5 46.5t64.5 30.5t76.5 11q61 0 106.5 -21t73 -57.5t37 -85.5t-0.5 -106l-50 -281h-15l50 281q9 52 1 98.5t-33 81t-67.5 55t-102.5 20.5q-47 0 -87 -15t-71 -41.5t-51.5 -62.5t-28.5 -78l-60 -339h-15z" />
    <glyph glyph-name="o" unicode="o" horiz-adv-x="667" 
d="M318 -11q-65 0 -117.5 25t-87.5 68.5t-49.5 100.5t-2.5 122q10 55 36.5 100t65.5 77.5t88 50.5t103 18q67 0 119 -27.5t85 -72.5t46 -102t2 -117q-10 -55 -37 -99.5t-66 -76.5t-86.5 -49.5t-98.5 -17.5zM318 4q48 0 93 17t82 48t62.5 73.5t34.5 92.5q10 57 -2 111t-43 96
t-80 68t-113 26q-51 0 -97 -17.5t-82.5 -48.5t-61.5 -74.5t-34 -94.5q-10 -57 2.5 -110.5t44 -95t81 -66.5t113.5 -25z" />
    <glyph glyph-name="p" unicode="p" horiz-adv-x="681" 
d="M131 540h14l-27 -156q40 81 110 124t154 43q60 0 109 -25t82 -68t46.5 -100t2.5 -121q-10 -55 -37 -100.5t-66 -78.5t-87.5 -51t-100.5 -18q-54 0 -97 15.5t-74.5 43t-51 65t-25.5 80.5q-3 -15 -7.5 -40.5t-10 -57t-12 -67t-12.5 -69.5q-15 -81 -31 -175h-14zM332 4
q50 0 96 18t82.5 49.5t61.5 75t34 93.5q10 58 -2 112t-42.5 94.5t-77.5 65t-107 24.5q-52 0 -99 -19t-84 -53t-62.5 -80t-34.5 -100q-10 -54 1 -104.5t41.5 -89.5t79 -62.5t113.5 -23.5z" />
    <glyph glyph-name="q" unicode="q" horiz-adv-x="687" 
d="M315 -11q-65 0 -116.5 25t-86 68.5t-48.5 100.5t-3 122q10 55 37 100.5t66 77.5t88 50t103 18q53 0 96 -16.5t74 -45.5t50 -67.5t25 -83.5l36 202h14l-133 -756h-15q14 74 26 144q11 60 21.5 122t18.5 103q-36 -75 -103 -119.5t-150 -44.5zM316 4q51 0 96.5 18.5t81 50.5
t59.5 76.5t33 97.5q10 56 -1.5 108.5t-41.5 92.5t-77.5 64t-111.5 24q-51 0 -97.5 -17.5t-83.5 -48.5t-62.5 -74t-34.5 -95q-10 -60 3 -114t45 -94.5t81 -64.5t111 -24z" />
    <glyph glyph-name="r" unicode="r" horiz-adv-x="385" 
d="M129 540h16l-27 -149q15 33 37.5 60t51.5 47t63.5 31t73.5 11h44l-2 -15h-42q-48 0 -88 -16.5t-70.5 -44.5t-51 -65.5t-28.5 -79.5l-56 -319h-15z" />
    <glyph glyph-name="s" unicode="s" horiz-adv-x="515" 
d="M236 -11q-79 0 -140 32t-95 82l15 10q31 -48 88.5 -78.5t132.5 -30.5q43 0 75 10t53.5 26t34 37t16.5 43q7 39 -5.5 65.5t-37.5 44t-58 29t-68 22.5q-34 10 -66.5 21.5t-56 28t-35.5 41.5t-6 62q10 56 60.5 87.5t122.5 29.5q72 0 124 -26.5t90 -71.5l-13 -10
q-37 46 -86 70t-115 24t-112 -27t-55 -78q-6 -33 6 -54.5t34.5 -37t53.5 -26t64 -20.5q36 -11 70.5 -23.5t60.5 -32t38.5 -49t5.5 -72.5q-5 -27 -19 -50t-38.5 -40.5t-59 -27.5t-79.5 -10z" />
    <glyph glyph-name="t" unicode="t" horiz-adv-x="350" 
d="M72 540h100l23 129l16 9l-24 -138h162l-2 -13h-163l-59 -342q-9 -49 -7.5 -81.5t16 -52.5t44.5 -28.5t78 -8.5l-2 -14h-2q-50 0 -82 9t-48.5 31t-18.5 57t7 88l60 342h-100z" />
    <glyph glyph-name="u" unicode="u" horiz-adv-x="619" 
d="M271 -11q-60 0 -101.5 21t-65.5 57.5t-30.5 86t4.5 105.5l50 281h15l-50 -281q-11 -53 -6 -99.5t27 -81t61.5 -54.5t96.5 -20q47 0 87 16t71 43.5t51.5 65.5t29.5 82l59 329h14l-94 -540h-15l25 140q-29 -69 -89.5 -110t-139.5 -41z" />
    <glyph glyph-name="v" unicode="v" horiz-adv-x="584" 
d="M83 540h16l139 -520l333 520h18l-346 -540h-16z" />
    <glyph glyph-name="w" unicode="w" horiz-adv-x="859" 
d="M85 540h17l57 -508l310 508h11l95 -512l272 512h18l-287 -540h-13l-95 514l-313 -514h-9z" />
    <glyph glyph-name="x" unicode="x" horiz-adv-x="571" 
d="M274 278l-176 262h18l169 -252l257 252h21l-271 -264l186 -276h-18l-179 267l-269 -267h-21z" />
    <glyph glyph-name="y" unicode="y" horiz-adv-x="590" 
d="M35 -199q-85 0 -127 65l12 9q37 -59 115 -59q27 0 49.5 7.5t43.5 23.5t41.5 42t43.5 63l51 82l-180 507h16l174 -491l305 491h18l-371 -596q-25 -39 -47 -66.5t-44.5 -45t-46.5 -25t-53 -7.5z" />
    <glyph glyph-name="z" unicode="z" horiz-adv-x="572" 
d="M15 14l516 512h-420l3 14h443l-4 -14l-516 -512h432l-3 -14h-453z" />
    <glyph glyph-name="braceleft" unicode="{" horiz-adv-x="446" 
d="M295 -230q-63 0 -103 11t-61.5 36.5t-25 67t7.5 102.5l26 145q5 29 6 50t-6.5 34.5t-25 19.5t-48.5 6l3 19q30 0 49.5 5.5t32 18t20 33.5t12.5 53l24 142q11 61 28.5 102.5t47.5 67t74 36.5t108 11h11l-2 -15q-64 0 -107.5 -10t-71.5 -33t-44.5 -62.5t-26.5 -97.5
l-25 -142q-9 -55 -26.5 -83.5t-56.5 -36.5q36 -11 43 -40t-1 -77l-27 -145q-10 -59 -7.5 -98t22.5 -62t60 -33t104 -10l-3 -15h-11z" />
    <glyph glyph-name="bar" unicode="|" horiz-adv-x="199" 
d="M173 730h17l-169 -960h-17z" />
    <glyph glyph-name="braceright" unicode="}" horiz-adv-x="467" 
d="M4 -215q64 0 107.5 10t71.5 33t44.5 62t26.5 98l25 142q9 55 26 83t57 37q-37 10 -43.5 39.5t1.5 77.5l27 145q10 58 7.5 97.5t-22.5 62.5t-60 33t-104 10l3 15h11q63 0 103 -11t61.5 -36.5t25 -67t-7.5 -102.5l-26 -145q-5 -29 -6 -50t6.5 -34.5t24.5 -19.5t49 -6
l-3 -19q-30 0 -49.5 -5.5t-32 -18t-20 -34t-12.5 -52.5l-24 -142q-11 -61 -28.5 -102.5t-47.5 -67t-74 -36.5t-108 -11h-11z" />
    <glyph glyph-name="asciitilde" unicode="~" horiz-adv-x="431" 
d="M114 603q11 32 34.5 51t52.5 19q20 0 38.5 -10t36.5 -22q18 -11 35.5 -20t36.5 -9q52 0 73 55h16q-11 -32 -34.5 -51t-56.5 -19q-21 0 -40 9.5t-37 21.5q-18 11 -35.5 20.5t-34.5 9.5q-46 0 -68 -55h-17v0z" />
    <glyph glyph-name="nonbreakingspace" unicode="&#xa0;" horiz-adv-x="214" 
 />
    <glyph glyph-name="exclamdown" unicode="&#xa1;" horiz-adv-x="259" 
d="M45 -112l85 469h13q-3 -17 -8.5 -49t-12.5 -73t-14.5 -88t-15.5 -93t-15.5 -89.5t-13.5 -76.5l-20 -117h-18zM156 457q-13 0 -18 8.5t-3 19.5q2 8 8.5 14t16.5 6q11 0 17.5 -8t4.5 -19q-2 -9 -9 -15t-17 -6z" />
    <glyph glyph-name="cent" unicode="&#xa2;" horiz-adv-x="645" 
d="M271 -6q-50 8 -90 33.5t-66.5 64t-36.5 86.5t0 102q9 51 34.5 93.5t61.5 72.5t80.5 47t92.5 17q10 0 15 -1l22 121h17l-22 -122q72 -9 123.5 -52t73.5 -107l-17 -6q-11 32 -30 59.5t-46 48t-61 32t-75 11.5q-45 0 -87 -16.5t-76 -45.5t-57.5 -68.5t-31.5 -86.5
q-9 -53 2.5 -101.5t41 -86.5t75 -60.5t104.5 -22.5q36 0 69.5 10t62.5 29t53 45.5t40 58.5l15 -8q-17 -34 -42.5 -62t-56.5 -47.5t-67 -30.5t-74 -11q-8 0 -15 0.5t-15 1.5l-21 -122h-17z" />
    <glyph glyph-name="sterling" unicode="&#xa3;" horiz-adv-x="766" 
d="M140 365h117q-11 23 -21 46t-16.5 48t-8 51.5t3.5 55.5q7 39 26 71t48 55t67.5 35.5t83.5 12.5q62 0 111 -23t83 -68l-13 -9q-32 44 -78 64.5t-103 20.5q-42 0 -77.5 -12t-62.5 -33.5t-45 -51.5t-24 -65q-10 -56 5 -104t38 -94h246l-3 -15h-236q12 -24 22.5 -48t18 -49.5
t10 -52t-2.5 -55.5q-6 -32 -19 -57q39 -32 83 -57.5t100 -25.5q35 0 62 9t47 29.5t34 54.5t23 84l2 14h17l-3 -16q-9 -53 -24.5 -89t-37.5 -58.5t-52 -32.5t-69 -10q-30 0 -56 7t-49 19t-44 27t-41 31q-22 -37 -60.5 -61t-94.5 -24q-21 0 -42.5 6t-37 19t-24 32.5t-3.5 45.5
q6 34 33.5 55t72.5 22q22 0 41.5 -5.5t38 -15.5t36.5 -23.5t36 -27.5q10 24 15 48q5 29 2.5 56t-10 52t-18 49t-22.5 48h-128zM147 3q52 0 87.5 23.5t55.5 57.5q-35 28 -69 49t-76 21q-38 0 -61 -18.5t-28 -45.5q-4 -21 2.5 -37t19.5 -27.5t31 -17t38 -5.5z" />
    <glyph glyph-name="currency" unicode="&#xa4;" horiz-adv-x="805" 
d="M557 151q-38 -27 -83 -40t-95 -8q-51 5 -94 27.5t-75 57.5l-115 -99l-12 13l117 99q-30 38 -44.5 86t-9.5 101q5 52 29 95.5t61 75.5l-71 91l12 11l72 -91q38 28 84.5 41.5t97.5 8.5q50 -5 92 -27t74 -56l108 92l11 -12l-108 -92q31 -39 46 -87.5t10 -102.5
q-6 -53 -30 -97t-62 -76l63 -78l-13 -12zM381 119q50 -5 96 9.5t81.5 44t59 72t28.5 92.5t-9.5 96.5t-43.5 82.5t-71 59.5t-92 28.5q-51 5 -97 -9.5t-82 -44t-59.5 -72t-28.5 -92.5q-5 -51 9.5 -97t44 -82t71.5 -59.5t93 -28.5z" />
    <glyph glyph-name="yen" unicode="&#xa5;" horiz-adv-x="660" 
d="M160 355h173l-181 375h18l176 -366l303 366h21l-312 -375h172l-3 -16h-177l-25 -142h177l-3 -16h-177l-31 -181h-17l32 181h-177l3 16h177l24 142h-176z" />
    <glyph glyph-name="brokenbar" unicode="&#xa6;" horiz-adv-x="199" 
d="M181 730h17l-74 -420h-17zM86 190h17l-74 -420h-17z" />
    <glyph glyph-name="section" unicode="&#xa7;" horiz-adv-x="615" 
d="M278 -10q-36 0 -70.5 8t-64.5 23t-54 35t-38 44l15 9q13 -23 35.5 -42t51.5 -33t62 -21.5t66 -7.5q35 0 67 7t57.5 21.5t42.5 36.5t23 52q6 34 -8 56.5t-41 37.5t-63 25.5t-73 19.5q-39 10 -75 23.5t-62.5 32t-39.5 43.5t-7 58q5 33 33.5 60.5t73.5 42.5q-25 16 -37.5 38
t-6.5 55q6 35 25 59t47.5 39t65 21.5t76.5 6.5q57 0 108 -21t79 -52l-16 -9q-24 28 -70.5 47.5t-102.5 19.5q-34 0 -66.5 -5t-59.5 -17.5t-45.5 -34t-24.5 -53.5t8 -53t40 -35.5t61.5 -24.5t72.5 -20q39 -11 75.5 -23t63.5 -29t41 -41t8 -57q-6 -34 -37 -64t-78 -45
q28 -17 42.5 -41.5t7.5 -61.5q-5 -33 -23.5 -57.5t-46.5 -40.5t-63.5 -24t-74.5 -8zM293 274q35 -9 68.5 -19t60.5 -24q45 15 75.5 42t36.5 59q5 30 -7.5 51t-37 37t-59.5 27t-74 22q-36 9 -71 19.5t-62 24.5q-45 -15 -72.5 -39t-32.5 -56q-6 -30 7 -53t38 -40t59 -29
t71 -22z" />
    <glyph glyph-name="dieresis" unicode="&#xa8;" 
d="M271 637q-11 0 -17.5 8t-4.5 19q2 9 9 15t17 6q13 0 18 -8.5t3 -19.5q-2 -8 -8.5 -14t-16.5 -6zM392 637q-11 0 -17.5 8t-4.5 19q2 9 9 15t17 6q13 0 18 -8.5t3 -19.5q-2 -8 -8.5 -14t-16.5 -6z" />
    <glyph glyph-name="copyright" unicode="&#xa9;" horiz-adv-x="909" 
d="M451 -10q-87 0 -157.5 33.5t-117 90.5t-66 133.5t-4.5 162.5q13 73 49.5 134t89 104.5t116.5 67.5t133 24q85 0 155 -34t116.5 -92.5t66 -135.5t4.5 -163q-13 -74 -49.5 -133.5t-88 -102.5t-115.5 -66t-132 -23zM452 5q65 0 126 23t110.5 64.5t84.5 99t47 126.5
q13 73 -2.5 146t-58 131t-110 94t-156.5 36q-66 0 -127.5 -23.5t-111.5 -66t-85 -101t-47 -128.5q-14 -77 3.5 -149t61 -128t111 -90t154.5 -34zM461 170q-45 0 -80.5 17.5t-58.5 47t-32 69t-1 84.5q7 38 26.5 70t47.5 54.5t62.5 35t70.5 12.5q57 0 94.5 -22t58.5 -63
l-14 -8q-20 38 -52.5 58t-86.5 20q-34 0 -65.5 -11.5t-57.5 -32.5t-44 -50.5t-24 -64.5q-7 -38 0.5 -74.5t27.5 -64.5t53 -45t77 -17q45 0 86.5 20.5t66.5 55.5l14 -7q-28 -41 -73 -62.5t-96 -21.5z" />
    <glyph glyph-name="ordfeminine" unicode="&#xaa;" horiz-adv-x="457" 
d="M397 496q-23 -38 -61 -61t-85 -23q-37 0 -66.5 14.5t-49 39.5t-27.5 58t-2 70q6 32 22 58.5t39.5 45t52.5 29t62 10.5q54 0 91 -30t48 -75l18 98h14l-57 -312h-14zM251 426q29 0 56.5 11t49 30.5t36.5 45t20 54.5q6 31 -1.5 59t-25.5 49.5t-45.5 34.5t-60.5 13
q-30 0 -57 -10t-48 -27.5t-35 -42t-18 -52.5q-6 -34 1 -64t24.5 -52.5t44 -35.5t59.5 -13z" />
    <glyph glyph-name="guillemotleft" unicode="&#xab;" horiz-adv-x="436" 
d="M72 242l3 15l161 119l-4 -22l-144 -106l107 -107l-4 -18zM212 242l3 15l161 119l-4 -22l-144 -106l107 -107l-4 -18z" />
    <glyph glyph-name="logicalnot" unicode="&#xac;" horiz-adv-x="635" 
d="M574 455h-490l3 15h508l-49 -280h-18z" />
    <glyph glyph-name="uni00AD" unicode="&#xad;" horiz-adv-x="492" 
d="M63 263h370l-3 -15h-370z" />
    <glyph glyph-name="registered" unicode="&#xae;" horiz-adv-x="909" 
d="M427 -133q-87 0 -157.5 33.5t-117 90.5t-66 133.5t-4.5 162.5q13 73 49.5 134t89 104.5t116.5 67.5t133 24q85 0 155 -34t116.5 -92.5t66 -135.5t4.5 -163q-13 -74 -49.5 -133.5t-88 -102.5t-115.5 -66t-132 -23zM428 -118q65 0 126 23t110.5 64.5t84.5 99t47 126.5
q13 73 -2.5 146t-58 131t-110 94t-156.5 36q-66 0 -127.5 -23.5t-111.5 -66t-85 -101t-47 -128.5q-14 -77 3.5 -149t61 -128t111 -90t154.5 -34zM357 431h149q25 0 46 -10t35.5 -27.5t21 -40t2.5 -46.5q-8 -43 -40.5 -72t-77.5 -29h-28l94 -149h-19l-103 164h56q38 0 67 25
t36 63q3 21 -2.5 40.5t-18 34t-31 23t-41.5 9.5h-133l-62 -359h-17z" />
    <glyph glyph-name="macron" unicode="&#xaf;" 
d="M210 674h264l-3 -15h-264z" />
    <glyph glyph-name="degree" unicode="&#xb0;" horiz-adv-x="450" 
d="M290 584q-32 0 -55 23t-23 55t23 55t55 23t55 -23t23 -55t-23 -55t-55 -23zM290 598q26 0 44.5 18.5t18.5 44.5t-18.5 44.5t-44.5 18.5t-44.5 -18.5t-18.5 -44.5t18.5 -44.5t44.5 -18.5z" />
    <glyph glyph-name="plusminus" unicode="&#xb1;" horiz-adv-x="492" 
d="M86 464h177l31 176h16l-31 -176h177l-3 -16h-177l-31 -178h-16l31 178h-177zM32 154h370l-3 -16h-370z" />
    <glyph glyph-name="twosuperior" unicode="&#xb2;" horiz-adv-x="399" 
d="M73 327q10 54 51.5 91t105.5 74q24 13 48 26.5t44 29t34.5 34t18.5 41.5q3 20 -2.5 38t-19 31.5t-34 21.5t-47.5 8q-34 0 -65 -15.5t-49 -39.5l-13 10q20 26 54.5 42.5t74.5 16.5q29 0 52.5 -9.5t39.5 -25t22.5 -36.5t2.5 -44q-5 -26 -19.5 -46t-35.5 -36.5t-46.5 -31
t-50.5 -28.5q-62 -36 -101.5 -70t-47.5 -83l-1 -4h251l-2 -14h-267z" />
    <glyph glyph-name="threesuperior" unicode="&#xb3;" horiz-adv-x="356" 
d="M180 302q-42 0 -73.5 15.5t-48.5 38.5l14 11q13 -21 42 -35.5t67 -14.5q51 0 86 25t43 70q4 24 -2.5 44t-21 34.5t-35 22.5t-44.5 8h-35l3 14h36q47 0 81.5 23t42.5 65q8 45 -21 72t-77 27q-34 0 -61.5 -11.5t-45.5 -28.5l-11 11q20 17 51 30t68 13q57 0 88.5 -32.5
t23.5 -82.5q-7 -36 -32.5 -61t-67.5 -33q38 -12 60.5 -43.5t14.5 -74.5q-9 -52 -47.5 -79.5t-97.5 -27.5z" />
    <glyph glyph-name="acute" unicode="&#xb4;" 
d="M385 762h25l-154 -140h-20z" />
    <glyph glyph-name="mu" unicode="&#xb5;" horiz-adv-x="621" 
d="M131 540h14l-50 -281q-11 -53 -6 -99.5t27 -81t61.5 -54.5t96.5 -20q47 0 87 16t71 43.5t51.5 65.5t29.5 82l59 329h14l-94 -540h-15l25 140q-29 -69 -89.5 -110t-139.5 -41q-45 0 -80 12.5t-59.5 34.5t-39 53t-18.5 68q-4 -23 -9.5 -52.5t-11 -62t-11.5 -67t-12 -66.5
q-13 -76 -28 -157h-14z" />
    <glyph glyph-name="mu" unicode="&#x3bc;" horiz-adv-x="621" 
d="M131 540h14l-50 -281q-11 -53 -6 -99.5t27 -81t61.5 -54.5t96.5 -20q47 0 87 16t71 43.5t51.5 65.5t29.5 82l59 329h14l-94 -540h-15l25 140q-29 -69 -89.5 -110t-139.5 -41q-45 0 -80 12.5t-59.5 34.5t-39 53t-18.5 68q-4 -23 -9.5 -52.5t-11 -62t-11.5 -67t-12 -66.5
q-13 -76 -28 -157h-14z" />
    <glyph glyph-name="paragraph" unicode="&#xb6;" horiz-adv-x="531" 
d="M351 302h-91q-47 0 -83.5 18.5t-60.5 49.5t-33.5 72t-1.5 86t31 82t57 63.5t76.5 41.5t88.5 15h187l-128 -730h-17l126 716h-61l-126 -716h-17z" />
    <glyph glyph-name="periodcentered" unicode="&#xb7;" horiz-adv-x="180" 
d="M89 232q-11 0 -17.5 8t-4.5 19q2 9 9 15t17 6q13 0 18 -8.5t3 -19.5q-2 -8 -8.5 -14t-16.5 -6z" />
    <glyph glyph-name="cedilla" unicode="&#xb8;" 
d="M182 -227q-43 0 -72.5 14t-50.5 36l14 10q18 -20 44.5 -33t66.5 -13q43 0 74.5 17t36.5 47q5 31 -21 49t-79 18h-16l15 82h15l-12 -69q61 -1 90.5 -23.5t23.5 -58.5q-7 -37 -42 -56.5t-87 -19.5z" />
    <glyph glyph-name="onesuperior" unicode="&#xb9;" horiz-adv-x="206" 
d="M117 308l66 372q-10 -20 -31.5 -36.5t-59.5 -16.5h-6l3 16h3q30 0 48.5 9.5t30 23t16.5 28.5t7 26h15l-76 -422h-16z" />
    <glyph glyph-name="ordmasculine" unicode="&#xba;" horiz-adv-x="432" 
d="M256 412q-38 0 -68.5 14.5t-50.5 39.5t-28.5 58t-1.5 70q6 32 21.5 58.5t38 45t50 29t57.5 10.5q37 0 67.5 -15t51 -40t29 -59t2.5 -71q-6 -32 -22 -57.5t-38.5 -44t-50 -28.5t-57.5 -10zM256 427q27 0 52.5 9.5t46 26.5t34.5 40.5t19 51.5q6 30 -0.5 60t-24.5 54
t-45.5 39t-63.5 15q-27 0 -52.5 -10t-45.5 -27.5t-34.5 -41.5t-19.5 -53q-6 -32 1 -61.5t25 -52.5t45.5 -36.5t62.5 -13.5z" />
    <glyph glyph-name="guillemotright" unicode="&#xbb;" horiz-adv-x="436" 
d="M363 256l-3 -15l-161 -119l4 22l144 106l-107 107l4 18zM223 256l-3 -15l-161 -119l4 22l144 106l-107 107l4 18z" />
    <glyph glyph-name="onequarter" unicode="&#xbc;" horiz-adv-x="690" 
d="M535 98h-224l-1 14l282 310h15l-55 -310h74l-2 -14h-74l-17 -98h-15zM537 112l51 284l-259 -284h208zM660 730h22l-655 -730h-22zM140 308l66 372q-10 -20 -31.5 -36.5t-59.5 -16.5h-6l3 16h3q30 0 48.5 9.5t30 23t16.5 28.5t7 26h15l-76 -422h-16z" />
    <glyph glyph-name="onehalf" unicode="&#xbd;" horiz-adv-x="800" 
d="M421 19q10 54 51.5 91t105.5 74q24 13 48 26.5t44 29t34.5 34t18.5 41.5q3 20 -2.5 38t-19 31.5t-34 21.5t-47.5 8q-34 0 -65 -15.5t-49 -39.5l-13 10q20 26 54.5 42.5t74.5 16.5q29 0 52.5 -9.5t39.5 -25t22.5 -36.5t2.5 -44q-5 -26 -19.5 -46t-35.5 -36.5t-46.5 -31
t-50.5 -28.5q-62 -36 -101.5 -70t-47.5 -83l-1 -4h251l-2 -14h-267zM660 730h22l-655 -730h-22zM140 308l66 372q-10 -20 -31.5 -36.5t-59.5 -16.5h-6l3 16h3q30 0 48.5 9.5t30 23t16.5 28.5t7 26h15l-76 -422h-16z" />
    <glyph glyph-name="threequarters" unicode="&#xbe;" horiz-adv-x="804" 
d="M179 302q-42 0 -73.5 15.5t-48.5 38.5l14 11q13 -21 42 -35.5t67 -14.5q51 0 86 25t43 70q4 24 -2.5 44t-21 34.5t-35 22.5t-44.5 8h-35l3 14h36q47 0 81.5 23t42.5 65q8 45 -21 72t-77 27q-34 0 -61.5 -11.5t-45.5 -28.5l-11 11q20 17 51 30t68 13q57 0 88.5 -32.5
t23.5 -82.5q-7 -36 -32.5 -61t-67.5 -33q38 -12 60.5 -43.5t14.5 -74.5q-9 -52 -47.5 -79.5t-97.5 -27.5zM649 98h-224l-1 14l282 310h15l-55 -310h74l-2 -14h-74l-17 -98h-15zM651 112l51 284l-259 -284h208zM774 730h22l-655 -730h-22z" />
    <glyph glyph-name="questiondown" unicode="&#xbf;" horiz-adv-x="518" 
d="M204 -240q-41 0 -78.5 12.5t-63.5 36t-38.5 58t-4.5 78.5q7 39 27 64.5t47 45t57.5 38t58.5 45t50 65t33 98.5l10 55h18l-10 -55q-11 -62 -33.5 -102t-51 -68t-59 -47t-57.5 -38.5t-47 -43.5t-27 -61q-7 -40 4.5 -71t35.5 -52t58 -32t73 -11q44 0 81 14t66 40l12 -10
q-31 -29 -72 -44t-89 -15zM330 456q-13 0 -18 8.5t-3 19.5q2 8 8.5 14t16.5 6q11 0 17.5 -8t4.5 -19q-2 -9 -9 -15t-17 -6z" />
    <glyph glyph-name="Agrave" unicode="&#xc0;" horiz-adv-x="732" 
d="M439 730h17l177 -730h-17l-59 243h-389l-143 -243h-19zM177 258h377l-109 452zM349 952h23l99 -140h-16z" />
    <glyph glyph-name="Aacute" unicode="&#xc1;" horiz-adv-x="732" 
d="M439 730h17l177 -730h-17l-59 243h-389l-143 -243h-19zM177 258h377l-109 452zM601 952h25l-154 -140h-20z" />
    <glyph glyph-name="Acircumflex" unicode="&#xc2;" horiz-adv-x="732" 
d="M439 730h17l177 -730h-17l-59 243h-389l-143 -243h-19zM177 258h377l-109 452zM472 952h15l95 -140h-19l-85 125l-127 -125h-22z" />
    <glyph glyph-name="Atilde" unicode="&#xc3;" horiz-adv-x="732" 
d="M439 730h17l177 -730h-17l-59 243h-389l-143 -243h-19zM177 258h377l-109 452zM280 811q7 36 32 60t59 24q27 0 49 -11.5t45 -25.5t43 -25.5t48 -11.5q29 0 49 18t27 53h16q-8 -42 -33 -63.5t-60 -21.5q-30 0 -53.5 12t-45.5 26q-21 14 -41.5 25t-45.5 11
q-26 0 -46.5 -19t-26.5 -51h-16z" />
    <glyph glyph-name="Adieresis" unicode="&#xc4;" horiz-adv-x="732" 
d="M439 730h17l177 -730h-17l-59 243h-389l-143 -243h-19zM177 258h377l-109 452zM400 827q-11 0 -17.5 8t-4.5 19q2 9 9 15t17 6q13 0 18 -8.5t3 -19.5q-2 -8 -8.5 -14t-16.5 -6zM521 827q-11 0 -17.5 8t-4.5 19q2 9 9 15t17 6q13 0 18 -8.5t3 -19.5q-2 -8 -8.5 -14
t-16.5 -6z" />
    <glyph glyph-name="Aring" unicode="&#xc5;" horiz-adv-x="732" 
d="M431 716q-30 6 -48 31.5t-12 60.5q6 32 31.5 53.5t57.5 21.5q20 0 36 -8t26 -21t14 -29.5t1 -32.5q-5 -29 -26.5 -50t-51.5 -26l174 -716h-17l-59 243h-389l-143 -243h-19zM177 258h377l-109 452zM448 730q27 0 48 19t26 45q5 28 -12 51t-51 23q-26 0 -47 -18t-26 -45
q-5 -29 11.5 -52t50.5 -23z" />
    <glyph glyph-name="AE" unicode="&#xc6;" horiz-adv-x="1028" 
d="M499 730h530l-3 -16h-508l41 -341h407l-2 -15h-403l41 -342h301l-2 -16h-313l-29 243h-368l-162 -243h-20zM201 258h356l-54 451z" />
    <glyph glyph-name="Ccedilla" unicode="&#xc7;" horiz-adv-x="832" 
d="M412 -232q-43 0 -72.5 14t-50.5 36l14 10q18 -20 44.5 -33t66.5 -13q43 0 74.5 17t36.5 47q5 31 -21 49t-79 18h-16l14 78q-85 2 -151.5 35.5t-110 90.5t-60 132.5t-1.5 160.5q13 73 51 134t92.5 104.5t121 67.5t136.5 24q106 0 182.5 -42t119.5 -123l-15 -8
q-38 75 -109.5 116.5t-178.5 41.5q-67 0 -131 -23.5t-116 -66t-88.5 -101t-48.5 -128.5q-14 -77 1.5 -149t56.5 -128t106.5 -90t152.5 -34q45 0 89 10.5t83.5 30t74 48t60.5 64.5l14 -9q-54 -77 -138 -117t-178 -42l-11 -64q61 -1 90.5 -23.5t23.5 -58.5q-7 -37 -42 -56.5
t-87 -19.5z" />
    <glyph glyph-name="Egrave" unicode="&#xc8;" horiz-adv-x="644" 
d="M179 730h473l-3 -16h-456l-60 -341h456l-2 -15h-456l-61 -342h456l-2 -16h-473zM312 952h23l99 -140h-16z" />
    <glyph glyph-name="Eacute" unicode="&#xc9;" horiz-adv-x="644" 
d="M179 730h473l-3 -16h-456l-60 -341h456l-2 -15h-456l-61 -342h456l-2 -16h-473zM563 952h25l-154 -140h-20z" />
    <glyph glyph-name="Ecircumflex" unicode="&#xca;" horiz-adv-x="644" 
d="M179 730h473l-3 -16h-456l-60 -341h456l-2 -15h-456l-61 -342h456l-2 -16h-473zM435 952h15l95 -140h-19l-85 125l-127 -125h-22z" />
    <glyph glyph-name="Edieresis" unicode="&#xcb;" horiz-adv-x="644" 
d="M179 730h473l-3 -16h-456l-60 -341h456l-2 -15h-456l-61 -342h456l-2 -16h-473zM363 827q-11 0 -17.5 8t-4.5 19q2 9 9 15t17 6q13 0 18 -8.5t3 -19.5q-2 -8 -8.5 -14t-16.5 -6zM484 827q-11 0 -17.5 8t-4.5 19q2 9 9 15t17 6q13 0 18 -8.5t3 -19.5q-2 -8 -8.5 -14
t-16.5 -6z" />
    <glyph glyph-name="Igrave" unicode="&#xcc;" horiz-adv-x="237" 
d="M191 730h17l-128 -730h-17zM101 952h23l99 -140h-16z" />
    <glyph glyph-name="Iacute" unicode="&#xcd;" horiz-adv-x="237" 
d="M191 730h17l-128 -730h-17zM352 952h25l-154 -140h-20z" />
    <glyph glyph-name="Icircumflex" unicode="&#xce;" horiz-adv-x="237" 
d="M191 730h17l-128 -730h-17zM224 952h15l95 -140h-19l-85 125l-127 -125h-22z" />
    <glyph glyph-name="Idieresis" unicode="&#xcf;" horiz-adv-x="237" 
d="M191 730h17l-128 -730h-17zM152 827q-11 0 -17.5 8t-4.5 19q2 9 9 15t17 6q13 0 18 -8.5t3 -19.5q-2 -8 -8.5 -14t-16.5 -6zM273 827q-11 0 -17.5 8t-4.5 19q2 9 9 15t17 6q13 0 18 -8.5t3 -19.5q-2 -8 -8.5 -14t-16.5 -6z" />
    <glyph glyph-name="Eth" unicode="&#xd0;" horiz-adv-x="773" 
d="M59 383h79l61 347h189q79 -2 144.5 -33.5t110 -85t63.5 -125t5 -151.5q-14 -79 -51 -141.5t-90.5 -105.5t-120.5 -65.5t-141 -22.5h-237l64 368h-79zM153 368l-62 -353h218q70 0 134 22t115 64t86.5 102t49.5 136q13 76 -5 144.5t-60.5 120t-105.5 81.5t-140 30h-170
l-58 -332h267l-3 -15h-266z" />
    <glyph glyph-name="Ntilde" unicode="&#xd1;" horiz-adv-x="760" 
d="M179 730h17l406 -705l124 705h17l-128 -730h-18l-406 703l-123 -703h-17zM616 940h25l-154 -140h-20z" />
    <glyph glyph-name="Ograve" unicode="&#xd2;" horiz-adv-x="895" 
d="M444 -10q-87 0 -157.5 33.5t-117 90.5t-66 133.5t-4.5 162.5q13 73 49.5 134t89 104.5t116.5 67.5t133 24q93 0 163.5 -37.5t115 -98t61.5 -136.5t2 -153q-13 -74 -49.5 -133.5t-88 -102.5t-115.5 -66t-132 -23zM445 5q65 0 126 23t110.5 64.5t84.5 99t47 126.5
q13 73 -2.5 146t-58 131t-110 94t-156.5 36q-66 0 -127.5 -23.5t-111.5 -66t-85 -101t-47 -128.5q-14 -83 5 -155.5t63.5 -127.5t111.5 -86.5t150 -31.5zM388 957h23l99 -140h-16z" />
    <glyph glyph-name="Oacute" unicode="&#xd3;" horiz-adv-x="895" 
d="M444 -10q-87 0 -157.5 33.5t-117 90.5t-66 133.5t-4.5 162.5q13 73 49.5 134t89 104.5t116.5 67.5t133 24q93 0 163.5 -37.5t115 -98t61.5 -136.5t2 -153q-13 -74 -49.5 -133.5t-88 -102.5t-115.5 -66t-132 -23zM445 5q65 0 126 23t110.5 64.5t84.5 99t47 126.5
q13 73 -2.5 146t-58 131t-110 94t-156.5 36q-66 0 -127.5 -23.5t-111.5 -66t-85 -101t-47 -128.5q-14 -83 5 -155.5t63.5 -127.5t111.5 -86.5t150 -31.5zM329 816q7 36 32 60t59 24q27 0 49 -11.5t45 -25.5t43 -25.5t48 -11.5q29 0 49 18t27 53h16q-8 -42 -33 -63.5
t-60 -21.5q-30 0 -53.5 12t-45.5 26q-21 14 -41.5 25t-45.5 11q-26 0 -46.5 -19t-26.5 -51h-16z" />
    <glyph glyph-name="Ocircumflex" unicode="&#xd4;" horiz-adv-x="895" 
d="M444 -10q-87 0 -157.5 33.5t-117 90.5t-66 133.5t-4.5 162.5q13 73 49.5 134t89 104.5t116.5 67.5t133 24q93 0 163.5 -37.5t115 -98t61.5 -136.5t2 -153q-13 -74 -49.5 -133.5t-88 -102.5t-115.5 -66t-132 -23zM445 5q65 0 126 23t110.5 64.5t84.5 99t47 126.5
q13 73 -2.5 146t-58 131t-110 94t-156.5 36q-66 0 -127.5 -23.5t-111.5 -66t-85 -101t-47 -128.5q-14 -83 5 -155.5t63.5 -127.5t111.5 -86.5t150 -31.5zM511 957h15l95 -140h-19l-85 125l-127 -125h-22z" />
    <glyph glyph-name="Otilde" unicode="&#xd5;" horiz-adv-x="895" 
d="M444 -10q-87 0 -157.5 33.5t-117 90.5t-66 133.5t-4.5 162.5q13 73 49.5 134t89 104.5t116.5 67.5t133 24q93 0 163.5 -37.5t115 -98t61.5 -136.5t2 -153q-13 -74 -49.5 -133.5t-88 -102.5t-115.5 -66t-132 -23zM445 5q65 0 126 23t110.5 64.5t84.5 99t47 126.5
q13 73 -2.5 146t-58 131t-110 94t-156.5 36q-66 0 -127.5 -23.5t-111.5 -66t-85 -101t-47 -128.5q-14 -83 5 -155.5t63.5 -127.5t111.5 -86.5t150 -31.5zM339 816q7 36 32 60t59 24q27 0 49 -11.5t45 -25.5t43 -25.5t48 -11.5q29 0 49 18t27 53h16q-8 -42 -33 -63.5
t-60 -21.5q-30 0 -53.5 12t-45.5 26q-21 14 -41.5 25t-45.5 11q-26 0 -46.5 -19t-26.5 -51h-16z" />
    <glyph glyph-name="Odieresis" unicode="&#xd6;" horiz-adv-x="895" 
d="M444 -10q-87 0 -157.5 33.5t-117 90.5t-66 133.5t-4.5 162.5q13 73 49.5 134t89 104.5t116.5 67.5t133 24q93 0 163.5 -37.5t115 -98t61.5 -136.5t2 -153q-13 -74 -49.5 -133.5t-88 -102.5t-115.5 -66t-132 -23zM445 5q65 0 126 23t110.5 64.5t84.5 99t47 126.5
q13 73 -2.5 146t-58 131t-110 94t-156.5 36q-66 0 -127.5 -23.5t-111.5 -66t-85 -101t-47 -128.5q-14 -83 5 -155.5t63.5 -127.5t111.5 -86.5t150 -31.5zM439 832q-11 0 -17.5 8t-4.5 19q2 9 9 15t17 6q13 0 18 -8.5t3 -19.5q-2 -8 -8.5 -14t-16.5 -6zM560 832
q-11 0 -17.5 8t-4.5 19q2 9 9 15t17 6q13 0 18 -8.5t3 -19.5q-2 -8 -8.5 -14t-16.5 -6z" />
    <glyph glyph-name="multiply" unicode="&#xd7;" horiz-adv-x="492" 
d="M78 224l168 143l-115 140l11 10l115 -140l162 137l10 -11l-162 -138l114 -138l-12 -10l-114 138l-167 -142z" />
    <glyph glyph-name="Oslash" unicode="&#xd8;" horiz-adv-x="895" 
d="M444 -10q-69 0 -128 21.5t-104 59.5l-72 -80l-11 9l72 80q-63 58 -91.5 144t-10.5 186q13 73 49.5 134t89 104.5t116.5 67.5t133 24q72 0 130 -23t102 -62l68 76l11 -9l-69 -76q32 -31 55 -69.5t35.5 -81.5t15.5 -89t-6 -91q-13 -74 -49.5 -133.5t-88 -102.5t-115.5 -66
t-132 -23zM115 406q-16 -95 10.5 -176.5t86.5 -137.5l496 551q-42 38 -97.5 60t-124.5 22q-66 0 -127.5 -23.5t-111.5 -66t-85 -101t-47 -128.5zM445 5q65 0 126 23t110.5 64.5t84.5 99t47 126.5q8 43 5.5 86.5t-14.5 84.5t-34 78t-52 67l-495 -551q43 -37 99 -57.5
t123 -20.5z" />
    <glyph glyph-name="Ugrave" unicode="&#xd9;" horiz-adv-x="700" 
d="M325 -10q-68 0 -117 21t-79 57.5t-40 86t0 107.5l82 468h17l-83 -473q-9 -51 0 -96.5t36.5 -80t74 -54.5t112.5 -20q50 0 93 15.5t75.5 43t54 65t29.5 81.5l91 519h17l-91 -519q-9 -48 -32 -89t-58.5 -70t-81.5 -45.5t-100 -16.5zM325 941h23l99 -140h-16z" />
    <glyph glyph-name="Uacute" unicode="&#xda;" horiz-adv-x="700" 
d="M325 -10q-68 0 -117 21t-79 57.5t-40 86t0 107.5l82 468h17l-83 -473q-9 -51 0 -96.5t36.5 -80t74 -54.5t112.5 -20q50 0 93 15.5t75.5 43t54 65t29.5 81.5l91 519h17l-91 -519q-9 -48 -32 -89t-58.5 -70t-81.5 -45.5t-100 -16.5zM576 941h25l-154 -140h-20z" />
    <glyph glyph-name="Ucircumflex" unicode="&#xdb;" horiz-adv-x="700" 
d="M325 -10q-68 0 -117 21t-79 57.5t-40 86t0 107.5l82 468h17l-83 -473q-9 -51 0 -96.5t36.5 -80t74 -54.5t112.5 -20q50 0 93 15.5t75.5 43t54 65t29.5 81.5l91 519h17l-91 -519q-9 -48 -32 -89t-58.5 -70t-81.5 -45.5t-100 -16.5zM448 941h15l95 -140h-19l-85 125
l-127 -125h-22z" />
    <glyph glyph-name="Udieresis" unicode="&#xdc;" horiz-adv-x="700" 
d="M325 -10q-68 0 -117 21t-79 57.5t-40 86t0 107.5l82 468h17l-83 -473q-9 -51 0 -96.5t36.5 -80t74 -54.5t112.5 -20q50 0 93 15.5t75.5 43t54 65t29.5 81.5l91 519h17l-91 -519q-9 -48 -32 -89t-58.5 -70t-81.5 -45.5t-100 -16.5zM376 816q-11 0 -17.5 8t-4.5 19
q2 9 9 15t17 6q13 0 18 -8.5t3 -19.5q-2 -8 -8.5 -14t-16.5 -6zM497 816q-11 0 -17.5 8t-4.5 19q2 9 9 15t17 6q13 0 18 -8.5t3 -19.5q-2 -8 -8.5 -14t-16.5 -6z" />
    <glyph glyph-name="Yacute" unicode="&#xdd;" horiz-adv-x="645" 
d="M316 276l-196 454h19l188 -439l338 439h21l-353 -456l-48 -274h-17zM552 942h25l-154 -140h-20z" />
    <glyph glyph-name="Thorn" unicode="&#xde;" horiz-adv-x="582" 
d="M172 730h17l-25 -142h145q51 0 93 -16.5t71 -46t42 -71t4 -91.5q-7 -42 -27.5 -77.5t-52.5 -60.5t-75 -39t-94 -14h-179l-30 -172h-17zM161 572l-67 -384h179q48 0 87 13t68.5 36.5t48.5 56t26 71.5q8 45 -3.5 83t-38 65.5t-66 43t-87.5 15.5h-147z" />
    <glyph glyph-name="germandbls" unicode="&#xdf;" horiz-adv-x="604" 
d="M-143 -232q79 0 119.5 45t54.5 123l118 668q17 96 75 145.5t143 49.5q49 0 85.5 -19t59.5 -49.5t31.5 -69.5t1.5 -79q-6 -33 -22 -60t-38.5 -47.5t-49.5 -34t-55 -20.5q39 -9 70 -31.5t51.5 -54t28 -69t0.5 -77.5q-8 -42 -27.5 -77.5t-49.5 -61.5t-69.5 -40.5
t-87.5 -14.5q-25 0 -50 6t-46.5 15t-39.5 21t-30 24l11 10q11 -12 28.5 -23t38.5 -19.5t44 -13.5t44 -5q44 0 81.5 14t66 38.5t47 57.5t24.5 71q7 43 -3 83t-34.5 70.5t-61.5 49t-84 18.5h-17l2 17h17q26 0 57 10t59.5 29.5t50 49t28.5 68.5q7 38 -0.5 74t-28.5 64t-55 45
t-80 17q-74 0 -129 -47t-71 -135l-118 -666q-16 -89 -60.5 -137t-128.5 -48h-4z" />
    <glyph glyph-name="agrave" unicode="&#xe0;" horiz-adv-x="684" 
d="M315 -11q-65 0 -116.5 25t-86 68.5t-48.5 100.5t-3 122q10 55 37 100.5t66 77.5t88 50t103 18t96.5 -16.5t74 -45.5t50 -68t24.5 -84l36 203h14l-95 -540h-14l28 155q-18 -38 -44 -68.5t-59 -52t-71 -33.5t-80 -12zM316 4q51 0 96.5 18.5t81 50.5t59.5 76.5t33 97.5
q10 56 -1.5 108.5t-41.5 92.5t-77.5 64t-111.5 24q-51 0 -97.5 -17.5t-83.5 -48.5t-62 -74t-34 -95q-10 -60 3 -114t44.5 -94.5t80.5 -64.5t111 -24zM262 768h23l99 -140h-16z" />
    <glyph glyph-name="aacute" unicode="&#xe1;" horiz-adv-x="684" 
d="M315 -11q-65 0 -116.5 25t-86 68.5t-48.5 100.5t-3 122q10 55 37 100.5t66 77.5t88 50t103 18t96.5 -16.5t74 -45.5t50 -68t24.5 -84l36 203h14l-95 -540h-14l28 155q-18 -38 -44 -68.5t-59 -52t-71 -33.5t-80 -12zM316 4q51 0 96.5 18.5t81 50.5t59.5 76.5t33 97.5
q10 56 -1.5 108.5t-41.5 92.5t-77.5 64t-111.5 24q-51 0 -97.5 -17.5t-83.5 -48.5t-62 -74t-34 -95q-10 -60 3 -114t44.5 -94.5t80.5 -64.5t111 -24zM513 768h25l-154 -140h-20z" />
    <glyph glyph-name="acircumflex" unicode="&#xe2;" horiz-adv-x="684" 
d="M315 -11q-65 0 -116.5 25t-86 68.5t-48.5 100.5t-3 122q10 55 37 100.5t66 77.5t88 50t103 18t96.5 -16.5t74 -45.5t50 -68t24.5 -84l36 203h14l-95 -540h-14l28 155q-18 -38 -44 -68.5t-59 -52t-71 -33.5t-80 -12zM316 4q51 0 96.5 18.5t81 50.5t59.5 76.5t33 97.5
q10 56 -1.5 108.5t-41.5 92.5t-77.5 64t-111.5 24q-51 0 -97.5 -17.5t-83.5 -48.5t-62 -74t-34 -95q-10 -60 3 -114t44.5 -94.5t80.5 -64.5t111 -24zM385 768h15l95 -140h-19l-85 125l-127 -125h-22z" />
    <glyph glyph-name="atilde" unicode="&#xe3;" horiz-adv-x="684" 
d="M315 -11q-65 0 -116.5 25t-86 68.5t-48.5 100.5t-3 122q10 55 37 100.5t66 77.5t88 50t103 18t96.5 -16.5t74 -45.5t50 -68t24.5 -84l36 203h14l-95 -540h-14l28 155q-18 -38 -44 -68.5t-59 -52t-71 -33.5t-80 -12zM316 4q51 0 96.5 18.5t81 50.5t59.5 76.5t33 97.5
q10 56 -1.5 108.5t-41.5 92.5t-77.5 64t-111.5 24q-51 0 -97.5 -17.5t-83.5 -48.5t-62 -74t-34 -95q-10 -60 3 -114t44.5 -94.5t80.5 -64.5t111 -24zM205 637q7 36 32 60t59 24q27 0 49 -11.5t45 -25.5t43 -25.5t48 -11.5q29 0 49 18t27 53h16q-8 -42 -33 -63.5t-60 -21.5
q-30 0 -53.5 12t-45.5 26q-21 14 -41.5 25t-45.5 11q-26 0 -46.5 -19t-26.5 -51h-16z" />
    <glyph glyph-name="adieresis" unicode="&#xe4;" horiz-adv-x="684" 
d="M315 -11q-65 0 -116.5 25t-86 68.5t-48.5 100.5t-3 122q10 55 37 100.5t66 77.5t88 50t103 18t96.5 -16.5t74 -45.5t50 -68t24.5 -84l36 203h14l-95 -540h-14l28 155q-18 -38 -44 -68.5t-59 -52t-71 -33.5t-80 -12zM316 4q51 0 96.5 18.5t81 50.5t59.5 76.5t33 97.5
q10 56 -1.5 108.5t-41.5 92.5t-77.5 64t-111.5 24q-51 0 -97.5 -17.5t-83.5 -48.5t-62 -74t-34 -95q-10 -60 3 -114t44.5 -94.5t80.5 -64.5t111 -24zM313 643q-11 0 -17.5 8t-4.5 19q2 9 9 15t17 6q13 0 18 -8.5t3 -19.5q-2 -8 -8.5 -14t-16.5 -6zM434 643q-11 0 -17.5 8
t-4.5 19q2 9 9 15t17 6q13 0 18 -8.5t3 -19.5q-2 -8 -8.5 -14t-16.5 -6z" />
    <glyph glyph-name="aring" unicode="&#xe5;" horiz-adv-x="684" 
d="M315 -11q-65 0 -116.5 25t-86 68.5t-48.5 100.5t-3 122q10 55 37 100.5t66 77.5t88 50t103 18t96.5 -16.5t74 -45.5t50 -68t24.5 -84l36 203h14l-95 -540h-14l28 155q-18 -38 -44 -68.5t-59 -52t-71 -33.5t-80 -12zM316 4q51 0 96.5 18.5t81 50.5t59.5 76.5t33 97.5
q10 56 -1.5 108.5t-41.5 92.5t-77.5 64t-111.5 24q-51 0 -97.5 -17.5t-83.5 -48.5t-62 -74t-34 -95q-10 -60 3 -114t44.5 -94.5t80.5 -64.5t111 -24zM371 617q-18 0 -33 7t-25.5 20t-15 29.5t-1.5 36.5q6 32 31.5 53.5t57.5 21.5q20 0 36 -8t26 -21t14 -29.5t1 -32.5
q-6 -32 -31 -54.5t-60 -22.5zM373 632q27 0 48 19t26 45q5 28 -12 51t-51 23q-26 0 -47 -18t-26 -45q-5 -29 11.5 -52t50.5 -23z" />
    <glyph glyph-name="ae" unicode="&#xe6;" horiz-adv-x="1131" 
d="M205 -6q-52 0 -88 13.5t-57.5 36t-29 52.5t-1.5 62q7 40 30 65.5t59.5 39.5t85 19.5t107.5 5.5h218q0 4 1 7l8 44q8 45 -2 81t-36.5 62t-69 40t-97.5 14q-69 0 -128.5 -22.5t-104.5 -75.5l-14 12q48 51 110 76t136 25q52 0 94 -12t71 -34.5t44.5 -54.5t14.5 -71
q19 40 48.5 72t66 54t78.5 34t86 12q61 0 109 -21.5t79 -59t45 -88t8 -108.5h-535q-7 -60 8 -109.5t48.5 -85t83.5 -55.5t113 -20q65 0 124.5 25t99.5 75l14 -9q-45 -54 -106.5 -80t-133.5 -26q-56 0 -101.5 14.5t-79 41t-54.5 62.5t-28 80q-27 -50 -62.5 -86.5t-77.5 -60
t-88.5 -35t-95.5 -11.5zM542 288h519q4 52 -9.5 97t-43 78.5t-73.5 52.5t-101 19q-51 0 -99 -17t-87 -48t-66.5 -75.5t-37.5 -98.5zM208 9q43 0 87.5 11t86.5 35t78.5 62t65.5 91q-3 34 1 66h-219q-56 0 -101.5 -4.5t-79 -17.5t-54.5 -36t-27 -60q-5 -29 1.5 -55.5
t25.5 -46.5t52.5 -32.5t82.5 -12.5z" />
    <glyph glyph-name="ccedilla" unicode="&#xe7;" horiz-adv-x="632" 
d="M287 -233q-43 0 -72.5 14t-50.5 36l14 10q18 -20 44.5 -33t66.5 -13q43 0 74.5 17t36.5 47q5 31 -21 49t-79 18h-16l14 78q-60 4 -109 30.5t-81 69t-45 97t-2 116.5q10 55 36.5 100.5t65.5 78.5t88 51t102 18q87 0 147.5 -40.5t90.5 -104.5l-15 -7q-27 60 -84.5 98.5
t-138.5 38.5q-51 0 -97 -17.5t-83 -49t-62 -75t-34 -95.5q-10 -59 3.5 -112t46 -94t82 -65t112.5 -24q34 0 68 7.5t64.5 22.5t56.5 37t45 51l14 -9q-20 -30 -47 -53.5t-59.5 -39t-68.5 -23.5t-73 -8q-2 0 -4 0.5t-4 0.5l-11 -65q61 -1 90.5 -23.5t23.5 -58.5
q-7 -37 -42 -56.5t-87 -19.5z" />
    <glyph glyph-name="egrave" unicode="&#xe8;" horiz-adv-x="659" 
d="M323 -11q-70 0 -124.5 23t-89 64.5t-48 98t-1.5 123.5q10 58 38.5 104.5t70 79.5t92.5 51t105 18q61 0 109 -21.5t79 -59t45 -88t8 -108.5l-1 -10h-535q-5 -57 11.5 -105t49.5 -82.5t82 -53.5t111 -19q65 0 124.5 25t99.5 75l14 -9q-45 -54 -106.5 -80t-133.5 -26z
M72 278h519q6 54 -6.5 101t-42 81.5t-74.5 54.5t-103 20q-51 0 -99 -17t-87 -48t-66.5 -75.5t-37.5 -98.5zM267 769h23l99 -140h-16z" />
    <glyph glyph-name="eacute" unicode="&#xe9;" horiz-adv-x="659" 
d="M323 -11q-70 0 -124.5 23t-89 64.5t-48 98t-1.5 123.5q10 58 38.5 104.5t70 79.5t92.5 51t105 18q61 0 109 -21.5t79 -59t45 -88t8 -108.5l-1 -10h-535q-5 -57 11.5 -105t49.5 -82.5t82 -53.5t111 -19q65 0 124.5 25t99.5 75l14 -9q-45 -54 -106.5 -80t-133.5 -26z
M72 278h519q6 54 -6.5 101t-42 81.5t-74.5 54.5t-103 20q-51 0 -99 -17t-87 -48t-66.5 -75.5t-37.5 -98.5zM518 769h25l-154 -140h-20z" />
    <glyph glyph-name="ecircumflex" unicode="&#xea;" horiz-adv-x="659" 
d="M323 -11q-70 0 -124.5 23t-89 64.5t-48 98t-1.5 123.5q10 58 38.5 104.5t70 79.5t92.5 51t105 18q61 0 109 -21.5t79 -59t45 -88t8 -108.5l-1 -10h-535q-5 -57 11.5 -105t49.5 -82.5t82 -53.5t111 -19q65 0 124.5 25t99.5 75l14 -9q-45 -54 -106.5 -80t-133.5 -26z
M72 278h519q6 54 -6.5 101t-42 81.5t-74.5 54.5t-103 20q-51 0 -99 -17t-87 -48t-66.5 -75.5t-37.5 -98.5zM390 769h15l95 -140h-19l-85 125l-127 -125h-22z" />
    <glyph glyph-name="edieresis" unicode="&#xeb;" horiz-adv-x="659" 
d="M323 -11q-70 0 -124.5 23t-89 64.5t-48 98t-1.5 123.5q10 58 38.5 104.5t70 79.5t92.5 51t105 18q61 0 109 -21.5t79 -59t45 -88t8 -108.5l-1 -10h-535q-5 -57 11.5 -105t49.5 -82.5t82 -53.5t111 -19q65 0 124.5 25t99.5 75l14 -9q-45 -54 -106.5 -80t-133.5 -26z
M72 278h519q6 54 -6.5 101t-42 81.5t-74.5 54.5t-103 20q-51 0 -99 -17t-87 -48t-66.5 -75.5t-37.5 -98.5zM318 644q-11 0 -17.5 8t-4.5 19q2 9 9 15t17 6q13 0 18 -8.5t3 -19.5q-2 -8 -8.5 -14t-16.5 -6zM439 644q-11 0 -17.5 8t-4.5 19q2 9 9 15t17 6q13 0 18 -8.5
t3 -19.5q-2 -8 -8.5 -14t-16.5 -6z" />
    <glyph glyph-name="igrave" unicode="&#xec;" horiz-adv-x="188" 
d="M38 0l96 540h16l-96 -540h-16zM43 762h23l99 -140h-16z" />
    <glyph glyph-name="iacute" unicode="&#xed;" horiz-adv-x="188" 
d="M38 0l96 540h16l-96 -540h-16zM296 762h25l-154 -140h-20z" />
    <glyph glyph-name="icircumflex" unicode="&#xee;" horiz-adv-x="188" 
d="M38 0l96 540h16l-96 -540h-16zM166 762h15l95 -140h-19l-85 125l-127 -125h-22z" />
    <glyph glyph-name="idieresis" unicode="&#xef;" horiz-adv-x="188" 
d="M38 0l96 540h16l-96 -540h-16zM94 637q-11 0 -17.5 8t-4.5 19q2 9 9 15t17 6q13 0 18 -8.5t3 -19.5q-2 -8 -8.5 -14t-16.5 -6zM215 637q-11 0 -17.5 8t-4.5 19q2 9 9 15t17 6q13 0 18 -8.5t3 -19.5q-2 -8 -8.5 -14t-16.5 -6z" />
    <glyph glyph-name="eth" unicode="&#xf0;" horiz-adv-x="676" 
d="M280 645l137 69q-18 19 -37.5 37t-40.5 37h24q18 -17 35 -33.5t33 -33.5l139 70l7 -11l-136 -69q107 -118 148 -238.5t21 -234.5q-10 -55 -37.5 -101t-66.5 -79t-87 -51t-99 -18q-65 0 -117.5 25t-88 68.5t-50 100.5t-2.5 122q10 57 37 102.5t66.5 77.5t89 49t104.5 17
q45 0 83.5 -14t69.5 -38t52.5 -57t33.5 -71q-11 81 -52.5 164.5t-119.5 168.5l-139 -71zM320 4q48 0 93.5 18t82.5 50t62.5 75t34.5 94q10 55 -3 108t-44.5 94.5t-79 67t-107.5 25.5q-55 0 -102.5 -17.5t-84 -48.5t-61 -74t-33.5 -94q-10 -57 2.5 -111t44.5 -95.5
t81.5 -66.5t113.5 -25z" />
    <glyph glyph-name="ntilde" unicode="&#xf1;" horiz-adv-x="643" 
d="M130 540h15l-24 -136q13 32 35.5 59t51.5 46.5t64.5 30.5t76.5 11q61 0 106.5 -21t73 -57.5t37 -85.5t-0.5 -106l-50 -281h-15l50 281q9 52 1 98.5t-33 81t-67.5 55t-102.5 20.5q-47 0 -87 -15t-71 -41.5t-51.5 -62.5t-28.5 -78l-60 -339h-15zM205 647q7 36 32 60t59 24
q27 0 49 -11.5t45 -25.5t43 -25.5t48 -11.5q29 0 49 18t27 53h16q-8 -42 -33 -63.5t-60 -21.5q-30 0 -53.5 12t-45.5 26q-21 14 -41.5 25t-45.5 11q-26 0 -46.5 -19t-26.5 -51h-16z" />
    <glyph glyph-name="ograve" unicode="&#xf2;" horiz-adv-x="667" 
d="M318 -11q-65 0 -117.5 25t-87.5 68.5t-49.5 100.5t-2.5 122q10 55 36.5 100t65.5 77.5t88 50.5t103 18q67 0 119 -27.5t85 -72.5t46 -102t2 -117q-10 -55 -37 -99.5t-66 -76.5t-86.5 -49.5t-98.5 -17.5zM318 4q48 0 93 17t82 48t62.5 73.5t34.5 92.5q10 57 -2 111t-43 96
t-80 68t-113 26q-51 0 -97 -17.5t-82.5 -48.5t-61.5 -74.5t-34 -94.5q-10 -57 2.5 -110.5t44 -95t81 -66.5t113.5 -25zM261 768h23l99 -140h-16z" />
    <glyph glyph-name="oacute" unicode="&#xf3;" horiz-adv-x="667" 
d="M318 -11q-65 0 -117.5 25t-87.5 68.5t-49.5 100.5t-2.5 122q10 55 36.5 100t65.5 77.5t88 50.5t103 18q67 0 119 -27.5t85 -72.5t46 -102t2 -117q-10 -55 -37 -99.5t-66 -76.5t-86.5 -49.5t-98.5 -17.5zM318 4q48 0 93 17t82 48t62.5 73.5t34.5 92.5q10 57 -2 111t-43 96
t-80 68t-113 26q-51 0 -97 -17.5t-82.5 -48.5t-61.5 -74.5t-34 -94.5q-10 -57 2.5 -110.5t44 -95t81 -66.5t113.5 -25zM512 768h25l-154 -140h-20z" />
    <glyph glyph-name="ocircumflex" unicode="&#xf4;" horiz-adv-x="667" 
d="M318 -11q-65 0 -117.5 25t-87.5 68.5t-49.5 100.5t-2.5 122q10 55 36.5 100t65.5 77.5t88 50.5t103 18q67 0 119 -27.5t85 -72.5t46 -102t2 -117q-10 -55 -37 -99.5t-66 -76.5t-86.5 -49.5t-98.5 -17.5zM318 4q48 0 93 17t82 48t62.5 73.5t34.5 92.5q10 57 -2 111t-43 96
t-80 68t-113 26q-51 0 -97 -17.5t-82.5 -48.5t-61.5 -74.5t-34 -94.5q-10 -57 2.5 -110.5t44 -95t81 -66.5t113.5 -25zM384 768h15l95 -140h-19l-85 125l-127 -125h-22z" />
    <glyph glyph-name="otilde" unicode="&#xf5;" horiz-adv-x="667" 
d="M318 -11q-65 0 -117.5 25t-87.5 68.5t-49.5 100.5t-2.5 122q10 55 36.5 100t65.5 77.5t88 50.5t103 18q67 0 119 -27.5t85 -72.5t46 -102t2 -117q-10 -55 -37 -99.5t-66 -76.5t-86.5 -49.5t-98.5 -17.5zM318 4q48 0 93 17t82 48t62.5 73.5t34.5 92.5q10 57 -2 111t-43 96
t-80 68t-113 26q-51 0 -97 -17.5t-82.5 -48.5t-61.5 -74.5t-34 -94.5q-10 -57 2.5 -110.5t44 -95t81 -66.5t113.5 -25zM192 627q7 36 32 60t59 24q27 0 49 -11.5t45 -25.5t43 -25.5t48 -11.5q29 0 49 18t27 53h16q-8 -42 -33 -63.5t-60 -21.5q-30 0 -53.5 12t-45.5 26
q-21 14 -41.5 25t-45.5 11q-26 0 -46.5 -19t-26.5 -51h-16z" />
    <glyph glyph-name="odieresis" unicode="&#xf6;" horiz-adv-x="667" 
d="M318 -11q-65 0 -117.5 25t-87.5 68.5t-49.5 100.5t-2.5 122q10 55 36.5 100t65.5 77.5t88 50.5t103 18q67 0 119 -27.5t85 -72.5t46 -102t2 -117q-10 -55 -37 -99.5t-66 -76.5t-86.5 -49.5t-98.5 -17.5zM318 4q48 0 93 17t82 48t62.5 73.5t34.5 92.5q10 57 -2 111t-43 96
t-80 68t-113 26q-51 0 -97 -17.5t-82.5 -48.5t-61.5 -74.5t-34 -94.5q-10 -57 2.5 -110.5t44 -95t81 -66.5t113.5 -25zM312 643q-11 0 -17.5 8t-4.5 19q2 9 9 15t17 6q13 0 18 -8.5t3 -19.5q-2 -8 -8.5 -14t-16.5 -6zM433 643q-11 0 -17.5 8t-4.5 19q2 9 9 15t17 6
q13 0 18 -8.5t3 -19.5q-2 -8 -8.5 -14t-16.5 -6z" />
    <glyph glyph-name="divide" unicode="&#xf7;" horiz-adv-x="492" 
d="M70 373h370l-3 -16h-370zM221 169q-11 0 -17.5 8t-4.5 19q2 9 9 15t17 6q13 0 18 -8.5t3 -19.5q-2 -8 -8.5 -14t-16.5 -6zM280 506q-11 0 -17.5 8t-4.5 19q2 9 9 15t17 6q13 0 18 -8.5t3 -19.5q-2 -8 -8.5 -14t-16.5 -6z" />
    <glyph glyph-name="oslash" unicode="&#xf8;" horiz-adv-x="667" 
d="M318 -11q-52 0 -96 16t-78 45l-56 -60l-11 9l56 61q-45 44 -65.5 107.5t-6.5 137.5q10 55 36.5 100t65.5 77.5t88 50.5t103 18t98 -18t76 -49l57 62l11 -9l-58 -63q45 -46 62.5 -110t5.5 -132q-10 -55 -37 -99.5t-66 -76.5t-86.5 -49.5t-98.5 -17.5zM77 301
q-11 -66 6.5 -126.5t60.5 -103.5l373 402q-31 29 -72.5 46t-92.5 17t-97 -17.5t-82.5 -48.5t-61.5 -74.5t-34 -94.5zM318 4q48 0 93 17t82 48t62.5 73.5t34.5 92.5q11 64 -5.5 124t-57.5 104l-372 -401q31 -27 71.5 -42.5t91.5 -15.5z" />
    <glyph glyph-name="ugrave" unicode="&#xf9;" horiz-adv-x="619" 
d="M271 -11q-60 0 -101.5 21t-65.5 57.5t-30.5 86t4.5 105.5l50 281h15l-50 -281q-11 -53 -6 -99.5t27 -81t61.5 -54.5t96.5 -20q47 0 87 16t71 43.5t51.5 65.5t29.5 82l59 329h14l-94 -540h-15l25 140q-29 -69 -89.5 -110t-139.5 -41zM255 749h23l99 -140h-16z" />
    <glyph glyph-name="uacute" unicode="&#xfa;" horiz-adv-x="619" 
d="M271 -11q-60 0 -101.5 21t-65.5 57.5t-30.5 86t4.5 105.5l50 281h15l-50 -281q-11 -53 -6 -99.5t27 -81t61.5 -54.5t96.5 -20q47 0 87 16t71 43.5t51.5 65.5t29.5 82l59 329h14l-94 -540h-15l25 140q-29 -69 -89.5 -110t-139.5 -41zM506 749h25l-154 -140h-20z" />
    <glyph glyph-name="ucircumflex" unicode="&#xfb;" horiz-adv-x="619" 
d="M271 -11q-60 0 -101.5 21t-65.5 57.5t-30.5 86t4.5 105.5l50 281h15l-50 -281q-11 -53 -6 -99.5t27 -81t61.5 -54.5t96.5 -20q47 0 87 16t71 43.5t51.5 65.5t29.5 82l59 329h14l-94 -540h-15l25 140q-29 -69 -89.5 -110t-139.5 -41zM378 749h15l95 -140h-19l-85 125
l-127 -125h-22z" />
    <glyph glyph-name="udieresis" unicode="&#xfc;" horiz-adv-x="619" 
d="M271 -11q-60 0 -101.5 21t-65.5 57.5t-30.5 86t4.5 105.5l50 281h15l-50 -281q-11 -53 -6 -99.5t27 -81t61.5 -54.5t96.5 -20q47 0 87 16t71 43.5t51.5 65.5t29.5 82l59 329h14l-94 -540h-15l25 140q-29 -69 -89.5 -110t-139.5 -41zM306 624q-11 0 -17.5 8t-4.5 19
q2 9 9 15t17 6q13 0 18 -8.5t3 -19.5q-2 -8 -8.5 -14t-16.5 -6zM427 624q-11 0 -17.5 8t-4.5 19q2 9 9 15t17 6q13 0 18 -8.5t3 -19.5q-2 -8 -8.5 -14t-16.5 -6z" />
    <glyph glyph-name="yacute" unicode="&#xfd;" horiz-adv-x="590" 
d="M35 -199q-85 0 -127 65l12 9q37 -59 115 -59q27 0 49.5 7.5t43.5 23.5t41.5 42t43.5 63l51 82l-180 507h16l174 -491l305 491h18l-371 -596q-25 -39 -47 -66.5t-44.5 -45t-46.5 -25t-53 -7.5zM488 754h25l-154 -140h-20z" />
    <glyph glyph-name="thorn" unicode="&#xfe;" horiz-adv-x="681" 
d="M331 -11q-54 0 -97 15.5t-74.5 43t-51 65t-25.5 80.5q-3 -15 -8 -42.5t-11 -61t-12.5 -72t-13.5 -75.5q-16 -88 -34 -190h-14l185 1036h14l-71 -404q40 81 110 124t154 43q60 0 109 -25t82 -68t46.5 -100t2.5 -121q-10 -55 -37 -100.5t-66 -78.5t-87.5 -51t-100.5 -18z
M332 4q50 0 96 18t82.5 49.5t61.5 75t34 93.5q10 58 -2 112t-42.5 94.5t-77.5 65t-107 24.5q-52 0 -99 -19t-84 -53t-62.5 -80t-34.5 -100q-10 -54 1 -104.5t41.5 -89.5t79 -62.5t113.5 -23.5z" />
    <glyph glyph-name="ydieresis" unicode="&#xff;" horiz-adv-x="590" 
d="M35 -199q-85 0 -127 65l12 9q37 -59 115 -59q27 0 49.5 7.5t43.5 23.5t41.5 42t43.5 63l51 82l-180 507h16l174 -491l305 491h18l-371 -596q-25 -39 -47 -66.5t-44.5 -45t-46.5 -25t-53 -7.5zM288 629q-11 0 -17.5 8t-4.5 19q2 9 9 15t17 6q13 0 18 -8.5t3 -19.5
q-2 -8 -8.5 -14t-16.5 -6zM409 629q-11 0 -17.5 8t-4.5 19q2 9 9 15t17 6q13 0 18 -8.5t3 -19.5q-2 -8 -8.5 -14t-16.5 -6z" />
    <glyph glyph-name="Amacron" unicode="&#x100;" horiz-adv-x="732" 
d="M439 730h17l177 -730h-17l-59 243h-389l-143 -243h-19zM177 258h377l-109 452zM340 864h264l-3 -15h-264z" />
    <glyph glyph-name="amacron" unicode="&#x101;" horiz-adv-x="684" 
d="M315 -11q-65 0 -116.5 25t-86 68.5t-48.5 100.5t-3 122q10 55 37 100.5t66 77.5t88 50t103 18t96.5 -16.5t74 -45.5t50 -68t24.5 -84l36 203h14l-95 -540h-14l28 155q-18 -38 -44 -68.5t-59 -52t-71 -33.5t-80 -12zM316 4q51 0 96.5 18.5t81 50.5t59.5 76.5t33 97.5
q10 56 -1.5 108.5t-41.5 92.5t-77.5 64t-111.5 24q-51 0 -97.5 -17.5t-83.5 -48.5t-62 -74t-34 -95q-10 -60 3 -114t44.5 -94.5t80.5 -64.5t111 -24zM253 680h264l-3 -15h-264z" />
    <glyph glyph-name="Abreve" unicode="&#x102;" horiz-adv-x="732" 
d="M439 730h17l177 -730h-17l-59 243h-389l-143 -243h-19zM177 258h377l-109 452zM458 810q-36 0 -64.5 13t-47 33.5t-26 46.5t-2.5 52h16q-4 -23 2.5 -46t22.5 -42t41.5 -30.5t60.5 -11.5q37 0 65.5 11.5t48.5 30.5t32.5 42t16.5 46h17q-5 -26 -18.5 -52t-36 -46.5
t-54.5 -33.5t-74 -13z" />
    <glyph glyph-name="abreve" unicode="&#x103;" horiz-adv-x="684" 
d="M315 -11q-65 0 -116.5 25t-86 68.5t-48.5 100.5t-3 122q10 55 37 100.5t66 77.5t88 50t103 18t96.5 -16.5t74 -45.5t50 -68t24.5 -84l36 203h14l-95 -540h-14l28 155q-18 -38 -44 -68.5t-59 -52t-71 -33.5t-80 -12zM316 4q51 0 96.5 18.5t81 50.5t59.5 76.5t33 97.5
q10 56 -1.5 108.5t-41.5 92.5t-77.5 64t-111.5 24q-51 0 -97.5 -17.5t-83.5 -48.5t-62 -74t-34 -95q-10 -60 3 -114t44.5 -94.5t80.5 -64.5t111 -24zM371 626q-36 0 -64.5 13t-47 33.5t-26 46.5t-2.5 52h16q-4 -23 2.5 -46t22.5 -42t41.5 -30.5t60.5 -11.5q37 0 65.5 11.5
t48.5 30.5t32.5 42t16.5 46h17q-5 -26 -18.5 -52t-36 -46.5t-54.5 -33.5t-74 -13z" />
    <glyph glyph-name="Aogonek" unicode="&#x104;" horiz-adv-x="732" 
d="M576 -194q-23 0 -41.5 7.5t-31.5 20t-18.5 29.5t-2.5 36q6 33 36.5 58t95.5 51l-57 235h-389l-143 -243h-19l433 730h17l177 -730q-66 -26 -98 -50.5t-37 -53.5q-5 -31 17.5 -53.5t63.5 -22.5q38 0 68 13t56 34l12 -10q-26 -21 -59.5 -36t-79.5 -15zM177 258h377
l-109 452z" />
    <glyph glyph-name="aogonek" unicode="&#x105;" horiz-adv-x="684" 
d="M540 -194q-23 0 -41.5 7.5t-31.5 20t-18.5 29.5t-2.5 36q7 34 28.5 59t68.5 52l26 145q-18 -38 -44 -68.5t-59 -52t-71 -33.5t-80 -12q-65 0 -116.5 25t-86 68.5t-48.5 100.5t-3 122q10 55 37 100.5t66 77.5t88 50t103 18t96.5 -16.5t74 -45.5t50 -68t24.5 -84l36 203h14
l-95 -540q-43 -26 -65.5 -50.5t-27.5 -53.5q-5 -31 17.5 -53.5t63.5 -22.5q28 0 51.5 7t43.5 19l9 -12q-22 -12 -48.5 -20t-58.5 -8zM316 4q51 0 96.5 18.5t81 50.5t59.5 76.5t33 97.5q10 56 -1.5 108.5t-41.5 92.5t-77.5 64t-111.5 24q-51 0 -97.5 -17.5t-83.5 -48.5
t-62 -74t-34 -95q-10 -60 3 -114t44.5 -94.5t80.5 -64.5t111 -24z" />
    <glyph glyph-name="Cacute" unicode="&#x106;" horiz-adv-x="832" 
d="M432 -10q-87 0 -155.5 33.5t-112.5 90.5t-61.5 133.5t-2.5 162.5q13 73 51 134t92.5 104.5t121 67.5t136.5 24q106 0 182.5 -42t119.5 -123l-15 -8q-38 75 -109.5 116.5t-178.5 41.5q-67 0 -131 -23.5t-116 -66t-88.5 -101t-48.5 -128.5q-14 -77 1.5 -149t56.5 -128
t106.5 -90t152.5 -34q45 0 89 10.5t83.5 30t74 48t60.5 64.5l14 -9q-27 -39 -63 -68.5t-77.5 -49.5t-87.5 -30.5t-94 -10.5zM653 957h25l-154 -140h-20z" />
    <glyph glyph-name="cacute" unicode="&#x107;" horiz-adv-x="632" 
d="M321 -11q-65 0 -118 25t-88.5 68t-50.5 100t-3 121q10 55 36.5 100.5t65.5 78.5t88 51t102 18q87 0 147.5 -40.5t90.5 -104.5l-15 -7q-27 60 -84.5 98.5t-138.5 38.5q-51 0 -97 -17.5t-83 -49t-62 -75t-34 -95.5q-10 -59 3.5 -112t46 -94t82 -65t112.5 -24q34 0 68 7.5
t64.5 22.5t56.5 37t45 51l14 -9q-20 -30 -47 -53.5t-59.5 -39t-68.5 -23.5t-73 -8zM506 768h25l-154 -140h-20z" />
    <glyph glyph-name="Ccircumflex" unicode="&#x108;" horiz-adv-x="832" 
d="M432 -10q-87 0 -155.5 33.5t-112.5 90.5t-61.5 133.5t-2.5 162.5q13 73 51 134t92.5 104.5t121 67.5t136.5 24q106 0 182.5 -42t119.5 -123l-15 -8q-38 75 -109.5 116.5t-178.5 41.5q-67 0 -131 -23.5t-116 -66t-88.5 -101t-48.5 -128.5q-14 -77 1.5 -149t56.5 -128
t106.5 -90t152.5 -34q45 0 89 10.5t83.5 30t74 48t60.5 64.5l14 -9q-27 -39 -63 -68.5t-77.5 -49.5t-87.5 -30.5t-94 -10.5zM525 957h15l95 -140h-19l-85 125l-127 -125h-22z" />
    <glyph glyph-name="ccircumflex" unicode="&#x109;" horiz-adv-x="632" 
d="M321 -11q-65 0 -118 25t-88.5 68t-50.5 100t-3 121q10 55 36.5 100.5t65.5 78.5t88 51t102 18q87 0 147.5 -40.5t90.5 -104.5l-15 -7q-27 60 -84.5 98.5t-138.5 38.5q-51 0 -97 -17.5t-83 -49t-62 -75t-34 -95.5q-10 -59 3.5 -112t46 -94t82 -65t112.5 -24q34 0 68 7.5
t64.5 22.5t56.5 37t45 51l14 -9q-20 -30 -47 -53.5t-59.5 -39t-68.5 -23.5t-73 -8zM378 768h15l95 -140h-19l-85 125l-127 -125h-22z" />
    <glyph glyph-name="Cdotaccent" unicode="&#x10a;" horiz-adv-x="832" 
d="M432 -10q-87 0 -155.5 33.5t-112.5 90.5t-61.5 133.5t-2.5 162.5q13 73 51 134t92.5 104.5t121 67.5t136.5 24q106 0 182.5 -42t119.5 -123l-15 -8q-38 75 -109.5 116.5t-178.5 41.5q-67 0 -131 -23.5t-116 -66t-88.5 -101t-48.5 -128.5q-14 -77 1.5 -149t56.5 -128
t106.5 -90t152.5 -34q45 0 89 10.5t83.5 30t74 48t60.5 64.5l14 -9q-27 -39 -63 -68.5t-77.5 -49.5t-87.5 -30.5t-94 -10.5zM521 836q-11 0 -17.5 8t-4.5 19q2 9 9 15t17 6q13 0 18 -8.5t3 -19.5q-2 -8 -8.5 -14t-16.5 -6z" />
    <glyph glyph-name="cdotaccent" unicode="&#x10b;" horiz-adv-x="632" 
d="M321 -11q-65 0 -118 25t-88.5 68t-50.5 100t-3 121q10 55 36.5 100.5t65.5 78.5t88 51t102 18q87 0 147.5 -40.5t90.5 -104.5l-15 -7q-27 60 -84.5 98.5t-138.5 38.5q-51 0 -97 -17.5t-83 -49t-62 -75t-34 -95.5q-10 -59 3.5 -112t46 -94t82 -65t112.5 -24q34 0 68 7.5
t64.5 22.5t56.5 37t45 51l14 -9q-20 -30 -47 -53.5t-59.5 -39t-68.5 -23.5t-73 -8zM374 647q-11 0 -17.5 8t-4.5 19q2 9 9 15t17 6q13 0 18 -8.5t3 -19.5q-2 -8 -8.5 -14t-16.5 -6z" />
    <glyph glyph-name="Ccaron" unicode="&#x10c;" horiz-adv-x="832" 
d="M432 -10q-87 0 -155.5 33.5t-112.5 90.5t-61.5 133.5t-2.5 162.5q13 73 51 134t92.5 104.5t121 67.5t136.5 24q106 0 182.5 -42t119.5 -123l-15 -8q-38 75 -109.5 116.5t-178.5 41.5q-67 0 -131 -23.5t-116 -66t-88.5 -101t-48.5 -128.5q-14 -77 1.5 -149t56.5 -128
t106.5 -90t152.5 -34q45 0 89 10.5t83.5 30t74 48t60.5 64.5l14 -9q-27 -39 -63 -68.5t-77.5 -49.5t-87.5 -30.5t-94 -10.5zM409 957h19l84 -125l128 125h22l-143 -140h-15z" />
    <glyph glyph-name="ccaron" unicode="&#x10d;" horiz-adv-x="632" 
d="M321 -11q-65 0 -118 25t-88.5 68t-50.5 100t-3 121q10 55 36.5 100.5t65.5 78.5t88 51t102 18q87 0 147.5 -40.5t90.5 -104.5l-15 -7q-27 60 -84.5 98.5t-138.5 38.5q-51 0 -97 -17.5t-83 -49t-62 -75t-34 -95.5q-10 -59 3.5 -112t46 -94t82 -65t112.5 -24q34 0 68 7.5
t64.5 22.5t56.5 37t45 51l14 -9q-20 -30 -47 -53.5t-59.5 -39t-68.5 -23.5t-73 -8zM272 768h19l84 -125l128 125h22l-143 -140h-15z" />
    <glyph glyph-name="Dcaron" unicode="&#x10e;" horiz-adv-x="753" 
d="M179 730h189q79 -2 144.5 -33.5t110 -85t63.5 -125t5 -151.5q-14 -79 -51 -141.5t-90.5 -105.5t-120.5 -65.5t-141 -22.5h-237zM193 715l-122 -700h218q70 0 134 22t115 64t86.5 102t49.5 136q13 76 -5 144.5t-60.5 120t-105.5 81.5t-140 30h-170zM322 950h19l84 -125
l128 125h22l-143 -140h-15z" />
    <glyph glyph-name="dcaron" unicode="&#x10f;" horiz-adv-x="687" 
d="M315 -11q-65 0 -116.5 25t-86 68.5t-48.5 100.5t-3 122q10 55 37 100.5t66 77.5t88 50t103 18q52 0 94.5 -16t73.5 -43.5t50 -65.5t26 -81l78 443h15l-139 -788h-15l26 145q-37 -72 -102.5 -114t-146.5 -42zM316 4q51 0 96.5 18.5t81 50.5t59.5 76.5t33 97.5
q10 56 -1.5 108.5t-41.5 92.5t-77.5 64t-111.5 24q-51 0 -97.5 -17.5t-83.5 -48.5t-62 -74t-34 -95q-10 -60 3 -114t44.5 -94.5t80.5 -64.5t111 -24zM784 643q14 7 27.5 19.5t24 27t17.5 29.5t10 29q2 14 0.5 21t-6.5 11q3 -5 2 -11q-3 -19 -22 -19q-9 0 -15.5 7t-4.5 18
q5 25 30 25q17 0 26 -13t4 -39q-6 -33 -31.5 -65t-55.5 -50z" />
    <glyph glyph-name="Dcroat" unicode="&#x110;" horiz-adv-x="773" 
d="M59 383h79l61 347h189q79 -2 144.5 -33.5t110 -85t63.5 -125t5 -151.5q-14 -79 -51 -141.5t-90.5 -105.5t-120.5 -65.5t-141 -22.5h-237l64 368h-79zM153 368l-62 -353h218q70 0 134 22t115 64t86.5 102t49.5 136q13 76 -5 144.5t-60.5 120t-105.5 81.5t-140 30h-170
l-58 -332h267l-3 -15h-266z" />
    <glyph glyph-name="dcroat" unicode="&#x111;" horiz-adv-x="687" 
d="M462 641h189l26 147h15l-26 -147h81l-2 -14h-82l-110 -627h-15l26 145q-37 -72 -102.5 -114t-146.5 -42q-65 0 -116.5 25t-86 68.5t-48.5 100.5t-3 122q10 55 37 100.5t66 77.5t88 50t103 18q52 0 94.5 -16t73.5 -43.5t50 -65.5t26 -81l49 282h-188zM316 4
q51 0 96.5 18.5t81 50.5t59.5 76.5t33 97.5q10 56 -1.5 108.5t-41.5 92.5t-77.5 64t-111.5 24q-51 0 -97.5 -17.5t-83.5 -48.5t-62 -74t-34 -95q-10 -60 3 -114t44.5 -94.5t80.5 -64.5t111 -24z" />
    <glyph glyph-name="Emacron" unicode="&#x112;" horiz-adv-x="644" 
d="M179 730h473l-3 -16h-456l-60 -341h456l-2 -15h-456l-61 -342h456l-2 -16h-473zM303 864h264l-3 -15h-264z" />
    <glyph glyph-name="emacron" unicode="&#x113;" horiz-adv-x="659" 
d="M323 -11q-70 0 -124.5 23t-89 64.5t-48 98t-1.5 123.5q10 58 38.5 104.5t70 79.5t92.5 51t105 18q61 0 109 -21.5t79 -59t45 -88t8 -108.5l-1 -10h-535q-5 -57 11.5 -105t49.5 -82.5t82 -53.5t111 -19q65 0 124.5 25t99.5 75l14 -9q-45 -54 -106.5 -80t-133.5 -26z
M72 278h519q6 54 -6.5 101t-42 81.5t-74.5 54.5t-103 20q-51 0 -99 -17t-87 -48t-66.5 -75.5t-37.5 -98.5zM258 681h264l-3 -15h-264z" />
    <glyph glyph-name="Ebreve" unicode="&#x114;" horiz-adv-x="644" 
d="M179 730h473l-3 -16h-456l-60 -341h456l-2 -15h-456l-61 -342h456l-2 -16h-473zM421 810q-36 0 -64.5 13t-47 33.5t-26 46.5t-2.5 52h16q-4 -23 2.5 -46t22.5 -42t41.5 -30.5t60.5 -11.5q37 0 65.5 11.5t48.5 30.5t32.5 42t16.5 46h17q-5 -26 -18.5 -52t-36 -46.5
t-54.5 -33.5t-74 -13z" />
    <glyph glyph-name="ebreve" unicode="&#x115;" horiz-adv-x="659" 
d="M323 -11q-70 0 -124.5 23t-89 64.5t-48 98t-1.5 123.5q10 58 38.5 104.5t70 79.5t92.5 51t105 18q61 0 109 -21.5t79 -59t45 -88t8 -108.5l-1 -10h-535q-5 -57 11.5 -105t49.5 -82.5t82 -53.5t111 -19q65 0 124.5 25t99.5 75l14 -9q-45 -54 -106.5 -80t-133.5 -26z
M72 278h519q6 54 -6.5 101t-42 81.5t-74.5 54.5t-103 20q-51 0 -99 -17t-87 -48t-66.5 -75.5t-37.5 -98.5zM376 627q-36 0 -64.5 13t-47 33.5t-26 46.5t-2.5 52h16q-4 -23 2.5 -46t22.5 -42t41.5 -30.5t60.5 -11.5q37 0 65.5 11.5t48.5 30.5t32.5 42t16.5 46h17
q-5 -26 -18.5 -52t-36 -46.5t-54.5 -33.5t-74 -13z" />
    <glyph glyph-name="Edotaccent" unicode="&#x116;" horiz-adv-x="644" 
d="M179 730h473l-3 -16h-456l-60 -341h456l-2 -15h-456l-61 -342h456l-2 -16h-473zM431 831q-11 0 -17.5 8t-4.5 19q2 9 9 15t17 6q13 0 18 -8.5t3 -19.5q-2 -8 -8.5 -14t-16.5 -6z" />
    <glyph glyph-name="edotaccent" unicode="&#x117;" horiz-adv-x="659" 
d="M323 -11q-70 0 -124.5 23t-89 64.5t-48 98t-1.5 123.5q10 58 38.5 104.5t70 79.5t92.5 51t105 18q61 0 109 -21.5t79 -59t45 -88t8 -108.5l-1 -10h-535q-5 -57 11.5 -105t49.5 -82.5t82 -53.5t111 -19q65 0 124.5 25t99.5 75l14 -9q-45 -54 -106.5 -80t-133.5 -26z
M72 278h519q6 54 -6.5 101t-42 81.5t-74.5 54.5t-103 20q-51 0 -99 -17t-87 -48t-66.5 -75.5t-37.5 -98.5zM386 648q-11 0 -17.5 8t-4.5 19q2 9 9 15t17 6q13 0 18 -8.5t3 -19.5q-2 -8 -8.5 -14t-16.5 -6z" />
    <glyph glyph-name="Eogonek" unicode="&#x118;" horiz-adv-x="644" 
d="M179 730h473l-3 -16h-456l-60 -341h456l-2 -15h-456l-61 -342h456l-2 -16h-1q-66 -26 -98 -50.5t-37 -53.5q-5 -31 17.5 -53.5t63.5 -22.5q38 0 68 13t56 34l12 -10q-26 -21 -59.5 -36t-79.5 -15q-23 0 -41.5 7.5t-31.5 20t-18.5 29.5t-2.5 36q6 31 32 54t81 47h-434z
" />
    <glyph glyph-name="eogonek" unicode="&#x119;" horiz-adv-x="659" 
d="M360 -192q-23 0 -41.5 7.5t-31.5 20t-18.5 29.5t-2.5 36q5 27 25.5 48t62.5 41q-8 -1 -15.5 -1h-15.5q-70 0 -124.5 23t-89 64.5t-48 98t-1.5 123.5q10 58 38.5 104.5t70 79.5t92.5 51t105 18q61 0 109 -21.5t79 -59t45 -88t8 -108.5l-1 -10h-535q-5 -57 11.5 -105
t49.5 -82.5t82 -53.5t111 -19q65 0 124.5 25t99.5 75l14 -9q-61 -72 -152 -95q-63 -25 -93.5 -49t-35.5 -53q-5 -31 17.5 -53.5t63.5 -22.5q38 0 68 13t56 34l12 -10q-26 -21 -59.5 -36t-79.5 -15zM72 278h519q6 54 -6.5 101t-42 81.5t-74.5 54.5t-103 20q-51 0 -99 -17
t-87 -48t-66.5 -75.5t-37.5 -98.5z" />
    <glyph glyph-name="Ecaron" unicode="&#x11a;" horiz-adv-x="644" 
d="M179 730h473l-3 -16h-456l-60 -341h456l-2 -15h-456l-61 -342h456l-2 -16h-473zM319 952h19l84 -125l128 125h22l-143 -140h-15z" />
    <glyph glyph-name="ecaron" unicode="&#x11b;" horiz-adv-x="659" 
d="M323 -11q-70 0 -124.5 23t-89 64.5t-48 98t-1.5 123.5q10 58 38.5 104.5t70 79.5t92.5 51t105 18q61 0 109 -21.5t79 -59t45 -88t8 -108.5l-1 -10h-535q-5 -57 11.5 -105t49.5 -82.5t82 -53.5t111 -19q65 0 124.5 25t99.5 75l14 -9q-45 -54 -106.5 -80t-133.5 -26z
M72 278h519q6 54 -6.5 101t-42 81.5t-74.5 54.5t-103 20q-51 0 -99 -17t-87 -48t-66.5 -75.5t-37.5 -98.5zM274 769h19l84 -125l128 125h22l-143 -140h-15z" />
    <glyph glyph-name="Gcircumflex" unicode="&#x11c;" horiz-adv-x="892" 
d="M448 -10q-88 0 -159.5 33.5t-118.5 90.5t-66.5 133.5t-4.5 162.5q13 73 49.5 134t89.5 104.5t118 67.5t135 24q105 0 183.5 -47t126.5 -128l-14 -8q-46 78 -120.5 123t-176.5 45q-68 0 -130 -23.5t-112.5 -66t-85.5 -101t-47 -128.5q-14 -77 3.5 -149t61 -128t112 -90
t157.5 -34q76 0 141 27.5t113 74.5t78 110.5t36 135.5h-362l2 15h378q-5 -73 -32.5 -141t-77 -120.5t-119.5 -84.5t-158 -32zM523 957h15l95 -140h-19l-85 125l-127 -125h-22z" />
    <glyph glyph-name="gcircumflex" unicode="&#x11d;" horiz-adv-x="685" 
d="M315 -11q-65 0 -116.5 25t-86 68.5t-48.5 100.5t-3 122q10 55 37 100.5t66 77.5t88 50t103 18t96.5 -16.5t73.5 -45.5t50 -68t25 -84q1 6 4 23t7 39t8.5 46t8 44.5t6 34.5t3.5 16h14l-89 -499q-23 -127 -90.5 -197t-192.5 -70q-94 0 -158.5 39.5t-89.5 105.5l16 5
q24 -63 83 -98.5t149 -35.5q60 0 105.5 17.5t78.5 50.5t53.5 79.5t31.5 103.5q3 20 7 39q3 17 6.5 36.5t6.5 37.5q-18 -38 -44 -68t-58.5 -52t-70.5 -33.5t-80 -11.5zM316 4q51 0 96.5 18.5t81 50.5t59.5 76.5t33 97.5q10 56 -1.5 108.5t-41.5 92.5t-77.5 64t-111.5 24
q-51 0 -97.5 -17.5t-83.5 -48.5t-62 -74t-34 -95q-10 -60 3 -114t44.5 -94.5t80.5 -64.5t111 -24zM379 768h15l95 -140h-19l-85 125l-127 -125h-22z" />
    <glyph glyph-name="Gbreve" unicode="&#x11e;" horiz-adv-x="892" 
d="M448 -10q-88 0 -159.5 33.5t-118.5 90.5t-66.5 133.5t-4.5 162.5q13 73 49.5 134t89.5 104.5t118 67.5t135 24q105 0 183.5 -47t126.5 -128l-14 -8q-46 78 -120.5 123t-176.5 45q-68 0 -130 -23.5t-112.5 -66t-85.5 -101t-47 -128.5q-14 -77 3.5 -149t61 -128t112 -90
t157.5 -34q76 0 141 27.5t113 74.5t78 110.5t36 135.5h-362l2 15h378q-5 -73 -32.5 -141t-77 -120.5t-119.5 -84.5t-158 -32zM501 815q-36 0 -64.5 13t-47 33.5t-26 46.5t-2.5 52h16q-4 -23 2.5 -46t22.5 -42t41.5 -30.5t60.5 -11.5q37 0 65.5 11.5t48.5 30.5t32.5 42
t16.5 46h17q-5 -26 -18.5 -52t-36 -46.5t-54.5 -33.5t-74 -13z" />
    <glyph glyph-name="gbreve" unicode="&#x11f;" horiz-adv-x="685" 
d="M315 -11q-65 0 -116.5 25t-86 68.5t-48.5 100.5t-3 122q10 55 37 100.5t66 77.5t88 50t103 18t96.5 -16.5t73.5 -45.5t50 -68t25 -84q1 6 4 23t7 39t8.5 46t8 44.5t6 34.5t3.5 16h14l-89 -499q-23 -127 -90.5 -197t-192.5 -70q-94 0 -158.5 39.5t-89.5 105.5l16 5
q24 -63 83 -98.5t149 -35.5q60 0 105.5 17.5t78.5 50.5t53.5 79.5t31.5 103.5q3 20 7 39q3 17 6.5 36.5t6.5 37.5q-18 -38 -44 -68t-58.5 -52t-70.5 -33.5t-80 -11.5zM316 4q51 0 96.5 18.5t81 50.5t59.5 76.5t33 97.5q10 56 -1.5 108.5t-41.5 92.5t-77.5 64t-111.5 24
q-51 0 -97.5 -17.5t-83.5 -48.5t-62 -74t-34 -95q-10 -60 3 -114t44.5 -94.5t80.5 -64.5t111 -24zM387 626q-36 0 -64.5 13t-47 33.5t-26 46.5t-2.5 52h16q-4 -23 2.5 -46t22.5 -42t41.5 -30.5t60.5 -11.5q37 0 65.5 11.5t48.5 30.5t32.5 42t16.5 46h17q-5 -26 -18.5 -52
t-36 -46.5t-54.5 -33.5t-74 -13z" />
    <glyph glyph-name="Gdotaccent" unicode="&#x120;" horiz-adv-x="892" 
d="M448 -10q-88 0 -159.5 33.5t-118.5 90.5t-66.5 133.5t-4.5 162.5q13 73 49.5 134t89.5 104.5t118 67.5t135 24q105 0 183.5 -47t126.5 -128l-14 -8q-46 78 -120.5 123t-176.5 45q-68 0 -130 -23.5t-112.5 -66t-85.5 -101t-47 -128.5q-14 -77 3.5 -149t61 -128t112 -90
t157.5 -34q76 0 141 27.5t113 74.5t78 110.5t36 135.5h-362l2 15h378q-5 -73 -32.5 -141t-77 -120.5t-119.5 -84.5t-158 -32zM511 836q-11 0 -17.5 8t-4.5 19q2 9 9 15t17 6q13 0 18 -8.5t3 -19.5q-2 -8 -8.5 -14t-16.5 -6z" />
    <glyph glyph-name="gdotaccent" unicode="&#x121;" horiz-adv-x="685" 
d="M315 -11q-65 0 -116.5 25t-86 68.5t-48.5 100.5t-3 122q10 55 37 100.5t66 77.5t88 50t103 18t96.5 -16.5t73.5 -45.5t50 -68t25 -84q1 6 4 23t7 39t8.5 46t8 44.5t6 34.5t3.5 16h14l-89 -499q-23 -127 -90.5 -197t-192.5 -70q-94 0 -158.5 39.5t-89.5 105.5l16 5
q24 -63 83 -98.5t149 -35.5q60 0 105.5 17.5t78.5 50.5t53.5 79.5t31.5 103.5q3 20 7 39q3 17 6.5 36.5t6.5 37.5q-18 -38 -44 -68t-58.5 -52t-70.5 -33.5t-80 -11.5zM316 4q51 0 96.5 18.5t81 50.5t59.5 76.5t33 97.5q10 56 -1.5 108.5t-41.5 92.5t-77.5 64t-111.5 24
q-51 0 -97.5 -17.5t-83.5 -48.5t-62 -74t-34 -95q-10 -60 3 -114t44.5 -94.5t80.5 -64.5t111 -24zM375 647q-11 0 -17.5 8t-4.5 19q2 9 9 15t17 6q13 0 18 -8.5t3 -19.5q-2 -8 -8.5 -14t-16.5 -6z" />
    <glyph glyph-name="Gcommaaccent" unicode="&#x122;" horiz-adv-x="892" 
d="M448 -10q-88 0 -159.5 33.5t-118.5 90.5t-66.5 133.5t-4.5 162.5q13 73 49.5 134t89.5 104.5t118 67.5t135 24q105 0 183.5 -47t126.5 -128l-14 -8q-46 78 -120.5 123t-176.5 45q-68 0 -130 -23.5t-112.5 -66t-85.5 -101t-47 -128.5q-14 -77 3.5 -149t61 -128t112 -90
t157.5 -34q76 0 141 27.5t113 74.5t78 110.5t36 135.5h-362l2 15h378q-5 -73 -32.5 -141t-77 -120.5t-119.5 -84.5t-158 -32zM365 -243q14 7 27.5 19.5t24 27t17.5 29.5t10 29q4 25 -6 33q4 -5 2 -12q-3 -19 -22 -19q-9 0 -15.5 7t-4.5 18q5 25 30 25q17 0 26 -13t4 -39
q-6 -33 -31.5 -65t-55.5 -50z" />
    <glyph glyph-name="gcommaaccent" unicode="&#x123;" horiz-adv-x="685" 
d="M315 -11q-65 0 -116.5 25t-86 68.5t-48.5 100.5t-3 122q10 55 37 100.5t66 77.5t88 50t103 18t96.5 -16.5t73.5 -45.5t50 -68t25 -84q1 6 4 23t7 39t8.5 46t8 44.5t6 34.5t3.5 16h14l-89 -499q-23 -127 -90.5 -197t-192.5 -70q-94 0 -158.5 39.5t-89.5 105.5l16 5
q24 -63 83 -98.5t149 -35.5q60 0 105.5 17.5t78.5 50.5t53.5 79.5t31.5 103.5q3 20 7 39q3 17 6.5 36.5t6.5 37.5q-18 -38 -44 -68t-58.5 -52t-70.5 -33.5t-80 -11.5zM316 4q51 0 96.5 18.5t81 50.5t59.5 76.5t33 97.5q10 56 -1.5 108.5t-41.5 92.5t-77.5 64t-111.5 24
q-51 0 -97.5 -17.5t-83.5 -48.5t-62 -74t-34 -95q-10 -60 3 -114t44.5 -94.5t80.5 -64.5t111 -24zM435 790q-14 -8 -27.5 -20t-24 -26.5t-17.5 -30t-10 -28.5q-4 -25 6 -33q-4 5 -2 12q3 19 22 19q9 0 15.5 -7t4.5 -18q-5 -25 -30 -25q-17 0 -26 13t-4 39q6 33 31.5 65
t55.5 50z" />
    <glyph glyph-name="Hcircumflex" unicode="&#x124;" horiz-adv-x="726" 
d="M626 357h-496l-62 -357h-17l128 730h17l-63 -358h496l63 358h17l-128 -730h-17zM461 943h15l95 -140h-19l-85 125l-127 -125h-22z" />
    <glyph glyph-name="hcircumflex" unicode="&#x125;" horiz-adv-x="645" 
d="M177 788h15l-71 -399q14 35 37.5 64.5t55 51.5t69 34t79.5 12q61 0 104.5 -21.5t70 -58t34.5 -86t-2 -104.5l-48 -281h-16l49 281q10 51 3.5 97t-30.5 81.5t-65 56t-101 20.5q-46 0 -87.5 -16.5t-74.5 -44.5t-55.5 -65.5t-29.5 -80.5l-59 -329h-16zM208 1010h15l95 -140
h-19l-85 125l-127 -125h-22z" />
    <glyph glyph-name="Hbar" unicode="&#x126;" horiz-adv-x="726" 
d="M82 560h67l30 170h17l-30 -170h496l30 170h17l-30 -170h64l-2 -15h-65l-95 -545h-17l62 357h-496l-62 -357h-17l95 545h-66zM629 372l30 173h-496l-30 -173h496z" />
    <glyph glyph-name="hbar" unicode="&#x127;" horiz-adv-x="645" 
d="M92 684h67l18 104h15l-19 -104h204l-3 -14h-203l-50 -281q14 35 37.5 64.5t55 51.5t69 34t79.5 12q61 0 104.5 -21.5t70 -58t34.5 -86t-2 -104.5l-48 -281h-16l49 281q10 51 3.5 97t-30.5 81.5t-65 56t-101 20.5q-46 0 -87.5 -16.5t-74.5 -44.5t-55.5 -65.5t-29.5 -80.5
l-59 -329h-16l117 670h-67z" />
    <glyph glyph-name="Itilde" unicode="&#x128;" horiz-adv-x="237" 
d="M191 730h17l-128 -730h-17zM32 811q7 36 32 60t59 24q27 0 49 -11.5t45 -25.5t43 -25.5t48 -11.5q29 0 49 18t27 53h16q-8 -42 -33 -63.5t-60 -21.5q-30 0 -53.5 12t-45.5 26q-21 14 -41.5 25t-45.5 11q-26 0 -46.5 -19t-26.5 -51h-16z" />
    <glyph glyph-name="itilde" unicode="&#x129;" horiz-adv-x="188" 
d="M38 0l96 540h16l-96 -540h-16zM-26 621q7 36 32 60t59 24q27 0 49 -11.5t45 -25.5t43 -25.5t48 -11.5q29 0 49 18t27 53h16q-8 -42 -33 -63.5t-60 -21.5q-30 0 -53.5 12t-45.5 26q-21 14 -41.5 25t-45.5 11q-26 0 -46.5 -19t-26.5 -51h-16z" />
    <glyph glyph-name="Imacron" unicode="&#x12a;" horiz-adv-x="237" 
d="M191 730h17l-128 -730h-17zM92 864h264l-3 -15h-264z" />
    <glyph glyph-name="imacron" unicode="&#x12b;" horiz-adv-x="188" 
d="M38 0l96 540h16l-96 -540h-16zM34 674h264l-3 -15h-264z" />
    <glyph glyph-name="Ibreve" unicode="&#x12c;" horiz-adv-x="237" 
d="M191 730h17l-128 -730h-17zM210 810q-36 0 -64.5 13t-47 33.5t-26 46.5t-2.5 52h16q-4 -23 2.5 -46t22.5 -42t41.5 -30.5t60.5 -11.5q37 0 65.5 11.5t48.5 30.5t32.5 42t16.5 46h17q-5 -26 -18.5 -52t-36 -46.5t-54.5 -33.5t-74 -13z" />
    <glyph glyph-name="ibreve" unicode="&#x12d;" horiz-adv-x="188" 
d="M38 0l96 540h16l-96 -540h-16zM152 620q-36 0 -64.5 13t-47 33.5t-26 46.5t-2.5 52h16q-4 -23 2.5 -46t22.5 -42t41.5 -30.5t60.5 -11.5q37 0 65.5 11.5t48.5 30.5t32.5 42t16.5 46h17q-5 -26 -18.5 -52t-36 -46.5t-54.5 -33.5t-74 -13z" />
    <glyph glyph-name="Iogonek" unicode="&#x12e;" horiz-adv-x="237" 
d="M65 -194q-23 0 -41.5 7.5t-31.5 20t-18.5 29.5t-2.5 36q7 33 27.5 58t65.5 51l127 722h17l-128 -730q-43 -26 -65.5 -50.5t-27.5 -53.5q-5 -31 17.5 -53.5t63.5 -22.5q28 0 51.5 7t43.5 19l9 -12q-22 -12 -48.5 -20t-58.5 -8z" />
    <glyph glyph-name="iogonek" unicode="&#x12f;" horiz-adv-x="188" 
d="M39 -194q-23 0 -41.5 7.5t-31.5 20t-18.5 29.5t-2.5 36q7 33 28 58t66 52l95 531h16l-96 -540q-43 -26 -65.5 -50.5t-27.5 -53.5q-5 -31 17.5 -53.5t63.5 -22.5q28 0 51.5 7t43.5 19l9 -12q-22 -12 -48.5 -20t-58.5 -8zM169 684q-12 0 -18.5 8.5t-3.5 19.5q2 9 9 14.5
t17 5.5q13 0 18 -8.5t3 -19.5q-2 -8 -8.5 -14t-16.5 -6z" />
    <glyph glyph-name="Idotaccent" unicode="&#x130;" horiz-adv-x="237" 
d="M191 730h17l-128 -730h-17zM220 831q-11 0 -17.5 8t-4.5 19q2 9 9 15t17 6q13 0 18 -8.5t3 -19.5q-2 -8 -8.5 -14t-16.5 -6z" />
    <glyph glyph-name="dotlessi" unicode="&#x131;" horiz-adv-x="188" 
d="M38 0l96 540h16l-96 -540h-16z" />
    <glyph glyph-name="IJ" unicode="&#x132;" horiz-adv-x="555" 
d="M175 15h78q77 0 121.5 47t57.5 119l97 549h17l-97 -549q-7 -39 -22 -72t-39.5 -57t-58 -38t-77.5 -14h-80zM172 730h17l-128 -730h-17z" />
    <glyph glyph-name="ij" unicode="&#x133;" horiz-adv-x="372" 
d="M35 0l96 540h16l-95 -540h-17zM3 -223h38q41 0 69.5 6.5t47.5 23.5t31 47t21 78l108 608h15l-108 -609q-9 -52 -22 -85t-34 -51.5t-51.5 -25.5t-75.5 -7h-43zM167 684q-12 0 -18.5 8t-4.5 20q2 9 9.5 15t17.5 6q14 0 18.5 -9t2.5 -20q-2 -8 -8.5 -14t-16.5 -6zM353 684
q-12 0 -18.5 8.5t-3.5 19.5q2 9 9 14.5t17 5.5q13 0 18 -8.5t3 -19.5q-2 -8 -8.5 -14t-16.5 -6z" />
    <glyph glyph-name="Jcircumflex" unicode="&#x134;" horiz-adv-x="519" 
d="M207 -10q-69 0 -113.5 30.5t-61.5 73.5l14 8q17 -42 58 -69t104 -27q77 0 122 46.5t57 118.5l98 559h17l-98 -559q-7 -39 -22 -72t-39.5 -57t-58 -38t-77.5 -14zM518 952h15l95 -140h-19l-85 125l-127 -125h-22z" />
    <glyph glyph-name="jcircumflex" unicode="&#x135;" horiz-adv-x="193" 
d="M-138 -230q41 0 69.5 7.5t47.5 26t31 49.5t21 79l108 608h15l-108 -609q-9 -52 -22 -86t-34 -54t-51.5 -28t-75.5 -8h-5zM171 762h15l95 -140h-19l-85 125l-127 -125h-22z" />
    <glyph glyph-name="Kcommaaccent" unicode="&#x136;" horiz-adv-x="676" 
d="M343 420l-240 -222h-1l-34 -198h-17l128 730h17l-89 -507l546 507h24l-321 -298l231 -432h-19zM236 -220q14 7 27.5 19.5t24 27t17.5 29.5t10 29q4 25 -6 33q4 -5 2 -12q-3 -19 -22 -19q-9 0 -15.5 7t-4.5 18q5 25 30 25q17 0 26 -13t4 -39q-6 -33 -31.5 -65t-55.5 -50z
" />
    <glyph glyph-name="kcommaaccent" unicode="&#x137;" horiz-adv-x="555" 
d="M263 298l-183 -152l-25 -146h-16l138 788h16l-110 -624l449 376h22l-279 -233l206 -307h-19zM163 -219q14 7 27.5 19.5t24 27t17.5 29.5t10 29q4 25 -6 33q4 -5 2 -12q-3 -19 -22 -19q-9 0 -15.5 7t-4.5 18q5 25 30 25q17 0 26 -13t4 -39q-6 -33 -31.5 -65t-55.5 -50z
" />
    <glyph glyph-name="kgreenlandic" unicode="&#x138;" horiz-adv-x="555" 
d="M263 298l-182 -152l-26 -146h-16l95 540h16l-66 -375l448 375h22l-279 -233l206 -307h-19z" />
    <glyph glyph-name="Lacute" unicode="&#x139;" horiz-adv-x="610" 
d="M179 730h17l-126 -714h438l-2 -16h-455zM340 952h25l-154 -140h-20z" />
    <glyph glyph-name="lacute" unicode="&#x13a;" horiz-adv-x="188" 
d="M177 788h16l-139 -788h-16zM338 1010h25l-154 -140h-20z" />
    <glyph glyph-name="Lcommaaccent" unicode="&#x13b;" horiz-adv-x="610" 
d="M179 730h17l-126 -714h438l-2 -16h-455zM201 -237q14 7 27.5 19.5t24 27t17.5 29.5t10 29q4 25 -6 33q4 -5 2 -12q-3 -19 -22 -19q-9 0 -15.5 7t-4.5 18q5 25 30 25q17 0 26 -13t4 -39q-6 -33 -31.5 -65t-55.5 -50z" />
    <glyph glyph-name="lcommaaccent" unicode="&#x13c;" horiz-adv-x="188" 
d="M177 788h16l-139 -788h-16zM-38 -237q14 7 27.5 19.5t24 27t17.5 29.5t10 29q4 25 -6 33q4 -5 2 -12q-3 -19 -22 -19q-9 0 -15.5 7t-4.5 18q5 25 30 25q17 0 26 -13t4 -39q-6 -33 -31.5 -65t-55.5 -50z" />
    <glyph glyph-name="Lcaron" unicode="&#x13d;" horiz-adv-x="610" 
d="M179 730h17l-126 -714h438l-2 -16h-455zM481 585q14 7 27.5 19.5t24 27t17.5 29.5t10 29q2 14 0.5 21t-6.5 11q3 -5 2 -11q-3 -19 -22 -19q-9 0 -15.5 7t-4.5 18q5 25 30 25q17 0 26 -13t4 -39q-6 -33 -31.5 -65t-55.5 -50z" />
    <glyph glyph-name="lcaron" unicode="&#x13e;" horiz-adv-x="188" 
d="M177 788h16l-139 -788h-16zM283 643q14 7 27.5 19.5t24 27t17.5 29.5t10 29q2 14 0.5 21t-6.5 11q3 -5 2 -11q-3 -19 -22 -19q-9 0 -15.5 7t-4.5 18q5 25 30 25q17 0 26 -13t4 -39q-6 -33 -31.5 -65t-55.5 -50z" />
    <glyph glyph-name="Ldot" unicode="&#x13f;" horiz-adv-x="610" 
d="M179 730h17l-126 -714h438l-2 -16h-455zM502 271q-11 0 -17.5 8t-4.5 19q2 9 9 15t17 6q13 0 18 -8.5t3 -19.5q-2 -8 -8.5 -14t-16.5 -6z" />
    <glyph glyph-name="ldot" unicode="&#x140;" horiz-adv-x="288" 
d="M177 788h16l-139 -788h-16zM227 242q-11 0 -17.5 8t-4.5 19q2 9 9 15t17 6q13 0 18 -8.5t3 -19.5q-2 -8 -8.5 -14t-16.5 -6z" />
    <glyph glyph-name="Lslash" unicode="&#x141;" horiz-adv-x="594" 
d="M46 335l82 23l66 372h17l-65 -367l235 65l3 -14l-241 -67l-58 -331h438l-2 -16h-455l60 342l-77 -21z" />
    <glyph glyph-name="lslash" unicode="&#x142;" horiz-adv-x="300" 
d="M26 381l134 53l63 354h16l-61 -347l145 57l-3 -16l-145 -57l-75 -425h-16l73 418l-134 -53z" />
    <glyph glyph-name="Nacute" unicode="&#x143;" horiz-adv-x="760" 
d="M179 730h17l406 -705l124 705h17l-128 -730h-18l-406 703l-123 -703h-17zM625 941h25l-154 -140h-20z" />
    <glyph glyph-name="nacute" unicode="&#x144;" horiz-adv-x="643" 
d="M130 540h15l-24 -136q13 32 35.5 59t51.5 46.5t64.5 30.5t76.5 11q61 0 106.5 -21t73 -57.5t37 -85.5t-0.5 -106l-50 -281h-15l50 281q9 52 1 98.5t-33 81t-67.5 55t-102.5 20.5q-47 0 -87 -15t-71 -41.5t-51.5 -62.5t-28.5 -78l-60 -339h-15zM514 766h25l-154 -140h-20z
" />
    <glyph glyph-name="Ncommaaccent" unicode="&#x145;" horiz-adv-x="760" 
d="M179 730h17l406 -705l124 705h17l-128 -730h-18l-406 703l-123 -703h-17zM240 -230q14 7 27.5 19.5t24 27t17.5 29.5t10 29q4 25 -6 33q4 -5 2 -12q-3 -19 -22 -19q-9 0 -15.5 7t-4.5 18q5 25 30 25q17 0 26 -13t4 -39q-6 -33 -31.5 -65t-55.5 -50z" />
    <glyph glyph-name="ncommaaccent" unicode="&#x146;" horiz-adv-x="643" 
d="M130 540h15l-24 -136q13 32 35.5 59t51.5 46.5t64.5 30.5t76.5 11q61 0 106.5 -21t73 -57.5t37 -85.5t-0.5 -106l-50 -281h-15l50 281q9 52 1 98.5t-33 81t-67.5 55t-102.5 20.5q-47 0 -87 -15t-71 -41.5t-51.5 -62.5t-28.5 -78l-60 -339h-15zM209 -222q14 7 27.5 19.5
t24 27t17.5 29.5t10 29q4 25 -6 33q4 -5 2 -12q-3 -19 -22 -19q-9 0 -15.5 7t-4.5 18q5 25 30 25q17 0 26 -13t4 -39q-6 -33 -31.5 -65t-55.5 -50z" />
    <glyph glyph-name="Ncaron" unicode="&#x147;" horiz-adv-x="760" 
d="M179 730h17l406 -705l124 705h17l-128 -730h-18l-406 703l-123 -703h-17zM381 941h19l84 -125l128 125h22l-143 -140h-15z" />
    <glyph glyph-name="ncaron" unicode="&#x148;" horiz-adv-x="643" 
d="M130 540h15l-24 -136q13 32 35.5 59t51.5 46.5t64.5 30.5t76.5 11q61 0 106.5 -21t73 -57.5t37 -85.5t-0.5 -106l-50 -281h-15l50 281q9 52 1 98.5t-33 81t-67.5 55t-102.5 20.5q-47 0 -87 -15t-71 -41.5t-51.5 -62.5t-28.5 -78l-60 -339h-15zM270 766h19l84 -125
l128 125h22l-143 -140h-15z" />
    <glyph glyph-name="Eng" unicode="&#x14a;" horiz-adv-x="749" 
d="M343 -176h69q79 0 119.5 40.5t52.5 115.5l4 22l-396 702l-124 -704h-17l128 730h18l395 -702l124 702h16l-131 -748q-14 -87 -58 -130.5t-132 -43.5h-70z" />
    <glyph glyph-name="eng" unicode="&#x14b;" horiz-adv-x="643" 
d="M319 -230q41 0 69.5 7.5t47.5 26t31 49.5t21 79l62 349q9 52 1 98.5t-33 81t-67.5 55t-102.5 20.5q-47 0 -87 -15t-71 -41.5t-51.5 -62.5t-28.5 -78l-60 -339h-15l95 540h15l-24 -136q13 32 35.5 59t51.5 46.5t64.5 30.5t76.5 11q61 0 106.5 -21t73 -57.5t37 -85.5
t-0.5 -106l-62 -350q-9 -52 -22 -86t-34 -54t-51.5 -28t-75.5 -8h-5z" />
    <glyph glyph-name="Omacron" unicode="&#x14c;" horiz-adv-x="895" 
d="M444 -10q-87 0 -157.5 33.5t-117 90.5t-66 133.5t-4.5 162.5q13 73 49.5 134t89 104.5t116.5 67.5t133 24q93 0 163.5 -37.5t115 -98t61.5 -136.5t2 -153q-13 -74 -49.5 -133.5t-88 -102.5t-115.5 -66t-132 -23zM445 5q65 0 126 23t110.5 64.5t84.5 99t47 126.5
q13 73 -2.5 146t-58 131t-110 94t-156.5 36q-66 0 -127.5 -23.5t-111.5 -66t-85 -101t-47 -128.5q-14 -83 5 -155.5t63.5 -127.5t111.5 -86.5t150 -31.5zM379 869h264l-3 -15h-264z" />
    <glyph glyph-name="omacron" unicode="&#x14d;" horiz-adv-x="667" 
d="M318 -11q-65 0 -117.5 25t-87.5 68.5t-49.5 100.5t-2.5 122q10 55 36.5 100t65.5 77.5t88 50.5t103 18q67 0 119 -27.5t85 -72.5t46 -102t2 -117q-10 -55 -37 -99.5t-66 -76.5t-86.5 -49.5t-98.5 -17.5zM318 4q48 0 93 17t82 48t62.5 73.5t34.5 92.5q10 57 -2 111t-43 96
t-80 68t-113 26q-51 0 -97 -17.5t-82.5 -48.5t-61.5 -74.5t-34 -94.5q-10 -57 2.5 -110.5t44 -95t81 -66.5t113.5 -25zM252 680h264l-3 -15h-264z" />
    <glyph glyph-name="Obreve" unicode="&#x14e;" horiz-adv-x="895" 
d="M444 -10q-87 0 -157.5 33.5t-117 90.5t-66 133.5t-4.5 162.5q13 73 49.5 134t89 104.5t116.5 67.5t133 24q93 0 163.5 -37.5t115 -98t61.5 -136.5t2 -153q-13 -74 -49.5 -133.5t-88 -102.5t-115.5 -66t-132 -23zM445 5q65 0 126 23t110.5 64.5t84.5 99t47 126.5
q13 73 -2.5 146t-58 131t-110 94t-156.5 36q-66 0 -127.5 -23.5t-111.5 -66t-85 -101t-47 -128.5q-14 -83 5 -155.5t63.5 -127.5t111.5 -86.5t150 -31.5zM497 815q-36 0 -64.5 13t-47 33.5t-26 46.5t-2.5 52h16q-4 -23 2.5 -46t22.5 -42t41.5 -30.5t60.5 -11.5
q37 0 65.5 11.5t48.5 30.5t32.5 42t16.5 46h17q-5 -26 -18.5 -52t-36 -46.5t-54.5 -33.5t-74 -13z" />
    <glyph glyph-name="obreve" unicode="&#x14f;" horiz-adv-x="667" 
d="M318 -11q-65 0 -117.5 25t-87.5 68.5t-49.5 100.5t-2.5 122q10 55 36.5 100t65.5 77.5t88 50.5t103 18q67 0 119 -27.5t85 -72.5t46 -102t2 -117q-10 -55 -37 -99.5t-66 -76.5t-86.5 -49.5t-98.5 -17.5zM318 4q48 0 93 17t82 48t62.5 73.5t34.5 92.5q10 57 -2 111t-43 96
t-80 68t-113 26q-51 0 -97 -17.5t-82.5 -48.5t-61.5 -74.5t-34 -94.5q-10 -57 2.5 -110.5t44 -95t81 -66.5t113.5 -25zM370 626q-36 0 -64.5 13t-47 33.5t-26 46.5t-2.5 52h16q-4 -23 2.5 -46t22.5 -42t41.5 -30.5t60.5 -11.5q37 0 65.5 11.5t48.5 30.5t32.5 42t16.5 46h17
q-5 -26 -18.5 -52t-36 -46.5t-54.5 -33.5t-74 -13z" />
    <glyph glyph-name="Ohungarumlaut" unicode="&#x150;" horiz-adv-x="895" 
d="M444 -10q-87 0 -157.5 33.5t-117 90.5t-66 133.5t-4.5 162.5q13 73 49.5 134t89 104.5t116.5 67.5t133 24q93 0 163.5 -37.5t115 -98t61.5 -136.5t2 -153q-13 -74 -49.5 -133.5t-88 -102.5t-115.5 -66t-132 -23zM445 5q65 0 126 23t110.5 64.5t84.5 99t47 126.5
q13 73 -2.5 146t-58 131t-110 94t-156.5 36q-66 0 -127.5 -23.5t-111.5 -66t-85 -101t-47 -128.5q-14 -83 5 -155.5t63.5 -127.5t111.5 -86.5t150 -31.5zM610 957h25l-154 -140h-20zM701 957h25l-154 -140h-20z" />
    <glyph glyph-name="ohungarumlaut" unicode="&#x151;" horiz-adv-x="667" 
d="M318 -11q-65 0 -117.5 25t-87.5 68.5t-49.5 100.5t-2.5 122q10 55 36.5 100t65.5 77.5t88 50.5t103 18q67 0 119 -27.5t85 -72.5t46 -102t2 -117q-10 -55 -37 -99.5t-66 -76.5t-86.5 -49.5t-98.5 -17.5zM318 4q48 0 93 17t82 48t62.5 73.5t34.5 92.5q10 57 -2 111t-43 96
t-80 68t-113 26q-51 0 -97 -17.5t-82.5 -48.5t-61.5 -74.5t-34 -94.5q-10 -57 2.5 -110.5t44 -95t81 -66.5t113.5 -25zM483 768h25l-154 -140h-20zM574 768h25l-154 -140h-20z" />
    <glyph glyph-name="OE" unicode="&#x152;" horiz-adv-x="1339" 
d="M799 236q-24 -54 -61 -99.5t-83.5 -78t-100 -50.5t-110.5 -18q-87 0 -157.5 33.5t-117 90.5t-66 133.5t-4.5 162.5q13 73 51 134t91.5 104.5t119 67.5t134.5 24q72 0 132 -22t104.5 -62t71.5 -94.5t32 -120.5l51 289h453l-3 -16h-436l-60 -341h436l-2 -15h-436l-61 -342
h436l-2 -16h-453zM445 5q65 0 127 26t112 71.5t85.5 106t47.5 129.5q13 73 -2 143t-56.5 124t-108.5 87t-156 33q-66 0 -129 -23.5t-114.5 -66t-87.5 -101t-48 -128.5q-14 -77 3.5 -149t61 -128t111 -90t154.5 -34z" />
    <glyph glyph-name="oe" unicode="&#x153;" horiz-adv-x="1199" 
d="M318 -11q-65 0 -117.5 25t-87.5 68.5t-49.5 100.5t-2.5 122q10 55 36.5 100t65.5 77.5t88 50.5t103 18q52 0 95.5 -17t75.5 -46.5t52.5 -69t28.5 -83.5q15 49 44.5 89t68.5 68.5t86 43.5t97 15q61 0 109 -21.5t79 -59t45 -88t8 -108.5l-1 -10h-535q-5 -57 11.5 -105
t49.5 -82.5t82 -53.5t111 -19q65 0 124.5 25t99.5 75l14 -9q-45 -54 -106.5 -80t-133.5 -26q-56 0 -101.5 14.5t-79.5 41.5t-55 64.5t-28 83.5q-15 -47 -43 -84.5t-64.5 -64t-80 -41t-89.5 -14.5zM318 4q48 0 93 17t82 48t62.5 73.5t34.5 92.5q10 57 -2 111t-43 96t-80 68
t-113 26q-51 0 -97 -17.5t-82.5 -48.5t-61.5 -74.5t-34 -94.5q-10 -57 2.5 -110.5t44 -95t81 -66.5t113.5 -25zM608 278h519q6 54 -6.5 101t-42 81.5t-74.5 54.5t-103 20q-51 0 -99 -17t-87 -48t-66.5 -75.5t-37.5 -98.5z" />
    <glyph glyph-name="Racute" unicode="&#x154;" horiz-adv-x="706" 
d="M179 730h275q54 0 97 -20.5t72 -55t41.5 -80.5t3.5 -97q-7 -45 -27 -81t-49.5 -62t-67.5 -42t-81 -20l150 -272h-19l-148 271h-311l-47 -271h-17zM193 715l-75 -429h297q46 0 86.5 14t71.5 39.5t51.5 61t27.5 78.5q8 46 -3 88.5t-37.5 75t-67.5 52t-92 20.5h-259z
M569 952h25l-154 -140h-20z" />
    <glyph glyph-name="racute" unicode="&#x155;" horiz-adv-x="385" 
d="M129 540h16l-27 -149q15 33 37.5 60t51.5 47t63.5 31t73.5 11h44l-2 -15h-42q-48 0 -88 -16.5t-70.5 -44.5t-51 -65.5t-28.5 -79.5l-56 -319h-15zM428 753h25l-154 -140h-20z" />
    <glyph glyph-name="Rcommaaccent" unicode="&#x156;" horiz-adv-x="706" 
d="M179 730h275q54 0 97 -20.5t72 -55t41.5 -80.5t3.5 -97q-7 -45 -27 -81t-49.5 -62t-67.5 -42t-81 -20l150 -272h-19l-148 271h-311l-47 -271h-17zM193 715l-75 -429h297q46 0 86.5 14t71.5 39.5t51.5 61t27.5 78.5q8 46 -3 88.5t-37.5 75t-67.5 52t-92 20.5h-259z
M234 -220q14 7 27.5 19.5t24 27t17.5 29.5t10 29q4 25 -6 33q4 -5 2 -12q-3 -19 -22 -19q-9 0 -15.5 7t-4.5 18q5 25 30 25q17 0 26 -13t4 -39q-6 -33 -31.5 -65t-55.5 -50z" />
    <glyph glyph-name="rcommaaccent" unicode="&#x157;" horiz-adv-x="385" 
d="M129 540h16l-27 -149q15 33 37.5 60t51.5 47t63.5 31t73.5 11h44l-2 -15h-42q-48 0 -88 -16.5t-70.5 -44.5t-51 -65.5t-28.5 -79.5l-56 -319h-15zM-41 -237q14 7 27.5 19.5t24 27t17.5 29.5t10 29q4 25 -6 33q4 -5 2 -12q-3 -19 -22 -19q-9 0 -15.5 7t-4.5 18q5 25 30 25
q17 0 26 -13t4 -39q-6 -33 -31.5 -65t-55.5 -50z" />
    <glyph glyph-name="Rcaron" unicode="&#x158;" horiz-adv-x="706" 
d="M179 730h275q54 0 97 -20.5t72 -55t41.5 -80.5t3.5 -97q-7 -45 -27 -81t-49.5 -62t-67.5 -42t-81 -20l150 -272h-19l-148 271h-311l-47 -271h-17zM193 715l-75 -429h297q46 0 86.5 14t71.5 39.5t51.5 61t27.5 78.5q8 46 -3 88.5t-37.5 75t-67.5 52t-92 20.5h-259z
M325 952h19l84 -125l128 125h22l-143 -140h-15z" />
    <glyph glyph-name="rcaron" unicode="&#x159;" horiz-adv-x="385" 
d="M129 540h16l-27 -149q15 33 37.5 60t51.5 47t63.5 31t73.5 11h44l-2 -15h-42q-48 0 -88 -16.5t-70.5 -44.5t-51 -65.5t-28.5 -79.5l-56 -319h-15zM184 753h19l84 -125l128 125h22l-143 -140h-15z" />
    <glyph glyph-name="Sacute" unicode="&#x15a;" horiz-adv-x="658" 
d="M315 -11q-50 0 -94 11t-80.5 30t-65.5 43.5t-50 50.5l15 11q19 -26 46.5 -49.5t62.5 -41.5t77 -29t90 -11q53 0 95 12.5t73 33.5t49.5 50t24.5 62q9 54 -6.5 89.5t-47 59.5t-75 39.5t-88.5 29.5t-87 29t-73.5 38.5t-47 57.5t-6.5 85q11 66 72.5 108t168.5 42q43 0 83 -10
t75 -27t62.5 -40t45.5 -49l-13 -10q-17 25 -43.5 47t-59.5 38.5t-71.5 26t-79.5 9.5q-100 0 -156.5 -37t-67.5 -100q-8 -48 7 -79.5t45.5 -53t72 -36t85.5 -27.5q46 -14 90 -30.5t76.5 -42t48.5 -63t6 -94.5q-6 -38 -26.5 -69.5t-53.5 -54.5t-78 -36t-101 -13zM552 957h25
l-154 -140h-20z" />
    <glyph glyph-name="sacute" unicode="&#x15b;" horiz-adv-x="515" 
d="M236 -11q-79 0 -140 32t-95 82l15 10q31 -48 88.5 -78.5t132.5 -30.5q43 0 75 10t53.5 26t34 37t16.5 43q7 39 -5.5 65.5t-37.5 44t-58 29t-68 22.5q-34 10 -66.5 21.5t-56 28t-35.5 41.5t-6 62q10 56 60.5 87.5t122.5 29.5q72 0 124 -26.5t90 -71.5l-13 -10
q-37 46 -86 70t-115 24t-112 -27t-55 -78q-6 -33 6 -54.5t34.5 -37t53.5 -26t64 -20.5q36 -11 70.5 -23.5t60.5 -32t38.5 -49t5.5 -72.5q-5 -27 -19 -50t-38.5 -40.5t-59 -27.5t-79.5 -10zM464 769h25l-154 -140h-20z" />
    <glyph glyph-name="Scircumflex" unicode="&#x15c;" horiz-adv-x="658" 
d="M315 -11q-50 0 -94 11t-80.5 30t-65.5 43.5t-50 50.5l15 11q19 -26 46.5 -49.5t62.5 -41.5t77 -29t90 -11q53 0 95 12.5t73 33.5t49.5 50t24.5 62q9 54 -6.5 89.5t-47 59.5t-75 39.5t-88.5 29.5t-87 29t-73.5 38.5t-47 57.5t-6.5 85q11 66 72.5 108t168.5 42q43 0 83 -10
t75 -27t62.5 -40t45.5 -49l-13 -10q-17 25 -43.5 47t-59.5 38.5t-71.5 26t-79.5 9.5q-100 0 -156.5 -37t-67.5 -100q-8 -48 7 -79.5t45.5 -53t72 -36t85.5 -27.5q46 -14 90 -30.5t76.5 -42t48.5 -63t6 -94.5q-6 -38 -26.5 -69.5t-53.5 -54.5t-78 -36t-101 -13zM424 957h15
l95 -140h-19l-85 125l-127 -125h-22z" />
    <glyph glyph-name="scircumflex" unicode="&#x15d;" horiz-adv-x="515" 
d="M236 -11q-79 0 -140 32t-95 82l15 10q31 -48 88.5 -78.5t132.5 -30.5q43 0 75 10t53.5 26t34 37t16.5 43q7 39 -5.5 65.5t-37.5 44t-58 29t-68 22.5q-34 10 -66.5 21.5t-56 28t-35.5 41.5t-6 62q10 56 60.5 87.5t122.5 29.5q72 0 124 -26.5t90 -71.5l-13 -10
q-37 46 -86 70t-115 24t-112 -27t-55 -78q-6 -33 6 -54.5t34.5 -37t53.5 -26t64 -20.5q36 -11 70.5 -23.5t60.5 -32t38.5 -49t5.5 -72.5q-5 -27 -19 -50t-38.5 -40.5t-59 -27.5t-79.5 -10zM336 769h15l95 -140h-19l-85 125l-127 -125h-22z" />
    <glyph glyph-name="Scedilla" unicode="&#x15e;" horiz-adv-x="658" 
d="M267 -233q-43 0 -72.5 14t-50.5 36l14 10q18 -20 44.5 -33t66.5 -13q43 0 74.5 17t36.5 47q5 31 -21 49t-79 18h-16l14 79q-43 4 -81 16t-70 30t-57.5 40.5t-44.5 46.5l15 11q19 -26 46.5 -49.5t62.5 -41.5t77 -29t90 -11q53 0 95 12.5t73 33.5t49.5 50t24.5 62
q9 54 -6.5 89.5t-47 59.5t-75 39.5t-88.5 29.5t-87 29t-73.5 38.5t-47 57.5t-6.5 85q11 66 72.5 108t168.5 42q43 0 83 -10t75 -27t62.5 -40t45.5 -49l-13 -10q-17 25 -43.5 47t-59.5 38.5t-71.5 26t-79.5 9.5q-100 0 -156.5 -37t-67.5 -100q-8 -48 7 -79.5t45.5 -53t72 -36
t85.5 -27.5q46 -14 90 -30.5t76.5 -42t48.5 -63t6 -94.5q-6 -38 -26.5 -69.5t-53.5 -54.5t-78 -36t-101 -13h-11.5t-10.5 1l-11 -65q61 -1 90.5 -23.5t23.5 -58.5q-7 -37 -42 -56.5t-87 -19.5z" />
    <glyph glyph-name="scedilla" unicode="&#x15f;" horiz-adv-x="515" 
d="M177 -232q-43 0 -72.5 14t-50.5 36l14 10q18 -20 44.5 -33t66.5 -13q43 0 74.5 17t36.5 47q5 31 -21 49t-79 18h-16l14 79q-63 9 -110.5 39t-76.5 72l15 10q31 -48 88.5 -78.5t132.5 -30.5q43 0 75 10t53.5 26t34 37t16.5 43q7 39 -5.5 65.5t-37.5 44t-58 29t-68 22.5
q-34 10 -66.5 21.5t-56 28t-35.5 41.5t-6 62q10 56 60.5 87.5t122.5 29.5q72 0 124 -26.5t90 -71.5l-13 -10q-37 46 -86 70t-115 24t-112 -27t-55 -78q-6 -33 6 -54.5t34.5 -37t53.5 -26t64 -20.5q36 -11 70.5 -23.5t60.5 -32t38.5 -49t5.5 -72.5q-5 -27 -19 -50
t-38.5 -40.5t-59 -27.5t-79.5 -10q-8 0 -16.5 0.5t-16.5 1.5l-11 -65q61 -1 90.5 -23.5t23.5 -58.5q-7 -37 -42 -56.5t-87 -19.5z" />
    <glyph glyph-name="Scaron" unicode="&#x160;" horiz-adv-x="658" 
d="M315 -11q-50 0 -94 11t-80.5 30t-65.5 43.5t-50 50.5l15 11q19 -26 46.5 -49.5t62.5 -41.5t77 -29t90 -11q53 0 95 12.5t73 33.5t49.5 50t24.5 62q9 54 -6.5 89.5t-47 59.5t-75 39.5t-88.5 29.5t-87 29t-73.5 38.5t-47 57.5t-6.5 85q11 66 72.5 108t168.5 42q43 0 83 -10
t75 -27t62.5 -40t45.5 -49l-13 -10q-17 25 -43.5 47t-59.5 38.5t-71.5 26t-79.5 9.5q-100 0 -156.5 -37t-67.5 -100q-8 -48 7 -79.5t45.5 -53t72 -36t85.5 -27.5q46 -14 90 -30.5t76.5 -42t48.5 -63t6 -94.5q-6 -38 -26.5 -69.5t-53.5 -54.5t-78 -36t-101 -13zM308 957h19
l84 -125l128 125h22l-143 -140h-15z" />
    <glyph glyph-name="scaron" unicode="&#x161;" horiz-adv-x="515" 
d="M236 -11q-79 0 -140 32t-95 82l15 10q31 -48 88.5 -78.5t132.5 -30.5q43 0 75 10t53.5 26t34 37t16.5 43q7 39 -5.5 65.5t-37.5 44t-58 29t-68 22.5q-34 10 -66.5 21.5t-56 28t-35.5 41.5t-6 62q10 56 60.5 87.5t122.5 29.5q72 0 124 -26.5t90 -71.5l-13 -10
q-37 46 -86 70t-115 24t-112 -27t-55 -78q-6 -33 6 -54.5t34.5 -37t53.5 -26t64 -20.5q36 -11 70.5 -23.5t60.5 -32t38.5 -49t5.5 -72.5q-5 -27 -19 -50t-38.5 -40.5t-59 -27.5t-79.5 -10zM220 769h19l84 -125l128 125h22l-143 -140h-15z" />
    <glyph glyph-name="Tcommaaccent" unicode="&#x162;" horiz-adv-x="643" 
d="M266 0l125 715h-269l2 15h557l-2 -15h-271l-125 -715h-17zM192 -237q14 7 27.5 19.5t24 27t17.5 29.5t10 29q4 25 -6 33q4 -5 2 -12q-3 -19 -22 -19q-9 0 -15.5 7t-4.5 18q5 25 30 25q17 0 26 -13t4 -39q-6 -33 -31.5 -65t-55.5 -50z" />
    <glyph glyph-name="tcommaaccent" unicode="&#x163;" horiz-adv-x="350" 
d="M72 540h100l23 129l16 9l-24 -138h162l-2 -13h-163l-59 -342q-9 -49 -7.5 -81.5t16 -52.5t44.5 -28.5t78 -8.5l-2 -14h-2q-50 0 -82 9t-48.5 31t-18.5 57t7 88l60 342h-100zM102 -234q14 7 27.5 19.5t24 27t17.5 29.5t10 29q4 25 -6 33q4 -5 2 -12q-3 -19 -22 -19
q-9 0 -15.5 7t-4.5 18q5 25 30 25q17 0 26 -13t4 -39q-6 -33 -31.5 -65t-55.5 -50z" />
    <glyph glyph-name="Tcaron" unicode="&#x164;" horiz-adv-x="643" 
d="M266 0l125 715h-269l2 15h557l-2 -15h-271l-125 -715h-17zM311 952h19l84 -125l128 125h22l-143 -140h-15z" />
    <glyph glyph-name="tcaron" unicode="&#x165;" horiz-adv-x="350" 
d="M72 540h100l23 129l16 9l-24 -138h162l-2 -13h-163l-59 -342q-9 -49 -7.5 -81.5t16 -52.5t44.5 -28.5t78 -8.5l-2 -14h-2q-50 0 -82 9t-48.5 31t-18.5 57t7 88l60 342h-100zM309 643q14 7 27.5 19.5t24 27t17.5 29.5t10 29q2 14 0.5 21t-6.5 11q3 -5 2 -11
q-3 -19 -22 -19q-9 0 -15.5 7t-4.5 18q5 25 30 25q17 0 26 -13t4 -39q-6 -33 -31.5 -65t-55.5 -50z" />
    <glyph glyph-name="Tbar" unicode="&#x166;" horiz-adv-x="643" 
d="M266 0l66 378h-121l3 15h120l57 322h-269l2 15h557l-2 -15h-271l-57 -322h127l-3 -15h-126l-66 -378h-17z" />
    <glyph glyph-name="tbar" unicode="&#x167;" horiz-adv-x="350" 
d="M72 540h100l23 129l16 9l-24 -138h162l-2 -13h-163l-41 -239h134l-2 -13h-135l-15 -90q-9 -49 -7.5 -81.5t16 -52.5t44.5 -28.5t78 -8.5l-2 -14h-2q-50 0 -82 9t-48.5 31t-18.5 57t7 88l16 90h-94l2 13h94l42 239h-100z" />
    <glyph glyph-name="Utilde" unicode="&#x168;" horiz-adv-x="700" 
d="M325 -10q-68 0 -117 21t-79 57.5t-40 86t0 107.5l82 468h17l-83 -473q-9 -51 0 -96.5t36.5 -80t74 -54.5t112.5 -20q50 0 93 15.5t75.5 43t54 65t29.5 81.5l91 519h17l-91 -519q-9 -48 -32 -89t-58.5 -70t-81.5 -45.5t-100 -16.5zM261 802q7 36 32 60t59 24
q27 0 49 -11.5t45 -25.5t43 -25.5t48 -11.5q29 0 49 18t27 53h16q-8 -42 -33 -63.5t-60 -21.5q-30 0 -53.5 12t-45.5 26q-21 14 -41.5 25t-45.5 11q-26 0 -46.5 -19t-26.5 -51h-16z" />
    <glyph glyph-name="utilde" unicode="&#x169;" horiz-adv-x="619" 
d="M271 -11q-60 0 -101.5 21t-65.5 57.5t-30.5 86t4.5 105.5l50 281h15l-50 -281q-11 -53 -6 -99.5t27 -81t61.5 -54.5t96.5 -20q47 0 87 16t71 43.5t51.5 65.5t29.5 82l59 329h14l-94 -540h-15l25 140q-29 -69 -89.5 -110t-139.5 -41zM196 618q7 36 32 60t59 24
q27 0 49 -11.5t45 -25.5t43 -25.5t48 -11.5q29 0 49 18t27 53h16q-8 -42 -33 -63.5t-60 -21.5q-30 0 -53.5 12t-45.5 26q-21 14 -41.5 25t-45.5 11q-26 0 -46.5 -19t-26.5 -51h-16z" />
    <glyph glyph-name="Umacron" unicode="&#x16a;" horiz-adv-x="700" 
d="M325 -10q-68 0 -117 21t-79 57.5t-40 86t0 107.5l82 468h17l-83 -473q-9 -51 0 -96.5t36.5 -80t74 -54.5t112.5 -20q50 0 93 15.5t75.5 43t54 65t29.5 81.5l91 519h17l-91 -519q-9 -48 -32 -89t-58.5 -70t-81.5 -45.5t-100 -16.5zM316 851h264l-3 -15h-264z" />
    <glyph glyph-name="umacron" unicode="&#x16b;" horiz-adv-x="619" 
d="M271 -11q-60 0 -101.5 21t-65.5 57.5t-30.5 86t4.5 105.5l50 281h15l-50 -281q-11 -53 -6 -99.5t27 -81t61.5 -54.5t96.5 -20q47 0 87 16t71 43.5t51.5 65.5t29.5 82l59 329h14l-94 -540h-15l25 140q-29 -69 -89.5 -110t-139.5 -41zM246 661h264l-3 -15h-264z" />
    <glyph glyph-name="Ubreve" unicode="&#x16c;" horiz-adv-x="700" 
d="M325 -10q-68 0 -117 21t-79 57.5t-40 86t0 107.5l82 468h17l-83 -473q-9 -51 0 -96.5t36.5 -80t74 -54.5t112.5 -20q50 0 93 15.5t75.5 43t54 65t29.5 81.5l91 519h17l-91 -519q-9 -48 -32 -89t-58.5 -70t-81.5 -45.5t-100 -16.5zM442 799q-36 0 -64.5 13t-47 33.5
t-26 46.5t-2.5 52h16q-4 -23 2.5 -46t22.5 -42t41.5 -30.5t60.5 -11.5q37 0 65.5 11.5t48.5 30.5t32.5 42t16.5 46h17q-5 -26 -18.5 -52t-36 -46.5t-54.5 -33.5t-74 -13z" />
    <glyph glyph-name="ubreve" unicode="&#x16d;" horiz-adv-x="619" 
d="M271 -11q-60 0 -101.5 21t-65.5 57.5t-30.5 86t4.5 105.5l50 281h15l-50 -281q-11 -53 -6 -99.5t27 -81t61.5 -54.5t96.5 -20q47 0 87 16t71 43.5t51.5 65.5t29.5 82l59 329h14l-94 -540h-15l25 140q-29 -69 -89.5 -110t-139.5 -41zM364 607q-36 0 -64.5 13t-47 33.5
t-26 46.5t-2.5 52h16q-4 -23 2.5 -46t22.5 -42t41.5 -30.5t60.5 -11.5q37 0 65.5 11.5t48.5 30.5t32.5 42t16.5 46h17q-5 -26 -18.5 -52t-36 -46.5t-54.5 -33.5t-74 -13z" />
    <glyph glyph-name="Uring" unicode="&#x16e;" horiz-adv-x="700" 
d="M325 -10q-68 0 -117 21t-79 57.5t-40 86t0 107.5l82 468h17l-83 -473q-9 -51 0 -96.5t36.5 -80t74 -54.5t112.5 -20q50 0 93 15.5t75.5 43t54 65t29.5 81.5l91 519h17l-91 -519q-9 -48 -32 -89t-58.5 -70t-81.5 -45.5t-100 -16.5zM434 783q-18 0 -33 7t-25.5 20t-15 29.5
t-1.5 36.5q6 32 31.5 53.5t57.5 21.5q20 0 36 -8t26 -21t14 -29.5t1 -32.5q-6 -32 -31 -54.5t-60 -22.5zM436 798q27 0 48 19t26 45q5 28 -12 51t-51 23q-26 0 -47 -18t-26 -45q-5 -29 11.5 -52t50.5 -23z" />
    <glyph glyph-name="uring" unicode="&#x16f;" horiz-adv-x="619" 
d="M271 -11q-60 0 -101.5 21t-65.5 57.5t-30.5 86t4.5 105.5l50 281h15l-50 -281q-11 -53 -6 -99.5t27 -81t61.5 -54.5t96.5 -20q47 0 87 16t71 43.5t51.5 65.5t29.5 82l59 329h14l-94 -540h-15l25 140q-29 -69 -89.5 -110t-139.5 -41zM364 598q-18 0 -33 7t-25.5 20
t-15 29.5t-1.5 36.5q6 32 31.5 53.5t57.5 21.5q20 0 36 -8t26 -21t14 -29.5t1 -32.5q-6 -32 -31 -54.5t-60 -22.5zM366 613q27 0 48 19t26 45q5 28 -12 51t-51 23q-26 0 -47 -18t-26 -45q-5 -29 11.5 -52t50.5 -23z" />
    <glyph glyph-name="Uhungarumlaut" unicode="&#x170;" horiz-adv-x="700" 
d="M325 -10q-68 0 -117 21t-79 57.5t-40 86t0 107.5l82 468h17l-83 -473q-9 -51 0 -96.5t36.5 -80t74 -54.5t112.5 -20q50 0 93 15.5t75.5 43t54 65t29.5 81.5l91 519h17l-91 -519q-9 -48 -32 -89t-58.5 -70t-81.5 -45.5t-100 -16.5zM517 938h25l-154 -140h-20zM608 938h25
l-154 -140h-20z" />
    <glyph glyph-name="uhungarumlaut" unicode="&#x171;" horiz-adv-x="619" 
d="M271 -11q-60 0 -101.5 21t-65.5 57.5t-30.5 86t4.5 105.5l50 281h15l-50 -281q-11 -53 -6 -99.5t27 -81t61.5 -54.5t96.5 -20q47 0 87 16t71 43.5t51.5 65.5t29.5 82l59 329h14l-94 -540h-15l25 140q-29 -69 -89.5 -110t-139.5 -41zM437 749h25l-154 -140h-20zM528 749
h25l-154 -140h-20z" />
    <glyph glyph-name="Uogonek" unicode="&#x172;" horiz-adv-x="700" 
d="M369 -187q-23 0 -41.5 7.5t-31.5 20t-18.5 29.5t-2.5 36q5 26 23.5 46t56.5 40q-8 -1 -15 -1.5t-15 -0.5q-68 0 -117 21t-79 57.5t-40 86t0 107.5l82 468h17l-83 -473q-9 -51 0 -96.5t36.5 -80t74 -54.5t112.5 -20q50 0 93 15.5t75.5 43t54 65t29.5 81.5l91 519h17
l-91 -519q-14 -75 -60 -129t-117 -77q-63 -25 -93.5 -49t-35.5 -53q-5 -31 17.5 -53.5t63.5 -22.5q38 0 68 13t56 34l12 -10q-26 -21 -59.5 -36t-79.5 -15z" />
    <glyph glyph-name="uogonek" unicode="&#x173;" horiz-adv-x="619" 
d="M474 -194q-23 0 -41.5 7.5t-31.5 20t-18.5 29.5t-2.5 36q7 34 28.5 59t68.5 52l23 130q-29 -69 -89.5 -110t-139.5 -41q-60 0 -101.5 21t-65.5 57.5t-30.5 86t4.5 105.5l50 281h15l-50 -281q-11 -53 -6 -99.5t27 -81t61.5 -54.5t96.5 -20q47 0 87 16t71 43.5t51.5 65.5
t29.5 82l59 329h14l-94 -540h-1q-43 -26 -65.5 -50.5t-27.5 -53.5q-5 -31 17.5 -53.5t63.5 -22.5q28 0 51.5 7t43.5 19l9 -12q-22 -12 -48.5 -20t-58.5 -8z" />
    <glyph glyph-name="Wcircumflex" unicode="&#x174;" horiz-adv-x="1111" 
d="M754 0l-129 702l-369 -702h-19l-91 730h17l88 -705l371 705h14l130 -705l335 705h18l-347 -730h-18zM653 952h15l95 -140h-19l-85 125l-127 -125h-22z" />
    <glyph glyph-name="wcircumflex" unicode="&#x175;" horiz-adv-x="859" 
d="M85 540h17l57 -508l310 508h11l95 -512l272 512h18l-287 -540h-13l-95 514l-313 -514h-9zM499 762h15l95 -140h-19l-85 125l-127 -125h-22z" />
    <glyph glyph-name="Ycircumflex" unicode="&#x176;" horiz-adv-x="645" 
d="M316 276l-196 454h19l188 -439l338 439h21l-353 -456l-48 -274h-17zM424 942h15l95 -140h-19l-85 125l-127 -125h-22z" />
    <glyph glyph-name="ycircumflex" unicode="&#x177;" horiz-adv-x="590" 
d="M35 -199q-85 0 -127 65l12 9q37 -59 115 -59q27 0 49.5 7.5t43.5 23.5t41.5 42t43.5 63l51 82l-180 507h16l174 -491l305 491h18l-371 -596q-25 -39 -47 -66.5t-44.5 -45t-46.5 -25t-53 -7.5zM360 754h15l95 -140h-19l-85 125l-127 -125h-22z" />
    <glyph glyph-name="Ydieresis" unicode="&#x178;" horiz-adv-x="645" 
d="M316 276l-196 454h19l188 -439l338 439h21l-353 -456l-48 -274h-17zM352 817q-11 0 -17.5 8t-4.5 19q2 9 9 15t17 6q13 0 18 -8.5t3 -19.5q-2 -8 -8.5 -14t-16.5 -6zM473 817q-11 0 -17.5 8t-4.5 19q2 9 9 15t17 6q13 0 18 -8.5t3 -19.5q-2 -8 -8.5 -14t-16.5 -6z" />
    <glyph glyph-name="Zacute" unicode="&#x179;" horiz-adv-x="656" 
d="M22 0l3 16l617 699h-484l3 15h505l-3 -16l-617 -699h498l-3 -15h-519zM561 952h25l-154 -140h-20z" />
    <glyph glyph-name="zacute" unicode="&#x17a;" horiz-adv-x="572" 
d="M15 14l516 512h-420l3 14h443l-4 -14l-516 -512h432l-3 -14h-453zM465 763h25l-154 -140h-20z" />
    <glyph glyph-name="Zdotaccent" unicode="&#x17b;" horiz-adv-x="656" 
d="M22 0l3 16l617 699h-484l3 15h505l-3 -16l-617 -699h498l-3 -15h-519zM429 831q-11 0 -17.5 8t-4.5 19q2 9 9 15t17 6q13 0 18 -8.5t3 -19.5q-2 -8 -8.5 -14t-16.5 -6z" />
    <glyph glyph-name="zdotaccent" unicode="&#x17c;" horiz-adv-x="572" 
d="M15 14l516 512h-420l3 14h443l-4 -14l-516 -512h432l-3 -14h-453zM342 644q-11 0 -17.5 8t-4.5 19q2 9 9 15t17 6q13 0 18 -8.5t3 -19.5q-2 -8 -8.5 -14t-16.5 -6z" />
    <glyph glyph-name="Zcaron" unicode="&#x17d;" horiz-adv-x="656" 
d="M22 0l3 16l617 699h-484l3 15h505l-3 -16l-617 -699h498l-3 -15h-519zM317 952h19l84 -125l128 125h22l-143 -140h-15z" />
    <glyph glyph-name="zcaron" unicode="&#x17e;" horiz-adv-x="572" 
d="M15 14l516 512h-420l3 14h443l-4 -14l-516 -512h432l-3 -14h-453zM236 763h19l84 -125l128 125h22l-143 -140h-15z" />
    <glyph glyph-name="florin" unicode="&#x192;" horiz-adv-x="580" 
d="M161 393h150l73 168q21 48 39.5 80.5t39.5 52t47.5 28t63.5 8.5h2l-2 -15q-35 0 -59 -7t-43 -24.5t-35.5 -48t-37.5 -78.5l-72 -164h153l-4 -15h-155l-91 -209q-21 -48 -38.5 -80t-39.5 -52t-52.5 -28.5t-77.5 -8.5h-2l2 15q43 0 71 7t48.5 25t36.5 48.5t37 77.5l89 205
h-147z" />
    <glyph glyph-name="Aringacute" unicode="&#x1fa;" horiz-adv-x="732" 
d="M431 716q-30 6 -48 31.5t-12 60.5q6 32 31.5 53.5t57.5 21.5q20 0 36 -8t26 -21t14 -29.5t1 -32.5q-5 -29 -26.5 -50t-51.5 -26l174 -716h-17l-59 243h-389l-143 -243h-19zM177 258h377l-109 452zM386 805q-5 -28 10.5 -50.5t47.5 -24.5h9q26 2 45 20.5t24 43.5
q5 28 -12 51t-51 23q-26 0 -47 -18t-26 -45zM609 1080h25l-154 -140h-20z" />
    <glyph glyph-name="aringacute" unicode="&#x1fb;" horiz-adv-x="684" 
d="M315 -11q-65 0 -116.5 25t-86 68.5t-48.5 100.5t-3 122q10 55 37 100.5t66 77.5t88 50t103 18t96.5 -16.5t74 -45.5t50 -68t24.5 -84l36 203h14l-95 -540h-14l28 155q-18 -38 -44 -68.5t-59 -52t-71 -33.5t-80 -12zM316 4q51 0 96.5 18.5t81 50.5t59.5 76.5t33 97.5
q10 56 -1.5 108.5t-41.5 92.5t-77.5 64t-111.5 24q-51 0 -97.5 -17.5t-83.5 -48.5t-62 -74t-34 -95q-10 -60 3 -114t44.5 -94.5t80.5 -64.5t111 -24zM539 984h25l-154 -140h-20zM371 617q-18 0 -33 7t-25.5 20t-15 29.5t-1.5 36.5q6 32 31.5 53.5t57.5 21.5q20 0 36 -8
t26 -21t14 -29.5t1 -32.5q-6 -32 -31 -54.5t-60 -22.5zM373 632q27 0 48 19t26 45q5 28 -12 51t-51 23q-26 0 -47 -18t-26 -45q-5 -29 11.5 -52t50.5 -23z" />
    <glyph glyph-name="AEacute" unicode="&#x1fc;" horiz-adv-x="1028" 
d="M499 730h530l-3 -16h-508l41 -341h407l-2 -15h-403l41 -342h301l-2 -16h-313l-29 243h-368l-162 -243h-20zM201 258h356l-54 451zM660 952h25l-154 -140h-20z" />
    <glyph glyph-name="aeacute" unicode="&#x1fd;" horiz-adv-x="1131" 
d="M205 -6q-52 0 -88 13.5t-57.5 36t-29 52.5t-1.5 62q7 40 30 65.5t59.5 39.5t85 19.5t107.5 5.5h218q0 4 1 7l8 44q8 45 -2 81t-36.5 62t-69 40t-97.5 14q-69 0 -128.5 -22.5t-104.5 -75.5l-14 12q48 51 110 76t136 25q52 0 94 -12t71 -34.5t44.5 -54.5t14.5 -71
q19 40 48.5 72t66 54t78.5 34t86 12q61 0 109 -21.5t79 -59t45 -88t8 -108.5h-535q-7 -60 8 -109.5t48.5 -85t83.5 -55.5t113 -20q65 0 124.5 25t99.5 75l14 -9q-45 -54 -106.5 -80t-133.5 -26q-56 0 -101.5 14.5t-79 41t-54.5 62.5t-28 80q-27 -50 -62.5 -86.5t-77.5 -60
t-88.5 -35t-95.5 -11.5zM542 288h519q4 52 -9.5 97t-43 78.5t-73.5 52.5t-101 19q-51 0 -99 -17t-87 -48t-66.5 -75.5t-37.5 -98.5zM208 9q43 0 87.5 11t86.5 35t78.5 62t65.5 91q-3 34 1 66h-219q-56 0 -101.5 -4.5t-79 -17.5t-54.5 -36t-27 -60q-5 -29 1.5 -55.5
t25.5 -46.5t52.5 -32.5t82.5 -12.5zM712 741h25l-154 -140h-20z" />
    <glyph glyph-name="Oslashacute" unicode="&#x1fe;" horiz-adv-x="895" 
d="M444 -10q-69 0 -128 21.5t-104 59.5l-72 -80l-11 9l72 80q-63 58 -91.5 144t-10.5 186q13 73 49.5 134t89 104.5t116.5 67.5t133 24q72 0 130 -23t102 -62l68 76l11 -9l-69 -76q32 -31 55 -69.5t35.5 -81.5t15.5 -89t-6 -91q-13 -74 -49.5 -133.5t-88 -102.5t-115.5 -66
t-132 -23zM115 406q-16 -95 10.5 -176.5t86.5 -137.5l496 551q-42 38 -97.5 60t-124.5 22q-66 0 -127.5 -23.5t-111.5 -66t-85 -101t-47 -128.5zM445 5q65 0 126 23t110.5 64.5t84.5 99t47 126.5q8 43 5.5 86.5t-14.5 84.5t-34 78t-52 67l-495 -551q43 -37 99 -57.5
t123 -20.5zM639 955h25l-154 -140h-20z" />
    <glyph glyph-name="oslashacute" unicode="&#x1ff;" horiz-adv-x="667" 
d="M318 -11q-52 0 -96 16t-78 45l-56 -60l-11 9l56 61q-45 44 -65.5 107.5t-6.5 137.5q10 55 36.5 100t65.5 77.5t88 50.5t103 18t98 -18t76 -49l57 62l11 -9l-58 -63q45 -46 62.5 -110t5.5 -132q-10 -55 -37 -99.5t-66 -76.5t-86.5 -49.5t-98.5 -17.5zM77 301
q-11 -66 6.5 -126.5t60.5 -103.5l373 402q-31 29 -72.5 46t-92.5 17t-97 -17.5t-82.5 -48.5t-61.5 -74.5t-34 -94.5zM318 4q48 0 93 17t82 48t62.5 73.5t34.5 92.5q11 64 -5.5 124t-57.5 104l-372 -401q31 -27 71.5 -42.5t91.5 -15.5zM509 768h25l-154 -140h-20z" />
    <glyph glyph-name="Scommaaccent" unicode="&#x218;" horiz-adv-x="658" 
d="M315 -11q-50 0 -94 11t-80.5 30t-65.5 43.5t-50 50.5l15 11q19 -26 46.5 -49.5t62.5 -41.5t77 -29t90 -11q53 0 95 12.5t73 33.5t49.5 50t24.5 62q9 54 -6.5 89.5t-47 59.5t-75 39.5t-88.5 29.5t-87 29t-73.5 38.5t-47 57.5t-6.5 85q11 66 72.5 108t168.5 42q43 0 83 -10
t75 -27t62.5 -40t45.5 -49l-13 -10q-17 25 -43.5 47t-59.5 38.5t-71.5 26t-79.5 9.5q-100 0 -156.5 -37t-67.5 -100q-8 -48 7 -79.5t45.5 -53t72 -36t85.5 -27.5q46 -14 90 -30.5t76.5 -42t48.5 -63t6 -94.5q-6 -38 -26.5 -69.5t-53.5 -54.5t-78 -36t-101 -13zM204 -243
q14 7 27.5 19.5t24 27t17.5 29.5t10 29q4 25 -6 33q4 -5 2 -12q-3 -19 -22 -19q-9 0 -15.5 7t-4.5 18q5 25 30 25q17 0 26 -13t4 -39q-6 -33 -31.5 -65t-55.5 -50z" />
    <glyph glyph-name="scommaaccent" unicode="&#x219;" horiz-adv-x="515" 
d="M236 -11q-79 0 -140 32t-95 82l15 10q31 -48 88.5 -78.5t132.5 -30.5q43 0 75 10t53.5 26t34 37t16.5 43q7 39 -5.5 65.5t-37.5 44t-58 29t-68 22.5q-34 10 -66.5 21.5t-56 28t-35.5 41.5t-6 62q10 56 60.5 87.5t122.5 29.5q72 0 124 -26.5t90 -71.5l-13 -10
q-37 46 -86 70t-115 24t-112 -27t-55 -78q-6 -33 6 -54.5t34.5 -37t53.5 -26t64 -20.5q36 -11 70.5 -23.5t60.5 -32t38.5 -49t5.5 -72.5q-5 -27 -19 -50t-38.5 -40.5t-59 -27.5t-79.5 -10zM136 -244q14 7 27.5 19.5t24 27t17.5 29.5t10 29q4 25 -6 33q4 -5 2 -12
q-3 -19 -22 -19q-9 0 -15.5 7t-4.5 18q5 25 30 25q17 0 26 -13t4 -39q-6 -33 -31.5 -65t-55.5 -50z" />
    <glyph glyph-name="dotlessj" unicode="&#x237;" horiz-adv-x="193" 
d="M-138 -230q41 0 69.5 7.5t47.5 26t31 49.5t21 79l108 608h15l-108 -609q-9 -52 -22 -86t-34 -54t-51.5 -28t-75.5 -8h-5z" />
    <glyph glyph-name="circumflex" unicode="&#x2c6;" 
d="M337 762h15l95 -140h-19l-85 125l-127 -125h-22z" />
    <glyph glyph-name="caron" unicode="&#x2c7;" 
d="M221 762h19l84 -125l128 125h22l-143 -140h-15z" />
    <glyph glyph-name="breve" unicode="&#x2d8;" 
d="M329 620q-36 0 -64.5 13t-47 33.5t-26 46.5t-2.5 52h16q-4 -23 2.5 -46t22.5 -42t41.5 -30.5t60.5 -11.5q37 0 65.5 11.5t48.5 30.5t32.5 42t16.5 46h17q-5 -26 -18.5 -52t-36 -46.5t-54.5 -33.5t-74 -13z" />
    <glyph glyph-name="dotaccent" unicode="&#x2d9;" 
d="M331 641q-11 0 -17.5 8t-4.5 19q2 9 9 15t17 6q13 0 18 -8.5t3 -19.5q-2 -8 -8.5 -14t-16.5 -6z" />
    <glyph glyph-name="ring" unicode="&#x2da;" 
d="M325 611q-18 0 -33 7t-25.5 20t-15 29.5t-1.5 36.5q6 32 31.5 53.5t57.5 21.5q20 0 36 -8t26 -21t14 -29.5t1 -32.5q-6 -32 -31 -54.5t-60 -22.5zM327 626q27 0 48 19t26 45q5 28 -12 51t-51 23q-26 0 -47 -18t-26 -45q-5 -29 11.5 -52t50.5 -23z" />
    <glyph glyph-name="ogonek" unicode="&#x2db;" 
d="M167 -194q-23 0 -41.5 7.5t-31.5 20t-18.5 29.5t-2.5 36q7 34 39 59t101 53l11 -11q-66 -26 -98 -50.5t-37 -53.5q-5 -31 17.5 -53.5t63.5 -22.5q38 0 68 13t56 34l12 -10q-26 -21 -59.5 -36t-79.5 -15z" />
    <glyph glyph-name="tilde" unicode="&#x2dc;" 
d="M138 621q7 36 32 60t59 24q27 0 49 -11.5t45 -25.5t43 -25.5t48 -11.5q29 0 49 18t27 53h16q-8 -42 -33 -63.5t-60 -21.5q-30 0 -53.5 12t-45.5 26q-21 14 -41.5 25t-45.5 11q-26 0 -46.5 -19t-26.5 -51h-16v0z" />
    <glyph glyph-name="hungarumlaut" unicode="&#x2dd;" 
d="M352 762h25l-154 -140h-20zM443 762h25l-154 -140h-20z" />
    <glyph glyph-name="uni0328" unicode="&#x328;" 
d="M209 -194q-23 0 -41.5 7.5t-31.5 20t-18.5 29.5t-2.5 36q7 34 29 59t69 53l11 -11q-43 -26 -65.5 -50.5t-27.5 -53.5q-5 -31 17.5 -53.5t63.5 -22.5q28 0 51.5 7t43.5 19l9 -12q-22 -12 -48.5 -20t-58.5 -8z" />
    <glyph glyph-name="pi" unicode="&#x3c0;" horiz-adv-x="775" 
d="M133 730h668l-3 -15h-161l-101 -576q-10 -57 9.5 -90t76.5 -33h61l-3 -16h-64q-61 0 -84.5 38.5t-12.5 99.5l101 577h-309l-125 -715h-17l125 715h-164z" />
    <glyph glyph-name="pi" unicode="&#x3d6;" horiz-adv-x="775" 
d="M133 730h668l-3 -15h-161l-101 -576q-10 -57 9.5 -90t76.5 -33h61l-3 -16h-64q-61 0 -84.5 38.5t-12.5 99.5l101 577h-309l-125 -715h-17l125 715h-164z" />
    <glyph glyph-name="uni0E3F" unicode="&#xe3f;" horiz-adv-x="588" 
d="M163 668h178l11 62h17l-11 -62h29q33 0 61 -11.5t47.5 -32t30 -47.5t7.5 -58q-5 -51 -38.5 -90t-84.5 -51q24 -8 43 -24t32 -37.5t18 -46.5t0 -52q-6 -31 -22 -58t-39.5 -46.5t-53.5 -30.5t-64 -11h-72l-12 -72h-17l12 72h-177zM306 373l-51 -287h70q31 0 58.5 10.5
t48.5 28.5t35 42.5t19 53.5q6 31 -2 58.5t-25.5 48.5t-42 33t-52.5 12h-58zM76 86h162l51 287h-162zM129 387h162l47 267h-162zM355 654l-47 -267h64q28 0 53 10.5t44.5 28.5t32 42.5t15.5 51.5q2 28 -7 52.5t-26.5 42.5t-42.5 28.5t-55 10.5h-31z" />
    <glyph glyph-name="Wgrave" unicode="&#x1e80;" horiz-adv-x="1111" 
d="M754 0l-129 702l-369 -702h-19l-91 730h17l88 -705l371 705h14l130 -705l335 705h18l-347 -730h-18zM530 952h23l99 -140h-16z" />
    <glyph glyph-name="wgrave" unicode="&#x1e81;" horiz-adv-x="859" 
d="M85 540h17l57 -508l310 508h11l95 -512l272 512h18l-287 -540h-13l-95 514l-313 -514h-9zM376 762h23l99 -140h-16z" />
    <glyph glyph-name="Wacute" unicode="&#x1e82;" horiz-adv-x="1111" 
d="M754 0l-129 702l-369 -702h-19l-91 730h17l88 -705l371 705h14l130 -705l335 705h18l-347 -730h-18zM781 952h25l-154 -140h-20z" />
    <glyph glyph-name="wacute" unicode="&#x1e83;" horiz-adv-x="859" 
d="M85 540h17l57 -508l310 508h11l95 -512l272 512h18l-287 -540h-13l-95 514l-313 -514h-9zM627 762h25l-154 -140h-20z" />
    <glyph glyph-name="Wdieresis" unicode="&#x1e84;" horiz-adv-x="1111" 
d="M754 0l-129 702l-369 -702h-19l-91 730h17l88 -705l371 705h14l130 -705l335 705h18l-347 -730h-18zM581 827q-11 0 -17.5 8t-4.5 19q2 9 9 15t17 6q13 0 18 -8.5t3 -19.5q-2 -8 -8.5 -14t-16.5 -6zM702 827q-11 0 -17.5 8t-4.5 19q2 9 9 15t17 6q13 0 18 -8.5t3 -19.5
q-2 -8 -8.5 -14t-16.5 -6z" />
    <glyph glyph-name="wdieresis" unicode="&#x1e85;" horiz-adv-x="859" 
d="M85 540h17l57 -508l310 508h11l95 -512l272 512h18l-287 -540h-13l-95 514l-313 -514h-9zM427 637q-11 0 -17.5 8t-4.5 19q2 9 9 15t17 6q13 0 18 -8.5t3 -19.5q-2 -8 -8.5 -14t-16.5 -6zM548 637q-11 0 -17.5 8t-4.5 19q2 9 9 15t17 6q13 0 18 -8.5t3 -19.5
q-2 -8 -8.5 -14t-16.5 -6z" />
    <glyph glyph-name="Ygrave" unicode="&#x1ef2;" horiz-adv-x="645" 
d="M316 276l-196 454h19l188 -439l338 439h21l-353 -456l-48 -274h-17zM301 942h23l99 -140h-16z" />
    <glyph glyph-name="ygrave" unicode="&#x1ef3;" horiz-adv-x="590" 
d="M35 -199q-85 0 -127 65l12 9q37 -59 115 -59q27 0 49.5 7.5t43.5 23.5t41.5 42t43.5 63l51 82l-180 507h16l174 -491l305 491h18l-371 -596q-25 -39 -47 -66.5t-44.5 -45t-46.5 -25t-53 -7.5zM232 750h23l99 -140h-16z" />
    <glyph glyph-name="figuredash" unicode="&#x2012;" horiz-adv-x="698" 
d="M63 263h570l-3 -15h-570z" />
    <glyph glyph-name="endash" unicode="&#x2013;" horiz-adv-x="542" 
d="M63 263h420l-3 -15h-420z" />
    <glyph glyph-name="emdash" unicode="&#x2014;" horiz-adv-x="748" 
d="M63 263h620l-3 -15h-620z" />
    <glyph glyph-name="uni2015" unicode="&#x2015;" horiz-adv-x="1048" 
d="M63 263h920l-3 -15h-920z" />
    <glyph glyph-name="doublebar" unicode="&#x2016;" horiz-adv-x="336" 
d="M173 730h17l-169 -960h-17zM310 730h17l-169 -960h-17z" />
    <glyph glyph-name="quoteleft" unicode="&#x2018;" horiz-adv-x="178" 
d="M139 563q-17 0 -26 13t-4 39q6 33 31.5 65t55.5 50l6 -10q-14 -8 -27.5 -20t-24 -26.5t-17.5 -30t-10 -28.5q-4 -25 6 -33q-4 5 -2 12q3 19 22 19q9 0 15.5 -7t4.5 -18q-5 -25 -30 -25z" />
    <glyph glyph-name="quoteright" unicode="&#x2019;" horiz-adv-x="178" 
d="M104 575q14 7 27.5 19.5t24 27t17.5 29.5t10 29q2 14 0.5 21t-6.5 11q3 -5 2 -11q-3 -19 -22 -19q-9 0 -15.5 7t-4.5 18q5 25 30 25q17 0 26 -13t4 -39q-6 -33 -31.5 -65t-55.5 -50z" />
    <glyph glyph-name="quotesinglbase" unicode="&#x201a;" horiz-adv-x="180" 
d="M-15 -110q14 7 27.5 19.5t24 27t17.5 29.5t10 29q2 14 0.5 21t-6.5 11q3 -5 2 -11q-3 -19 -22 -19q-9 0 -15.5 7t-4.5 18q5 25 30 25q17 0 26 -13t4 -39q-6 -33 -31.5 -65t-55.5 -50z" />
    <glyph glyph-name="reversequoteleft" unicode="&#x201b;" horiz-adv-x="178" 
d="M156 559q-23 18 -34.5 45.5t-5.5 62.5q5 30 18 46t30 16q13 0 19 -7.5t4 -18.5t-10 -17.5t-17 -6.5t-13.5 5t-2.5 15q0 2 1 4q-11 -12 -15 -36q-5 -29 4 -56.5t32 -42.5l-10 -9v0z" />
    <glyph glyph-name="quotedblleft" unicode="&#x201c;" horiz-adv-x="294" 
d="M139 563q-17 0 -26 13t-4 39q6 33 31.5 65t55.5 50l6 -10q-14 -8 -27.5 -20t-24 -26.5t-17.5 -30t-10 -28.5q-4 -25 6 -33q-4 5 -2 12q3 19 22 19q9 0 15.5 -7t4.5 -18q-5 -25 -30 -25zM255 563q-17 0 -26 13t-4 39q6 33 31.5 65t55.5 50l6 -10q-14 -8 -27.5 -20
t-24 -26.5t-17.5 -30t-10 -28.5q-4 -25 6 -33q-4 5 -2 12q3 19 22 19q9 0 15.5 -7t4.5 -18q-5 -25 -30 -25z" />
    <glyph glyph-name="quotedblright" unicode="&#x201d;" horiz-adv-x="294" 
d="M104 575q14 7 27.5 19.5t24 27t17.5 29.5t10 29q2 14 0.5 21t-6.5 11q3 -5 2 -11q-3 -19 -22 -19q-9 0 -15.5 7t-4.5 18q5 25 30 25q17 0 26 -13t4 -39q-6 -33 -31.5 -65t-55.5 -50zM220 575q14 7 27.5 19.5t24 27t17.5 29.5t10 29q2 14 0.5 21t-6.5 11q3 -5 2 -11
q-3 -19 -22 -19q-9 0 -15.5 7t-4.5 18q5 25 30 25q17 0 26 -13t4 -39q-6 -33 -31.5 -65t-55.5 -50z" />
    <glyph glyph-name="quotedblbase" unicode="&#x201e;" horiz-adv-x="296" 
d="M-15 -110q14 7 27.5 19.5t24 27t17.5 29.5t10 29q2 14 0.5 21t-6.5 11q3 -5 2 -11q-3 -19 -22 -19q-9 0 -15.5 7t-4.5 18q5 25 30 25q17 0 26 -13t4 -39q-6 -33 -31.5 -65t-55.5 -50zM101 -110q14 7 27.5 19.5t24 27t17.5 29.5t10 29q2 14 0.5 21t-6.5 11q3 -5 2 -11
q-3 -19 -22 -19q-9 0 -15.5 7t-4.5 18q5 25 30 25q17 0 26 -13t4 -39q-6 -33 -31.5 -65t-55.5 -50z" />
    <glyph glyph-name="reversequotedblleft" unicode="&#x201f;" horiz-adv-x="294" 
d="M156 559q-23 18 -34.5 45.5t-5.5 62.5q5 30 18 46t30 16q13 0 19 -7.5t4 -18.5t-10 -17.5t-17 -6.5t-13.5 5t-2.5 15q0 2 1 4q-11 -12 -15 -36q-5 -29 4 -56.5t32 -42.5zM272 559q-23 18 -34.5 45.5t-5.5 62.5q5 30 18 46t30 16q13 0 19 -7.5t4 -18.5t-10 -17.5t-17 -6.5
t-13.5 5t-2.5 15q0 2 1 4q-11 -12 -15 -36q-5 -29 4 -56.5t32 -42.5z" />
    <glyph glyph-name="dagger" unicode="&#x2020;" horiz-adv-x="615" 
d="M113 500h215l41 230h17l-41 -230h221l-3 -15h-220l-85 -485h-17l85 485h-216z" />
    <glyph glyph-name="daggerdbl" unicode="&#x2021;" horiz-adv-x="615" 
d="M113 500h215l41 230h17l-41 -230h221l-3 -15h-220l-41 -234h220l-3 -15h-220l-41 -236h-17l41 236h-216l3 15h216l41 234h-216z" />
    <glyph glyph-name="bullet" unicode="&#x2022;" horiz-adv-x="258" 
d="M139 220q-14 0 -23.5 9.5t-9.5 23.5t9.5 23.5t23.5 9.5t23.5 -9.5t9.5 -23.5t-9.5 -23.5t-23.5 -9.5z" />
    <glyph glyph-name="ellipsis" unicode="&#x2026;" horiz-adv-x="396" 
d="M40 -4q-11 0 -17.5 8t-4.5 19q2 9 9 15t17 6q13 0 18 -8.5t3 -19.5q-2 -8 -8.5 -14t-16.5 -6zM151 -4q-11 0 -17.5 8t-4.5 19q2 9 9 15t17 6q13 0 18 -8.5t3 -19.5q-2 -8 -8.5 -14t-16.5 -6zM264 -4q-11 0 -17.5 8t-4.5 19q2 9 9 15t17 6q13 0 18 -8.5t3 -19.5
q-2 -8 -8.5 -14t-16.5 -6z" />
    <glyph glyph-name="perthousand" unicode="&#x2030;" horiz-adv-x="1289" 
d="M823 730h23l-755 -730h-23zM298 420q-37 0 -67 14.5t-50 39t-28 57t-2 69.5q6 31 21.5 57t37.5 44.5t49.5 28.5t56.5 10q36 0 66 -14.5t50.5 -39.5t29 -58t1.5 -70q-6 -31 -21.5 -56.5t-37.5 -43.5t-49.5 -28t-56.5 -10zM298 435q27 0 51.5 9.5t45 26t34.5 40t19 50.5
q5 31 -1.5 60.5t-24 52.5t-44.5 37t-62 14q-27 0 -52.5 -9.5t-45.5 -26.5t-34 -40.5t-18 -51.5q-5 -31 2 -60t24.5 -51.5t44 -36.5t61.5 -14zM594 -11q-37 0 -67 14.5t-50 39t-28 57t-2 69.5q6 31 21.5 57t37.5 44.5t49.5 28.5t56.5 10q36 0 66 -14.5t50.5 -39.5t29 -58
t1.5 -70q-6 -31 -21.5 -56.5t-37.5 -43.5t-49.5 -28t-56.5 -10zM594 4q27 0 51.5 9.5t45 26t34.5 40t19 50.5q5 31 -1.5 60.5t-24 52.5t-44.5 37t-62 14q-27 0 -52.5 -9.5t-45.5 -26.5t-34 -40.5t-18 -51.5q-5 -31 2 -60t24.5 -51.5t44 -36.5t61.5 -14zM1003 -11
q-37 0 -67 14.5t-50 39t-28 57t-2 69.5q6 31 21.5 57t37.5 44.5t49.5 28.5t56.5 10q36 0 66 -14.5t50.5 -39.5t29 -58t1.5 -70q-6 -31 -21.5 -56.5t-37.5 -43.5t-49.5 -28t-56.5 -10zM1003 4q27 0 51.5 9.5t45 26t34.5 40t19 50.5q5 31 -1.5 60.5t-24 52.5t-44.5 37t-62 14
q-27 0 -52.5 -9.5t-45.5 -26.5t-34 -40.5t-18 -51.5q-5 -31 2 -60t24.5 -51.5t44 -36.5t61.5 -14z" />
    <glyph glyph-name="minute" unicode="&#x2032;" horiz-adv-x="178" 
d="M89 526l85 204h21l-91 -204h-15z" />
    <glyph glyph-name="second" unicode="&#x2033;" horiz-adv-x="254" 
d="M165 526l85 204h21l-91 -204h-15zM89 526l85 204h21l-91 -204h-15z" />
    <glyph glyph-name="tripleprime" unicode="&#x2034;" horiz-adv-x="353" 
d="M120 500q1 10 3.5 29.5t6 41.5t6.5 42.5t5 32.5l15 84h17l-15 -84l-5.5 -33t-8 -42.5t-8.5 -41t-6 -29.5h-10zM207 500q1 10 3.5 29.5t6 41.5t6.5 42.5t5 32.5l15 84h17l-15 -84l-5.5 -33t-8 -42.5t-8.5 -41t-6 -29.5h-10zM294 500q1 10 3.5 29.5t6 41.5t6.5 42.5t5 32.5
l15 84h17l-15 -84l-5.5 -33t-8 -42.5t-8.5 -41t-6 -29.5h-10z" />
    <glyph glyph-name="guilsinglleft" unicode="&#x2039;" horiz-adv-x="296" 
d="M72 242l3 15l161 119l-4 -22l-144 -106l107 -107l-4 -18z" />
    <glyph glyph-name="guilsinglright" unicode="&#x203a;" horiz-adv-x="296" 
d="M223 256l-3 -15l-161 -119l4 22l144 106l-107 107l4 18z" />
    <glyph glyph-name="interrobang" unicode="&#x203d;" horiz-adv-x="521" 
d="M239 199l73 414l19 110q-7 1 -13 1.5t-13 0.5q-44 0 -81 -14t-66 -40l-12 10q31 29 72 44t89 15q41 0 78.5 -12.5t63.5 -36t38.5 -58t4.5 -78.5q-7 -39 -24.5 -64.5t-39.5 -45t-47.5 -38t-49.5 -45t-43.5 -65t-30.5 -98.5l-9 -55h-18zM476 559q6 34 -2 61.5t-25.5 48
t-44 34t-57.5 18.5l-18 -108q-7 -38 -15 -82t-16.5 -88t-16 -84t-13.5 -71q15 38 35 63.5t41 45t42 35.5t39 33.5t31.5 39.5t19.5 54zM219 -4q-11 0 -17.5 8t-4.5 19q2 9 9 15t17 6q13 0 18 -8.5t3 -19.5q-2 -8 -8.5 -14t-16.5 -6z" />
    <glyph glyph-name="fraction" unicode="&#x2044;" horiz-adv-x="650" 
d="M660 730h22l-655 -730h-22z" />
    <glyph glyph-name="uni2070" unicode="&#x2070;" horiz-adv-x="439" 
d="M232 302q-33 0 -61 10.5t-47 35t-25 65t5 100.5l3 18q10 57 29.5 96t44.5 63t54 35t60 11t59 -11t46.5 -35t25.5 -63t-4 -96l-4 -23q-12 -60 -31 -100t-43 -63.5t-52.5 -33t-59.5 -9.5zM232 318q28 0 54 8t48 29.5t39 58.5t28 94l4 23q10 54 5.5 90.5t-20.5 58.5
t-41 31.5t-54 9.5t-56 -9.5t-49.5 -32t-39.5 -58.5t-27 -90l-3 -18q-11 -59 -5.5 -97t22 -60t42 -30t53.5 -8z" />
    <glyph glyph-name="uni2074" unicode="&#x2074;" horiz-adv-x="392" 
d="M290 406h-224l-1 14l282 310h15l-55 -310h74l-2 -14h-74l-17 -98h-15zM292 420l51 284l-259 -284h208z" />
    <glyph glyph-name="uni2075" unicode="&#x2075;" horiz-adv-x="400" 
d="M206 302q-49 0 -81 21t-46 54l14 8q14 -30 41.5 -49t73.5 -19q26 0 51 8.5t45 24t34.5 37.5t19.5 49q5 25 0 49t-19 43t-36 30t-52 11q-45 0 -77 -18.5t-55 -53.5l-16 5l69 228h223l-2 -15h-211l-57 -186q22 26 54 40.5t75 14.5q33 0 57.5 -12.5t40 -33.5t21.5 -48t0 -55
q-5 -29 -20 -53.5t-37 -42t-50 -27.5t-60 -10z" />
    <glyph glyph-name="uni2076" unicode="&#x2076;" horiz-adv-x="404" 
d="M223 302q-34 0 -65 14.5t-48 42.5q-18 28 -22.5 60.5t4.5 84.5q20 114 84.5 172t159.5 58q33 0 58 -7l-4 -14q-12 3 -25 5t-29 2q-93 0 -151 -54t-78 -157q19 39 55 61t79 22q36 0 63 -14t44.5 -37.5t24 -53t1.5 -60.5q-12 -57 -54 -91t-97 -34zM223 317q51 0 88.5 31
t46.5 82q5 28 -1 54.5t-21.5 47t-40 33t-55.5 12.5q-24 0 -46.5 -8.5t-41 -23.5t-31.5 -35.5t-17 -45.5q-5 -24 0 -49.5t20 -47.5t39.5 -36t59.5 -14z" />
    <glyph glyph-name="uni2077" unicode="&#x2077;" horiz-adv-x="373" 
d="M375 716h-250l3 14h267l-3 -14l-247 -408h-18z" />
    <glyph glyph-name="uni2078" unicode="&#x2078;" horiz-adv-x="385" 
d="M202 302q-36 0 -62.5 10.5t-43 28.5t-23 40.5t-1.5 46.5q8 46 43.5 72.5t83.5 34.5q-16 4 -31 13t-25.5 22t-15.5 30.5t-1 38.5q3 20 14.5 38t29.5 31t41.5 20.5t50.5 7.5q29 0 52 -9.5t38.5 -25t22 -35.5t2.5 -41q-6 -37 -36.5 -61.5t-71.5 -30.5q43 -9 71 -40.5
t20 -80.5q-4 -21 -15.5 -41t-31 -35.5t-47 -24.5t-64.5 -9zM204 317q33 0 57.5 8t41.5 21.5t27 30.5t13 36q4 25 -2.5 46t-22 36t-37.5 23.5t-48 8.5q-30 0 -55 -8.5t-44 -22t-30.5 -32t-15.5 -37.5q-3 -21 2.5 -41t20 -35t38 -24.5t55.5 -9.5zM234 542q53 0 88 25t40 59
q7 38 -20 66.5t-82 28.5q-48 0 -80.5 -24t-39.5 -59q-4 -21 2.5 -38.5t20 -30t32.5 -20t39 -7.5z" />
    <glyph glyph-name="uni2079" unicode="&#x2079;" horiz-adv-x="387" 
d="M180 302q-28 0 -50 7t-35 15l12 15q14 -11 31.5 -16.5t44.5 -5.5q41 0 71.5 15.5t52.5 44t36.5 68t22.5 88.5q-17 -33 -51 -54.5t-73 -21.5q-32 0 -58.5 12.5t-43.5 34t-24.5 50t-1.5 60.5q10 55 51 88.5t94 33.5q35 0 62 -15t45 -41q10 -14 15 -29t6.5 -32t-1 -38
t-6.5 -48q-8 -53 -23.5 -95.5t-40 -72.5t-58 -46.5t-78.5 -16.5zM242 472q24 0 46 8t39 22.5t29 34.5t16 43q4 28 -2 54t-21 45t-38 30.5t-52 11.5q-48 0 -85 -31t-46 -79q-5 -27 1 -52t21 -44.5t38.5 -31t53.5 -11.5z" />
    <glyph glyph-name="uni207A" unicode="&#x207a;" horiz-adv-x="311" 
d="M88 526h100l18 99h14l-17 -99h99l-3 -14h-99l-17 -100h-15l18 100h-100z" />
    <glyph glyph-name="uni207B" unicode="&#x207b;" horiz-adv-x="311" 
d="M88 526h214l-3 -14h-213z" />
    <glyph glyph-name="uni207C" unicode="&#x207c;" horiz-adv-x="311" 
d="M97 571h213l-2 -14h-214zM80 479h214l-3 -14h-214z" />
    <glyph glyph-name="uni207D" unicode="&#x207d;" horiz-adv-x="332" 
d="M247 194q-33 21 -61 56.5t-46 81t-24.5 99t4.5 111.5q10 59 35.5 109t58.5 88.5t69.5 65.5t69.5 41l7 -13q-33 -13 -68.5 -40t-67 -64.5t-55.5 -85t-34 -102.5q-10 -56 -4 -107.5t23 -95t43.5 -77.5t58.5 -55z" />
    <glyph glyph-name="uni207E" unicode="&#x207e;" horiz-adv-x="332" 
d="M168 846q33 -21 61.5 -56.5t48 -81.5t26 -99.5t-3.5 -111.5q-11 -60 -34.5 -110t-55.5 -88.5t-69 -65.5t-73 -42l-7 13q35 14 71 41t66.5 64.5t53.5 85t33 103.5t3.5 107.5t-25 95t-46 78t-58.5 55.5z" />
    <glyph glyph-name="uni2080" unicode="&#x2080;" horiz-adv-x="439" 
d="M179 -6q-33 0 -61 10.5t-47 35t-25 65t5 100.5l3 18q10 57 29.5 96t44.5 63t54 35t60 11t59 -11t46.5 -35t25.5 -63t-4 -96l-4 -23q-12 -60 -31 -100t-43 -63.5t-52.5 -33t-59.5 -9.5zM179 10q28 0 54 8t48 29.5t39 58.5t28 94l4 23q10 54 5.5 90.5t-20.5 58.5t-41 31.5
t-54 9.5t-56 -9.5t-49.5 -32t-39.5 -58.5t-27 -90l-3 -18q-11 -59 -5.5 -97t22 -60t42 -30t53.5 -8z" />
    <glyph glyph-name="uni2081" unicode="&#x2081;" horiz-adv-x="206" 
d="M64 0l66 372q-10 -20 -31.5 -36.5t-59.5 -16.5h-6l3 16h3q30 0 48.5 9.5t30 23t16.5 28.5t7 26h15l-76 -422h-16z" />
    <glyph glyph-name="uni2082" unicode="&#x2082;" horiz-adv-x="399" 
d="M20 19q10 54 51.5 91t105.5 74q24 13 48 26.5t44 29t34.5 34t18.5 41.5q3 20 -2.5 38t-19 31.5t-34 21.5t-47.5 8q-34 0 -65 -15.5t-49 -39.5l-13 10q20 26 54.5 42.5t74.5 16.5q29 0 52.5 -9.5t39.5 -25t22.5 -36.5t2.5 -44q-5 -26 -19.5 -46t-35.5 -36.5t-46.5 -31
t-50.5 -28.5q-62 -36 -101.5 -70t-47.5 -83l-1 -4h251l-2 -14h-267z" />
    <glyph glyph-name="uni2083" unicode="&#x2083;" horiz-adv-x="356" 
d="M127 -6q-42 0 -73.5 15.5t-48.5 38.5l14 11q13 -21 42 -35.5t67 -14.5q51 0 86 25t43 70q4 24 -2.5 44t-21 34.5t-35 22.5t-44.5 8h-35l3 14h36q47 0 81.5 23t42.5 65q8 45 -21 72t-77 27q-34 0 -61.5 -11.5t-45.5 -28.5l-11 11q20 17 51 30t68 13q57 0 88.5 -32.5
t23.5 -82.5q-7 -36 -32.5 -61t-67.5 -33q38 -12 60.5 -43.5t14.5 -74.5q-9 -52 -47.5 -79.5t-97.5 -27.5z" />
    <glyph glyph-name="uni2084" unicode="&#x2084;" horiz-adv-x="392" 
d="M237 98h-224l-1 14l282 310h15l-55 -310h74l-2 -14h-74l-17 -98h-15zM239 112l51 284l-259 -284h208z" />
    <glyph glyph-name="uni2085" unicode="&#x2085;" horiz-adv-x="400" 
d="M153 -6q-49 0 -81 21t-46 54l14 8q14 -30 41.5 -49t73.5 -19q26 0 51 8.5t45 24t34.5 37.5t19.5 49q5 25 0 49t-19 43t-36 30t-52 11q-45 0 -77 -18.5t-55 -53.5l-16 5l69 228h223l-2 -15h-211l-57 -186q22 26 54 40.5t75 14.5q33 0 57.5 -12.5t40 -33.5t21.5 -48t0 -55
q-5 -29 -20 -53.5t-37 -42t-50 -27.5t-60 -10z" />
    <glyph glyph-name="uni2086" unicode="&#x2086;" horiz-adv-x="404" 
d="M170 -6q-34 0 -65 14.5t-48 42.5q-18 28 -22.5 60.5t4.5 84.5q20 114 84.5 172t159.5 58q33 0 58 -7l-4 -14q-12 3 -25 5t-29 2q-93 0 -151 -54t-78 -157q19 39 55 61t79 22q36 0 63 -14t44.5 -37.5t24 -53t1.5 -60.5q-12 -57 -54 -91t-97 -34zM170 9q51 0 88.5 31
t46.5 82q5 28 -1 54.5t-21.5 47t-40 33t-55.5 12.5q-24 0 -46.5 -8.5t-41 -23.5t-31.5 -35.5t-17 -45.5q-5 -24 0 -49.5t20 -47.5t39.5 -36t59.5 -14z" />
    <glyph glyph-name="uni2087" unicode="&#x2087;" horiz-adv-x="373" 
d="M322 408h-250l3 14h267l-3 -14l-247 -408h-18z" />
    <glyph glyph-name="uni2088" unicode="&#x2088;" horiz-adv-x="385" 
d="M149 -6q-36 0 -62.5 10.5t-43 28.5t-23 40.5t-1.5 46.5q8 46 43.5 72.5t83.5 34.5q-16 4 -31 13t-25.5 22t-15.5 30.5t-1 38.5q3 20 14.5 38t29.5 31t41.5 20.5t50.5 7.5q29 0 52 -9.5t38.5 -25t22 -35.5t2.5 -41q-6 -37 -36.5 -61.5t-71.5 -30.5q43 -9 71 -40.5
t20 -80.5q-4 -21 -15.5 -41t-31 -35.5t-47 -24.5t-64.5 -9zM151 9q33 0 57.5 8t41.5 21.5t27 30.5t13 36q4 25 -2.5 46t-22 36t-37.5 23.5t-48 8.5q-30 0 -55 -8.5t-44 -22t-30.5 -32t-15.5 -37.5q-3 -21 2.5 -41t20 -35t38 -24.5t55.5 -9.5zM181 234q53 0 88 25t40 59
q7 38 -20 66.5t-82 28.5q-48 0 -80.5 -24t-39.5 -59q-4 -21 2.5 -38.5t20 -30t32.5 -20t39 -7.5z" />
    <glyph glyph-name="uni2089" unicode="&#x2089;" horiz-adv-x="387" 
d="M127 -6q-28 0 -50 7t-35 15l12 15q14 -11 31.5 -16.5t44.5 -5.5q41 0 71.5 15.5t52.5 44t36.5 68t22.5 88.5q-17 -33 -51 -54.5t-73 -21.5q-32 0 -58.5 12.5t-43.5 34t-24.5 50t-1.5 60.5q10 55 51 88.5t94 33.5q35 0 62 -15t45 -41q10 -14 15 -29t6.5 -32t-1 -38
t-6.5 -48q-8 -53 -23.5 -95.5t-40 -72.5t-58 -46.5t-78.5 -16.5zM189 164q24 0 46 8t39 22.5t29 34.5t16 43q4 28 -2 54t-21 45t-38 30.5t-52 11.5q-48 0 -85 -31t-46 -79q-5 -27 1 -52t21 -44.5t38.5 -31t53.5 -11.5z" />
    <glyph glyph-name="uni208A" unicode="&#x208a;" horiz-adv-x="311" 
d="M35 218h100l18 99h14l-17 -99h99l-3 -14h-99l-17 -100h-15l18 100h-100z" />
    <glyph glyph-name="uni208B" unicode="&#x208b;" horiz-adv-x="311" 
d="M35 218h214l-3 -14h-213z" />
    <glyph glyph-name="uni208C" unicode="&#x208c;" horiz-adv-x="311" 
d="M44 263h213l-2 -14h-214zM27 171h214l-3 -14h-214z" />
    <glyph glyph-name="uni208D" unicode="&#x208d;" horiz-adv-x="332" 
d="M194 -114q-33 21 -61 56.5t-46 81t-24.5 99t4.5 111.5q10 59 35.5 109t58.5 88.5t69.5 65.5t69.5 41l7 -13q-33 -13 -68.5 -40t-67 -64.5t-55.5 -85t-34 -102.5q-10 -56 -4 -107.5t23 -95t43.5 -77.5t58.5 -55z" />
    <glyph glyph-name="uni208E" unicode="&#x208e;" horiz-adv-x="332" 
d="M115 538q33 -21 61.5 -56.5t48 -81.5t26 -99.5t-3.5 -111.5q-11 -60 -34.5 -110t-55.5 -88.5t-69 -65.5t-73 -42l-7 13q35 14 71 41t66.5 64.5t53.5 85t33 103.5t3.5 107.5t-25 95t-46 78t-58.5 55.5z" />
    <glyph glyph-name="uni20A1" unicode="&#x20a1;" horiz-adv-x="855" 
d="M215 67q-69 57 -98.5 147t-10.5 196q13 73 51 134t92.5 104.5t120.5 67.5t136 24q17 0 33.5 -1.5t33.5 -3.5l56 105h17l-58 -108q68 -12 117 -44l81 152h17l-86 -160q57 -42 91 -105l-15 -8q-16 30 -36.5 55t-46.5 44l-350 -653q19 -5 38.5 -6.5t40.5 -1.5q45 0 89 10.5
t84.5 30.5t75 49t60.5 65l14 -9q-27 -39 -63 -69t-78 -50.5t-88.5 -31t-94.5 -10.5q-46 0 -85 9l-64 -119h-17l66 123q-32 8 -59.5 22t-51.5 32l-95 -177h-17zM122 406q-8 -47 -5.5 -93t15.5 -88t36 -79t55 -65l342 640q-14 2 -29 3t-31 1q-67 0 -130.5 -23.5t-115.5 -66
t-88.5 -101t-48.5 -128.5zM234 71q24 -18 51.5 -32.5t59.5 -22.5l352 658q-50 33 -116 45z" />
    <glyph glyph-name="uni20A2" unicode="&#x20a2;" horiz-adv-x="855" 
d="M438 -10q-87 0 -155.5 33.5t-112.5 90.5t-61.5 133.5t-2.5 162.5q13 73 51 134t92.5 104.5t120.5 67.5t136 24q106 0 182.5 -42t119.5 -123l-15 -8q-38 75 -109.5 116.5t-178.5 41.5q-67 0 -130.5 -23.5t-115.5 -66t-88.5 -101t-48.5 -128.5q-13 -72 -0.5 -140t48 -123
t92.5 -91t134 -45l50 264q8 45 -4.5 68.5t-49.5 23.5h-13l2 13h14q36 0 56.5 -26t9.5 -83l-5 -22q29 60 83 95.5t123 35.5h67l-3 -16h-65q-43 0 -79.5 -15t-65 -40.5t-47.5 -60.5t-26 -74l-32 -164q7 -1 13.5 -1h14.5q45 0 89 10.5t84.5 30.5t75 49t60.5 65l14 -9
q-27 -39 -63 -69t-78 -50.5t-88.5 -31t-94.5 -10.5z" />
    <glyph glyph-name="franc" unicode="&#x20a3;" horiz-adv-x="593" 
d="M172 730h413l-3 -15h-396l-49 -279h396l-3 -15h-396l-22 -127h397l-3 -15h-396l-49 -279h-17z" />
    <glyph glyph-name="lira" unicode="&#x20a4;" horiz-adv-x="766" 
d="M143 435h84q-11 30 -15 62t3 69q7 39 26 71t48 55t67.5 35.5t83.5 12.5q62 0 111 -23t83 -68l-13 -9q-32 44 -78 64.5t-103 20.5q-42 0 -77.5 -12t-62.5 -33.5t-45 -51.5t-24 -65t-2 -67t15 -61h279l-3 -15h-271q9 -23 19 -44t21 -42h212l-3 -15h-202q18 -41 29.5 -83.5
t3.5 -90.5q-6 -32 -19 -57q39 -32 83 -57.5t100 -25.5q35 0 62 9t47 29.5t34 54.5t23 84l2 14h17l-3 -16q-9 -53 -24.5 -89t-37.5 -58.5t-52 -32.5t-69 -10q-30 0 -56 7t-49 19t-44 27t-41 31q-22 -37 -60.5 -61t-94.5 -24q-21 0 -42.5 6t-37 19t-24 32.5t-3.5 45.5
q6 34 33.5 55t72.5 22q22 0 41.5 -5.5t38 -15.5t36.5 -23.5t36 -27.5q10 24 15 48q8 49 -3 91t-30 83h-162l3 15h151q-10 21 -20.5 42t-18.5 44h-93zM147 3q52 0 87.5 23.5t55.5 57.5q-35 28 -69 49t-76 21q-38 0 -61 -18.5t-28 -45.5q-4 -21 2.5 -37t19.5 -27.5t31 -17
t38 -5.5z" />
    <glyph glyph-name="uni20A6" unicode="&#x20a6;" horiz-adv-x="795" 
d="M70 435h80l52 295h18l166 -295h300l53 295h16l-52 -295h81l-3 -15h-81l-15 -86h81l-3 -15h-80l-56 -319h-15l-180 319h-285l-56 -319h-17l56 319h-80l3 15h79l15 86h-80zM615 28l51 291h-215zM167 435h200l-152 269zM443 334h226l15 86h-290zM149 334h275l-49 86h-211z
" />
    <glyph glyph-name="peseta" unicode="&#x20a7;" horiz-adv-x="1336" 
d="M1043 14q40 0 69 9.5t48 25t29.5 35t13.5 39.5q4 28 -7.5 48t-33 35t-50.5 26.5t-60 22.5q-32 11 -62.5 23.5t-53 29.5t-34.5 39.5t-6 54.5q9 51 56.5 80.5t115.5 27.5q58 0 108 -19.5t79 -47.5l-11 -11q-29 28 -75 46t-103 18q-61 0 -103.5 -25t-50.5 -71
q-5 -29 6 -49.5t32 -35.5t50 -26t61 -22q31 -11 61.5 -23t53.5 -28.5t35.5 -39.5t6.5 -56q-4 -25 -16 -46.5t-33.5 -38t-53 -26t-73.5 -9.5h-231q-95 0 -135.5 42t-23.5 139l54 306h-103q0 -5 -0.5 -9.5t-1.5 -9.5q-8 -49 -32 -89.5t-61.5 -70t-87 -45.5t-108.5 -16h-208
l-43 -247h-17l128 730h185q55 0 101.5 -16.5t79.5 -47t51 -73t15 -93.5h105l21 120l17 9l-23 -129h139l-3 -13h-138l-54 -309q-8 -47 -2.5 -78.5t24 -50.5t50 -27t75.5 -8h228zM186 715l-79 -453h205q55 0 101.5 15.5t82 43.5t58 66.5t30.5 83.5q9 52 -4.5 97t-44.5 77.5
t-77 51t-103 18.5h-169z" />
    <glyph glyph-name="uni20A8" unicode="&#x20a8;" horiz-adv-x="1097" 
d="M172 730h202q48 0 90 -18.5t71 -51.5t43 -77.5t5 -95.5q-7 -42 -27.5 -78t-51 -62.5t-69.5 -41.5t-83 -15h-50q5 -28 16 -59.5t33 -63t55 -61t81.5 -52t113 -36t148.5 -13.5q95 0 149.5 28.5t65.5 87.5q5 28 -7 47.5t-34 34.5t-51.5 26t-59.5 23q-33 12 -63 25
t-52.5 30.5t-34 40t-5.5 54.5q9 51 56.5 80.5t115.5 27.5q58 0 108 -19.5t79 -47.5l-11 -11q-29 28 -75 46t-103 18q-61 0 -103.5 -25t-50.5 -71q-5 -29 6 -49t32.5 -35t51 -27t60.5 -24t61.5 -24.5t53.5 -29t35 -39t6 -54.5q-11 -63 -69.5 -95.5t-161.5 -32.5
q-89 0 -157 15t-118.5 40t-85 57.5t-56.5 67.5t-32.5 70.5t-13.5 65.5h68q40 0 75.5 14t64 39t48 58.5t26.5 71.5q8 46 -4 87t-39 71.5t-66 48.5t-86 19h-186l-125 -715h-17z" />
    <glyph glyph-name="uni20A9" unicode="&#x20a9;" horiz-adv-x="1146" 
d="M70 435h130l-37 295h17l36 -295h268l155 295h14l54 -295h270l141 295h18l-140 -295h135l-3 -15h-139l-41 -86h165l-3 -15h-169l-152 -319h-18l-59 319h-271l-168 -319h-19l-40 319h-164l3 15h159l-10 86h-135zM783 25l139 294h-193zM268 25l154 294h-191zM502 435h189
l-49 265zM726 334h203l41 86h-260zM449 334h261l-16 86h-200zM229 334h201l46 86h-258z" />
    <glyph glyph-name="uni20AA" unicode="&#x20aa;" horiz-adv-x="610" 
d="M282 582q10 0 13 -5.5t1 -11.5l-96 -549h115q42 0 71.5 11.5t49.5 31.5t31.5 47t17.5 58l97 566h17l-97 -566q-6 -35 -19 -65t-35.5 -52t-55.5 -34.5t-79 -12.5h-133zM171 730h134q39 0 66.5 -12.5t43.5 -34.5t20.5 -52t-1.5 -65l-70 -402q-3 -15 -20 -15l73 417
q6 31 2 58t-17.5 47t-38 31.5t-59.5 11.5h-119l-125 -714h-17z" />
    <glyph glyph-name="Euro" unicode="&#x20ac;" horiz-adv-x="900" 
d="M184 455q-8 -25 -12 -49q-5 -32 -6.5 -63.5t3.5 -61.5q1 -10 3 -19l4 -18h399l-7 -16h-388q14 -48 41 -89t66 -70.5t90 -46.5t112 -17q45 0 89 10.5t84.5 30.5t75 49t60.5 65l14 -8q-27 -39 -63 -69t-78 -50.5t-88.5 -31.5t-94.5 -11q-62 0 -115 17.5t-95 49t-71.5 75
t-44.5 96.5h-124l3 16h117q-5 18 -6 37q-8 63 4 129q2 12 4.5 23t6.5 22q4 14 11 31h-94l3 16h98q25 54 66 98t91 75t107 48t115 17q106 0 181.5 -41t118.5 -124l-15 -8q-38 77 -108.5 117.5t-177.5 40.5q-55 0 -109 -16t-101 -45.5t-86 -70.5t-64 -91h488l-7 -16h-489
q-7 -17 -11 -31z" />
    <glyph glyph-name="uni20AE" unicode="&#x20ae;" horiz-adv-x="643" 
d="M508 498l-148 -57l-19 -108l148 57l-3 -18l-148 -57l-55 -315h-17l54 308l-145 -55l3 18l145 55l19 108l-145 -55l3 18l145 55l46 263h-269l2 15h557l-2 -15h-271l-45 -256l148 57z" />
    <glyph glyph-name="uni20B1" unicode="&#x20b1;" horiz-adv-x="710" 
d="M90 548h79l33 182h185q48 0 89.5 -13t74 -37t53.5 -57.5t28 -74.5h86l-3 -15h-81q3 -32 -3 -65q-1 -5 -2 -10.5t-3 -10.5h74l-3 -15h-75q-13 -42 -38 -76t-61 -58t-81.5 -37.5t-99.5 -13.5h-208l-43 -247h-17l75 432h-79l3 15h79l15 86h-80zM342 262q49 0 91 12.5t76 35
t58 53.5t37 69h-437l-30 -170h205zM216 715l-29 -167h427q-7 37 -26.5 68t-49.5 53t-69 34t-84 12h-169zM614 471q5 34 2 62h-432l-15 -86h439z" />
    <glyph glyph-name="published" unicode="&#x2117;" horiz-adv-x="909" 
d="M427 -133q-87 0 -157.5 33.5t-117 90.5t-66 133.5t-4.5 162.5q13 73 49.5 134t89 104.5t116.5 67.5t133 24q85 0 155 -34t116.5 -92.5t66 -135.5t4.5 -163q-13 -74 -49.5 -133.5t-88 -102.5t-115.5 -66t-132 -23zM428 -118q65 0 126 23t110.5 64.5t84.5 99t47 126.5
q13 73 -2.5 146t-58 131t-110 94t-156.5 36q-66 0 -127.5 -23.5t-111.5 -66t-85 -101t-47 -128.5q-14 -77 3.5 -149t61 -128t111 -90t154.5 -34zM372 419h106q28 0 53 -10t42.5 -27.5t25.5 -42t3 -54.5q-8 -51 -47.5 -82.5t-100.5 -31.5h-110l-22 -126h-16zM385 404
l-39 -218h109q54 0 88.5 28t42.5 73q4 25 -2.5 46.5t-21 37t-37 24.5t-49.5 9h-91z" />
    <glyph glyph-name="servicemark" unicode="&#x2120;" horiz-adv-x="731" 
d="M395 730h13l112 -183l181 183h14l-53 -290h-16l48 260l-178 -180l-111 183l-46 -263h-15zM193 437q-32 0 -54 15t-35 34l14 10q10 -17 28.5 -30.5t47.5 -13.5t49 15t25 40q5 32 -15 49.5t-46 31.5q-14 7 -26.5 15t-22 18.5t-14 24t-1.5 32.5q5 25 26.5 41.5t54.5 16.5
q26 0 47 -10.5t34 -31.5l-14 -9q-23 36 -67 36q-27 0 -44.5 -12t-21.5 -33q-5 -31 14 -47t45 -30q14 -8 27 -16t23 -19t14.5 -25.5t1.5 -34.5q-5 -32 -30 -49.5t-60 -17.5z" />
    <glyph glyph-name="trademark" unicode="&#x2122;" horiz-adv-x="731" 
d="M395 730h13l112 -183l181 183h14l-53 -290h-16l48 260l-178 -180l-111 183l-46 -263h-15zM235 716h-111l2 14h239l-2 -14h-112l-49 -276h-16z" />
    <glyph glyph-name="uni2153" unicode="&#x2153;" horiz-adv-x="792" 
d="M563 -6q-42 0 -73.5 15.5t-48.5 38.5l14 11q13 -21 42 -35.5t67 -14.5q51 0 86 25t43 70q4 24 -2.5 44t-21 34.5t-35 22.5t-44.5 8h-35l3 14h36q47 0 81.5 23t42.5 65q8 45 -21 72t-77 27q-34 0 -61.5 -11.5t-45.5 -28.5l-11 11q20 17 51 30t68 13q57 0 88.5 -32.5
t23.5 -82.5q-7 -36 -32.5 -61t-67.5 -33q38 -12 60.5 -43.5t14.5 -74.5q-9 -52 -47.5 -79.5t-97.5 -27.5zM660 730h22l-655 -730h-22zM140 308l66 372q-10 -20 -31.5 -36.5t-59.5 -16.5h-6l3 16h3q30 0 48.5 9.5t30 23t16.5 28.5t7 26h15l-76 -422h-16z" />
    <glyph glyph-name="uni2154" unicode="&#x2154;" horiz-adv-x="956" 
d="M727 -6q-42 0 -73.5 15.5t-48.5 38.5l14 11q13 -21 42 -35.5t67 -14.5q51 0 86 25t43 70q4 24 -2.5 44t-21 34.5t-35 22.5t-44.5 8h-35l3 14h36q47 0 81.5 23t42.5 65q8 45 -21 72t-77 27q-34 0 -61.5 -11.5t-45.5 -28.5l-11 11q20 17 51 30t68 13q57 0 88.5 -32.5
t23.5 -82.5q-7 -36 -32.5 -61t-67.5 -33q38 -12 60.5 -43.5t14.5 -74.5q-9 -52 -47.5 -79.5t-97.5 -27.5zM824 730h22l-655 -730h-22zM73 327q10 54 51.5 91t105.5 74q24 13 48 26.5t44 29t34.5 34t18.5 41.5q3 20 -2.5 38t-19 31.5t-34 21.5t-47.5 8q-34 0 -65 -15.5
t-49 -39.5l-13 10q20 26 54.5 42.5t74.5 16.5q29 0 52.5 -9.5t39.5 -25t22.5 -36.5t2.5 -44q-5 -26 -19.5 -46t-35.5 -36.5t-46.5 -31t-50.5 -28.5q-62 -36 -101.5 -70t-47.5 -83l-1 -4h251l-2 -14h-267z" />
    <glyph glyph-name="uni2155" unicode="&#x2155;" horiz-adv-x="803" 
d="M556 -6q-49 0 -81 21t-46 54l14 8q14 -30 41.5 -49t73.5 -19q26 0 51 8.5t45 24t34.5 37.5t19.5 49q5 25 0 49t-19 43t-36 30t-52 11q-45 0 -77 -18.5t-55 -53.5l-16 5l69 228h223l-2 -15h-211l-57 -186q22 26 54 40.5t75 14.5q33 0 57.5 -12.5t40 -33.5t21.5 -48t0 -55
q-5 -29 -20 -53.5t-37 -42t-50 -27.5t-60 -10zM660 730h22l-655 -730h-22zM140 308l66 372q-10 -20 -31.5 -36.5t-59.5 -16.5h-6l3 16h3q30 0 48.5 9.5t30 23t16.5 28.5t7 26h15l-76 -422h-16z" />
    <glyph glyph-name="uni2156" unicode="&#x2156;" horiz-adv-x="967" 
d="M73 327q10 54 51.5 91t105.5 74q24 13 48 26.5t44 29t34.5 34t18.5 41.5q3 20 -2.5 38t-19 31.5t-34 21.5t-47.5 8q-34 0 -65 -15.5t-49 -39.5l-13 10q20 26 54.5 42.5t74.5 16.5q29 0 52.5 -9.5t39.5 -25t22.5 -36.5t2.5 -44q-5 -26 -19.5 -46t-35.5 -36.5t-46.5 -31
t-50.5 -28.5q-62 -36 -101.5 -70t-47.5 -83l-1 -4h251l-2 -14h-267zM720 -6q-49 0 -81 21t-46 54l14 8q14 -30 41.5 -49t73.5 -19q26 0 51 8.5t45 24t34.5 37.5t19.5 49q5 25 0 49t-19 43t-36 30t-52 11q-45 0 -77 -18.5t-55 -53.5l-16 5l69 228h223l-2 -15h-211l-57 -186
q22 26 54 40.5t75 14.5q33 0 57.5 -12.5t40 -33.5t21.5 -48t0 -55q-5 -29 -20 -53.5t-37 -42t-50 -27.5t-60 -10zM824 730h22l-655 -730h-22z" />
    <glyph glyph-name="uni2157" unicode="&#x2157;" horiz-adv-x="917" 
d="M179 302q-42 0 -73.5 15.5t-48.5 38.5l14 11q13 -21 42 -35.5t67 -14.5q51 0 86 25t43 70q4 24 -2.5 44t-21 34.5t-35 22.5t-44.5 8h-35l3 14h36q47 0 81.5 23t42.5 65q8 45 -21 72t-77 27q-34 0 -61.5 -11.5t-45.5 -28.5l-11 11q20 17 51 30t68 13q57 0 88.5 -32.5
t23.5 -82.5q-7 -36 -32.5 -61t-67.5 -33q38 -12 60.5 -43.5t14.5 -74.5q-9 -52 -47.5 -79.5t-97.5 -27.5zM670 -6q-49 0 -81 21t-46 54l14 8q14 -30 41.5 -49t73.5 -19q26 0 51 8.5t45 24t34.5 37.5t19.5 49q5 25 0 49t-19 43t-36 30t-52 11q-45 0 -77 -18.5t-55 -53.5
l-16 5l69 228h223l-2 -15h-211l-57 -186q22 26 54 40.5t75 14.5q33 0 57.5 -12.5t40 -33.5t21.5 -48t0 -55q-5 -29 -20 -53.5t-37 -42t-50 -27.5t-60 -10zM774 730h22l-655 -730h-22z" />
    <glyph glyph-name="uni2158" unicode="&#x2158;" horiz-adv-x="938" 
d="M288 406h-224l-1 14l282 310h15l-55 -310h74l-2 -14h-74l-17 -98h-15zM290 420l51 284l-259 -284h208zM691 -6q-49 0 -81 21t-46 54l14 8q14 -30 41.5 -49t73.5 -19q26 0 51 8.5t45 24t34.5 37.5t19.5 49q5 25 0 49t-19 43t-36 30t-52 11q-45 0 -77 -18.5t-55 -53.5
l-16 5l69 228h223l-2 -15h-211l-57 -186q22 26 54 40.5t75 14.5q33 0 57.5 -12.5t40 -33.5t21.5 -48t0 -55q-5 -29 -20 -53.5t-37 -42t-50 -27.5t-60 -10zM795 730h22l-655 -730h-22z" />
    <glyph glyph-name="uni2159" unicode="&#x2159;" horiz-adv-x="784" 
d="M550 -6q-34 0 -65 14.5t-48 42.5q-18 28 -22.5 60.5t4.5 84.5q20 114 84.5 172t159.5 58q33 0 58 -7l-4 -14q-12 3 -25 5t-29 2q-93 0 -151 -54t-78 -157q19 39 55 61t79 22q36 0 63 -14t44.5 -37.5t24 -53t1.5 -60.5q-12 -57 -54 -91t-97 -34zM550 9q51 0 88.5 31
t46.5 82q5 28 -1 54.5t-21.5 47t-40 33t-55.5 12.5q-24 0 -46.5 -8.5t-41 -23.5t-31.5 -35.5t-17 -45.5q-5 -24 0 -49.5t20 -47.5t39.5 -36t59.5 -14zM660 730h22l-655 -730h-22zM140 308l66 372q-10 -20 -31.5 -36.5t-59.5 -16.5h-6l3 16h3q30 0 48.5 9.5t30 23t16.5 28.5
t7 26h15l-76 -422h-16z" />
    <glyph glyph-name="uni215A" unicode="&#x215a;" horiz-adv-x="931" 
d="M206 302q-49 0 -81 21t-46 54l14 8q14 -30 41.5 -49t73.5 -19q26 0 51 8.5t45 24t34.5 37.5t19.5 49q5 25 0 49t-19 43t-36 30t-52 11q-45 0 -77 -18.5t-55 -53.5l-16 5l69 228h223l-2 -15h-211l-57 -186q22 26 54 40.5t75 14.5q33 0 57.5 -12.5t40 -33.5t21.5 -48t0 -55
q-5 -29 -20 -53.5t-37 -42t-50 -27.5t-60 -10zM697 -6q-34 0 -65 14.5t-48 42.5q-18 28 -22.5 60.5t4.5 84.5q20 114 84.5 172t159.5 58q33 0 58 -7l-4 -14q-12 3 -25 5t-29 2q-93 0 -151 -54t-78 -157q19 39 55 61t79 22q36 0 63 -14t44.5 -37.5t24 -53t1.5 -60.5
q-12 -57 -54 -91t-97 -34zM697 9q51 0 88.5 31t46.5 82q5 28 -1 54.5t-21.5 47t-40 33t-55.5 12.5q-24 0 -46.5 -8.5t-41 -23.5t-31.5 -35.5t-17 -45.5q-5 -24 0 -49.5t20 -47.5t39.5 -36t59.5 -14zM807 730h22l-655 -730h-22z" />
    <glyph glyph-name="uni215B" unicode="&#x215b;" horiz-adv-x="796" 
d="M560 -6q-36 0 -62.5 10.5t-43 28.5t-23 40.5t-1.5 46.5q8 46 43.5 72.5t83.5 34.5q-16 4 -31 13t-25.5 22t-15.5 30.5t-1 38.5q3 20 14.5 38t29.5 31t41.5 20.5t50.5 7.5q29 0 52 -9.5t38.5 -25t22 -35.5t2.5 -41q-6 -37 -36.5 -61.5t-71.5 -30.5q43 -9 71 -40.5
t20 -80.5q-4 -21 -15.5 -41t-31 -35.5t-47 -24.5t-64.5 -9zM562 9q33 0 57.5 8t41.5 21.5t27 30.5t13 36q4 25 -2.5 46t-22 36t-37.5 23.5t-48 8.5q-30 0 -55 -8.5t-44 -22t-30.5 -32t-15.5 -37.5q-3 -21 2.5 -41t20 -35t38 -24.5t55.5 -9.5zM592 234q53 0 88 25t40 59
q7 38 -20 66.5t-82 28.5q-48 0 -80.5 -24t-39.5 -59q-4 -21 2.5 -38.5t20 -30t32.5 -20t39 -7.5zM660 730h22l-655 -730h-22zM140 308l66 372q-10 -20 -31.5 -36.5t-59.5 -16.5h-6l3 16h3q30 0 48.5 9.5t30 23t16.5 28.5t7 26h15l-76 -422h-16z" />
    <glyph glyph-name="uni215C" unicode="&#x215c;" horiz-adv-x="910" 
d="M179 302q-42 0 -73.5 15.5t-48.5 38.5l14 11q13 -21 42 -35.5t67 -14.5q51 0 86 25t43 70q4 24 -2.5 44t-21 34.5t-35 22.5t-44.5 8h-35l3 14h36q47 0 81.5 23t42.5 65q8 45 -21 72t-77 27q-34 0 -61.5 -11.5t-45.5 -28.5l-11 11q20 17 51 30t68 13q57 0 88.5 -32.5
t23.5 -82.5q-7 -36 -32.5 -61t-67.5 -33q38 -12 60.5 -43.5t14.5 -74.5q-9 -52 -47.5 -79.5t-97.5 -27.5zM674 -6q-36 0 -62.5 10.5t-43 28.5t-23 40.5t-1.5 46.5q8 46 43.5 72.5t83.5 34.5q-16 4 -31 13t-25.5 22t-15.5 30.5t-1 38.5q3 20 14.5 38t29.5 31t41.5 20.5
t50.5 7.5q29 0 52 -9.5t38.5 -25t22 -35.5t2.5 -41q-6 -37 -36.5 -61.5t-71.5 -30.5q43 -9 71 -40.5t20 -80.5q-4 -21 -15.5 -41t-31 -35.5t-47 -24.5t-64.5 -9zM676 9q33 0 57.5 8t41.5 21.5t27 30.5t13 36q4 25 -2.5 46t-22 36t-37.5 23.5t-48 8.5q-30 0 -55 -8.5t-44 -22
t-30.5 -32t-15.5 -37.5q-3 -21 2.5 -41t20 -35t38 -24.5t55.5 -9.5zM706 234q53 0 88 25t40 59q7 38 -20 66.5t-82 28.5q-48 0 -80.5 -24t-39.5 -59q-4 -21 2.5 -38.5t20 -30t32.5 -20t39 -7.5zM774 730h22l-655 -730h-22z" />
    <glyph glyph-name="uni215D" unicode="&#x215d;" horiz-adv-x="943" 
d="M206 302q-49 0 -81 21t-46 54l14 8q14 -30 41.5 -49t73.5 -19q26 0 51 8.5t45 24t34.5 37.5t19.5 49q5 25 0 49t-19 43t-36 30t-52 11q-45 0 -77 -18.5t-55 -53.5l-16 5l69 228h223l-2 -15h-211l-57 -186q22 26 54 40.5t75 14.5q33 0 57.5 -12.5t40 -33.5t21.5 -48t0 -55
q-5 -29 -20 -53.5t-37 -42t-50 -27.5t-60 -10zM707 -6q-36 0 -62.5 10.5t-43 28.5t-23 40.5t-1.5 46.5q8 46 43.5 72.5t83.5 34.5q-16 4 -31 13t-25.5 22t-15.5 30.5t-1 38.5q3 20 14.5 38t29.5 31t41.5 20.5t50.5 7.5q29 0 52 -9.5t38.5 -25t22 -35.5t2.5 -41
q-6 -37 -36.5 -61.5t-71.5 -30.5q43 -9 71 -40.5t20 -80.5q-4 -21 -15.5 -41t-31 -35.5t-47 -24.5t-64.5 -9zM709 9q33 0 57.5 8t41.5 21.5t27 30.5t13 36q4 25 -2.5 46t-22 36t-37.5 23.5t-48 8.5q-30 0 -55 -8.5t-44 -22t-30.5 -32t-15.5 -37.5q-3 -21 2.5 -41t20 -35
t38 -24.5t55.5 -9.5zM739 234q53 0 88 25t40 59q7 38 -20 66.5t-82 28.5q-48 0 -80.5 -24t-39.5 -59q-4 -21 2.5 -38.5t20 -30t32.5 -20t39 -7.5zM807 730h22l-655 -730h-22z" />
    <glyph glyph-name="uni215E" unicode="&#x215e;" horiz-adv-x="806" 
d="M373 716h-250l3 14h267l-3 -14l-247 -408h-18zM570 -6q-36 0 -62.5 10.5t-43 28.5t-23 40.5t-1.5 46.5q8 46 43.5 72.5t83.5 34.5q-16 4 -31 13t-25.5 22t-15.5 30.5t-1 38.5q3 20 14.5 38t29.5 31t41.5 20.5t50.5 7.5q29 0 52 -9.5t38.5 -25t22 -35.5t2.5 -41
q-6 -37 -36.5 -61.5t-71.5 -30.5q43 -9 71 -40.5t20 -80.5q-4 -21 -15.5 -41t-31 -35.5t-47 -24.5t-64.5 -9zM572 9q33 0 57.5 8t41.5 21.5t27 30.5t13 36q4 25 -2.5 46t-22 36t-37.5 23.5t-48 8.5q-30 0 -55 -8.5t-44 -22t-30.5 -32t-15.5 -37.5q-3 -21 2.5 -41t20 -35
t38 -24.5t55.5 -9.5zM602 234q53 0 88 25t40 59q7 38 -20 66.5t-82 28.5q-48 0 -80.5 -24t-39.5 -59q-4 -21 2.5 -38.5t20 -30t32.5 -20t39 -7.5zM670 730h22l-655 -730h-22z" />
    <glyph glyph-name="uni215F" unicode="&#x215f;" horiz-adv-x="650" 
d="M660 730h22l-655 -730h-22zM140 308l66 372q-10 -20 -31.5 -36.5t-59.5 -16.5h-6l3 16h3q30 0 48.5 9.5t30 23t16.5 28.5t7 26h15l-76 -422h-16z" />
    <glyph glyph-name="arrowleft" unicode="&#x2190;" horiz-adv-x="928" 
d="M290 148q-12 36 -37.5 69.5t-55.5 61t-61.5 48.5t-55.5 32v11q25 11 56 32t61 49t55.5 61.5t37.5 69.5l14 -5q-12 -36 -35 -68t-51.5 -58.5t-58.5 -46.5t-54 -32h757v-15h-759q24 -11 54.5 -31t59 -46.5t52 -58.5t35.5 -68l-14 -5v0z" />
    <glyph glyph-name="arrowup" unicode="&#x2191;" horiz-adv-x="928" 
d="M472 754q-12 -24 -32 -53.5t-46 -57.5t-58 -50.5t-67 -34.5l-5 14q36 12 69.5 37.5t61 55.5t48.5 61.5t32 55.5h11q11 -25 32 -56t49 -61t61.5 -55.5t69.5 -37.5l-5 -14q-35 11 -67 34t-58.5 50.5t-46.5 56.5t-32 53v-752h-17v754z" />
    <glyph glyph-name="arrowright" unicode="&#x2192;" horiz-adv-x="928" 
d="M650 152q12 35 35 67t51 58.5t58 47t54 32.5h-756v15h759q-25 11 -55 31t-58.5 46.5t-52 58.5t-35.5 68l14 5q12 -36 37.5 -69.5t55.5 -61t61.5 -48.5t55.5 -32v-11q-25 -11 -56 -32t-61 -49t-55.5 -61.5t-37.5 -69.5z" />
    <glyph glyph-name="arrowdown" unicode="&#x2193;" horiz-adv-x="928" 
d="M476 -52q-11 25 -32 56t-49 61t-61.5 55.5t-69.5 37.5l5 14q35 -12 66.5 -34.5t58 -50t47 -56.5t32.5 -53v752h17v-754q12 24 31.5 53.5t46 57t58 50.5t67.5 35l5 -14q-36 -12 -69.5 -37.5t-61 -55.5t-48.5 -61.5t-32 -55.5h-11v0z" />
    <glyph glyph-name="uni2196" unicode="&#x2196;" horiz-adv-x="928" 
d="M210 366q16 34 22 75.5t4.5 82.5t-9 77.5t-17.5 61.5l8 8q25 -9 62 -16.5t78 -9t82.5 4t75.5 22.5l7 -13q-33 -17 -72.5 -23t-78.5 -5t-74.5 8t-60.5 16l535 -536l-10 -10l-536 535q9 -26 16 -61t8.5 -74t-4.5 -78t-23 -72l-13 7v0z" />
    <glyph glyph-name="uni2197" unicode="&#x2197;" horiz-adv-x="928" 
d="M210 119l535 536q-26 -9 -61 -16t-74 -8.5t-78 4.5t-72 23l7 13q34 -17 75.5 -22.5t82.5 -4t77.5 9t61.5 17.5l8 -8q-9 -26 -16.5 -62.5t-9 -77.5t4 -82.5t22.5 -75.5l-13 -7q-17 33 -23 72.5t-5 78.5t8 74t16 61l-536 -535z" />
    <glyph glyph-name="uni2198" unicode="&#x2198;" horiz-adv-x="928" 
d="M754 109q-26 9 -62.5 16.5t-77.5 9t-82.5 -4.5t-75.5 -22l-7 13q33 17 72.5 23t78.5 4.5t74 -8t61 -15.5l-535 536l10 10l536 -535q-9 25 -16 60.5t-8.5 74t4.5 78t23 72.5l13 -7q-17 -34 -22.5 -75.5t-4 -82.5t9 -77.5t17.5 -61.5l-8 -8v0z" />
    <glyph glyph-name="uni2199" unicode="&#x2199;" horiz-adv-x="928" 
d="M516 108q-34 16 -75.5 22t-82.5 4.5t-77.5 -9t-61.5 -17.5l-8 8q9 25 16.5 62t9 78t-4.5 82.5t-22 75.5l13 7q17 -33 23 -72.5t4.5 -78.5t-8 -74.5t-15.5 -60.5l536 535l10 -10l-535 -536q25 9 60.5 16t74 8.5t78 -4.5t72.5 -23l-7 -13v0z" />
    <glyph glyph-name="partialdiff" unicode="&#x2202;" horiz-adv-x="663" 
d="M310 -10q-60 0 -109 23.5t-81 63t-46 92.5t-3 113q9 51 35.5 93t64.5 72t84 46.5t94 16.5q39 0 74 -13t63 -35.5t48.5 -52.5t31.5 -65q-12 93 -70 191t-170 195h24q140 -125 195.5 -255.5t33.5 -253.5q-9 -51 -34.5 -93.5t-62 -73t-81 -47.5t-91.5 -17zM310 5q44 0 86 17
t76.5 46t58 69t31.5 87q9 51 -3.5 99.5t-41.5 86.5t-72 61.5t-96 23.5q-45 0 -88.5 -16t-79.5 -44.5t-61 -68.5t-33 -87q-9 -53 2.5 -102t40.5 -87.5t75 -61.5t105 -23z" />
    <glyph glyph-name="Delta" unicode="&#x2206;" horiz-adv-x="929" 
d="M-7 0l553 742l299 -742h-852zM25 15h796l-279 696z" />
    <glyph glyph-name="product" unicode="&#x220f;" horiz-adv-x="775" 
d="M133 730h668l-3 -15h-161l-125 -715h-17l125 715h-309l-125 -715h-17l125 715h-164z" />
    <glyph glyph-name="summation" unicode="&#x2211;" horiz-adv-x="632" 
d="M35 14l340 372l-216 329l2 15h471l-3 -15h-454l220 -331l-339 -369h451l-3 -15h-471z" />
    <glyph glyph-name="minus" unicode="&#x2212;" horiz-adv-x="492" 
d="M70 374h370l-2 -16h-370z" />
    <glyph glyph-name="radical" unicode="&#x221a;" horiz-adv-x="865" 
d="M183 484h-77l4 16h85l130 -483l535 719h20l-548 -736h-19z" />
    <glyph glyph-name="infinity" unicode="&#x221e;" horiz-adv-x="972" 
d="M290 267q-24 0 -45.5 9.5t-37.5 25t-25.5 37t-9.5 45.5t9.5 45.5t25.5 37t37.5 25t45.5 9.5q25 0 50.5 -9.5t50.5 -25.5t50 -35.5t51 -40.5q25 21 50 40.5t50.5 35.5t51.5 25.5t52 9.5q24 0 45.5 -9t37 -25t25 -37.5t9.5 -45.5t-9.5 -45.5t-25 -37.5t-37 -25t-45.5 -9
q-28 0 -54.5 8.5t-52 22.5t-49.5 32t-48 38q-24 -20 -48.5 -38t-49.5 -32t-51 -22.5t-53 -8.5zM290 283q25 0 49 8t47.5 21.5t46.5 30.5t46 36q-24 20 -48 39t-47.5 33.5t-46.5 23.5t-47 9q-20 0 -38.5 -8.5t-32.5 -22.5t-22 -32t-8 -38t8 -38t22 -32t32.5 -22t38.5 -8z
M696 283q20 0 38.5 8.5t32 22.5t21 32.5t7.5 38.5t-8 38t-21.5 32t-31.5 22t-38 8q-24 0 -48 -9t-47.5 -24t-47.5 -34t-48 -39q23 -19 46 -36t47 -30.5t48.5 -21.5t49.5 -8z" />
    <glyph glyph-name="integral" unicode="&#x222b;" horiz-adv-x="364" 
d="M-51 -139h3q36 0 60.5 6.5t41 21.5t26.5 39t17 59l101 579q9 50 22 82t34.5 50t53.5 25t79 7h5l-3 -16h-3q-44 0 -73 -5.5t-48 -21.5t-30.5 -45.5t-20.5 -76.5l-101 -578q-8 -45 -20.5 -72.5t-32 -43.5t-46.5 -21.5t-63 -5.5h-5z" />
    <glyph glyph-name="approxequal" unicode="&#x2248;" horiz-adv-x="496" 
d="M85 454q24 11 47.5 18t54.5 7q22 0 44.5 -6t43.5 -13t41.5 -13t40.5 -6q29 0 51 7t50 19l-4 -16q-23 -12 -45 -18t-55 -6q-21 0 -43 6t-44 13t-43 13t-40 6q-30 0 -54 -8t-48 -19zM55 287q24 11 45.5 18.5t52.5 7.5q22 0 45 -6t45.5 -12.5t43.5 -12.5t41 -6
q29 0 50.5 6.5t49.5 17.5l-4 -16q-23 -12 -44 -17t-54 -5q-21 0 -44 6t-45.5 12.5t-44.5 12.5t-41 6q-30 0 -52.5 -8.5t-46.5 -19.5z" />
    <glyph glyph-name="notequal" unicode="&#x2260;" horiz-adv-x="492" 
d="M84 450h206l37 67h18l-37 -67h146l-3 -16h-152l-79 -142h206l-3 -16h-212l-38 -70h-18l38 70h-140l3 16h146l79 142h-200z" />
    <glyph glyph-name="equivalence" unicode="&#x2261;" horiz-adv-x="492" 
d="M70 372h370l-3 -16h-370zM42 214h370l-3 -16h-370zM98 530h370l-3 -16h-370z" />
    <glyph glyph-name="lessequal" unicode="&#x2264;" horiz-adv-x="492" 
d="M81 430l3 16l395 146l-4 -19l-372 -136l324 -141l-4 -17zM44 222h370l-3 -16h-370z" />
    <glyph glyph-name="greaterequal" unicode="&#x2265;" horiz-adv-x="492" 
d="M58 298l372 136l-324 141l4 17l342 -151l-3 -16l-395 -146zM44 222h370l-3 -16h-370z" />
    <glyph glyph-name="squaremultiply" unicode="&#x22a0;" horiz-adv-x="958" 
d="M133 730h726v-730h-726v730zM150 15h692v700h-692v-700zM264 134l225 232l-217 222l10 11l218 -222l214 221l10 -11l-214 -221l223 -226l-10 -11l-223 227l-226 -233z" />
    <glyph glyph-name="house" unicode="&#x2302;" horiz-adv-x="906" 
d="M113 0v427l337 323l337 -323v-427h-674z" />
    <glyph glyph-name="blacksquare" unicode="&#x25a0;" horiz-adv-x="958" 
d="M133 730h726v-730h-726v730z" />
    <glyph glyph-name="blacksquare" unicode="&#xe740;" horiz-adv-x="958" 
d="M133 730h726v-730h-726v730z" />
    <glyph glyph-name="whitesquare" unicode="&#x25a1;" horiz-adv-x="958" 
d="M133 730h726v-730h-726v730zM150 15h692v700h-692v-700z" />
    <glyph glyph-name="blacksmallsquare" unicode="&#x25aa;" horiz-adv-x="732" 
d="M113 500h500v-500h-500v500z" />
    <glyph glyph-name="whitesmallsquare" unicode="&#x25ab;" horiz-adv-x="732" 
d="M113 500h500v-500h-500v500zM130 15h466v470h-466v-470z" />
    <glyph glyph-name="triagup" unicode="&#x25b2;" horiz-adv-x="929" 
d="M3 0l429 742l428 -742h-857z" />
    <glyph glyph-name="triagrt" unicode="&#x25ba;" horiz-adv-x="929" 
d="M143 800l742 -428l-742 -429v857z" />
    <glyph glyph-name="triagdn" unicode="&#x25bc;" horiz-adv-x="929" 
d="M970 730l-428 -742l-429 742h857z" />
    <glyph glyph-name="triaglf" unicode="&#x25c4;" horiz-adv-x="929" 
d="M830 -57l-742 429l742 428v-857z" />
    <glyph glyph-name="lozenge" unicode="&#x25ca;" horiz-adv-x="875" 
d="M73 378l434 368l328 -394l-434 -368zM402 7l411 348l-308 369l-409 -348z" />
    <glyph glyph-name="whitecircle" unicode="&#x25cb;" horiz-adv-x="959" 
d="M497 -10q-78 0 -146 29.5t-119 80.5t-80.5 119t-29.5 146t29.5 146t80.5 119t119 80.5t146 29.5t146 -29.5t119 -80.5t80.5 -119t29.5 -146t-29.5 -146t-80.5 -119t-119 -80.5t-146 -29.5zM497 6q74 0 139 28t113.5 77t76.5 114.5t28 139.5t-28 139.5t-76.5 114
t-113.5 77t-139 28.5t-139 -28.5t-113.5 -77t-76.5 -114t-28 -139.5t28 -139.5t76.5 -114.5t113.5 -77t139 -28z" />
    <glyph glyph-name="whitecircle" unicode="&#x25ef;" horiz-adv-x="959" 
d="M497 -10q-78 0 -146 29.5t-119 80.5t-80.5 119t-29.5 146t29.5 146t80.5 119t119 80.5t146 29.5t146 -29.5t119 -80.5t80.5 -119t29.5 -146t-29.5 -146t-80.5 -119t-119 -80.5t-146 -29.5zM497 6q74 0 139 28t113.5 77t76.5 114.5t28 139.5t-28 139.5t-76.5 114
t-113.5 77t-139 28.5t-139 -28.5t-113.5 -77t-76.5 -114t-28 -139.5t28 -139.5t76.5 -114.5t113.5 -77t139 -28z" />
    <glyph glyph-name="bullseye" unicode="&#x25ce;" horiz-adv-x="959" 
d="M497 -10q-78 0 -146 29.5t-119 80.5t-80.5 119t-29.5 146t29.5 146t80.5 119t119 80.5t146 29.5t146 -29.5t119 -80.5t80.5 -119t29.5 -146t-29.5 -146t-80.5 -119t-119 -80.5t-146 -29.5zM497 6q74 0 139 28t113.5 77t76.5 114.5t28 139.5t-28 139.5t-76.5 114
t-113.5 77t-139 28.5t-139 -28.5t-113.5 -77t-76.5 -114t-28 -139.5t28 -139.5t76.5 -114.5t113.5 -77t139 -28zM498 170q-40 0 -75.5 15.5t-61.5 41.5t-41.5 61.5t-15.5 75.5t15.5 75.5t41.5 61.5t61.5 41.5t75.5 15.5t75.5 -15.5t61.5 -41.5t41.5 -61.5t15.5 -75.5
t-15.5 -75.5t-41.5 -61.5t-61.5 -41.5t-75.5 -15.5zM498 187q37 0 69 14t56 38t37.5 56t13.5 69t-13.5 69t-37.5 56t-56 38t-69 14t-69 -14t-56 -38t-37.5 -56t-13.5 -69t13.5 -69t37.5 -56t56 -38t69 -14zM498 344q-8 0 -14 6t-6 14t6 14t14 6t14 -6t6 -14t-6 -14t-14 -6z
" />
    <glyph glyph-name="blackcircle" unicode="&#x25cf;" horiz-adv-x="959" 
d="M497 -10q-78 0 -146 29.5t-119 80.5t-80.5 119t-29.5 146t29.5 146t80.5 119t119 80.5t146 29.5t146 -29.5t119 -80.5t80.5 -119t29.5 -146t-29.5 -146t-80.5 -119t-119 -80.5t-146 -29.5z" />
    <glyph glyph-name="uni25E2" unicode="&#x25e2;" horiz-adv-x="929" 
d="M330 -73l-222 828l828 -222z" />
    <glyph glyph-name="uni25E3" unicode="&#x25e3;" horiz-adv-x="929" 
d="M92 533l828 222l-222 -828z" />
    <glyph glyph-name="uni25E4" unicode="&#x25e4;" horiz-adv-x="929" 
d="M22 168l606 606l222 -828z" />
    <glyph glyph-name="uni25E5" unicode="&#x25e5;" horiz-adv-x="929" 
d="M37 -58l223 828l605 -607z" />
    <glyph glyph-name="uni2605" unicode="&#x2605;" horiz-adv-x="932" 
d="M667 85l-187 135l-186 -135l72 219l-186 135l229 -1l72 218l71 -218l230 -1l-187 -134z" />
    <glyph glyph-name="ballotboxwithx" unicode="&#x2612;" horiz-adv-x="732" 
d="M113 500h500v-500h-500v500zM130 15h466v470h-466v-470zM214 109l137 139l-138 141l10 11l139 -141l138 140l10 -11l-138 -140l137 -138l-10 -11l-137 139l-138 -140z" />
    <glyph glyph-name="uni263C" unicode="&#x263c;" horiz-adv-x="960" 
d="M320 365q0 36 14 67.5t37.5 55t55 37.5t67.5 14t67.5 -14t55 -37.5t37.5 -55t14 -67.5t-14 -67.5t-37.5 -55t-55 -37.5t-67.5 -14t-67.5 14t-55 37.5t-37.5 55t-14 67.5zM467 719h54l-17 -142h-20zM521 13h-54l17 142h20zM141 339v54l142 -17v-20zM847 393v-54l-142 17
v20zM173 519l28 47l115 -87l-10 -15zM815 213l-28 -47l-115 87l10 15zM294 659l47 28l55 -133l-15 -10zM694 73l-47 -28l-55 133l15 10zM647 687l47 -28l-87 -115l-15 10zM341 45l-47 28l87 115l15 -10zM785 566l30 -46l-133 -56l-10 16zM203 166l-30 46l133 56l10 -16z" />
    <glyph glyph-name="uni263E" unicode="&#x263e;" horiz-adv-x="819" 
d="M567 616q-50 0 -93.5 -20t-75.5 -54t-51 -79.5t-19 -97.5t19 -97.5t51 -79.5t75.5 -54t93.5 -20q18 0 36 3.5t35 8.5q-38 -27 -83.5 -42t-94.5 -15q-61 0 -115 23.5t-94 63.5t-63.5 94t-23.5 115t23.5 115t63.5 94t94 63.5t115 23.5q49 0 94.5 -15t83.5 -42
q-17 5 -35 8.5t-36 3.5z" />
    <glyph glyph-name="spade" unicode="&#x2660;" horiz-adv-x="952" 
d="M350 0q10 19 26 49.5t31 69t26 82.5t11 89q-9 -26 -24 -50.5t-36 -43.5t-48.5 -30.5t-61.5 -11.5q-35 0 -66 12.5t-54.5 34t-37 50.5t-13.5 61q0 43 13.5 80.5t42 75t73 77.5t106.5 90l140 112h1l140 -112q62 -50 105.5 -90t70.5 -77.5t39.5 -75t12.5 -80.5
q0 -32 -12.5 -60.5t-34 -50t-50 -34t-60.5 -12.5q-37 0 -66 11t-51.5 30t-38.5 43.5t-25 50.5q0 -45 12 -89t28 -82.5t33 -69t27 -49.5h-259z" />
    <glyph glyph-name="club" unicode="&#x2663;" horiz-adv-x="952" 
d="M351 0q9 17 22.5 43t27.5 58t25 69.5t16 77.5q-21 -52 -65 -85t-102 -33q-37 0 -69 14t-56 38t-38 56t-14 69t14 69t38 56t56 38t69 14q11 0 21.5 -2t20.5 -5q-19 41 -19 87q0 36 13.5 68t37.5 56t56 38t68 14t68 -14t56 -38t38 -56t14 -68q0 -45 -19 -88q22 8 46 8
q37 0 69 -14t56 -38t37.5 -56t13.5 -69t-14 -69t-38 -56t-56 -38t-69 -14q-58 0 -100.5 33t-62.5 84q5 -39 17.5 -76.5t27.5 -69.5t29.5 -58t23.5 -43h-259z" />
    <glyph glyph-name="heart" unicode="&#x2665;" horiz-adv-x="952" 
d="M144 550q0 39 14 73.5t39 60.5t58 41t72 15q38 0 70.5 -12.5t56.5 -34t39 -51t19 -63.5q4 34 19 63.5t39 51t56 34t71 12.5t73 -15t60 -41t41 -60.5t15 -73.5q0 -43 -13 -86.5t-41 -92.5t-72 -105.5t-106 -125.5l-142 -157l-141 157q-62 69 -105.5 125.5t-70.5 105.5
t-39 92.5t-12 86.5z" />
    <glyph glyph-name="diamond" unicode="&#x2666;" horiz-adv-x="952" 
d="M499 791l327 -401l-327 -400l-327 400z" />
    <glyph glyph-name="uni267B" unicode="&#x267b;" horiz-adv-x="953" 
d="M855 244l-91 -157q-7 -11 -14 -20.5t-16 -16.5t-21.5 -11t-30.5 -4h-54v-47l-106 128l106 127v-46h136q21 0 37.5 7.5t28.5 16.5q13 11 24 25zM215 111l-90 158q-6 11 -11 21.5t-6.5 22t1.5 24t12 28.5l27 46l-40 23l164 29l55 -156l-38 23q-18 -31 -33 -57
q-13 -22 -23.5 -40.5t-11.5 -20.5q-11 -18 -13 -36.5t0 -32.5q2 -17 9 -32h-2zM422 729h182q13 0 25 -1t22.5 -5.5t20 -13t18.5 -24.5l26 -46l41 23l-58 -157l-162 30l38 22l-67 118q-11 18 -25.5 29t-28.5 16q-16 6 -32 8v1zM293 670q4 6 12.5 14.5t19.5 14.5
q21 12 45 13.5t46 -4.5t39.5 -17.5t24.5 -24.5l-109 -189l-141 81zM335 35q-8 0 -19.5 2.5t-22.5 9.5q-21 12 -34.5 32t-19.5 42t-4.5 42.5t9.5 33.5h218v-162h-127zM865 381q9 -14 9 -41q0 -24 -10.5 -45.5t-27 -37.5t-34.5 -25.5t-33 -9.5l-109 189l140 80z" />
    <glyph glyph-name="uni267C" unicode="&#x267c;" horiz-adv-x="953" 
d="M870 366q0 -78 -29.5 -146.5t-80.5 -119t-119 -80t-146 -29.5t-147 29.5t-120 80t-80.5 119t-29.5 146.5t29.5 146.5t80.5 120t120 81t147 29.5t146 -29.5t119 -81t80.5 -120t29.5 -146.5zM288 520l109 -63l84 146q-6 10 -19 19t-30.5 13.5t-36 3.5t-34.5 -10
q-8 -5 -15 -11.5t-9 -11.5zM432 651q14 -2 26 -7q11 -5 22 -12.5t19 -21.5l53 -91l-30 -18l126 -23l44 122l-31 -18l-21 36q-14 24 -30 29t-37 5h-141v-1zM464 114v126h-170q-6 -11 -7 -26.5t4 -32.5t15 -32.5t27 -25.5q8 -5 17 -7t15 -2h99zM277 173q-4 12 -6 25
q-2 11 -0.5 25.5t9.5 28.5l53 91l30 -18l-43 121l-127 -22l31 -18l-21 -36q-15 -25 -10.5 -41t13.5 -34l70 -122h1zM730 468l-110 -63l85 -147q12 0 26 7.5t27 20t21 29.5t8 36q0 10 -2.5 18.5t-5.5 13.5zM771 277q-8 -11 -19 -19q-9 -7 -21.5 -12.5t-29.5 -5.5h-105v35
l-83 -98l83 -99v36h41q29 0 41.5 11.5t22.5 28.5l71 122z" />
    <glyph glyph-name="uni267D" unicode="&#x267d;" horiz-adv-x="953" 
d="M870 366q0 -78 -29.5 -146.5t-80.5 -119t-119 -80t-146 -29.5t-147 29.5t-120 80t-80.5 119t-29.5 146.5t29.5 146.5t80.5 120t120 81t147 29.5t146 -29.5t119 -81t80.5 -120t29.5 -146.5zM851 366q0 74 -28 139.5t-76 114t-113 76.5t-139 28q-75 0 -140 -28t-114 -76.5
t-77 -114t-28 -139.5t28 -139t77 -113.5t114 -76.5t140 -28q74 0 139 28t113 76.5t76 113.5t28 139zM337 606q2 5 9 11.5t15 11.5q16 9 34.5 10t36 -3.5t30.5 -13.5t19 -19l-84 -146l-109 63zM432 652h141q21 0 37 -5t30 -29l21 -36l31 18l-44 -122l-126 23l30 18l-53 91
q-8 14 -19 21.5t-22 12.5q-12 5 -26 7v1zM365 114q-6 0 -15 2t-17 7q-17 10 -27 25.5t-15 32.5t-4 32.5t7 26.5h170v-126h-99zM276 173l-70 122q-9 18 -13.5 34t10.5 41l21 36l-31 18l127 22l43 -121l-30 18l-53 -91q-8 -14 -9.5 -28.5t0.5 -25.5q2 -13 6 -25h-1zM779 383
q3 -5 5.5 -13.5t2.5 -18.5q0 -19 -8 -36t-21 -29.5t-27 -20t-26 -7.5l-85 147l110 63zM772 276l-71 -122q-10 -17 -22.5 -28.5t-41.5 -11.5h-41v-36l-83 99l83 98v-35h105q17 0 29.5 5.5t21.5 12.5q11 8 19 19z" />
    <glyph glyph-name="mediumwhitecircle" unicode="&#x26aa;" horiz-adv-x="730" 
d="M362 -10q-54 0 -101.5 20.5t-82.5 55.5t-55.5 82.5t-20.5 101.5t20.5 101.5t55.5 82.5t82.5 55.5t101.5 20.5t101.5 -20.5t82.5 -55.5t55.5 -82.5t20.5 -101.5t-20.5 -101.5t-55.5 -82.5t-82.5 -55.5t-101.5 -20.5zM362 6q51 0 95 19t76.5 52t51.5 77.5t19 95.5t-19 95.5
t-51.5 77.5t-76.5 52t-95 19t-95 -19t-77 -52t-52 -77.5t-19 -95.5t19 -95.5t52 -77.5t77 -52t95 -19z" />
    <glyph glyph-name="mediumblackcircle" unicode="&#x26ab;" horiz-adv-x="730" 
d="M362 -10q-54 0 -101 20.5t-82.5 55.5t-55.5 82.5t-20 101.5t20 101.5t55.5 82.5t82.5 55.5t101 20.5t101 -20.5t82.5 -55.5t55.5 -82.5t20 -101.5t-20 -101.5t-55.5 -82.5t-82.5 -55.5t-101 -20.5z" />
    <glyph glyph-name="anglebracketleft" unicode="&#x3008;" horiz-adv-x="422" 
d="M74 249l325 481h19l-327 -483l156 -477h-16z" />
    <glyph glyph-name="anglebracketright" unicode="&#x3009;" horiz-adv-x="422" 
d="M314 253l-155 477h16l157 -479l-325 -481h-19z" />
    <glyph glyph-name="cordinal" unicode="&#xe181;" horiz-adv-x="432" 
d="M260 412q-38 0 -68.5 14.5t-51 39t-29 57.5t-1.5 70q6 32 21 58.5t37.5 45.5t50.5 29.5t59 10.5q55 0 91 -29t52 -72l-17 -5q-12 39 -44.5 65.5t-82.5 26.5q-28 0 -53 -10t-45 -27.5t-34 -42t-20 -53.5q-5 -33 2.5 -62.5t25.5 -52t45 -35.5t62 -13q44 0 80 24t56 62
l15 -6q-21 -43 -62 -69t-89 -26z" />
    <glyph glyph-name="fi" unicode="&#xe38c;" horiz-adv-x="530" 
d="M63 540h102l13 72q10 54 24 88t37 53.5t56.5 27t83.5 7.5h8l-4 -15h-5q-46 0 -77 -6.5t-52 -24t-33.5 -49t-21.5 -82.5l-13 -71h159l-2 -13h-159l-92 -527h-16l92 527h-102zM380 0l96 540h16l-96 -540h-16zM511 684q-12 0 -18.5 8.5t-3.5 19.5q2 9 9 14.5t17 5.5
q13 0 18 -8.5t3 -19.5q-2 -8 -8.5 -14t-16.5 -6z" />
    <glyph glyph-name="fi" unicode="&#xfb01;" horiz-adv-x="530" 
d="M63 540h102l13 72q10 54 24 88t37 53.5t56.5 27t83.5 7.5h8l-4 -15h-5q-46 0 -77 -6.5t-52 -24t-33.5 -49t-21.5 -82.5l-13 -71h159l-2 -13h-159l-92 -527h-16l92 527h-102zM380 0l96 540h16l-96 -540h-16zM511 684q-12 0 -18.5 8.5t-3.5 19.5q2 9 9 14.5t17 5.5
q13 0 18 -8.5t3 -19.5q-2 -8 -8.5 -14t-16.5 -6z" />
    <glyph glyph-name="fl" unicode="&#xe38d;" horiz-adv-x="530" 
d="M63 540h102l13 72q10 54 24 88t37 53.5t56.5 27t83.5 7.5h8l-4 -15h-5q-46 0 -77 -6.5t-52 -24t-33.5 -49t-21.5 -82.5l-13 -71h159l-2 -13h-159l-92 -527h-16l92 527h-102zM519 788h16l-139 -788h-16z" />
    <glyph glyph-name="fl" unicode="&#xfb02;" horiz-adv-x="530" 
d="M63 540h102l13 72q10 54 24 88t37 53.5t56.5 27t83.5 7.5h8l-4 -15h-5q-46 0 -77 -6.5t-52 -24t-33.5 -49t-21.5 -82.5l-13 -71h159l-2 -13h-159l-92 -527h-16l92 527h-102zM519 788h16l-139 -788h-16z" />
    <glyph glyph-name="invertedbreve" unicode="&#xe411;" 
d="M175 622q5 26 18 52t35.5 46.5t55 33.5t74.5 13q36 0 64.5 -13t47 -33.5t26 -46.5t2.5 -52h-16q4 23 -2.5 46t-22.5 42t-42 30.5t-60 11.5q-37 0 -65.5 -11.5t-48.5 -30.5t-32.5 -42t-16.5 -46h-17v0z" />
    <glyph glyph-name="doublegrave" unicode="&#xe412;" 
d="M330 762h22l79 -140h-15zM239 762h22l89 -140h-15z" />
    <glyph glyph-name="caronSlovak" unicode="&#xe413;" 
d="M263 647q14 7 27.5 19.5t24 27t17.5 29.5t10 29q2 14 0.5 21t-6.5 11q3 -5 2 -11q-3 -19 -22 -19q-9 0 -15.5 7t-4.5 18q5 25 30 25q17 0 26 -13t4 -39q-6 -33 -31.5 -65t-55.5 -50z" />
    <glyph glyph-name="commaaccent" unicode="&#xe414;" 
d="M127 -237q14 7 27.5 19.5t24 27t17.5 29.5t10 29q4 25 -6 33q4 -5 2 -12q-3 -19 -22 -19q-9 0 -15.5 7t-4.5 18q5 25 30 25q17 0 26 -13t4 -39q-6 -33 -31.5 -65t-55.5 -50z" />
    <glyph glyph-name="commaaccent" unicode="&#xf6c3;" 
d="M127 -237q14 7 27.5 19.5t24 27t17.5 29.5t10 29q4 25 -6 33q4 -5 2 -12q-3 -19 -22 -19q-9 0 -15.5 7t-4.5 18q5 25 30 25q17 0 26 -13t4 -39q-6 -33 -31.5 -65t-55.5 -50z" />
    <glyph glyph-name="dotbelow" unicode="&#xe415;" 
d="M193 -137q-11 0 -17.5 8t-4.5 19q2 9 9 15t17 6q13 0 18 -8.5t3 -19.5q-2 -8 -8.5 -14t-16.5 -6z" />
    <glyph glyph-name="altcedilla" unicode="&#xe416;" 
d="M184 -214q-43 0 -72.5 14t-50.5 36l14 10q18 -20 44.5 -33t66.5 -13q43 0 74.5 17t36.5 47q5 31 -21 49t-79 18h-16l3 13h15q60 0 90 -22.5t24 -59.5q-7 -37 -42 -56.5t-87 -19.5z" />
    <glyph glyph-name="exclamdown.cap" unicode="&#xe441;" horiz-adv-x="259" 
d="M184 586q-3 -17 -8.5 -49t-12.5 -73t-14.5 -88t-15.5 -93t-15.5 -89.5t-13.5 -76.5l-20 -117h-18l20 117l85 469h13zM197 686q-13 0 -18 8.5t-3 19.5q2 8 8.5 14t16.5 6q11 0 17.5 -8t4.5 -19q-2 -9 -9 -15t-17 -6z" />
    <glyph glyph-name="questiondown.cap" unicode="&#xe444;" horiz-adv-x="518" 
d="M246 -10q-41 0 -78.5 12.5t-63.5 36t-38.5 58t-4.5 78.5q7 39 27.5 64.5t47 45t57 38t58.5 45t50 65t33 98.5l10 55h18l-10 -55q-11 -62 -33.5 -102t-51 -68t-59 -47t-57.5 -38.5t-47 -43.5t-27 -61q-7 -40 4.5 -71t35.5 -52t58 -32t73 -11q44 0 81 14t66 40l12 -10
q-31 -29 -72 -44t-89 -15zM372 686q-13 0 -18 8.5t-3 19.5q2 8 8.5 14t16.5 6q11 0 17.5 -8t4.5 -19q-2 -9 -9 -15t-17 -6z" />
    <glyph glyph-name="guilsinglleft.cap" unicode="&#xe451;" horiz-adv-x="296" 
d="M83 352l3 15l161 119l-4 -22l-144 -106l107 -107l-4 -18z" />
    <glyph glyph-name="guilsinglright.cap" unicode="&#xe452;" horiz-adv-x="296" 
d="M234 366l-3 -15l-161 -119l4 22l144 106l-107 107l4 18z" />
    <glyph glyph-name="guillemotleft.cap" unicode="&#xe453;" horiz-adv-x="436" 
d="M83 352l3 15l161 119l-4 -22l-144 -106l107 -107l-4 -18zM223 352l3 15l161 119l-4 -22l-144 -106l107 -107l-4 -18z" />
    <glyph glyph-name="guillemotright.cap" unicode="&#xe454;" horiz-adv-x="436" 
d="M374 366l-3 -15l-161 -119l4 22l144 106l-107 107l4 18zM234 366l-3 -15l-161 -119l4 22l144 106l-107 107l4 18z" />
    <glyph glyph-name="slash.cap" unicode="&#xe461;" horiz-adv-x="437" 
d="M454 730h20l-474 -730h-20z" />
    <glyph glyph-name="backslash.cap" unicode="&#xe462;" horiz-adv-x="437" 
d="M109 730h17l220 -730h-19z" />
    <glyph glyph-name="bar.cap" unicode="&#xe463;" horiz-adv-x="199" 
d="M192 840h17l-169 -960h-17z" />
    <glyph glyph-name="doublebar.cap" unicode="&#xe464;" horiz-adv-x="336" 
d="M192 840h17l-169 -960h-17zM329 840h17l-169 -960h-17z" />
    <glyph glyph-name="brokenbar.cap" unicode="&#xe465;" horiz-adv-x="199" 
d="M192 840h17l-74 -420h-17zM97 300h17l-74 -420h-17z" />
    <glyph glyph-name="bullet.cap" unicode="&#xe466;" horiz-adv-x="258" 
d="M146 330q-14 0 -23.5 9.5t-9.5 23.5t9.5 23.5t23.5 9.5t23.5 -9.5t9.5 -23.5t-9.5 -23.5t-23.5 -9.5z" />
    <glyph glyph-name="slash.smcp" unicode="&#xe467;" horiz-adv-x="394" 
d="M381 596h18l-388 -596h-18z" />
    <glyph glyph-name="backslash.smcp" unicode="&#xe468;" horiz-adv-x="394" 
d="M98 596h16l179 -596h-17z" />
    <glyph glyph-name="bar.smcp" unicode="&#xe469;" horiz-adv-x="198" 
d="M165 686h16l-138 -784h-16z" />
    <glyph glyph-name="doublebar.smcp" unicode="&#xe46a;" horiz-adv-x="334" 
d="M165 686h16l-138 -784h-16zM301 686h16l-138 -784h-16z" />
    <glyph glyph-name="onethirdemdash" unicode="&#xe471;" horiz-adv-x="448" 
d="M63 263h320l-3 -15h-320z" />
    <glyph glyph-name="threequarteremdash" unicode="&#xe472;" horiz-adv-x="648" 
d="M63 263h520l-3 -15h-520z" />
    <glyph glyph-name="periodcentered.cap" unicode="&#xe481;" horiz-adv-x="180" 
d="M99 341q-11 0 -17.5 8t-4.5 19q2 9 9 15t17 6q13 0 18 -8.5t3 -19.5q-2 -8 -8.5 -14t-16.5 -6z" />
    <glyph glyph-name="hyphen.cap" unicode="&#xe482;" horiz-adv-x="492" 
d="M74 373h370l-3 -15h-370z" />
    <glyph glyph-name="onethirdemdash.cap" unicode="&#xe483;" horiz-adv-x="448" 
d="M74 373h320l-3 -15h-320z" />
    <glyph glyph-name="endash.cap" unicode="&#xe484;" horiz-adv-x="542" 
d="M74 373h420l-3 -15h-420z" />
    <glyph glyph-name="threequarteremdash.cap" unicode="&#xe485;" horiz-adv-x="648" 
d="M74 373h520l-3 -15h-520z" />
    <glyph glyph-name="emdash.cap" unicode="&#xe486;" horiz-adv-x="748" 
d="M74 373h620l-3 -15h-620z" />
    <glyph glyph-name="figuredash.cap" unicode="&#xe487;" horiz-adv-x="698" 
d="M74 373h570l-3 -15h-570z" />
    <glyph glyph-name="uni2015.cap" unicode="&#xe488;" horiz-adv-x="1048" 
d="M74 373h920l-3 -15h-920z" />
    <glyph glyph-name="parenleft.cap" unicode="&#xe491;" horiz-adv-x="431" 
d="M295 -137q-50 32 -92 85.5t-69.5 122.5t-37 151t6.5 170q16 89 53.5 164.5t86.5 134.5t103.5 100t105.5 62l7 -13q-50 -21 -104 -62.5t-101 -99t-83.5 -130.5t-51.5 -158q-15 -86 -6 -165.5t35.5 -146t67.5 -119t90 -84.5z" />
    <glyph glyph-name="parenright.cap" unicode="&#xe492;" horiz-adv-x="431" 
d="M158 853q49 -32 91.5 -85.5t70 -122.5t37 -151t-6.5 -170q-16 -89 -53.5 -164.5t-86.5 -134.5t-103.5 -100t-105.5 -62l-7 13q50 21 104 62t101 99t83.5 131t51.5 158q15 86 6 165.5t-35.5 146t-67.5 119t-90 84.5z" />
    <glyph glyph-name="bracketleft.cap" unicode="&#xe493;" horiz-adv-x="444" 
d="M191 840h273l-2 -15h-256l-164 -930h256l-3 -15h-272z" />
    <glyph glyph-name="bracketright.cap" unicode="&#xe494;" horiz-adv-x="445" 
d="M16 -106h255l164 931h-255l2 15h273l-169 -960h-272z" />
    <glyph glyph-name="braceleft.cap" unicode="&#xe495;" horiz-adv-x="446" 
d="M306 -120q-63 0 -103 11t-61.5 36.5t-25 67t7.5 102.5l26 145q5 29 6 50t-6.5 34.5t-25 19.5t-48.5 6l3 19q30 0 49.5 5.5t32 18t20 33.5t12.5 53l24 142q11 61 28.5 102.5t47.5 67t74 36.5t108 11h11l-2 -15q-64 0 -107.5 -10t-71.5 -33t-44.5 -62.5t-26.5 -97.5
l-25 -142q-9 -55 -26.5 -83.5t-56.5 -36.5q36 -11 43 -40t-1 -77l-27 -145q-10 -59 -7.5 -98t22.5 -62t60 -33t104 -10l-3 -15h-11z" />
    <glyph glyph-name="braceright.cap" unicode="&#xe496;" horiz-adv-x="467" 
d="M15 -105q64 0 107.5 10t71.5 33t44.5 62t26.5 98l25 142q9 55 26 83t57 37q-37 10 -43.5 39.5t1.5 77.5l27 145q10 58 7.5 97.5t-22.5 62.5t-60 33t-104 10l3 15h11q63 0 103 -11t61.5 -36.5t25 -67t-7.5 -102.5l-26 -145q-5 -29 -6 -50t6.5 -34.5t24.5 -19.5t49 -6
l-3 -19q-30 0 -49.5 -5.5t-32 -18t-20 -34t-12.5 -52.5l-24 -142q-11 -61 -28.5 -102.5t-47.5 -67t-74 -36.5t-108 -11h-11z" />
    <glyph glyph-name="anglebracketleft.cap" unicode="&#xe497;" horiz-adv-x="422" 
d="M84 307l325 481h19l-327 -483l156 -477h-16z" />
    <glyph glyph-name="anglebracketright.cap" unicode="&#xe498;" horiz-adv-x="422" 
d="M324 311l-155 477h16l157 -479l-325 -481h-19z" />
    <glyph glyph-name="a.alt" unicode="&#xe4c0;" horiz-adv-x="620" 
d="M205 -6q-52 0 -88 13.5t-57.5 36t-29 52.5t-1.5 62q14 78 85 110t195 32h222l7 39q8 45 -2 81t-36.5 62t-69 40t-97.5 14q-69 0 -128.5 -22.5t-104.5 -75.5l-14 12q48 51 110 76t136 25q58 0 102.5 -15.5t73.5 -43t40.5 -66.5t3.5 -87l-59 -339h-15l27 155
q-21 -38 -53 -68t-71 -50.5t-83.5 -31.5t-92.5 -11zM208 9q43 0 87 10.5t83.5 31.5t73.5 53t57 74l19 108h-220q-112 0 -180.5 -28.5t-81.5 -101.5q-5 -29 1.5 -55.5t25.5 -46.5t52.5 -32.5t82.5 -12.5z" />
    <glyph glyph-name="lowline" unicode="&#xe511;" horiz-adv-x="492" 
d="M12 15h369l-4 -15h-370z" />
    <glyph glyph-name="underscoremonospace" unicode="&#xe512;" horiz-adv-x="687" 
d="M8 -46h569l-4 -15h-570z" />
    <glyph glyph-name="underscoremonospace" unicode="&#xff3f;" horiz-adv-x="687" 
d="M8 -46h569l-4 -15h-570z" />
    <glyph glyph-name="at.cap" unicode="&#xe513;" horiz-adv-x="889" 
d="M441 -10q-90 0 -159.5 33.5t-113.5 90.5t-60.5 133.5t-1.5 162.5q13 73 49.5 134t90 104.5t120.5 67.5t141 24q86 0 152 -31.5t109 -82.5t60 -115.5t4 -130.5q-5 -33 -18 -67t-33.5 -61t-48 -44t-61.5 -17q-51 0 -75 31t-22 78q-9 -19 -24 -38.5t-36 -35.5t-47 -26
t-57 -10q-32 0 -56.5 12.5t-40.5 34.5t-22 52t0 64q6 36 24.5 71.5t46 63.5t63 45t77.5 17q29 0 49.5 -10.5t33.5 -26.5t18.5 -35.5t5.5 -37.5q11 36 16.5 56.5t8.5 31.5q4 12 5 16h14l-51 -181q-12 -44 -11 -73.5t11.5 -48.5t28.5 -27t41 -8q30 0 54 16t42.5 41.5t31 57
t17.5 63.5q11 61 -4.5 122t-55.5 110t-103.5 79t-148.5 30q-71 0 -135 -23.5t-115 -66t-86 -101t-47 -128.5q-14 -77 0.5 -149t55 -128t107 -90t157.5 -34q74 0 142.5 29t121.5 82l13 -10q-55 -55 -127.5 -85.5t-150.5 -30.5zM412 206q36 0 64.5 13.5t51 36.5t37.5 53t24 63
q9 32 9 61.5t-11 52t-32 36t-54 13.5q-36 0 -69 -15.5t-58.5 -41.5t-43 -59.5t-23.5 -69.5q-5 -31 0 -57t19 -45t35.5 -30t50.5 -11z" />
    <glyph glyph-name="zero.LT" unicode="&#xe53f;" horiz-adv-x="638" 
d="M281 -10q-59 0 -103 17.5t-70.5 59.5t-32 111.5t12.5 173.5l6 34q17 98 45.5 165.5t66.5 109.5t84.5 60.5t99.5 18.5q54 0 96.5 -18.5t69 -60.5t34 -109.5t-9.5 -165.5l-6 -34q-18 -104 -45.5 -173.5t-64.5 -111.5t-82.5 -59.5t-100.5 -17.5zM281 5q50 0 92.5 17
t77.5 57.5t61.5 107.5t44.5 166l6 32q16 94 10.5 159t-29.5 105.5t-63.5 58t-90.5 17.5t-94.5 -18.5t-79.5 -59t-63 -106.5t-43 -160l-5 -27q-18 -102 -12.5 -169.5t30 -107t65.5 -56t93 -16.5z" />
    <glyph glyph-name="one.LT" unicode="&#xe541;" horiz-adv-x="638" 
d="M27 15h236l115 651q-8 -16 -23.5 -32t-36 -29.5t-44.5 -22t-48 -8.5h-11l3 16h5q36 0 65 13.5t50 34t34 45t18 47.5h16l-126 -715h244l-3 -15h-496z" />
    <glyph glyph-name="two.LT" unicode="&#xe542;" horiz-adv-x="638" 
d="M31 22q7 40 32.5 76t61.5 69.5t80 64t88 58.5q46 30 93.5 58.5t87 59t67 64t34.5 72.5t-4 72t-36.5 57.5t-65 38t-89.5 13.5q-35 0 -67.5 -8t-61 -22t-52.5 -33.5t-41 -41.5l-13 9q37 48 98.5 79.5t139.5 31.5q52 0 94 -15.5t69.5 -42t39.5 -62.5t5 -77q-8 -42 -36.5 -78
t-69 -67.5t-89 -61.5t-95.5 -60q-43 -28 -85.5 -57t-77 -60.5t-59 -65.5t-31.5 -71l-1 -6h467l-3 -16h-484z" />
    <glyph glyph-name="three.LT" unicode="&#xe543;" horiz-adv-x="638" 
d="M272 -10q-85 0 -149.5 27.5t-96.5 70.5l13 10q32 -45 92.5 -69t141.5 -24q113 0 177.5 45.5t78.5 126.5q7 44 -4 80t-36 62t-62 40t-81 14h-108l2 15h107q42 0 80.5 11.5t70 32.5t52.5 51t28 68q7 41 -4 73t-37.5 54.5t-67 34.5t-91.5 12q-41 0 -76 -8t-64 -21t-51 -28.5
t-38 -31.5l-10 12q18 17 41.5 33.5t53 29.5t65.5 21t80 8q56 0 99 -13.5t71.5 -38.5t40 -60t4.5 -78q-11 -67 -63 -111.5t-127 -58.5q36 -8 65 -26.5t48 -45t27 -60t1 -72.5q-16 -90 -85.5 -138t-187.5 -48z" />
    <glyph glyph-name="four.LT" unicode="&#xe544;" horiz-adv-x="638" 
d="M442 198h-402l-3 16l499 516h16l-91 -517h124l-3 -15h-123l-35 -198h-17zM444 213l86 487l-472 -487h386z" />
    <glyph glyph-name="five.LT" unicode="&#xe545;" horiz-adv-x="638" 
d="M263 -10q-37 0 -70.5 7t-62 20.5t-51 31.5t-37.5 41l14 9q29 -43 82.5 -68.5t124.5 -25.5q50 0 96 16.5t82.5 46.5t61.5 72t34 93q8 46 -1 90.5t-34.5 79t-67.5 56t-99 21.5q-69 0 -120 -23t-93 -68l-16 6l105 335h378l-2 -15h-365l-92 -299q39 37 89 58t118 21
q61 0 105.5 -23t71.5 -60.5t37 -84.5t1 -96q-10 -53 -35 -97t-63 -76t-86.5 -50t-104.5 -18z" />
    <glyph glyph-name="six.LT" unicode="&#xe546;" horiz-adv-x="638" 
d="M305 -9q-28 0 -56 6.5t-53.5 18.5t-46.5 30t-34 41q-15 23 -24.5 47.5t-13.5 54t-2 64.5t10 79q17 96 55 171.5t93 128t125 80.5t152 28q31 0 53.5 -3t45.5 -10l-6 -14q-21 6 -43 9t-50 3q-79 0 -146.5 -27t-120.5 -78t-89.5 -124.5t-53.5 -165.5l-5 -29q12 41 35.5 74
t55 56.5t69.5 36t79 12.5q59 0 105 -24t75.5 -63t41 -89t2.5 -102q-9 -48 -33 -86.5t-57.5 -66.5t-75.5 -43t-87 -15zM306 6q43 0 82 14.5t71 40.5t54 63t30 81q8 49 -3 96t-38.5 83.5t-70.5 58.5t-98 22q-42 0 -82 -15t-72 -41.5t-55 -63t-30 -80.5q-8 -42 1 -87.5
t35.5 -83.5t70 -63t105.5 -25z" />
    <glyph glyph-name="seven.LT" unicode="&#xe547;" horiz-adv-x="638" 
d="M619 715h-472l3 15h490l-2 -15l-478 -715h-21z" />
    <glyph glyph-name="eight.LT" unicode="&#xe548;" horiz-adv-x="638" 
d="M284 -10q-62 0 -107 19t-73.5 49.5t-39.5 70t-3 81.5q6 39 25 70t47 54t63.5 38t76.5 23q-26 7 -50.5 22.5t-42 38t-25.5 53t-1 67.5q6 35 23.5 65t46 52t67 34.5t88.5 12.5q54 0 93.5 -15.5t64 -41.5t34 -60.5t2.5 -72.5q-6 -33 -23 -60.5t-41 -48t-53 -33.5t-60 -18
q34 -9 64.5 -28.5t51.5 -47.5t30.5 -63.5t2.5 -75.5q-7 -39 -25.5 -73t-50.5 -58.5t-78 -39t-107 -14.5zM286 5q56 0 98.5 13t72.5 36.5t48 55t24 68.5q7 44 -5.5 82t-39.5 66t-66.5 44t-86.5 16q-55 0 -99 -14t-76.5 -38.5t-52.5 -57t-26 -68.5q-6 -38 3 -74.5t34.5 -65
t68.5 -46t103 -17.5zM333 398q45 0 83.5 11t68 31.5t48 48.5t24.5 62q6 35 -2 66.5t-30.5 55.5t-59 38t-87.5 14q-44 0 -80 -11.5t-62.5 -32t-43.5 -48t-23 -59.5q-7 -39 4 -71t34 -55.5t56 -36.5t70 -13z" />
    <glyph glyph-name="nine.LT" unicode="&#xe549;" horiz-adv-x="636" 
d="M195 -10q-42 0 -80 8.5t-67 23.5l10 14q26 -16 62 -23.5t75 -7.5q79 0 139.5 27t105 77.5t73.5 123.5t46 166l4 22q-12 -40 -35.5 -72t-55 -54.5t-69 -34.5t-77.5 -12q-59 0 -105 24t-76 63.5t-42 89.5t-3 102q9 48 33 87.5t58 67.5t76 43t87 15q57 0 108 -23.5t79 -70.5
q15 -23 25 -48t14.5 -55t3.5 -66t-9 -80q-17 -96 -48 -171.5t-77.5 -128t-109.5 -80t-145 -27.5zM327 264q42 0 82 15t72 41.5t54.5 63t29.5 80.5q8 42 -1 88t-35 84.5t-70 63.5t-106 25q-42 0 -81.5 -14.5t-71.5 -41t-54 -63.5t-30 -82q-9 -49 2.5 -96t39.5 -83.5t71 -58.5
t98 -22z" />
    <glyph glyph-name="zero.inf" unicode="&#xe571;" horiz-adv-x="439" 
d="M139 -217q-33 0 -61 10.5t-47 35t-25 65t5 100.5l3 18q10 57 29.5 96t44.5 63t54 35t60 11t59 -11t46.5 -35t25.5 -63t-4 -96l-4 -23q-12 -60 -31 -100t-43 -63.5t-52.5 -33t-59.5 -9.5zM139 -201q28 0 54 8t48 29.5t39 58.5t28 94l4 23q10 54 5.5 90.5t-20.5 58.5
t-41 31.5t-54 9.5t-56 -9.5t-49.5 -32t-39.5 -58.5t-27 -90l-3 -18q-11 -59 -5.5 -97t22 -60t42 -30t53.5 -8z" />
    <glyph glyph-name="one.inf" unicode="&#xe572;" horiz-adv-x="206" 
d="M24 -211l66 372q-10 -20 -31.5 -36.5t-59.5 -16.5h-6l3 16h3q30 0 48.5 9.5t30 23t16.5 28.5t7 26h15l-76 -422h-16z" />
    <glyph glyph-name="two.inf" unicode="&#xe573;" horiz-adv-x="399" 
d="M-20 -192q10 54 51.5 91t105.5 74q24 13 48 26.5t44 29t34.5 34t18.5 41.5q3 20 -2.5 38t-19 31.5t-34 21.5t-47.5 8q-34 0 -65 -15.5t-49 -39.5l-13 10q20 26 54.5 42.5t74.5 16.5q29 0 52.5 -9.5t39.5 -25t22.5 -36.5t2.5 -44q-5 -26 -19.5 -46t-35.5 -36.5t-46.5 -31
t-50.5 -28.5q-62 -36 -101.5 -70t-47.5 -83l-1 -4h251l-2 -14h-267z" />
    <glyph glyph-name="three.inf" unicode="&#xe574;" horiz-adv-x="356" 
d="M87 -217q-42 0 -73.5 15.5t-48.5 38.5l14 11q13 -21 42 -35.5t67 -14.5q51 0 86 25t43 70q4 24 -2.5 44t-21 34.5t-35 22.5t-44.5 8h-35l3 14h36q47 0 81.5 23t42.5 65q8 45 -21 72t-77 27q-34 0 -61.5 -11.5t-45.5 -28.5l-11 11q20 17 51 30t68 13q57 0 88.5 -32.5
t23.5 -82.5q-7 -36 -32.5 -61t-67.5 -33q38 -12 60.5 -43.5t14.5 -74.5q-9 -52 -47.5 -79.5t-97.5 -27.5z" />
    <glyph glyph-name="four.inf" unicode="&#xe575;" horiz-adv-x="392" 
d="M197 -113h-224l-1 14l282 310h15l-55 -310h74l-2 -14h-74l-17 -98h-15zM199 -99l51 284l-259 -284h208z" />
    <glyph glyph-name="five.inf" unicode="&#xe576;" horiz-adv-x="400" 
d="M113 -217q-49 0 -81 21t-46 54l14 8q14 -30 41.5 -49t73.5 -19q26 0 51 8.5t45 24t34.5 37.5t19.5 49q5 25 0 49t-19 43t-36 30t-52 11q-45 0 -77 -18.5t-55 -53.5l-16 5l69 228h223l-2 -15h-211l-57 -186q22 26 54 40.5t75 14.5q33 0 57.5 -12.5t40 -33.5t21.5 -48
t0 -55q-5 -29 -20 -53.5t-37 -42t-50 -27.5t-60 -10z" />
    <glyph glyph-name="six.inf" unicode="&#xe577;" horiz-adv-x="404" 
d="M130 -217q-34 0 -65 14.5t-48 42.5q-18 28 -22.5 60.5t4.5 84.5q20 114 84.5 172t159.5 58q33 0 58 -7l-4 -14q-12 3 -25 5t-29 2q-93 0 -151 -54t-78 -157q19 39 55 61t79 22q36 0 63 -14t44.5 -37.5t24 -53t1.5 -60.5q-12 -57 -54 -91t-97 -34zM130 -202q51 0 88.5 31
t46.5 82q5 28 -1 54.5t-21.5 47t-40 33t-55.5 12.5q-24 0 -46.5 -8.5t-41 -23.5t-31.5 -35.5t-17 -45.5q-5 -24 0 -49.5t20 -47.5t39.5 -36t59.5 -14z" />
    <glyph glyph-name="seven.inf" unicode="&#xe578;" horiz-adv-x="373" 
d="M282 197h-250l3 14h267l-3 -14l-247 -408h-18z" />
    <glyph glyph-name="eight.inf" unicode="&#xe579;" horiz-adv-x="385" 
d="M109 -217q-36 0 -62.5 10.5t-43 28.5t-23 40.5t-1.5 46.5q8 46 43.5 72.5t83.5 34.5q-16 4 -31 13t-25.5 22t-15.5 30.5t-1 38.5q3 20 14.5 38t29.5 31t41.5 20.5t50.5 7.5q29 0 52 -9.5t38.5 -25t22 -35.5t2.5 -41q-6 -37 -36.5 -61.5t-71.5 -30.5q43 -9 71 -40.5
t20 -80.5q-4 -21 -15.5 -41t-31 -35.5t-47 -24.5t-64.5 -9zM111 -202q33 0 57.5 8t41.5 21.5t27 30.5t13 36q4 25 -2.5 46t-22 36t-37.5 23.5t-48 8.5q-30 0 -55 -8.5t-44 -22t-30.5 -32t-15.5 -37.5q-3 -21 2.5 -41t20 -35t38 -24.5t55.5 -9.5zM141 23q53 0 88 25t40 59
q7 38 -20 66.5t-82 28.5q-48 0 -80.5 -24t-39.5 -59q-4 -21 2.5 -38.5t20 -30t32.5 -20t39 -7.5z" />
    <glyph glyph-name="nine.inf" unicode="&#xe57a;" horiz-adv-x="387" 
d="M87 -217q-28 0 -50 7t-35 15l12 15q14 -11 31.5 -16.5t44.5 -5.5q41 0 71.5 15.5t52.5 44t36.5 68t22.5 88.5q-17 -33 -51 -54.5t-73 -21.5q-32 0 -58.5 12.5t-43.5 34t-24.5 50t-1.5 60.5q10 55 51 88.5t94 33.5q35 0 62 -15t45 -41q10 -14 15 -29t6.5 -32t-1 -38
t-6.5 -48q-8 -53 -23.5 -95.5t-40 -72.5t-58 -46.5t-78.5 -16.5zM149 -47q24 0 46 8t39 22.5t29 34.5t16 43q4 28 -2 54t-21 45t-38 30.5t-52 11.5q-48 0 -85 -31t-46 -79q-5 -27 1 -52t21 -44.5t38.5 -31t53.5 -11.5z" />
    <glyph glyph-name="plus.inf" unicode="&#xe57b;" horiz-adv-x="311" 
d="M-5 7h100l18 99h14l-17 -99h99l-3 -14h-99l-17 -100h-15l18 100h-100z" />
    <glyph glyph-name="minus.inf" unicode="&#xe57c;" horiz-adv-x="311" 
d="M-5 7h214l-3 -14h-213z" />
    <glyph glyph-name="equal.inf" unicode="&#xe57d;" horiz-adv-x="311" 
d="M4 52h213l-2 -14h-214zM-13 -40h214l-3 -14h-214z" />
    <glyph glyph-name="parenleft.inf" unicode="&#xe57e;" horiz-adv-x="332" 
d="M154 -325q-33 21 -61 56.5t-46 81t-24.5 99t4.5 111.5q10 59 35.5 109t58.5 88.5t69.5 65.5t69.5 41l7 -13q-33 -13 -68.5 -40t-67 -64.5t-55.5 -85t-34 -102.5q-10 -56 -4 -107.5t23 -95t43.5 -77.5t58.5 -55z" />
    <glyph glyph-name="parenright.inf" unicode="&#xe57f;" horiz-adv-x="332" 
d="M75 327q33 -21 61.5 -56.5t48 -81.5t26 -99.5t-3.5 -111.5q-11 -60 -34.5 -110t-55.5 -88.5t-69 -65.5t-73 -42l-7 13q35 14 71 41t66.5 64.5t53.5 85t33 103.5t3.5 107.5t-25 95t-46 78t-58.5 55.5z" />
    <glyph glyph-name="Anocross" unicode="&#xe731;" horiz-adv-x="736" 
d="M441 730h17l172 -730h-18l-165 710l-415 -710h-19z" />
    <glyph glyph-name="idotaccent" unicode="&#xe785;" horiz-adv-x="188" 
d="M38 0l96 540h16l-96 -540h-16zM169 684q-12 0 -18.5 8.5t-3.5 19.5q2 9 9 14.5t17 5.5q13 0 18 -8.5t3 -19.5q-2 -8 -8.5 -14t-16.5 -6z" />
    <glyph glyph-name="ohm" unicode="&#xe821;" horiz-adv-x="861" 
d="M453 16q58 46 108.5 91t89.5 93t66 101.5t39 116.5q11 57 -1.5 112t-47 98.5t-90 70t-129.5 26.5q-63 0 -119.5 -23.5t-101.5 -65t-76 -97.5t-43 -122q-11 -62 -1 -117.5t33.5 -105.5t55 -94t63.5 -84l-12 -16h-298l3 16h284q-30 40 -61 84.5t-53.5 94.5t-32.5 105.5
t1 116.5q12 68 44 127.5t79 103t107 68.5t129 25q77 0 135.5 -28t95.5 -74t51.5 -104t2.5 -118q-11 -64 -38 -118t-66 -102t-88 -92.5t-103 -88.5h289l-3 -16h-300z" />
    <glyph glyph-name="aacute.alt" unicode="&#xe891;" horiz-adv-x="620" 
d="M205 -6q-52 0 -88 13.5t-57.5 36t-29 52.5t-1.5 62q14 78 85 110t195 32h222l7 39q8 45 -2 81t-36.5 62t-69 40t-97.5 14q-69 0 -128.5 -22.5t-104.5 -75.5l-14 12q48 51 110 76t136 25q58 0 102.5 -15.5t73.5 -43t40.5 -66.5t3.5 -87l-59 -339h-15l27 155
q-21 -38 -53 -68t-71 -50.5t-83.5 -31.5t-92.5 -11zM208 9q43 0 87 10.5t83.5 31.5t73.5 53t57 74l19 108h-220q-112 0 -180.5 -28.5t-81.5 -101.5q-5 -29 1.5 -55.5t25.5 -46.5t52.5 -32.5t82.5 -12.5zM486 773h25l-154 -140h-20z" />
    <glyph glyph-name="agrave.alt" unicode="&#xe892;" horiz-adv-x="620" 
d="M205 -6q-52 0 -88 13.5t-57.5 36t-29 52.5t-1.5 62q14 78 85 110t195 32h222l7 39q8 45 -2 81t-36.5 62t-69 40t-97.5 14q-69 0 -128.5 -22.5t-104.5 -75.5l-14 12q48 51 110 76t136 25q58 0 102.5 -15.5t73.5 -43t40.5 -66.5t3.5 -87l-59 -339h-15l27 155
q-21 -38 -53 -68t-71 -50.5t-83.5 -31.5t-92.5 -11zM208 9q43 0 87 10.5t83.5 31.5t73.5 53t57 74l19 108h-220q-112 0 -180.5 -28.5t-81.5 -101.5q-5 -29 1.5 -55.5t25.5 -46.5t52.5 -32.5t82.5 -12.5zM248 768h23l99 -140h-16z" />
    <glyph glyph-name="acircumflex.alt" unicode="&#xe893;" horiz-adv-x="620" 
d="M205 -6q-52 0 -88 13.5t-57.5 36t-29 52.5t-1.5 62q14 78 85 110t195 32h222l7 39q8 45 -2 81t-36.5 62t-69 40t-97.5 14q-69 0 -128.5 -22.5t-104.5 -75.5l-14 12q48 51 110 76t136 25q58 0 102.5 -15.5t73.5 -43t40.5 -66.5t3.5 -87l-59 -339h-15l27 155
q-21 -38 -53 -68t-71 -50.5t-83.5 -31.5t-92.5 -11zM208 9q43 0 87 10.5t83.5 31.5t73.5 53t57 74l19 108h-220q-112 0 -180.5 -28.5t-81.5 -101.5q-5 -29 1.5 -55.5t25.5 -46.5t52.5 -32.5t82.5 -12.5zM371 768h15l95 -140h-19l-85 125l-127 -125h-22z" />
    <glyph glyph-name="adieresis.alt" unicode="&#xe894;" horiz-adv-x="620" 
d="M205 -6q-52 0 -88 13.5t-57.5 36t-29 52.5t-1.5 62q14 78 85 110t195 32h222l7 39q8 45 -2 81t-36.5 62t-69 40t-97.5 14q-69 0 -128.5 -22.5t-104.5 -75.5l-14 12q48 51 110 76t136 25q58 0 102.5 -15.5t73.5 -43t40.5 -66.5t3.5 -87l-59 -339h-15l27 155
q-21 -38 -53 -68t-71 -50.5t-83.5 -31.5t-92.5 -11zM208 9q43 0 87 10.5t83.5 31.5t73.5 53t57 74l19 108h-220q-112 0 -180.5 -28.5t-81.5 -101.5q-5 -29 1.5 -55.5t25.5 -46.5t52.5 -32.5t82.5 -12.5zM299 643q-11 0 -17.5 8t-4.5 19q2 9 9 15t17 6q13 0 18 -8.5t3 -19.5
q-2 -8 -8.5 -14t-16.5 -6zM420 643q-11 0 -17.5 8t-4.5 19q2 9 9 15t17 6q13 0 18 -8.5t3 -19.5q-2 -8 -8.5 -14t-16.5 -6z" />
    <glyph glyph-name="amacron.alt" unicode="&#xe895;" horiz-adv-x="620" 
d="M205 -6q-52 0 -88 13.5t-57.5 36t-29 52.5t-1.5 62q14 78 85 110t195 32h222l7 39q8 45 -2 81t-36.5 62t-69 40t-97.5 14q-69 0 -128.5 -22.5t-104.5 -75.5l-14 12q48 51 110 76t136 25q58 0 102.5 -15.5t73.5 -43t40.5 -66.5t3.5 -87l-59 -339h-15l27 155
q-21 -38 -53 -68t-71 -50.5t-83.5 -31.5t-92.5 -11zM208 9q43 0 87 10.5t83.5 31.5t73.5 53t57 74l19 108h-220q-112 0 -180.5 -28.5t-81.5 -101.5q-5 -29 1.5 -55.5t25.5 -46.5t52.5 -32.5t82.5 -12.5zM239 680h264l-3 -15h-264z" />
    <glyph glyph-name="abreve.alt" unicode="&#xe896;" horiz-adv-x="620" 
d="M205 -6q-52 0 -88 13.5t-57.5 36t-29 52.5t-1.5 62q14 78 85 110t195 32h222l7 39q8 45 -2 81t-36.5 62t-69 40t-97.5 14q-69 0 -128.5 -22.5t-104.5 -75.5l-14 12q48 51 110 76t136 25q58 0 102.5 -15.5t73.5 -43t40.5 -66.5t3.5 -87l-59 -339h-15l27 155
q-21 -38 -53 -68t-71 -50.5t-83.5 -31.5t-92.5 -11zM208 9q43 0 87 10.5t83.5 31.5t73.5 53t57 74l19 108h-220q-112 0 -180.5 -28.5t-81.5 -101.5q-5 -29 1.5 -55.5t25.5 -46.5t52.5 -32.5t82.5 -12.5zM357 626q-36 0 -64.5 13t-47 33.5t-26 46.5t-2.5 52h16
q-4 -23 2.5 -46t22.5 -42t41.5 -30.5t60.5 -11.5q37 0 65.5 11.5t48.5 30.5t32.5 42t16.5 46h17q-5 -26 -18.5 -52t-36 -46.5t-54.5 -33.5t-74 -13z" />
    <glyph glyph-name="aring.alt" unicode="&#xe897;" horiz-adv-x="620" 
d="M205 -6q-52 0 -88 13.5t-57.5 36t-29 52.5t-1.5 62q14 78 85 110t195 32h222l7 39q8 45 -2 81t-36.5 62t-69 40t-97.5 14q-69 0 -128.5 -22.5t-104.5 -75.5l-14 12q48 51 110 76t136 25q58 0 102.5 -15.5t73.5 -43t40.5 -66.5t3.5 -87l-59 -339h-15l27 155
q-21 -38 -53 -68t-71 -50.5t-83.5 -31.5t-92.5 -11zM208 9q43 0 87 10.5t83.5 31.5t73.5 53t57 74l19 108h-220q-112 0 -180.5 -28.5t-81.5 -101.5q-5 -29 1.5 -55.5t25.5 -46.5t52.5 -32.5t82.5 -12.5zM357 617q-18 0 -33 7t-25.5 20t-15 29.5t-1.5 36.5q6 32 31.5 53.5
t57.5 21.5q20 0 36 -8t26 -21t14 -29.5t1 -32.5q-6 -32 -31 -54.5t-60 -22.5zM359 632q27 0 48 19t26 45q5 28 -12 51t-51 23q-26 0 -47 -18t-26 -45q-5 -29 11.5 -52t50.5 -23z" />
    <glyph glyph-name="atilde.alt" unicode="&#xe898;" horiz-adv-x="620" 
d="M205 -6q-52 0 -88 13.5t-57.5 36t-29 52.5t-1.5 62q14 78 85 110t195 32h222l7 39q8 45 -2 81t-36.5 62t-69 40t-97.5 14q-69 0 -128.5 -22.5t-104.5 -75.5l-14 12q48 51 110 76t136 25q58 0 102.5 -15.5t73.5 -43t40.5 -66.5t3.5 -87l-59 -339h-15l27 155
q-21 -38 -53 -68t-71 -50.5t-83.5 -31.5t-92.5 -11zM208 9q43 0 87 10.5t83.5 31.5t73.5 53t57 74l19 108h-220q-112 0 -180.5 -28.5t-81.5 -101.5q-5 -29 1.5 -55.5t25.5 -46.5t52.5 -32.5t82.5 -12.5zM181 637q7 36 32 60t59 24q27 0 49 -11.5t45 -25.5t43 -25.5t48 -11.5
q29 0 49 18t27 53h16q-8 -42 -33 -63.5t-60 -21.5q-30 0 -53.5 12t-45.5 26q-21 14 -41.5 25t-45.5 11q-26 0 -46.5 -19t-26.5 -51h-16z" />
    <glyph glyph-name="aogonek.alt" unicode="&#xe899;" horiz-adv-x="620" 
d="M478 -194q-23 0 -41.5 7.5t-31.5 20t-18.5 29.5t-2.5 36q7 34 28.5 58.5t66.5 51.5l26 146q-21 -38 -53 -68t-71 -50.5t-83.5 -31.5t-92.5 -11q-52 0 -88 13.5t-57.5 36t-29 52.5t-1.5 62q14 78 85 110t195 32h222l7 39q8 45 -2 81t-36.5 62t-69 40t-97.5 14
q-69 0 -128.5 -22.5t-104.5 -75.5l-14 12q48 51 110 76t136 25q58 0 102.5 -15.5t73.5 -43t40.5 -66.5t3.5 -87l-59 -339q-43 -26 -65.5 -50.5t-27.5 -53.5q-5 -31 17.5 -53.5t63.5 -22.5q28 0 51.5 7t43.5 19l9 -12q-22 -12 -48.5 -20t-58.5 -8zM208 9q43 0 87 10.5
t83.5 31.5t73.5 53t57 74l19 108h-220q-112 0 -180.5 -28.5t-81.5 -101.5q-5 -29 1.5 -55.5t25.5 -46.5t52.5 -32.5t82.5 -12.5z" />
    <glyph glyph-name="ordfeminine.alt" unicode="&#xe926;" horiz-adv-x="457" 
d="M224 414q-63 0 -88 29t-17 67q8 46 52.5 65t116.5 19h127l4 21q10 50 -20 79.5t-94 29.5q-41 0 -75 -12.5t-61 -42.5l-11 10q60 58 146 58q34 0 60 -9t43 -25t23.5 -38.5t1.5 -49.5l-36 -197h-14l16 88q-25 -45 -72 -68.5t-102 -23.5zM226 427q25 0 50.5 6t49 18.5t43 31
t33.5 43.5l11 56h-127q-62 0 -103.5 -16t-49.5 -57q-7 -34 14.5 -58t78.5 -24z" />
    <glyph glyph-name="interrobangdown" unicode="&#xe935;" horiz-adv-x="521" 
d="M213 -240q-41 0 -78.5 12.5t-63.5 36t-38.5 58t-4.5 78.5q7 39 24.5 64.5t39.5 45t47.5 38t49.5 45t43.5 65t30.5 98.5l9 55h18l-9 -55l-73 -414l-19 -110q6 -1 12.5 -1.5t13.5 -0.5q44 0 81 14t66 40l12 -10q-31 -29 -72 -44t-89 -15zM44 -59q-6 -34 1.5 -61.5t25.5 -48
t44 -34t57 -18.5l19 108q7 38 15 82t16 87.5t16 83.5t14 71q-15 -38 -35 -63.5t-41.5 -45t-42.5 -35.5t-39 -33.5t-31 -39t-19 -53.5zM301 504q11 0 17.5 -8t4.5 -19q-2 -9 -9 -15t-17 -6q-13 0 -18 8.5t-3 19.5q2 8 8.5 14t16.5 6z" />
    <glyph glyph-name="interrobangdown.cap" unicode="&#xe99b;" horiz-adv-x="521" 
d="M251 -10q-41 0 -78.5 12.5t-63.5 36t-38.5 58t-4.5 78.5q7 39 24.5 64.5t39.5 45t47.5 38t49.5 45t43.5 65t30.5 98.5l9 55h18l-9 -55l-73 -414l-19 -111q6 -1 12.5 -1h13.5q44 0 81 14t66 40l12 -10q-31 -29 -72 -44t-89 -15zM82 171q-6 -34 1.5 -61.5t25.5 -48.5
t44 -34t57 -19l19 109q7 38 15 82t16 87.5t16 83.5t14 71q-16 -38 -35.5 -63.5t-41 -45t-42.5 -35.5t-39 -33.5t-31 -39t-19 -53.5zM335 686q-13 0 -18 8.5t-3 19.5q2 8 8.5 14t16.5 6q11 0 17.5 -8t4.5 -19q-2 -9 -9 -15t-17 -6z" />
    <glyph glyph-name="registered.cap" unicode="&#xe99c;" horiz-adv-x="909" 
d="M451 -10q-87 0 -157.5 33.5t-117 90.5t-66 133.5t-4.5 162.5q13 73 49.5 134t89 104.5t116.5 67.5t133 24q85 0 155 -34t116.5 -92.5t66 -135.5t4.5 -163q-13 -74 -49.5 -133.5t-88 -102.5t-115.5 -66t-132 -23zM452 5q65 0 126 23t110.5 64.5t84.5 99t47 126.5
q13 73 -2.5 146t-58 131t-110 94t-156.5 36q-66 0 -127.5 -23.5t-111.5 -66t-85 -101t-47 -128.5q-14 -77 3.5 -149t61 -128t111 -90t154.5 -34zM381 554h149q25 0 46 -10t35.5 -27.5t21 -40t2.5 -46.5q-8 -43 -40.5 -72t-77.5 -29h-28l94 -149h-19l-103 164h56q38 0 67 25
t36 63q3 21 -2.5 40.5t-18 34t-31 23t-41.5 9.5h-133l-62 -359h-17z" />
    </font>
</defs>
</svg>
