<?xml version="1.0" standalone="no"?>
<!DOCTYPE svg PUBLIC "-//W3C//DTD SVG 1.1//EN" "http://www.w3.org/Graphics/SVG/1.1/DTD/svg11.dtd" >
<svg xmlns="http://www.w3.org/2000/svg" xmlns:xlink="http://www.w3.org/1999/xlink" version="1.1">
<metadata>
Created by FontForge 20170731 at Sat Aug 20 04:21:40 2016
 By Aleksey,,,
Copyright (c) 2016 by Lucas Sharp. All rights reserved.
</metadata>
<defs>
<font id="SharpSans-LightItalic" horiz-adv-x="638" >
  <font-face 
    font-family="Sharp Sans Light"
    font-weight="300"
    font-style="italic"
    font-stretch="normal"
    units-per-em="1000"
    panose-1="0 0 0 0 0 0 0 0 0 0"
    ascent="800"
    descent="-200"
    x-height="540"
    cap-height="730"
    bbox="-139 -310 1371 1095"
    underline-thickness="50"
    underline-position="-150"
    unicode-range="U+000D-F472"
  />
<missing-glyph horiz-adv-x="731" 
d="M177 730h539l-128 -730h-539zM92 35h464l116 660h-464z" />
    <glyph glyph-name=".notdef" horiz-adv-x="731" 
d="M177 730h539l-128 -730h-539zM92 35h464l116 660h-464z" />
    <glyph glyph-name=".null" horiz-adv-x="0" 
 />
    <glyph glyph-name="nonmarkingreturn" unicode="&#xd;" horiz-adv-x="233" 
 />
    <glyph glyph-name="NULL" horiz-adv-x="0" 
 />
    <glyph glyph-name="NULL" horiz-adv-x="0" 
 />
    <glyph glyph-name="space" unicode=" " horiz-adv-x="233" 
 />
    <glyph glyph-name="exclam" unicode="!" horiz-adv-x="263" 
d="M98 173q4 29 12.5 82.5t18.5 116t20.5 127t19.5 114.5l20 117h38l-20 -117q-9 -50 -21 -114.5t-24.5 -127t-23 -116t-16.5 -82.5h-24zM82 -8q-19 0 -29 13t-6 31q2 14 14 23.5t26 9.5q20 0 29 -13.5t6 -30.5q-3 -14 -13.5 -23.5t-26.5 -9.5z" />
    <glyph glyph-name="quotedbl" unicode="&#x22;" horiz-adv-x="288" 
d="M126 500q0 10 2 29.5t4.5 41.5t5 42.5t4.5 32.5l15 84h32l-15 -84q-2 -12 -6.5 -33t-9.5 -42.5t-10 -41t-8 -29.5h-14zM223 500q0 10 2 29.5t4.5 41.5t5 42.5t4.5 32.5l15 84h32l-15 -84q-2 -12 -6.5 -33t-9.5 -42.5t-10 -41t-8 -29.5h-14z" />
    <glyph glyph-name="numbersign" unicode="#" horiz-adv-x="856" 
d="M539 221h-238l-39 -221h-37l39 221h-203l6 35h203l40 229h-202l6 35h202l37 210h37l-37 -210h238l37 210h38l-37 -210h205l-6 -35h-205l-40 -229h205l-6 -35h-205l-39 -221h-38zM307 256h238l40 229h-238z" />
    <glyph glyph-name="dollar" unicode="$" horiz-adv-x="599" 
d="M266 -10l-17 -100h-34l18 102q-69 8 -116 43t-76 81l32 23q24 -41 65 -72t101 -39l61 347q-31 14 -62.5 32t-56 43t-37 59t-4.5 81q6 33 23 60.5t44 47.5t63 31t79 11q4 0 7 -0.5t7 -0.5l17 97h34l-18 -100q51 -8 93 -34.5t69 -69.5l-31 -22q-23 40 -58 62t-79 30
l-54 -304q34 -17 67 -38t57.5 -48.5t36.5 -64.5t3 -85q-7 -39 -27 -71t-50 -54.5t-69.5 -34.5t-84.5 -12h-3zM462 164q7 38 -1 67.5t-26.5 52.5t-45.5 41.5t-58 34.5l-58 -334q75 0 126.5 38.5t62.5 99.5zM177 584q-6 -35 3.5 -61.5t29 -46.5t45 -35.5t51.5 -28.5l51 294
h-11q-72 0 -115.5 -34t-53.5 -88z" />
    <glyph glyph-name="percent" unicode="%" horiz-adv-x="879" 
d="M814 730h48l-755 -730h-48zM295 414q-37 0 -67.5 14.5t-50.5 39.5t-28.5 58.5t-2.5 70.5q6 31 21.5 57.5t38.5 45.5t51.5 29.5t58.5 10.5q37 0 67.5 -15t51 -40t29 -58t1.5 -70q-6 -32 -21.5 -58t-38 -45t-51 -29.5t-59.5 -10.5zM297 446q24 0 47 8.5t41.5 24t31 36.5
t17.5 46q4 28 -2 54.5t-21.5 47.5t-40 33.5t-56.5 12.5q-25 0 -47.5 -9t-41 -24.5t-31 -37t-16.5 -46.5q-5 -28 1.5 -54t22 -46.5t40 -33t55.5 -12.5zM601 -11q-38 0 -68 14.5t-50.5 39.5t-28.5 58.5t-2 70.5q6 31 21.5 57.5t38.5 46t51.5 30t58.5 10.5q37 0 67.5 -15
t50.5 -40t29 -58.5t2 -70.5q-6 -32 -21.5 -58t-38.5 -45t-51 -29.5t-59 -10.5zM603 21q24 0 47 8.5t41.5 24t31 36.5t16.5 46q5 28 -1 54.5t-22 47.5t-40.5 33.5t-55.5 12.5q-25 0 -48 -8.5t-41 -24t-30.5 -37t-16.5 -46.5q-5 -28 1.5 -54.5t22 -47t40 -33t55.5 -12.5z" />
    <glyph glyph-name="ampersand" unicode="&#x26;" horiz-adv-x="806" 
d="M245 -11q-49 0 -87 16.5t-62.5 45t-34.5 66.5t-3 80t32 73.5t60 56.5t77.5 45.5t85.5 39.5q-41 54 -61.5 100t-11.5 96q10 57 54.5 94.5t114.5 37.5q37 0 67 -13t50 -35t28.5 -51.5t2.5 -62.5q-6 -32 -23.5 -57.5t-43.5 -46.5t-58 -38.5t-67 -33.5l9 -11l157 -185
l209 233h44l-231 -256l157 -183h-43l-136 158q-32 -36 -64.5 -66.5t-67 -53.5t-72.5 -36t-82 -13zM249 22q39 0 72.5 12.5t65 34t61.5 50.5t61 62l-163 192l-13 14q-41 -19 -81 -38t-73 -41.5t-56 -50.5t-29 -64t2.5 -67t29.5 -54t52.5 -36.5t70.5 -13.5zM275 605
q-8 -42 9.5 -83.5t59.5 -95.5q33 15 63 31t54 34.5t40 40.5t21 49q4 25 -2 48t-21 40.5t-38.5 27.5t-54.5 10q-55 0 -89 -27.5t-42 -74.5z" />
    <glyph glyph-name="quotesingle" unicode="'" horiz-adv-x="191" 
d="M126 500q0 10 2 29.5t4.5 41.5t5 42.5t4.5 32.5l15 84h32l-15 -84q-2 -12 -6.5 -33t-9.5 -42.5t-10 -41t-8 -29.5h-14v0z" />
    <glyph glyph-name="parenleft" unicode="(" horiz-adv-x="436" 
d="M273 -236q-49 35 -90 89t-68 122.5t-36 149t6 169.5q16 89 53 163.5t86 133t105.5 100t111.5 64.5l17 -30q-55 -24 -109 -64t-99.5 -95t-79 -124.5t-48.5 -152.5q-14 -83 -6.5 -158t32 -139t63.5 -115t88 -86z" />
    <glyph glyph-name="parenright" unicode=")" horiz-adv-x="436" 
d="M155 754q49 -35 90 -88.5t68 -122t36.5 -149t-6.5 -168.5q-16 -89 -52.5 -164.5t-85 -134.5t-104.5 -101t-111 -65l-17 30q55 24 108.5 64.5t98.5 96.5t78.5 126t48.5 153q14 83 6 158t-32.5 138t-63.5 114t-88 86z" />
    <glyph glyph-name="asterisk" unicode="*" horiz-adv-x="458" 
d="M279 540l-19 -164h-36l38 164l-151 -91l-14 32l160 73l-134 74l23 31l121 -91l19 162h36l-38 -161l150 89l14 -32l-159 -72l132 -72l-23 -31z" />
    <glyph glyph-name="plus" unicode="+" horiz-adv-x="496" 
d="M76 382h170l29 167h32l-29 -167h168l-6 -33h-168l-30 -170h-32l30 170h-170z" />
    <glyph glyph-name="comma" unicode="," horiz-adv-x="197" 
d="M-10 -107q34 17 58 47t29 59q1 14 -2 24q-6 -27 -32 -27q-14 0 -22.5 10.5t-5.5 26.5q2 16 14.5 26t30.5 10q24 0 36.5 -19t7.5 -51q-7 -39 -35 -71.5t-68 -54.5z" />
    <glyph glyph-name="hyphen" unicode="-" horiz-adv-x="496" 
d="M67 272h370l-6 -32h-370z" />
    <glyph glyph-name="period" unicode="." horiz-adv-x="197" 
d="M49 -8q-18 0 -28 13t-6 31q2 14 13.5 23.5t26.5 9.5q20 0 29 -13.5t6 -30.5q-3 -14 -14 -23.5t-27 -9.5z" />
    <glyph glyph-name="slash" unicode="/" horiz-adv-x="462" 
d="M458 730h42l-473 -730h-43z" />
    <glyph glyph-name="zero" unicode="0" horiz-adv-x="692" 
d="M317 -10q-63 0 -112 20t-79.5 64.5t-40 114.5t8.5 170l7 41q17 95 48 160t72 105t90 57.5t102 17.5q55 0 102.5 -18t79 -60.5t43 -112t-5.5 -171.5l-8 -44q-17 -96 -47 -161.5t-69.5 -106t-88 -58.5t-102.5 -18zM319 25q43 0 84.5 15.5t77 52.5t63.5 96.5t43 148.5l8 45
q16 94 7 156t-36 99t-68 52.5t-87 15.5t-88.5 -16t-78.5 -53t-63.5 -96.5t-43.5 -147.5l-6 -35q-17 -93 -9 -157t34.5 -103t68.5 -56t94 -17z" />
    <glyph glyph-name="one" unicode="1" horiz-adv-x="366" 
d="M290 614q-27 -44 -75 -72t-111 -28h-11l7 36h5q42 0 77 14t62 38.5t44.5 57t23.5 70.5h36l-128 -730h-38z" />
    <glyph glyph-name="two" unicode="2" horiz-adv-x="596" 
d="M29 41q7 40 31 76t58.5 68.5t76.5 62t86 56.5q43 28 85.5 54.5t77.5 55t59 60t30 67.5q7 36 -3 66.5t-33 53t-57 35t-76 12.5q-63 0 -117 -28t-86 -73l-31 17q38 53 99.5 84.5t137.5 31.5q50 0 90.5 -15.5t68 -43t39.5 -65t5 -80.5q-8 -42 -33.5 -77t-62.5 -66t-82 -59.5
t-90 -57.5q-42 -26 -81 -53t-71 -56t-54 -60.5t-28 -66.5l-1 -4h419l-7 -36h-457z" />
    <glyph glyph-name="three" unicode="3" horiz-adv-x="583" 
d="M246 -10q-40 0 -76 8t-66 22.5t-53 33t-35 39.5l31 20q26 -42 80 -65.5t122 -23.5q84 0 142 41t72 116q7 40 -3 73.5t-33 57.5t-57.5 37.5t-76.5 13.5h-80l5 34h78q40 0 76.5 10.5t65.5 30t49 47.5t26 63q6 37 -4 67t-33 51t-57 32t-75 11q-70 0 -119.5 -23.5
t-81.5 -58.5l-26 21q35 38 91.5 65t136.5 27q51 0 92 -14t68.5 -40t39 -62t4.5 -80q-11 -62 -55.5 -105t-115.5 -61q33 -11 58.5 -30t41.5 -45t22 -58t0 -69q-8 -45 -30 -79.5t-55 -58t-76 -36t-93 -12.5z" />
    <glyph glyph-name="four" unicode="4" horiz-adv-x="594" 
d="M405 188h-373l3 35l465 507h37l-89 -508h108l-7 -34h-107l-33 -188h-37zM411 222l80 451l-414 -451h334z" />
    <glyph glyph-name="five" unicode="5" horiz-adv-x="597" 
d="M244 -10q-77 0 -134.5 33.5t-83.5 84.5l34 17q25 -46 72 -73.5t112 -27.5q45 0 85 14.5t71.5 40.5t52 63t28.5 81q8 45 1 85t-29 71t-58.5 49t-87.5 18q-57 0 -100.5 -18t-78.5 -54l-32 15l107 341h365l-5 -34h-336l-85 -273q33 26 75 41t97 15q58 0 100.5 -21t68.5 -57
t35 -83.5t0 -99.5q-9 -49 -32.5 -91t-59 -72.5t-82 -47.5t-100.5 -17z" />
    <glyph glyph-name="six" unicode="6" horiz-adv-x="660" 
d="M327 -10q-61 0 -115.5 27t-83.5 75q-32 51 -40.5 116.5t8.5 158.5q16 94 52 164t86 116.5t113 69.5t135 23q53 0 85 -9t61 -26l-24 -31q-24 16 -53 24t-71 8q-64 0 -121 -21t-102.5 -63t-78 -106t-47.5 -150l-5 -25q13 33 36.5 60.5t53.5 47.5t66 31t76 11
q61 0 108.5 -23.5t77.5 -63t42 -90.5t3 -106q-9 -48 -32 -88t-57 -69t-78 -45t-95 -16zM330 23q42 0 79.5 14t67 39t49.5 59.5t28 76.5q8 47 -2.5 91.5t-36.5 79t-66.5 55t-93.5 20.5q-43 0 -81.5 -14t-69 -38.5t-51.5 -59t-28 -74.5q-8 -41 1 -85t34 -80.5t67.5 -60
t102.5 -23.5z" />
    <glyph glyph-name="seven" unicode="7" horiz-adv-x="606" 
d="M579 696h-447l7 34h486l-5 -32l-457 -698h-44z" />
    <glyph glyph-name="eight" unicode="8" horiz-adv-x="652" 
d="M293 -10q-64 0 -113 17.5t-81 48t-45 71t-5 85.5q12 71 66 117t135 66q-28 10 -51 26t-38 38.5t-21 50.5t0 62q6 36 25.5 66.5t51 53t74.5 35.5t96 13q57 0 100.5 -16t71 -43t39 -62.5t4.5 -74.5q-11 -63 -56 -102.5t-110 -54.5q36 -12 65 -31t48 -45.5t26.5 -58.5
t1.5 -69q-7 -41 -28.5 -76t-56.5 -61t-85 -41t-114 -15zM297 24q55 0 97.5 12.5t73.5 34t49 51.5t24 65q7 40 -5 74.5t-39.5 59.5t-69.5 39.5t-96 14.5t-96.5 -13t-74 -35.5t-50.5 -53.5t-25 -66q-6 -36 4.5 -69t37 -58.5t69 -40.5t101.5 -15zM350 406q93 0 149.5 38.5
t67.5 101.5q6 33 -3 62.5t-32 51t-60.5 34.5t-88.5 13q-46 0 -82.5 -11t-62.5 -29.5t-42 -44t-21 -55.5q-6 -36 4.5 -65.5t34.5 -51t59 -33t77 -11.5z" />
    <glyph glyph-name="nine" unicode="9" horiz-adv-x="647" 
d="M247 -10q-63 0 -106.5 15.5t-72.5 40.5l27 29q26 -23 64 -37t92 -14q120 0 194.5 90t102.5 252l4 27q-13 -30 -34.5 -55.5t-50 -45t-63 -30.5t-73.5 -11q-59 0 -105 22t-76 60t-42 87.5t-3 105.5q9 47 31.5 86t55.5 67.5t76 44.5t92 16q63 0 113.5 -27t80.5 -73
q33 -52 38 -118t-11 -159q-30 -177 -113 -275t-221 -98zM334 285q42 0 79 13.5t66.5 37.5t49 57t26.5 72q8 45 -1.5 88.5t-35 77.5t-66 55t-94.5 21q-40 0 -76.5 -13.5t-65.5 -38.5t-49 -59t-27 -74q-8 -46 2.5 -88.5t36 -75.5t65 -53t90.5 -20z" />
    <glyph glyph-name="colon" unicode=":" horiz-adv-x="196" 
d="M49 -8q-18 0 -28 13t-6 31q2 14 13.5 23.5t26.5 9.5q20 0 29 -13.5t6 -30.5q-3 -14 -14 -23.5t-27 -9.5zM127 429q-19 0 -29 13t-6 30q2 15 14 24.5t26 9.5q20 0 29 -13.5t6 -30.5q-3 -14 -13.5 -23.5t-26.5 -9.5z" />
    <glyph glyph-name="semicolon" unicode=";" horiz-adv-x="197" 
d="M-10 -107q34 17 58 47t29 59q1 14 -2 24q-6 -27 -32 -27q-14 0 -22.5 10.5t-5.5 26.5q2 16 14.5 26t30.5 10q24 0 36.5 -19t7.5 -51q-7 -39 -35 -71.5t-68 -54.5zM127 429q-19 0 -29 13t-6 30q2 15 14 24.5t26 9.5q20 0 29 -13.5t6 -30.5q-3 -14 -13.5 -23.5t-26.5 -9.5z
" />
    <glyph glyph-name="less" unicode="&#x3c;" horiz-adv-x="496" 
d="M71 351l6 33l395 144l-7 -36l-350 -126l306 -129l-7 -34z" />
    <glyph glyph-name="equal" unicode="=" horiz-adv-x="496" 
d="M91 460h370l-6 -33h-370zM62 300h370l-6 -33h-370z" />
    <glyph glyph-name="greater" unicode="&#x3e;" horiz-adv-x="496" 
d="M53 239l351 125l-307 129l7 34l342 -148l-6 -33l-394 -144z" />
    <glyph glyph-name="question" unicode="?" horiz-adv-x="529" 
d="M199 199q11 62 33 103t49.5 68.5t57.5 46t56 37.5t45.5 41.5t25.5 58.5t-4 65t-31.5 48.5t-53 30t-67.5 10.5q-43 0 -81.5 -15.5t-65.5 -41.5l-25 25q32 29 78 46.5t97 17.5q44 0 82 -13.5t65 -38t39 -60t4 -78.5q-7 -41 -27 -66.5t-46.5 -45t-56.5 -38t-57.5 -44
t-49 -62.5t-31.5 -95l-6 -31h-35zM185 -9q-18 0 -28 13.5t-6 30.5q2 15 13.5 24.5t26.5 9.5q20 0 29 -13.5t6 -30.5q-3 -14 -14 -24t-27 -10z" />
    <glyph glyph-name="at" unicode="@" horiz-adv-x="884" 
d="M410 -133q-89 0 -158 33.5t-113.5 90.5t-61 133t-1.5 162q13 73 49.5 133.5t90 104.5t120.5 68.5t142 24.5q85 0 151.5 -30.5t109.5 -80.5t60.5 -115.5t4.5 -134.5q-6 -35 -19 -68.5t-34 -60.5t-49.5 -43.5t-64.5 -16.5q-48 0 -72 25.5t-28 63.5q-11 -17 -25.5 -33
t-33.5 -28.5t-42.5 -20t-50.5 -7.5q-33 0 -59.5 13.5t-43 36.5t-22.5 53.5t0 65.5q6 36 23.5 70.5t44.5 61t62 43t76 16.5q49 0 76 -26.5t34 -59.5q7 24 11 39.5t6 24.5l4 16h33l-49 -181q-11 -39 -10.5 -65.5t9 -43t24.5 -23.5t37 -7q25 0 46.5 14t38.5 36.5t28.5 51.5
t16.5 59q11 61 -3.5 119.5t-52.5 103.5t-98 72.5t-140 27.5q-67 0 -128.5 -23t-110.5 -63.5t-82.5 -96t-45.5 -121.5q-13 -73 0.5 -142t52.5 -122t102 -85.5t148 -32.5q62 0 119 22t104 63l25 -25q-51 -44 -115.5 -68t-135.5 -24zM391 101q32 0 58 12t46 32.5t33.5 47
t20.5 55.5q9 29 8 55.5t-11.5 47t-30 32.5t-48.5 12q-33 0 -62 -14t-51.5 -36.5t-38 -52.5t-21.5 -61q-9 -56 17.5 -93t79.5 -37z" />
    <glyph glyph-name="A" unicode="A" horiz-adv-x="739" 
d="M432 730h39l173 -730h-38l-53 226h-377l-132 -226h-41zM196 261h349l-100 426z" />
    <glyph glyph-name="B" unicode="B" horiz-adv-x="696" 
d="M177 730h289q45 0 81.5 -16.5t61 -44.5t35 -64.5t3.5 -76.5q-10 -56 -47.5 -98t-93.5 -58q27 -12 48.5 -31t35.5 -44t19.5 -54.5t-0.5 -61.5q-7 -39 -27 -72.5t-50 -57.5t-68.5 -37.5t-82.5 -13.5h-332zM149 360l-57 -326h291q37 0 69 11.5t56.5 32t41 48.5t22.5 61
q6 36 -3.5 67.5t-29.5 55t-49.5 37t-63.5 13.5h-277zM208 696l-53 -302h289q32 0 60 10.5t50.5 29.5t37 44t19.5 54q6 32 -3 61.5t-29 52.5t-50 36.5t-67 13.5h-254z" />
    <glyph glyph-name="C" unicode="C" horiz-adv-x="833" 
d="M436 -10q-89 0 -158.5 33.5t-114.5 90.5t-62 133t-2 161q13 73 50.5 134t92 105t121.5 68.5t139 24.5q113 0 189.5 -46.5t119.5 -133.5l-36 -17q-37 79 -102 120.5t-175 41.5q-64 0 -124.5 -22.5t-109.5 -62.5t-83 -96t-46 -122q-13 -74 2 -142t54.5 -120t102 -83.5
t145.5 -31.5q88 0 165.5 37.5t128.5 109.5l32 -22q-58 -79 -142.5 -119.5t-186.5 -40.5z" />
    <glyph glyph-name="D" unicode="D" horiz-adv-x="757" 
d="M177 730h198q79 -1 144.5 -32.5t109.5 -85t63 -124.5t5 -151q-14 -78 -50.5 -140t-89.5 -106t-120 -67.5t-142 -23.5h-246zM209 696l-116 -661h205q66 0 126 21.5t108 61t81.5 96.5t46.5 128q12 72 -4.5 136.5t-56.5 112.5t-99 76.5t-132 28.5h-159z" />
    <glyph glyph-name="E" unicode="E" horiz-adv-x="645" 
d="M177 730h475l-6 -35h-438l-55 -312h438l-6 -34h-438l-55 -313h438l-6 -36h-475z" />
    <glyph glyph-name="F" unicode="F" horiz-adv-x="622" 
d="M177 730h465l-6 -35h-428l-56 -322h427l-6 -35h-427l-59 -338h-38z" />
    <glyph glyph-name="G" unicode="G" horiz-adv-x="887" 
d="M444 -10q-87 0 -158 33.5t-118 90.5t-66.5 133t-4.5 162q13 72 49 133t89 105t119 68.5t138 24.5q106 0 185.5 -48t125.5 -129l-35 -19q-42 76 -112 118.5t-167 42.5q-65 0 -124 -22.5t-106.5 -63t-80 -96t-44.5 -120.5q-13 -72 3 -140t57.5 -120.5t105.5 -84.5t147 -32
q71 0 130.5 24.5t104 67t72.5 99.5t37 122h-341l6 35h378l-1 -9q-6 -75 -35.5 -143t-79 -119.5t-119 -82t-155.5 -30.5z" />
    <glyph glyph-name="H" unicode="H" horiz-adv-x="731" 
d="M612 348h-464l-61 -348h-38l128 730h38l-61 -347h464l61 347h37l-128 -730h-37z" />
    <glyph glyph-name="I" unicode="I" horiz-adv-x="252" 
d="M188 730h38l-128 -730h-38z" />
    <glyph glyph-name="J" unicode="J" horiz-adv-x="517" 
d="M203 -10q-69 0 -114.5 31.5t-64.5 78.5l33 16q17 -40 54 -65.5t95 -25.5q71 0 112 43.5t53 111.5l96 550h38l-97 -550q-15 -86 -65 -138t-140 -52z" />
    <glyph glyph-name="K" unicode="K" horiz-adv-x="683" 
d="M345 408l-223 -207l-35 -201h-38l128 730h38l-84 -476l510 476h50l-318 -297l222 -433h-41z" />
    <glyph glyph-name="L" unicode="L" horiz-adv-x="609" 
d="M177 730h38l-123 -694h417l-5 -36h-455z" />
    <glyph glyph-name="M" unicode="M" horiz-adv-x="872" 
d="M177 730h35l228 -405l383 405h34l-128 -730h-36l116 665l-377 -398l-229 404l-117 -671h-37z" />
    <glyph glyph-name="N" unicode="N" horiz-adv-x="765" 
d="M177 730h40l377 -676l119 676h37l-128 -730h-38l-379 678l-119 -678h-37z" />
    <glyph glyph-name="O" unicode="O" horiz-adv-x="895" 
d="M442 -10q-86 0 -156.5 33.5t-117 90.5t-66 133t-4.5 162q13 73 49.5 133.5t89 104.5t117 68.5t134.5 24.5q91 0 161.5 -37t115.5 -96.5t62 -135t3 -153.5q-13 -73 -49 -133.5t-88 -103.5t-116.5 -67t-134.5 -24zM445 25q62 0 120 22t104.5 62t79 94.5t44.5 119.5
q13 70 -2 138.5t-55 123t-103 88t-147 33.5q-63 0 -121.5 -22.5t-105.5 -63t-79.5 -96t-44.5 -121.5q-13 -77 4.5 -146t59.5 -120.5t105 -81.5t141 -30z" />
    <glyph glyph-name="P" unicode="P" horiz-adv-x="697" 
d="M177 730h241q59 0 108 -20t82.5 -56t48 -86.5t4.5 -110.5q-9 -51 -33.5 -93.5t-62.5 -73.5t-88.5 -48t-111.5 -17h-239l-39 -225h-38zM209 696l-77 -436h235q54 0 98 15t77 42t53.5 64t28.5 81q9 50 -2.5 92.5t-40 74t-71 49.5t-96.5 18h-205z" />
    <glyph glyph-name="Q" unicode="Q" horiz-adv-x="893" 
d="M672 66q-50 -37 -108.5 -56.5t-121.5 -19.5q-86 0 -156.5 33.5t-117 90.5t-66 133t-4.5 162q13 73 49.5 133.5t89 104.5t117 68.5t134.5 24.5q91 0 161.5 -37t115.5 -96.5t62 -135t3 -153.5q-13 -71 -47.5 -129.5t-84.5 -101.5l58 -87h-41zM445 25q57 0 109.5 18.5
t97.5 51.5l-129 196h40l116 -174q43 39 73 91.5t41 114.5q13 70 -2 138.5t-55 123t-103 88t-147 33.5q-63 0 -121.5 -22.5t-105.5 -63t-79.5 -96t-44.5 -121.5q-13 -77 4.5 -146t59.5 -120.5t105 -81.5t141 -30z" />
    <glyph glyph-name="R" unicode="R" horiz-adv-x="707" 
d="M177 730h277q55 0 99.5 -20t74 -54.5t41 -81t2.5 -99.5q-7 -43 -27.5 -79t-50.5 -62t-66.5 -42t-75.5 -20l149 -272h-41l-146 270h-279l-47 -270h-38zM209 697l-69 -395h269q44 0 82 12.5t67.5 35.5t49 56t26.5 75q7 44 -2.5 83t-34 68t-62.5 46.5t-87 18.5h-239z" />
    <glyph glyph-name="S" unicode="S" horiz-adv-x="659" 
d="M323 -12q-52 0 -97 11.5t-83 31t-68.5 46t-53.5 57.5l32 25q42 -62 110 -99t162 -37q48 0 86 11.5t65 31t43.5 46.5t22.5 58q9 48 -6 80t-45 53.5t-71 36t-84 28.5q-44 14 -86.5 29.5t-73.5 39.5t-46.5 59t-6.5 87q12 70 73.5 114t166.5 44q90 0 162.5 -36t117.5 -90
l-30 -24q-43 54 -107 85.5t-146 31.5q-91 0 -141 -35t-60 -92q-8 -44 6.5 -73.5t44 -50t69 -35t81.5 -27.5q45 -14 88.5 -30.5t76 -42t48 -63t5.5 -94.5q-6 -37 -26 -69t-52.5 -56t-77 -38t-99.5 -14z" />
    <glyph glyph-name="T" unicode="T" horiz-adv-x="648" 
d="M258 0l122 696h-255l6 34h548l-5 -34h-257l-121 -696h-38z" />
    <glyph glyph-name="U" unicode="U" horiz-adv-x="720" 
d="M334 -10q-66 0 -116.5 20t-82.5 57t-43.5 89t-0.5 116l81 458h37l-81 -464q-9 -51 -0.5 -95.5t34.5 -76.5t70 -50.5t106 -18.5q52 0 94 16t73.5 44t51.5 66t28 83l87 496h37l-87 -496q-9 -54 -32.5 -99t-60 -77.5t-85.5 -50t-110 -17.5z" />
    <glyph glyph-name="V" unicode="V" horiz-adv-x="731" 
d="M299 0l-169 730h38l157 -683l396 683h41l-425 -730h-38z" />
    <glyph glyph-name="W" unicode="W" horiz-adv-x="1101" 
d="M735 0l-117 675l-349 -675h-38l-89 730h38l80 -673l349 673h34l118 -675l317 675h40l-345 -730h-38z" />
    <glyph glyph-name="X" unicode="X" horiz-adv-x="676" 
d="M354 351l-310 -351h-47l340 381l-187 349h40l172 -323l284 323h45l-311 -353l204 -377h-41z" />
    <glyph glyph-name="Y" unicode="Y" horiz-adv-x="661" 
d="M313 286l-199 444h40l183 -412l325 412h45l-357 -450l-49 -280h-38z" />
    <glyph glyph-name="Z" unicode="Z" horiz-adv-x="648" 
d="M18 0l6 35l583 661h-452l5 34h498l-6 -34l-582 -661h472l-6 -35h-518z" />
    <glyph glyph-name="bracketleft" unicode="[" horiz-adv-x="440" 
d="M177 730h273l-5 -34h-236l-157 -892h235l-6 -34h-272z" />
    <glyph glyph-name="backslash" unicode="\" horiz-adv-x="462" 
d="M114 730h38l220 -730h-40z" />
    <glyph glyph-name="bracketright" unicode="]" horiz-adv-x="440" 
d="M7 -197h234l158 893h-235l6 34h273l-169 -960h-273z" />
    <glyph glyph-name="asciicircum" unicode="^" horiz-adv-x="526" 
d="M314 666h24l101 -166h-39l-79 131l-120 -131h-43z" />
    <glyph glyph-name="underscore" unicode="_" horiz-adv-x="496" 
d="M10 -46h370l-7 -32h-370z" />
    <glyph glyph-name="grave" unicode="`" horiz-adv-x="526" 
d="M255 764h49l95 -148h-34z" />
    <glyph glyph-name="a" unicode="a" horiz-adv-x="689" 
d="M316 -11q-65 0 -116.5 25t-85.5 68t-48 100t-3 121q10 54 37 99.5t66 78.5t88 51.5t102 18.5q47 0 86 -13t69 -36.5t50 -55t29 -68.5l29 162h36l-95 -540h-35l22 128q-37 -63 -96 -101t-135 -38zM320 23q47 0 89 17t75.5 48t56 72.5t30.5 91.5q9 51 -1 99t-37.5 84.5
t-72 59t-104.5 22.5q-47 0 -89.5 -16.5t-77 -45.5t-58 -69.5t-32.5 -88.5q-9 -55 3 -105t41 -87.5t74.5 -59.5t102.5 -22z" />
    <glyph glyph-name="b" unicode="b" horiz-adv-x="692" 
d="M341 -11q-48 0 -87.5 12.5t-70 35.5t-51 54t-30.5 69l-27 -160h-37l138 788h37l-65 -368q40 63 101 97t134 34q62 0 112.5 -25.5t84 -68.5t47 -100t2.5 -121q-10 -54 -36.5 -99.5t-65 -78.5t-86.5 -51t-100 -18zM341 24q45 0 87 16.5t76 45.5t57.5 69t31.5 87
q10 53 -1.5 102.5t-40 88t-72.5 61.5t-101 23q-46 0 -89 -17.5t-77.5 -48t-58 -73t-32.5 -91.5q-9 -51 2 -98.5t39.5 -84t74 -58.5t104.5 -22z" />
    <glyph glyph-name="c" unicode="c" horiz-adv-x="631" 
d="M323 -11q-66 0 -119 25.5t-88 68.5t-49.5 100t-3.5 120q10 55 36.5 101t65.5 78.5t88 50.5t102 18q91 0 150 -40t90 -103l-33 -18q-26 56 -76.5 91.5t-131.5 35.5q-46 0 -88.5 -16t-76.5 -44.5t-57.5 -69t-32.5 -89.5q-9 -54 3 -104t42 -88t76 -60.5t104 -22.5
q66 0 123 29t92 84l33 -18q-39 -63 -105.5 -96t-143.5 -33z" />
    <glyph glyph-name="d" unicode="d" horiz-adv-x="691" 
d="M315 -11q-64 0 -115.5 25.5t-85.5 69t-48 100.5t-3 121q10 54 37 99.5t66 78t88 50.5t102 18q47 0 85.5 -13t68 -36t49.5 -54t30 -68l73 408h36l-139 -788h-34l20 119q-38 -58 -98 -94t-132 -36zM321 23q46 0 88 17t75.5 47t56 71.5t31.5 89.5q9 52 -1.5 100.5t-38.5 86
t-72.5 60t-103.5 22.5q-47 0 -89.5 -16t-77 -44.5t-58 -69t-31.5 -88.5q-9 -55 2.5 -105t41 -88t74.5 -60.5t103 -22.5z" />
    <glyph glyph-name="e" unicode="e" horiz-adv-x="661" 
d="M326 -11q-73 0 -127.5 24t-88.5 66t-46.5 99t-0.5 123q10 54 37 100t67.5 79.5t92 52t110.5 18.5q61 0 108.5 -22t79 -59.5t45 -88.5t6.5 -109l-2 -14h-513q-3 -51 12 -94t45.5 -74.5t75.5 -49t104 -17.5q61 0 114 24t91 72l31 -22q-93 -108 -241 -108zM98 297
q-1 -2 -1 -6h477q3 49 -9.5 90.5t-39 72t-66.5 47.5t-92 17q-50 0 -94.5 -16t-80.5 -45t-60.5 -69.5t-33.5 -90.5z" />
    <glyph glyph-name="f" unicode="f" horiz-adv-x="362" 
d="M73 540h104l11 63q10 56 24 92t37.5 56.5t57.5 28.5t85 8h24l-7 -34h-20q-41 0 -69 -5.5t-46.5 -22t-29.5 -46t-20 -78.5l-11 -62h158l-5 -31h-159l-88 -509h-37l89 509h-104z" />
    <glyph glyph-name="g" unicode="g" horiz-adv-x="689" 
d="M316 -11q-65 0 -116.5 25.5t-85.5 69t-48 100.5t-3 121q10 54 37 99.5t66 78t87.5 50.5t102.5 18q48 0 87 -13.5t68.5 -37t49.5 -56t29 -70.5q3 20 8 48t10 54t8.5 44.5t3.5 19.5h35l-89 -499q-23 -127 -92.5 -198t-197.5 -71q-93 0 -155 40t-88 106l37 12
q22 -57 74.5 -90.5t133.5 -33.5q55 0 98 16.5t74.5 47.5t51.5 74t29 96q1 12 4 25q2 11 4.5 25t5.5 28q-36 -59 -95 -94t-134 -35zM321 23q46 0 88 17t75 47t56 71.5t31 89.5q9 52 -1 100.5t-38 86t-72.5 60t-103.5 22.5q-47 0 -89.5 -16t-77 -44.5t-58 -69t-32.5 -88.5
q-9 -55 3 -105t41.5 -88t74.5 -60.5t103 -22.5z" />
    <glyph glyph-name="h" unicode="h" horiz-adv-x="649" 
d="M176 788h37l-65 -364q32 57 88.5 92t131.5 35q58 0 101 -19.5t69.5 -54t35 -83t-1.5 -105.5l-50 -289h-36l50 289q9 49 2.5 90.5t-28.5 72.5t-59.5 48.5t-89.5 17.5q-47 0 -85.5 -15t-68 -42.5t-49 -66t-27.5 -84.5l-55 -310h-38z" />
    <glyph glyph-name="i" unicode="i" horiz-adv-x="208" 
d="M37 0l96 540h37l-96 -540h-37zM178 670q-19 0 -29 13.5t-6 30.5q2 15 14 24t26 9q20 0 29 -13.5t6 -30.5q-3 -14 -13.5 -23.5t-26.5 -9.5z" />
    <glyph glyph-name="j" unicode="j" horiz-adv-x="210" 
d="M-130 -197q40 0 67 6t45 22.5t29.5 45.5t19.5 75l4.5 25.5t12 67t16.5 94.5t19 108q23 129 52 293h37l-104 -589q-10 -54 -23.5 -89.5t-35.5 -56t-54.5 -28.5t-80.5 -8h-11zM181 670q-19 0 -29 13.5t-6 30.5q2 15 13.5 24t26.5 9q20 0 29 -13.5t5 -30.5q-2 -14 -13 -23.5
t-26 -9.5z" />
    <glyph glyph-name="k" unicode="k" horiz-adv-x="564" 
d="M268 290l-167 -139l-26 -151h-37l138 788h37l-104 -591l411 343h50l-274 -230l194 -310h-41z" />
    <glyph glyph-name="l" unicode="l" horiz-adv-x="207" 
d="M176 788h37l-138 -788h-37z" />
    <glyph glyph-name="m" unicode="m" horiz-adv-x="1026" 
d="M130 540h35l-21 -117q29 59 81.5 93.5t124.5 34.5q37 0 68.5 -11t55.5 -30t39 -45.5t20 -56.5q28 64 84.5 103.5t134.5 39.5q57 0 98 -21t66 -57t33.5 -84.5t-1.5 -104.5l-50 -284h-36l50 284q9 49 3.5 92t-26 74.5t-56 49.5t-87.5 18q-45 0 -80 -15.5t-61 -42.5t-43 -64
t-26 -80l-55 -316h-35l55 314q9 46 1.5 83.5t-28.5 64.5t-54 41.5t-75 14.5q-47 0 -84 -16t-64.5 -44t-45 -65.5t-25.5 -79.5l-55 -313h-36z" />
    <glyph glyph-name="n" unicode="n" horiz-adv-x="648" 
d="M130 540h35l-19 -109q32 54 86 87t127 33q60 0 104.5 -19.5t72 -54t37 -82.5t-0.5 -106l-51 -289h-37l51 289q9 49 1.5 91t-30.5 72.5t-61.5 48t-90.5 17.5q-48 0 -86 -15.5t-67 -42.5t-47.5 -65t-27.5 -83l-55 -312h-36z" />
    <glyph glyph-name="o" unicode="o" horiz-adv-x="675" 
d="M322 -11q-66 0 -119 25t-88 68t-49 101t-2 124q9 54 35.5 99t65 77t87.5 50t104 18q68 0 121 -26.5t86.5 -71t46.5 -102.5t2 -122q-10 -54 -36.5 -98.5t-65 -76t-87 -48.5t-101.5 -17zM321 23q47 0 89.5 15t76.5 43t57 67t32 87q9 54 -1.5 105t-39 90.5t-74.5 63.5
t-106 24q-49 0 -92 -16t-76 -44.5t-55.5 -68.5t-31.5 -89q-10 -55 1.5 -105t41 -88.5t75 -61t103.5 -22.5z" />
    <glyph glyph-name="p" unicode="p" horiz-adv-x="689" 
d="M132 540h35l-22 -124q39 62 101 98.5t137 36.5q62 0 112 -25.5t83 -68.5t46.5 -100.5t2.5 -120.5q-10 -55 -36.5 -100.5t-65 -78.5t-87 -51t-101.5 -18q-48 0 -87.5 13.5t-69.5 36.5t-50.5 55t-29.5 69q-3 -20 -8 -47.5t-10.5 -59t-11 -65t-11.5 -65.5q-13 -76 -28 -158
h-36zM337 22q47 0 89.5 16.5t76.5 45.5t57 69.5t32 87.5q9 54 -2.5 104t-40.5 88t-73.5 60.5t-100.5 22.5q-47 0 -89.5 -17.5t-76.5 -48t-57 -72t-32 -90.5q-10 -51 0.5 -99t38.5 -85t73 -59.5t105 -22.5z" />
    <glyph glyph-name="q" unicode="q" horiz-adv-x="691" 
d="M317 -11q-65 0 -117 25.5t-86 69t-48 100.5t-3 121q10 54 37 99.5t66 78t88 50.5t102 18q48 0 87.5 -13.5t69 -37.5t49.5 -56.5t29 -70.5l29 167h37l-136 -771h-36q12 66 23 129q10 54 20.5 114.5t18.5 106.5q-36 -59 -95.5 -94.5t-134.5 -35.5zM321 23q46 0 88 17t75 47
t56 71.5t31 89.5q9 52 -1 100.5t-38 86t-72.5 60t-103.5 22.5q-47 0 -90 -16t-77.5 -44.5t-58 -69t-31.5 -88.5q-9 -55 3 -105t41.5 -88t74.5 -60.5t103 -22.5z" />
    <glyph glyph-name="r" unicode="r" horiz-adv-x="395" 
d="M130 540h35l-24 -135q29 61 83 98t127 37h49l-7 -37h-44q-47 0 -85 -16t-66.5 -43t-47 -63.5t-26.5 -78.5l-53 -302h-36z" />
    <glyph glyph-name="s" unicode="s" horiz-adv-x="529" 
d="M246 -11q-84 0 -145 33.5t-96 84.5l33 22q29 -46 83.5 -76.5t126.5 -30.5q76 0 115.5 31t47.5 75q6 33 -5.5 55.5t-35 38t-54.5 26.5t-64 21q-34 10 -67 22t-57 30t-36.5 44.5t-5.5 65.5q11 57 61 89.5t125 31.5q75 0 130 -27t93 -73l-30 -23q-34 45 -81.5 68t-113.5 23
q-62 0 -101 -24t-47 -69q-5 -30 6 -50t33 -34t52 -24t62 -20q35 -11 69 -23.5t59.5 -32t38 -49t5.5 -72.5q-5 -27 -20 -51.5t-40.5 -42.5t-60.5 -28.5t-80 -10.5z" />
    <glyph glyph-name="t" unicode="t" horiz-adv-x="363" 
d="M71 540h103l23 129l40 20l-27 -149h151l-6 -31h-150l-56 -317q-8 -47 -7.5 -77.5t14 -48.5t41.5 -25.5t74 -7.5l-5 -33h-4q-53 0 -86.5 9.5t-50.5 31.5t-19.5 59t7.5 92l56 317h-103z" />
    <glyph glyph-name="u" unicode="u" horiz-adv-x="623" 
d="M268 -11q-57 0 -98 20t-65 56t-31 85t4 106l50 284h36l-50 -286q-10 -49 -5 -91t25.5 -73t55.5 -49t86 -18q43 0 79.5 15t65.5 41.5t48.5 64t28.5 82.5l56 314h35l-94 -540h-36l20 116q-32 -60 -86 -93.5t-125 -33.5z" />
    <glyph glyph-name="v" unicode="v" horiz-adv-x="575" 
d="M79 540h38l118 -496l311 496h42l-341 -540h-37z" />
    <glyph glyph-name="w" unicode="w" horiz-adv-x="884" 
d="M87 540h38l50 -486l292 486h33l87 -488l260 488h43l-292 -540h-36l-87 489l-294 -489h-35z" />
    <glyph glyph-name="x" unicode="x" horiz-adv-x="582" 
d="M268 278l-168 262h41l154 -240l238 240h47l-267 -267l178 -273h-42l-162 250l-247 -250h-48z" />
    <glyph glyph-name="y" unicode="y" horiz-adv-x="595" 
d="M39 -199q-45 0 -79 17t-55 49l30 24q17 -27 42 -41t61 -14q23 0 43.5 6t40 20t39 38t41.5 59l47 76l-167 506h38l154 -468l287 468h42l-370 -596q-25 -39 -47.5 -66.5t-45.5 -45t-47.5 -25t-53.5 -7.5z" />
    <glyph glyph-name="z" unicode="z" horiz-adv-x="583" 
d="M23 33l486 475h-393l6 32h443l-6 -32l-487 -475h408l-6 -33h-456z" />
    <glyph glyph-name="braceleft" unicode="{" horiz-adv-x="446" 
d="M295 -230q-63 0 -103 11t-61.5 36.5t-25 67t7.5 102.5l24 137q5 29 6 50t-6.5 34t-25 19t-48.5 6l6 37q30 0 49.5 5t32 17.5t20 33.5t12.5 52l23 135q11 61 28.5 102.5t47.5 67t74 36.5t108 11h11l-6 -33q-59 0 -98 -9t-64.5 -30t-40 -56.5t-23.5 -89.5l-24 -135
q-9 -56 -28 -86t-59 -41q36 -13 44 -43.5t-1 -81.5l-25 -137q-9 -54 -7 -89.5t20 -56.5t54 -30t95 -9l-6 -33h-11z" />
    <glyph glyph-name="bar" unicode="|" horiz-adv-x="213" 
d="M173 730h37l-169 -960h-37z" />
    <glyph glyph-name="braceright" unicode="}" horiz-adv-x="463" 
d="M4 -197q59 0 98 9t64.5 30t40.5 56.5t24 89.5l23 135q10 55 28 85.5t58 41.5q-36 12 -43.5 43t1.5 82l26 137q9 54 6.5 89.5t-20.5 56.5t-54 30t-94 9l6 33h11q63 0 103 -11t61.5 -36.5t25 -67t-7.5 -102.5l-25 -137q-5 -29 -6 -50t6.5 -34t25 -19t49.5 -6l-7 -37
q-30 0 -49 -5t-31.5 -17.5t-20 -33.5t-12.5 -52l-23 -135q-11 -61 -29 -102.5t-47.5 -67t-74 -36.5t-107.5 -11h-11z" />
    <glyph glyph-name="asciitilde" unicode="~" horiz-adv-x="456" 
d="M125 598q11 38 37 62t60 24q21 0 39 -9.5t35 -21.5q17 -10 33 -18.5t33 -8.5q46 0 64 52h31q-11 -39 -36.5 -62.5t-63.5 -23.5q-23 0 -42 10t-36 21q-16 11 -31 19t-31 8q-42 0 -60 -52h-32v0z" />
    <glyph glyph-name="nonbreakingspace" unicode="&#xa0;" horiz-adv-x="233" 
 />
    <glyph glyph-name="exclamdown" unicode="&#xa1;" horiz-adv-x="263" 
d="M40 -113q9 51 21 115t24 127t22.5 116.5t16.5 82.5h24q-4 -29 -12 -82.5t-18 -116.5t-20.5 -127t-19.5 -115l-20 -117h-38zM158 432q-19 0 -28.5 13.5t-5.5 30.5q2 14 13.5 23.5t26.5 9.5q19 0 28.5 -13.5t6.5 -30.5q-3 -14 -14 -23.5t-27 -9.5z" />
    <glyph glyph-name="cent" unicode="&#xa2;" horiz-adv-x="640" 
d="M260 -4q-49 10 -87 36t-63 64t-34 85.5t0 99.5q9 50 34.5 92t61.5 72.5t81 47.5t94 17h4l22 120h37l-22 -123q69 -11 118 -53t69 -104l-35 -13q-10 30 -27.5 55t-42 44t-56 29.5t-69.5 10.5q-41 0 -79.5 -15t-70 -41.5t-53.5 -63.5t-29 -81q-9 -48 1.5 -93.5t37.5 -80
t69 -55.5t96 -21q33 0 64 9.5t58 27t49 41.5t37 54l32 -16q-34 -69 -98.5 -110t-142.5 -41h-9.5t-9.5 1l-21 -121h-37z" />
    <glyph glyph-name="sterling" unicode="&#xa3;" horiz-adv-x="765" 
d="M140 374h113q-20 43 -32 89t-2 101q7 39 26.5 71.5t49.5 56t69 36t84 12.5q66 0 115.5 -24.5t81.5 -70.5l-33 -16q-29 41 -70.5 60t-94.5 19q-38 0 -70.5 -11t-57 -30.5t-41 -47t-22.5 -59.5q-9 -52 4 -97t32 -89h233l-5 -31h-214q20 -45 32.5 -90t3.5 -98
q-3 -15 -7.5 -30t-11.5 -29q18 -14 37 -27.5t39 -24t42 -16.5t47 -6q33 0 57.5 8t43 27t31 49.5t20.5 75.5l4 21h38l-5 -26q-18 -100 -61.5 -143.5t-124.5 -43.5q-58 0 -102 24.5t-82 54.5q-23 -35 -61 -57.5t-92 -22.5q-25 0 -47.5 7t-39 21t-24.5 34.5t-3 47.5
q7 35 35.5 57t75.5 23q42 1 77.5 -18.5t69.5 -45.5q8 20 11 38q4 27 2 51.5t-8 47.5t-15.5 45.5t-19.5 45.5h-134zM154 15q45 0 77.5 20.5t52.5 52.5q-32 26 -63.5 44.5t-68.5 18.5q-35 0 -55.5 -16.5t-25.5 -40.5q-6 -38 19.5 -58.5t63.5 -20.5z" />
    <glyph glyph-name="currency" unicode="&#xa4;" horiz-adv-x="807" 
d="M555 148q-35 -24 -77 -36.5t-88 -8.5q-51 3 -94.5 23.5t-75.5 54.5l-117 -103l-22 25l118 102q-27 36 -40.5 80.5t-10.5 94.5q4 51 25 95.5t56 76.5l-73 92l25 21l74 -92q36 26 79 38.5t91 9.5q50 -3 92.5 -23.5t74.5 -52.5l109 96l22 -24l-109 -97q28 -36 42 -81t11 -95
q-4 -54 -26.5 -98.5t-58.5 -76.5l66 -80l-25 -22zM391 137q46 -3 88 11.5t74 43t52 68t24 86.5q3 46 -11.5 88.5t-42 75t-66.5 53.5t-85 24q-47 3 -88.5 -11.5t-73.5 -43t-52.5 -68t-23.5 -86.5t11 -89t41.5 -75t66.5 -53.5t86 -23.5z" />
    <glyph glyph-name="yen" unicode="&#xa5;" horiz-adv-x="667" 
d="M160 362h169l-179 368h40l164 -341l284 341h44l-308 -368h169l-6 -32h-173l-23 -132h173l-6 -32h-173l-29 -166h-37l29 166h-173l6 32h172l23 132h-172z" />
    <glyph glyph-name="brokenbar" unicode="&#xa6;" horiz-adv-x="213" 
d="M178 730h38l-74 -420h-38zM83 190h38l-74 -420h-38z" />
    <glyph glyph-name="section" unicode="&#xa7;" horiz-adv-x="622" 
d="M283 -10q-39 0 -75 9t-66.5 24.5t-53.5 37t-35 46.5l37 14q11 -22 31.5 -40t47 -31t57 -20.5t61.5 -7.5q65 0 113.5 25.5t59.5 79.5q5 30 -8 50.5t-38.5 34.5t-59.5 23.5t-70 18.5q-42 10 -78 23.5t-62 32.5t-38.5 44t-6.5 60t35 61.5t74 39.5q-23 17 -35 40t-6 56
q6 35 25 59.5t47.5 40t65.5 22.5t78 7q31 0 60.5 -6.5t54.5 -18t45 -26.5t32 -32l-36 -14q-20 28 -63 47.5t-97 19.5q-31 0 -60.5 -5t-53.5 -16t-40.5 -30.5t-21.5 -47.5q-5 -29 7.5 -48t37 -32.5t58 -23.5t69.5 -19q40 -11 77 -23t64 -29.5t40.5 -42t7.5 -58.5
q-7 -35 -37 -64.5t-75 -43.5q25 -17 37.5 -41.5t6.5 -59.5q-5 -34 -24 -59.5t-47.5 -43t-65 -25.5t-76.5 -8zM305 282q32 -8 63 -17.5t57 -22.5q42 14 69 38t33 53q4 27 -7.5 46.5t-35.5 34t-57.5 25.5t-72.5 21q-32 8 -63.5 17.5t-57.5 23.5q-42 -14 -67 -36t-30 -51
q-5 -27 7 -47.5t36 -36.5t56.5 -27.5t69.5 -20.5z" />
    <glyph glyph-name="dieresis" unicode="&#xa8;" horiz-adv-x="527" 
d="M259 633q-17 0 -26 11t-7 28q3 14 13.5 22t24.5 8q18 0 26.5 -12t4.5 -27q-2 -14 -12 -22t-24 -8zM408 633q-17 0 -26 11t-6 28q2 14 12.5 22t24.5 8q17 0 25.5 -12t5.5 -27q-2 -14 -12 -22t-24 -8z" />
    <glyph glyph-name="copyright" unicode="&#xa9;" horiz-adv-x="901" 
d="M447 -10q-86 0 -156.5 33.5t-117 90.5t-66 133t-4.5 162q13 73 49.5 133.5t89 104.5t117 68.5t134.5 24.5q85 0 155 -34t116.5 -92t66 -134.5t4.5 -161.5q-13 -73 -49.5 -133.5t-88.5 -103.5t-116.5 -67t-133.5 -24zM450 23q63 0 121 22.5t105.5 62t80 94.5t44.5 121
q13 70 -2.5 139t-55.5 124t-103.5 88.5t-147.5 33.5q-64 0 -123 -22.5t-106.5 -63t-80 -96.5t-44.5 -123q-13 -73 3.5 -141.5t57.5 -121.5t104.5 -85t146.5 -32zM458 169q-45 0 -81 17.5t-59 47.5t-32 69.5t-1 83.5q7 38 26.5 70t47.5 55.5t62.5 36.5t72.5 13
q57 0 96.5 -24.5t59.5 -66.5l-32 -16q-17 35 -46.5 54.5t-79.5 19.5q-31 0 -59.5 -10.5t-52 -30t-39.5 -46t-22 -58.5q-6 -35 0.5 -67.5t25 -58t48 -41t69.5 -15.5q41 0 78.5 19.5t60.5 53.5l31 -15q-28 -43 -73.5 -67t-100.5 -24z" />
    <glyph glyph-name="ordfeminine" unicode="&#xaa;" horiz-adv-x="458" 
d="M384 488q-22 -33 -56.5 -54.5t-79.5 -21.5q-35 0 -63.5 14t-48 38t-27.5 56.5t-2 70.5q6 34 22 61t39.5 46t52 29t60.5 10q51 0 85 -26t45 -67l16 86h30l-56 -313h-30zM254 440q27 0 51.5 10t44 27.5t33 41t18.5 50.5q5 28 -1.5 53.5t-23 45t-41 31t-54.5 11.5
q-27 0 -51.5 -9t-43.5 -25t-32 -38.5t-17 -48.5q-5 -31 1 -58t22 -47.5t40 -32t54 -11.5z" />
    <glyph glyph-name="guillemotleft" unicode="&#xab;" horiz-adv-x="455" 
d="M225 237l5 27l166 119l-6 -36l-137 -99l103 -98l-7 -32zM75 237l5 27l166 119l-7 -36l-137 -99l103 -98l-6 -32z" />
    <glyph glyph-name="logicalnot" unicode="&#xac;" horiz-adv-x="643" 
d="M565 454h-480l6 35h519l-53 -294h-38z" />
    <glyph glyph-name="uni00AD" unicode="&#xad;" horiz-adv-x="496" 
d="M67 272h370l-6 -32h-370z" />
    <glyph glyph-name="registered" unicode="&#xae;" horiz-adv-x="902" 
d="M424 -133q-86 0 -156.5 33.5t-117 90.5t-66 133t-4.5 162q13 73 49.5 134t89 105t117 68.5t134.5 24.5q85 0 155 -34t116.5 -92t66 -135t4.5 -162q-13 -73 -49.5 -133.5t-88.5 -103.5t-116.5 -67t-133.5 -24zM427 -100q63 0 121 22.5t105.5 62t80 95t44.5 121.5
q13 70 -2.5 139t-55.5 123.5t-103.5 88t-147.5 33.5q-64 0 -123 -22.5t-106.5 -63t-80 -96.5t-44.5 -122q-13 -73 3.5 -141.5t57.5 -122t104.5 -85.5t146.5 -32zM350 432h154q27 0 49.5 -10.5t38 -28.5t22.5 -41t3 -48q-8 -47 -43 -76t-84 -29h-6l82 -141h-39l-98 170h58
q35 0 62 22t33 57q6 40 -18.5 66t-66.5 28h-117l-59 -343h-37z" />
    <glyph glyph-name="macron" unicode="&#xaf;" horiz-adv-x="526" 
d="M209 680h264l-6 -33h-264z" />
    <glyph glyph-name="degree" unicode="&#xb0;" horiz-adv-x="455" 
d="M291 551q-20 0 -37 7.5t-30 20t-20.5 30t-7.5 37.5q0 19 7.5 36.5t20.5 30t30 20t37 7.5t37.5 -7.5t30 -20t20 -30t7.5 -36.5q0 -40 -27.5 -67.5t-67.5 -27.5zM291 582q26 0 44.5 18.5t18.5 44.5t-18.5 44.5t-44.5 18.5t-44.5 -18.5t-18.5 -44.5t18.5 -44.5t44.5 -18.5z
" />
    <glyph glyph-name="plusminus" unicode="&#xb1;" horiz-adv-x="496" 
d="M93 476h168l30 168h33l-30 -168h169l-6 -33h-169l-29 -169h-33l29 169h-168zM39 168h370l-6 -33h-370z" />
    <glyph glyph-name="twosuperior" unicode="&#xb2;" horiz-adv-x="392" 
d="M77 343q5 27 18.5 49t33 41t45 36t54.5 34q22 13 44 25.5t40 26.5t31 30.5t17 36.5q6 35 -18.5 60t-69.5 25q-34 0 -62 -16.5t-44 -42.5l-29 14q20 34 56 54t81 20q30 0 54 -9t40 -25t22.5 -38t2.5 -47q-5 -25 -19 -44.5t-33.5 -36t-43.5 -30.5l-48 -28
q-55 -32 -91.5 -62t-44.5 -74l-1 -2h232l-5 -32h-267z" />
    <glyph glyph-name="threesuperior" unicode="&#xb3;" horiz-adv-x="363" 
d="M192 302q-48 0 -84.5 20t-54.5 49l31 19q14 -26 42.5 -41t67.5 -15q45 0 75.5 21.5t37.5 61.5q7 41 -21.5 68t-76.5 27h-35l5 31h35q48 0 78.5 21.5t36.5 56.5q7 39 -18 62t-71 23q-34 0 -58.5 -12t-40.5 -29l-27 20q19 20 52 35.5t75 15.5q63 0 96.5 -34t24.5 -85
q-6 -33 -28.5 -57t-60.5 -35q36 -14 56 -44t12 -71q-10 -51 -49.5 -79.5t-99.5 -28.5z" />
    <glyph glyph-name="acute" unicode="&#xb4;" horiz-adv-x="526" 
d="M375 764h50l-161 -148h-37z" />
    <glyph glyph-name="mu" unicode="&#xb5;" horiz-adv-x="624" 
d="M134 540h36q-15 -80 -26 -143q-5 -27 -9.5 -53t-8.5 -46.5t-6 -33.5t-2 -14q-9 -48 -4.5 -89t24 -72t54 -48.5t85.5 -17.5q43 0 80 15t66 41.5t48.5 64t27.5 82.5l56 314h36l-95 -540h-36l20 113q-32 -59 -86 -91.5t-124 -32.5q-75 0 -118.5 33.5t-59.5 87.5l-61 -349
h-36z" />
    <glyph glyph-name="mu" unicode="&#x3bc;" horiz-adv-x="624" 
d="M134 540h36q-15 -80 -26 -143q-5 -27 -9.5 -53t-8.5 -46.5t-6 -33.5t-2 -14q-9 -48 -4.5 -89t24 -72t54 -48.5t85.5 -17.5q43 0 80 15t66 41.5t48.5 64t27.5 82.5l56 314h36l-95 -540h-36l20 113q-32 -59 -86 -91.5t-124 -32.5q-75 0 -118.5 33.5t-59.5 87.5l-61 -349
h-36z" />
    <glyph glyph-name="paragraph" unicode="&#xb6;" horiz-adv-x="565" 
d="M356 302h-89q-47 0 -84 18.5t-61 50t-34 72.5t-2 87q8 44 31 80.5t56.5 63t75.5 41.5t88 15h223l-128 -730h-34l123 697h-61l-123 -697h-34z" />
    <glyph glyph-name="periodcentered" unicode="&#xb7;" horiz-adv-x="197" 
d="M97 218q-18 0 -27.5 12.5t-6.5 29.5q2 14 13.5 23t25.5 9q20 0 28.5 -13t5.5 -29q-2 -14 -13 -23t-26 -9z" />
    <glyph glyph-name="cedilla" unicode="&#xb8;" horiz-adv-x="526" 
d="M183 -227q-45 0 -77 15t-55 38l32 19q18 -20 42 -31.5t61 -11.5q38 0 65 14.5t32 40.5q5 27 -18 42t-71 15h-24l16 86h32l-12 -62q61 -2 89 -25t22 -60q-7 -38 -43.5 -59t-90.5 -21z" />
    <glyph glyph-name="onesuperior" unicode="&#xb9;" horiz-adv-x="226" 
d="M121 308l64 354q-12 -23 -35.5 -38.5t-61.5 -15.5h-6l7 35h3q25 0 43.5 7.5t31.5 20t20 28t10 31.5h34l-75 -422h-35z" />
    <glyph glyph-name="ordmasculine" unicode="&#xba;" horiz-adv-x="432" 
d="M255 411q-37 0 -67.5 14.5t-50.5 39t-28.5 57t-2.5 68.5q5 32 20.5 59t38 46.5t51 30t58.5 10.5q37 0 67 -14.5t50.5 -39.5t29.5 -57.5t3 -69.5q-6 -32 -21.5 -58.5t-38.5 -45.5t-51 -29.5t-58 -10.5zM256 440q25 0 48 8.5t41.5 24.5t31 37.5t17.5 47.5q5 27 -1.5 54
t-22 48.5t-40.5 34.5t-57 13q-25 0 -48 -9t-41.5 -25t-31.5 -38t-17 -48q-5 -29 1 -55.5t22 -47t41 -33t57 -12.5z" />
    <glyph glyph-name="guillemotright" unicode="&#xbb;" horiz-adv-x="455" 
d="M382 263l-5 -27l-166 -119l6 36l138 98l-103 99l6 32zM231 263l-5 -27l-166 -119l7 36l137 98l-103 99l6 32z" />
    <glyph glyph-name="onequarter" unicode="&#xbc;" horiz-adv-x="709" 
d="M540 98h-215l4 32l268 292h33l-52 -293h71l-5 -31h-71l-17 -98h-33zM546 129l42 241l-218 -241h176zM130 308l64 354q-12 -23 -35.5 -38.5t-61.5 -15.5h-6l7 35h3q25 0 43.5 7.5t31.5 20t20 28t10 31.5h34l-75 -422h-35zM651 730h46l-654 -730h-46z" />
    <glyph glyph-name="onehalf" unicode="&#xbd;" horiz-adv-x="798" 
d="M428 35q5 27 18.5 49t33 41t45 36t54.5 34q22 13 44 25.5t40 26.5t31 30.5t17 36.5q6 35 -18.5 60t-69.5 25q-34 0 -62 -16.5t-44 -42.5l-29 14q20 34 56 54t81 20q30 0 54 -9t40 -25t22.5 -38t2.5 -47q-5 -25 -19 -44.5t-33.5 -36t-43.5 -30.5l-48 -28
q-55 -32 -91.5 -62t-44.5 -74l-1 -2h232l-5 -32h-267zM130 308l64 354q-12 -23 -35.5 -38.5t-61.5 -15.5h-6l7 35h3q25 0 43.5 7.5t31.5 20t20 28t10 31.5h34l-75 -422h-35zM651 730h46l-654 -730h-46z" />
    <glyph glyph-name="threequarters" unicode="&#xbe;" horiz-adv-x="831" 
d="M661 98h-215l4 32l268 292h33l-52 -293h71l-5 -31h-71l-17 -98h-33zM667 129l42 241l-218 -241h176zM773 730h46l-654 -730h-46zM190 304q-48 0 -84.5 20t-54.5 49l31 19q14 -26 42.5 -41t67.5 -15q45 0 75.5 21.5t37.5 61.5q7 41 -21.5 68t-76.5 27h-35l5 31h35
q48 0 78.5 21.5t36.5 56.5q7 39 -18 62t-71 23q-34 0 -58.5 -12t-40.5 -29l-27 20q19 20 52 35.5t75 15.5q63 0 96.5 -34t24.5 -85q-6 -33 -28.5 -57t-60.5 -35q36 -14 56 -44t12 -71q-10 -51 -49.5 -79.5t-99.5 -28.5z" />
    <glyph glyph-name="questiondown" unicode="&#xbf;" horiz-adv-x="529" 
d="M209 -240q-44 0 -82 13.5t-65 38t-39 59.5t-4 79q7 40 27 66t46.5 46t56.5 38t57.5 43.5t49 62.5t31.5 95l6 32h36l-6 -32q-11 -62 -33 -102.5t-49.5 -68t-57.5 -46.5t-56 -38t-45.5 -42t-25.5 -58q-6 -36 3.5 -65t31.5 -48.5t53.5 -30t67.5 -10.5q43 0 81.5 15.5
t65.5 41.5l25 -25q-32 -29 -78 -46.5t-97 -17.5zM331 431q-20 0 -29 13.5t-5 30.5q2 14 13.5 23.5t25.5 9.5q20 0 29.5 -13t6.5 -30q-3 -15 -14 -24.5t-27 -9.5z" />
    <glyph glyph-name="Agrave" unicode="&#xc0;" horiz-adv-x="739" 
d="M432 730h39l173 -730h-38l-53 226h-377l-132 -226h-41zM196 261h349l-100 426zM335 954h49l95 -148h-34z" />
    <glyph glyph-name="Aacute" unicode="&#xc1;" horiz-adv-x="739" 
d="M432 730h39l173 -730h-38l-53 226h-377l-132 -226h-41zM196 261h349l-100 426zM594 954h50l-161 -148h-37z" />
    <glyph glyph-name="Acircumflex" unicode="&#xc2;" horiz-adv-x="739" 
d="M432 730h39l173 -730h-38l-53 226h-377l-132 -226h-41zM196 261h349l-100 426zM469 954h32l93 -148h-39l-74 117l-115 -117h-42z" />
    <glyph glyph-name="Atilde" unicode="&#xc3;" horiz-adv-x="739" 
d="M432 730h39l173 -730h-38l-53 226h-377l-132 -226h-41zM196 261h349l-100 426zM289 812q8 42 35 69.5t65 27.5q26 0 47 -10.5t41 -23.5t38.5 -23.5t42.5 -10.5q25 0 42.5 16t23.5 48h32q-9 -46 -36 -71.5t-66 -25.5q-30 0 -52.5 12t-42.5 25q-18 11 -36 21t-40 10
q-23 0 -40.5 -17t-22.5 -47h-31z" />
    <glyph glyph-name="Adieresis" unicode="&#xc4;" horiz-adv-x="739" 
d="M432 730h39l173 -730h-38l-53 226h-377l-132 -226h-41zM196 261h349l-100 426zM391 823q-17 0 -26 11t-7 28q3 14 13.5 22t24.5 8q18 0 26.5 -12t4.5 -27q-2 -14 -12 -22t-24 -8zM540 823q-17 0 -26 11t-6 28q2 14 12.5 22t24.5 8q17 0 25.5 -12t5.5 -27q-2 -14 -12 -22
t-24 -8z" />
    <glyph glyph-name="Aring" unicode="&#xc5;" horiz-adv-x="739" 
d="M418 707q-26 11 -40.5 37.5t-7.5 60.5q8 35 35.5 57t62.5 22q22 0 39 -9t28 -23t15 -32.5t0 -37.5q-6 -28 -25.5 -49t-47.5 -29l167 -704h-38l-53 226h-377l-132 -226h-41zM196 261h349l-100 426zM459 730q23 2 40.5 18.5t21.5 38.5q5 26 -10.5 47t-45.5 21
q-23 0 -42 -16t-24 -40q-5 -26 10 -47.5t45 -21.5h5z" />
    <glyph glyph-name="AE" unicode="&#xc6;" horiz-adv-x="1028" 
d="M492 730h534l-6 -35h-486l30 -312h401l-6 -34h-392l29 -313h308l-6 -36h-335l-21 223h-347l-149 -223h-43zM218 257h321l-38 422z" />
    <glyph glyph-name="Ccedilla" unicode="&#xc7;" horiz-adv-x="833" 
d="M417 -232q-45 0 -77 15t-55 38l32 19q18 -20 42 -31.5t61 -11.5q38 0 65 14.5t32 40.5q5 27 -18 42t-71 15h-24l15 82q-85 3 -151.5 37.5t-109 91.5t-58.5 131t-1 157q13 73 50.5 134t92 105t121.5 68.5t139 24.5q113 0 189.5 -46.5t119.5 -133.5l-36 -17
q-37 79 -102 120.5t-175 41.5q-64 0 -124.5 -22.5t-109.5 -62.5t-83 -96t-46 -122q-13 -74 2 -142t54.5 -120t102 -83.5t145.5 -31.5q88 0 165.5 37.5t128.5 109.5l32 -22q-56 -76 -136.5 -116t-177.5 -43l-11 -58q61 -2 89 -25t22 -60q-7 -38 -43.5 -59t-90.5 -21z" />
    <glyph glyph-name="Egrave" unicode="&#xc8;" horiz-adv-x="645" 
d="M177 730h475l-6 -35h-438l-55 -312h438l-6 -34h-438l-55 -313h438l-6 -36h-475zM301 954h49l95 -148h-34z" />
    <glyph glyph-name="Eacute" unicode="&#xc9;" horiz-adv-x="645" 
d="M177 730h475l-6 -35h-438l-55 -312h438l-6 -34h-438l-55 -313h438l-6 -36h-475zM553 954h50l-161 -148h-37z" />
    <glyph glyph-name="Ecircumflex" unicode="&#xca;" horiz-adv-x="645" 
d="M177 730h475l-6 -35h-438l-55 -312h438l-6 -34h-438l-55 -313h438l-6 -36h-475zM429 954h32l93 -148h-39l-74 117l-115 -117h-42z" />
    <glyph glyph-name="Edieresis" unicode="&#xcb;" horiz-adv-x="645" 
d="M177 730h475l-6 -35h-438l-55 -312h438l-6 -34h-438l-55 -313h438l-6 -36h-475zM351 823q-17 0 -26 11t-7 28q3 14 13.5 22t24.5 8q18 0 26.5 -12t4.5 -27q-2 -14 -12 -22t-24 -8zM500 823q-17 0 -26 11t-6 28q2 14 12.5 22t24.5 8q17 0 25.5 -12t5.5 -27q-2 -14 -12 -22
t-24 -8z" />
    <glyph glyph-name="Igrave" unicode="&#xcc;" horiz-adv-x="252" 
d="M188 730h38l-128 -730h-38zM97 954h49l95 -148h-34z" />
    <glyph glyph-name="Iacute" unicode="&#xcd;" horiz-adv-x="252" 
d="M188 730h38l-128 -730h-38zM349 954h50l-161 -148h-37z" />
    <glyph glyph-name="Icircumflex" unicode="&#xce;" horiz-adv-x="252" 
d="M188 730h38l-128 -730h-38zM225 954h32l93 -148h-39l-74 117l-115 -117h-42z" />
    <glyph glyph-name="Idieresis" unicode="&#xcf;" horiz-adv-x="252" 
d="M188 730h38l-128 -730h-38zM147 823q-17 0 -26 11t-7 28q3 14 13.5 22t24.5 8q18 0 26.5 -12t4.5 -27q-2 -14 -12 -22t-24 -8zM296 823q-17 0 -26 11t-6 28q2 14 12.5 22t24.5 8q17 0 25.5 -12t5.5 -27q-2 -14 -12 -22t-24 -8z" />
    <glyph glyph-name="Eth" unicode="&#xd0;" horiz-adv-x="766" 
d="M58 392h79l59 338h187q79 -1 145 -32.5t110 -85t63 -124.5t5 -151q-14 -77 -50.5 -139t-89.5 -106t-120 -68t-142 -24h-236l63 362h-80zM169 362l-58 -327h195q66 0 126.5 22t109 62t81.5 96.5t45 126.5q13 72 -3.5 136.5t-56.5 112.5t-99.5 76.5t-132.5 28.5h-148
l-54 -304h248l-6 -30h-247z" />
    <glyph glyph-name="Ntilde" unicode="&#xd1;" horiz-adv-x="765" 
d="M177 730h40l377 -676l119 676h37l-128 -730h-38l-379 678l-119 -678h-37zM611 943h50l-161 -148h-37z" />
    <glyph glyph-name="Ograve" unicode="&#xd2;" horiz-adv-x="895" 
d="M442 -10q-86 0 -156.5 33.5t-117 90.5t-66 133t-4.5 162q13 73 49.5 133.5t89 104.5t117 68.5t134.5 24.5q91 0 161.5 -37t115.5 -96.5t62 -135t3 -153.5q-13 -73 -49 -133.5t-88 -103.5t-116.5 -67t-134.5 -24zM445 25q62 0 120 22t104.5 62t79 94.5t44.5 119.5
q13 70 -2 138.5t-55 123t-103 88t-147 33.5q-63 0 -121.5 -22.5t-105.5 -63t-79.5 -96t-44.5 -121.5q-13 -77 4.5 -146t59.5 -120.5t105 -81.5t141 -30zM378 959h49l95 -148h-34z" />
    <glyph glyph-name="Oacute" unicode="&#xd3;" horiz-adv-x="895" 
d="M442 -10q-86 0 -156.5 33.5t-117 90.5t-66 133t-4.5 162q13 73 49.5 133.5t89 104.5t117 68.5t134.5 24.5q91 0 161.5 -37t115.5 -96.5t62 -135t3 -153.5q-13 -73 -49 -133.5t-88 -103.5t-116.5 -67t-134.5 -24zM445 25q62 0 120 22t104.5 62t79 94.5t44.5 119.5
q13 70 -2 138.5t-55 123t-103 88t-147 33.5q-63 0 -121.5 -22.5t-105.5 -63t-79.5 -96t-44.5 -121.5q-13 -77 4.5 -146t59.5 -120.5t105 -81.5t141 -30zM331 817q8 42 35 69.5t65 27.5q26 0 47 -10.5t41 -23.5t38.5 -23.5t42.5 -10.5q25 0 42.5 16t23.5 48h32
q-9 -46 -36 -71.5t-66 -25.5q-30 0 -52.5 12t-42.5 25q-18 11 -36 21t-40 10q-23 0 -40.5 -17t-22.5 -47h-31z" />
    <glyph glyph-name="Ocircumflex" unicode="&#xd4;" horiz-adv-x="895" 
d="M442 -10q-86 0 -156.5 33.5t-117 90.5t-66 133t-4.5 162q13 73 49.5 133.5t89 104.5t117 68.5t134.5 24.5q91 0 161.5 -37t115.5 -96.5t62 -135t3 -153.5q-13 -73 -49 -133.5t-88 -103.5t-116.5 -67t-134.5 -24zM445 25q62 0 120 22t104.5 62t79 94.5t44.5 119.5
q13 70 -2 138.5t-55 123t-103 88t-147 33.5q-63 0 -121.5 -22.5t-105.5 -63t-79.5 -96t-44.5 -121.5q-13 -77 4.5 -146t59.5 -120.5t105 -81.5t141 -30zM506 959h32l93 -148h-39l-74 117l-115 -117h-42z" />
    <glyph glyph-name="Otilde" unicode="&#xd5;" horiz-adv-x="895" 
d="M442 -10q-86 0 -156.5 33.5t-117 90.5t-66 133t-4.5 162q13 73 49.5 133.5t89 104.5t117 68.5t134.5 24.5q91 0 161.5 -37t115.5 -96.5t62 -135t3 -153.5q-13 -73 -49 -133.5t-88 -103.5t-116.5 -67t-134.5 -24zM445 25q62 0 120 22t104.5 62t79 94.5t44.5 119.5
q13 70 -2 138.5t-55 123t-103 88t-147 33.5q-63 0 -121.5 -22.5t-105.5 -63t-79.5 -96t-44.5 -121.5q-13 -77 4.5 -146t59.5 -120.5t105 -81.5t141 -30zM336 817q8 42 35 69.5t65 27.5q26 0 47 -10.5t41 -23.5t38.5 -23.5t42.5 -10.5q25 0 42.5 16t23.5 48h32
q-9 -46 -36 -71.5t-66 -25.5q-30 0 -52.5 12t-42.5 25q-18 11 -36 21t-40 10q-23 0 -40.5 -17t-22.5 -47h-31z" />
    <glyph glyph-name="Odieresis" unicode="&#xd6;" horiz-adv-x="895" 
d="M442 -10q-86 0 -156.5 33.5t-117 90.5t-66 133t-4.5 162q13 73 49.5 133.5t89 104.5t117 68.5t134.5 24.5q91 0 161.5 -37t115.5 -96.5t62 -135t3 -153.5q-13 -73 -49 -133.5t-88 -103.5t-116.5 -67t-134.5 -24zM445 25q62 0 120 22t104.5 62t79 94.5t44.5 119.5
q13 70 -2 138.5t-55 123t-103 88t-147 33.5q-63 0 -121.5 -22.5t-105.5 -63t-79.5 -96t-44.5 -121.5q-13 -77 4.5 -146t59.5 -120.5t105 -81.5t141 -30zM428 828q-17 0 -26 11t-7 28q3 14 13.5 22t24.5 8q18 0 26.5 -12t4.5 -27q-2 -14 -12 -22t-24 -8zM577 828
q-17 0 -26 11t-6 28q2 14 12.5 22t24.5 8q17 0 25.5 -12t5.5 -27q-2 -14 -12 -22t-24 -8z" />
    <glyph glyph-name="multiply" unicode="&#xd7;" horiz-adv-x="496" 
d="M78 230l160 136l-110 135l25 22l111 -135l155 132l20 -23l-156 -133l109 -131l-26 -22l-108 132l-160 -136z" />
    <glyph glyph-name="Oslash" unicode="&#xd8;" horiz-adv-x="895" 
d="M442 -10q-67 0 -123.5 20t-101.5 56l-71 -78l-24 21l71 78q-60 58 -86 141.5t-9 180.5q13 73 49.5 133.5t89 104.5t117 68.5t134.5 24.5q69 0 126 -21.5t101 -59.5l71 78l24 -20l-72 -79q60 -62 84 -146.5t8 -173.5q-13 -73 -49 -133.5t-88 -103.5t-116.5 -67t-134.5 -24
zM135 403q-14 -87 8.5 -161.5t75.5 -127.5l472 519q-39 34 -90.5 53.5t-114.5 19.5t-121.5 -22.5t-105.5 -63t-79.5 -96t-44.5 -121.5zM445 25q62 0 120 22t104.5 62t79 94.5t44.5 119.5q14 79 -6.5 155t-73.5 133l-471 -518q40 -32 91 -50t112 -18z" />
    <glyph glyph-name="Ugrave" unicode="&#xd9;" horiz-adv-x="720" 
d="M334 -10q-66 0 -116.5 20t-82.5 57t-43.5 89t-0.5 116l81 458h37l-81 -464q-9 -51 -0.5 -95.5t34.5 -76.5t70 -50.5t106 -18.5q52 0 94 16t73.5 44t51.5 66t28 83l87 496h37l-87 -496q-9 -54 -32.5 -99t-60 -77.5t-85.5 -50t-110 -17.5zM324 943h49l95 -148h-34z" />
    <glyph glyph-name="Uacute" unicode="&#xda;" horiz-adv-x="720" 
d="M334 -10q-66 0 -116.5 20t-82.5 57t-43.5 89t-0.5 116l81 458h37l-81 -464q-9 -51 -0.5 -95.5t34.5 -76.5t70 -50.5t106 -18.5q52 0 94 16t73.5 44t51.5 66t28 83l87 496h37l-87 -496q-9 -54 -32.5 -99t-60 -77.5t-85.5 -50t-110 -17.5zM576 943h50l-161 -148h-37z" />
    <glyph glyph-name="Ucircumflex" unicode="&#xdb;" horiz-adv-x="720" 
d="M334 -10q-66 0 -116.5 20t-82.5 57t-43.5 89t-0.5 116l81 458h37l-81 -464q-9 -51 -0.5 -95.5t34.5 -76.5t70 -50.5t106 -18.5q52 0 94 16t73.5 44t51.5 66t28 83l87 496h37l-87 -496q-9 -54 -32.5 -99t-60 -77.5t-85.5 -50t-110 -17.5zM452 943h32l93 -148h-39l-74 117
l-115 -117h-42z" />
    <glyph glyph-name="Udieresis" unicode="&#xdc;" horiz-adv-x="720" 
d="M334 -10q-66 0 -116.5 20t-82.5 57t-43.5 89t-0.5 116l81 458h37l-81 -464q-9 -51 -0.5 -95.5t34.5 -76.5t70 -50.5t106 -18.5q52 0 94 16t73.5 44t51.5 66t28 83l87 496h37l-87 -496q-9 -54 -32.5 -99t-60 -77.5t-85.5 -50t-110 -17.5zM374 812q-17 0 -26 11t-7 28
q3 14 13.5 22t24.5 8q18 0 26.5 -12t4.5 -27q-2 -14 -12 -22t-24 -8zM523 812q-17 0 -26 11t-6 28q2 14 12.5 22t24.5 8q17 0 25.5 -12t5.5 -27q-2 -14 -12 -22t-24 -8z" />
    <glyph glyph-name="Yacute" unicode="&#xdd;" horiz-adv-x="661" 
d="M313 286l-199 444h40l183 -412l325 412h45l-357 -450l-49 -280h-38zM548 944h50l-161 -148h-37z" />
    <glyph glyph-name="Thorn" unicode="&#xde;" horiz-adv-x="601" 
d="M169 730h38l-26 -145h152q48 0 89 -16.5t69.5 -45.5t41 -70.5t4.5 -90.5q-7 -42 -27.5 -76.5t-52 -60t-73.5 -39.5t-92 -14h-183l-30 -172h-38zM175 550l-60 -343h181q42 0 77 12t61 33t43 50.5t23 64.5q7 39 -3 72.5t-33 58t-58 38.5t-77 14h-154z" />
    <glyph glyph-name="germandbls" unicode="&#xdf;" horiz-adv-x="605" 
d="M-133 -213q77 0 114.5 40t50.5 116l116 652q17 99 75.5 151t148.5 52q50 0 87.5 -19t61 -50.5t32 -71t1.5 -80.5q-6 -32 -21.5 -58.5t-36.5 -46.5t-46.5 -34t-52.5 -21q37 -9 66.5 -31t48.5 -52.5t26 -67.5t0 -75q-8 -43 -28 -79t-50.5 -62.5t-70.5 -41.5t-89 -15
q-23 0 -46 5t-43 13.5t-37 18.5t-28 20l14 30q10 -11 26 -20.5t34.5 -16.5t39 -11.5t39.5 -4.5q41 0 75.5 13t61 35.5t43.5 53t23 66.5q7 40 -2.5 77t-32.5 65t-58 45t-79 17h-18l5 35h19q26 0 55 9.5t55.5 28t46 46t25.5 64.5q6 35 -0.5 68t-25.5 58.5t-49.5 41t-72.5 15.5
q-34 0 -64.5 -11t-55 -33t-41.5 -53.5t-24 -71.5l-115 -651q-17 -97 -65 -145t-138 -48h-6z" />
    <glyph glyph-name="agrave" unicode="&#xe0;" horiz-adv-x="689" 
d="M316 -11q-65 0 -116.5 25t-85.5 68t-48 100t-3 121q10 54 37 99.5t66 78.5t88 51.5t102 18.5q47 0 86 -13t69 -36.5t50 -55t29 -68.5l29 162h36l-95 -540h-35l22 128q-37 -63 -96 -101t-135 -38zM320 23q47 0 89 17t75.5 48t56 72.5t30.5 91.5q9 51 -1 99t-37.5 84.5
t-72 59t-104.5 22.5q-47 0 -89.5 -16.5t-77 -45.5t-58 -69.5t-32.5 -88.5q-9 -55 3 -105t41 -87.5t74.5 -59.5t102.5 -22zM253 770h49l95 -148h-34z" />
    <glyph glyph-name="aacute" unicode="&#xe1;" horiz-adv-x="689" 
d="M316 -11q-65 0 -116.5 25t-85.5 68t-48 100t-3 121q10 54 37 99.5t66 78.5t88 51.5t102 18.5q47 0 86 -13t69 -36.5t50 -55t29 -68.5l29 162h36l-95 -540h-35l22 128q-37 -63 -96 -101t-135 -38zM320 23q47 0 89 17t75.5 48t56 72.5t30.5 91.5q9 51 -1 99t-37.5 84.5
t-72 59t-104.5 22.5q-47 0 -89.5 -16.5t-77 -45.5t-58 -69.5t-32.5 -88.5q-9 -55 3 -105t41 -87.5t74.5 -59.5t102.5 -22zM506 770h50l-161 -148h-37z" />
    <glyph glyph-name="acircumflex" unicode="&#xe2;" horiz-adv-x="689" 
d="M316 -11q-65 0 -116.5 25t-85.5 68t-48 100t-3 121q10 54 37 99.5t66 78.5t88 51.5t102 18.5q47 0 86 -13t69 -36.5t50 -55t29 -68.5l29 162h36l-95 -540h-35l22 128q-37 -63 -96 -101t-135 -38zM320 23q47 0 89 17t75.5 48t56 72.5t30.5 91.5q9 51 -1 99t-37.5 84.5
t-72 59t-104.5 22.5q-47 0 -89.5 -16.5t-77 -45.5t-58 -69.5t-32.5 -88.5q-9 -55 3 -105t41 -87.5t74.5 -59.5t102.5 -22zM382 770h32l93 -148h-39l-74 117l-115 -117h-42z" />
    <glyph glyph-name="atilde" unicode="&#xe3;" horiz-adv-x="689" 
d="M316 -11q-65 0 -116.5 25t-85.5 68t-48 100t-3 121q10 54 37 99.5t66 78.5t88 51.5t102 18.5q47 0 86 -13t69 -36.5t50 -55t29 -68.5l29 162h36l-95 -540h-35l22 128q-37 -63 -96 -101t-135 -38zM320 23q47 0 89 17t75.5 48t56 72.5t30.5 91.5q9 51 -1 99t-37.5 84.5
t-72 59t-104.5 22.5q-47 0 -89.5 -16.5t-77 -45.5t-58 -69.5t-32.5 -88.5q-9 -55 3 -105t41 -87.5t74.5 -59.5t102.5 -22zM208 633q8 42 35 69.5t65 27.5q26 0 47 -10.5t41 -23.5t38.5 -23.5t42.5 -10.5q25 0 42.5 16t23.5 48h32q-9 -46 -36 -71.5t-66 -25.5q-30 0 -52.5 12
t-42.5 25q-18 11 -36 21t-40 10q-23 0 -40.5 -17t-22.5 -47h-31z" />
    <glyph glyph-name="adieresis" unicode="&#xe4;" horiz-adv-x="689" 
d="M316 -11q-65 0 -116.5 25t-85.5 68t-48 100t-3 121q10 54 37 99.5t66 78.5t88 51.5t102 18.5q47 0 86 -13t69 -36.5t50 -55t29 -68.5l29 162h36l-95 -540h-35l22 128q-37 -63 -96 -101t-135 -38zM320 23q47 0 89 17t75.5 48t56 72.5t30.5 91.5q9 51 -1 99t-37.5 84.5
t-72 59t-104.5 22.5q-47 0 -89.5 -16.5t-77 -45.5t-58 -69.5t-32.5 -88.5q-9 -55 3 -105t41 -87.5t74.5 -59.5t102.5 -22zM304 639q-17 0 -26 11t-7 28q3 14 13.5 22t24.5 8q18 0 26.5 -12t4.5 -27q-2 -14 -12 -22t-24 -8zM453 639q-17 0 -26 11t-6 28q2 14 12.5 22t24.5 8
q17 0 25.5 -12t5.5 -27q-2 -14 -12 -22t-24 -8z" />
    <glyph glyph-name="aring" unicode="&#xe5;" horiz-adv-x="689" 
d="M316 -11q-65 0 -116.5 25t-85.5 68t-48 100t-3 121q10 54 37 99.5t66 78.5t88 51.5t102 18.5q47 0 86 -13t69 -36.5t50 -55t29 -68.5l29 162h36l-95 -540h-35l22 128q-37 -63 -96 -101t-135 -38zM320 23q47 0 89 17t75.5 48t56 72.5t30.5 91.5q9 51 -1 99t-37.5 84.5
t-72 59t-104.5 22.5q-47 0 -89.5 -16.5t-77 -45.5t-58 -69.5t-32.5 -88.5q-9 -55 3 -105t41 -87.5t74.5 -59.5t102.5 -22zM381 615q-20 0 -36.5 8t-28 22.5t-16 33.5t-0.5 40q8 35 35.5 57t62.5 22q22 0 39 -9t28 -23t15 -32.5t0 -37.5q-8 -34 -34.5 -57.5t-64.5 -23.5z
M384 644q25 0 44 17t23 40q5 26 -10.5 47t-45.5 21q-23 0 -42 -16t-24 -40q-5 -26 10 -47.5t45 -21.5z" />
    <glyph glyph-name="ae" unicode="&#xe6;" horiz-adv-x="1105" 
d="M208 -8q-54 0 -91 14t-59 37t-29 52.5t-2 60.5q7 41 30.5 68t59.5 43t84 22.5t106 6.5h199q0 1 0.5 1.5t0.5 2.5l8 45q7 39 -2.5 71t-33.5 55t-61 35.5t-84 12.5q-71 0 -124.5 -23.5t-95.5 -73.5l-27 23q49 51 110.5 78.5t140.5 27.5q88 0 144 -39t65 -107
q40 66 108.5 106t155.5 40q62 0 110 -22t79.5 -60t45 -89.5t7.5 -109.5l-1 -7h-515q-3 -52 11.5 -96t45 -76t76.5 -50t105 -18q61 0 114.5 23.5t91.5 71.5l32 -22q-92 -107 -243 -107q-102 0 -167 45t-89 118q-57 -83 -136 -121.5t-170 -38.5zM217 24q77 0 152.5 38
t135.5 125q-6 36 -3 76h-200q-51 0 -92.5 -4t-71.5 -15.5t-48 -32.5t-24 -54q-5 -27 1.5 -51.5t25 -42.5t49 -28.5t75.5 -10.5zM541 296h476q2 48 -11 89t-39.5 70.5t-67 46t-92.5 16.5q-49 0 -93.5 -16t-79.5 -45t-59.5 -69.5t-33.5 -90.5v-1z" />
    <glyph glyph-name="ccedilla" unicode="&#xe7;" horiz-adv-x="631" 
d="M289 -233q-45 0 -77 15t-55 38l32 19q18 -20 42 -31.5t61 -11.5q38 0 65 14.5t32 40.5q5 27 -18 42t-71 15h-24l15 83q-59 6 -106 33t-77.5 69t-43 96t-1.5 114q10 55 36.5 101t65.5 78.5t88 50.5t102 18q91 0 150 -40t90 -103l-33 -18q-26 56 -76.5 91.5t-131.5 35.5
q-46 0 -88.5 -16t-76.5 -44.5t-57.5 -69t-32.5 -89.5q-9 -54 3 -104t42 -88t76 -60.5t104 -22.5q66 0 123 29t92 84l33 -18q-39 -63 -105.5 -96t-143.5 -33l-11 -57q61 -2 89 -25t22 -60q-7 -38 -43.5 -59t-90.5 -21z" />
    <glyph glyph-name="egrave" unicode="&#xe8;" horiz-adv-x="661" 
d="M326 -11q-73 0 -127.5 24t-88.5 66t-46.5 99t-0.5 123q10 54 37 100t67.5 79.5t92 52t110.5 18.5q61 0 108.5 -22t79 -59.5t45 -88.5t6.5 -109l-2 -14h-513q-3 -51 12 -94t45.5 -74.5t75.5 -49t104 -17.5q61 0 114 24t91 72l31 -22q-93 -108 -241 -108zM98 297
q-1 -2 -1 -6h477q3 49 -9.5 90.5t-39 72t-66.5 47.5t-92 17q-50 0 -94.5 -16t-80.5 -45t-60.5 -69.5t-33.5 -90.5zM260 771h49l95 -148h-34z" />
    <glyph glyph-name="eacute" unicode="&#xe9;" horiz-adv-x="661" 
d="M326 -11q-73 0 -127.5 24t-88.5 66t-46.5 99t-0.5 123q10 54 37 100t67.5 79.5t92 52t110.5 18.5q61 0 108.5 -22t79 -59.5t45 -88.5t6.5 -109l-2 -14h-513q-3 -51 12 -94t45.5 -74.5t75.5 -49t104 -17.5q61 0 114 24t91 72l31 -22q-93 -108 -241 -108zM98 297
q-1 -2 -1 -6h477q3 49 -9.5 90.5t-39 72t-66.5 47.5t-92 17q-50 0 -94.5 -16t-80.5 -45t-60.5 -69.5t-33.5 -90.5zM512 771h50l-161 -148h-37z" />
    <glyph glyph-name="ecircumflex" unicode="&#xea;" horiz-adv-x="661" 
d="M326 -11q-73 0 -127.5 24t-88.5 66t-46.5 99t-0.5 123q10 54 37 100t67.5 79.5t92 52t110.5 18.5q61 0 108.5 -22t79 -59.5t45 -88.5t6.5 -109l-2 -14h-513q-3 -51 12 -94t45.5 -74.5t75.5 -49t104 -17.5q61 0 114 24t91 72l31 -22q-93 -108 -241 -108zM98 297
q-1 -2 -1 -6h477q3 49 -9.5 90.5t-39 72t-66.5 47.5t-92 17q-50 0 -94.5 -16t-80.5 -45t-60.5 -69.5t-33.5 -90.5zM388 771h32l93 -148h-39l-74 117l-115 -117h-42z" />
    <glyph glyph-name="edieresis" unicode="&#xeb;" horiz-adv-x="661" 
d="M326 -11q-73 0 -127.5 24t-88.5 66t-46.5 99t-0.5 123q10 54 37 100t67.5 79.5t92 52t110.5 18.5q61 0 108.5 -22t79 -59.5t45 -88.5t6.5 -109l-2 -14h-513q-3 -51 12 -94t45.5 -74.5t75.5 -49t104 -17.5q61 0 114 24t91 72l31 -22q-93 -108 -241 -108zM98 297
q-1 -2 -1 -6h477q3 49 -9.5 90.5t-39 72t-66.5 47.5t-92 17q-50 0 -94.5 -16t-80.5 -45t-60.5 -69.5t-33.5 -90.5zM310 636q-17 0 -26 11t-7 28q3 14 13.5 22t24.5 8q18 0 26.5 -12t4.5 -27q-2 -14 -12 -22t-24 -8zM459 636q-17 0 -26 11t-6 28q2 14 12.5 22t24.5 8
q17 0 25.5 -12t5.5 -27q-2 -14 -12 -22t-24 -8z" />
    <glyph glyph-name="igrave" unicode="&#xec;" horiz-adv-x="208" 
d="M37 0l96 540h37l-96 -540h-37zM40 764h49l95 -148h-34z" />
    <glyph glyph-name="iacute" unicode="&#xed;" horiz-adv-x="208" 
d="M296 770h50l-161 -148h-37zM37 0l96 540h37l-96 -540h-37z" />
    <glyph glyph-name="icircumflex" unicode="&#xee;" horiz-adv-x="208" 
d="M37 0l96 540h37l-96 -540h-37zM168 764h32l93 -148h-39l-74 117l-115 -117h-42z" />
    <glyph glyph-name="idieresis" unicode="&#xef;" horiz-adv-x="208" 
d="M37 0l96 540h37l-96 -540h-37zM90 633q-17 0 -26 11t-7 28q3 14 13.5 22t24.5 8q18 0 26.5 -12t4.5 -27q-2 -14 -12 -22t-24 -8zM239 633q-17 0 -26 11t-6 28q2 14 12.5 22t24.5 8q17 0 25.5 -12t5.5 -27q-2 -14 -12 -22t-24 -8z" />
    <glyph glyph-name="eth" unicode="&#xf0;" horiz-adv-x="681" 
d="M274 641l120 65q-40 41 -88 82h56q18 -16 34.5 -31.5t31.5 -32.5l126 68l15 -23l-121 -66q105 -116 146 -234.5t20 -231.5q-10 -55 -37 -100.5t-66 -78.5t-87 -51t-101 -18q-64 0 -116.5 24.5t-88 66.5t-50.5 98.5t-5 120.5q9 57 36 103t66.5 78.5t88.5 50t103 17.5
q81 0 136 -41t80 -102q-15 68 -54 138t-105 142l-126 -68zM324 23q44 0 86 16.5t76 45.5t58 68.5t32 86.5q9 51 -2 100.5t-39.5 88.5t-73 62.5t-101.5 23.5q-48 0 -91.5 -16t-77.5 -44.5t-57 -68.5t-32 -87q-9 -53 2 -102.5t40.5 -88t75 -62t104.5 -23.5z" />
    <glyph glyph-name="ntilde" unicode="&#xf1;" horiz-adv-x="648" 
d="M130 540h35l-19 -109q32 54 86 87t127 33q60 0 104.5 -19.5t72 -54t37 -82.5t-0.5 -106l-51 -289h-37l51 289q9 49 1.5 91t-30.5 72.5t-61.5 48t-90.5 17.5q-48 0 -86 -15.5t-67 -42.5t-47.5 -65t-27.5 -83l-55 -312h-36zM215 637q8 42 35 69.5t65 27.5q26 0 47 -10.5
t41 -23.5t38.5 -23.5t42.5 -10.5q25 0 42.5 16t23.5 48h32q-9 -46 -36 -71.5t-66 -25.5q-30 0 -52.5 12t-42.5 25q-18 11 -36 21t-40 10q-23 0 -40.5 -17t-22.5 -47h-31z" />
    <glyph glyph-name="ograve" unicode="&#xf2;" horiz-adv-x="675" 
d="M322 -11q-66 0 -119 25t-88 68t-49 101t-2 124q9 54 35.5 99t65 77t87.5 50t104 18q68 0 121 -26.5t86.5 -71t46.5 -102.5t2 -122q-10 -54 -36.5 -98.5t-65 -76t-87 -48.5t-101.5 -17zM321 23q47 0 89.5 15t76.5 43t57 67t32 87q9 54 -1.5 105t-39 90.5t-74.5 63.5
t-106 24q-49 0 -92 -16t-76 -44.5t-55.5 -68.5t-31.5 -89q-10 -55 1.5 -105t41 -88.5t75 -61t103.5 -22.5zM251 770h49l95 -148h-34z" />
    <glyph glyph-name="oacute" unicode="&#xf3;" horiz-adv-x="675" 
d="M322 -11q-66 0 -119 25t-88 68t-49 101t-2 124q9 54 35.5 99t65 77t87.5 50t104 18q68 0 121 -26.5t86.5 -71t46.5 -102.5t2 -122q-10 -54 -36.5 -98.5t-65 -76t-87 -48.5t-101.5 -17zM321 23q47 0 89.5 15t76.5 43t57 67t32 87q9 54 -1.5 105t-39 90.5t-74.5 63.5
t-106 24q-49 0 -92 -16t-76 -44.5t-55.5 -68.5t-31.5 -89q-10 -55 1.5 -105t41 -88.5t75 -61t103.5 -22.5zM504 770h50l-161 -148h-37z" />
    <glyph glyph-name="ocircumflex" unicode="&#xf4;" horiz-adv-x="675" 
d="M322 -11q-66 0 -119 25t-88 68t-49 101t-2 124q9 54 35.5 99t65 77t87.5 50t104 18q68 0 121 -26.5t86.5 -71t46.5 -102.5t2 -122q-10 -54 -36.5 -98.5t-65 -76t-87 -48.5t-101.5 -17zM321 23q47 0 89.5 15t76.5 43t57 67t32 87q9 54 -1.5 105t-39 90.5t-74.5 63.5
t-106 24q-49 0 -92 -16t-76 -44.5t-55.5 -68.5t-31.5 -89q-10 -55 1.5 -105t41 -88.5t75 -61t103.5 -22.5zM380 770h32l93 -148h-39l-74 117l-115 -117h-42z" />
    <glyph glyph-name="otilde" unicode="&#xf5;" horiz-adv-x="675" 
d="M322 -11q-66 0 -119 25t-88 68t-49 101t-2 124q9 54 35.5 99t65 77t87.5 50t104 18q68 0 121 -26.5t86.5 -71t46.5 -102.5t2 -122q-10 -54 -36.5 -98.5t-65 -76t-87 -48.5t-101.5 -17zM321 23q47 0 89.5 15t76.5 43t57 67t32 87q9 54 -1.5 105t-39 90.5t-74.5 63.5
t-106 24q-49 0 -92 -16t-76 -44.5t-55.5 -68.5t-31.5 -89q-10 -55 1.5 -105t41 -88.5t75 -61t103.5 -22.5zM200 628q8 42 35 69.5t65 27.5q26 0 47 -10.5t41 -23.5t38.5 -23.5t42.5 -10.5q25 0 42.5 16t23.5 48h32q-9 -46 -36 -71.5t-66 -25.5q-30 0 -52.5 12t-42.5 25
q-18 11 -36 21t-40 10q-23 0 -40.5 -17t-22.5 -47h-31z" />
    <glyph glyph-name="odieresis" unicode="&#xf6;" horiz-adv-x="675" 
d="M322 -11q-66 0 -119 25t-88 68t-49 101t-2 124q9 54 35.5 99t65 77t87.5 50t104 18q68 0 121 -26.5t86.5 -71t46.5 -102.5t2 -122q-10 -54 -36.5 -98.5t-65 -76t-87 -48.5t-101.5 -17zM321 23q47 0 89.5 15t76.5 43t57 67t32 87q9 54 -1.5 105t-39 90.5t-74.5 63.5
t-106 24q-49 0 -92 -16t-76 -44.5t-55.5 -68.5t-31.5 -89q-10 -55 1.5 -105t41 -88.5t75 -61t103.5 -22.5zM302 639q-17 0 -26 11t-7 28q3 14 13.5 22t24.5 8q18 0 26.5 -12t4.5 -27q-2 -14 -12 -22t-24 -8zM451 639q-17 0 -26 11t-6 28q2 14 12.5 22t24.5 8q17 0 25.5 -12
t5.5 -27q-2 -14 -12 -22t-24 -8z" />
    <glyph glyph-name="divide" unicode="&#xf7;" horiz-adv-x="496" 
d="M76 382h370l-6 -33h-370zM226 162q-18 0 -28 12.5t-6 29.5q2 14 13.5 23t25.5 9q19 0 28 -13t6 -29q-3 -14 -13.5 -23t-25.5 -9zM285 491q-18 0 -28 12.5t-6 29.5q2 14 13.5 23.5t25.5 9.5q19 0 28 -13t6 -30q-3 -14 -13.5 -23t-25.5 -9z" />
    <glyph glyph-name="oslash" unicode="&#xf8;" horiz-adv-x="675" 
d="M322 -11q-50 0 -92.5 14t-75.5 40l-53 -57l-23 21l53 57q-44 44 -62.5 106.5t-4.5 136.5q9 54 35.5 99t65 77t87.5 50t104 18q53 0 96 -16t76 -44l56 60l23 -19l-58 -62q42 -46 58.5 -108.5t4.5 -132.5q-10 -54 -36.5 -98.5t-65 -76t-87 -48.5t-101.5 -17zM100 300
q-11 -61 4 -115.5t52 -93.5l348 374q-29 25 -66 39t-83 14q-49 0 -92 -16t-76 -44.5t-55.5 -68.5t-31.5 -89zM321 23q47 0 89.5 15t76.5 43t57 67t32 87q10 59 -3.5 113.5t-47.5 94.5l-346 -373q28 -23 63.5 -35t78.5 -12z" />
    <glyph glyph-name="ugrave" unicode="&#xf9;" horiz-adv-x="623" 
d="M268 -11q-57 0 -98 20t-65 56t-31 85t4 106l50 284h36l-50 -286q-10 -49 -5 -91t25.5 -73t55.5 -49t86 -18q43 0 79.5 15t65.5 41.5t48.5 64t28.5 82.5l56 314h35l-94 -540h-36l20 116q-32 -60 -86 -93.5t-125 -33.5zM244 751h49l95 -148h-34z" />
    <glyph glyph-name="uacute" unicode="&#xfa;" horiz-adv-x="623" 
d="M268 -11q-57 0 -98 20t-65 56t-31 85t4 106l50 284h36l-50 -286q-10 -49 -5 -91t25.5 -73t55.5 -49t86 -18q43 0 79.5 15t65.5 41.5t48.5 64t28.5 82.5l56 314h35l-94 -540h-36l20 116q-32 -60 -86 -93.5t-125 -33.5zM496 751h50l-161 -148h-37z" />
    <glyph glyph-name="ucircumflex" unicode="&#xfb;" horiz-adv-x="623" 
d="M268 -11q-57 0 -98 20t-65 56t-31 85t4 106l50 284h36l-50 -286q-10 -49 -5 -91t25.5 -73t55.5 -49t86 -18q43 0 79.5 15t65.5 41.5t48.5 64t28.5 82.5l56 314h35l-94 -540h-36l20 116q-32 -60 -86 -93.5t-125 -33.5zM372 751h32l93 -148h-39l-74 117l-115 -117h-42z" />
    <glyph glyph-name="udieresis" unicode="&#xfc;" horiz-adv-x="623" 
d="M268 -11q-57 0 -98 20t-65 56t-31 85t4 106l50 284h36l-50 -286q-10 -49 -5 -91t25.5 -73t55.5 -49t86 -18q43 0 79.5 15t65.5 41.5t48.5 64t28.5 82.5l56 314h35l-94 -540h-36l20 116q-32 -60 -86 -93.5t-125 -33.5zM294 620q-17 0 -26 11t-7 28q3 14 13.5 22t24.5 8
q18 0 26.5 -12t4.5 -27q-2 -14 -12 -22t-24 -8zM443 620q-17 0 -26 11t-6 28q2 14 12.5 22t24.5 8q17 0 25.5 -12t5.5 -27q-2 -14 -12 -22t-24 -8z" />
    <glyph glyph-name="yacute" unicode="&#xfd;" horiz-adv-x="595" 
d="M39 -199q-45 0 -79 17t-55 49l30 24q17 -27 42 -41t61 -14q23 0 43.5 6t40 20t39 38t41.5 59l47 76l-167 506h38l154 -468l287 468h42l-370 -596q-25 -39 -47.5 -66.5t-45.5 -45t-47.5 -25t-53.5 -7.5zM478 756h50l-161 -148h-37z" />
    <glyph glyph-name="thorn" unicode="&#xfe;" horiz-adv-x="687" 
d="M336 -11q-50 0 -89.5 13.5t-69 37.5t-48.5 56t-28 70l-73 -414h-37l185 1036h36q-13 -71 -25 -139q-11 -58 -21.5 -121t-18.5 -109q39 61 101 96.5t137 35.5q61 0 110 -25t82 -68t46 -99.5t2 -120.5q-10 -56 -37 -101.5t-65.5 -78.5t-86.5 -51t-100 -18zM336 24
q46 0 88.5 16.5t76 46t57 69.5t31.5 87q10 54 -1 103.5t-39.5 87.5t-72.5 60.5t-100 22.5q-47 0 -90.5 -17.5t-78 -49t-58 -74t-31.5 -92.5q-9 -51 1.5 -98t38.5 -83t73 -57.5t105 -21.5z" />
    <glyph glyph-name="ydieresis" unicode="&#xff;" horiz-adv-x="595" 
d="M39 -199q-45 0 -79 17t-55 49l30 24q17 -27 42 -41t61 -14q23 0 43.5 6t40 20t39 38t41.5 59l47 76l-167 506h38l154 -468l287 468h42l-370 -596q-25 -39 -47.5 -66.5t-45.5 -45t-47.5 -25t-53.5 -7.5zM276 625q-17 0 -26 11t-7 28q3 14 13.5 22t24.5 8q18 0 26.5 -12
t4.5 -27q-2 -14 -12 -22t-24 -8zM425 625q-17 0 -26 11t-6 28q2 14 12.5 22t24.5 8q17 0 25.5 -12t5.5 -27q-2 -14 -12 -22t-24 -8z" />
    <glyph glyph-name="Amacron" unicode="&#x100;" horiz-adv-x="739" 
d="M432 730h39l173 -730h-38l-53 226h-377l-132 -226h-41zM196 261h349l-100 426zM342 870h264l-6 -33h-264z" />
    <glyph glyph-name="amacron" unicode="&#x101;" horiz-adv-x="689" 
d="M316 -11q-65 0 -116.5 25t-85.5 68t-48 100t-3 121q10 54 37 99.5t66 78.5t88 51.5t102 18.5q47 0 86 -13t69 -36.5t50 -55t29 -68.5l29 162h36l-95 -540h-35l22 128q-37 -63 -96 -101t-135 -38zM320 23q47 0 89 17t75.5 48t56 72.5t30.5 91.5q9 51 -1 99t-37.5 84.5
t-72 59t-104.5 22.5q-47 0 -89.5 -16.5t-77 -45.5t-58 -69.5t-32.5 -88.5q-9 -55 3 -105t41 -87.5t74.5 -59.5t102.5 -22zM255 686h264l-6 -33h-264z" />
    <glyph glyph-name="Abreve" unicode="&#x102;" horiz-adv-x="739" 
d="M432 730h39l173 -730h-38l-53 226h-377l-132 -226h-41zM196 261h349l-100 426zM461 807q-38 0 -66 13t-46 34t-24.5 48t-1.5 56h33q-5 -23 0.5 -45t19.5 -39t37 -27.5t53 -10.5q32 0 57.5 10.5t43.5 27.5t29.5 39t15.5 45h34q-5 -29 -19.5 -56t-37.5 -48t-55 -34t-73 -13
z" />
    <glyph glyph-name="abreve" unicode="&#x103;" horiz-adv-x="689" 
d="M316 -11q-65 0 -116.5 25t-85.5 68t-48 100t-3 121q10 54 37 99.5t66 78.5t88 51.5t102 18.5q47 0 86 -13t69 -36.5t50 -55t29 -68.5l29 162h36l-95 -540h-35l22 128q-37 -63 -96 -101t-135 -38zM320 23q47 0 89 17t75.5 48t56 72.5t30.5 91.5q9 51 -1 99t-37.5 84.5
t-72 59t-104.5 22.5q-47 0 -89.5 -16.5t-77 -45.5t-58 -69.5t-32.5 -88.5q-9 -55 3 -105t41 -87.5t74.5 -59.5t102.5 -22zM374 623q-38 0 -66 13t-46 34t-24.5 48t-1.5 56h33q-5 -23 0.5 -45t19.5 -39t37 -27.5t53 -10.5q32 0 57.5 10.5t43.5 27.5t29.5 39t15.5 45h34
q-5 -29 -19.5 -56t-37.5 -48t-55 -34t-73 -13z" />
    <glyph glyph-name="Aogonek" unicode="&#x104;" horiz-adv-x="739" 
d="M572 -202q-24 0 -43.5 8t-32.5 21t-19 30.5t-2 37.5q6 34 34 61t94 56l-50 214h-377l-132 -226h-41l429 730h39l173 -730q-71 -32 -99.5 -56t-33.5 -51t14 -46t51 -19t55.5 11t46.5 31l26 -21q-27 -23 -58 -37t-74 -14zM196 261h349l-100 426z" />
    <glyph glyph-name="aogonek" unicode="&#x105;" horiz-adv-x="689" 
d="M525 -202q-24 0 -43 8t-32 22t-19 31.5t-2 37.5q6 35 29.5 61t68.5 57l20 113q-37 -63 -96 -101t-135 -38q-65 0 -116.5 25t-85.5 68t-48 100t-3 121q10 54 37 99.5t66 78.5t88 51.5t102 18.5q47 0 86 -13t69 -36.5t50 -55t29 -68.5l29 162h36l-95 -540
q-47 -31 -68.5 -54.5t-26.5 -50.5t13.5 -47t51.5 -20q26 0 46.5 8.5t40.5 22.5l25 -22q-26 -18 -53 -28.5t-64 -10.5zM320 23q47 0 89 17t75.5 48t56 72.5t30.5 91.5q9 51 -1 99t-37.5 84.5t-72 59t-104.5 22.5q-47 0 -89.5 -16.5t-77 -45.5t-58 -69.5t-32.5 -88.5
q-9 -55 3 -105t41 -87.5t74.5 -59.5t102.5 -22z" />
    <glyph glyph-name="Cacute" unicode="&#x106;" horiz-adv-x="833" 
d="M436 -10q-89 0 -158.5 33.5t-114.5 90.5t-62 133t-2 161q13 73 50.5 134t92 105t121.5 68.5t139 24.5q113 0 189.5 -46.5t119.5 -133.5l-36 -17q-37 79 -102 120.5t-175 41.5q-64 0 -124.5 -22.5t-109.5 -62.5t-83 -96t-46 -122q-13 -74 2 -142t54.5 -120t102 -83.5
t145.5 -31.5q88 0 165.5 37.5t128.5 109.5l32 -22q-58 -79 -142.5 -119.5t-186.5 -40.5zM643 959h50l-161 -148h-37z" />
    <glyph glyph-name="cacute" unicode="&#x107;" horiz-adv-x="631" 
d="M323 -11q-66 0 -119 25.5t-88 68.5t-49.5 100t-3.5 120q10 55 36.5 101t65.5 78.5t88 50.5t102 18q91 0 150 -40t90 -103l-33 -18q-26 56 -76.5 91.5t-131.5 35.5q-46 0 -88.5 -16t-76.5 -44.5t-57.5 -69t-32.5 -89.5q-9 -54 3 -104t42 -88t76 -60.5t104 -22.5
q66 0 123 29t92 84l33 -18q-39 -63 -105.5 -96t-143.5 -33zM498 770h50l-161 -148h-37z" />
    <glyph glyph-name="Ccircumflex" unicode="&#x108;" horiz-adv-x="833" 
d="M436 -10q-89 0 -158.5 33.5t-114.5 90.5t-62 133t-2 161q13 73 50.5 134t92 105t121.5 68.5t139 24.5q113 0 189.5 -46.5t119.5 -133.5l-36 -17q-37 79 -102 120.5t-175 41.5q-64 0 -124.5 -22.5t-109.5 -62.5t-83 -96t-46 -122q-13 -74 2 -142t54.5 -120t102 -83.5
t145.5 -31.5q88 0 165.5 37.5t128.5 109.5l32 -22q-58 -79 -142.5 -119.5t-186.5 -40.5zM519 959h32l93 -148h-39l-74 117l-115 -117h-42z" />
    <glyph glyph-name="ccircumflex" unicode="&#x109;" horiz-adv-x="631" 
d="M323 -11q-66 0 -119 25.5t-88 68.5t-49.5 100t-3.5 120q10 55 36.5 101t65.5 78.5t88 50.5t102 18q91 0 150 -40t90 -103l-33 -18q-26 56 -76.5 91.5t-131.5 35.5q-46 0 -88.5 -16t-76.5 -44.5t-57.5 -69t-32.5 -89.5q-9 -54 3 -104t42 -88t76 -60.5t104 -22.5
q66 0 123 29t92 84l33 -18q-39 -63 -105.5 -96t-143.5 -33zM374 770h32l93 -148h-39l-74 117l-115 -117h-42z" />
    <glyph glyph-name="Cdotaccent" unicode="&#x10a;" horiz-adv-x="833" 
d="M436 -10q-89 0 -158.5 33.5t-114.5 90.5t-62 133t-2 161q13 73 50.5 134t92 105t121.5 68.5t139 24.5q113 0 189.5 -46.5t119.5 -133.5l-36 -17q-37 79 -102 120.5t-175 41.5q-64 0 -124.5 -22.5t-109.5 -62.5t-83 -96t-46 -122q-13 -74 2 -142t54.5 -120t102 -83.5
t145.5 -31.5q88 0 165.5 37.5t128.5 109.5l32 -22q-58 -79 -142.5 -119.5t-186.5 -40.5zM516 827q-18 0 -27.5 12.5t-6.5 29.5q2 14 13.5 23t25.5 9q20 0 28.5 -13t5.5 -29q-2 -14 -13 -23t-26 -9z" />
    <glyph glyph-name="cdotaccent" unicode="&#x10b;" horiz-adv-x="631" 
d="M323 -11q-66 0 -119 25.5t-88 68.5t-49.5 100t-3.5 120q10 55 36.5 101t65.5 78.5t88 50.5t102 18q91 0 150 -40t90 -103l-33 -18q-26 56 -76.5 91.5t-131.5 35.5q-46 0 -88.5 -16t-76.5 -44.5t-57.5 -69t-32.5 -89.5q-9 -54 3 -104t42 -88t76 -60.5t104 -22.5
q66 0 123 29t92 84l33 -18q-39 -63 -105.5 -96t-143.5 -33zM371 638q-18 0 -27.5 12.5t-6.5 29.5q2 14 13.5 23t25.5 9q20 0 28.5 -13t5.5 -29q-2 -14 -13 -23t-26 -9z" />
    <glyph glyph-name="Ccaron" unicode="&#x10c;" horiz-adv-x="833" 
d="M436 -10q-89 0 -158.5 33.5t-114.5 90.5t-62 133t-2 161q13 73 50.5 134t92 105t121.5 68.5t139 24.5q113 0 189.5 -46.5t119.5 -133.5l-36 -17q-37 79 -102 120.5t-175 41.5q-64 0 -124.5 -22.5t-109.5 -62.5t-83 -96t-46 -122q-13 -74 2 -142t54.5 -120t102 -83.5
t145.5 -31.5q88 0 165.5 37.5t128.5 109.5l32 -22q-58 -79 -142.5 -119.5t-186.5 -40.5zM404 960h39l74 -118l115 118h42l-145 -148h-32z" />
    <glyph glyph-name="ccaron" unicode="&#x10d;" horiz-adv-x="631" 
d="M323 -11q-66 0 -119 25.5t-88 68.5t-49.5 100t-3.5 120q10 55 36.5 101t65.5 78.5t88 50.5t102 18q91 0 150 -40t90 -103l-33 -18q-26 56 -76.5 91.5t-131.5 35.5q-46 0 -88.5 -16t-76.5 -44.5t-57.5 -69t-32.5 -89.5q-9 -54 3 -104t42 -88t76 -60.5t104 -22.5
q66 0 123 29t92 84l33 -18q-39 -63 -105.5 -96t-143.5 -33zM263 771h39l74 -118l115 118h42l-145 -148h-32z" />
    <glyph glyph-name="Dcaron" unicode="&#x10e;" horiz-adv-x="757" 
d="M177 730h198q79 -1 144.5 -32.5t109.5 -85t63 -124.5t5 -151q-14 -78 -50.5 -140t-89.5 -106t-120 -67.5t-142 -23.5h-246zM209 696l-116 -661h205q66 0 126 21.5t108 61t81.5 96.5t46.5 128q12 72 -4.5 136.5t-56.5 112.5t-99 76.5t-132 28.5h-159zM316 953h39l74 -118
l115 118h42l-145 -148h-32z" />
    <glyph glyph-name="dcaron" unicode="&#x10f;" horiz-adv-x="691" 
d="M315 -11q-64 0 -115.5 25.5t-85.5 69t-48 100.5t-3 121q10 54 37 99.5t66 78t88 50.5t102 18q47 0 85.5 -13t68 -36t49.5 -54t30 -68l73 408h36l-139 -788h-34l20 119q-38 -58 -98 -94t-132 -36zM321 23q46 0 88 17t75.5 47t56 71.5t31.5 89.5q9 52 -1.5 100.5t-38.5 86
t-72.5 60t-103.5 22.5q-47 0 -89.5 -16t-77 -44.5t-58 -69t-31.5 -88.5q-9 -55 2.5 -105t41 -88t74.5 -60.5t103 -22.5zM786 627q34 17 57.5 46.5t28.5 58.5q3 14 -2 25v-1q-4 -27 -32 -27q-14 0 -22.5 10.5t-5.5 26.5t15.5 26t29.5 10q25 0 37 -19t7 -51q-7 -39 -34.5 -71
t-67.5 -55z" />
    <glyph glyph-name="Dcroat" unicode="&#x110;" horiz-adv-x="766" 
d="M58 392h79l59 338h187q79 -1 145 -32.5t110 -85t63 -124.5t5 -151q-14 -77 -50.5 -139t-89.5 -106t-120 -68t-142 -24h-236l63 362h-80zM169 362l-58 -327h195q66 0 126.5 22t109 62t81.5 96.5t45 126.5q13 72 -3.5 136.5t-56.5 112.5t-99.5 76.5t-132.5 28.5h-148
l-54 -304h248l-6 -30h-247z" />
    <glyph glyph-name="dcroat" unicode="&#x111;" horiz-adv-x="691" 
d="M476 664h164l22 124h36l-22 -124l86 1l-5 -27h-86l-112 -638h-34l20 119q-38 -58 -98 -94t-132 -36q-64 0 -115.5 25.5t-85.5 69t-48 100.5t-3 121q10 54 37 99.5t66 78t88 50.5t102 18q47 0 85.5 -13t68 -36t49.5 -54t30 -68l46 258h-164zM321 23q46 0 88 17t75.5 47
t56 71.5t31.5 89.5q9 52 -1.5 100.5t-38.5 86t-72.5 60t-103.5 22.5q-47 0 -89.5 -16t-77 -44.5t-58 -69t-31.5 -88.5q-9 -55 2.5 -105t41 -88t74.5 -60.5t103 -22.5z" />
    <glyph glyph-name="Emacron" unicode="&#x112;" horiz-adv-x="645" 
d="M177 730h475l-6 -35h-438l-55 -312h438l-6 -34h-438l-55 -313h438l-6 -36h-475zM302 870h264l-6 -33h-264z" />
    <glyph glyph-name="emacron" unicode="&#x113;" horiz-adv-x="661" 
d="M326 -11q-73 0 -127.5 24t-88.5 66t-46.5 99t-0.5 123q10 54 37 100t67.5 79.5t92 52t110.5 18.5q61 0 108.5 -22t79 -59.5t45 -88.5t6.5 -109l-2 -14h-513q-3 -51 12 -94t45.5 -74.5t75.5 -49t104 -17.5q61 0 114 24t91 72l31 -22q-93 -108 -241 -108zM98 297
q-1 -2 -1 -6h477q3 49 -9.5 90.5t-39 72t-66.5 47.5t-92 17q-50 0 -94.5 -16t-80.5 -45t-60.5 -69.5t-33.5 -90.5zM261 687h264l-6 -33h-264z" />
    <glyph glyph-name="Ebreve" unicode="&#x114;" horiz-adv-x="645" 
d="M177 730h475l-6 -35h-438l-55 -312h438l-6 -34h-438l-55 -313h438l-6 -36h-475zM421 807q-38 0 -66 13t-46 34t-24.5 48t-1.5 56h33q-5 -23 0.5 -45t19.5 -39t37 -27.5t53 -10.5q32 0 57.5 10.5t43.5 27.5t29.5 39t15.5 45h34q-5 -29 -19.5 -56t-37.5 -48t-55 -34
t-73 -13z" />
    <glyph glyph-name="ebreve" unicode="&#x115;" horiz-adv-x="661" 
d="M326 -11q-73 0 -127.5 24t-88.5 66t-46.5 99t-0.5 123q10 54 37 100t67.5 79.5t92 52t110.5 18.5q61 0 108.5 -22t79 -59.5t45 -88.5t6.5 -109l-2 -14h-513q-3 -51 12 -94t45.5 -74.5t75.5 -49t104 -17.5q61 0 114 24t91 72l31 -22q-93 -108 -241 -108zM98 297
q-1 -2 -1 -6h477q3 49 -9.5 90.5t-39 72t-66.5 47.5t-92 17q-50 0 -94.5 -16t-80.5 -45t-60.5 -69.5t-33.5 -90.5zM380 624q-38 0 -66 13t-46 34t-24.5 48t-1.5 56h33q-5 -23 0.5 -45t19.5 -39t37 -27.5t53 -10.5q32 0 57.5 10.5t43.5 27.5t29.5 39t15.5 45h34
q-5 -29 -19.5 -56t-37.5 -48t-55 -34t-73 -13z" />
    <glyph glyph-name="Edotaccent" unicode="&#x116;" horiz-adv-x="645" 
d="M177 730h475l-6 -35h-438l-55 -312h438l-6 -34h-438l-55 -313h438l-6 -36h-475zM426 822q-18 0 -27.5 12.5t-6.5 29.5q2 14 13.5 23t25.5 9q20 0 28.5 -13t5.5 -29q-2 -14 -13 -23t-26 -9z" />
    <glyph glyph-name="edotaccent" unicode="&#x117;" horiz-adv-x="661" 
d="M326 -11q-73 0 -127.5 24t-88.5 66t-46.5 99t-0.5 123q10 54 37 100t67.5 79.5t92 52t110.5 18.5q61 0 108.5 -22t79 -59.5t45 -88.5t6.5 -109l-2 -14h-513q-3 -51 12 -94t45.5 -74.5t75.5 -49t104 -17.5q61 0 114 24t91 72l31 -22q-93 -108 -241 -108zM98 297
q-1 -2 -1 -6h477q3 49 -9.5 90.5t-39 72t-66.5 47.5t-92 17q-50 0 -94.5 -16t-80.5 -45t-60.5 -69.5t-33.5 -90.5zM385 639q-18 0 -27.5 12.5t-6.5 29.5q2 14 13.5 23t25.5 9q20 0 28.5 -13t5.5 -29q-2 -14 -13 -23t-26 -9z" />
    <glyph glyph-name="Eogonek" unicode="&#x118;" horiz-adv-x="645" 
d="M177 730h475l-6 -35h-438l-55 -312h438l-6 -34h-438l-55 -313h438l-6 -36q-71 -32 -99.5 -56t-33.5 -51t14 -46t51 -19t55.5 11t46.5 31l26 -21q-27 -23 -58 -37t-74 -14q-24 0 -43.5 8t-32.5 21t-19 30.5t-2 37.5q5 30 27.5 54.5t74.5 50.5h-408z" />
    <glyph glyph-name="eogonek" unicode="&#x119;" horiz-adv-x="661" 
d="M376 -189q-24 0 -43.5 8t-32.5 21t-19 30.5t-2 37.5q5 23 18 42.5t42 38.5h-13q-73 0 -127.5 24t-88.5 66t-46.5 99t-0.5 123q10 54 37 100t67.5 79.5t92 52t110.5 18.5q61 0 108.5 -22t79 -59.5t45 -88.5t6.5 -109l-2 -14h-513q-3 -51 12 -94t45.5 -74.5t75.5 -49
t104 -17.5q61 0 114 24t91 72l31 -22q-57 -68 -138 -93q-30 -14 -50.5 -26.5t-34 -24t-20.5 -23t-9 -24.5q-5 -27 14 -46t51 -19t55.5 11t46.5 31l26 -21q-27 -23 -58 -37t-74 -14zM98 297q-1 -2 -1 -6h477q3 49 -9.5 90.5t-39 72t-66.5 47.5t-92 17q-50 0 -94.5 -16
t-80.5 -45t-60.5 -69.5t-33.5 -90.5z" />
    <glyph glyph-name="Ecaron" unicode="&#x11a;" horiz-adv-x="645" 
d="M177 730h475l-6 -35h-438l-55 -312h438l-6 -34h-438l-55 -313h438l-6 -36h-475zM313 955h39l74 -118l115 118h42l-145 -148h-32z" />
    <glyph glyph-name="ecaron" unicode="&#x11b;" horiz-adv-x="661" 
d="M326 -11q-73 0 -127.5 24t-88.5 66t-46.5 99t-0.5 123q10 54 37 100t67.5 79.5t92 52t110.5 18.5q61 0 108.5 -22t79 -59.5t45 -88.5t6.5 -109l-2 -14h-513q-3 -51 12 -94t45.5 -74.5t75.5 -49t104 -17.5q61 0 114 24t91 72l31 -22q-93 -108 -241 -108zM98 297
q-1 -2 -1 -6h477q3 49 -9.5 90.5t-39 72t-66.5 47.5t-92 17q-50 0 -94.5 -16t-80.5 -45t-60.5 -69.5t-33.5 -90.5zM272 772h39l74 -118l115 118h42l-145 -148h-32z" />
    <glyph glyph-name="Gcircumflex" unicode="&#x11c;" horiz-adv-x="887" 
d="M444 -10q-87 0 -158 33.5t-118 90.5t-66.5 133t-4.5 162q13 72 49 133t89 105t119 68.5t138 24.5q106 0 185.5 -48t125.5 -129l-35 -19q-42 76 -112 118.5t-167 42.5q-65 0 -124 -22.5t-106.5 -63t-80 -96t-44.5 -120.5q-13 -72 3 -140t57.5 -120.5t105.5 -84.5t147 -32
q71 0 130.5 24.5t104 67t72.5 99.5t37 122h-341l6 35h378l-1 -9q-6 -75 -35.5 -143t-79 -119.5t-119 -82t-155.5 -30.5zM514 959h32l93 -148h-39l-74 117l-115 -117h-42z" />
    <glyph glyph-name="gcircumflex" unicode="&#x11d;" horiz-adv-x="689" 
d="M316 -11q-65 0 -116.5 25.5t-85.5 69t-48 100.5t-3 121q10 54 37 99.5t66 78t87.5 50.5t102.5 18q48 0 87 -13.5t68.5 -37t49.5 -56t29 -70.5q3 20 8 48t10 54t8.5 44.5t3.5 19.5h35l-89 -499q-23 -127 -92.5 -198t-197.5 -71q-93 0 -155 40t-88 106l37 12
q22 -57 74.5 -90.5t133.5 -33.5q55 0 98 16.5t74.5 47.5t51.5 74t29 96q1 12 4 25q2 11 4.5 25t5.5 28q-36 -59 -95 -94t-134 -35zM321 23q46 0 88 17t75 47t56 71.5t31 89.5q9 52 -1 100.5t-38 86t-72.5 60t-103.5 22.5q-47 0 -89.5 -16t-77 -44.5t-58 -69t-32.5 -88.5
q-9 -55 3 -105t41.5 -88t74.5 -60.5t103 -22.5zM379 770h32l93 -148h-39l-74 117l-115 -117h-42z" />
    <glyph glyph-name="Gbreve" unicode="&#x11e;" horiz-adv-x="887" 
d="M444 -10q-87 0 -158 33.5t-118 90.5t-66.5 133t-4.5 162q13 72 49 133t89 105t119 68.5t138 24.5q106 0 185.5 -48t125.5 -129l-35 -19q-42 76 -112 118.5t-167 42.5q-65 0 -124 -22.5t-106.5 -63t-80 -96t-44.5 -120.5q-13 -72 3 -140t57.5 -120.5t105.5 -84.5t147 -32
q71 0 130.5 24.5t104 67t72.5 99.5t37 122h-341l6 35h378l-1 -9q-6 -75 -35.5 -143t-79 -119.5t-119 -82t-155.5 -30.5zM502 812q-38 0 -66 13t-46 34t-24.5 48t-1.5 56h33q-5 -23 0.5 -45t19.5 -39t37 -27.5t53 -10.5q32 0 57.5 10.5t43.5 27.5t29.5 39t15.5 45h34
q-5 -29 -19.5 -56t-37.5 -48t-55 -34t-73 -13z" />
    <glyph glyph-name="gbreve" unicode="&#x11f;" horiz-adv-x="689" 
d="M316 -11q-65 0 -116.5 25.5t-85.5 69t-48 100.5t-3 121q10 54 37 99.5t66 78t87.5 50.5t102.5 18q48 0 87 -13.5t68.5 -37t49.5 -56t29 -70.5q3 20 8 48t10 54t8.5 44.5t3.5 19.5h35l-89 -499q-23 -127 -92.5 -198t-197.5 -71q-93 0 -155 40t-88 106l37 12
q22 -57 74.5 -90.5t133.5 -33.5q55 0 98 16.5t74.5 47.5t51.5 74t29 96q1 12 4 25q2 11 4.5 25t5.5 28q-36 -59 -95 -94t-134 -35zM321 23q46 0 88 17t75 47t56 71.5t31 89.5q9 52 -1 100.5t-38 86t-72.5 60t-103.5 22.5q-47 0 -89.5 -16t-77 -44.5t-58 -69t-32.5 -88.5
q-9 -55 3 -105t41.5 -88t74.5 -60.5t103 -22.5zM386 623q-38 0 -66 13t-46 34t-24.5 48t-1.5 56h33q-5 -23 0.5 -45t19.5 -39t37 -27.5t53 -10.5q32 0 57.5 10.5t43.5 27.5t29.5 39t15.5 45h34q-5 -29 -19.5 -56t-37.5 -48t-55 -34t-73 -13z" />
    <glyph glyph-name="Gdotaccent" unicode="&#x120;" horiz-adv-x="887" 
d="M444 -10q-87 0 -158 33.5t-118 90.5t-66.5 133t-4.5 162q13 72 49 133t89 105t119 68.5t138 24.5q106 0 185.5 -48t125.5 -129l-35 -19q-42 76 -112 118.5t-167 42.5q-65 0 -124 -22.5t-106.5 -63t-80 -96t-44.5 -120.5q-13 -72 3 -140t57.5 -120.5t105.5 -84.5t147 -32
q71 0 130.5 24.5t104 67t72.5 99.5t37 122h-341l6 35h378l-1 -9q-6 -75 -35.5 -143t-79 -119.5t-119 -82t-155.5 -30.5zM507 827q-18 0 -27.5 12.5t-6.5 29.5q2 14 13.5 23t25.5 9q20 0 28.5 -13t5.5 -29q-2 -14 -13 -23t-26 -9z" />
    <glyph glyph-name="gdotaccent" unicode="&#x121;" horiz-adv-x="689" 
d="M316 -11q-65 0 -116.5 25.5t-85.5 69t-48 100.5t-3 121q10 54 37 99.5t66 78t87.5 50.5t102.5 18q48 0 87 -13.5t68.5 -37t49.5 -56t29 -70.5q3 20 8 48t10 54t8.5 44.5t3.5 19.5h35l-89 -499q-23 -127 -92.5 -198t-197.5 -71q-93 0 -155 40t-88 106l37 12
q22 -57 74.5 -90.5t133.5 -33.5q55 0 98 16.5t74.5 47.5t51.5 74t29 96q1 12 4 25q2 11 4.5 25t5.5 28q-36 -59 -95 -94t-134 -35zM321 23q46 0 88 17t75 47t56 71.5t31 89.5q9 52 -1 100.5t-38 86t-72.5 60t-103.5 22.5q-47 0 -89.5 -16t-77 -44.5t-58 -69t-32.5 -88.5
q-9 -55 3 -105t41.5 -88t74.5 -60.5t103 -22.5zM375 638q-18 0 -27.5 12.5t-6.5 29.5q2 14 13.5 23t25.5 9q20 0 28.5 -13t5.5 -29q-2 -14 -13 -23t-26 -9z" />
    <glyph glyph-name="Gcommaaccent" unicode="&#x122;" horiz-adv-x="887" 
d="M444 -10q-87 0 -158 33.5t-118 90.5t-66.5 133t-4.5 162q13 72 49 133t89 105t119 68.5t138 24.5q106 0 185.5 -48t125.5 -129l-35 -19q-42 76 -112 118.5t-167 42.5q-65 0 -124 -22.5t-106.5 -63t-80 -96t-44.5 -120.5q-13 -72 3 -140t57.5 -120.5t105.5 -84.5t147 -32
q71 0 130.5 24.5t104 67t72.5 99.5t37 122h-341l6 35h378l-1 -9q-6 -75 -35.5 -143t-79 -119.5t-119 -82t-155.5 -30.5zM355 -255q34 17 57.5 47t28.5 59q3 15 -2 25v-1q-2 -15 -10.5 -21t-21.5 -6q-14 0 -22.5 10t-5.5 27q3 16 15.5 25.5t29.5 9.5q25 0 37 -18.5t7 -50.5
q-7 -39 -34.5 -71.5t-67.5 -54.5z" />
    <glyph glyph-name="gcommaaccent" unicode="&#x123;" horiz-adv-x="689" 
d="M316 -11q-65 0 -116.5 25.5t-85.5 69t-48 100.5t-3 121q10 54 37 99.5t66 78t87.5 50.5t102.5 18q48 0 87 -13.5t68.5 -37t49.5 -56t29 -70.5q3 20 8 48t10 54t8.5 44.5t3.5 19.5h35l-89 -499q-23 -127 -92.5 -198t-197.5 -71q-93 0 -155 40t-88 106l37 12
q22 -57 74.5 -90.5t133.5 -33.5q55 0 98 16.5t74.5 47.5t51.5 74t29 96q1 12 4 25q2 11 4.5 25t5.5 28q-36 -59 -95 -94t-134 -35zM321 23q46 0 88 17t75 47t56 71.5t31 89.5q9 52 -1 100.5t-38 86t-72.5 60t-103.5 22.5q-47 0 -89.5 -16t-77 -44.5t-58 -69t-32.5 -88.5
q-9 -55 3 -105t41.5 -88t74.5 -60.5t103 -22.5zM447 801q-34 -17 -57.5 -46.5t-28.5 -58.5q-3 -15 2 -25v1q4 27 32 27q14 0 22.5 -10.5t5.5 -26.5t-15.5 -26t-29.5 -10q-25 0 -37 19t-7 51q7 39 35 71.5t68 54.5z" />
    <glyph glyph-name="Hcircumflex" unicode="&#x124;" horiz-adv-x="731" 
d="M612 348h-464l-61 -348h-38l128 730h38l-61 -347h464l61 347h37l-128 -730h-37zM464 945h32l93 -148h-39l-74 117l-115 -117h-42z" />
    <glyph glyph-name="hcircumflex" unicode="&#x125;" horiz-adv-x="649" 
d="M176 788h37l-65 -364q32 57 88.5 92t131.5 35q58 0 101 -19.5t69.5 -54t35 -83t-1.5 -105.5l-50 -289h-36l50 289q9 49 2.5 90.5t-28.5 72.5t-59.5 48.5t-89.5 17.5q-47 0 -85.5 -15t-68 -42.5t-49 -66t-27.5 -84.5l-55 -310h-38zM211 1012h32l93 -148h-39l-74 117
l-115 -117h-42z" />
    <glyph glyph-name="Hbar" unicode="&#x126;" horiz-adv-x="741" 
d="M93 570h61l28 160h38l-28 -160h464l28 160h37l-28 -160h62l-5 -30h-63l-94 -540h-37l61 348h-464l-61 -348h-38l94 540h-61zM623 383l27 157h-464l-27 -157h464z" />
    <glyph glyph-name="hbar" unicode="&#x127;" horiz-adv-x="649" 
d="M92 686h66l18 102h37l-18 -102h182l-5 -26l-182 -1l-42 -235q32 57 88.5 92t131.5 35q58 0 101 -19.5t69.5 -54t35 -83t-1.5 -105.5l-50 -289h-36l50 289q9 49 2.5 90.5t-28.5 72.5t-59.5 48.5t-89.5 17.5q-47 0 -85.5 -15t-68 -42.5t-49 -66t-27.5 -84.5l-55 -310h-38
l115 659h-67z" />
    <glyph glyph-name="Itilde" unicode="&#x128;" horiz-adv-x="252" 
d="M188 730h38l-128 -730h-38zM45 812q8 42 35 69.5t65 27.5q26 0 47 -10.5t41 -23.5t38.5 -23.5t42.5 -10.5q25 0 42.5 16t23.5 48h32q-9 -46 -36 -71.5t-66 -25.5q-30 0 -52.5 12t-42.5 25q-18 11 -36 21t-40 10q-23 0 -40.5 -17t-22.5 -47h-31z" />
    <glyph glyph-name="itilde" unicode="&#x129;" horiz-adv-x="208" 
d="M37 0l96 540h37l-96 -540h-37zM-12 622q8 42 35 69.5t65 27.5q26 0 47 -10.5t41 -23.5t38.5 -23.5t42.5 -10.5q25 0 42.5 16t23.5 48h32q-9 -46 -36 -71.5t-66 -25.5q-30 0 -52.5 12t-42.5 25q-18 11 -36 21t-40 10q-23 0 -40.5 -17t-22.5 -47h-31z" />
    <glyph glyph-name="Imacron" unicode="&#x12a;" horiz-adv-x="252" 
d="M188 730h38l-128 -730h-38zM98 870h264l-6 -33h-264z" />
    <glyph glyph-name="imacron" unicode="&#x12b;" horiz-adv-x="208" 
d="M37 0l96 540h37l-96 -540h-37zM41 680h264l-6 -33h-264z" />
    <glyph glyph-name="Ibreve" unicode="&#x12c;" horiz-adv-x="252" 
d="M188 730h38l-128 -730h-38zM217 807q-38 0 -66 13t-46 34t-24.5 48t-1.5 56h33q-5 -23 0.5 -45t19.5 -39t37 -27.5t53 -10.5q32 0 57.5 10.5t43.5 27.5t29.5 39t15.5 45h34q-5 -29 -19.5 -56t-37.5 -48t-55 -34t-73 -13z" />
    <glyph glyph-name="ibreve" unicode="&#x12d;" horiz-adv-x="208" 
d="M37 0l96 540h37l-96 -540h-37zM160 617q-38 0 -66 13t-46 34t-24.5 48t-1.5 56h33q-5 -23 0.5 -45t19.5 -39t37 -27.5t53 -10.5q32 0 57.5 10.5t43.5 27.5t29.5 39t15.5 45h34q-5 -29 -19.5 -56t-37.5 -48t-55 -34t-73 -13z" />
    <glyph glyph-name="Iogonek" unicode="&#x12e;" horiz-adv-x="252" 
d="M63 -202q-24 0 -43 8t-32 22t-19 31.5t-2 37.5q7 34 29 60t66 55l126 718h38l-128 -730q-47 -31 -68.5 -54.5t-26.5 -50.5t13.5 -47t51.5 -20q26 0 46.5 8.5t40.5 22.5l25 -22q-26 -18 -53 -28.5t-64 -10.5z" />
    <glyph glyph-name="iogonek" unicode="&#x12f;" horiz-adv-x="208" 
d="M39 -202q-24 0 -43 8t-32 22t-19 31.5t-2 37.5q7 34 29.5 60.5t66.5 55.5l94 527h37l-96 -540q-47 -31 -68.5 -54.5t-26.5 -50.5t13.5 -47t51.5 -20q26 0 46.5 8.5t40.5 22.5l25 -22q-26 -18 -53 -28.5t-64 -10.5zM178 670q-19 0 -29 13.5t-6 30.5q2 15 14 24t26 9
q20 0 29 -13.5t6 -30.5q-3 -14 -13.5 -23.5t-26.5 -9.5z" />
    <glyph glyph-name="Idotaccent" unicode="&#x130;" horiz-adv-x="252" 
d="M188 730h38l-128 -730h-38zM222 822q-18 0 -27.5 12.5t-6.5 29.5q2 14 13.5 23t25.5 9q20 0 28.5 -13t5.5 -29q-2 -14 -13 -23t-26 -9z" />
    <glyph glyph-name="dotlessi" unicode="&#x131;" horiz-adv-x="208" 
d="M37 0l96 540h37l-96 -540h-37z" />
    <glyph glyph-name="IJ" unicode="&#x132;" horiz-adv-x="582" 
d="M193 35h84q71 0 111.5 40.5t52.5 109.5l96 545h38l-96 -543q-15 -85 -63.5 -136t-141.5 -51h-87zM176 730h37l-128 -730h-37z" />
    <glyph glyph-name="ij" unicode="&#x133;" horiz-adv-x="379" 
d="M33 0l95 540h38l-95 -540h-38zM8 -169h38q40 0 67.5 5.5t45.5 21.5t29 44.5t20 75.5l4 24.5t11 64.5t16 90t18 103l50 280h38l-100 -563q-10 -55 -23.5 -90t-35.5 -55.5t-55 -28t-81 -7.5h-49zM175 670q-20 0 -30 13t-6 31q2 15 14 24.5t27 9.5q20 0 28.5 -14t6.5 -31
q-3 -14 -14 -23.5t-26 -9.5zM353 670q-19 0 -29 13.5t-6 30.5q2 15 14 24t26 9q20 0 29 -13.5t6 -30.5q-3 -14 -14 -23.5t-26 -9.5z" />
    <glyph glyph-name="Jcircumflex" unicode="&#x134;" horiz-adv-x="517" 
d="M203 -10q-69 0 -114.5 31.5t-64.5 78.5l33 16q17 -40 54 -65.5t95 -25.5q71 0 112 43.5t53 111.5l96 550h38l-97 -550q-15 -86 -65 -138t-140 -52zM504 954h32l93 -148h-39l-74 117l-115 -117h-42z" />
    <glyph glyph-name="jcircumflex" unicode="&#x135;" horiz-adv-x="210" 
d="M-130 -211q40 0 67 6.5t45 23.5t29 46.5t20 74.5l4.5 26t12 68.5t17.5 96.5t20 110q24 132 53 299h37l-107 -601q-10 -54 -23.5 -89.5t-35.5 -57t-54.5 -30t-80.5 -8.5h-11zM174 764h32l93 -148h-39l-74 117l-115 -117h-42z" />
    <glyph glyph-name="Kcommaaccent" unicode="&#x136;" horiz-adv-x="683" 
d="M345 408l-223 -207l-35 -201h-38l128 730h38l-84 -476l510 476h50l-318 -297l222 -433h-41zM230 -232q34 17 57.5 47t28.5 59q3 15 -2 25v-1q-2 -15 -10.5 -21t-21.5 -6q-14 0 -22.5 10t-5.5 27q3 16 15.5 25.5t29.5 9.5q25 0 37 -18.5t7 -50.5q-7 -39 -34.5 -71.5
t-67.5 -54.5z" />
    <glyph glyph-name="kcommaaccent" unicode="&#x137;" horiz-adv-x="564" 
d="M268 290l-167 -139l-26 -151h-37l138 788h37l-104 -591l411 343h50l-274 -230l194 -310h-41zM167 -231q34 17 57.5 47t28.5 59q3 15 -2 25v-1q-2 -15 -10.5 -21t-21.5 -6q-14 0 -22.5 10t-5.5 27q3 16 15.5 25.5t29.5 9.5q25 0 37 -18.5t7 -50.5q-7 -39 -34.5 -71.5
t-67.5 -54.5z" />
    <glyph glyph-name="kgreenlandic" unicode="&#x138;" horiz-adv-x="564" 
d="M268 290l-167 -139l-26 -151h-37l95 540h37l-61 -343l411 343h50l-274 -230l194 -310h-41z" />
    <glyph glyph-name="Lacute" unicode="&#x139;" horiz-adv-x="609" 
d="M177 730h38l-123 -694h417l-5 -36h-455zM337 954h50l-161 -148h-37z" />
    <glyph glyph-name="lacute" unicode="&#x13a;" horiz-adv-x="207" 
d="M176 788h37l-138 -788h-37zM337 1012h50l-161 -148h-37z" />
    <glyph glyph-name="Lcommaaccent" unicode="&#x13b;" horiz-adv-x="609" 
d="M177 730h38l-123 -694h417l-5 -36h-455zM196 -249q34 17 57.5 47t28.5 59q3 15 -2 25v-1q-2 -15 -10.5 -21t-21.5 -6q-14 0 -22.5 10t-5.5 27q3 16 15.5 25.5t29.5 9.5q25 0 37 -18.5t7 -50.5q-7 -39 -34.5 -71.5t-67.5 -54.5z" />
    <glyph glyph-name="lcommaaccent" unicode="&#x13c;" horiz-adv-x="207" 
d="M176 788h37l-138 -788h-37zM-32 -249q34 17 57.5 47t28.5 59q3 15 -2 25v-1q-2 -15 -10.5 -21t-21.5 -6q-14 0 -22.5 10t-5.5 27q3 16 15.5 25.5t29.5 9.5q25 0 37 -18.5t7 -50.5q-7 -39 -34.5 -71.5t-67.5 -54.5z" />
    <glyph glyph-name="Lcaron" unicode="&#x13d;" horiz-adv-x="609" 
d="M177 730h38l-123 -694h417l-5 -36h-455zM478 569q34 17 57.5 46.5t28.5 58.5q3 14 -2 25v-1q-4 -27 -32 -27q-14 0 -22.5 10.5t-5.5 26.5t15.5 26t29.5 10q25 0 37 -19t7 -51q-7 -39 -34.5 -71t-67.5 -55z" />
    <glyph glyph-name="lcaron" unicode="&#x13e;" horiz-adv-x="207" 
d="M176 788h37l-138 -788h-37zM301 627q34 17 57.5 46.5t28.5 58.5q3 14 -2 25v-1q-4 -27 -32 -27q-14 0 -22.5 10.5t-5.5 26.5t15.5 26t29.5 10q25 0 37 -19t7 -51q-7 -39 -34.5 -71t-67.5 -55z" />
    <glyph glyph-name="Ldot" unicode="&#x13f;" horiz-adv-x="609" 
d="M177 730h38l-123 -694h417l-5 -36h-455zM482 286q-18 0 -27.5 12.5t-6.5 29.5q2 14 13.5 23t25.5 9q20 0 28.5 -13t5.5 -29q-2 -14 -13 -23t-26 -9z" />
    <glyph glyph-name="ldot" unicode="&#x140;" horiz-adv-x="333" 
d="M176 788h37l-138 -788h-37zM260 223q-18 0 -27.5 12.5t-6.5 29.5q2 14 13.5 23t25.5 9q20 0 28.5 -13t5.5 -29q-2 -14 -13 -23t-26 -9z" />
    <glyph glyph-name="Lslash" unicode="&#x141;" horiz-adv-x="609" 
d="M40 355l92 26l61 349h38l-60 -338l209 59l7 -28l-222 -63l-57 -324h417l-5 -36h-455l61 349l-79 -22z" />
    <glyph glyph-name="lslash" unicode="&#x142;" horiz-adv-x="306" 
d="M29 384l124 43l63 361h37l-61 -347l133 47l-4 -29l-134 -48l-72 -411h-37l69 397l-123 -43z" />
    <glyph glyph-name="Nacute" unicode="&#x143;" horiz-adv-x="765" 
d="M177 730h40l377 -676l119 676h37l-128 -730h-38l-379 678l-119 -678h-37zM615 943h50l-161 -148h-37z" />
    <glyph glyph-name="nacute" unicode="&#x144;" horiz-adv-x="648" 
d="M130 540h35l-19 -109q32 54 86 87t127 33q60 0 104.5 -19.5t72 -54t37 -82.5t-0.5 -106l-51 -289h-37l51 289q9 49 1.5 91t-30.5 72.5t-61.5 48t-90.5 17.5q-48 0 -86 -15.5t-67 -42.5t-47.5 -65t-27.5 -83l-55 -312h-36zM507 768h50l-161 -148h-37z" />
    <glyph glyph-name="Ncommaaccent" unicode="&#x145;" horiz-adv-x="765" 
d="M177 730h40l377 -676l119 676h37l-128 -730h-38l-379 678l-119 -678h-37zM234 -242q34 17 57.5 47t28.5 59q3 15 -2 25v-1q-2 -15 -10.5 -21t-21.5 -6q-14 0 -22.5 10t-5.5 27q3 16 15.5 25.5t29.5 9.5q25 0 37 -18.5t7 -50.5q-7 -39 -34.5 -71.5t-67.5 -54.5z" />
    <glyph glyph-name="ncommaaccent" unicode="&#x146;" horiz-adv-x="648" 
d="M130 540h35l-19 -109q32 54 86 87t127 33q60 0 104.5 -19.5t72 -54t37 -82.5t-0.5 -106l-51 -289h-37l51 289q9 49 1.5 91t-30.5 72.5t-61.5 48t-90.5 17.5q-48 0 -86 -15.5t-67 -42.5t-47.5 -65t-27.5 -83l-55 -312h-36zM203 -234q34 17 57.5 47t28.5 59q3 15 -2 25v-1
q-2 -15 -10.5 -21t-21.5 -6q-14 0 -22.5 10t-5.5 27q3 16 15.5 25.5t29.5 9.5q25 0 37 -18.5t7 -50.5q-7 -39 -34.5 -71.5t-67.5 -54.5z" />
    <glyph glyph-name="Ncaron" unicode="&#x147;" horiz-adv-x="765" 
d="M177 730h40l377 -676l119 676h37l-128 -730h-38l-379 678l-119 -678h-37zM375 944h39l74 -118l115 118h42l-145 -148h-32z" />
    <glyph glyph-name="ncaron" unicode="&#x148;" horiz-adv-x="648" 
d="M130 540h35l-19 -109q32 54 86 87t127 33q60 0 104.5 -19.5t72 -54t37 -82.5t-0.5 -106l-51 -289h-37l51 289q9 49 1.5 91t-30.5 72.5t-61.5 48t-90.5 17.5q-48 0 -86 -15.5t-67 -42.5t-47.5 -65t-27.5 -83l-55 -312h-36zM267 769h39l74 -118l115 118h42l-145 -148h-32z
" />
    <glyph glyph-name="Eng" unicode="&#x14a;" horiz-adv-x="751" 
d="M346 -167h62q75 0 111.5 38t47.5 108l4 23l-366 672l-118 -674h-38l128 730h40l364 -669l118 669h37l-131 -748q-16 -95 -61 -140t-139 -45h-66z" />
    <glyph glyph-name="eng" unicode="&#x14b;" horiz-adv-x="648" 
d="M313 -211q40 0 67 6.5t45 23.5t29 46.5t20 74.5l61 349q9 49 1.5 91t-30.5 72.5t-61.5 48t-90.5 17.5q-48 0 -86 -15.5t-67 -42.5t-47.5 -65t-27.5 -83l-55 -312h-36l95 540h35l-19 -109q32 54 86 87t127 33q60 0 104.5 -19.5t72 -54t37 -82.5t-0.5 -106l-62 -350
q-9 -54 -22.5 -89.5t-35.5 -57t-54.5 -30t-80.5 -8.5h-11z" />
    <glyph glyph-name="Omacron" unicode="&#x14c;" horiz-adv-x="895" 
d="M442 -10q-86 0 -156.5 33.5t-117 90.5t-66 133t-4.5 162q13 73 49.5 133.5t89 104.5t117 68.5t134.5 24.5q91 0 161.5 -37t115.5 -96.5t62 -135t3 -153.5q-13 -73 -49 -133.5t-88 -103.5t-116.5 -67t-134.5 -24zM445 25q62 0 120 22t104.5 62t79 94.5t44.5 119.5
q13 70 -2 138.5t-55 123t-103 88t-147 33.5q-63 0 -121.5 -22.5t-105.5 -63t-79.5 -96t-44.5 -121.5q-13 -77 4.5 -146t59.5 -120.5t105 -81.5t141 -30zM379 875h264l-6 -33h-264z" />
    <glyph glyph-name="omacron" unicode="&#x14d;" horiz-adv-x="675" 
d="M322 -11q-66 0 -119 25t-88 68t-49 101t-2 124q9 54 35.5 99t65 77t87.5 50t104 18q68 0 121 -26.5t86.5 -71t46.5 -102.5t2 -122q-10 -54 -36.5 -98.5t-65 -76t-87 -48.5t-101.5 -17zM321 23q47 0 89.5 15t76.5 43t57 67t32 87q9 54 -1.5 105t-39 90.5t-74.5 63.5
t-106 24q-49 0 -92 -16t-76 -44.5t-55.5 -68.5t-31.5 -89q-10 -55 1.5 -105t41 -88.5t75 -61t103.5 -22.5zM253 686h264l-6 -33h-264z" />
    <glyph glyph-name="Obreve" unicode="&#x14e;" horiz-adv-x="895" 
d="M442 -10q-86 0 -156.5 33.5t-117 90.5t-66 133t-4.5 162q13 73 49.5 133.5t89 104.5t117 68.5t134.5 24.5q91 0 161.5 -37t115.5 -96.5t62 -135t3 -153.5q-13 -73 -49 -133.5t-88 -103.5t-116.5 -67t-134.5 -24zM445 25q62 0 120 22t104.5 62t79 94.5t44.5 119.5
q13 70 -2 138.5t-55 123t-103 88t-147 33.5q-63 0 -121.5 -22.5t-105.5 -63t-79.5 -96t-44.5 -121.5q-13 -77 4.5 -146t59.5 -120.5t105 -81.5t141 -30zM498 812q-38 0 -66 13t-46 34t-24.5 48t-1.5 56h33q-5 -23 0.5 -45t19.5 -39t37 -27.5t53 -10.5q32 0 57.5 10.5
t43.5 27.5t29.5 39t15.5 45h34q-5 -29 -19.5 -56t-37.5 -48t-55 -34t-73 -13z" />
    <glyph glyph-name="obreve" unicode="&#x14f;" horiz-adv-x="675" 
d="M322 -11q-66 0 -119 25t-88 68t-49 101t-2 124q9 54 35.5 99t65 77t87.5 50t104 18q68 0 121 -26.5t86.5 -71t46.5 -102.5t2 -122q-10 -54 -36.5 -98.5t-65 -76t-87 -48.5t-101.5 -17zM321 23q47 0 89.5 15t76.5 43t57 67t32 87q9 54 -1.5 105t-39 90.5t-74.5 63.5
t-106 24q-49 0 -92 -16t-76 -44.5t-55.5 -68.5t-31.5 -89q-10 -55 1.5 -105t41 -88.5t75 -61t103.5 -22.5zM372 623q-38 0 -66 13t-46 34t-24.5 48t-1.5 56h33q-5 -23 0.5 -45t19.5 -39t37 -27.5t53 -10.5q32 0 57.5 10.5t43.5 27.5t29.5 39t15.5 45h34q-5 -29 -19.5 -56
t-37.5 -48t-55 -34t-73 -13z" />
    <glyph glyph-name="Ohungarumlaut" unicode="&#x150;" horiz-adv-x="895" 
d="M442 -10q-86 0 -156.5 33.5t-117 90.5t-66 133t-4.5 162q13 73 49.5 133.5t89 104.5t117 68.5t134.5 24.5q91 0 161.5 -37t115.5 -96.5t62 -135t3 -153.5q-13 -73 -49 -133.5t-88 -103.5t-116.5 -67t-134.5 -24zM445 25q62 0 120 22t104.5 62t79 94.5t44.5 119.5
q13 70 -2 138.5t-55 123t-103 88t-147 33.5q-63 0 -121.5 -22.5t-105.5 -63t-79.5 -96t-44.5 -121.5q-13 -77 4.5 -146t59.5 -120.5t105 -81.5t141 -30zM589 959h48l-160 -148h-36zM698 959h48l-160 -148h-36z" />
    <glyph glyph-name="ohungarumlaut" unicode="&#x151;" horiz-adv-x="675" 
d="M322 -11q-66 0 -119 25t-88 68t-49 101t-2 124q9 54 35.5 99t65 77t87.5 50t104 18q68 0 121 -26.5t86.5 -71t46.5 -102.5t2 -122q-10 -54 -36.5 -98.5t-65 -76t-87 -48.5t-101.5 -17zM321 23q47 0 89.5 15t76.5 43t57 67t32 87q9 54 -1.5 105t-39 90.5t-74.5 63.5
t-106 24q-49 0 -92 -16t-76 -44.5t-55.5 -68.5t-31.5 -89q-10 -55 1.5 -105t41 -88.5t75 -61t103.5 -22.5zM463 770h48l-160 -148h-36zM572 770h48l-160 -148h-36z" />
    <glyph glyph-name="OE" unicode="&#x152;" horiz-adv-x="1313" 
d="M769 190q-26 -45 -61 -82t-77.5 -63t-90.5 -40.5t-99 -14.5q-86 0 -156.5 33.5t-117 90.5t-66 133t-4.5 162q13 73 50.5 133.5t91.5 104.5t119.5 68.5t135.5 24.5q65 0 120 -18.5t97 -51.5t70.5 -79t40.5 -101l42 240h450l-6 -35h-413l-55 -312h413l-6 -34h-413l-55 -313
h412l-5 -36h-450zM444 26q62 0 120.5 24.5t106 67t80.5 100t45 122.5q0 2 0.5 4.5t0.5 4.5l2 11v2q8 67 -9 129t-56.5 110t-100.5 76.5t-141 28.5q-63 0 -122.5 -22.5t-108 -63t-82 -96t-45.5 -121.5q-13 -72 3 -140t57 -120.5t104.5 -84.5t145.5 -32z" />
    <glyph glyph-name="oe" unicode="&#x153;" horiz-adv-x="1182" 
d="M321 -11q-66 0 -119 25t-87.5 68t-48.5 101t-2 124q9 54 35.5 99t65.5 77t88 50t104 18q48 0 88 -14.5t71.5 -40t53.5 -60t33 -73.5q17 42 45 76.5t65 59t81 38.5t93 14q62 0 110 -21.5t79.5 -59.5t45.5 -89t7 -109l-2 -14h-514q-3 -51 12 -94t45.5 -74.5t76 -49
t104.5 -17.5q61 0 114.5 23.5t91.5 71.5l32 -22q-92 -107 -243 -107q-51 0 -93.5 13.5t-74.5 37.5t-54.5 57t-33.5 72q-38 -86 -109.5 -133t-159.5 -47zM321 23q46 0 88.5 15t76.5 43t57.5 67t32.5 87q9 54 -1.5 105t-39 90.5t-74 63.5t-105.5 24q-50 0 -92.5 -16t-76 -44.5
t-56 -68.5t-31.5 -89q-10 -55 1.5 -105t41 -88.5t75 -61t103.5 -22.5zM617 297q-1 -2 -1 -6h478q3 49 -10 91t-40 72t-67.5 47t-93.5 17q-49 0 -93.5 -16t-79.5 -45t-59.5 -69.5t-33.5 -90.5z" />
    <glyph glyph-name="Racute" unicode="&#x154;" horiz-adv-x="707" 
d="M177 730h277q55 0 99.5 -20t74 -54.5t41 -81t2.5 -99.5q-7 -43 -27.5 -79t-50.5 -62t-66.5 -42t-75.5 -20l149 -272h-41l-146 270h-279l-47 -270h-38zM209 697l-69 -395h269q44 0 82 12.5t67.5 35.5t49 56t26.5 75q7 44 -2.5 83t-34 68t-62.5 46.5t-87 18.5h-239z
M559 954h50l-161 -148h-37z" />
    <glyph glyph-name="racute" unicode="&#x155;" horiz-adv-x="395" 
d="M130 540h35l-24 -135q29 61 83 98t127 37h49l-7 -37h-44q-47 0 -85 -16t-66.5 -43t-47 -63.5t-26.5 -78.5l-53 -302h-36zM418 755h50l-161 -148h-37z" />
    <glyph glyph-name="Rcommaaccent" unicode="&#x156;" horiz-adv-x="707" 
d="M177 730h277q55 0 99.5 -20t74 -54.5t41 -81t2.5 -99.5q-7 -43 -27.5 -79t-50.5 -62t-66.5 -42t-75.5 -20l149 -272h-41l-146 270h-279l-47 -270h-38zM209 697l-69 -395h269q44 0 82 12.5t67.5 35.5t49 56t26.5 75q7 44 -2.5 83t-34 68t-62.5 46.5t-87 18.5h-239z
M236 -232q34 17 57.5 47t28.5 59q3 15 -2 25v-1q-2 -15 -10.5 -21t-21.5 -6q-14 0 -22.5 10t-5.5 27q3 16 15.5 25.5t29.5 9.5q25 0 37 -18.5t7 -50.5q-7 -39 -34.5 -71.5t-67.5 -54.5z" />
    <glyph glyph-name="rcommaaccent" unicode="&#x157;" horiz-adv-x="395" 
d="M130 540h35l-24 -135q29 61 83 98t127 37h49l-7 -37h-44q-47 0 -85 -16t-66.5 -43t-47 -63.5t-26.5 -78.5l-53 -302h-36zM-37 -249q34 17 57.5 47t28.5 59q3 15 -2 25v-1q-2 -15 -10.5 -21t-21.5 -6q-14 0 -22.5 10t-5.5 27q3 16 15.5 25.5t29.5 9.5q25 0 37 -18.5
t7 -50.5q-7 -39 -34.5 -71.5t-67.5 -54.5z" />
    <glyph glyph-name="Rcaron" unicode="&#x158;" horiz-adv-x="707" 
d="M177 730h277q55 0 99.5 -20t74 -54.5t41 -81t2.5 -99.5q-7 -43 -27.5 -79t-50.5 -62t-66.5 -42t-75.5 -20l149 -272h-41l-146 270h-279l-47 -270h-38zM209 697l-69 -395h269q44 0 82 12.5t67.5 35.5t49 56t26.5 75q7 44 -2.5 83t-34 68t-62.5 46.5t-87 18.5h-239z
M319 955h39l74 -118l115 118h42l-145 -148h-32z" />
    <glyph glyph-name="rcaron" unicode="&#x159;" horiz-adv-x="395" 
d="M130 540h35l-24 -135q29 61 83 98t127 37h49l-7 -37h-44q-47 0 -85 -16t-66.5 -43t-47 -63.5t-26.5 -78.5l-53 -302h-36zM178 756h39l74 -118l115 118h42l-145 -148h-32z" />
    <glyph glyph-name="Sacute" unicode="&#x15a;" horiz-adv-x="659" 
d="M323 -12q-52 0 -97 11.5t-83 31t-68.5 46t-53.5 57.5l32 25q42 -62 110 -99t162 -37q48 0 86 11.5t65 31t43.5 46.5t22.5 58q9 48 -6 80t-45 53.5t-71 36t-84 28.5q-44 14 -86.5 29.5t-73.5 39.5t-46.5 59t-6.5 87q12 70 73.5 114t166.5 44q90 0 162.5 -36t117.5 -90
l-30 -24q-43 54 -107 85.5t-146 31.5q-91 0 -141 -35t-60 -92q-8 -44 6.5 -73.5t44 -50t69 -35t81.5 -27.5q45 -14 88.5 -30.5t76 -42t48 -63t5.5 -94.5q-6 -37 -26 -69t-52.5 -56t-77 -38t-99.5 -14zM542 959h50l-161 -148h-37z" />
    <glyph glyph-name="sacute" unicode="&#x15b;" horiz-adv-x="529" 
d="M246 -11q-84 0 -145 33.5t-96 84.5l33 22q29 -46 83.5 -76.5t126.5 -30.5q76 0 115.5 31t47.5 75q6 33 -5.5 55.5t-35 38t-54.5 26.5t-64 21q-34 10 -67 22t-57 30t-36.5 44.5t-5.5 65.5q11 57 61 89.5t125 31.5q75 0 130 -27t93 -73l-30 -23q-34 45 -81.5 68t-113.5 23
q-62 0 -101 -24t-47 -69q-5 -30 6 -50t33 -34t52 -24t62 -20q35 -11 69 -23.5t59.5 -32t38 -49t5.5 -72.5q-5 -27 -20 -51.5t-40.5 -42.5t-60.5 -28.5t-80 -10.5zM454 771h50l-161 -148h-37z" />
    <glyph glyph-name="Scircumflex" unicode="&#x15c;" horiz-adv-x="659" 
d="M323 -12q-52 0 -97 11.5t-83 31t-68.5 46t-53.5 57.5l32 25q42 -62 110 -99t162 -37q48 0 86 11.5t65 31t43.5 46.5t22.5 58q9 48 -6 80t-45 53.5t-71 36t-84 28.5q-44 14 -86.5 29.5t-73.5 39.5t-46.5 59t-6.5 87q12 70 73.5 114t166.5 44q90 0 162.5 -36t117.5 -90
l-30 -24q-43 54 -107 85.5t-146 31.5q-91 0 -141 -35t-60 -92q-8 -44 6.5 -73.5t44 -50t69 -35t81.5 -27.5q45 -14 88.5 -30.5t76 -42t48 -63t5.5 -94.5q-6 -37 -26 -69t-52.5 -56t-77 -38t-99.5 -14zM418 959h32l93 -148h-39l-74 117l-115 -117h-42z" />
    <glyph glyph-name="scircumflex" unicode="&#x15d;" horiz-adv-x="529" 
d="M246 -11q-84 0 -145 33.5t-96 84.5l33 22q29 -46 83.5 -76.5t126.5 -30.5q76 0 115.5 31t47.5 75q6 33 -5.5 55.5t-35 38t-54.5 26.5t-64 21q-34 10 -67 22t-57 30t-36.5 44.5t-5.5 65.5q11 57 61 89.5t125 31.5q75 0 130 -27t93 -73l-30 -23q-34 45 -81.5 68t-113.5 23
q-62 0 -101 -24t-47 -69q-5 -30 6 -50t33 -34t52 -24t62 -20q35 -11 69 -23.5t59.5 -32t38 -49t5.5 -72.5q-5 -27 -20 -51.5t-40.5 -42.5t-60.5 -28.5t-80 -10.5zM330 771h32l93 -148h-39l-74 117l-115 -117h-42z" />
    <glyph glyph-name="Scedilla" unicode="&#x15e;" horiz-adv-x="659" 
d="M268 -233q-45 0 -77 15t-55 38l32 19q18 -20 42 -31.5t61 -11.5q38 0 65 14.5t32 40.5q5 27 -18 42t-71 15h-24l15 83q-85 11 -146.5 50t-102.5 93l32 25q42 -62 110 -99t162 -37q48 0 86 11.5t65 31t43.5 46.5t22.5 58q9 48 -6 80t-45 53.5t-71 36t-84 28.5
q-44 14 -86.5 29.5t-73.5 39.5t-46.5 59t-6.5 87q12 70 73.5 114t166.5 44q90 0 162.5 -36t117.5 -90l-30 -24q-43 54 -107 85.5t-146 31.5q-91 0 -141 -35t-60 -92q-8 -44 6.5 -73.5t44 -50t69 -35t81.5 -27.5q45 -14 88.5 -30.5t76 -42t48 -63t5.5 -94.5q-6 -37 -26 -69
t-52.5 -56t-77 -38t-99.5 -14h-10.5t-10.5 1l-11 -57q61 -2 89 -25t22 -60q-7 -38 -43.5 -59t-90.5 -21z" />
    <glyph glyph-name="scedilla" unicode="&#x15f;" horiz-adv-x="529" 
d="M189 -233q-45 0 -77 15t-55 38l32 19q18 -20 42 -31.5t61 -11.5q38 0 65 14.5t32 40.5q5 27 -18 42t-71 15h-24l16 86q-63 10 -110.5 40.5t-76.5 72.5l33 22q29 -46 83.5 -76.5t126.5 -30.5q76 0 115.5 31t47.5 75q6 33 -5.5 55.5t-35 38t-54.5 26.5t-64 21
q-34 10 -67 22t-57 30t-36.5 44.5t-5.5 65.5q11 57 61 89.5t125 31.5q75 0 130 -27t93 -73l-30 -23q-34 45 -81.5 68t-113.5 23q-62 0 -101 -24t-47 -69q-5 -30 6 -50t33 -34t52 -24t62 -20q35 -11 69 -23.5t59.5 -32t38 -49t5.5 -72.5q-5 -27 -20 -51.5t-40.5 -42.5
t-60.5 -28.5t-80 -10.5q-6 0 -12 0.5t-11 0.5l-11 -58q61 -2 89 -25t22 -60q-7 -38 -43.5 -59t-90.5 -21z" />
    <glyph glyph-name="Scaron" unicode="&#x160;" horiz-adv-x="659" 
d="M323 -12q-52 0 -97 11.5t-83 31t-68.5 46t-53.5 57.5l32 25q42 -62 110 -99t162 -37q48 0 86 11.5t65 31t43.5 46.5t22.5 58q9 48 -6 80t-45 53.5t-71 36t-84 28.5q-44 14 -86.5 29.5t-73.5 39.5t-46.5 59t-6.5 87q12 70 73.5 114t166.5 44q90 0 162.5 -36t117.5 -90
l-30 -24q-43 54 -107 85.5t-146 31.5q-91 0 -141 -35t-60 -92q-8 -44 6.5 -73.5t44 -50t69 -35t81.5 -27.5q45 -14 88.5 -30.5t76 -42t48 -63t5.5 -94.5q-6 -37 -26 -69t-52.5 -56t-77 -38t-99.5 -14zM302 960h39l74 -118l115 118h42l-145 -148h-32z" />
    <glyph glyph-name="scaron" unicode="&#x161;" horiz-adv-x="529" 
d="M246 -11q-84 0 -145 33.5t-96 84.5l33 22q29 -46 83.5 -76.5t126.5 -30.5q76 0 115.5 31t47.5 75q6 33 -5.5 55.5t-35 38t-54.5 26.5t-64 21q-34 10 -67 22t-57 30t-36.5 44.5t-5.5 65.5q11 57 61 89.5t125 31.5q75 0 130 -27t93 -73l-30 -23q-34 45 -81.5 68t-113.5 23
q-62 0 -101 -24t-47 -69q-5 -30 6 -50t33 -34t52 -24t62 -20q35 -11 69 -23.5t59.5 -32t38 -49t5.5 -72.5q-5 -27 -20 -51.5t-40.5 -42.5t-60.5 -28.5t-80 -10.5zM214 772h39l74 -118l115 118h42l-145 -148h-32z" />
    <glyph glyph-name="Tcommaaccent" unicode="&#x162;" horiz-adv-x="648" 
d="M258 0l122 696h-255l6 34h548l-5 -34h-257l-121 -696h-38zM188 -249q34 17 57.5 47t28.5 59q3 15 -2 25v-1q-2 -15 -10.5 -21t-21.5 -6q-14 0 -22.5 10t-5.5 27q3 16 15.5 25.5t29.5 9.5q25 0 37 -18.5t7 -50.5q-7 -39 -34.5 -71.5t-67.5 -54.5z" />
    <glyph glyph-name="tcommaaccent" unicode="&#x163;" horiz-adv-x="363" 
d="M71 540h103l23 129l40 20l-27 -149h151l-6 -31h-150l-56 -317q-8 -47 -7.5 -77.5t14 -48.5t41.5 -25.5t74 -7.5l-5 -33h-4q-53 0 -86.5 9.5t-50.5 31.5t-19.5 59t7.5 92l56 317h-103zM106 -246q34 17 57.5 47t28.5 59q3 15 -2 25v-1q-2 -15 -10.5 -21t-21.5 -6
q-14 0 -22.5 10t-5.5 27q3 16 15.5 25.5t29.5 9.5q25 0 37 -18.5t7 -50.5q-7 -39 -34.5 -71.5t-67.5 -54.5z" />
    <glyph glyph-name="Tcaron" unicode="&#x164;" horiz-adv-x="648" 
d="M258 0l122 696h-255l6 34h548l-5 -34h-257l-121 -696h-38zM307 955h39l74 -118l115 118h42l-145 -148h-32z" />
    <glyph glyph-name="tcaron" unicode="&#x165;" horiz-adv-x="363" 
d="M71 540h103l23 129l40 20l-27 -149h151l-6 -31h-150l-56 -317q-8 -47 -7.5 -77.5t14 -48.5t41.5 -25.5t74 -7.5l-5 -33h-4q-53 0 -86.5 9.5t-50.5 31.5t-19.5 59t7.5 92l56 317h-103zM337 646q34 17 57.5 46.5t28.5 58.5q3 14 -2 25v-1q-4 -27 -32 -27q-14 0 -22.5 10.5
t-5.5 26.5t15.5 26t29.5 10q25 0 37 -19t7 -51q-7 -39 -34.5 -71t-67.5 -55z" />
    <glyph glyph-name="Tbar" unicode="&#x166;" horiz-adv-x="648" 
d="M258 0l66 378h-113l5 28h113l51 290h-255l6 34h548l-5 -34h-257l-51 -290h114l-5 -28h-114l-65 -378h-38z" />
    <glyph glyph-name="tbar" unicode="&#x167;" horiz-adv-x="352" 
d="M60 540h103l23 129l40 20l-27 -149h151l-6 -31h-150l-37 -208l126 1l-7 -29l-124 -1l-14 -80q-8 -47 -7.5 -77.5t14 -48.5t41.5 -25.5t74 -7.5l-5 -33h-4q-53 0 -86.5 9.5t-50.5 31.5t-19.5 59t7.5 92l14 80h-89l6 29h88l37 208h-103z" />
    <glyph glyph-name="Utilde" unicode="&#x168;" horiz-adv-x="720" 
d="M334 -10q-66 0 -116.5 20t-82.5 57t-43.5 89t-0.5 116l81 458h37l-81 -464q-9 -51 -0.5 -95.5t34.5 -76.5t70 -50.5t106 -18.5q52 0 94 16t73.5 44t51.5 66t28 83l87 496h37l-87 -496q-9 -54 -32.5 -99t-60 -77.5t-85.5 -50t-110 -17.5zM275 802q8 42 35 69.5t65 27.5
q26 0 47 -10.5t41 -23.5t38.5 -23.5t42.5 -10.5q25 0 42.5 16t23.5 48h32q-9 -46 -36 -71.5t-66 -25.5q-30 0 -52.5 12t-42.5 25q-18 11 -36 21t-40 10q-23 0 -40.5 -17t-22.5 -47h-31z" />
    <glyph glyph-name="utilde" unicode="&#x169;" horiz-adv-x="623" 
d="M268 -11q-57 0 -98 20t-65 56t-31 85t4 106l50 284h36l-50 -286q-10 -49 -5 -91t25.5 -73t55.5 -49t86 -18q43 0 79.5 15t65.5 41.5t48.5 64t28.5 82.5l56 314h35l-94 -540h-36l20 116q-32 -60 -86 -93.5t-125 -33.5zM197 614q8 42 35 69.5t65 27.5q26 0 47 -10.5
t41 -23.5t38.5 -23.5t42.5 -10.5q25 0 42.5 16t23.5 48h32q-9 -46 -36 -71.5t-66 -25.5q-30 0 -52.5 12t-42.5 25q-18 11 -36 21t-40 10q-23 0 -40.5 -17t-22.5 -47h-31z" />
    <glyph glyph-name="Umacron" unicode="&#x16a;" horiz-adv-x="720" 
d="M334 -10q-66 0 -116.5 20t-82.5 57t-43.5 89t-0.5 116l81 458h37l-81 -464q-9 -51 -0.5 -95.5t34.5 -76.5t70 -50.5t106 -18.5q52 0 94 16t73.5 44t51.5 66t28 83l87 496h37l-87 -496q-9 -54 -32.5 -99t-60 -77.5t-85.5 -50t-110 -17.5zM325 858h264l-6 -33h-264z" />
    <glyph glyph-name="umacron" unicode="&#x16b;" horiz-adv-x="623" 
d="M268 -11q-57 0 -98 20t-65 56t-31 85t4 106l50 284h36l-50 -286q-10 -49 -5 -91t25.5 -73t55.5 -49t86 -18q43 0 79.5 15t65.5 41.5t48.5 64t28.5 82.5l56 314h35l-94 -540h-36l20 116q-32 -60 -86 -93.5t-125 -33.5zM250 667h264l-6 -33h-264z" />
    <glyph glyph-name="Ubreve" unicode="&#x16c;" horiz-adv-x="720" 
d="M334 -10q-66 0 -116.5 20t-82.5 57t-43.5 89t-0.5 116l81 458h37l-81 -464q-9 -51 -0.5 -95.5t34.5 -76.5t70 -50.5t106 -18.5q52 0 94 16t73.5 44t51.5 66t28 83l87 496h37l-87 -496q-9 -54 -32.5 -99t-60 -77.5t-85.5 -50t-110 -17.5zM448 796q-38 0 -66 13t-46 34
t-24.5 48t-1.5 56h33q-5 -23 0.5 -45t19.5 -39t37 -27.5t53 -10.5q32 0 57.5 10.5t43.5 27.5t29.5 39t15.5 45h34q-5 -29 -19.5 -56t-37.5 -48t-55 -34t-73 -13z" />
    <glyph glyph-name="ubreve" unicode="&#x16d;" horiz-adv-x="623" 
d="M268 -11q-57 0 -98 20t-65 56t-31 85t4 106l50 284h36l-50 -286q-10 -49 -5 -91t25.5 -73t55.5 -49t86 -18q43 0 79.5 15t65.5 41.5t48.5 64t28.5 82.5l56 314h35l-94 -540h-36l20 116q-32 -60 -86 -93.5t-125 -33.5zM364 604q-38 0 -66 13t-46 34t-24.5 48t-1.5 56h33
q-5 -23 0.5 -45t19.5 -39t37 -27.5t53 -10.5q32 0 57.5 10.5t43.5 27.5t29.5 39t15.5 45h34q-5 -29 -19.5 -56t-37.5 -48t-55 -34t-73 -13z" />
    <glyph glyph-name="Uring" unicode="&#x16e;" horiz-adv-x="720" 
d="M334 -10q-66 0 -116.5 20t-82.5 57t-43.5 89t-0.5 116l81 458h37l-81 -464q-9 -51 -0.5 -95.5t34.5 -76.5t70 -50.5t106 -18.5q52 0 94 16t73.5 44t51.5 66t28 83l87 496h37l-87 -496q-9 -54 -32.5 -99t-60 -77.5t-85.5 -50t-110 -17.5zM447 785q-20 0 -36.5 8t-28 22.5
t-16 33.5t-0.5 40q8 35 35.5 57t62.5 22q22 0 39 -9t28 -23t15 -32.5t0 -37.5q-8 -34 -34.5 -57.5t-64.5 -23.5zM450 814q25 0 44 17t23 40q5 26 -10.5 47t-45.5 21q-23 0 -42 -16t-24 -40q-5 -26 10 -47.5t45 -21.5z" />
    <glyph glyph-name="uring" unicode="&#x16f;" horiz-adv-x="623" 
d="M268 -11q-57 0 -98 20t-65 56t-31 85t4 106l50 284h36l-50 -286q-10 -49 -5 -91t25.5 -73t55.5 -49t86 -18q43 0 79.5 15t65.5 41.5t48.5 64t28.5 82.5l56 314h35l-94 -540h-36l20 116q-32 -60 -86 -93.5t-125 -33.5zM370 596q-20 0 -36.5 8t-28 22.5t-16 33.5t-0.5 40
q8 35 35.5 57t62.5 22q22 0 39 -9t28 -23t15 -32.5t0 -37.5q-8 -34 -34.5 -57.5t-64.5 -23.5zM373 625q25 0 44 17t23 40q5 26 -10.5 47t-45.5 21q-23 0 -42 -16t-24 -40q-5 -26 10 -47.5t45 -21.5z" />
    <glyph glyph-name="Uhungarumlaut" unicode="&#x170;" horiz-adv-x="720" 
d="M334 -10q-66 0 -116.5 20t-82.5 57t-43.5 89t-0.5 116l81 458h37l-81 -464q-9 -51 -0.5 -95.5t34.5 -76.5t70 -50.5t106 -18.5q52 0 94 16t73.5 44t51.5 66t28 83l87 496h37l-87 -496q-9 -54 -32.5 -99t-60 -77.5t-85.5 -50t-110 -17.5zM520 942h48l-160 -148h-36z
M629 942h48l-160 -148h-36z" />
    <glyph glyph-name="uhungarumlaut" unicode="&#x171;" horiz-adv-x="623" 
d="M268 -11q-57 0 -98 20t-65 56t-31 85t4 106l50 284h36l-50 -286q-10 -49 -5 -91t25.5 -73t55.5 -49t86 -18q43 0 79.5 15t65.5 41.5t48.5 64t28.5 82.5l56 314h35l-94 -540h-36l20 116q-32 -60 -86 -93.5t-125 -33.5zM435 751h48l-160 -148h-36zM544 751h48l-160 -148
h-36z" />
    <glyph glyph-name="Uogonek" unicode="&#x172;" horiz-adv-x="720" 
d="M334 -10q-66 0 -116.5 20t-82.5 57t-43.5 89t-0.5 116l81 458h37l-81 -464q-9 -51 -0.5 -95.5t34.5 -76.5t70 -50.5t106 -18.5q52 0 94 16t73.5 44t51.5 66t28 83l87 496h37l-87 -496q-15 -86 -63.5 -146.5t-127.5 -84.5q-65 -29 -90.5 -52t-30.5 -49q-5 -27 14 -46
t51 -19t55.5 11t46.5 31l26 -21q-27 -23 -58 -37t-74 -14q-24 0 -43.5 8t-32.5 21t-19 30.5t-2 37.5q5 25 20 45.5t48 40.5h-8v0z" />
    <glyph glyph-name="uogonek" unicode="&#x173;" horiz-adv-x="623" 
d="M460 -202q-24 0 -43 8t-32 22t-19 31.5t-2 37.5q6 34 29 60.5t68 56.5l18 102q-32 -60 -86 -93.5t-125 -33.5q-57 0 -98 20t-65 56t-31 85t4 106l50 284h36l-50 -286q-10 -49 -5 -91t25.5 -73t55.5 -49t86 -18q43 0 79.5 15t65.5 41.5t48.5 64t28.5 82.5l56 314h35
l-94 -540q-47 -31 -68.5 -54.5t-26.5 -50.5t13.5 -47t51.5 -20q26 0 46.5 8.5t40.5 22.5l25 -22q-26 -18 -53 -28.5t-64 -10.5z" />
    <glyph glyph-name="Wcircumflex" unicode="&#x174;" horiz-adv-x="1101" 
d="M735 0l-117 675l-349 -675h-38l-89 730h38l80 -673l349 673h34l118 -675l317 675h40l-345 -730h-38zM644 954h32l93 -148h-39l-74 117l-115 -117h-42z" />
    <glyph glyph-name="wcircumflex" unicode="&#x175;" horiz-adv-x="884" 
d="M87 540h38l50 -486l292 486h33l87 -488l260 488h43l-292 -540h-36l-87 489l-294 -489h-35zM501 764h32l93 -148h-39l-74 117l-115 -117h-42z" />
    <glyph glyph-name="Ycircumflex" unicode="&#x176;" horiz-adv-x="661" 
d="M313 286l-199 444h40l183 -412l325 412h45l-357 -450l-49 -280h-38zM424 944h32l93 -148h-39l-74 117l-115 -117h-42z" />
    <glyph glyph-name="ycircumflex" unicode="&#x177;" horiz-adv-x="595" 
d="M39 -199q-45 0 -79 17t-55 49l30 24q17 -27 42 -41t61 -14q23 0 43.5 6t40 20t39 38t41.5 59l47 76l-167 506h38l154 -468l287 468h42l-370 -596q-25 -39 -47.5 -66.5t-45.5 -45t-47.5 -25t-53.5 -7.5zM354 756h32l93 -148h-39l-74 117l-115 -117h-42z" />
    <glyph glyph-name="Ydieresis" unicode="&#x178;" horiz-adv-x="661" 
d="M313 286l-199 444h40l183 -412l325 412h45l-357 -450l-49 -280h-38zM346 813q-17 0 -26 11t-7 28q3 14 13.5 22t24.5 8q18 0 26.5 -12t4.5 -27q-2 -14 -12 -22t-24 -8zM495 813q-17 0 -26 11t-6 28q2 14 12.5 22t24.5 8q17 0 25.5 -12t5.5 -27q-2 -14 -12 -22t-24 -8z
" />
    <glyph glyph-name="Zacute" unicode="&#x179;" horiz-adv-x="648" 
d="M18 0l6 35l583 661h-452l5 34h498l-6 -34l-582 -661h472l-6 -35h-518zM546 954h50l-161 -148h-37z" />
    <glyph glyph-name="zacute" unicode="&#x17a;" horiz-adv-x="583" 
d="M23 33l486 475h-393l6 32h443l-6 -32l-487 -475h408l-6 -33h-456zM471 765h50l-161 -148h-37z" />
    <glyph glyph-name="Zdotaccent" unicode="&#x17b;" horiz-adv-x="648" 
d="M18 0l6 35l583 661h-452l5 34h498l-6 -34l-582 -661h472l-6 -35h-518zM419 822q-18 0 -27.5 12.5t-6.5 29.5q2 14 13.5 23t25.5 9q20 0 28.5 -13t5.5 -29q-2 -14 -13 -23t-26 -9z" />
    <glyph glyph-name="zdotaccent" unicode="&#x17c;" horiz-adv-x="583" 
d="M23 33l486 475h-393l6 32h443l-6 -32l-487 -475h408l-6 -33h-456zM348 634q-18 0 -27.5 12.5t-6.5 29.5q2 14 13.5 23t25.5 9q20 0 28.5 -13t5.5 -29q-2 -14 -13 -23t-26 -9z" />
    <glyph glyph-name="Zcaron" unicode="&#x17d;" horiz-adv-x="648" 
d="M18 0l6 35l583 661h-452l5 34h498l-6 -34l-582 -661h472l-6 -35h-518zM306 955h39l74 -118l115 118h42l-145 -148h-32z" />
    <glyph glyph-name="zcaron" unicode="&#x17e;" horiz-adv-x="583" 
d="M23 33l486 475h-393l6 32h443l-6 -32l-487 -475h408l-6 -33h-456zM238 766h39l74 -118l115 118h42l-145 -148h-32z" />
    <glyph glyph-name="florin" unicode="&#x192;" horiz-adv-x="575" 
d="M153 399h149l66 154q21 51 42 85.5t44.5 54.5t52 28.5t65.5 8.5h3l-5 -33q-32 0 -54.5 -6t-41 -22t-35 -44.5t-35.5 -73.5l-65 -152h147l-7 -33h-154l-81 -189q-21 -51 -40 -85t-43 -54.5t-56 -29t-79 -8.5h-3l5 34q40 0 66 6t45 22.5t35 45t35 72.5l79 186h-142z" />
    <glyph glyph-name="Aringacute" unicode="&#x1fa;" horiz-adv-x="739" 
d="M418 707q-26 11 -40.5 37.5t-7.5 60.5q8 35 35.5 57t62.5 22q22 0 39 -9t28 -23t15 -32.5t0 -37.5q-6 -28 -25.5 -49t-47.5 -29l167 -704h-38l-53 226h-377l-132 -226h-41zM196 261h349l-100 426zM454 730q25 0 44 17t23 40q5 26 -10.5 47t-45.5 21q-23 0 -42 -16
t-24 -40q-5 -26 9 -47t43 -22h3zM607 1095h50l-161 -148h-37z" />
    <glyph glyph-name="aringacute" unicode="&#x1fb;" horiz-adv-x="689" 
d="M316 -11q-65 0 -116.5 25t-85.5 68t-48 100t-3 121q10 54 37 99.5t66 78.5t88 51.5t102 18.5q47 0 86 -13t69 -36.5t50 -55t29 -68.5l29 162h36l-95 -540h-35l22 128q-37 -63 -96 -101t-135 -38zM320 23q47 0 89 17t75.5 48t56 72.5t30.5 91.5q9 51 -1 99t-37.5 84.5
t-72 59t-104.5 22.5q-47 0 -89.5 -16.5t-77 -45.5t-58 -69.5t-32.5 -88.5q-9 -55 3 -105t41 -87.5t74.5 -59.5t102.5 -22zM545 1009h50l-161 -148h-37zM381 615q-20 0 -36.5 8t-28 22.5t-16 33.5t-0.5 40q8 35 35.5 57t62.5 22q22 0 39 -9t28 -23t15 -32.5t0 -37.5
q-8 -34 -34.5 -57.5t-64.5 -23.5zM384 644q25 0 44 17t23 40q5 26 -10.5 47t-45.5 21q-23 0 -42 -16t-24 -40q-5 -26 10 -47.5t45 -21.5z" />
    <glyph glyph-name="AEacute" unicode="&#x1fc;" horiz-adv-x="1028" 
d="M492 730h534l-6 -35h-486l30 -312h401l-6 -34h-392l29 -313h308l-6 -36h-335l-21 223h-347l-149 -223h-43zM218 257h321l-38 422zM659 954h50l-161 -148h-37z" />
    <glyph glyph-name="aeacute" unicode="&#x1fd;" horiz-adv-x="1105" 
d="M208 -8q-54 0 -91 14t-59 37t-29 52.5t-2 60.5q7 41 30.5 68t59.5 43t84 22.5t106 6.5h199q0 1 0.5 1.5t0.5 2.5l8 45q7 39 -2.5 71t-33.5 55t-61 35.5t-84 12.5q-71 0 -124.5 -23.5t-95.5 -73.5l-27 23q49 51 110.5 78.5t140.5 27.5q88 0 144 -39t65 -107
q40 66 108.5 106t155.5 40q62 0 110 -22t79.5 -60t45 -89.5t7.5 -109.5l-1 -7h-515q-3 -52 11.5 -96t45 -76t76.5 -50t105 -18q61 0 114.5 23.5t91.5 71.5l32 -22q-92 -107 -243 -107q-102 0 -167 45t-89 118q-57 -83 -136 -121.5t-170 -38.5zM217 24q77 0 152.5 38
t135.5 125q-6 36 -3 76h-200q-51 0 -92.5 -4t-71.5 -15.5t-48 -32.5t-24 -54q-5 -27 1.5 -51.5t25 -42.5t49 -28.5t75.5 -10.5zM541 296h476q2 48 -11 89t-39.5 70.5t-67 46t-92.5 16.5q-49 0 -93.5 -16t-79.5 -45t-59.5 -69.5t-33.5 -90.5v-1zM688 737h50l-161 -148h-37z
" />
    <glyph glyph-name="Oslashacute" unicode="&#x1fe;" horiz-adv-x="895" 
d="M442 -10q-67 0 -123.5 20t-101.5 56l-71 -78l-24 21l71 78q-60 58 -86 141.5t-9 180.5q13 73 49.5 133.5t89 104.5t117 68.5t134.5 24.5q69 0 126 -21.5t101 -59.5l71 78l24 -20l-72 -79q60 -62 84 -146.5t8 -173.5q-13 -73 -49 -133.5t-88 -103.5t-116.5 -67t-134.5 -24
zM135 403q-14 -87 8.5 -161.5t75.5 -127.5l472 519q-39 34 -90.5 53.5t-114.5 19.5t-121.5 -22.5t-105.5 -63t-79.5 -96t-44.5 -121.5zM445 25q62 0 120 22t104.5 62t79 94.5t44.5 119.5q14 79 -6.5 155t-73.5 133l-471 -518q40 -32 91 -50t112 -18zM629 956h50l-161 -148
h-37z" />
    <glyph glyph-name="oslashacute" unicode="&#x1ff;" horiz-adv-x="675" 
d="M322 -11q-50 0 -92.5 14t-75.5 40l-53 -57l-23 21l53 57q-44 44 -62.5 106.5t-4.5 136.5q9 54 35.5 99t65 77t87.5 50t104 18q53 0 96 -16t76 -44l56 60l23 -19l-58 -62q42 -46 58.5 -108.5t4.5 -132.5q-10 -54 -36.5 -98.5t-65 -76t-87 -48.5t-101.5 -17zM100 300
q-11 -61 4 -115.5t52 -93.5l348 374q-29 25 -66 39t-83 14q-49 0 -92 -16t-76 -44.5t-55.5 -68.5t-31.5 -89zM321 23q47 0 89.5 15t76.5 43t57 67t32 87q10 59 -3.5 113.5t-47.5 94.5l-346 -373q28 -23 63.5 -35t78.5 -12zM499 770h50l-161 -148h-37z" />
    <glyph glyph-name="Scommaaccent" unicode="&#x218;" horiz-adv-x="659" 
d="M323 -12q-52 0 -97 11.5t-83 31t-68.5 46t-53.5 57.5l32 25q42 -62 110 -99t162 -37q48 0 86 11.5t65 31t43.5 46.5t22.5 58q9 48 -6 80t-45 53.5t-71 36t-84 28.5q-44 14 -86.5 29.5t-73.5 39.5t-46.5 59t-6.5 87q12 70 73.5 114t166.5 44q90 0 162.5 -36t117.5 -90
l-30 -24q-43 54 -107 85.5t-146 31.5q-91 0 -141 -35t-60 -92q-8 -44 6.5 -73.5t44 -50t69 -35t81.5 -27.5q45 -14 88.5 -30.5t76 -42t48 -63t5.5 -94.5q-6 -37 -26 -69t-52.5 -56t-77 -38t-99.5 -14zM198 -255q34 17 57.5 47t28.5 59q3 15 -2 25v-1q-2 -15 -10.5 -21
t-21.5 -6q-14 0 -22.5 10t-5.5 27q3 16 15.5 25.5t29.5 9.5q25 0 37 -18.5t7 -50.5q-7 -39 -34.5 -71.5t-67.5 -54.5z" />
    <glyph glyph-name="scommaaccent" unicode="&#x219;" horiz-adv-x="529" 
d="M246 -11q-84 0 -145 33.5t-96 84.5l33 22q29 -46 83.5 -76.5t126.5 -30.5q76 0 115.5 31t47.5 75q6 33 -5.5 55.5t-35 38t-54.5 26.5t-64 21q-34 10 -67 22t-57 30t-36.5 44.5t-5.5 65.5q11 57 61 89.5t125 31.5q75 0 130 -27t93 -73l-30 -23q-34 45 -81.5 68t-113.5 23
q-62 0 -101 -24t-47 -69q-5 -30 6 -50t33 -34t52 -24t62 -20q35 -11 69 -23.5t59.5 -32t38 -49t5.5 -72.5q-5 -27 -20 -51.5t-40.5 -42.5t-60.5 -28.5t-80 -10.5zM130 -256q34 17 57.5 47t28.5 59q3 15 -2 25v-1q-2 -15 -10.5 -21t-21.5 -6q-14 0 -22.5 10t-5.5 27
q3 16 15.5 25.5t29.5 9.5q25 0 37 -18.5t7 -50.5q-7 -39 -34.5 -71.5t-67.5 -54.5z" />
    <glyph glyph-name="dotlessj" unicode="&#x237;" horiz-adv-x="210" 
d="M-130 -211q40 0 67 6.5t45 23.5t29 46.5t20 74.5l4.5 26t12 68.5t17.5 96.5t20 110q24 132 53 299h37l-107 -601q-10 -54 -23.5 -89.5t-35.5 -57t-54.5 -30t-80.5 -8.5h-11z" />
    <glyph glyph-name="circumflex" unicode="&#x2c6;" horiz-adv-x="526" 
d="M331 764h32l93 -148h-39l-74 117l-115 -117h-42z" />
    <glyph glyph-name="caron" unicode="&#x2c7;" horiz-adv-x="526" 
d="M215 765h39l74 -118l115 118h42l-145 -148h-32z" />
    <glyph glyph-name="breve" unicode="&#x2d8;" horiz-adv-x="526" 
d="M329 617q-38 0 -66 13t-46 34t-24.5 48t-1.5 56h33q-5 -23 0.5 -45t19.5 -39t37 -27.5t53 -10.5q32 0 57.5 10.5t43.5 27.5t29.5 39t15.5 45h34q-5 -29 -19.5 -56t-37.5 -48t-55 -34t-73 -13z" />
    <glyph glyph-name="dotaccent" unicode="&#x2d9;" horiz-adv-x="527" 
d="M326 632q-18 0 -27.5 12.5t-6.5 29.5q2 14 13.5 23t25.5 9q20 0 28.5 -13t5.5 -29q-2 -14 -13 -23t-26 -9z" />
    <glyph glyph-name="ring" unicode="&#x2da;" horiz-adv-x="526" 
d="M328 609q-20 0 -36.5 8t-28 22.5t-16 33.5t-0.5 40q8 35 35.5 57t62.5 22q22 0 39 -9t28 -23t15 -32.5t0 -37.5q-8 -34 -34.5 -57.5t-64.5 -23.5zM331 638q25 0 44 17t23 40q5 26 -10.5 47t-45.5 21q-23 0 -42 -16t-24 -40q-5 -26 10 -47.5t45 -21.5z" />
    <glyph glyph-name="ogonek" unicode="&#x2db;" horiz-adv-x="526" 
d="M172 -202q-24 0 -43.5 8t-32.5 21t-19 30.5t-2 37.5q3 18 12 33.5t25.5 30t42 29.5t63.5 31l26 -19q-71 -32 -99.5 -56t-33.5 -51t14 -46t51 -19t55.5 11t46.5 31l26 -21q-27 -23 -58 -37t-74 -14z" />
    <glyph glyph-name="tilde" unicode="&#x2dc;" horiz-adv-x="526" 
d="M144 622q8 42 35 69.5t65 27.5q26 0 47 -10.5t41 -23.5t38.5 -23.5t42.5 -10.5q25 0 42.5 16t23.5 48h32q-9 -46 -36 -71.5t-66 -25.5q-30 0 -52.5 12t-42.5 25q-18 11 -36 21t-40 10q-23 0 -40.5 -17t-22.5 -47h-31v0z" />
    <glyph glyph-name="hungarumlaut" unicode="&#x2dd;" horiz-adv-x="526" 
d="M330 764h48l-160 -148h-36zM439 764h48l-160 -148h-36z" />
    <glyph glyph-name="uni0328" unicode="&#x328;" horiz-adv-x="526" 
d="M209 -202q-24 0 -43 8t-32 22t-19 31.5t-2 37.5q7 35 31.5 62.5t73.5 59.5l26 -19q-47 -31 -68.5 -54.5t-26.5 -50.5t13.5 -47t51.5 -20q26 0 46.5 8.5t40.5 22.5l25 -22q-26 -18 -53 -28.5t-64 -10.5z" />
    <glyph glyph-name="pi" unicode="&#x3c0;" horiz-adv-x="790" 
d="M139 730h675l-7 -34h-154l-93 -533q-12 -66 6.5 -97t74.5 -31h56l-6 -35h-59q-38 0 -62.5 12t-37 33.5t-14.5 51.5t4 66l93 533h-288l-122 -696h-37l121 696h-156z" />
    <glyph glyph-name="pi" unicode="&#x3d6;" horiz-adv-x="790" 
d="M139 730h675l-7 -34h-154l-93 -533q-12 -66 6.5 -97t74.5 -31h56l-6 -35h-59q-38 0 -62.5 12t-37 33.5t-14.5 51.5t4 66l93 533h-288l-122 -696h-37l121 696h-156z" />
    <glyph glyph-name="uni0E3F" unicode="&#xe3f;" horiz-adv-x="583" 
d="M160 666h174l11 64h34l-12 -64h15q35 0 64.5 -12t50 -33.5t30.5 -50t6 -61.5q-5 -47 -34.5 -84t-76.5 -53q42 -20 66 -60.5t15 -93.5q-12 -65 -62.5 -106.5t-125.5 -41.5h-53l-12 -70h-34l12 70h-172zM313 360l-45 -256h50q58 0 98 33t49 87q5 28 -2 53t-23 43.5
t-39.5 29t-51.5 10.5h-36zM98 104h136l45 256h-136zM149 393h136l43 240h-137zM361 633l-42 -240h44q27 0 50.5 9.5t41.5 25.5t29 37.5t14 45.5q2 25 -5.5 47.5t-23.5 39t-39.5 26t-51.5 9.5h-17z" />
    <glyph glyph-name="Wgrave" unicode="&#x1e80;" horiz-adv-x="1101" 
d="M735 0l-117 675l-349 -675h-38l-89 730h38l80 -673l349 673h34l118 -675l317 675h40l-345 -730h-38zM516 954h49l95 -148h-34z" />
    <glyph glyph-name="wgrave" unicode="&#x1e81;" horiz-adv-x="884" 
d="M87 540h38l50 -486l292 486h33l87 -488l260 488h43l-292 -540h-36l-87 489l-294 -489h-35zM373 764h49l95 -148h-34z" />
    <glyph glyph-name="Wacute" unicode="&#x1e82;" horiz-adv-x="1101" 
d="M735 0l-117 675l-349 -675h-38l-89 730h38l80 -673l349 673h34l118 -675l317 675h40l-345 -730h-38zM768 954h50l-161 -148h-37z" />
    <glyph glyph-name="wacute" unicode="&#x1e83;" horiz-adv-x="884" 
d="M87 540h38l50 -486l292 486h33l87 -488l260 488h43l-292 -540h-36l-87 489l-294 -489h-35zM625 764h50l-161 -148h-37z" />
    <glyph glyph-name="Wdieresis" unicode="&#x1e84;" horiz-adv-x="1101" 
d="M735 0l-117 675l-349 -675h-38l-89 730h38l80 -673l349 673h34l118 -675l317 675h40l-345 -730h-38zM566 823q-17 0 -26 11t-7 28q3 14 13.5 22t24.5 8q18 0 26.5 -12t4.5 -27q-2 -14 -12 -22t-24 -8zM715 823q-17 0 -26 11t-6 28q2 14 12.5 22t24.5 8q17 0 25.5 -12
t5.5 -27q-2 -14 -12 -22t-24 -8z" />
    <glyph glyph-name="wdieresis" unicode="&#x1e85;" horiz-adv-x="884" 
d="M87 540h38l50 -486l292 486h33l87 -488l260 488h43l-292 -540h-36l-87 489l-294 -489h-35zM423 633q-17 0 -26 11t-7 28q3 14 13.5 22t24.5 8q18 0 26.5 -12t4.5 -27q-2 -14 -12 -22t-24 -8zM572 633q-17 0 -26 11t-6 28q2 14 12.5 22t24.5 8q17 0 25.5 -12t5.5 -27
q-2 -14 -12 -22t-24 -8z" />
    <glyph glyph-name="Ygrave" unicode="&#x1ef2;" horiz-adv-x="661" 
d="M313 286l-199 444h40l183 -412l325 412h45l-357 -450l-49 -280h-38zM296 940h49l95 -148h-34z" />
    <glyph glyph-name="ygrave" unicode="&#x1ef3;" horiz-adv-x="595" 
d="M39 -199q-45 0 -79 17t-55 49l30 24q17 -27 42 -41t61 -14q23 0 43.5 6t40 20t39 38t41.5 59l47 76l-167 506h38l154 -468l287 468h42l-370 -596q-25 -39 -47.5 -66.5t-45.5 -45t-47.5 -25t-53.5 -7.5zM223 754h49l95 -148h-34z" />
    <glyph glyph-name="figuredash" unicode="&#x2012;" horiz-adv-x="698" 
d="M67 272h567l-6 -32h-567z" />
    <glyph glyph-name="endash" unicode="&#x2013;" horiz-adv-x="542" 
d="M67 272h417l-6 -32h-417z" />
    <glyph glyph-name="emdash" unicode="&#x2014;" horiz-adv-x="748" 
d="M67 272h617l-6 -32h-617z" />
    <glyph glyph-name="uni2015" unicode="&#x2015;" horiz-adv-x="1048" 
d="M67 272h917l-6 -32h-917z" />
    <glyph glyph-name="doublebar" unicode="&#x2016;" horiz-adv-x="367" 
d="M173 730h37l-169 -960h-37zM324 730h37l-169 -960h-37z" />
    <glyph glyph-name="quoteleft" unicode="&#x2018;" horiz-adv-x="195" 
d="M150 537q-24 0 -36.5 19t-7.5 51q7 39 35 71t68 55l11 -21q-34 -17 -58 -46.5t-29 -58.5q-3 -15 2 -25v1q6 27 32 27q14 0 22.5 -10.5t5.5 -26.5q-2 -16 -14.5 -26t-30.5 -10z" />
    <glyph glyph-name="quoteright" unicode="&#x2019;" horiz-adv-x="195" 
d="M100 555q34 17 57.5 47t28.5 59q3 14 -2 25v-1q-2 -15 -10.5 -21t-21.5 -6q-14 0 -22.5 10t-5.5 27q3 16 15.5 25.5t29.5 9.5q25 0 37 -18.5t7 -50.5q-7 -39 -34.5 -71.5t-67.5 -54.5z" />
    <glyph glyph-name="quotesinglbase" unicode="&#x201a;" horiz-adv-x="197" 
d="M-10 -107q34 17 58 47t29 59q1 14 -2 24q-6 -27 -32 -27q-14 0 -22.5 10.5t-5.5 26.5q2 16 14.5 26t30.5 10q24 0 36.5 -19t7.5 -51q-7 -39 -35 -71.5t-68 -54.5z" />
    <glyph glyph-name="reversequoteleft" unicode="&#x201b;" horiz-adv-x="195" 
d="M168 533q-32 21 -47.5 53.5t-8.5 72.5q5 33 21 51.5t42 18.5q20 0 30 -12.5t7 -28.5q-3 -17 -13 -25t-24 -8t-20.5 7.5t-3.5 21.5q-10 -12 -13 -29q-5 -30 6.5 -58t40.5 -44l-17 -20v0z" />
    <glyph glyph-name="quotedblleft" unicode="&#x201c;" horiz-adv-x="339" 
d="M150 537q-24 0 -36.5 19t-7.5 51q7 39 35 71t68 55l11 -21q-34 -17 -58 -46.5t-29 -58.5q-3 -15 2 -25v1q6 27 32 27q14 0 22.5 -10.5t5.5 -26.5q-2 -16 -14.5 -26t-30.5 -10zM294 537q-25 0 -37 19t-7 51q7 39 34.5 71t67.5 55l11 -21q-34 -17 -57.5 -46.5t-28.5 -58.5
q-3 -15 2 -25v1q4 27 32 27q14 0 22.5 -10.5t5.5 -26.5t-15.5 -26t-29.5 -10z" />
    <glyph glyph-name="quotedblright" unicode="&#x201d;" horiz-adv-x="339" 
d="M100 555q34 17 57.5 47t28.5 59q3 14 -2 25v-1q-2 -15 -10.5 -21t-21.5 -6q-14 0 -22.5 10t-5.5 27q3 16 15.5 25.5t29.5 9.5q25 0 37 -18.5t7 -50.5q-7 -39 -34.5 -71.5t-67.5 -54.5zM243 555q34 17 58 47t29 59q1 13 -2 24q-3 -15 -11.5 -21t-20.5 -6q-14 0 -22.5 10
t-5.5 27q2 16 14.5 25.5t30.5 9.5q24 0 36.5 -18.5t7.5 -50.5q-7 -39 -35 -71.5t-68 -54.5z" />
    <glyph glyph-name="quotedblbase" unicode="&#x201e;" horiz-adv-x="340" 
d="M134 -107q34 17 57.5 47t28.5 59q3 14 -2 25v-1q-4 -27 -32 -27q-14 0 -22.5 10.5t-5.5 26.5t15.5 26t29.5 10q25 0 37 -19t7 -51q-7 -39 -34.5 -71.5t-67.5 -54.5zM-10 -107q34 17 58 47t29 59q1 14 -2 24q-6 -27 -32 -27q-14 0 -22.5 10.5t-5.5 26.5q2 16 14.5 26
t30.5 10q24 0 36.5 -19t7.5 -51q-7 -39 -35 -71.5t-68 -54.5z" />
    <glyph glyph-name="reversequotedblleft" unicode="&#x201f;" horiz-adv-x="339" 
d="M312 533q-32 21 -48 53.5t-9 72.5q6 33 22 51.5t42 18.5q20 0 30 -12.5t7 -28.5q-3 -17 -13.5 -25t-23.5 -8t-20.5 7.5t-5.5 19.5q-8 -11 -11 -27q-5 -30 6.5 -58t39.5 -44zM168 533q-32 21 -47.5 53.5t-8.5 72.5q5 33 21 51.5t42 18.5q20 0 30 -12.5t7 -28.5
q-3 -17 -13 -25t-24 -8t-20.5 7.5t-3.5 21.5q-10 -12 -13 -29q-5 -30 6.5 -58t40.5 -44z" />
    <glyph glyph-name="dagger" unicode="&#x2020;" horiz-adv-x="612" 
d="M115 500h206l40 230h37l-41 -230h211l-7 -33h-210l-81 -467h-37l82 467h-207z" />
    <glyph glyph-name="daggerdbl" unicode="&#x2021;" horiz-adv-x="612" 
d="M116 510h206l39 220h37l-39 -220h210l-6 -33h-210l-38 -217h210l-6 -32h-209l-40 -228h-37l40 228h-207l6 32h206l38 217h-206z" />
    <glyph glyph-name="bullet" unicode="&#x2022;" horiz-adv-x="294" 
d="M156 207q-19 0 -32.5 13.5t-13.5 32.5q0 20 13.5 33.5t32.5 13.5q20 0 33.5 -13.5t13.5 -33.5q0 -19 -13.5 -32.5t-33.5 -13.5z" />
    <glyph glyph-name="ellipsis" unicode="&#x2026;" horiz-adv-x="458" 
d="M50 -7q-18 0 -28 12.5t-6 29.5q2 14 13.5 23.5t25.5 9.5q19 0 28 -13t6 -30q-3 -14 -13.5 -23t-25.5 -9zM184 -7q-18 0 -28 12.5t-6 29.5q2 14 13.5 23.5t25.5 9.5q19 0 28 -13t6 -30q-3 -14 -13.5 -23t-25.5 -9zM319 -7q-18 0 -28 12.5t-6 29.5q2 14 13.5 23.5t25.5 9.5
q19 0 28 -13t6 -30q-3 -14 -13.5 -23t-25.5 -9z" />
    <glyph glyph-name="perthousand" unicode="&#x2030;" horiz-adv-x="1288" 
d="M814 730h48l-755 -730h-48zM295 414q-37 0 -67.5 14.5t-50.5 39.5t-28.5 58.5t-2.5 70.5q6 31 21.5 57.5t38.5 45.5t51.5 29.5t58.5 10.5q37 0 67.5 -15t51 -40t29 -58t1.5 -70q-6 -32 -21.5 -58t-38 -45t-51 -29.5t-59.5 -10.5zM297 446q24 0 47 8.5t41.5 24t31 36.5
t17.5 46q4 28 -2 54.5t-21.5 47.5t-40 33.5t-56.5 12.5q-25 0 -47.5 -9t-41 -24.5t-31 -37t-16.5 -46.5q-5 -28 1.5 -54t22 -46.5t40 -33t55.5 -12.5zM601 -11q-38 0 -68 14.5t-50.5 39.5t-28.5 58.5t-2 70.5q6 31 21.5 57.5t38.5 46t51.5 30t58.5 10.5q37 0 67.5 -15
t50.5 -40t29 -58.5t2 -70.5q-6 -32 -21.5 -58t-38.5 -45t-51 -29.5t-59 -10.5zM603 21q24 0 47 8.5t41.5 24t31 36.5t16.5 46q5 28 -1 54.5t-22 47.5t-40.5 33.5t-55.5 12.5q-25 0 -48 -8.5t-41 -24t-30.5 -37t-16.5 -46.5q-5 -28 1.5 -54.5t22 -47t40 -33t55.5 -12.5z
M1006 -11q-38 0 -68 14.5t-50.5 39.5t-28.5 58.5t-2 70.5q6 31 21.5 57.5t38.5 46t51.5 30t58.5 10.5q37 0 67.5 -15t50.5 -40t29 -58.5t2 -70.5q-6 -32 -21.5 -58t-38.5 -45t-51 -29.5t-59 -10.5zM1008 21q24 0 47 8.5t41.5 24t31 36.5t16.5 46q5 28 -1 54.5t-22 47.5
t-40.5 33.5t-55.5 12.5q-25 0 -48 -8.5t-41 -24t-30.5 -37t-16.5 -46.5q-5 -28 1.5 -54.5t22 -47t40 -33t55.5 -12.5z" />
    <glyph glyph-name="minute" unicode="&#x2032;" horiz-adv-x="195" 
d="M94 526l82 204h38l-93 -204h-27z" />
    <glyph glyph-name="second" unicode="&#x2033;" horiz-adv-x="286" 
d="M184 526l83 204h38l-94 -204h-27zM94 526l82 204h38l-93 -204h-27z" />
    <glyph glyph-name="tripleprime" unicode="&#x2034;" horiz-adv-x="385" 
d="M126 500q0 10 2 29.5t4.5 41.5t5 42.5t4.5 32.5l15 84h32l-15 -84q-2 -12 -6.5 -33t-9.5 -42.5t-10 -41t-8 -29.5h-14zM223 500q0 10 2 29.5t4.5 41.5t5 42.5t4.5 32.5l15 84h32l-15 -84q-2 -12 -6.5 -33t-9.5 -42.5t-10 -41t-8 -29.5h-14zM320 500q0 10 2 29.5t4.5 41.5
t5 42.5t4.5 32.5l15 84h32l-15 -84q-2 -12 -6.5 -33t-9.5 -42.5t-10 -41t-8 -29.5h-14z" />
    <glyph glyph-name="guilsinglleft" unicode="&#x2039;" horiz-adv-x="305" 
d="M75 237l5 27l166 119l-7 -36l-137 -99l103 -98l-6 -32z" />
    <glyph glyph-name="guilsinglright" unicode="&#x203a;" horiz-adv-x="305" 
d="M231 263l-5 -27l-166 -119l7 36l137 98l-103 99l6 32z" />
    <glyph glyph-name="interrobang" unicode="&#x203d;" horiz-adv-x="543" 
d="M233 199q4 29 12.5 78.5t18 107t19.5 118t19 110.5l16 95h-8q-43 0 -81.5 -15.5t-65.5 -41.5l-25 25q32 29 78 46.5t97 17.5q44 0 82 -13.5t65 -38t39 -60t4 -78.5q-7 -41 -24.5 -66.5t-40.5 -45t-48.5 -38t-49.5 -44t-44 -62.5t-30 -95l-6 -31h-32zM466 554q5 30 -1 55
t-21.5 44t-38 31.5t-50.5 18.5l-15 -90q-6 -33 -13 -70t-14.5 -74.5t-15 -73.5t-14.5 -68q24 43 52.5 68.5t55 46.5t47 45.5t28.5 66.5zM221 -8q-18 0 -28 13t-6 31q2 14 13.5 23.5t26.5 9.5q20 0 29 -13.5t6 -30.5q-3 -14 -14 -23.5t-27 -9.5z" />
    <glyph glyph-name="fraction" unicode="&#x2044;" horiz-adv-x="673" 
d="M660 730h46l-654 -730h-46z" />
    <glyph glyph-name="uni2070" unicode="&#x2070;" horiz-adv-x="442" 
d="M236 302q-35 0 -63.5 12t-46.5 37.5t-24 66.5t4 99l4 23q9 53 27.5 90t42.5 60.5t52.5 34.5t59.5 11q32 0 60.5 -11.5t47.5 -36.5t26 -64.5t-4 -95.5l-5 -28q-10 -56 -27.5 -93.5t-41 -61t-52 -33.5t-60.5 -10zM238 335q25 0 47.5 8t41.5 26.5t33 50.5t23 80l6 32
q9 46 5 79t-17.5 53.5t-36 30t-49.5 9.5q-26 0 -49 -8.5t-42 -28.5t-33.5 -52t-23.5 -79l-4 -23q-9 -51 -5 -85t18 -55t36.5 -29.5t49.5 -8.5z" />
    <glyph glyph-name="uni2074" unicode="&#x2074;" horiz-adv-x="402" 
d="M288 406h-215l4 32l268 292h33l-52 -293h71l-5 -31h-71l-17 -98h-33zM294 437l42 241l-218 -241h176z" />
    <glyph glyph-name="uni2075" unicode="&#x2075;" horiz-adv-x="396" 
d="M212 302q-51 0 -84 22t-46 59l32 15q11 -29 35.5 -46.5t64.5 -17.5q45 0 81.5 27.5t45.5 73.5q4 23 0 44.5t-16 38t-31.5 26t-44.5 9.5q-38 0 -66.5 -16.5t-48.5 -47.5l-30 12l69 229h227l-5 -32h-199l-48 -156q19 19 45.5 30.5t63.5 11.5q31 0 55.5 -12.5t40.5 -33.5
t22 -48t0 -56q-11 -58 -55 -95t-108 -37z" />
    <glyph glyph-name="uni2076" unicode="&#x2076;" horiz-adv-x="405" 
d="M232 302q-35 0 -67.5 16t-49.5 43q-19 30 -22.5 68t5.5 92q20 109 79.5 161.5t142.5 52.5q30 0 50 -5t37 -15l-20 -28q-14 8 -29.5 12.5t-38.5 4.5q-73 0 -121.5 -44.5t-66.5 -133.5q19 31 51.5 49t70.5 18q35 0 61.5 -13.5t44 -36.5t24 -53t1.5 -62q-11 -55 -51.5 -90.5
t-100.5 -35.5zM233 333q44 0 76.5 27.5t40.5 72.5q4 25 -0.5 48t-18 41t-35 29t-49.5 11q-47 0 -80 -27.5t-41 -70.5q-4 -22 0.5 -45t18 -42t35.5 -31.5t53 -12.5z" />
    <glyph glyph-name="uni2077" unicode="&#x2077;" horiz-adv-x="375" 
d="M365 699h-245l6 31h281l-6 -29l-241 -393h-38z" />
    <glyph glyph-name="uni2078" unicode="&#x2078;" horiz-adv-x="408" 
d="M217 302q-36 0 -64 10.5t-45.5 28t-24.5 41t-2 49.5q6 40 36 67t75 38q-31 12 -49 38t-11 64q8 42 46 70t97 28q32 0 57 -9.5t41 -25t22.5 -36.5t2.5 -43q-6 -35 -31 -57.5t-61 -32.5q41 -14 61.5 -44.5t13.5 -72.5q-8 -47 -48.5 -80t-115.5 -33zM221 335q59 0 90 24.5
t37 59.5q4 21 -2 39.5t-20 31.5t-35 20.5t-47 7.5q-56 0 -89 -26t-39 -62q-3 -19 2 -36t18 -30t34.5 -21t50.5 -8zM253 549q47 0 76.5 21t34.5 51q6 35 -17 59t-75 24q-47 0 -74.5 -20t-33.5 -51q-3 -18 3 -33.5t18 -26.5t29.5 -17.5t38.5 -6.5z" />
    <glyph glyph-name="uni2079" unicode="&#x2079;" horiz-adv-x="396" 
d="M195 302q-35 0 -63.5 10.5t-45.5 27.5l26 27q14 -16 36.5 -24t48.5 -8q72 0 108.5 46.5t52.5 135.5q-17 -30 -48.5 -48.5t-69.5 -18.5q-33 0 -59.5 13t-43.5 35t-24 51.5t-1 62.5q10 54 50 89t99 35q36 0 66 -16t47 -42q20 -30 22.5 -68.5t-7.5 -92.5
q-17 -105 -63.5 -160t-130.5 -55zM245 482q47 0 78.5 27t39.5 69q4 25 -1 48t-18.5 40.5t-35 28t-49.5 10.5q-42 0 -74.5 -27t-40.5 -71q-4 -25 1 -47.5t18 -40t34 -27.5t48 -10z" />
    <glyph glyph-name="uni207A" unicode="&#x207a;" horiz-adv-x="313" 
d="M96 534h92l17 91h29l-16 -91h92l-6 -29h-91l-16 -93h-30l16 93h-92z" />
    <glyph glyph-name="uni207B" unicode="&#x207b;" horiz-adv-x="313" 
d="M96 534h214l-6 -29h-213z" />
    <glyph glyph-name="uni207C" unicode="&#x207c;" horiz-adv-x="313" 
d="M105 579h213l-5 -29h-214zM88 486h214l-6 -29h-214z" />
    <glyph glyph-name="uni207D" unicode="&#x207d;" horiz-adv-x="317" 
d="M233 213q-30 21 -56 55t-43 76.5t-23 92.5t4 104t33 100.5t54 83t66 62.5t68 40l17 -28q-33 -14 -65.5 -38t-60 -57t-48.5 -75t-30 -91q-9 -50 -4 -95t20 -83.5t38.5 -69t52.5 -51.5z" />
    <glyph glyph-name="uni207E" unicode="&#x207e;" horiz-adv-x="317" 
d="M176 826q30 -21 56.5 -55t44.5 -77t24.5 -92.5t-3.5 -103.5q-10 -55 -32 -101.5t-51.5 -83t-65 -63t-72.5 -41.5l-17 28q34 14 66.5 38.5t60 58t48 75.5t29.5 92q9 49 3 94t-21.5 83.5t-40 69.5t-52.5 52z" />
    <glyph glyph-name="uni2080" unicode="&#x2080;" horiz-adv-x="442" 
d="M180 -6q-35 0 -63.5 12t-46.5 37.5t-24 66.5t4 99l4 23q9 53 27.5 90t42.5 60.5t52.5 34.5t59.5 11q32 0 60.5 -11.5t47.5 -36.5t26 -64.5t-4 -95.5l-5 -28q-10 -56 -27.5 -93.5t-41 -61t-52 -33.5t-60.5 -10zM182 27q25 0 47.5 8t41.5 26.5t33 50.5t23 80l6 32
q9 46 5 79t-17.5 53.5t-36 30t-49.5 9.5q-26 0 -49 -8.5t-42 -28.5t-33.5 -52t-23.5 -79l-4 -23q-9 -51 -5 -85t18 -55t36.5 -29.5t49.5 -8.5z" />
    <glyph glyph-name="uni2081" unicode="&#x2081;" horiz-adv-x="226" 
d="M65 0l64 354q-12 -23 -35.5 -38.5t-61.5 -15.5h-6l7 35h3q25 0 43.5 7.5t31.5 20t20 28t10 31.5h34l-75 -422h-35z" />
    <glyph glyph-name="uni2082" unicode="&#x2082;" horiz-adv-x="392" 
d="M21 35q5 27 18.5 49t33 41t45 36t54.5 34q22 13 44 25.5t40 26.5t31 30.5t17 36.5q6 35 -18.5 60t-69.5 25q-34 0 -62 -16.5t-44 -42.5l-29 14q20 34 56 54t81 20q30 0 54 -9t40 -25t22.5 -38t2.5 -47q-5 -25 -19 -44.5t-33.5 -36t-43.5 -30.5l-48 -28q-55 -32 -91.5 -62
t-44.5 -74l-1 -2h232l-5 -32h-267z" />
    <glyph glyph-name="uni2083" unicode="&#x2083;" horiz-adv-x="363" 
d="M136 -6q-48 0 -84.5 20t-54.5 49l31 19q14 -26 42.5 -41t67.5 -15q45 0 75.5 21.5t37.5 61.5q7 41 -21.5 68t-76.5 27h-35l5 31h35q48 0 78.5 21.5t36.5 56.5q7 39 -18 62t-71 23q-34 0 -58.5 -12t-40.5 -29l-27 20q19 20 52 35.5t75 15.5q63 0 96.5 -34t24.5 -85
q-6 -33 -28.5 -57t-60.5 -35q36 -14 56 -44t12 -71q-10 -51 -49.5 -79.5t-99.5 -28.5z" />
    <glyph glyph-name="uni2084" unicode="&#x2084;" horiz-adv-x="402" 
d="M232 98h-215l4 32l268 292h33l-52 -293h71l-5 -31h-71l-17 -98h-33zM238 129l42 241l-218 -241h176z" />
    <glyph glyph-name="uni2085" unicode="&#x2085;" horiz-adv-x="396" 
d="M156 -6q-51 0 -84 22t-46 59l32 15q11 -29 35.5 -46.5t64.5 -17.5q45 0 81.5 27.5t45.5 73.5q4 23 0 44.5t-16 38t-31.5 26t-44.5 9.5q-38 0 -66.5 -16.5t-48.5 -47.5l-30 12l69 229h227l-5 -32h-199l-48 -156q19 19 45.5 30.5t63.5 11.5q31 0 55.5 -12.5t40.5 -33.5
t22 -48t0 -56q-11 -58 -55 -95t-108 -37z" />
    <glyph glyph-name="uni2086" unicode="&#x2086;" horiz-adv-x="405" 
d="M176 -6q-35 0 -67.5 16t-49.5 43q-19 30 -22.5 68t5.5 92q20 109 79.5 161.5t142.5 52.5q30 0 50 -5t37 -15l-20 -28q-14 8 -29.5 12.5t-38.5 4.5q-73 0 -121.5 -44.5t-66.5 -133.5q19 31 51.5 49t70.5 18q35 0 61.5 -13.5t44 -36.5t24 -53t1.5 -62q-11 -55 -51.5 -90.5
t-100.5 -35.5zM177 25q44 0 76.5 27.5t40.5 72.5q4 25 -0.5 48t-18 41t-35 29t-49.5 11q-47 0 -80 -27.5t-41 -70.5q-4 -22 0.5 -45t18 -42t35.5 -31.5t53 -12.5z" />
    <glyph glyph-name="uni2087" unicode="&#x2087;" horiz-adv-x="375" 
d="M309 391h-245l6 31h281l-6 -29l-241 -393h-38z" />
    <glyph glyph-name="uni2088" unicode="&#x2088;" horiz-adv-x="408" 
d="M161 -6q-36 0 -64 10.5t-45.5 28t-24.5 41t-2 49.5q6 40 36 67t75 38q-31 12 -49 38t-11 64q8 42 46 70t97 28q32 0 57 -9.5t41 -25t22.5 -36.5t2.5 -43q-6 -35 -31 -57.5t-61 -32.5q41 -14 61.5 -44.5t13.5 -72.5q-8 -47 -48.5 -80t-115.5 -33zM165 27q59 0 90 24.5
t37 59.5q4 21 -2 39.5t-20 31.5t-35 20.5t-47 7.5q-56 0 -89 -26t-39 -62q-3 -19 2 -36t18 -30t34.5 -21t50.5 -8zM197 241q47 0 76.5 21t34.5 51q6 35 -17 59t-75 24q-47 0 -74.5 -20t-33.5 -51q-3 -18 3 -33.5t18 -26.5t29.5 -17.5t38.5 -6.5z" />
    <glyph glyph-name="uni2089" unicode="&#x2089;" horiz-adv-x="396" 
d="M139 -6q-35 0 -63.5 10.5t-45.5 27.5l26 27q14 -16 36.5 -24t48.5 -8q72 0 108.5 46.5t52.5 135.5q-17 -30 -48.5 -48.5t-69.5 -18.5q-33 0 -59.5 13t-43.5 35t-24 51.5t-1 62.5q10 54 50 89t99 35q36 0 66 -16t47 -42q20 -30 22.5 -68.5t-7.5 -92.5q-17 -105 -63.5 -160
t-130.5 -55zM189 174q47 0 78.5 27t39.5 69q4 25 -1 48t-18.5 40.5t-35 28t-49.5 10.5q-42 0 -74.5 -27t-40.5 -71q-4 -25 1 -47.5t18 -40t34 -27.5t48 -10z" />
    <glyph glyph-name="uni208A" unicode="&#x208a;" horiz-adv-x="313" 
d="M40 226h92l17 91h29l-16 -91h92l-6 -29h-91l-16 -93h-30l16 93h-92z" />
    <glyph glyph-name="uni208B" unicode="&#x208b;" horiz-adv-x="313" 
d="M40 226h214l-6 -29h-213z" />
    <glyph glyph-name="uni208C" unicode="&#x208c;" horiz-adv-x="313" 
d="M49 271h213l-5 -29h-214zM32 178h214l-6 -29h-214z" />
    <glyph glyph-name="uni208D" unicode="&#x208d;" horiz-adv-x="317" 
d="M177 -95q-30 21 -56 55t-43 76.5t-23 92.5t4 104t33 100.5t54 83t66 62.5t68 40l17 -28q-33 -14 -65.5 -38t-60 -57t-48.5 -75t-30 -91q-9 -50 -4 -95t20 -83.5t38.5 -69t52.5 -51.5z" />
    <glyph glyph-name="uni208E" unicode="&#x208e;" horiz-adv-x="317" 
d="M120 518q30 -21 56.5 -55t44.5 -77t24.5 -92.5t-3.5 -103.5q-10 -55 -32 -101.5t-51.5 -83t-65 -63t-72.5 -41.5l-17 28q34 14 66.5 38.5t60 58t48 75.5t29.5 92q9 49 3 94t-21.5 83.5t-40 69.5t-52.5 52z" />
    <glyph glyph-name="uni20A1" unicode="&#x20a1;" horiz-adv-x="850" 
d="M209 70q-66 57 -95 145.5t-10 192.5q13 73 50.5 134t91.5 105t121 68.5t139 24.5q26 0 50 -3l53 103h35l-56 -108q53 -11 97 -35l74 143h35l-83 -159q64 -43 100 -114l-35 -17q-31 62 -81 99l-322 -618q31 -6 66 -6q88 0 167 41t128 114l33 -17q-54 -82 -141 -127.5
t-190 -45.5q-40 0 -80 8l-61 -118h-35l65 126q-25 8 -48 19.5t-43 25.5l-89 -171h-34zM140 402q-15 -87 7.5 -165.5t79.5 -132.5l311 599q-9 1 -18 1.5t-18 0.5q-64 0 -124 -22.5t-109 -62.5t-83 -96t-46 -122zM251 84q40 -31 91 -46l327 628q-22 12 -46 20.5t-52 13.5z" />
    <glyph glyph-name="uni20A2" unicode="&#x20a2;" horiz-adv-x="850" 
d="M436 -10q-87 0 -155.5 33t-112.5 90t-61.5 133t-2.5 162q13 73 50.5 134t91.5 105t121 68.5t139 24.5q106 0 185 -45.5t120 -127.5l-35 -17q-35 73 -102 114t-172 41q-64 0 -124 -22.5t-109 -62.5t-83 -96t-46 -122t-1 -129t42.5 -113.5t82.5 -85.5t120 -45l47 244
q8 42 -4 63.5t-47 21.5h-13l5 31h21q41 0 60.5 -26.5t11.5 -79.5q30 51 80 78.5t111 27.5h67l-7 -36h-63q-42 0 -76.5 -13.5t-60.5 -37.5t-43 -56.5t-24 -71.5l-29 -149h19q88 0 167 41t128 114l33 -17q-54 -82 -141 -127.5t-190 -45.5z" />
    <glyph glyph-name="franc" unicode="&#x20a3;" horiz-adv-x="586" 
d="M170 730h413l-6 -34h-375l-43 -243h375l-6 -35h-375l-20 -116h375l-6 -34h-375l-47 -268h-38z" />
    <glyph glyph-name="lira" unicode="&#x20a4;" horiz-adv-x="765" 
d="M145 454h79q-7 26 -8.5 53t3.5 57q7 39 26.5 71.5t49.5 56t69 36t84 12.5q65 0 114.5 -24.5t81.5 -70.5l-32 -16q-29 41 -70.5 60t-94.5 19q-38 0 -70.5 -11t-57 -30.5t-41 -47t-22.5 -59.5q-5 -29 -3 -55t9 -51h269l-6 -31h-253q8 -21 17 -41.5t18 -40.5h201l-6 -31
h-182q14 -36 22 -74t0 -81q-3 -15 -7.5 -30t-11.5 -29q18 -14 37 -27.5t39 -24t42 -16.5t47 -6q33 0 57.5 8t43 27t31 49.5t20.5 75.5l4 21h38l-5 -26q-18 -100 -61.5 -143.5t-124.5 -43.5q-58 0 -102 24.5t-82 54.5q-23 -35 -61 -57.5t-92 -22.5q-25 0 -47.5 7t-39 21
t-24.5 34.5t-3 47.5q7 35 35.5 57t75.5 23q42 1 77.5 -18.5t69.5 -45.5q8 20 11 38q8 44 -1.5 82t-25.5 75h-165l5 31h147q-10 20 -19 40.5t-17 41.5h-94zM153 16q45 0 77.5 20.5t52.5 51.5q-32 25 -64 44t-68 19q-34 0 -54.5 -16.5t-24.5 -40.5q-3 -19 2 -33.5t16.5 -24.5
t28 -15t34.5 -5z" />
    <glyph glyph-name="uni20A6" unicode="&#x20a6;" horiz-adv-x="810" 
d="M77 444h81l50 286h39l155 -286h278l50 286h37l-50 -286h80l-6 -31h-80l-14 -82h80l-6 -31h-80l-52 -300h-35l-164 300h-270l-52 -300h-38l52 300h-80l6 31h80l14 82h-80zM612 59l42 241h-173zM196 444h166l-126 230zM464 331h196l14 82h-255zM176 331h247l-44 82h-189z
" />
    <glyph glyph-name="peseta" unicode="&#x20a7;" horiz-adv-x="1335" 
d="M1038 33q37 0 64.5 8t46 21t29 30.5t13.5 36.5q4 25 -6.5 43.5t-31 32t-47.5 23.5t-56 20q-31 11 -61 23t-51.5 29.5t-32.5 41t-5 57.5q9 53 57.5 83t118.5 29q59 0 108 -21.5t78 -53.5l-29 -21q-27 29 -67.5 47t-94.5 18t-91 -21.5t-44 -63.5q-5 -26 5.5 -43.5t30 -31
t46 -24t55.5 -20.5q30 -11 60 -23t52.5 -29t34.5 -41.5t6 -58.5q-5 -26 -17 -49t-34.5 -39.5t-56 -26t-81.5 -9.5h-215q-108 0 -147.5 52t-23.5 145l48 272h-93v-4q-8 -49 -32.5 -90t-62 -71t-87 -46.5t-109.5 -16.5h-193l-42 -241h-37l128 730h193q53 0 98.5 -16.5
t79 -46.5t51.5 -72.5t16 -94.5h95l22 120l40 20l-25 -140h129l-6 -31h-129l-48 -275q-14 -84 18.5 -122.5t123.5 -38.5h209zM202 697l-74 -422h188q52 0 95 14.5t75.5 41t53.5 62.5t29 78q8 48 -4 89.5t-40.5 72t-71 47.5t-94.5 17h-157z" />
    <glyph glyph-name="uni20A8" unicode="&#x20a8;" horiz-adv-x="1091" 
d="M170 730h206q51 0 94 -19t73 -52t43.5 -78.5t4.5 -97.5q-7 -41 -27.5 -77t-52 -63t-72.5 -42.5t-89 -15.5h-28q9 -43 34.5 -89.5t74.5 -85.5t126 -64t191 -25q93 0 141.5 27.5t57.5 78.5q4 25 -6.5 42.5t-30.5 30.5t-47.5 23t-55.5 21q-32 12 -62 24.5t-52.5 30t-34 41.5
t-5.5 58q9 53 57.5 83.5t118.5 29.5q60 0 110 -21.5t80 -53.5l-29 -21q-27 29 -69.5 47t-95.5 18q-54 0 -91.5 -22t-44.5 -64q-5 -26 5.5 -44t30.5 -31.5t47.5 -24t56.5 -21.5q31 -12 61 -24.5t52.5 -29.5t34 -40.5t5.5 -56.5q-11 -63 -69 -99t-168 -36q-131 0 -217.5 32.5
t-139.5 82t-77 107.5t-30 109h66q40 0 75.5 13.5t62.5 36.5t45 54t24 67q7 43 -4 80.5t-36 65.5t-62 44.5t-82 17.5h-168l-122 -697h-38z" />
    <glyph glyph-name="uni20A9" unicode="&#x20a9;" horiz-adv-x="1138" 
d="M77 444h118l-35 286h39l34 -286h246l149 286h35l49 -286h250l135 286h39l-135 -286h122l-5 -31h-132l-39 -82h156l-5 -31h-165l-142 -300h-38l-52 300h-258l-155 -300h-39l-37 300h-160l6 31h151l-10 82h-128zM780 56l114 244h-157zM279 57l126 243h-155zM518 444h158
l-40 229zM459 331h236l-14 82h-179zM732 331h177l38 82h-229zM246 331h175l42 82h-227z" />
    <glyph glyph-name="uni20AA" unicode="&#x20aa;" horiz-adv-x="659" 
d="M170 730h156q89 0 126 -50t20 -141l-61 -349q-4 -19 -13.5 -28t-31.5 -9l68 386q13 73 -13 114.5t-98 41.5h-121l-123 -695h-38zM292 583q22 0 28.5 -10t2.5 -29l-90 -509h118q81 0 119.5 42t51.5 115l93 538h38l-93 -538q-16 -92 -67 -142t-149 -50h-154z" />
    <glyph glyph-name="Euro" unicode="&#x20ac;" horiz-adv-x="902" 
d="M209 457q-5 -14 -9 -27t-6 -28q-5 -31 -6.5 -60.5t3.5 -58.5q1 -6 1.5 -12t2.5 -12h383l-14 -32h-360q14 -44 39.5 -81t62 -64t83 -42t103.5 -15q88 0 167 41t128 114l33 -17q-54 -81 -141 -127t-190 -46q-62 0 -115 17.5t-94.5 49t-71 75t-44.5 95.5h-119l5 32h107
q-2 6 -2.5 12t-1.5 12q-8 62 4 125q2 13 4.5 25t7.5 24l5 14h-86l5 32h94q25 53 65.5 97t90.5 75t107 48t116 17q106 0 183.5 -44t119.5 -129l-35 -17q-35 75 -102 115t-170 40q-51 0 -101 -14.5t-93.5 -41t-79.5 -63.5t-60 -83h459l-14 -32h-460l-5 -14h1z" />
    <glyph glyph-name="uni20AE" unicode="&#x20ae;" horiz-adv-x="640" 
d="M517 494l-147 -56l-17 -100l147 56l-6 -32l-147 -57l-53 -305h-38l51 290l-146 -56l5 33l146 55l18 100l-146 -55l5 32l146 56l43 241h-255l6 34h548l-5 -34h-257l-39 -226l147 57z" />
    <glyph glyph-name="uni20B1" unicode="&#x20b1;" horiz-adv-x="725" 
d="M98 558h80l30 172h193q45 0 85.5 -12t72 -34.5t53 -54.5t30.5 -71h91l-6 -31h-81q2 -15 0.5 -30.5t-3.5 -31.5l-4 -19h74l-6 -31h-78q-15 -39 -40.5 -71t-61 -55t-79.5 -35.5t-95 -12.5h-193l-42 -241h-38l73 415h-80l6 31h79l14 81h-80zM354 275q85 0 146 38.5t89 101.5
h-399l-24 -140h188zM239 697l-24 -139h387q-17 62 -72 100.5t-134 38.5h-157zM606 471q5 31 2 56h-398l-14 -81h404z" />
    <glyph glyph-name="published" unicode="&#x2117;" horiz-adv-x="902" 
d="M424 -133q-86 0 -156.5 33.5t-117 90.5t-66 133t-4.5 162q13 73 49.5 134t89 105t117 68.5t134.5 24.5q85 0 155 -34t116.5 -92t66 -135t4.5 -162q-13 -73 -49.5 -133.5t-88.5 -103.5t-116.5 -67t-133.5 -24zM427 -100q63 0 121 22.5t105.5 62t80 95t44.5 121.5
q13 70 -2.5 139t-55.5 123.5t-103.5 88t-147.5 33.5q-64 0 -123 -22.5t-106.5 -63t-80 -96.5t-44.5 -122q-13 -73 3.5 -141.5t57.5 -122t104.5 -85.5t146.5 -32zM364 424h119q30 0 55.5 -10.5t43.5 -29.5t26.5 -44.5t3.5 -55.5q-9 -53 -49.5 -86t-102.5 -33h-106l-21 -119
h-36zM393 392l-34 -195h99q49 0 80 25t38 66q8 47 -21 75.5t-79 28.5h-83z" />
    <glyph glyph-name="servicemark" unicode="&#x2120;" horiz-adv-x="723" 
d="M394 730h29l98 -168l163 168h30l-53 -290h-30l44 240l-160 -162l-100 167l-43 -245h-29zM194 437q-34 0 -56.5 15.5t-35.5 35.5l26 16q9 -16 25 -28t42 -12t42.5 13.5t20.5 33.5q2 14 -2 24t-12 18.5t-18.5 15t-22.5 13.5q-13 7 -25.5 15.5t-22 19t-13.5 24.5t-1 34
q5 26 28 43.5t58 17.5q26 0 48 -11.5t35 -31.5l-25 -16q-20 32 -60 32q-23 0 -38 -10.5t-19 -28.5q-2 -13 1.5 -22.5t11.5 -17.5t19 -14.5t23 -12.5q13 -7 26 -15t22.5 -19.5t14 -26.5t1.5 -36q-5 -32 -30 -50.5t-63 -18.5z" />
    <glyph glyph-name="trademark" unicode="&#x2122;" horiz-adv-x="730" 
d="M401 730h28l98 -167l164 167h29l-52 -290h-30l44 240l-160 -162l-101 167l-43 -245h-28zM232 704h-105l5 26h239l-5 -26h-105l-46 -264h-30z" />
    <glyph glyph-name="uni2153" unicode="&#x2153;" horiz-adv-x="802" 
d="M577 -6q-48 0 -84.5 20t-54.5 49l31 19q14 -26 42.5 -41t67.5 -15q45 0 75.5 21.5t37.5 61.5q7 41 -21.5 68t-76.5 27h-35l5 31h35q48 0 78.5 21.5t36.5 56.5q7 39 -18 62t-71 23q-34 0 -58.5 -12t-40.5 -29l-27 20q19 20 52 35.5t75 15.5q63 0 96.5 -34t24.5 -85
q-6 -33 -28.5 -57t-60.5 -35q36 -14 56 -44t12 -71q-10 -51 -49.5 -79.5t-99.5 -28.5zM130 308l64 354q-12 -23 -35.5 -38.5t-61.5 -15.5h-6l7 35h3q25 0 43.5 7.5t31.5 20t20 28t10 31.5h34l-75 -422h-35zM651 730h46l-654 -730h-46z" />
    <glyph glyph-name="uni2154" unicode="&#x2154;" horiz-adv-x="968" 
d="M75 343q5 27 18.5 49t33 41t45 36t54.5 34q22 13 44 25.5t40 26.5t31 30.5t17 36.5q6 35 -18.5 60t-69.5 25q-34 0 -62 -16.5t-44 -42.5l-29 14q20 34 56 54t81 20q30 0 54 -9t40 -25t22.5 -38t2.5 -47q-5 -25 -19 -44.5t-33.5 -36t-43.5 -30.5l-48 -28
q-55 -32 -91.5 -62t-44.5 -74l-1 -2h232l-5 -32h-267zM741 -6q-48 0 -84.5 20t-54.5 49l31 19q14 -26 42.5 -41t67.5 -15q45 0 75.5 21.5t37.5 61.5q7 41 -21.5 68t-76.5 27h-35l5 31h35q48 0 78.5 21.5t36.5 56.5q7 39 -18 62t-71 23q-34 0 -58.5 -12t-40.5 -29l-27 20
q19 20 52 35.5t75 15.5q63 0 96.5 -34t24.5 -85q-6 -33 -28.5 -57t-60.5 -35q36 -14 56 -44t12 -71q-10 -51 -49.5 -79.5t-99.5 -28.5zM816 730h46l-654 -730h-46z" />
    <glyph glyph-name="uni2155" unicode="&#x2155;" horiz-adv-x="809" 
d="M569 -6q-51 0 -84 22t-46 59l32 15q11 -29 35.5 -46.5t64.5 -17.5q45 0 81.5 27.5t45.5 73.5q4 23 0 44.5t-16 38t-31.5 26t-44.5 9.5q-38 0 -66.5 -16.5t-48.5 -47.5l-30 12l69 229h227l-5 -32h-199l-48 -156q19 19 45.5 30.5t63.5 11.5q31 0 55.5 -12.5t40.5 -33.5
t22 -48t0 -56q-11 -58 -55 -95t-108 -37zM130 308l64 354q-12 -23 -35.5 -38.5t-61.5 -15.5h-6l7 35h3q25 0 43.5 7.5t31.5 20t20 28t10 31.5h34l-75 -422h-35zM651 730h46l-654 -730h-46z" />
    <glyph glyph-name="uni2156" unicode="&#x2156;" horiz-adv-x="973" 
d="M75 343q5 27 18.5 49t33 41t45 36t54.5 34q22 13 44 25.5t40 26.5t31 30.5t17 36.5q6 35 -18.5 60t-69.5 25q-34 0 -62 -16.5t-44 -42.5l-29 14q20 34 56 54t81 20q30 0 54 -9t40 -25t22.5 -38t2.5 -47q-5 -25 -19 -44.5t-33.5 -36t-43.5 -30.5l-48 -28
q-55 -32 -91.5 -62t-44.5 -74l-1 -2h232l-5 -32h-267zM733 -6q-51 0 -84 22t-46 59l32 15q11 -29 35.5 -46.5t64.5 -17.5q45 0 81.5 27.5t45.5 73.5q4 23 0 44.5t-16 38t-31.5 26t-44.5 9.5q-38 0 -66.5 -16.5t-48.5 -47.5l-30 12l69 229h227l-5 -32h-199l-48 -156
q19 19 45.5 30.5t63.5 11.5q31 0 55.5 -12.5t40.5 -33.5t22 -48t0 -56q-11 -58 -55 -95t-108 -37zM816 730h46l-654 -730h-46z" />
    <glyph glyph-name="uni2157" unicode="&#x2157;" horiz-adv-x="931" 
d="M190 304q-48 0 -84.5 20t-54.5 49l31 19q14 -26 42.5 -41t67.5 -15q45 0 75.5 21.5t37.5 61.5q7 41 -21.5 68t-76.5 27h-35l5 31h35q48 0 78.5 21.5t36.5 56.5q7 39 -18 62t-71 23q-34 0 -58.5 -12t-40.5 -29l-27 20q19 20 52 35.5t75 15.5q63 0 96.5 -34t24.5 -85
q-6 -33 -28.5 -57t-60.5 -35q36 -14 56 -44t12 -71q-10 -51 -49.5 -79.5t-99.5 -28.5zM691 -6q-51 0 -84 22t-46 59l32 15q11 -29 35.5 -46.5t64.5 -17.5q45 0 81.5 27.5t45.5 73.5q4 23 0 44.5t-16 38t-31.5 26t-44.5 9.5q-38 0 -66.5 -16.5t-48.5 -47.5l-30 12l69 229h227
l-5 -32h-199l-48 -156q19 19 45.5 30.5t63.5 11.5q31 0 55.5 -12.5t40.5 -33.5t22 -48t0 -56q-11 -58 -55 -95t-108 -37zM773 730h46l-654 -730h-46z" />
    <glyph glyph-name="uni2158" unicode="&#x2158;" horiz-adv-x="949" 
d="M285 406h-215l4 32l268 292h33l-52 -293h71l-5 -31h-71l-17 -98h-33zM291 437l42 241l-218 -241h176zM709 -6q-51 0 -84 22t-46 59l32 15q11 -29 35.5 -46.5t64.5 -17.5q45 0 81.5 27.5t45.5 73.5q4 23 0 44.5t-16 38t-31.5 26t-44.5 9.5q-38 0 -66.5 -16.5t-48.5 -47.5
l-30 12l69 229h227l-5 -32h-199l-48 -156q19 19 45.5 30.5t63.5 11.5q31 0 55.5 -12.5t40.5 -33.5t22 -48t0 -56q-11 -58 -55 -95t-108 -37zM792 730h46l-654 -730h-46z" />
    <glyph glyph-name="uni2159" unicode="&#x2159;" horiz-adv-x="798" 
d="M570 -6q-35 0 -67.5 16t-49.5 43q-19 30 -22.5 68t5.5 92q20 109 79.5 161.5t142.5 52.5q30 0 50 -5t37 -15l-20 -28q-14 8 -29.5 12.5t-38.5 4.5q-73 0 -121.5 -44.5t-66.5 -133.5q19 31 51.5 49t70.5 18q35 0 61.5 -13.5t44 -36.5t24 -53t1.5 -62q-11 -55 -51.5 -90.5
t-100.5 -35.5zM571 25q44 0 76.5 27.5t40.5 72.5q4 25 -0.5 48t-18 41t-35 29t-49.5 11q-47 0 -80 -27.5t-41 -70.5q-4 -22 0.5 -45t18 -42t35.5 -31.5t53 -12.5zM130 308l64 354q-12 -23 -35.5 -38.5t-61.5 -15.5h-6l7 35h3q25 0 43.5 7.5t31.5 20t20 28t10 31.5h34
l-75 -422h-35zM651 730h46l-654 -730h-46z" />
    <glyph glyph-name="uni215A" unicode="&#x215a;" horiz-adv-x="944" 
d="M211 302q-51 0 -84 22t-46 59l32 15q11 -29 35.5 -46.5t64.5 -17.5q45 0 81.5 27.5t45.5 73.5q4 23 0 44.5t-16 38t-31.5 26t-44.5 9.5q-38 0 -66.5 -16.5t-48.5 -47.5l-30 12l69 229h227l-5 -32h-199l-48 -156q19 19 45.5 30.5t63.5 11.5q31 0 55.5 -12.5t40.5 -33.5
t22 -48t0 -56q-11 -58 -55 -95t-108 -37zM715 -6q-35 0 -67.5 16t-49.5 43q-19 30 -22.5 68t5.5 92q20 109 79.5 161.5t142.5 52.5q30 0 50 -5t37 -15l-20 -28q-14 8 -29.5 12.5t-38.5 4.5q-73 0 -121.5 -44.5t-66.5 -133.5q19 31 51.5 49t70.5 18q35 0 61.5 -13.5t44 -36.5
t24 -53t1.5 -62q-11 -55 -51.5 -90.5t-100.5 -35.5zM716 25q44 0 76.5 27.5t40.5 72.5q4 25 -0.5 48t-18 41t-35 29t-49.5 11q-47 0 -80 -27.5t-41 -70.5q-4 -22 0.5 -45t18 -42t35.5 -31.5t53 -12.5zM797 730h46l-654 -730h-46z" />
    <glyph glyph-name="uni215B" unicode="&#x215b;" horiz-adv-x="818" 
d="M572 -6q-36 0 -64 10.5t-45.5 28t-24.5 41t-2 49.5q6 40 36 67t75 38q-31 12 -49 38t-11 64q8 42 46 70t97 28q32 0 57 -9.5t41 -25t22.5 -36.5t2.5 -43q-6 -35 -31 -57.5t-61 -32.5q41 -14 61.5 -44.5t13.5 -72.5q-8 -47 -48.5 -80t-115.5 -33zM576 27q59 0 90 24.5
t37 59.5q4 21 -2 39.5t-20 31.5t-35 20.5t-47 7.5q-56 0 -89 -26t-39 -62q-3 -19 2 -36t18 -30t34.5 -21t50.5 -8zM608 241q47 0 76.5 21t34.5 51q6 35 -17 59t-75 24q-47 0 -74.5 -20t-33.5 -51q-3 -18 3 -33.5t18 -26.5t29.5 -17.5t38.5 -6.5zM130 308l64 354
q-12 -23 -35.5 -38.5t-61.5 -15.5h-6l7 35h3q25 0 43.5 7.5t31.5 20t20 28t10 31.5h34l-75 -422h-35zM651 730h46l-654 -730h-46z" />
    <glyph glyph-name="uni215C" unicode="&#x215c;" horiz-adv-x="940" 
d="M190 304q-48 0 -84.5 20t-54.5 49l31 19q14 -26 42.5 -41t67.5 -15q45 0 75.5 21.5t37.5 61.5q7 41 -21.5 68t-76.5 27h-35l5 31h35q48 0 78.5 21.5t36.5 56.5q7 39 -18 62t-71 23q-34 0 -58.5 -12t-40.5 -29l-27 20q19 20 52 35.5t75 15.5q63 0 96.5 -34t24.5 -85
q-6 -33 -28.5 -57t-60.5 -35q36 -14 56 -44t12 -71q-10 -51 -49.5 -79.5t-99.5 -28.5zM693 -6q-36 0 -64 10.5t-45.5 28t-24.5 41t-2 49.5q6 40 36 67t75 38q-31 12 -49 38t-11 64q8 42 46 70t97 28q32 0 57 -9.5t41 -25t22.5 -36.5t2.5 -43q-6 -35 -31 -57.5t-61 -32.5
q41 -14 61.5 -44.5t13.5 -72.5q-8 -47 -48.5 -80t-115.5 -33zM697 27q59 0 90 24.5t37 59.5q4 21 -2 39.5t-20 31.5t-35 20.5t-47 7.5q-56 0 -89 -26t-39 -62q-3 -19 2 -36t18 -30t34.5 -21t50.5 -8zM729 241q47 0 76.5 21t34.5 51q6 35 -17 59t-75 24q-47 0 -74.5 -20
t-33.5 -51q-3 -18 3 -33.5t18 -26.5t29.5 -17.5t38.5 -6.5zM773 730h46l-654 -730h-46z" />
    <glyph glyph-name="uni215D" unicode="&#x215d;" horiz-adv-x="964" 
d="M211 302q-51 0 -84 22t-46 59l32 15q11 -29 35.5 -46.5t64.5 -17.5q45 0 81.5 27.5t45.5 73.5q4 23 0 44.5t-16 38t-31.5 26t-44.5 9.5q-38 0 -66.5 -16.5t-48.5 -47.5l-30 12l69 229h227l-5 -32h-199l-48 -156q19 19 45.5 30.5t63.5 11.5q31 0 55.5 -12.5t40.5 -33.5
t22 -48t0 -56q-11 -58 -55 -95t-108 -37zM717 -6q-36 0 -64 10.5t-45.5 28t-24.5 41t-2 49.5q6 40 36 67t75 38q-31 12 -49 38t-11 64q8 42 46 70t97 28q32 0 57 -9.5t41 -25t22.5 -36.5t2.5 -43q-6 -35 -31 -57.5t-61 -32.5q41 -14 61.5 -44.5t13.5 -72.5q-8 -47 -48.5 -80
t-115.5 -33zM721 27q59 0 90 24.5t37 59.5q4 21 -2 39.5t-20 31.5t-35 20.5t-47 7.5q-56 0 -89 -26t-39 -62q-3 -19 2 -36t18 -30t34.5 -21t50.5 -8zM753 241q47 0 76.5 21t34.5 51q6 35 -17 59t-75 24q-47 0 -74.5 -20t-33.5 -51q-3 -18 3 -33.5t18 -26.5t29.5 -17.5
t38.5 -6.5zM797 730h46l-654 -730h-46z" />
    <glyph glyph-name="uni215E" unicode="&#x215e;" horiz-adv-x="833" 
d="M362 699h-245l6 31h281l-6 -29l-241 -393h-38zM587 -6q-36 0 -64 10.5t-45.5 28t-24.5 41t-2 49.5q6 40 36 67t75 38q-31 12 -49 38t-11 64q8 42 46 70t97 28q32 0 57 -9.5t41 -25t22.5 -36.5t2.5 -43q-6 -35 -31 -57.5t-61 -32.5q41 -14 61.5 -44.5t13.5 -72.5
q-8 -47 -48.5 -80t-115.5 -33zM591 27q59 0 90 24.5t37 59.5q4 21 -2 39.5t-20 31.5t-35 20.5t-47 7.5q-56 0 -89 -26t-39 -62q-3 -19 2 -36t18 -30t34.5 -21t50.5 -8zM623 241q47 0 76.5 21t34.5 51q6 35 -17 59t-75 24q-47 0 -74.5 -20t-33.5 -51q-3 -18 3 -33.5t18 -26.5
t29.5 -17.5t38.5 -6.5zM667 730h46l-654 -730h-46z" />
    <glyph glyph-name="uni215F" unicode="&#x215f;" horiz-adv-x="677" 
d="M130 308l64 354q-12 -23 -35.5 -38.5t-61.5 -15.5h-6l7 35h3q25 0 43.5 7.5t31.5 20t20 28t10 31.5h34l-75 -422h-35zM651 730h46l-654 -730h-46z" />
    <glyph glyph-name="arrowleft" unicode="&#x2190;" horiz-adv-x="930" 
d="M293 138q-14 34 -38.5 67.5t-53.5 62t-59.5 51t-57.5 35.5v23q27 13 58 36t60 51.5t53 61.5t38 68l31 -17q-12 -31 -33.5 -60.5t-47 -55t-52 -45.5t-49.5 -33h721v-35h-721q23 -13 49.5 -33t52 -45t47 -54t33.5 -60l-31 -18v0z" />
    <glyph glyph-name="arrowup" unicode="&#x2191;" horiz-adv-x="930" 
d="M468 711q-13 -23 -33 -49t-45 -51t-54 -45.5t-60 -32.5l-17 31q34 13 67.5 37.5t62 54t51 60t35.5 57.5h23q13 -27 36 -58t51.5 -60t61.5 -53.5t68 -37.5l-18 -31q-31 12 -60 33t-54 45.5t-45 50.5t-33 49v-711h-37v711z" />
    <glyph glyph-name="arrowright" unicode="&#x2192;" horiz-adv-x="930" 
d="M631 155q12 30 32.5 59t45.5 54.5t52 46t50 33.5h-719v35h721q-23 13 -50 33t-52 45t-46.5 54.5t-33.5 60.5l31 18q13 -35 37.5 -68.5t54 -62t60 -51t57.5 -35.5v-23q-27 -13 -58 -35.5t-60 -51t-53.5 -62t-38.5 -68.5z" />
    <glyph glyph-name="arrowdown" unicode="&#x2193;" horiz-adv-x="930" 
d="M465 -43q-14 27 -36.5 58t-51 60.5t-62 53.5t-67.5 38l17 31q30 -12 59 -32.5t54 -45.5t45 -51t34 -49v710h37v-713q13 23 33 49.5t45 51.5t54 46.5t60 33.5l18 -31q-35 -14 -68 -38.5t-61.5 -53.5t-51 -60t-35.5 -58h-23v0z" />
    <glyph glyph-name="uni2196" unicode="&#x2196;" horiz-adv-x="930" 
d="M198 350q15 34 21 75t6 81.5t-6 78t-16 65.5l16 17q28 -10 66 -16t79 -6t81.5 6t74.5 21l10 -34q-31 -14 -67 -19.5t-72 -5.5t-69.5 5t-58.5 12l511 -510l-24 -25l-510 509q7 -26 11.5 -59t4.5 -68.5t-5.5 -71t-18.5 -65.5l-34 10v0z" />
    <glyph glyph-name="uni2197" unicode="&#x2197;" horiz-adv-x="930" 
d="M199 120l509 509q-26 -7 -59 -12t-68.5 -5t-71 5.5t-65.5 19.5l10 34q34 -15 75 -21t81.5 -5.5t78 6.5t65.5 16l17 -17q-10 -29 -16 -66.5t-6 -78.5t6 -81.5t21 -74.5l-34 -10q-14 31 -19.5 67t-5.5 72t5 69t12 58l-510 -510z" />
    <glyph glyph-name="uni2198" unicode="&#x2198;" horiz-adv-x="930" 
d="M748 98q-29 10 -67 16t-79 6t-81.5 -6t-74.5 -21l-9 34q30 13 66 18.5t71.5 5.5t68.5 -4.5t58 -11.5l-509 511l25 24l510 -510q-8 25 -12.5 58t-4.5 69t5.5 71.5t18.5 66.5l34 -10q-15 -34 -21 -74.5t-5.5 -81.5t6.5 -78.5t16 -65.5l-16 -17v0z" />
    <glyph glyph-name="uni2199" unicode="&#x2199;" horiz-adv-x="930" 
d="M520 94q-34 15 -75 21t-81.5 5.5t-78 -6.5t-65.5 -16l-17 16q10 29 16 67t6 79t-6 81.5t-21 74.5l34 9q13 -31 18.5 -67t5.5 -72t-5 -69t-12 -58l511 511l25 -25l-510 -510q25 7 58 12t69 5t71.5 -5.5t66.5 -18.5l-10 -34v0z" />
    <glyph glyph-name="partialdiff" unicode="&#x2202;" horiz-adv-x="662" 
d="M311 -10q-59 0 -107.5 22.5t-81 61.5t-46.5 91t-5 111q8 52 34 94.5t63 73t82.5 47t93.5 16.5q72 0 123 -37t74 -93q-19 85 -79 173.5t-169 179.5h55q140 -125 198 -255.5t35 -254.5q-9 -51 -34 -93.5t-61 -72.5t-81 -47t-94 -17zM313 23q40 0 78.5 15t70 42t53 63.5
t29.5 79.5q9 47 -1.5 92t-37 80.5t-67 57.5t-91.5 22q-42 0 -81.5 -14.5t-71.5 -41t-54.5 -63t-30.5 -79.5q-9 -49 1.5 -94.5t37.5 -81t69 -57t96 -21.5z" />
    <glyph glyph-name="Delta" unicode="&#x2206;" horiz-adv-x="931" 
d="M-5 0l554 742l299 -742h-853zM67 35h727l-254 634z" />
    <glyph glyph-name="product" unicode="&#x220f;" horiz-adv-x="790" 
d="M139 730h675l-7 -34h-154l-122 -696h-37l121 696h-288l-122 -696h-37l121 696h-156z" />
    <glyph glyph-name="summation" unicode="&#x2211;" horiz-adv-x="622" 
d="M30 32l329 352l-206 315l6 31h472l-6 -34h-429l207 -317l-323 -344h434l-6 -35h-482z" />
    <glyph glyph-name="minus" unicode="&#x2212;" horiz-adv-x="496" 
d="M76 383h370l-5 -33h-370z" />
    <glyph glyph-name="radical" unicode="&#x221a;" horiz-adv-x="853" 
d="M176 465h-80l3 35h104l136 -455l470 689h44l-500 -734h-38z" />
    <glyph glyph-name="infinity" unicode="&#x221e;" horiz-adv-x="974" 
d="M291 250q-28 0 -53 10.5t-43.5 28.5t-29 42.5t-10.5 52.5t10.5 52.5t29 43t43.5 29t53 10.5q27 0 53 -10t52 -26t51.5 -36.5t51.5 -41.5q25 22 50.5 42.5t51.5 36.5t52.5 25.5t53.5 9.5q28 0 52.5 -10.5t43 -29t29 -43t10.5 -52.5t-10.5 -52.5t-29 -42.5t-43 -28.5
t-52.5 -10.5t-55 9t-53 24t-51.5 34.5t-49.5 40.5q-24 -21 -49.5 -40.5t-51 -34.5t-52.5 -24t-54 -9zM291 283q23 0 45.5 8t45.5 21.5t45.5 31.5t45.5 37q-24 20 -47 38.5t-45.5 33t-45 23t-44.5 8.5q-20 0 -38.5 -8.5t-32.5 -22.5t-22 -32t-8 -38t8 -38t22 -32t32.5 -22
t38.5 -8zM707 284q20 0 38.5 8.5t32 22.5t21 32t7.5 38t-8 38t-21.5 32t-31.5 22t-38 8q-23 0 -45.5 -8.5t-45 -23t-45.5 -33t-46 -38.5q45 -39 90 -68.5t92 -29.5z" />
    <glyph glyph-name="integral" unicode="&#x222b;" horiz-adv-x="375" 
d="M-48 -131h8q33 0 56 6t38.5 20t25 37t15.5 57l99 569q9 53 22.5 86.5t35 52.5t54 26t80.5 7h11l-6 -34h-8q-38 0 -63.5 -5t-43 -19.5t-28 -42t-18.5 -72.5l-99 -568q-8 -47 -21 -77.5t-33 -48t-48 -24t-67 -6.5h-16z" />
    <glyph glyph-name="approxequal" unicode="&#x2248;" horiz-adv-x="498" 
d="M91 461q24 11 47.5 18t54.5 7q22 0 44.5 -6t43.5 -13t41.5 -13t40.5 -6q29 0 51 7t50 19l-7 -34q-23 -12 -45 -18t-55 -6q-21 0 -43 6t-44 13t-43 13t-40 6q-30 0 -54 -8t-48 -19zM61 294q24 11 45.5 18.5t52.5 7.5q22 0 45 -6t45.5 -12.5t43.5 -12.5t41 -6
q29 0 50.5 6.5t49.5 17.5l-7 -34q-23 -12 -44 -17t-54 -5q-21 0 -44 6t-45.5 12.5t-44.5 12.5t-41 6q-30 0 -52.5 -8.5t-46.5 -19.5z" />
    <glyph glyph-name="notequal" unicode="&#x2260;" horiz-adv-x="496" 
d="M91 460h204l37 67h31l-37 -67h135l-6 -33h-148l-70 -127h195l-6 -33h-208l-38 -70h-32l39 70h-131l6 33h143l71 127h-191z" />
    <glyph glyph-name="equivalence" unicode="&#x2261;" horiz-adv-x="496" 
d="M76 381h370l-6 -33h-370zM48 221h370l-6 -33h-370zM105 540h370l-6 -33h-370z" />
    <glyph glyph-name="lessequal" unicode="&#x2264;" horiz-adv-x="496" 
d="M85 424l6 33l394 144l-7 -36l-351 -125l307 -130l-7 -34zM49 224h370l-6 -33h-370z" />
    <glyph glyph-name="greaterequal" unicode="&#x2265;" horiz-adv-x="496" 
d="M65 313l351 125l-307 129l7 34l343 -148l-6 -33l-395 -144zM49 224h370l-6 -33h-370z" />
    <glyph glyph-name="squaremultiply" unicode="&#x22a0;" horiz-adv-x="960" 
d="M135 730h726v-730h-726v730zM172 35h651v660h-651v-660zM281 162l197 205l-193 198l22 22l193 -198l191 198l22 -23l-191 -198l196 -200l-22 -22l-195 200l-198 -205z" />
    <glyph glyph-name="house" unicode="&#x2302;" horiz-adv-x="908" 
d="M116 0v427l337 323l337 -323v-427h-674z" />
    <glyph glyph-name="blacksquare" unicode="&#x25a0;" horiz-adv-x="960" 
d="M135 730h726v-730h-726v730z" />
    <glyph glyph-name="blacksquare" unicode="&#xe740;" horiz-adv-x="960" 
d="M135 730h726v-730h-726v730z" />
    <glyph glyph-name="whitesquare" unicode="&#x25a1;" horiz-adv-x="960" 
d="M135 730h726v-730h-726v730zM172 35h651v660h-651v-660z" />
    <glyph glyph-name="blacksmallsquare" unicode="&#x25aa;" horiz-adv-x="734" 
d="M116 500h500v-500h-500v500z" />
    <glyph glyph-name="whitesmallsquare" unicode="&#x25ab;" horiz-adv-x="734" 
d="M116 500h500v-500h-500v500zM153 35h425v430h-425v-430z" />
    <glyph glyph-name="triagup" unicode="&#x25b2;" horiz-adv-x="931" 
d="M6 0l429 742l428 -742h-857z" />
    <glyph glyph-name="triagrt" unicode="&#x25ba;" horiz-adv-x="931" 
d="M149 800l742 -428l-742 -429v857z" />
    <glyph glyph-name="triagdn" unicode="&#x25bc;" horiz-adv-x="931" 
d="M969 730l-428 -742l-429 742h857z" />
    <glyph glyph-name="triaglf" unicode="&#x25c4;" horiz-adv-x="931" 
d="M826 -57l-742 429l742 428v-857z" />
    <glyph glyph-name="lozenge" unicode="&#x25ca;" horiz-adv-x="877" 
d="M74 378l434 368l328 -394l-434 -368zM406 36l381 321l-283 339l-380 -321z" />
    <glyph glyph-name="whitecircle" unicode="&#x25cb;" horiz-adv-x="961" 
d="M498 -10q-78 0 -146 29.5t-119 80.5t-80.5 119t-29.5 146t29.5 146t80.5 119t119 80.5t146 29.5t146 -29.5t119 -80.5t80.5 -119t29.5 -146t-29.5 -146t-80.5 -119t-119 -80.5t-146 -29.5zM498 26q70 0 131.5 26.5t107 72.5t71.5 108t26 132t-26 132t-71.5 108t-107 73
t-131.5 27q-71 0 -132 -27t-106.5 -73t-71.5 -108t-26 -132t26 -132t71.5 -108t106.5 -72.5t132 -26.5z" />
    <glyph glyph-name="whitecircle" unicode="&#x25ef;" horiz-adv-x="961" 
d="M498 -10q-78 0 -146 29.5t-119 80.5t-80.5 119t-29.5 146t29.5 146t80.5 119t119 80.5t146 29.5t146 -29.5t119 -80.5t80.5 -119t29.5 -146t-29.5 -146t-80.5 -119t-119 -80.5t-146 -29.5zM498 26q70 0 131.5 26.5t107 72.5t71.5 108t26 132t-26 132t-71.5 108t-107 73
t-131.5 27q-71 0 -132 -27t-106.5 -73t-71.5 -108t-26 -132t26 -132t71.5 -108t106.5 -72.5t132 -26.5z" />
    <glyph glyph-name="bullseye" unicode="&#x25ce;" horiz-adv-x="961" 
d="M499 -10q-78 0 -146 29.5t-119 80.5t-80.5 119t-29.5 146t29.5 146t80.5 119t119 80.5t146 29.5t146 -29.5t119 -80.5t80.5 -119t29.5 -146t-29.5 -146t-80.5 -119t-119 -80.5t-146 -29.5zM499 26q70 0 131.5 26.5t107.5 72.5t72 108t26 132t-26 132t-72 108t-107.5 73
t-131.5 27q-71 0 -132 -27t-106.5 -73t-71.5 -108t-26 -132t26 -132t71.5 -108t106.5 -72.5t132 -26.5zM500 160q-42 0 -79.5 16t-65 43.5t-43.5 65t-16 79.5q0 43 16 80t43.5 64.5t65 43.5t79.5 16t79.5 -16t65 -43.5t43.5 -64.5t16 -80q0 -42 -16 -79.5t-43.5 -65
t-65 -43.5t-79.5 -16zM500 196q35 0 65.5 13t53 35.5t35.5 53.5t13 66t-13 66t-35.5 54t-53 36t-65.5 13t-65 -13t-52.5 -36t-35.5 -54t-13 -66t13 -66t35.5 -53.5t52.5 -35.5t65 -13zM473 355q-4 11 1 21.5t16 15.5q11 4 21.5 -1t15.5 -16q4 -11 -1 -21.5t-16 -15.5
q-11 -4 -21.5 1t-15.5 16z" />
    <glyph glyph-name="blackcircle" unicode="&#x25cf;" horiz-adv-x="961" 
d="M498 -10q-78 0 -146 29.5t-119 80.5t-80.5 119t-29.5 146t29.5 146t80.5 119t119 80.5t146 29.5t146 -29.5t119 -80.5t80.5 -119t29.5 -146t-29.5 -146t-80.5 -119t-119 -80.5t-146 -29.5z" />
    <glyph glyph-name="uni25E2" unicode="&#x25e2;" horiz-adv-x="931" 
d="M329 -73l-222 828l828 -222z" />
    <glyph glyph-name="uni25E3" unicode="&#x25e3;" horiz-adv-x="931" 
d="M94 533l828 222l-222 -828z" />
    <glyph glyph-name="uni25E4" unicode="&#x25e4;" horiz-adv-x="931" 
d="M25 168l606 606l222 -828z" />
    <glyph glyph-name="uni25E5" unicode="&#x25e5;" horiz-adv-x="931" 
d="M46 -58l223 828l605 -607z" />
    <glyph glyph-name="uni2605" unicode="&#x2605;" horiz-adv-x="934" 
d="M668 85l-187 135l-186 -135l72 219l-186 135l229 -1l72 218l71 -218l230 -1l-187 -134z" />
    <glyph glyph-name="ballotboxwithx" unicode="&#x2612;" horiz-adv-x="734" 
d="M116 500h500v-500h-500v500zM153 35h425v430h-425v-430zM222 126l120 122l-122 123l22 22l122 -122l121 123l22 -22l-121 -123l122 -121l-22 -23l-122 121l-120 -123z" />
    <glyph glyph-name="uni263C" unicode="&#x263c;" horiz-adv-x="962" 
d="M322 365q0 36 14 67.5t37.5 55t55 37.5t67.5 14t67.5 -14t55 -37.5t37.5 -55t14 -67.5t-14 -67.5t-37.5 -55t-55 -37.5t-67.5 -14t-67.5 14t-55 37.5t-37.5 55t-14 67.5zM469 719h54l-17 -142h-20zM523 13h-54l17 142h20zM143 339v54l142 -17v-20zM849 393v-54l-142 17
v20zM175 519l28 47l115 -87l-10 -15zM817 213l-28 -47l-115 87l10 15zM296 659l47 28l55 -133l-15 -10zM696 73l-47 -28l-55 133l15 10zM649 687l47 -28l-87 -115l-15 10zM343 45l-47 28l87 115l15 -10zM787 566l30 -46l-133 -56l-10 16zM205 166l-30 46l133 56l10 -16z" />
    <glyph glyph-name="uni263E" unicode="&#x263e;" horiz-adv-x="821" 
d="M569 616q-50 0 -93.5 -20t-75.5 -54t-51 -79.5t-19 -97.5t19 -97.5t51 -79.5t75.5 -54t93.5 -20q18 0 36 3.5t35 8.5q-38 -27 -83.5 -42t-94.5 -15q-61 0 -115 23.5t-94 63.5t-63.5 94t-23.5 115t23.5 115t63.5 94t94 63.5t115 23.5q49 0 94.5 -15t83.5 -42
q-17 5 -35 8.5t-36 3.5z" />
    <glyph glyph-name="spade" unicode="&#x2660;" horiz-adv-x="954" 
d="M356 0q10 19 26 49.5t31 69t26 82.5t11 89q-9 -26 -24 -50.5t-36 -43.5t-48.5 -30.5t-61.5 -11.5q-35 0 -66 12.5t-54.5 34t-37 50.5t-13.5 61q0 43 13.5 80.5t42 75t73 77.5t106.5 90l140 112h1l140 -112q62 -50 105.5 -90t70.5 -77.5t39.5 -75t12.5 -80.5
q0 -32 -12.5 -60.5t-34 -50t-50 -34t-60.5 -12.5q-37 0 -66 11t-51.5 30t-38.5 43.5t-25 50.5q0 -45 12 -89t28 -82.5t33 -69t27 -49.5h-259z" />
    <glyph glyph-name="club" unicode="&#x2663;" horiz-adv-x="954" 
d="M354 0q9 17 22.5 43t27.5 58t25 69.5t16 77.5q-21 -52 -65 -85t-102 -33q-37 0 -69 14t-56 38t-38 56t-14 69t14 69t38 56t56 38t69 14q11 0 21.5 -2t20.5 -5q-19 41 -19 87q0 36 13.5 68t37.5 56t56 38t68 14t68 -14t56 -38t38 -56t14 -68q0 -45 -19 -88q22 8 46 8
q37 0 69 -14t56 -38t37.5 -56t13.5 -69t-14 -69t-38 -56t-56 -38t-69 -14q-58 0 -100.5 33t-62.5 84q5 -39 17.5 -76.5t27.5 -69.5t29.5 -58t23.5 -43h-259z" />
    <glyph glyph-name="heart" unicode="&#x2665;" horiz-adv-x="954" 
d="M149 550q0 39 14 73.5t39 60.5t58 41t72 15q38 0 70.5 -12.5t56.5 -34t39 -51t19 -63.5q4 34 19 63.5t39 51t56 34t71 12.5t73 -15t60 -41t41 -60.5t15 -73.5q0 -43 -13 -86.5t-41 -92.5t-72 -105.5t-106 -125.5l-142 -157l-141 157q-62 69 -105.5 125.5t-70.5 105.5
t-39 92.5t-12 86.5z" />
    <glyph glyph-name="diamond" unicode="&#x2666;" horiz-adv-x="954" 
d="M502 791l327 -401l-327 -400l-327 400z" />
    <glyph glyph-name="uni267B" unicode="&#x267b;" horiz-adv-x="955" 
d="M857 244l-91 -157q-7 -11 -14 -20.5t-16 -16.5t-21.5 -11t-30.5 -4h-54v-47l-106 128l106 127v-46h136q21 0 37.5 7.5t28.5 16.5q13 11 24 25zM217 111l-90 158q-6 11 -11 21.5t-6.5 22t1.5 24t12 28.5l27 46l-40 23l164 29l55 -156l-38 23q-18 -31 -33 -57
q-13 -22 -23.5 -40.5t-11.5 -20.5q-11 -18 -13 -36.5t0 -32.5q2 -17 9 -32h-2zM424 729h182q13 0 25 -1t22.5 -5.5t20 -13t18.5 -24.5l26 -46l41 23l-58 -157l-162 30l38 22l-67 118q-11 18 -25.5 29t-28.5 16q-16 6 -32 8v1zM295 670q4 6 12.5 14.5t19.5 14.5
q21 12 45 13.5t46 -4.5t39.5 -17.5t24.5 -24.5l-109 -189l-141 81zM337 35q-8 0 -19.5 2.5t-22.5 9.5q-21 12 -34.5 32t-19.5 42t-4.5 42.5t9.5 33.5h218v-162h-127zM867 381q9 -14 9 -41q0 -24 -10.5 -45.5t-27 -37.5t-34.5 -25.5t-33 -9.5l-109 189l140 80z" />
    <glyph glyph-name="uni267C" unicode="&#x267c;" horiz-adv-x="955" 
d="M871 366q0 -78 -29.5 -146.5t-80.5 -119t-119 -80t-146 -29.5t-147 29.5t-120 80t-80.5 119t-29.5 146.5t29.5 146.5t80.5 120t120 81t147 29.5t146 -29.5t119 -81t80.5 -120t29.5 -146.5zM289 520l109 -63l84 146q-6 10 -19 19t-30.5 13.5t-36 3.5t-34.5 -10
q-8 -5 -15 -11.5t-9 -11.5zM433 651q14 -2 26 -7q11 -5 22 -12.5t19 -21.5l53 -91l-30 -18l126 -23l44 122l-31 -18l-21 36q-14 24 -30 29t-37 5h-141v-1zM465 114v126h-170q-6 -11 -7 -26.5t4 -32.5t15 -32.5t27 -25.5q8 -5 17 -7t15 -2h99zM278 173q-4 12 -6 25
q-2 11 -0.5 25.5t9.5 28.5l53 91l30 -18l-43 121l-127 -22l31 -18l-21 -36q-15 -25 -10.5 -41t13.5 -34l70 -122h1zM731 468l-110 -63l85 -147q12 0 26 7.5t27 20t21 29.5t8 36q0 10 -2.5 18.5t-5.5 13.5zM772 277q-8 -11 -19 -19q-9 -7 -21.5 -12.5t-29.5 -5.5h-105v35
l-83 -98l83 -99v36h41q29 0 41.5 11.5t22.5 28.5l71 122z" />
    <glyph glyph-name="uni267D" unicode="&#x267d;" horiz-adv-x="955" 
d="M870 366q0 -78 -29.5 -146.5t-80.5 -119t-119 -80t-146 -29.5t-147 29.5t-120 80t-80.5 119t-29.5 146.5t29.5 146.5t80.5 120t120 81t147 29.5t146 -29.5t119 -81t80.5 -120t29.5 -146.5zM851 366q0 74 -28 139.5t-76 114t-113 76.5t-139 28q-75 0 -140 -28t-114 -76.5
t-77 -114t-28 -139.5t28 -139t77 -113.5t114 -76.5t140 -28q74 0 139 28t113 76.5t76 113.5t28 139zM337 606q2 5 9 11.5t15 11.5q16 9 34.5 10t36 -3.5t30.5 -13.5t19 -19l-84 -146l-109 63zM432 652h141q21 0 37 -5t30 -29l21 -36l31 18l-44 -122l-126 23l30 18l-53 91
q-8 14 -19 21.5t-22 12.5q-12 5 -26 7v1zM365 114q-6 0 -15 2t-17 7q-17 10 -27 25.5t-15 32.5t-4 32.5t7 26.5h170v-126h-99zM276 173l-70 122q-9 18 -13.5 34t10.5 41l21 36l-31 18l127 22l43 -121l-30 18l-53 -91q-8 -14 -9.5 -28.5t0.5 -25.5q2 -13 6 -25h-1zM779 383
q3 -5 5.5 -13.5t2.5 -18.5q0 -19 -8 -36t-21 -29.5t-27 -20t-26 -7.5l-85 147l110 63zM772 276l-71 -122q-10 -17 -22.5 -28.5t-41.5 -11.5h-41v-36l-83 99l83 98v-35h105q17 0 29.5 5.5t21.5 12.5q11 8 19 19z" />
    <glyph glyph-name="mediumwhitecircle" unicode="&#x26aa;" horiz-adv-x="732" 
d="M365 -10q-54 0 -101.5 20t-82.5 55.5t-55.5 83t-20.5 101.5t20.5 101.5t55.5 83t82.5 55.5t101.5 20t101.5 -20t82.5 -55.5t55.5 -83t20.5 -101.5t-20.5 -101.5t-55.5 -83t-82.5 -55.5t-101.5 -20zM365 24q46 0 86.5 17.5t70.5 48.5t47.5 72t17.5 88t-17.5 88t-47.5 72
t-70.5 48.5t-86.5 17.5q-47 0 -87.5 -17.5t-70.5 -48.5t-47.5 -72t-17.5 -88t17.5 -88t47.5 -72t70.5 -48.5t87.5 -17.5z" />
    <glyph glyph-name="mediumblackcircle" unicode="&#x26ab;" horiz-adv-x="732" 
d="M365 -10q-54 0 -101 20.5t-82.5 55.5t-55.5 82.5t-20 101.5t20 101.5t55.5 82.5t82.5 55.5t101 20.5t101 -20.5t82.5 -55.5t55.5 -82.5t20 -101.5t-20 -101.5t-55.5 -82.5t-82.5 -55.5t-101 -20.5z" />
    <glyph glyph-name="anglebracketleft" unicode="&#x3008;" horiz-adv-x="425" 
d="M76 254l308 476h42l-311 -483l137 -477h-37z" />
    <glyph glyph-name="anglebracketright" unicode="&#x3009;" horiz-adv-x="425" 
d="M298 251l-136 479h36l140 -483l-308 -477h-42z" />
    <glyph glyph-name="cordinal" unicode="&#xe181;" horiz-adv-x="432" 
d="M262 411q-38 0 -68 14.5t-50 39t-28.5 57t-1.5 69.5q5 32 20.5 59t38 46t51 29.5t60.5 10.5q53 0 89 -27t52 -69l-30 -12q-11 34 -40 57t-74 23q-51 0 -89.5 -34t-48.5 -87q-5 -29 1.5 -55.5t22.5 -47t40.5 -32.5t55.5 -12q39 0 71.5 21t51.5 56l27 -14q-21 -42 -61 -67
t-90 -25z" />
    <glyph glyph-name="fi" unicode="&#xe38c;" horiz-adv-x="562" 
d="M64 540h104l11 63q10 56 24 92t37.5 56.5t57.5 28.5t85 8h24l-7 -34h-20q-41 0 -69 -5.5t-46.5 -22t-29.5 -46t-20 -78.5l-11 -62h158l-5 -31h-159l-88 -509h-37l89 509h-104zM391 0l96 540h37l-96 -540h-37zM532 670q-19 0 -29 13.5t-6 30.5q2 15 14 24t26 9
q20 0 29 -13.5t6 -30.5q-3 -14 -13.5 -23.5t-26.5 -9.5z" />
    <glyph glyph-name="fi" unicode="&#xfb01;" horiz-adv-x="562" 
d="M64 540h104l11 63q10 56 24 92t37.5 56.5t57.5 28.5t85 8h24l-7 -34h-20q-41 0 -69 -5.5t-46.5 -22t-29.5 -46t-20 -78.5l-11 -62h158l-5 -31h-159l-88 -509h-37l89 509h-104zM391 0l96 540h37l-96 -540h-37zM532 670q-19 0 -29 13.5t-6 30.5q2 15 14 24t26 9
q20 0 29 -13.5t6 -30.5q-3 -14 -13.5 -23.5t-26.5 -9.5z" />
    <glyph glyph-name="fl" unicode="&#xe38d;" horiz-adv-x="561" 
d="M64 540h104l11 63q10 56 24 92t37.5 56.5t57.5 28.5t85 8h24l-7 -34h-20q-41 0 -69 -5.5t-46.5 -22t-29.5 -46t-20 -78.5l-11 -62h158l-5 -31h-159l-88 -509h-37l89 509h-104zM530 788h37l-138 -788h-37z" />
    <glyph glyph-name="fl" unicode="&#xfb02;" horiz-adv-x="561" 
d="M64 540h104l11 63q10 56 24 92t37.5 56.5t57.5 28.5t85 8h24l-7 -34h-20q-41 0 -69 -5.5t-46.5 -22t-29.5 -46t-20 -78.5l-11 -62h158l-5 -31h-159l-88 -509h-37l89 509h-104zM530 788h37l-138 -788h-37z" />
    <glyph glyph-name="invertedbreve" unicode="&#xe411;" horiz-adv-x="526" 
d="M170 618q5 28 19.5 55.5t37.5 48.5t55 34t73 13q38 0 66 -13t46 -34t24.5 -48.5t1.5 -55.5h-33q4 23 -1 44.5t-19 38.5t-37 27.5t-53 10.5q-32 0 -57.5 -10.5t-43.5 -27.5t-29.5 -38.5t-15.5 -44.5h-34v0z" />
    <glyph glyph-name="doublegrave" unicode="&#xe412;" horiz-adv-x="526" 
d="M331 764h43l74 -148h-31zM215 764h46l85 -148h-32z" />
    <glyph glyph-name="caronSlovak" unicode="&#xe413;" horiz-adv-x="526" 
d="M261 631q34 17 57.5 46.5t28.5 58.5q3 14 -2 25v-1q-4 -27 -32 -27q-14 0 -22.5 10.5t-5.5 26.5t15.5 26t29.5 10q25 0 37 -19t7 -51q-7 -39 -34.5 -71t-67.5 -55z" />
    <glyph glyph-name="commaaccent" unicode="&#xe414;" horiz-adv-x="527" 
d="M121 -249q34 17 57.5 47t28.5 59q3 15 -2 25v-1q-2 -15 -10.5 -21t-21.5 -6q-14 0 -22.5 10t-5.5 27q3 16 15.5 25.5t29.5 9.5q25 0 37 -18.5t7 -50.5q-7 -39 -34.5 -71.5t-67.5 -54.5z" />
    <glyph glyph-name="commaaccent" unicode="&#xf6c3;" horiz-adv-x="527" 
d="M121 -249q34 17 57.5 47t28.5 59q3 15 -2 25v-1q-2 -15 -10.5 -21t-21.5 -6q-14 0 -22.5 10t-5.5 27q3 16 15.5 25.5t29.5 9.5q25 0 37 -18.5t7 -50.5q-7 -39 -34.5 -71.5t-67.5 -54.5z" />
    <glyph glyph-name="dotbelow" unicode="&#xe415;" horiz-adv-x="527" 
d="M192 -151q-18 0 -27.5 12.5t-6.5 29.5q2 14 13.5 23t25.5 9q20 0 28.5 -13t5.5 -29q-2 -14 -13 -23t-26 -9z" />
    <glyph glyph-name="altcedilla" unicode="&#xe416;" horiz-adv-x="526" 
d="M184 -221q-45 0 -77 15t-55 38l32 19q18 -20 42 -31.5t61 -11.5q38 0 65 14.5t32 40.5q5 27 -18 42.5t-71 15.5h-19l5 23h18q63 0 94 -23.5t25 -60.5q-7 -38 -43.5 -59.5t-90.5 -21.5z" />
    <glyph glyph-name="exclamdown.cap" unicode="&#xe441;" horiz-adv-x="263" 
d="M189 557q-4 -29 -12 -82t-18 -116t-20.5 -127.5t-19.5 -114.5l-20 -117h-38l20 117q9 50 21 114.5t24 127.5t22.5 116t16.5 82h24zM199 661q-19 0 -28.5 13.5t-5.5 30.5q2 14 13.5 23.5t26.5 9.5q19 0 28.5 -13t6.5 -30q-3 -15 -14 -24.5t-27 -9.5z" />
    <glyph glyph-name="questiondown.cap" unicode="&#xe444;" horiz-adv-x="529" 
d="M250 -10q-44 0 -82 13.5t-65 38.5t-39 60t-4 79q7 40 27 65.5t46.5 45.5t56.5 38t57.5 43.5t49.5 62.5t32 95l6 32h35l-6 -32q-11 -62 -33 -102.5t-49.5 -68t-57.5 -46.5t-56 -38t-45.5 -42t-25.5 -58q-6 -36 4 -64.5t31.5 -48t53 -30t68.5 -10.5q43 0 81 15.5t65 41.5
l25 -25q-31 -29 -77.5 -47t-97.5 -18zM372 661q-20 0 -29 13.5t-5 30.5q2 14 13.5 23.5t25.5 9.5q20 0 29.5 -13t6.5 -30q-3 -15 -14 -24.5t-27 -9.5z" />
    <glyph glyph-name="guilsinglleft.cap" unicode="&#xe451;" horiz-adv-x="305" 
d="M87 347l5 27l166 119l-6 -36l-138 -99l103 -98l-6 -32z" />
    <glyph glyph-name="guilsinglright.cap" unicode="&#xe452;" horiz-adv-x="305" 
d="M244 373l-5 -27l-166 -119l6 36l137 98l-103 99l7 32z" />
    <glyph glyph-name="guillemotleft.cap" unicode="&#xe453;" horiz-adv-x="455" 
d="M87 347l5 27l166 119l-6 -36l-138 -99l103 -98l-6 -32zM238 347l5 27l166 119l-7 -36l-137 -99l103 -98l-6 -32z" />
    <glyph glyph-name="guillemotright.cap" unicode="&#xe454;" horiz-adv-x="455" 
d="M244 373l-5 -27l-166 -119l6 36l137 98l-103 99l7 32zM394 373l-5 -27l-166 -119l7 36l137 98l-103 99l6 32z" />
    <glyph glyph-name="slash.cap" unicode="&#xe461;" horiz-adv-x="462" 
d="M458 730h42l-473 -730h-43z" />
    <glyph glyph-name="backslash.cap" unicode="&#xe462;" horiz-adv-x="462" 
d="M114 730h38l220 -730h-40z" />
    <glyph glyph-name="bar.cap" unicode="&#xe463;" horiz-adv-x="213" 
d="M190 840h38l-169 -960h-38z" />
    <glyph glyph-name="doublebar.cap" unicode="&#xe464;" horiz-adv-x="362" 
d="M190 840h38l-169 -960h-38zM339 840h38l-169 -960h-38z" />
    <glyph glyph-name="brokenbar.cap" unicode="&#xe465;" horiz-adv-x="213" 
d="M190 840h38l-74 -420h-38zM95 300h38l-74 -420h-38z" />
    <glyph glyph-name="bullet.cap" unicode="&#xe466;" horiz-adv-x="294" 
d="M165 317q-19 0 -32.5 13.5t-13.5 32.5q0 20 13.5 33.5t32.5 13.5t32.5 -13.5t13.5 -33.5q0 -19 -13.5 -32.5t-32.5 -13.5z" />
    <glyph glyph-name="slash.smcp" unicode="&#xe467;" horiz-adv-x="420" 
d="M385 596h40l-387 -596h-40z" />
    <glyph glyph-name="backslash.smcp" unicode="&#xe468;" horiz-adv-x="420" 
d="M103 596h38l179 -596h-39z" />
    <glyph glyph-name="bar.smcp" unicode="&#xe469;" horiz-adv-x="213" 
d="M163 686h37l-138 -784h-37z" />
    <glyph glyph-name="doublebar.smcp" unicode="&#xe46a;" horiz-adv-x="361" 
d="M163 686h37l-138 -784h-37zM312 686h37l-138 -784h-37z" />
    <glyph glyph-name="onethirdemdash" unicode="&#xe471;" horiz-adv-x="452" 
d="M67 272h320l-6 -32h-320z" />
    <glyph glyph-name="threequarteremdash" unicode="&#xe472;" horiz-adv-x="648" 
d="M67 272h517l-6 -32h-517z" />
    <glyph glyph-name="periodcentered.cap" unicode="&#xe481;" horiz-adv-x="197" 
d="M110 327q-18 0 -28 12.5t-6 29.5q2 14 13.5 23.5t25.5 9.5q19 0 28 -13t6 -30q-3 -14 -13.5 -23t-25.5 -9z" />
    <glyph glyph-name="hyphen.cap" unicode="&#xe482;" horiz-adv-x="496" 
d="M80 382h370l-6 -32h-370z" />
    <glyph glyph-name="onethirdemdash.cap" unicode="&#xe483;" horiz-adv-x="452" 
d="M80 382h320l-6 -32h-320z" />
    <glyph glyph-name="endash.cap" unicode="&#xe484;" horiz-adv-x="542" 
d="M80 382h416l-6 -32h-416z" />
    <glyph glyph-name="threequarteremdash.cap" unicode="&#xe485;" horiz-adv-x="648" 
d="M80 382h516l-6 -32h-516z" />
    <glyph glyph-name="emdash.cap" unicode="&#xe486;" horiz-adv-x="748" 
d="M80 382h616l-6 -32h-616z" />
    <glyph glyph-name="figuredash.cap" unicode="&#xe487;" horiz-adv-x="698" 
d="M80 382h566l-6 -32h-566z" />
    <glyph glyph-name="uni2015.cap" unicode="&#xe488;" horiz-adv-x="1048" 
d="M80 382h916l-6 -32h-916z" />
    <glyph glyph-name="parenleft.cap" unicode="&#xe491;" horiz-adv-x="436" 
d="M289 -134q-49 35 -90 89t-68 123t-36 149.5t6 169.5q16 89 53 163.5t86 133t105.5 100t111.5 64.5l17 -30q-55 -24 -109 -64t-99.5 -95t-79 -124.5t-48.5 -152.5q-14 -83 -6.5 -158.5t32 -139t63.5 -115t88 -86.5z" />
    <glyph glyph-name="parenright.cap" unicode="&#xe492;" horiz-adv-x="436" 
d="M171 854q49 -35 90 -89t68 -122t36.5 -149t-6.5 -169q-16 -89 -52.5 -164t-85 -134.5t-104.5 -101.5t-110 -65l-18 30q55 24 108.5 64.5t98.5 96.5t78.5 126t48.5 153q14 83 6 158t-32.5 138.5t-63.5 114.5t-88 86z" />
    <glyph glyph-name="bracketleft.cap" unicode="&#xe493;" horiz-adv-x="440" 
d="M189 840h273l-5 -34h-236l-157 -892h236l-7 -34h-272z" />
    <glyph glyph-name="bracketright.cap" unicode="&#xe494;" horiz-adv-x="440" 
d="M19 -87h234l158 893h-235l6 34h273l-169 -960h-272z" />
    <glyph glyph-name="braceleft.cap" unicode="&#xe495;" horiz-adv-x="446" 
d="M307 -120q-63 0 -103 11t-61.5 36.5t-25 67t7.5 102.5l24 137q5 29 6 50t-6.5 34t-25 19t-48.5 6l6 37q30 0 49.5 5t32 17.5t20 33.5t12.5 52l23 135q11 61 28.5 102.5t47.5 67t74 36.5t108 11h11l-5 -33q-59 0 -98.5 -9t-65 -30t-40 -56.5t-23.5 -89.5l-24 -135
q-9 -56 -28 -86t-59 -41q36 -13 44 -43.5t0 -81.5l-26 -137q-9 -54 -7 -89.5t20 -56.5t54 -30t95 -9l-6 -33h-11z" />
    <glyph glyph-name="braceright.cap" unicode="&#xe496;" horiz-adv-x="463" 
d="M17 -87q58 0 97.5 9t65 30t40 56.5t23.5 89.5l24 135q9 55 27.5 85.5t58.5 41.5q-36 12 -44 43t1 82l26 137q9 54 7 89.5t-20 56.5t-54 30t-95 9l6 33h11q63 0 103 -11t61.5 -36.5t25 -67t-7.5 -102.5l-24 -137q-5 -29 -6 -50t6.5 -34t24.5 -19t49 -6l-6 -37
q-30 0 -49.5 -5t-32 -17.5t-20 -33.5t-12.5 -52l-23 -135q-11 -61 -28.5 -102.5t-47.5 -67t-74 -36.5t-108 -11h-11z" />
    <glyph glyph-name="anglebracketleft.cap" unicode="&#xe497;" horiz-adv-x="425" 
d="M91 338l308 476h42l-310 -483l137 -477h-37z" />
    <glyph glyph-name="anglebracketright.cap" unicode="&#xe498;" horiz-adv-x="425" 
d="M313 336l-137 478h37l140 -483l-308 -477h-42z" />
    <glyph glyph-name="a.alt" unicode="&#xe4c0;" horiz-adv-x="619" 
d="M206 -8q-51 0 -87 14t-57.5 37.5t-29 53t-1.5 61.5q14 80 85.5 115.5t196.5 35.5h198l6 30q16 87 -33 133.5t-149 46.5q-67 0 -121 -22t-96 -72l-29 24q97 102 246 102q58 0 102.5 -15.5t72.5 -43.5t39 -68t2 -89l-59 -335h-35l21 122q-47 -62 -119 -96t-153 -34zM212 24
q38 0 76.5 9t74.5 27.5t68 46t56 65.5l19 106h-198q-109 0 -168.5 -28t-70.5 -94q-4 -26 2 -49.5t23 -42t46.5 -29.5t71.5 -11z" />
    <glyph glyph-name="lowline" unicode="&#xe511;" horiz-adv-x="496" 
d="M19 32h369l-6 -32h-371z" />
    <glyph glyph-name="underscoremonospace" unicode="&#xe512;" horiz-adv-x="687" 
d="M10 -46h570l-7 -32h-570z" />
    <glyph glyph-name="underscoremonospace" unicode="&#xff3f;" horiz-adv-x="687" 
d="M10 -46h570l-7 -32h-570z" />
    <glyph glyph-name="at.cap" unicode="&#xe513;" horiz-adv-x="884" 
d="M438 -10q-89 0 -158.5 33.5t-113.5 90.5t-61 133t-2 162q13 73 49.5 133.5t90.5 104.5t121 68.5t142 24.5q85 0 151 -30.5t109.5 -80.5t61 -115.5t4.5 -134.5q-6 -35 -19 -68.5t-34 -60.5t-49.5 -43.5t-64.5 -16.5q-48 0 -72.5 25.5t-28.5 63.5q-10 -17 -24.5 -33
t-33.5 -28.5t-42.5 -20t-50.5 -7.5q-34 0 -60 13.5t-42.5 36.5t-23 53.5t-0.5 65.5q6 36 24 70.5t45 61t62 43t76 16.5q25 0 43.5 -7.5t32 -19.5t22 -28t11.5 -32q7 24 11.5 40t6.5 25l4 16h33l-49 -181q-11 -39 -10.5 -65.5t9 -43t24.5 -23.5t37 -7q26 0 48 14t38.5 37
t27.5 51.5t16 58.5q11 61 -3.5 119.5t-52.5 103.5t-98 72.5t-140 27.5q-67 0 -128.5 -23t-110.5 -63.5t-82.5 -96t-45.5 -121.5q-13 -73 0.5 -141.5t52 -122t101.5 -85.5t148 -32q63 0 120 22t103 62l25 -24q-51 -45 -115 -69t-135 -24zM419 224q32 0 58 12t45.5 32.5t33 47
t21.5 55.5t7 55.5t-11 47t-29.5 32.5t-48.5 12q-33 0 -62 -14t-52 -36.5t-38.5 -52.5t-20.5 -61q-9 -56 17.5 -93t79.5 -37z" />
    <glyph glyph-name="zero.LT" unicode="&#xe53f;" 
d="M289 -10q-60 0 -105.5 19t-72.5 61t-34.5 108t9.5 161l14 78q16 90 44 152t65.5 100t83.5 54.5t97 16.5q53 0 97 -17.5t72 -58t37 -106t-8 -160.5l-14 -81q-16 -91 -43 -153.5t-63 -101t-81 -55.5t-98 -17zM293 25q43 0 81.5 14.5t69.5 49t55 91t39 140.5l14 82
q16 88 9 146.5t-31 93.5t-61.5 49.5t-82.5 14.5q-42 0 -81 -15t-71.5 -49.5t-57.5 -91t-40 -140.5l-13 -72q-15 -89 -9.5 -148.5t29 -96.5t62 -52.5t88.5 -15.5z" />
    <glyph glyph-name="one.LT" unicode="&#xe541;" 
d="M34 35h227l107 608q-8 -15 -23 -29.5t-34 -25.5t-41 -18t-44 -7h-11l7 37h5q36 0 64 12.5t47.5 31.5t31 42t15.5 44h36l-122 -695h227l-6 -35h-491z" />
    <glyph glyph-name="two.LT" unicode="&#xe542;" 
d="M32 40q8 46 35 85t64.5 72.5t83 63t91.5 56.5q44 26 87 51.5t78 52.5t59.5 56.5t30.5 65.5q6 35 -3 65t-32 52t-58 34.5t-80 12.5q-76 0 -133.5 -34t-88.5 -84l-33 15q38 60 103 98t153 38q53 0 95 -15.5t70 -43t39.5 -64t4.5 -78.5q-7 -41 -33 -75t-63.5 -63.5
t-83 -56.5t-90.5 -54q-44 -26 -87 -53t-78 -57t-60 -64.5t-32 -74.5l-1 -5h452l-6 -36h-491z" />
    <glyph glyph-name="three.LT" unicode="&#xe543;" 
d="M285 -10q-94 0 -159.5 31.5t-105.5 84.5l32 22q35 -51 92 -77t143 -26q94 0 154 40t74 114q7 41 -3.5 75t-36 58t-64 37.5t-87.5 13.5h-89l6 34h84q47 0 87.5 10t71.5 28.5t51 45.5t26 61q7 37 -3 67.5t-34.5 52t-62.5 33t-86 11.5q-79 0 -133.5 -27.5t-86.5 -65.5
l-28 22q40 42 101 73.5t148 31.5q58 0 103 -15t73.5 -42t40 -64t4.5 -81q-11 -61 -57.5 -101.5t-121.5 -57.5q75 -22 111 -76t22 -129q-16 -88 -87 -136t-179 -48z" />
    <glyph glyph-name="four.LT" unicode="&#xe544;" 
d="M421 188h-380l3 35l471 507h37l-89 -508h124l-6 -34h-124l-33 -188h-36zM427 222l80 452l-420 -452h340z" />
    <glyph glyph-name="five.LT" unicode="&#xe545;" 
d="M264 -10q-81 0 -139 35.5t-86 87.5l34 17q26 -47 74 -76t117 -29q48 0 89.5 14.5t74.5 41t54.5 64t29.5 82.5t0.5 86.5t-30.5 72.5t-61.5 49.5t-92.5 18.5q-60 0 -106.5 -19.5t-82.5 -57.5l-33 15l106 338h376l-5 -34h-347l-83 -271q35 29 80 46t102 17q60 0 104 -22
t71.5 -58.5t37.5 -84.5t0 -101q-9 -50 -33.5 -92.5t-61.5 -73.5t-85 -48.5t-104 -17.5z" />
    <glyph glyph-name="six.LT" unicode="&#xe546;" 
d="M310 -10q-30 0 -58.5 6.5t-54 19t-46.5 31t-34 41.5q-32 50 -38.5 111t9.5 147q33 192 137 293t261 101q45 0 78.5 -9.5t62.5 -26.5l-22 -30q-49 32 -119 32q-143 0 -236.5 -91t-125.5 -272l-3 -16q26 61 83.5 99t132.5 38q58 0 103 -22.5t74 -60t40 -86t2 -99.5
q-9 -45 -30.5 -82.5t-53.5 -65t-73 -43t-89 -15.5zM312 25q39 0 74 12.5t62.5 36t46 56t25.5 71.5q7 44 -2.5 85t-33.5 73t-62.5 51.5t-88.5 19.5q-40 0 -76 -13t-64.5 -36t-48 -55t-25.5 -70q-7 -41 1.5 -82t32.5 -74t64 -54t95 -21z" />
    <glyph glyph-name="seven.LT" unicode="&#xe547;" 
d="M593 696h-443l7 34h483l-6 -32l-461 -698h-44z" />
    <glyph glyph-name="eight.LT" unicode="&#xe548;" 
d="M290 -10q-60 0 -106.5 18t-76.5 48.5t-42.5 71.5t-4.5 86q12 71 63 117t127 65q-26 10 -47 26.5t-34.5 39t-19 51t0.5 61.5q13 72 71.5 119t158.5 47q54 0 94.5 -16t66 -43t35 -62.5t2.5 -74.5q-5 -30 -19.5 -55.5t-35.5 -45.5t-47.5 -34t-54.5 -21q34 -12 61.5 -32.5
t45.5 -47.5t25 -59.5t1 -69.5q-8 -41 -27 -75.5t-51.5 -60t-78.5 -39.5t-107 -14zM293 25q102 0 157.5 44t67.5 114q6 40 -5 75t-36.5 61t-63.5 41t-86 15q-51 0 -91.5 -12.5t-69.5 -35t-46.5 -53t-23.5 -65.5q-6 -36 4 -69.5t35 -59t64.5 -40.5t93.5 -15zM343 406
q83 0 135.5 38.5t63.5 101.5q6 33 -1 62.5t-27.5 51t-55 34.5t-82.5 13q-86 0 -133.5 -39.5t-58.5 -98.5q-6 -35 3 -65t31 -51.5t54 -34t71 -12.5z" />
    <glyph glyph-name="nine.LT" unicode="&#xe549;" horiz-adv-x="630" 
d="M211 -10q-51 0 -93 13.5t-77 38.5l27 30q28 -23 64.5 -35t78.5 -12q70 0 124 22t93 67t65.5 113t41.5 160l3 17q-12 -31 -33.5 -56.5t-49 -44t-61.5 -28.5t-71 -10q-59 0 -104 22.5t-74 60t-40.5 86t-2.5 100.5q9 45 31 83t54.5 65.5t73.5 42.5t88 15q63 0 113.5 -25.5
t78.5 -72.5q60 -94 30 -260q-33 -197 -119.5 -294.5t-240.5 -97.5zM326 301q40 0 76 13t64.5 36t48 54.5t25.5 69.5q7 42 -1.5 83.5t-32.5 74.5t-63.5 53.5t-94.5 20.5q-39 0 -74.5 -13t-63 -36.5t-46.5 -56t-26 -71.5q-7 -44 2.5 -85t34.5 -72.5t63 -51t88 -19.5z" />
    <glyph glyph-name="zero.inf" unicode="&#xe571;" horiz-adv-x="442" 
d="M145 -217q-35 0 -63.5 12t-46.5 37.5t-24 66.5t4 99l4 23q9 53 27.5 90t42.5 60.5t52.5 34.5t59.5 11q32 0 60.5 -11.5t47.5 -36.5t26 -64.5t-4 -95.5l-5 -28q-10 -56 -27.5 -93.5t-41 -61t-52 -33.5t-60.5 -10zM147 -184q25 0 47.5 8t41.5 26.5t33 50.5t23 80l6 32
q9 46 5 79t-17.5 53.5t-36 30t-49.5 9.5q-26 0 -49 -8.5t-42 -28.5t-33.5 -52t-23.5 -79l-4 -23q-9 -51 -5 -85t18 -55t36.5 -29.5t49.5 -8.5z" />
    <glyph glyph-name="one.inf" unicode="&#xe572;" horiz-adv-x="226" 
d="M30 -211l64 354q-12 -23 -35.5 -38.5t-61.5 -15.5h-6l7 35h3q25 0 43.5 7.5t31.5 20t20 28t10 31.5h34l-75 -422h-35z" />
    <glyph glyph-name="two.inf" unicode="&#xe573;" horiz-adv-x="392" 
d="M-14 -176q5 27 18.5 49t33 41t45 36t54.5 34q22 13 44 25.5t40 26.5t31 30.5t17 36.5q6 35 -18.5 60t-69.5 25q-34 0 -62 -16.5t-44 -42.5l-29 14q20 34 56 54t81 20q30 0 54 -9t40 -25t22.5 -38t2.5 -47q-5 -25 -19 -44.5t-33.5 -36t-43.5 -30.5l-48 -28
q-55 -32 -91.5 -62t-44.5 -74l-1 -2h232l-5 -32h-267z" />
    <glyph glyph-name="three.inf" unicode="&#xe574;" horiz-adv-x="363" 
d="M101 -217q-48 0 -84.5 20t-54.5 49l31 19q14 -26 42.5 -41t67.5 -15q45 0 75.5 21.5t37.5 61.5q7 41 -21.5 68t-76.5 27h-35l5 31h35q48 0 78.5 21.5t36.5 56.5q7 39 -18 62t-71 23q-34 0 -58.5 -12t-40.5 -29l-27 20q19 20 52 35.5t75 15.5q63 0 96.5 -34t24.5 -85
q-6 -33 -28.5 -57t-60.5 -35q36 -14 56 -44t12 -71q-10 -51 -49.5 -79.5t-99.5 -28.5z" />
    <glyph glyph-name="four.inf" unicode="&#xe575;" horiz-adv-x="402" 
d="M197 -113h-215l4 32l268 292h33l-52 -293h71l-5 -31h-71l-17 -98h-33zM203 -82l42 241l-218 -241h176z" />
    <glyph glyph-name="five.inf" unicode="&#xe576;" horiz-adv-x="396" 
d="M121 -217q-51 0 -84 22t-46 59l32 15q11 -29 35.5 -46.5t64.5 -17.5q45 0 81.5 27.5t45.5 73.5q4 23 0 44.5t-16 38t-31.5 26t-44.5 9.5q-38 0 -66.5 -16.5t-48.5 -47.5l-30 12l69 229h227l-5 -32h-199l-48 -156q19 19 45.5 30.5t63.5 11.5q31 0 55.5 -12.5t40.5 -33.5
t22 -48t0 -56q-11 -58 -55 -95t-108 -37z" />
    <glyph glyph-name="six.inf" unicode="&#xe577;" horiz-adv-x="405" 
d="M141 -217q-35 0 -67.5 16t-49.5 43q-19 30 -22.5 68t5.5 92q20 109 79.5 161.5t142.5 52.5q30 0 50 -5t37 -15l-20 -28q-14 8 -29.5 12.5t-38.5 4.5q-73 0 -121.5 -44.5t-66.5 -133.5q19 31 51.5 49t70.5 18q35 0 61.5 -13.5t44 -36.5t24 -53t1.5 -62
q-11 -55 -51.5 -90.5t-100.5 -35.5zM142 -186q44 0 76.5 27.5t40.5 72.5q4 25 -0.5 48t-18 41t-35 29t-49.5 11q-47 0 -80 -27.5t-41 -70.5q-4 -22 0.5 -45t18 -42t35.5 -31.5t53 -12.5z" />
    <glyph glyph-name="seven.inf" unicode="&#xe578;" horiz-adv-x="375" 
d="M274 180h-245l6 31h281l-6 -29l-241 -393h-38z" />
    <glyph glyph-name="eight.inf" unicode="&#xe579;" horiz-adv-x="408" 
d="M126 -217q-36 0 -64 10.5t-45.5 28t-24.5 41t-2 49.5q6 40 36 67t75 38q-31 12 -49 38t-11 64q8 42 46 70t97 28q32 0 57 -9.5t41 -25t22.5 -36.5t2.5 -43q-6 -35 -31 -57.5t-61 -32.5q41 -14 61.5 -44.5t13.5 -72.5q-8 -47 -48.5 -80t-115.5 -33zM130 -184q59 0 90 24.5
t37 59.5q4 21 -2 39.5t-20 31.5t-35 20.5t-47 7.5q-56 0 -89 -26t-39 -62q-3 -19 2 -36t18 -30t34.5 -21t50.5 -8zM162 30q47 0 76.5 21t34.5 51q6 35 -17 59t-75 24q-47 0 -74.5 -20t-33.5 -51q-3 -18 3 -33.5t18 -26.5t29.5 -17.5t38.5 -6.5z" />
    <glyph glyph-name="nine.inf" unicode="&#xe57a;" horiz-adv-x="396" 
d="M104 -217q-35 0 -63.5 10.5t-45.5 27.5l26 27q14 -16 36.5 -24t48.5 -8q72 0 108.5 46.5t52.5 135.5q-17 -30 -48.5 -48.5t-69.5 -18.5q-33 0 -59.5 13t-43.5 35t-24 51.5t-1 62.5q10 54 50 89t99 35q36 0 66 -16t47 -42q20 -30 22.5 -68.5t-7.5 -92.5
q-17 -105 -63.5 -160t-130.5 -55zM154 -37q47 0 78.5 27t39.5 69q4 25 -1 48t-18.5 40.5t-35 28t-49.5 10.5q-42 0 -74.5 -27t-40.5 -71q-4 -25 1 -47.5t18 -40t34 -27.5t48 -10z" />
    <glyph glyph-name="plus.inf" unicode="&#xe57b;" horiz-adv-x="313" 
d="M5 15h92l17 91h29l-16 -91h92l-6 -29h-91l-16 -93h-30l16 93h-92z" />
    <glyph glyph-name="minus.inf" unicode="&#xe57c;" horiz-adv-x="313" 
d="M5 15h214l-6 -29h-213z" />
    <glyph glyph-name="equal.inf" unicode="&#xe57d;" horiz-adv-x="313" 
d="M14 60h213l-5 -29h-214zM-3 -33h214l-6 -29h-214z" />
    <glyph glyph-name="parenleft.inf" unicode="&#xe57e;" horiz-adv-x="317" 
d="M142 -306q-30 21 -56 55t-43 76.5t-23 92.5t4 104t33 100.5t54 83t66 62.5t68 40l17 -28q-33 -14 -65.5 -38t-60 -57t-48.5 -75t-30 -91q-9 -50 -4 -95t20 -83.5t38.5 -69t52.5 -51.5z" />
    <glyph glyph-name="parenright.inf" unicode="&#xe57f;" horiz-adv-x="317" 
d="M85 307q30 -21 56.5 -55t44.5 -77t24.5 -92.5t-3.5 -103.5q-10 -55 -32 -101.5t-51.5 -83t-65 -63t-72.5 -41.5l-17 28q34 14 66.5 38.5t60 58t48 75.5t29.5 92q9 49 3 94t-21.5 83.5t-40 69.5t-52.5 52z" />
    <glyph glyph-name="Anocross" unicode="&#xe731;" horiz-adv-x="745" 
d="M432 730h40l170 -730h-38l-158 687l-399 -687h-41z" />
    <glyph glyph-name="idotaccent" unicode="&#xe785;" horiz-adv-x="208" 
d="M37 0l96 540h37l-96 -540h-37zM178 670q-19 0 -29 13.5t-6 30.5q2 15 14 24t26 9q20 0 29 -13.5t6 -30.5q-3 -14 -13.5 -23.5t-26.5 -9.5z" />
    <glyph glyph-name="ohm" unicode="&#xe821;" horiz-adv-x="863" 
d="M449 32q54 44 101.5 86t84 87t62 95.5t36.5 110.5q10 57 -2 110t-44 94t-83 66t-119 25q-58 0 -110.5 -22t-94.5 -61t-71 -92t-40 -114q-11 -60 -2 -113t30 -100.5t51 -90t62 -81.5l-20 -32h-289l6 36h252q-27 34 -55 75.5t-48 89.5t-28.5 102.5t2.5 116.5
q12 67 43.5 125.5t78.5 102t107 68.5t129 25q75 0 133.5 -28t96 -74.5t52 -107t1.5 -126.5q-11 -61 -36 -112.5t-60.5 -96t-78 -84t-88.5 -76.5h258l-6 -36h-296z" />
    <glyph glyph-name="aacute.alt" unicode="&#xe891;" horiz-adv-x="619" 
d="M206 -8q-51 0 -87 14t-57.5 37.5t-29 53t-1.5 61.5q14 80 85.5 115.5t196.5 35.5h198l6 30q16 87 -33 133.5t-149 46.5q-67 0 -121 -22t-96 -72l-29 24q97 102 246 102q58 0 102.5 -15.5t72.5 -43.5t39 -68t2 -89l-59 -335h-35l21 122q-47 -62 -119 -96t-153 -34zM212 24
q38 0 76.5 9t74.5 27.5t68 46t56 65.5l19 106h-198q-109 0 -168.5 -28t-70.5 -94q-4 -26 2 -49.5t23 -42t46.5 -29.5t71.5 -11zM477 783h50l-161 -148h-37z" />
    <glyph glyph-name="agrave.alt" unicode="&#xe892;" horiz-adv-x="619" 
d="M206 -8q-51 0 -87 14t-57.5 37.5t-29 53t-1.5 61.5q14 80 85.5 115.5t196.5 35.5h198l6 30q16 87 -33 133.5t-149 46.5q-67 0 -121 -22t-96 -72l-29 24q97 102 246 102q58 0 102.5 -15.5t72.5 -43.5t39 -68t2 -89l-59 -335h-35l21 122q-47 -62 -119 -96t-153 -34zM212 24
q38 0 76.5 9t74.5 27.5t68 46t56 65.5l19 106h-198q-109 0 -168.5 -28t-70.5 -94q-4 -26 2 -49.5t23 -42t46.5 -29.5t71.5 -11zM238 770h49l95 -148h-34z" />
    <glyph glyph-name="acircumflex.alt" unicode="&#xe893;" horiz-adv-x="619" 
d="M206 -8q-51 0 -87 14t-57.5 37.5t-29 53t-1.5 61.5q14 80 85.5 115.5t196.5 35.5h198l6 30q16 87 -33 133.5t-149 46.5q-67 0 -121 -22t-96 -72l-29 24q97 102 246 102q58 0 102.5 -15.5t72.5 -43.5t39 -68t2 -89l-59 -335h-35l21 122q-47 -62 -119 -96t-153 -34zM212 24
q38 0 76.5 9t74.5 27.5t68 46t56 65.5l19 106h-198q-109 0 -168.5 -28t-70.5 -94q-4 -26 2 -49.5t23 -42t46.5 -29.5t71.5 -11zM367 770h32l93 -148h-39l-74 117l-115 -117h-42z" />
    <glyph glyph-name="adieresis.alt" unicode="&#xe894;" horiz-adv-x="619" 
d="M206 -8q-51 0 -87 14t-57.5 37.5t-29 53t-1.5 61.5q14 80 85.5 115.5t196.5 35.5h198l6 30q16 87 -33 133.5t-149 46.5q-67 0 -121 -22t-96 -72l-29 24q97 102 246 102q58 0 102.5 -15.5t72.5 -43.5t39 -68t2 -89l-59 -335h-35l21 122q-47 -62 -119 -96t-153 -34zM212 24
q38 0 76.5 9t74.5 27.5t68 46t56 65.5l19 106h-198q-109 0 -168.5 -28t-70.5 -94q-4 -26 2 -49.5t23 -42t46.5 -29.5t71.5 -11zM289 639q-17 0 -26 11t-7 28q3 14 13.5 22t24.5 8q18 0 26.5 -12t4.5 -27q-2 -14 -12 -22t-24 -8zM438 639q-17 0 -26 11t-6 28q2 14 12.5 22
t24.5 8q17 0 25.5 -12t5.5 -27q-2 -14 -12 -22t-24 -8z" />
    <glyph glyph-name="amacron.alt" unicode="&#xe895;" horiz-adv-x="619" 
d="M206 -8q-51 0 -87 14t-57.5 37.5t-29 53t-1.5 61.5q14 80 85.5 115.5t196.5 35.5h198l6 30q16 87 -33 133.5t-149 46.5q-67 0 -121 -22t-96 -72l-29 24q97 102 246 102q58 0 102.5 -15.5t72.5 -43.5t39 -68t2 -89l-59 -335h-35l21 122q-47 -62 -119 -96t-153 -34zM212 24
q38 0 76.5 9t74.5 27.5t68 46t56 65.5l19 106h-198q-109 0 -168.5 -28t-70.5 -94q-4 -26 2 -49.5t23 -42t46.5 -29.5t71.5 -11zM240 686h264l-6 -33h-264z" />
    <glyph glyph-name="abreve.alt" unicode="&#xe896;" horiz-adv-x="619" 
d="M206 -8q-51 0 -87 14t-57.5 37.5t-29 53t-1.5 61.5q14 80 85.5 115.5t196.5 35.5h198l6 30q16 87 -33 133.5t-149 46.5q-67 0 -121 -22t-96 -72l-29 24q97 102 246 102q58 0 102.5 -15.5t72.5 -43.5t39 -68t2 -89l-59 -335h-35l21 122q-47 -62 -119 -96t-153 -34zM212 24
q38 0 76.5 9t74.5 27.5t68 46t56 65.5l19 106h-198q-109 0 -168.5 -28t-70.5 -94q-4 -26 2 -49.5t23 -42t46.5 -29.5t71.5 -11zM359 623q-38 0 -66 13t-46 34t-24.5 48t-1.5 56h33q-5 -23 0.5 -45t19.5 -39t37 -27.5t53 -10.5q32 0 57.5 10.5t43.5 27.5t29.5 39t15.5 45h34
q-5 -29 -19.5 -56t-37.5 -48t-55 -34t-73 -13z" />
    <glyph glyph-name="aring.alt" unicode="&#xe897;" horiz-adv-x="619" 
d="M206 -8q-51 0 -87 14t-57.5 37.5t-29 53t-1.5 61.5q14 80 85.5 115.5t196.5 35.5h198l6 30q16 87 -33 133.5t-149 46.5q-67 0 -121 -22t-96 -72l-29 24q97 102 246 102q58 0 102.5 -15.5t72.5 -43.5t39 -68t2 -89l-59 -335h-35l21 122q-47 -62 -119 -96t-153 -34zM212 24
q38 0 76.5 9t74.5 27.5t68 46t56 65.5l19 106h-198q-109 0 -168.5 -28t-70.5 -94q-4 -26 2 -49.5t23 -42t46.5 -29.5t71.5 -11zM361 615q-20 0 -36.5 8t-28 22.5t-16 33.5t-0.5 40q8 35 35.5 57t62.5 22q22 0 39 -9t28 -23t15 -32.5t0 -37.5q-8 -34 -34.5 -57.5t-64.5 -23.5
zM364 644q25 0 44 17t23 40q5 26 -10.5 47t-45.5 21q-23 0 -42 -16t-24 -40q-5 -26 10 -47.5t45 -21.5z" />
    <glyph glyph-name="atilde.alt" unicode="&#xe898;" horiz-adv-x="619" 
d="M206 -8q-51 0 -87 14t-57.5 37.5t-29 53t-1.5 61.5q14 80 85.5 115.5t196.5 35.5h198l6 30q16 87 -33 133.5t-149 46.5q-67 0 -121 -22t-96 -72l-29 24q97 102 246 102q58 0 102.5 -15.5t72.5 -43.5t39 -68t2 -89l-59 -335h-35l21 122q-47 -62 -119 -96t-153 -34zM212 24
q38 0 76.5 9t74.5 27.5t68 46t56 65.5l19 106h-198q-109 0 -168.5 -28t-70.5 -94q-4 -26 2 -49.5t23 -42t46.5 -29.5t71.5 -11zM188 633q8 42 35 69.5t65 27.5q26 0 47 -10.5t41 -23.5t38.5 -23.5t42.5 -10.5q25 0 42.5 16t23.5 48h32q-9 -46 -36 -71.5t-66 -25.5
q-30 0 -52.5 12t-42.5 25q-18 11 -36 21t-40 10q-23 0 -40.5 -17t-22.5 -47h-31z" />
    <glyph glyph-name="aogonek.alt" unicode="&#xe899;" horiz-adv-x="619" 
d="M457 -202q-24 0 -43 8t-32 22t-19 31.5t-2 37.5q6 35 29.5 61t68.5 57l19 107q-47 -62 -119 -96t-153 -34q-51 0 -87 14t-57.5 37.5t-29 53t-1.5 61.5q14 80 85.5 115.5t196.5 35.5h198l6 30q16 87 -33 133.5t-149 46.5q-67 0 -121 -22t-96 -72l-29 24q97 102 246 102
q58 0 102.5 -15.5t72.5 -43.5t39 -68t2 -89l-59 -335q-47 -31 -68.5 -54.5t-26.5 -50.5t13.5 -47t51.5 -20q26 0 46.5 8.5t40.5 22.5l25 -22q-26 -18 -53 -28.5t-64 -10.5zM212 24q38 0 76.5 9t74.5 27.5t68 46t56 65.5l19 106h-198q-109 0 -168.5 -28t-70.5 -94
q-4 -26 2 -49.5t23 -42t46.5 -29.5t71.5 -11z" />
    <glyph glyph-name="ordfeminine.alt" unicode="&#xe926;" horiz-adv-x="452" 
d="M219 414q-63 0 -88 29t-17 69q8 45 51.5 65t114.5 20h118l3 17q8 43 -17.5 69.5t-83.5 26.5q-38 0 -68.5 -12.5t-55.5 -40.5l-25 20q62 60 151 60q33 0 59 -9t43.5 -25.5t24.5 -39.5t2 -51l-35 -194h-31l14 75q-25 -38 -67 -58.5t-93 -20.5zM385 528q2 8 4 21t4 24h-116
q-55 0 -90 -14t-42 -49q-6 -29 13 -49.5t67 -20.5q45 0 90 21.5t70 66.5z" />
    <glyph glyph-name="interrobangdown" unicode="&#xe935;" horiz-adv-x="543" 
d="M223 -240q-44 0 -82 13.5t-65 38t-39 59.5t-4 79q7 40 24.5 66t40.5 46t48.5 38t49.5 43.5t43.5 62.5t30.5 95l6 32h32l-5 -31q-5 -29 -13 -78.5t-17.5 -107.5t-19.5 -118.5t-19 -110.5l-17 -95h9q43 0 81.5 15.5t65.5 41.5l25 -25q-32 -29 -78 -46.5t-97 -17.5zM70 -54
q-5 -30 1 -55t21.5 -44t38 -31.5t50.5 -18.5l15 90q6 33 13 70t14.5 74.5t15 74t14.5 68.5q-24 -44 -52.5 -69.5t-55.5 -46.5t-47.5 -45.5t-27.5 -66.5zM311 455q-8 0 -11.5 5t-1.5 12q1 5 5 8.5t9 3.5q8 0 11.5 -5t2.5 -11q-3 -13 -15 -13z" />
    <glyph glyph-name="interrobangdown.cap" unicode="&#xe99b;" horiz-adv-x="543" 
d="M261 -10q-44 0 -82 13.5t-64.5 38.5t-38.5 60t-4 79q7 40 24.5 65.5t40.5 45.5t48.5 38t49.5 43.5t43.5 62.5t30.5 95l5 32h32l-5 -31q-5 -29 -12.5 -78.5t-17.5 -107.5t-20 -118.5t-19 -110.5l-16 -94h9q43 0 81.5 15.5t65.5 41.5l24 -25q-31 -29 -77.5 -47t-97.5 -18z
M108 176q-5 -30 1 -55t21.5 -44t38 -31.5t50.5 -18.5l16 90q6 33 13 70t14.5 74.5t14.5 74t14 68.5q-23 -44 -52 -69.5t-55.5 -46.5t-47.5 -45.5t-28 -66.5zM348 662q-20 0 -29 13.5t-5 30.5q2 14 13.5 23.5t25.5 9.5q20 0 29.5 -13.5t6.5 -30.5q-3 -14 -14 -23.5t-27 -9.5z
" />
    <glyph glyph-name="registered.cap" unicode="&#xe99c;" horiz-adv-x="902" 
d="M447 -10q-86 0 -156.5 33.5t-117 90.5t-66 133t-4.5 162q13 73 49.5 133.5t89 104.5t117 68.5t134.5 24.5q85 0 155 -34t116.5 -92t66 -134.5t4.5 -161.5q-13 -73 -49.5 -133.5t-88.5 -103.5t-116.5 -67t-133.5 -24zM450 23q63 0 121 22.5t105.5 62t80 94.5t44.5 121
q13 70 -2.5 139t-55.5 124t-103.5 88.5t-147.5 33.5q-64 0 -123 -22.5t-106.5 -63t-80 -96.5t-44.5 -123q-13 -73 3.5 -141.5t57.5 -121.5t104.5 -85t146.5 -32zM373 555h154q27 0 49.5 -10.5t38 -28.5t22.5 -41.5t3 -48.5q-8 -46 -43 -75.5t-84 -29.5h-6l82 -140h-39
l-98 169h58q35 0 62 22.5t33 57.5q6 39 -19 65.5t-66 28.5h-117l-59 -343h-37z" />
    <glyph glyph-name="Aumlaut" unicode="&#xf176;" horiz-adv-x="739" 
d="M283 665q-17 0 -26 11.5t-6 27.5q2 14 12.5 22.5t24.5 8.5q19 0 27 -12.5t5 -27.5q-2 -13 -12.5 -21.5t-24.5 -8.5zM602 665q-17 0 -26 11.5t-6 27.5q2 14 12.5 22.5t24.5 8.5q17 0 25.5 -12.5t5.5 -27.5q-2 -13 -12 -21.5t-24 -8.5zM432 730h39l173 -730h-38l-53 226
h-377l-132 -226h-41zM196 261h349l-100 426z" />
    <glyph glyph-name="Oumlaut" unicode="&#xf177;" horiz-adv-x="895" 
d="M178 665q-16 0 -24 10.5t-6 24.5q2 13 11.5 20.5t22.5 7.5q17 0 24.5 -11t4.5 -25q-2 -12 -11 -19.5t-22 -7.5zM801 665q-16 0 -24 10.5t-6 24.5q2 13 12 20.5t22 7.5q17 0 24.5 -11t4.5 -25q-2 -12 -11 -19.5t-22 -7.5zM442 -10q-86 0 -156.5 33.5t-117 90.5t-66 133
t-4.5 162q13 73 49.5 133.5t89 104.5t117 68.5t134.5 24.5q91 0 161.5 -37t115.5 -96.5t62 -135t3 -153.5q-13 -73 -49 -133.5t-88 -103.5t-116.5 -67t-134.5 -24zM445 25q62 0 120 22t104.5 62t79 94.5t44.5 119.5q13 70 -2 138.5t-55 123t-103 88t-147 33.5
q-63 0 -121.5 -22.5t-105.5 -63t-79.5 -96t-44.5 -121.5q-13 -77 4.5 -146t59.5 -120.5t105 -81.5t141 -30z" />
    <glyph glyph-name="Uumlaut" unicode="&#xf178;" horiz-adv-x="720" 
d="M344 666q-17 0 -26 11t-7 28q3 14 13.5 22t24.5 8q18 0 26.5 -12t4.5 -27q-2 -14 -12 -22t-24 -8zM523 666q-17 0 -26 11t-6 28q2 14 12.5 22t24.5 8q18 0 26.5 -12t5.5 -27q-2 -14 -12.5 -22t-24.5 -8zM334 -10q-66 0 -116.5 20t-82.5 57t-43.5 89t-0.5 116l81 458h37
l-81 -464q-9 -51 -0.5 -95.5t34.5 -76.5t70 -50.5t106 -18.5q52 0 94 16t73.5 44t51.5 66t28 83l87 496h37l-87 -496q-9 -54 -32.5 -99t-60 -77.5t-85.5 -50t-110 -17.5z" />
    <glyph glyph-name="period.T" unicode="&#xf182;" horiz-adv-x="328" 
d="M120 -8q-19 0 -29 13t-6 31q2 14 14 23.5t26 9.5q20 0 29 -13.5t6 -30.5q-3 -14 -13.5 -23.5t-26.5 -9.5z" />
    <glyph glyph-name="comma.T" unicode="&#xf183;" horiz-adv-x="328" 
d="M57 -107q34 17 57.5 47t28.5 59q3 14 -2 25v-1q-4 -27 -32 -27q-14 0 -22.5 10.5t-5.5 26.5t15.5 26t29.5 10q25 0 37 -19t7 -51q-7 -39 -34.5 -71.5t-67.5 -54.5z" />
    <glyph glyph-name="colon.T" unicode="&#xf184;" horiz-adv-x="328" 
d="M120 -8q-19 0 -29 13t-6 31q2 14 14 23.5t26 9.5q20 0 29 -13.5t6 -30.5q-3 -14 -13.5 -23.5t-26.5 -9.5zM197 429q-18 0 -28 13t-6 30q2 15 13.5 24.5t26.5 9.5q20 0 29 -13.5t6 -30.5q-3 -14 -14 -23.5t-27 -9.5z" />
    <glyph glyph-name="semicolon.T" unicode="&#xf185;" horiz-adv-x="328" 
d="M57 -107q34 17 58 46.5t29 58.5q1 14 -3 23q-6 -25 -31 -25q-14 0 -22.5 10.5t-5.5 26.5q2 16 14.5 26t30.5 10q24 0 36.5 -19t7.5 -51q-7 -39 -35 -71.5t-68 -54.5zM197 429q-19 0 -29 13t-6 30q2 15 14 24.5t26 9.5q20 0 29 -13.5t6 -30.5q-3 -14 -13.5 -23.5
t-26.5 -9.5z" />
    <glyph glyph-name="onesixteenth" unicode="&#xf215;" horiz-adv-x="1061" 
d="M130 308l64 354q-12 -23 -35.5 -38.5t-61.5 -15.5h-6l7 35h3q25 0 43.5 7.5t31.5 20t20 28t10 31.5h34l-75 -422h-35zM651 730h46l-654 -730h-46zM501 0l64 354q-12 -23 -35.5 -38.5t-61.5 -15.5h-6l7 35h3q25 0 43.5 7.5t31.5 20t20 28t10 31.5h34l-75 -422h-35zM832 -6
q-35 0 -67.5 16t-49.5 43q-19 30 -22.5 68t5.5 92q20 109 79.5 161.5t142.5 52.5q30 0 50 -5t37 -15l-20 -28q-14 8 -29.5 12.5t-38.5 4.5q-73 0 -121.5 -44.5t-66.5 -133.5q19 31 51.5 49t70.5 18q35 0 61.5 -13.5t44 -36.5t24 -53t1.5 -62q-11 -55 -51.5 -90.5
t-100.5 -35.5zM833 25q44 0 76.5 27.5t40.5 72.5q4 25 -0.5 48t-18 41t-35 29t-49.5 11q-47 0 -80 -27.5t-41 -70.5q-4 -22 0.5 -45t18 -42t35.5 -31.5t53 -12.5z" />
    </font>
</defs>
</svg>
