<?xml version="1.0" standalone="no"?>
<!DOCTYPE svg PUBLIC "-//W3C//DTD SVG 1.1//EN" "http://www.w3.org/Graphics/SVG/1.1/DTD/svg11.dtd" >
<svg xmlns="http://www.w3.org/2000/svg" xmlns:xlink="http://www.w3.org/1999/xlink" version="1.1">
<metadata>
Created by FontForge 20170731 at Sat Aug 20 04:21:40 2016
 By Aleksey,,,
Copyright (c) 2016 by Lucas Sharp. All rights reserved.
</metadata>
<defs>
<font id="SharpSans-MediumItalic" horiz-adv-x="638" >
  <font-face 
    font-family="Sharp Sans Medium"
    font-weight="500"
    font-style="italic"
    font-stretch="normal"
    units-per-em="1000"
    panose-1="0 0 0 0 0 0 0 0 0 0"
    ascent="800"
    descent="-200"
    x-height="540"
    cap-height="730"
    bbox="-137 -295 1433 1108"
    underline-thickness="50"
    underline-position="-150"
    unicode-range="U+000D-F472"
  />
<missing-glyph horiz-adv-x="738" 
d="M170 730h561l-128 -730h-561zM139 80h393l100 570h-393z" />
    <glyph glyph-name=".notdef" horiz-adv-x="738" 
d="M170 730h561l-128 -730h-561zM139 80h393l100 570h-393z" />
    <glyph glyph-name=".null" horiz-adv-x="0" 
 />
    <glyph glyph-name="nonmarkingreturn" unicode="&#xd;" horiz-adv-x="246" 
 />
    <glyph glyph-name="NULL" horiz-adv-x="0" 
 />
    <glyph glyph-name="NULL" horiz-adv-x="0" 
 />
    <glyph glyph-name="space" unicode=" " horiz-adv-x="246" 
 />
    <glyph glyph-name="exclam" unicode="!" horiz-adv-x="267" 
d="M97 198q3 36 8.5 86.5t13 107t16.5 114t18 107.5l20 117h83l-20 -117q-9 -50 -21 -107.5t-24.5 -114t-25 -107t-22.5 -86.5h-46zM90 -14q-32 0 -48.5 22t-10.5 51q5 25 24 41t44 16q33 0 49 -22.5t11 -50.5q-5 -25 -24 -41t-45 -16z" />
    <glyph glyph-name="quotedbl" unicode="&#x22;" horiz-adv-x="333" 
d="M135 500q-1 9 -1 28.5t1 41.5t2 43t3 33l15 84h66l-15 -84q-2 -12 -8 -33t-13 -43t-14 -41.5t-11 -28.5h-25zM255 500q-1 9 -1.5 28.5t0.5 41.5t2 43t3 33l15 84h66l-15 -84q-2 -12 -8 -33t-13 -43t-13.5 -41.5t-10.5 -28.5h-25z" />
    <glyph glyph-name="numbersign" unicode="#" horiz-adv-x="860" 
d="M522 188h-203l-33 -188h-84l33 188h-184l15 80h183l36 204h-183l14 80h183l31 178h84l-31 -178h203l31 178h84l-31 -178h182l-15 -80h-181l-36 -204h182l-15 -80h-181l-33 -188h-84zM333 268h203l36 204h-203z" />
    <glyph glyph-name="dollar" unicode="$" horiz-adv-x="601" 
d="M520 174q-13 -77 -73.5 -127.5t-154.5 -55.5l-14 -83h-73l15 87q-68 11 -115 46t-76 82l75 51q20 -36 52.5 -63t77.5 -37l51 281q-31 14 -62.5 32t-55 43.5t-35.5 60.5t-4 84q13 73 73 118t151 47l14 80h72l-16 -87q52 -12 92.5 -39.5t66.5 -65.5l-71 -49q-34 59 -101 79
l-44 -250q33 -16 64.5 -36t54.5 -48t34 -64.5t2 -85.5zM434 181q5 26 0.5 46.5t-16.5 38t-30 31.5t-39 26l-43 -253q53 7 86.5 36.5t41.5 74.5zM214 565q-5 -24 0.5 -42.5t17.5 -33.5t29.5 -27.5t37.5 -22.5l40 226q-55 -3 -87 -30.5t-38 -69.5z" />
    <glyph glyph-name="percent" unicode="%" horiz-adv-x="883" 
d="M789 730h105l-755 -730h-106zM285 399q-39 0 -70 15.5t-51.5 41.5t-29 60t-2.5 72q6 32 22.5 59.5t40.5 48t54.5 32.5t63.5 12q38 0 69 -15t52 -41t30 -60t3 -71q-6 -32 -22 -60t-40 -49t-55 -33t-65 -12zM292 469q19 0 36.5 7t32 19t24.5 28.5t13 35.5q3 21 -2 41.5
t-17 36t-30 25t-42 9.5q-40 0 -69.5 -26t-36.5 -64q-4 -21 1 -41.5t17 -36t30.5 -25t42.5 -9.5zM612 -11q-39 0 -70 15.5t-52 41.5t-29.5 60t-1.5 72q6 32 22.5 60t41 48.5t55 32.5t63.5 12q37 0 68 -15.5t52 -41t30 -60t3 -71.5q-6 -33 -22 -61t-40.5 -48.5t-55 -32.5
t-64.5 -12zM618 59q39 0 69.5 26t37.5 65q4 21 -1 41t-17 36t-30.5 25.5t-42.5 9.5q-40 0 -69.5 -26.5t-36.5 -64.5q-3 -21 1.5 -41t16.5 -36t30 -25.5t42 -9.5z" />
    <glyph glyph-name="ampersand" unicode="&#x26;" horiz-adv-x="804" 
d="M246 -11q-54 0 -94 18.5t-65 49.5t-34.5 71t-2.5 82q7 41 28.5 72.5t51.5 55.5t66.5 42.5t74.5 34.5q-37 49 -52 91t-6 92q5 30 21 56t40 45t55.5 30t68.5 11q43 0 75.5 -14.5t53.5 -39t29.5 -57t2.5 -67.5q-6 -32 -22 -57t-39 -45.5t-52 -36.5t-60 -31q0 -1 1 -1
l128 -152l186 200h101l-236 -253l160 -186h-99l-113 131q-33 -33 -63.5 -59.5t-63 -44.5t-67 -28t-74.5 -10zM257 65q29 0 55.5 8.5t51 24.5t49.5 37.5t51 48.5l-144 171l-5 5q-33 -15 -63.5 -30t-55.5 -33t-41.5 -40.5t-21.5 -51.5t1.5 -54.5t23 -44.5t42 -30t57.5 -11z
M290 586q-3 -15 -1.5 -30t7.5 -31.5t17 -35.5t29 -43q27 12 50.5 24.5t42.5 27.5t31 32.5t16 39.5q4 20 -0.5 38t-16 32t-29.5 22t-41 8q-42 0 -70 -23t-35 -61z" />
    <glyph glyph-name="quotesingle" unicode="'" horiz-adv-x="213" 
d="M135 500q-1 9 -1 28.5t1 41.5t2 43t3 33l15 84h66l-15 -84q-2 -12 -8 -33t-13 -43t-14 -41.5t-11 -28.5h-25v0z" />
    <glyph glyph-name="parenleft" unicode="(" horiz-adv-x="444" 
d="M265 -241q-51 40 -92.5 94t-68.5 120.5t-35.5 145.5t6.5 169q15 87 50.5 160t84 130.5t107 101t119.5 72.5l45 -68q-61 -28 -113.5 -67t-93.5 -89.5t-70.5 -113t-43.5 -137.5q-25 -149 19 -262.5t144 -191.5z" />
    <glyph glyph-name="parenright" unicode=")" horiz-adv-x="444" 
d="M177 748q50 -40 91.5 -93.5t68.5 -119.5t35.5 -144.5t-6.5 -168.5q-15 -88 -49.5 -162t-82.5 -133t-105.5 -103.5t-118.5 -72.5l-46 69q122 57 205.5 159t111.5 254q25 149 -18.5 261t-143.5 190z" />
    <glyph glyph-name="asterisk" unicode="*" horiz-adv-x="462" 
d="M294 521l-8 -144h-74l44 145l-132 -88l-25 64l144 56l-124 58l48 63l101 -89l6 145h74l-43 -144l131 87l26 -64l-145 -56l124 -56l-48 -64z" />
    <glyph glyph-name="plus" unicode="+" horiz-adv-x="500" 
d="M87 401h150l26 148h70l-26 -148h150l-13 -71h-150l-26 -151h-70l26 151h-150z" />
    <glyph glyph-name="comma" unicode="," horiz-adv-x="248" 
d="M1 -102q45 23 72.5 54t32.5 64q2 8 0 14q-5 -20 -17 -28.5t-29 -8.5q-23 0 -36.5 18.5t-8.5 42.5q4 25 24 42.5t50 17.5q36 0 56 -26t13 -70q-8 -50 -42.5 -88.5t-92.5 -69.5z" />
    <glyph glyph-name="hyphen" unicode="-" horiz-adv-x="500" 
d="M73 291h370l-13 -71h-370z" />
    <glyph glyph-name="period" unicode="." horiz-adv-x="236" 
d="M74 -14q-32 0 -48.5 22t-10.5 51q4 25 23.5 41t43.5 16q33 0 49 -22.5t11 -50.5q-5 -25 -23.5 -41t-44.5 -16z" />
    <glyph glyph-name="slash" unicode="/" horiz-adv-x="514" 
d="M464 730h91l-472 -730h-92z" />
    <glyph glyph-name="zero" unicode="0" horiz-adv-x="668" 
d="M312 -10q-68 0 -119.5 22.5t-82 67.5t-39.5 113t7 159l15 85q15 81 43.5 138.5t67.5 94t87.5 53.5t103.5 17q57 0 107 -18.5t83 -60t45.5 -108t-4.5 -163.5l-17 -96q-14 -78 -41 -135.5t-65 -95t-86.5 -55.5t-104.5 -18zM317 69q36 0 68.5 13t60.5 41.5t48.5 73.5
t32.5 110l16 93q14 76 6.5 126.5t-30 80.5t-57 42.5t-74.5 12.5q-39 0 -72.5 -13t-61 -42t-48 -75t-32.5 -113l-12 -70q-13 -75 -7.5 -128.5t26.5 -87t56 -49t80 -15.5z" />
    <glyph glyph-name="one" unicode="1" horiz-adv-x="389" 
d="M279 568q-29 -41 -75 -63t-105 -22h-11l15 82h5q89 0 139 45.5t63 119.5h80l-128 -730h-83z" />
    <glyph glyph-name="two" unicode="2" horiz-adv-x="588" 
d="M25 82q8 43 32.5 79.5t59 68t76.5 58.5t84 53q38 23 74.5 45.5t66 46.5t49.5 49.5t26 55.5q5 28 -3 52t-26.5 41t-46 27t-60.5 10q-56 0 -100.5 -25.5t-68.5 -65.5l-71 35q35 58 98.5 93t144.5 35q52 0 95 -15.5t72.5 -44t42.5 -67.5t4 -86q-7 -41 -31 -75t-58 -63.5
t-75 -55.5t-83 -51q-38 -23 -74 -46t-65.5 -47.5t-49 -51t-25.5 -57.5h382l-14 -80h-470z" />
    <glyph glyph-name="three" unicode="3" horiz-adv-x="578" 
d="M249 -10q-44 0 -82.5 9t-70.5 25.5t-56 38.5t-38 48l73 43q26 -46 72.5 -67.5t103.5 -21.5q31 0 60.5 8.5t53 25t40 40.5t21.5 55q6 32 -2 58.5t-27 46t-48 30.5t-66 11h-78l13 77h74q34 0 65 8.5t55 24.5t40 38.5t21 51.5t-2.5 53t-26 41.5t-46.5 27t-63 9.5
q-60 0 -102.5 -21.5t-71.5 -58.5l-62 44q35 45 96 75t145 30q54 0 97.5 -15.5t72 -43t40 -66.5t3.5 -86q-10 -53 -45.5 -92.5t-94.5 -61.5q54 -29 81 -79t15 -118q-8 -44 -30.5 -79t-57 -59t-78.5 -37t-94 -13z" />
    <glyph glyph-name="four" unicode="4" horiz-adv-x="612" 
d="M385 175h-353l13 77l433 478h85l-84 -479h103l-14 -76h-103l-30 -175h-81zM398 251l64 357l-323 -357h259z" />
    <glyph glyph-name="five" unicode="5" horiz-adv-x="588" 
d="M249 -10q-85 0 -144.5 39.5t-84.5 101.5l80 36q18 -45 57.5 -73t94.5 -28q72 0 122.5 42.5t64.5 110.5q8 40 3.5 74.5t-22 59t-47.5 38.5t-73 14q-45 0 -81 -15.5t-63 -42.5l-71 33l106 350h381l-13 -78h-311l-64 -211q26 17 60 28t81 11q54 0 95 -19.5t67 -54t35.5 -83
t-0.5 -107.5q-9 -48 -32 -89.5t-58 -71.5t-81.5 -47.5t-101.5 -17.5z" />
    <glyph glyph-name="six" unicode="6" horiz-adv-x="649" 
d="M323 -10q-63 0 -114.5 24.5t-83.5 68.5q-39 54 -49 132.5t6 174.5q16 92 50 158.5t80 109t102.5 62.5t117.5 20q74 0 119.5 -17t80.5 -46l-59 -67q-23 23 -58 37.5t-88 14.5q-47 0 -90 -15.5t-78 -49t-61 -86.5t-39 -127q30 48 81 77t118 29q60 0 107 -22.5t77 -61
t41.5 -88.5t2.5 -105q-8 -46 -29.5 -86.5t-54.5 -71t-78 -48t-101 -17.5zM325 65q35 0 65.5 12t54.5 32.5t39.5 49t21.5 61.5q6 37 -2 72.5t-28.5 63t-53.5 44t-76 16.5q-37 0 -69 -11t-56 -30.5t-40 -47t-22 -59.5q-7 -38 0.5 -74t29 -65t55.5 -46.5t81 -17.5z" />
    <glyph glyph-name="seven" unicode="7" horiz-adv-x="586" 
d="M505 652h-388l14 78h478l-12 -72l-415 -658h-96z" />
    <glyph glyph-name="eight" unicode="8" horiz-adv-x="650" 
d="M297 -10q-65 0 -115 17t-83 48t-46.5 74t-4.5 95q9 59 51.5 103t110.5 67q-45 27 -66.5 70.5t-10.5 102.5q6 37 25.5 68.5t52 55t77 36.5t101.5 13q60 0 105.5 -17t74 -46t40 -67.5t3.5 -82.5q-10 -55 -44.5 -91.5t-86.5 -56.5q57 -29 84 -78.5t17 -109.5
q-8 -44 -29.5 -81t-57.5 -63.5t-85.5 -41.5t-112.5 -15zM304 65q90 0 139 38t58 95q6 32 -2.5 59.5t-30.5 48t-58 32t-86 11.5q-91 0 -138.5 -37.5t-57.5 -97.5q-5 -29 3.5 -55.5t31 -47.5t58 -33.5t83.5 -12.5zM359 420q78 0 122 32.5t53 84.5q9 57 -27.5 93.5t-124.5 36.5
q-82 0 -123.5 -30.5t-49.5 -80.5q-10 -58 29.5 -97t120.5 -39z" />
    <glyph glyph-name="nine" unicode="9" horiz-adv-x="649" 
d="M266 -11q-81 0 -134 25t-88 64l66 60q25 -31 65.5 -51t97.5 -20q45 0 85 15.5t72.5 49t56.5 86.5t37 129v1q-31 -51 -82.5 -79.5t-117.5 -28.5q-60 0 -107 23t-77 61.5t-42 89t-3 105.5q8 47 30.5 87.5t57 70t80 46t99.5 16.5q64 0 115.5 -25.5t83.5 -69.5
q37 -51 46 -129t-8 -180q-16 -95 -47.5 -161t-75 -107t-97 -59.5t-113.5 -18.5zM336 314q37 0 69 10.5t56.5 30t40.5 46.5t22 60q7 36 0.5 72.5t-27 65.5t-55 47t-83.5 18q-37 0 -68 -11.5t-54.5 -31.5t-39 -48.5t-21.5 -61.5q-6 -38 1.5 -73t28.5 -63t53.5 -44.5
t76.5 -16.5z" />
    <glyph glyph-name="colon" unicode=":" horiz-adv-x="236" 
d="M74 -14q-32 0 -48.5 22t-10.5 51q4 25 23.5 41t43.5 16q33 0 49 -22.5t11 -50.5q-5 -25 -23.5 -41t-44.5 -16zM143 377q-32 0 -48.5 22t-10.5 51q4 25 23.5 40.5t43.5 15.5q33 0 49 -22.5t11 -49.5q-5 -26 -23.5 -41.5t-44.5 -15.5z" />
    <glyph glyph-name="semicolon" unicode=";" horiz-adv-x="248" 
d="M1 -102q45 23 72.5 54t32.5 64q2 8 0 14q-5 -20 -17 -28.5t-29 -8.5q-23 0 -36.5 18.5t-8.5 42.5q4 25 24 42.5t50 17.5q36 0 56 -26t13 -70q-8 -50 -42.5 -88.5t-92.5 -69.5zM146 377q-32 0 -48.5 22t-10.5 51q5 25 24 40.5t44 15.5q33 0 49 -22.5t11 -49.5
q-5 -26 -24 -41.5t-45 -15.5z" />
    <glyph glyph-name="less" unicode="&#x3c;" horiz-adv-x="500" 
d="M75 331l12 70l395 139l-14 -75l-301 -101l266 -103l-14 -72z" />
    <glyph glyph-name="equal" unicode="=" horiz-adv-x="500" 
d="M102 481h370l-13 -71h-370zM72 317h370l-12 -70h-370z" />
    <glyph glyph-name="greater" unicode="&#x3e;" horiz-adv-x="500" 
d="M64 265l300 100l-264 104l12 71l345 -142l-13 -70l-394 -139z" />
    <glyph glyph-name="question" unicode="?" horiz-adv-x="558" 
d="M200 199q11 63 32 104.5t47 69t53.5 46t51.5 35.5t41.5 37t23.5 52q5 28 -2.5 51t-24.5 39.5t-42 25.5t-56 9q-42 0 -77.5 -17.5t-58.5 -44.5l-62 47q32 39 86 63t118 24q50 0 91 -15.5t69 -43t39.5 -64.5t3.5 -80q-7 -42 -26.5 -69t-45 -47t-54.5 -37.5t-55 -41
t-47 -57.5t-30 -86l-2 -9h-75zM209 -15q-32 0 -48.5 22.5t-10.5 51.5q4 25 23.5 40.5t44.5 15.5q33 0 49 -22.5t11 -49.5q-5 -26 -24 -42t-45 -16z" />
    <glyph glyph-name="at" unicode="@" horiz-adv-x="869" 
d="M404 -131q-87 0 -155.5 33.5t-112.5 90.5t-61.5 132.5t-2.5 159.5q12 72 48.5 133t90.5 106t122 70.5t144 25.5q79 0 145.5 -29t111.5 -78.5t64.5 -116t6.5 -141.5q-6 -37 -20 -71t-36.5 -59.5t-52.5 -41t-69 -15.5q-43 0 -68 17.5t-35 43.5q-21 -26 -53 -43.5t-77 -17.5
q-38 0 -67.5 15t-47.5 40t-25 58.5t0 70.5q6 34 23 66.5t42.5 57t59 39.5t71.5 15q40 0 66.5 -17.5t40.5 -43.5q2 12 4 21.5t4 17.5t3 15h71l-44 -181q-15 -57 -2.5 -79.5t45.5 -22.5q19 0 35 11t29 28.5t21.5 40t12.5 45.5q10 58 -4 110t-48.5 91t-87.5 62t-121 23
q-60 0 -115.5 -21t-100 -57.5t-75 -87t-40.5 -108.5q-12 -65 0.5 -126.5t47 -109t89.5 -76t129 -28.5q56 0 101.5 18t87.5 53l54 -49q-49 -44 -110.5 -67t-138.5 -23zM408 137q24 0 44 9t35.5 24.5t25.5 35.5t15 42q6 24 4 44.5t-12 36.5t-26 25t-38 9q-25 0 -47 -10
t-39 -26.5t-28.5 -38t-15.5 -43.5q-3 -22 1 -41.5t14.5 -34.5t27.5 -23.5t39 -8.5z" />
    <glyph glyph-name="A" unicode="A" horiz-adv-x="730" 
d="M407 730h85l159 -730h-84l-39 183h-348l-104 -183h-90zM225 262h286l-77 368z" />
    <glyph glyph-name="B" unicode="B" horiz-adv-x="696" 
d="M165 730h304q51 0 90.5 -17.5t65 -47t35.5 -68t3 -79.5q-9 -51 -40 -91t-83 -61q46 -27 69.5 -73t12.5 -108q-15 -84 -81 -134.5t-171 -50.5h-333zM178 337l-45 -259h243q68 0 110 33.5t52 87.5q5 29 -2.5 54.5t-25 44t-44 29t-60.5 10.5h-228zM234 654l-42 -241h243
q31 0 56 8.5t43.5 23.5t30.5 35t16 43q5 27 -1 50.5t-22 41.5t-41.5 28.5t-58.5 10.5h-224z" />
    <glyph glyph-name="C" unicode="C" horiz-adv-x="815" 
d="M431 -10q-92 0 -162.5 33.5t-116 90t-63 132t-2.5 159.5q12 72 48 133.5t89.5 106.5t121.5 70t145 25q115 0 193 -49t122 -143l-80 -38q-17 39 -39 67.5t-51.5 46.5t-67 27t-86.5 9q-58 0 -110.5 -20t-93.5 -55t-69.5 -83.5t-38.5 -106.5q-11 -65 2.5 -124t48.5 -103.5
t90.5 -71t127.5 -26.5q75 0 139.5 34t109.5 97l72 -49q-60 -80 -143 -121t-186 -41z" />
    <glyph glyph-name="D" unicode="D" horiz-adv-x="747" 
d="M165 730h212q80 -1 145.5 -32t109 -84t62 -123.5t4.5 -148.5q-13 -75 -48.5 -137.5t-88 -108t-120 -71t-143.5 -25.5h-261zM235 653l-101 -575h170q57 0 108.5 20t93 56t69.5 85.5t39 108.5q11 62 -2.5 117.5t-47 97t-84.5 66t-115 24.5h-130z" />
    <glyph glyph-name="E" unicode="E" horiz-adv-x="631" 
d="M165 730h478l-14 -78h-396l-42 -245h395l-14 -79h-395l-44 -249h396l-14 -79h-478z" />
    <glyph glyph-name="F" unicode="F" horiz-adv-x="608" 
d="M165 730h468l-14 -79h-384l-45 -255h384l-14 -79h-384l-55 -317h-84z" />
    <glyph glyph-name="G" unicode="G" horiz-adv-x="863" 
d="M429 -10q-86 0 -156 33.5t-116.5 90.5t-66 132t-4.5 159q12 70 47 131.5t88 106.5t120.5 71t145.5 26q54 0 102 -13.5t87.5 -38t70.5 -58t52 -73.5l-80 -42q-35 69 -95 107t-145 38q-59 0 -111.5 -20.5t-93 -56.5t-68 -84t-37.5 -103q-11 -63 2.5 -121.5t49 -103.5
t90 -72t125.5 -27q57 0 104.5 18t84 49.5t61.5 75t37 93.5h-292l15 79h379l-5 -30q-10 -80 -42 -147.5t-83 -116t-118 -76t-148 -27.5z" />
    <glyph glyph-name="H" unicode="H" horiz-adv-x="724" 
d="M566 326h-388l-57 -326h-84l128 730h84l-57 -324h388l57 324h84l-128 -730h-84z" />
    <glyph glyph-name="I" unicode="I" horiz-adv-x="269" 
d="M174 730h84l-128 -730h-84z" />
    <glyph glyph-name="J" unicode="J" horiz-adv-x="516" 
d="M201 -10q-73 0 -123.5 37.5t-68.5 98.5l79 28q13 -39 42.5 -62.5t77.5 -23.5q57 0 89 36t42 91l95 535h84l-94 -530q-17 -100 -72 -155t-151 -55z" />
    <glyph glyph-name="K" unicode="K" horiz-adv-x="684" 
d="M345 388l-186 -175l-37 -213h-85l128 730h85l-71 -405l430 405h109l-308 -289l198 -441h-91z" />
    <glyph glyph-name="L" unicode="L" horiz-adv-x="596" 
d="M165 730h84l-115 -650h376l-14 -80h-459z" />
    <glyph glyph-name="M" unicode="M" horiz-adv-x="861" 
d="M165 730h75l203 -354l340 354h75l-128 -730h-83l103 588l-326 -339l-200 348l-104 -597h-83z" />
    <glyph glyph-name="N" unicode="N" horiz-adv-x="763" 
d="M165 730h87l319 -604l107 604h82l-128 -730h-82l-324 611l-107 -611h-82z" />
    <glyph glyph-name="O" unicode="O" horiz-adv-x="875" 
d="M426 -10q-86 0 -155 33t-115 90t-65 132.5t-4 159.5q13 73 49 134.5t88.5 106t119 69.5t139.5 25q88 0 157 -35.5t114 -93.5t63 -133t4 -154q-13 -73 -48.5 -134t-88 -105.5t-118.5 -69.5t-140 -25zM433 70q57 0 108 20t91.5 55t68.5 83.5t38 104.5q11 61 -2 120
t-47.5 105.5t-88.5 74.5t-125 28q-57 0 -108.5 -20t-92 -55.5t-68 -84t-37.5 -105.5q-11 -66 3 -125t49.5 -104t89 -71t121.5 -26z" />
    <glyph glyph-name="P" unicode="P" horiz-adv-x="684" 
d="M165 730h252q56 0 104.5 -20t82.5 -56t49.5 -87t4.5 -113q-8 -51 -33 -94t-63.5 -74.5t-89.5 -49t-112 -17.5h-201l-38 -219h-84zM236 654l-63 -358h192q43 0 79.5 13t63.5 35.5t44.5 54t23.5 67.5q7 40 -3 74t-32.5 59.5t-57 40t-77.5 14.5h-170z" />
    <glyph glyph-name="Q" unicode="Q" horiz-adv-x="878" 
d="M646 57q-48 -32 -103 -49.5t-115 -17.5q-86 0 -155 33.5t-115.5 90.5t-66 132t-4.5 159q13 73 49 134.5t89 106t119 69.5t138 25q88 0 157.5 -35.5t114.5 -93.5t63.5 -133t4.5 -154q-12 -63 -41.5 -118.5t-73.5 -99.5l72 -106h-95zM435 70q46 0 88.5 13t78.5 37l-131 195
h95l94 -144q29 33 50 73.5t29 88.5q11 61 -2 120t-47.5 105.5t-89 74.5t-124.5 28q-57 0 -108 -20t-91.5 -55.5t-68.5 -84t-38 -105.5q-11 -65 3.5 -124t50 -104t89.5 -71.5t122 -26.5z" />
    <glyph glyph-name="R" unicode="R" horiz-adv-x="698" 
d="M165 730h278q60 0 107 -20t77.5 -55.5t43 -83.5t2.5 -104q-7 -39 -25.5 -73t-45.5 -60.5t-61 -45t-71 -25.5l140 -263h-93l-132 256h-219l-45 -256h-84zM236 655l-57 -325h215q81 0 132.5 39t63.5 109q13 78 -28.5 126.5t-130.5 50.5h-195z" />
    <glyph glyph-name="S" unicode="S" horiz-adv-x="643" 
d="M315 -12q-57 0 -104 11.5t-85.5 32.5t-68.5 49.5t-53 62.5l76 57q39 -65 98 -99.5t140 -34.5q77 0 119.5 33.5t51.5 85.5q7 39 -6.5 64.5t-39.5 43.5t-62 30.5t-75 24.5q-42 13 -81 29.5t-67.5 42t-42.5 62t-4 90.5q6 37 26 68t52 53.5t74.5 35t93.5 12.5
q96 0 165.5 -35.5t117.5 -91.5l-73 -54q-40 51 -92 78.5t-127 27.5q-69 0 -108 -29t-47 -74q-6 -35 5.5 -58.5t35.5 -40.5t58 -29t73 -25q43 -14 84.5 -31.5t72.5 -44t46.5 -65t5.5 -95.5q-7 -39 -28 -73t-54 -59.5t-77.5 -40t-99.5 -14.5z" />
    <glyph glyph-name="T" unicode="T" horiz-adv-x="646" 
d="M234 0l114 652h-228l14 78h540l-13 -78h-229l-114 -652h-84z" />
    <glyph glyph-name="U" unicode="U" horiz-adv-x="723" 
d="M331 -10q-63 0 -114 19.5t-85 56.5t-48 90.5t-2 121.5l80 452h84l-81 -461q-8 -44 0 -80.5t30 -63.5t57.5 -42t84.5 -15q48 0 85.5 14.5t65 40t44.5 60t24 73.5l83 474h84l-83 -473q-11 -62 -36 -111t-64 -84t-91.5 -53.5t-117.5 -18.5z" />
    <glyph glyph-name="V" unicode="V" horiz-adv-x="721" 
d="M269 0l-155 730h84l129 -624l353 624h90l-417 -730h-84z" />
    <glyph glyph-name="W" unicode="W" horiz-adv-x="1082" 
d="M693 0l-101 609l-303 -609h-83l-83 730h86l63 -599l300 599h80l100 -603l281 603h88l-346 -730h-82z" />
    <glyph glyph-name="X" unicode="X" horiz-adv-x="671" 
d="M347 314l-258 -314h-105l323 384l-173 346h91l141 -288l236 288h101l-299 -357l187 -373h-92z" />
    <glyph glyph-name="Y" unicode="Y" horiz-adv-x="675" 
d="M297 303l-193 427h87l160 -356l283 356h98l-353 -438l-51 -292h-84z" />
    <glyph glyph-name="Z" unicode="Z" horiz-adv-x="658" 
d="M16 0l13 77l527 576h-410l13 77h512l-13 -76l-523 -574h426l-14 -80h-531z" />
    <glyph glyph-name="bracketleft" unicode="[" horiz-adv-x="426" 
d="M167 730h273l-14 -78h-189l-142 -804h189l-13 -78h-273z" />
    <glyph glyph-name="backslash" unicode="\" horiz-adv-x="514" 
d="M120 730h87l220 -730h-87z" />
    <glyph glyph-name="bracketright" unicode="]" horiz-adv-x="426" 
d="M7 -152h188l142 804h-188l14 78h273l-169 -960h-274z" />
    <glyph glyph-name="asciicircum" unicode="^" horiz-adv-x="529" 
d="M310 697h59l94 -168h-73l-58 107l-95 -107h-79z" />
    <glyph glyph-name="underscore" unicode="_" horiz-adv-x="500" 
d="M12 -48h370l-12 -70h-372z" />
    <glyph glyph-name="grave" unicode="`" horiz-adv-x="529" 
d="M238 769h94l88 -161h-66z" />
    <glyph glyph-name="a" unicode="a" horiz-adv-x="679" 
d="M302 -11q-63 0 -113.5 25t-83.5 68t-46.5 100t-2.5 120q10 54 36.5 99.5t65 79t87 52t101.5 18.5q78 0 130 -34.5t75 -90.5l21 114h83l-95 -540h-82l15 87q-33 -45 -81 -71.5t-110 -26.5zM318 66q38 0 73 14t62.5 39.5t47 60t26.5 75.5q8 43 -0.5 82.5t-32 70.5t-60 49.5
t-85.5 18.5q-39 0 -74 -14t-63.5 -38.5t-48 -58t-26.5 -73.5q-7 -45 2.5 -85.5t33.5 -72t60.5 -50t84.5 -18.5z" />
    <glyph glyph-name="b" unicode="b" horiz-adv-x="679" 
d="M337 -11q-78 0 -130.5 34.5t-77.5 91.5l-20 -115h-83l138 788h84q-11 -58 -21 -115q-9 -49 -18 -104.5t-17 -100.5q35 38 82 60.5t105 22.5q63 0 113 -25.5t83 -69t46 -100.5t2 -120q-9 -54 -35 -99.5t-64.5 -78.5t-86.5 -51t-100 -18zM334 66q38 0 73 13.5t63 37.5
t47.5 57.5t26.5 72.5q7 43 -2 84.5t-32.5 73.5t-60 51.5t-83.5 19.5q-38 0 -73.5 -14t-64 -39t-48.5 -59.5t-27 -74.5q-8 -43 1.5 -83.5t33.5 -71.5t61 -49.5t85 -18.5z" />
    <glyph glyph-name="c" unicode="c" horiz-adv-x="616" 
d="M315 -11q-68 0 -121 26t-87 69.5t-47.5 100.5t-2.5 119q9 54 36 99.5t66 78t88 51t104 18.5q95 0 155.5 -42t89.5 -109l-78 -36q-20 49 -60.5 80t-110.5 32q-36 0 -71 -13t-63.5 -37t-48.5 -57.5t-27 -74.5q-8 -45 2 -86t34 -72.5t61.5 -50.5t85.5 -19q55 0 100.5 25.5
t74.5 73.5l74 -40q-40 -64 -106 -100t-148 -36z" />
    <glyph glyph-name="d" unicode="d" horiz-adv-x="680" 
d="M301 -11q-63 0 -113 25.5t-83 68.5t-46 100.5t-2 120.5q9 54 35.5 99.5t65 78t87 51t101.5 18.5q78 0 130.5 -34.5t75.5 -90.5l63 362h83l-139 -788h-80l15 85q-35 -43 -84 -69.5t-109 -26.5zM319 66q37 0 72 14t62.5 38.5t47 58.5t26.5 74q8 44 -0.5 84.5t-31.5 71.5
t-60 50t-85 19q-39 0 -74.5 -13.5t-64 -37.5t-48 -58t-26.5 -74q-7 -44 2.5 -85t33.5 -72.5t61 -50.5t85 -19z" />
    <glyph glyph-name="e" unicode="e" horiz-adv-x="650" 
d="M321 -11q-76 0 -131 25t-88.5 67.5t-44.5 99.5t0 122q10 52 36 97.5t65 79t90.5 52.5t112.5 19q63 0 112 -22.5t81 -61.5t45 -91.5t4 -112.5l-4 -22h-468q1 -80 51 -129t144 -49q54 0 95 21t74 60l65 -49q-46 -52 -104 -79t-135 -27zM355 480q-85 -1 -140.5 -46.5
t-74.5 -120.5h387q-1 77 -45 122t-127 45z" />
    <glyph glyph-name="f" unicode="f" horiz-adv-x="383" 
d="M70 540h99l8 43q11 63 26 103t39 62.5t60.5 31t90.5 8.5h44l-14 -77h-37q-32 0 -53.5 -4t-35.5 -17.5t-23 -39t-16 -68.5l-8 -42h144l-13 -73h-144l-82 -467h-80l81 467h-99z" />
    <glyph glyph-name="g" unicode="g" horiz-adv-x="679" 
d="M307 -11q-66 0 -117 25.5t-84.5 69t-46.5 100.5t-2 120q9 54 35.5 99t65 78t86.5 51.5t102 18.5q78 0 130 -35t75 -90l21 114h83l-88 -498q-12 -62 -35 -112t-59 -85t-86 -54t-116 -19q-91 0 -153.5 39.5t-89.5 108.5l85 28q18 -48 58.5 -74.5t106.5 -26.5q43 0 78 14
t61 39.5t42.5 61t23.5 78.5q0 -1 2 8.5t4 24.5q-31 -38 -76.5 -61t-105.5 -23zM319 66q38 0 72.5 14t62.5 38.5t46.5 58.5t25.5 74q8 43 -0.5 83.5t-31.5 72t-60 50.5t-85 19q-39 0 -74 -13.5t-63.5 -38t-48 -58t-26.5 -73.5q-8 -44 2 -85t34 -72.5t61 -50.5t85 -19z" />
    <glyph glyph-name="h" unicode="h" horiz-adv-x="634" 
d="M164 788h83l-59 -329q33 44 80.5 68t107.5 24q54 0 94.5 -18t65.5 -51.5t33.5 -80.5t-1.5 -105l-52 -296h-84l52 296q15 83 -18 132.5t-115 49.5t-128 -49.5t-62 -140.5l-51 -288h-84z" />
    <glyph glyph-name="i" unicode="i" horiz-adv-x="230" 
d="M26 0l95 540h83l-95 -540h-83zM187 641q-31 0 -47.5 22t-10.5 51q4 25 23.5 40.5t42.5 15.5q33 0 49 -23t11 -50q-5 -25 -23.5 -40.5t-44.5 -15.5z" />
    <glyph glyph-name="j" unicode="j" horiz-adv-x="231" 
d="M-122 -154q38 0 62 4.5t40 18.5t25 39.5t17 66.5q0 1 4.5 26.5t11.5 65t16 90t18 103.5q21 123 49 280h84l-100 -566q-10 -60 -24 -99.5t-38 -63t-60.5 -33t-91.5 -9.5h-27zM189 641q-32 0 -48 22t-11 51q4 25 23.5 40.5t43.5 15.5q32 0 47.5 -23t10.5 -50
q-4 -25 -22.5 -40.5t-43.5 -15.5z" />
    <glyph glyph-name="k" unicode="k" horiz-adv-x="571" 
d="M269 266l-134 -115l-26 -151h-83l138 788h83l-94 -536l332 288h109l-261 -228l173 -312h-91z" />
    <glyph glyph-name="l" unicode="l" horiz-adv-x="229" 
d="M164 788h83l-138 -788h-83z" />
    <glyph glyph-name="m" unicode="m" horiz-adv-x="990" 
d="M120 540h81l-15 -84q30 46 74.5 70.5t102.5 24.5q63 0 107.5 -29t61.5 -80q34 53 85.5 81t115.5 28q53 0 93.5 -19t65 -53t33.5 -80.5t-1 -101.5l-53 -297h-83l51 291q7 40 4 74.5t-18 59.5t-42.5 39t-68.5 14q-75 -1 -116 -51t-56 -131l-52 -296h-83l53 301
q14 82 -15.5 129.5t-103.5 47.5q-38 0 -68.5 -14t-53 -38.5t-38 -59t-22.5 -75.5q0 -2 -2.5 -15.5t-6 -34.5t-8 -46.5t-9.5 -52.5q-11 -63 -25 -142h-83z" />
    <glyph glyph-name="n" unicode="n" horiz-adv-x="635" 
d="M120 540h82l-15 -81q32 45 79 68.5t107 23.5q55 0 96.5 -18t67 -51.5t34.5 -80.5t-1 -105l-53 -296h-84l52 296q15 83 -18.5 132.5t-116.5 49.5t-129 -52.5t-62 -141.5l-51 -284h-83z" />
    <glyph glyph-name="o" unicode="o" horiz-adv-x="668" 
d="M315 -11q-66 0 -119 24.5t-88 67.5t-49 101t-2 125q9 52 35.5 96.5t65.5 77.5t89.5 51.5t108.5 18.5q65 0 117.5 -25t87 -68t49 -101.5t2.5 -125.5q-9 -53 -35 -97.5t-64.5 -76.5t-89 -50t-108.5 -18zM316 65q42 0 78 12.5t64.5 35.5t47 55.5t26.5 73.5q8 46 0 88.5
t-31.5 75t-61 52t-88.5 19.5q-43 0 -79 -13t-63.5 -37t-45.5 -57.5t-25 -73.5q-9 -49 0.5 -91t33.5 -73t61 -49t83 -18z" />
    <glyph glyph-name="p" unicode="p" horiz-adv-x="680" 
d="M122 540h81l-16 -90q34 45 83.5 72.5t112.5 27.5q62 0 111.5 -25.5t82 -68.5t45.5 -100t2 -120q-9 -54 -35 -99.5t-64.5 -78.5t-86.5 -51.5t-102 -18.5q-78 0 -130.5 35t-75.5 92l-61 -348h-84zM333 64q39 0 74.5 13.5t63.5 38t47 58t26 72.5q7 44 -2 85t-33 72.5
t-61 50.5t-85 19q-38 0 -72.5 -14t-62 -38.5t-47 -58.5t-26.5 -73q-8 -44 0.5 -84.5t32 -71.5t60.5 -50t85 -19z" />
    <glyph glyph-name="q" unicode="q" horiz-adv-x="680" 
d="M302 -11q-63 0 -113.5 25.5t-83.5 68.5t-46 100.5t-2 120.5q9 54 35.5 99.5t65 78t87 51t101.5 18.5q78 0 130.5 -35t75.5 -92l21 116h83l-137 -771h-82q9 51 19 105q8 46 17.5 99.5t17.5 101.5q-33 -40 -80.5 -63t-108.5 -23zM319 66q37 0 72 14t62.5 38.5t47 58.5
t26.5 74q8 44 -0.5 84.5t-32 71.5t-60 50t-85.5 19q-39 0 -74 -13.5t-63.5 -37.5t-48 -58t-26.5 -74q-7 -44 2.5 -85t33.5 -72.5t61 -50.5t85 -19z" />
    <glyph glyph-name="r" unicode="r" horiz-adv-x="412" 
d="M120 540h80l-19 -106q27 51 70.5 78.5t105.5 27.5h59l-16 -84h-51q-44 0 -77 -13t-56.5 -37t-38.5 -57.5t-22 -73.5l-48 -275h-82z" />
    <glyph glyph-name="s" unicode="s" horiz-adv-x="526" 
d="M245 -11q-44 0 -82 9.5t-69 26t-55.5 38.5t-40.5 46l73 48q25 -42 72 -69t108 -27q56 0 87 23t38 59q4 22 -6 37.5t-29 27.5t-45.5 21t-54.5 18q-34 10 -67 23t-57 33t-35.5 48.5t-3.5 70.5q12 61 65.5 95.5t135.5 34.5q80 0 135.5 -28t94.5 -76l-70 -46q-28 39 -67.5 60
t-99.5 21q-50 0 -78.5 -18.5t-34.5 -51.5q-4 -22 5.5 -37t28 -26.5t44.5 -20.5t55 -18q33 -10 66 -23.5t57 -33.5t36.5 -49.5t5.5 -71.5q-5 -30 -21.5 -56.5t-43.5 -46t-64 -30.5t-83 -11z" />
    <glyph glyph-name="t" unicode="t" horiz-adv-x="383" 
d="M70 540h99l23 129l90 46l-31 -175h137l-13 -73h-137l-46 -259q-8 -41 -7 -67t13 -40.5t37.5 -20t67.5 -5.5h3l-13 -75h-12q-58 0 -96 10t-58 34t-23.5 64t7.5 100l45 259h-99z" />
    <glyph glyph-name="u" unicode="u" horiz-adv-x="610" 
d="M245 -11q-53 0 -91.5 18t-62.5 51t-31.5 80t3.5 105l52 297h84l-52 -295q-14 -81 17.5 -131.5t106.5 -50.5q69 0 116.5 47t63.5 134l53 296h82l-95 -540h-82l14 82q-32 -45 -76.5 -69t-101.5 -24z" />
    <glyph glyph-name="v" unicode="v" horiz-adv-x="566" 
d="M71 540h85l90 -439l253 439h91l-319 -540h-83z" />
    <glyph glyph-name="w" unicode="w" horiz-adv-x="916" 
d="M81 540h83l43 -430l249 430h79l71 -432l232 432h93l-299 -540h-85l-72 427l-253 -427h-83z" />
    <glyph glyph-name="x" unicode="x" horiz-adv-x="589" 
d="M247 281l-153 259h91l121 -207l192 207h105l-256 -269l166 -271h-94l-131 217l-203 -217h-104z" />
    <glyph glyph-name="y" unicode="y" horiz-adv-x="594" 
d="M51 -201q-51 0 -87.5 20t-57.5 52l69 54q13 -22 31.5 -35t49.5 -13q16 0 32 4.5t32.5 16t33.5 32t37 53.5l31 51l-149 506h86l119 -413l242 413h93l-351 -583q-27 -45 -51.5 -75.5t-49 -48.5t-51.5 -26t-59 -8z" />
    <glyph glyph-name="z" unicode="z" horiz-adv-x="580" 
d="M21 74l426 393h-348l14 73h458l-14 -73l-425 -393h361l-13 -74h-472z" />
    <glyph glyph-name="braceleft" unicode="{" horiz-adv-x="441" 
d="M290 -230q-63 0 -103 11t-61.5 36.5t-25 67t7.5 102.5l21 119q5 29 6 49t-6.5 32.5t-25.5 18t-49 5.5l13 78q31 0 50.5 5t31.5 17t19 32t12 50l21 120q11 61 29 102.5t47.5 67t74 36.5t107.5 11h11l-13 -75q-47 0 -77 -6.5t-48.5 -22.5t-29.5 -43.5t-18 -70.5l-21 -120
q-11 -59 -32 -93.5t-63 -50.5q36 -17 45 -51t-1 -90l-21 -119q-8 -43 -7 -70.5t14.5 -43.5t41.5 -22.5t75 -6.5l-14 -75h-11z" />
    <glyph glyph-name="bar" unicode="|" horiz-adv-x="241" 
d="M166 730h84l-169 -960h-85z" />
    <glyph glyph-name="braceright" unicode="}" horiz-adv-x="451" 
d="M1 -155q47 0 77 6.5t49 22.5t29.5 43.5t17.5 70.5l21 118q10 58 31 92.5t63 50.5q-36 17 -45.5 51t1.5 91l22 121q7 43 6.5 70.5t-14 43.5t-41.5 22.5t-74 6.5l13 75h11q63 0 103 -11t61.5 -36.5t25 -67t-7.5 -102.5l-22 -121q-5 -29 -5.5 -49t7 -32.5t25 -18t49.5 -5.5
l-14 -78q-30 0 -49.5 -5t-32 -17t-19.5 -32t-12 -50l-20 -118q-11 -61 -29 -102.5t-48 -67t-74 -36.5t-107 -11h-11z" />
    <glyph glyph-name="asciitilde" unicode="~" horiz-adv-x="500" 
d="M142 586q11 51 41.5 82.5t73.5 31.5q23 0 40.5 -8t32.5 -19q14 -10 27 -17.5t28 -7.5q35 0 47 47h59q-11 -52 -41 -83t-76 -31q-27 0 -45.5 10t-33.5 20q-14 9 -25 15.5t-25 6.5q-34 0 -45 -47h-58v0z" />
    <glyph glyph-name="nonbreakingspace" unicode="&#xa0;" horiz-adv-x="246" 
 />
    <glyph glyph-name="exclamdown" unicode="&#xa1;" horiz-adv-x="267" 
d="M24 -113q9 50 20.5 108t24 114.5t25 107t22.5 86.5h46q-3 -36 -8.5 -86.5t-13 -107t-16 -114.5t-17.5 -108l-20 -117h-83zM160 385q-32 0 -48.5 22t-10.5 51q5 25 24 41t44 16q33 0 49 -22.5t11 -50.5q-5 -25 -24 -41t-45 -16z" />
    <glyph glyph-name="cent" unicode="&#xa2;" horiz-adv-x="626" 
d="M232 0q-45 13 -79.5 40.5t-56 65t-29 82.5t1.5 93q9 47 31.5 87t56 70.5t75.5 49t90 21.5l22 121h83l-23 -127q61 -15 104 -55.5t62 -96.5l-76 -29q-17 49 -56.5 81.5t-100.5 32.5q-32 0 -63.5 -12t-57 -34t-44 -52.5t-24.5 -66.5q-7 -40 1.5 -76.5t30.5 -65t55.5 -45.5
t76.5 -17q54 0 98.5 29.5t69.5 77.5l71 -35q-33 -67 -96 -107t-142 -42l-20 -120h-83z" />
    <glyph glyph-name="sterling" unicode="&#xa3;" horiz-adv-x="758" 
d="M135 394h108q-13 37 -19.5 77t1.5 87q7 41 27.5 74.5t52 57.5t71.5 37t87 13q73 0 123.5 -27.5t78.5 -78.5l-77 -30q-42 64 -129 64q-60 0 -100.5 -32.5t-49.5 -83.5q-8 -42 0 -81t21 -77h203l-11 -66h-169q11 -36 16.5 -73t-1.5 -79q-3 -16 -7.5 -32t-12.5 -32
q29 -22 60 -37.5t66 -15.5q54 0 81 27.5t39 94.5l7 36h86l-9 -46q-16 -88 -60.5 -134.5t-132.5 -46.5q-54 0 -95 21t-76 47q-26 -30 -62.5 -49.5t-86.5 -19.5q-32 0 -58 8.5t-43.5 24.5t-24.5 39.5t-2 52.5q8 38 39.5 62.5t82.5 25.5q38 0 70.5 -14t61.5 -34q2 6 4 16
q8 42 -2 80.5t-25 77.5h-144zM165 41q31 0 56.5 15t43.5 41q-26 20 -51 33.5t-51 13.5t-41.5 -12t-19.5 -31q-5 -26 13 -43t50 -17z" />
    <glyph glyph-name="currency" unicode="&#xa4;" horiz-adv-x="815" 
d="M552 139q-31 -18 -66 -28t-73 -9q-48 1 -89.5 17t-74.5 44l-127 -115l-50 55l129 116q-21 32 -32.5 69t-10.5 79q1 48 17 90t45 75l-85 102l58 51l87 -103q63 40 142 40q46 -1 87 -16.5t74 -42.5l120 109l49 -54l-119 -110q22 -32 33.5 -70t10.5 -80q-1 -50 -18.5 -93
t-47.5 -77l79 -92l-58 -51zM413 178q37 -1 70 13t57.5 38.5t39 57.5t15.5 71t-12 72t-36.5 59.5t-55.5 40.5t-69 16q-38 1 -70.5 -13t-57 -38t-39 -57.5t-15.5 -71.5t12 -71.5t36.5 -59t55.5 -41t69 -16.5z" />
    <glyph glyph-name="yen" unicode="&#xa5;" horiz-adv-x="679" 
d="M155 376h162l-175 354h89l139 -289l240 289h96l-300 -354h162l-12 -68h-166l-19 -107h166l-12 -68h-165l-23 -133h-83l23 133h-165l12 68h164l19 107h-165z" />
    <glyph glyph-name="brokenbar" unicode="&#xa6;" horiz-adv-x="241" 
d="M167 730h84l-74 -420h-84zM72 190h84l-74 -420h-84z" />
    <glyph glyph-name="section" unicode="&#xa7;" horiz-adv-x="633" 
d="M291 -10q-45 0 -84.5 11t-70 29.5t-51.5 42.5t-30 50l85 24q7 -19 22.5 -35t36.5 -28t46 -18.5t52 -6.5q53 0 89.5 20t43.5 58q4 23 -7 38.5t-32.5 26t-51.5 18.5t-63 16q-47 12 -84.5 26t-62.5 33.5t-36 46t-4 63.5q6 36 36.5 62.5t76.5 37.5q-20 19 -29.5 43.5
t-4.5 56.5q12 66 71.5 101.5t147.5 33.5q39 0 72.5 -8.5t60 -23.5t45 -34.5t27.5 -40.5l-83 -25q-11 28 -45.5 47.5t-82.5 19.5q-53 0 -90 -16.5t-43 -56.5q-4 -21 6.5 -36.5t31.5 -27t50 -20t62 -16.5q43 -11 81 -23.5t64.5 -31t39.5 -44.5t7 -62q-8 -38 -37.5 -66
t-70.5 -41q19 -17 27.5 -40t3.5 -54q-5 -37 -24 -65t-48.5 -47.5t-68 -29t-81.5 -8.5zM329 299q56 -14 99 -32q33 9 53 27t25 41q4 21 -7 36t-32.5 27t-53 21.5t-68.5 19.5q-24 6 -48.5 14t-46.5 19q-34 -9 -54 -26.5t-23 -40.5q-4 -21 6.5 -37t31.5 -28.5t51.5 -22
t66.5 -18.5z" />
    <glyph glyph-name="dieresis" unicode="&#xa8;" horiz-adv-x="531" 
d="M246 618q-28 0 -42.5 18t-9.5 44q4 22 21 35.5t38 13.5q29 0 42.5 -19.5t8.5 -43.5q-3 -22 -19 -35t-39 -13zM426 618q-27 0 -41.5 18t-9.5 44q3 22 20.5 35.5t38.5 13.5q28 0 42 -19.5t9 -43.5q-4 -22 -20 -35t-39 -13z" />
    <glyph glyph-name="copyright" unicode="&#xa9;" horiz-adv-x="880" 
d="M434 -10q-85 0 -154.5 33.5t-115.5 90.5t-65.5 132t-5.5 159q13 73 49.5 134.5t89 106t118.5 69.5t138 25q85 0 154.5 -34t115.5 -91t65.5 -132.5t4.5 -158.5q-13 -72 -49 -133.5t-88.5 -106t-118.5 -69.5t-138 -25zM442 61q58 0 110 20.5t94 57t70.5 86.5t39.5 109
q11 64 -2.5 124.5t-49 108t-91.5 76.5t-128 29q-60 0 -113 -21t-95.5 -57.5t-71.5 -87t-39 -109.5q-11 -65 3.5 -125.5t50.5 -107.5t92.5 -75t129.5 -28zM448 167q-46 0 -82.5 17.5t-60 47.5t-33 69.5t-1.5 83.5q7 38 26.5 71t48 57t65 38t76.5 14q58 0 100 -28.5t61 -74.5
l-69 -32q-12 30 -35 47.5t-64 17.5q-24 0 -47 -8.5t-41.5 -24t-31.5 -37t-17 -47.5q-5 -27 0.5 -52t20 -45t37.5 -32t54 -12q35 0 64.5 18t47.5 48l64 -31q-26 -48 -72.5 -76.5t-110.5 -28.5z" />
    <glyph glyph-name="ordfeminine" unicode="&#xaa;" horiz-adv-x="448" 
d="M348 476q-18 -29 -47 -46.5t-68 -17.5q-31 0 -57.5 12t-45 34t-27 54t-2.5 72q6 38 22.5 67t40 48t51 28.5t55.5 9.5q45 0 73.5 -20.5t39.5 -51.5l11 65h64l-57 -313h-63zM254 470q21 0 40 8t34 22t25.5 33t13.5 40q4 21 -1 40.5t-17.5 34.5t-31 23.5t-41.5 8.5
q-44 0 -76 -27t-39 -70q-7 -48 19 -80.5t74 -32.5z" />
    <glyph glyph-name="guillemotleft" unicode="&#xab;" horiz-adv-x="495" 
d="M77 225l9 53l177 119l-11 -67l-122 -81l94 -80l-12 -63zM251 225l10 53l177 119l-11 -67l-123 -81l94 -80l-11 -63z" />
    <glyph glyph-name="logicalnot" unicode="&#xac;" horiz-adv-x="655" 
d="M539 451h-452l14 79h535l-59 -326h-83z" />
    <glyph glyph-name="uni00AD" unicode="&#xad;" horiz-adv-x="500" 
d="M73 291h370l-13 -71h-370z" />
    <glyph glyph-name="registered" unicode="&#xae;" horiz-adv-x="881" 
d="M413 -130q-86 0 -155 33.5t-115 90t-65.5 132t-5.5 159.5q13 73 49 134.5t89 106t119 69.5t138 25q85 0 154 -34t115 -91t65.5 -132.5t4.5 -158.5q-12 -72 -48 -133.5t-88.5 -106t-118.5 -69.5t-138 -25zM420 -60q58 0 110.5 20.5t94.5 57.5t70.5 87t39.5 109
q11 63 -2.5 124t-49 108t-91.5 76t-128 29q-60 0 -113 -20.5t-95.5 -57t-71.5 -87t-39 -109.5q-11 -65 3.5 -126t50.5 -108t92.5 -75t128.5 -28zM331 435h163q33 0 59 -11.5t43 -30t24.5 -43t3.5 -51.5q-8 -45 -37 -73t-75 -36l65 -129h-81l-84 180h57q29 0 52 16.5t28 46.5
q5 32 -16 49.5t-54 18.5h-83l-54 -311h-77z" />
    <glyph glyph-name="macron" unicode="&#xaf;" horiz-adv-x="529" 
d="M218 695h264l-12 -64h-264z" />
    <glyph glyph-name="degree" unicode="&#xb0;" horiz-adv-x="461" 
d="M290 475q-27 0 -51.5 10.5t-42.5 28.5t-28.5 42.5t-10.5 51.5t10.5 51t28.5 42t42.5 28.5t51.5 10.5q28 0 52 -10.5t42 -28.5t28.5 -42t10.5 -51t-10.5 -51.5t-28.5 -42.5t-42 -28.5t-52 -10.5zM290 544q26 0 44.5 18.5t18.5 44.5t-18.5 44.5t-44.5 18.5t-44.5 -18.5
t-18.5 -44.5t18.5 -44.5t44.5 -18.5z" />
    <glyph glyph-name="plusminus" unicode="&#xb1;" horiz-adv-x="500" 
d="M105 502h150l26 149h71l-26 -149h149l-13 -71h-149l-26 -150h-71l26 150h-150zM52 198h370l-13 -71h-370z" />
    <glyph glyph-name="twosuperior" unicode="&#xb2;" horiz-adv-x="369" 
d="M67 369q5 28 19 51t33.5 42t43.5 34t50 29q19 10 37 20.5t32 21t23.5 22.5t12.5 26q5 26 -13 42.5t-50 16.5q-30 0 -52.5 -16.5t-35.5 -42.5l-63 27q23 42 61.5 68t95.5 26q32 0 57.5 -10t42.5 -27.5t24 -41.5t2 -51q-4 -24 -17 -43.5t-31.5 -35t-40.5 -29t-45 -25.5
q-44 -24 -74 -45t-35 -52h203l-12 -68h-279z" />
    <glyph glyph-name="threesuperior" unicode="&#xb3;" horiz-adv-x="362" 
d="M198 302q-54 0 -95.5 22t-61.5 57l69 39q11 -23 35 -37t57 -14q34 0 54.5 15.5t25.5 44.5t-16.5 46t-60.5 17h-39l11 66h40q40 0 61.5 15t26.5 40q5 28 -12 44t-54 16q-29 0 -49.5 -11.5t-33.5 -30.5l-59 40q23 27 60.5 46t87.5 19q34 0 60 -10t43.5 -27t24.5 -40t3 -49
q-5 -29 -24 -50.5t-49 -35.5q30 -17 44.5 -44.5t7.5 -65.5q-9 -53 -50 -82.5t-107 -29.5z" />
    <glyph glyph-name="acute" unicode="&#xb4;" horiz-adv-x="529" 
d="M356 769h94l-171 -161h-69z" />
    <glyph glyph-name="mu" unicode="&#xb5;" horiz-adv-x="614" 
d="M124 540h84q-16 -83 -27 -148q-5 -28 -10 -54.5t-8.5 -48t-6 -35t-2.5 -14.5q-14 -78 16 -127.5t106 -49.5q69 0 116.5 47t62.5 134l53 296h83l-95 -540h-83l15 87q-28 -48 -69 -73t-100 -25q-50 0 -84.5 17t-54.5 48l-51 -294h-84z" />
    <glyph glyph-name="mu" unicode="&#x3bc;" horiz-adv-x="614" 
d="M124 540h84q-16 -83 -27 -148q-5 -28 -10 -54.5t-8.5 -48t-6 -35t-2.5 -14.5q-14 -78 16 -127.5t106 -49.5q69 0 116.5 47t62.5 134l53 296h83l-95 -540h-83l15 87q-28 -48 -69 -73t-100 -25q-50 0 -84.5 17t-54.5 48l-51 -294h-84z" />
    <glyph glyph-name="paragraph" unicode="&#xb6;" 
d="M364 302h-84q-48 1 -86.5 19.5t-63 49.5t-34.5 73t-2 89q8 43 30.5 79t55.5 62t74 41t86 15h304l-128 -730h-72l115 654h-61l-115 -654h-72z" />
    <glyph glyph-name="periodcentered" unicode="&#xb7;" horiz-adv-x="231" 
d="M113 192q-31 0 -46.5 20.5t-10.5 48.5q4 24 22.5 39t41.5 15q32 0 47 -21.5t10 -47.5q-5 -24 -22 -39t-42 -15z" />
    <glyph glyph-name="cedilla" unicode="&#xb8;" horiz-adv-x="529" 
d="M182 -232q-50 0 -86.5 15.5t-59.5 41.5l62 35q17 -17 37.5 -27t50.5 -10q31 0 50 10t23 29q8 41 -68 41h-40l18 97h62l-10 -52q59 -3 84 -29.5t19 -63.5q-7 -42 -46.5 -64.5t-95.5 -22.5z" />
    <glyph glyph-name="onesuperior" unicode="&#xb9;" horiz-adv-x="244" 
d="M117 308l56 314q-13 -26 -37.5 -39.5t-56.5 -13.5h-6l13 73h3q43 0 69.5 23.5t33.5 64.5h71l-74 -422h-72z" />
    <glyph glyph-name="ordmasculine" unicode="&#xba;" horiz-adv-x="421" 
d="M249 411q-35 0 -64.5 13.5t-49.5 37t-29.5 55t-4.5 66.5q4 33 19 61t38 48.5t52 32t61 11.5q36 0 65.5 -14t49.5 -37.5t30 -55t6 -67.5q-5 -33 -20.5 -60.5t-38.5 -47.5t-52 -31.5t-62 -11.5zM253 470q40 0 70.5 26.5t36.5 67.5q3 21 -2 41.5t-17 36.5t-30.5 25.5
t-42.5 9.5q-41 0 -71.5 -27.5t-35.5 -68.5q-4 -22 1 -42t17 -35.5t31 -24.5t43 -9z" />
    <glyph glyph-name="guillemotright" unicode="&#xbb;" horiz-adv-x="495" 
d="M421 277l-10 -53l-177 -119l12 67l121 81l-93 80l12 63zM246 277l-10 -53l-177 -119l12 67l121 80l-93 81l12 63z" />
    <glyph glyph-name="onequarter" unicode="&#xbc;" horiz-adv-x="786" 
d="M571 94h-191l11 65l236 263h71l-47 -264h70l-12 -64h-69l-16 -94h-69zM582 158l27 156l-137 -156h110zM128 308l56 314q-13 -26 -37.5 -39.5t-56.5 -13.5h-6l13 73h3q43 0 69.5 23.5t33.5 64.5h71l-74 -422h-72zM654 730h100l-652 -730h-100z" />
    <glyph glyph-name="onehalf" unicode="&#xbd;" horiz-adv-x="842" 
d="M467 61q5 28 19 51t33.5 42t43.5 34t50 29q19 10 37 20.5t32 21t23.5 22.5t12.5 26q5 26 -13 42.5t-50 16.5q-30 0 -52.5 -16.5t-35.5 -42.5l-63 27q23 42 61.5 68t95.5 26q32 0 57.5 -10t42.5 -27.5t24 -41.5t2 -51q-4 -24 -17 -43.5t-31.5 -35t-40.5 -29t-45 -25.5
q-44 -24 -74 -45t-35 -52h203l-12 -68h-279zM128 308l56 314q-13 -26 -37.5 -39.5t-56.5 -13.5h-6l13 73h3q43 0 69.5 23.5t33.5 64.5h71l-74 -422h-72zM654 730h100l-652 -730h-100z" />
    <glyph glyph-name="threequarters" unicode="&#xbe;" horiz-adv-x="904" 
d="M689 94h-191l11 65l236 263h71l-47 -264h70l-12 -64h-69l-16 -94h-69zM700 158l27 156l-137 -156h110zM773 730h100l-652 -730h-100zM210 304q-54 0 -95.5 22t-61.5 57l69 39q11 -23 35 -37t57 -14q34 0 54.5 15.5t25.5 44.5t-16.5 46t-60.5 17h-39l11 66h40
q40 0 61.5 15t26.5 40q5 28 -12 44t-54 16q-29 0 -49.5 -11.5t-33.5 -30.5l-59 40q23 27 60.5 46t87.5 19q34 0 60 -10t43.5 -27t24.5 -40t3 -49q-5 -29 -24 -50.5t-49 -35.5q30 -17 44.5 -44.5t7.5 -65.5q-9 -53 -50 -82.5t-107 -29.5z" />
    <glyph glyph-name="questiondown" unicode="&#xbf;" horiz-adv-x="558" 
d="M222 -241q-50 0 -91 15.5t-68.5 43t-39 65t-3.5 80.5q7 42 26.5 69t45 47t54 37.5t55 41t47 57t30.5 86.5l2 9h75l-2 -9q-11 -63 -32.5 -104t-47 -69t-53.5 -46.5t-52 -35.5t-42 -37.5t-23 -51.5q-5 -29 2.5 -52t25 -39t42.5 -25t56 -9q42 0 77.5 17.5t58.5 44.5l62 -47
q-32 -39 -86.5 -63.5t-118.5 -24.5zM335 385q-32 0 -49 22t-11 51q5 25 24.5 40.5t43.5 15.5q33 0 49 -22.5t11 -49.5q-5 -26 -23.5 -41.5t-44.5 -15.5z" />
    <glyph glyph-name="Agrave" unicode="&#xc0;" horiz-adv-x="730" 
d="M407 730h85l159 -730h-84l-39 183h-348l-104 -183h-90zM225 262h286l-77 368zM304 959h94l88 -161h-66z" />
    <glyph glyph-name="Aacute" unicode="&#xc1;" horiz-adv-x="730" 
d="M407 730h85l159 -730h-84l-39 183h-348l-104 -183h-90zM225 262h286l-77 368zM572 959h94l-171 -161h-69z" />
    <glyph glyph-name="Acircumflex" unicode="&#xc2;" horiz-adv-x="730" 
d="M407 730h85l159 -730h-84l-39 183h-348l-104 -183h-90zM225 262h286l-77 368zM453 959h63l91 -161h-76l-56 102l-92 -102h-77z" />
    <glyph glyph-name="Atilde" unicode="&#xc3;" horiz-adv-x="730" 
d="M407 730h85l159 -730h-84l-39 183h-348l-104 -183h-90zM225 262h286l-77 368zM287 805q9 53 40 85.5t76 32.5q26 0 44 -8t35 -19q16 -11 30.5 -20t32.5 -9q38 0 48 52h59q-11 -54 -41 -86t-77 -32q-30 0 -50.5 11t-37.5 22q-13 9 -26 16t-29 7q-37 0 -46 -52h-58z" />
    <glyph glyph-name="Adieresis" unicode="&#xc4;" horiz-adv-x="730" 
d="M407 730h85l159 -730h-84l-39 183h-348l-104 -183h-90zM225 262h286l-77 368zM371 808q-28 0 -42.5 18t-9.5 44q4 22 21 35.5t38 13.5q29 0 42.5 -19.5t8.5 -43.5q-3 -22 -19 -35t-39 -13zM551 808q-27 0 -41.5 18t-9.5 44q3 22 20.5 35.5t38.5 13.5q28 0 42 -19.5
t9 -43.5q-4 -22 -20 -35t-39 -13z" />
    <glyph glyph-name="Aring" unicode="&#xc5;" horiz-adv-x="730" 
d="M389 700q-20 17 -28.5 43t-0.5 57q10 38 41 62t69 24q24 0 43.5 -10t32 -26.5t17 -38t-1.5 -44.5q-7 -26 -22.5 -46t-38.5 -31l151 -690h-84l-39 183h-348l-104 -183h-90zM225 262h286l-77 368zM458 730q19 2 34 15t19 30q5 23 -8 41.5t-38 18.5q-19 0 -34.5 -13
t-20.5 -32q-5 -23 7 -41.5t37 -18.5h4z" />
    <glyph glyph-name="AE" unicode="&#xc6;" horiz-adv-x="1010" 
d="M473 730h540l-13 -79h-434l8 -245h382l-14 -79h-366l9 -247h314l-14 -80h-380l-6 178h-300l-119 -178h-95zM251 255h246l-11 351z" />
    <glyph glyph-name="Ccedilla" unicode="&#xc7;" horiz-adv-x="815" 
d="M407 -237q-50 0 -86.5 15.5t-59.5 41.5l62 35q17 -17 37.5 -27t50.5 -10q31 0 50 10t23 29q8 41 -68 41h-40l17 94q-83 7 -146.5 42.5t-103.5 91t-55 127.5t-1 152q12 72 48 133.5t89.5 106.5t121.5 70t145 25q115 0 193 -49t122 -143l-80 -38q-17 39 -39 67.5
t-51.5 46.5t-67 27t-86.5 9q-58 0 -110.5 -20t-93.5 -55t-69.5 -83.5t-38.5 -106.5q-11 -65 2.5 -124t48.5 -103.5t90.5 -71t127.5 -26.5q75 0 139.5 34t109.5 97l72 -49q-57 -75 -133.5 -115.5t-171.5 -45.5l-9 -48q59 -3 84 -29.5t19 -63.5q-7 -42 -46.5 -64.5
t-95.5 -22.5z" />
    <glyph glyph-name="Egrave" unicode="&#xc8;" horiz-adv-x="631" 
d="M165 730h478l-14 -78h-396l-42 -245h395l-14 -79h-395l-44 -249h396l-14 -79h-478zM277 959h94l88 -161h-66z" />
    <glyph glyph-name="Eacute" unicode="&#xc9;" horiz-adv-x="631" 
d="M165 730h478l-14 -78h-396l-42 -245h395l-14 -79h-395l-44 -249h396l-14 -79h-478zM530 959h94l-171 -161h-69z" />
    <glyph glyph-name="Ecircumflex" unicode="&#xca;" horiz-adv-x="631" 
d="M165 730h478l-14 -78h-396l-42 -245h395l-14 -79h-395l-44 -249h396l-14 -79h-478zM412 959h63l91 -161h-76l-56 102l-92 -102h-77z" />
    <glyph glyph-name="Edieresis" unicode="&#xcb;" horiz-adv-x="631" 
d="M165 730h478l-14 -78h-396l-42 -245h395l-14 -79h-395l-44 -249h396l-14 -79h-478zM331 808q-28 0 -42.5 18t-9.5 44q4 22 21 35.5t38 13.5q29 0 42.5 -19.5t8.5 -43.5q-3 -22 -19 -35t-39 -13zM511 808q-27 0 -41.5 18t-9.5 44q3 22 20.5 35.5t38.5 13.5q28 0 42 -19.5
t9 -43.5q-4 -22 -20 -35t-39 -13z" />
    <glyph glyph-name="Igrave" unicode="&#xcc;" horiz-adv-x="269" 
d="M174 730h84l-128 -730h-84zM88 959h94l88 -161h-66z" />
    <glyph glyph-name="Iacute" unicode="&#xcd;" horiz-adv-x="269" 
d="M174 730h84l-128 -730h-84zM341 959h94l-171 -161h-69z" />
    <glyph glyph-name="Icircumflex" unicode="&#xce;" horiz-adv-x="269" 
d="M174 730h84l-128 -730h-84zM223 959h63l91 -161h-76l-56 102l-92 -102h-77z" />
    <glyph glyph-name="Idieresis" unicode="&#xcf;" horiz-adv-x="269" 
d="M174 730h84l-128 -730h-84zM142 808q-28 0 -42.5 18t-9.5 44q4 22 21 35.5t38 13.5q29 0 42.5 -19.5t8.5 -43.5q-3 -22 -19 -35t-39 -13zM322 808q-27 0 -41.5 18t-9.5 44q3 22 20.5 35.5t38.5 13.5q28 0 42 -19.5t9 -43.5q-4 -22 -20 -35t-39 -13z" />
    <glyph glyph-name="Eth" unicode="&#xd0;" horiz-adv-x="755" 
d="M55 412h73l56 318h201q80 -1 145.5 -32t109.5 -84.5t62.5 -123.5t4.5 -149q-13 -73 -48.5 -135.5t-88.5 -108t-120.5 -71.5t-143.5 -26h-250l61 347h-76zM201 347l-47 -269h158q57 0 109 20.5t93.5 56.5t70 85.5t38.5 107.5q10 62 -3.5 117.5t-47 97t-84 66t-114.5 24.5
h-120l-42 -241h209l-13 -65h-207z" />
    <glyph glyph-name="Ntilde" unicode="&#xd1;" horiz-adv-x="763" 
d="M165 730h87l319 -604l107 604h82l-128 -730h-82l-324 611l-107 -611h-82zM592 947h94l-171 -161h-69z" />
    <glyph glyph-name="Ograve" unicode="&#xd2;" horiz-adv-x="875" 
d="M426 -10q-86 0 -155 33t-115 90t-65 132.5t-4 159.5q13 73 49 134.5t88.5 106t119 69.5t139.5 25q88 0 157 -35.5t114 -93.5t63 -133t4 -154q-13 -73 -48.5 -134t-88 -105.5t-118.5 -69.5t-140 -25zM433 70q57 0 108 20t91.5 55t68.5 83.5t38 104.5q11 61 -2 120
t-47.5 105.5t-88.5 74.5t-125 28q-57 0 -108.5 -20t-92 -55.5t-68 -84t-37.5 -105.5q-11 -66 3 -125t49.5 -104t89 -71t121.5 -26zM355 964h94l88 -161h-66z" />
    <glyph glyph-name="Oacute" unicode="&#xd3;" horiz-adv-x="875" 
d="M426 -10q-86 0 -155 33t-115 90t-65 132.5t-4 159.5q13 73 49 134.5t88.5 106t119 69.5t139.5 25q88 0 157 -35.5t114 -93.5t63 -133t4 -154q-13 -73 -48.5 -134t-88 -105.5t-118.5 -69.5t-140 -25zM433 70q57 0 108 20t91.5 55t68.5 83.5t38 104.5q11 61 -2 120
t-47.5 105.5t-88.5 74.5t-125 28q-57 0 -108.5 -20t-92 -55.5t-68 -84t-37.5 -105.5q-11 -66 3 -125t49.5 -104t89 -71t121.5 -26zM328 810q9 53 40 85.5t76 32.5q26 0 44 -8t35 -19q16 -11 30.5 -20t32.5 -9q38 0 48 52h59q-11 -54 -41 -86t-77 -32q-30 0 -50.5 11
t-37.5 22q-13 9 -26 16t-29 7q-37 0 -46 -52h-58z" />
    <glyph glyph-name="Ocircumflex" unicode="&#xd4;" horiz-adv-x="875" 
d="M426 -10q-86 0 -155 33t-115 90t-65 132.5t-4 159.5q13 73 49 134.5t88.5 106t119 69.5t139.5 25q88 0 157 -35.5t114 -93.5t63 -133t4 -154q-13 -73 -48.5 -134t-88 -105.5t-118.5 -69.5t-140 -25zM433 70q57 0 108 20t91.5 55t68.5 83.5t38 104.5q11 61 -2 120
t-47.5 105.5t-88.5 74.5t-125 28q-57 0 -108.5 -20t-92 -55.5t-68 -84t-37.5 -105.5q-11 -66 3 -125t49.5 -104t89 -71t121.5 -26zM490 964h63l91 -161h-76l-56 102l-92 -102h-77z" />
    <glyph glyph-name="Otilde" unicode="&#xd5;" horiz-adv-x="875" 
d="M426 -10q-86 0 -155 33t-115 90t-65 132.5t-4 159.5q13 73 49 134.5t88.5 106t119 69.5t139.5 25q88 0 157 -35.5t114 -93.5t63 -133t4 -154q-13 -73 -48.5 -134t-88 -105.5t-118.5 -69.5t-140 -25zM433 70q57 0 108 20t91.5 55t68.5 83.5t38 104.5q11 61 -2 120
t-47.5 105.5t-88.5 74.5t-125 28q-57 0 -108.5 -20t-92 -55.5t-68 -84t-37.5 -105.5q-11 -66 3 -125t49.5 -104t89 -71t121.5 -26zM328 810q9 53 40 85.5t76 32.5q26 0 44 -8t35 -19q16 -11 30.5 -20t32.5 -9q38 0 48 52h59q-11 -54 -41 -86t-77 -32q-30 0 -50.5 11
t-37.5 22q-13 9 -26 16t-29 7q-37 0 -46 -52h-58z" />
    <glyph glyph-name="Odieresis" unicode="&#xd6;" horiz-adv-x="875" 
d="M426 -10q-86 0 -155 33t-115 90t-65 132.5t-4 159.5q13 73 49 134.5t88.5 106t119 69.5t139.5 25q88 0 157 -35.5t114 -93.5t63 -133t4 -154q-13 -73 -48.5 -134t-88 -105.5t-118.5 -69.5t-140 -25zM433 70q57 0 108 20t91.5 55t68.5 83.5t38 104.5q11 61 -2 120
t-47.5 105.5t-88.5 74.5t-125 28q-57 0 -108.5 -20t-92 -55.5t-68 -84t-37.5 -105.5q-11 -66 3 -125t49.5 -104t89 -71t121.5 -26zM409 813q-28 0 -42.5 18t-9.5 44q4 22 21 35.5t38 13.5q29 0 42.5 -19.5t8.5 -43.5q-3 -22 -19 -35t-39 -13zM589 813q-27 0 -41.5 18
t-9.5 44q3 22 20.5 35.5t38.5 13.5q28 0 42 -19.5t9 -43.5q-4 -22 -20 -35t-39 -13z" />
    <glyph glyph-name="multiply" unicode="&#xd7;" horiz-adv-x="500" 
d="M74 244l143 122l-99 121l57 48l99 -121l141 120l42 -50l-141 -120l98 -119l-58 -48l-97 118l-143 -121z" />
    <glyph glyph-name="Oslash" unicode="&#xd8;" horiz-adv-x="875" 
d="M426 -10q-63 0 -117 18.5t-98 50.5l-72 -76l-44 38l73 78q-53 57 -75.5 136t-5.5 170q13 73 49 134.5t88.5 106t119 69.5t139.5 25q66 0 121.5 -20.5t98.5 -55.5l77 81l44 -37l-80 -85q51 -60 71.5 -137.5t5.5 -161.5q-13 -73 -48.5 -134t-88 -105.5t-118.5 -69.5
t-140 -25zM170 396q-12 -69 3.5 -129.5t53.5 -105.5l419 443q-33 26 -75.5 41.5t-94.5 15.5q-57 0 -108.5 -20t-92 -55.5t-68 -84t-37.5 -105.5zM433 70q57 0 108 20t91.5 55t68.5 83.5t38 104.5q11 63 -3 122.5t-50 106.5l-416 -441q32 -24 73.5 -37.5t89.5 -13.5z" />
    <glyph glyph-name="Ugrave" unicode="&#xd9;" horiz-adv-x="723" 
d="M331 -10q-63 0 -114 19.5t-85 56.5t-48 90.5t-2 121.5l80 452h84l-81 -461q-8 -44 0 -80.5t30 -63.5t57.5 -42t84.5 -15q48 0 85.5 14.5t65 40t44.5 60t24 73.5l83 474h84l-83 -473q-11 -62 -36 -111t-64 -84t-91.5 -53.5t-117.5 -18.5zM308 948h94l88 -161h-66z" />
    <glyph glyph-name="Uacute" unicode="&#xda;" horiz-adv-x="723" 
d="M331 -10q-63 0 -114 19.5t-85 56.5t-48 90.5t-2 121.5l80 452h84l-81 -461q-8 -44 0 -80.5t30 -63.5t57.5 -42t84.5 -15q48 0 85.5 14.5t65 40t44.5 60t24 73.5l83 474h84l-83 -473q-11 -62 -36 -111t-64 -84t-91.5 -53.5t-117.5 -18.5zM562 948h94l-171 -161h-69z" />
    <glyph glyph-name="Ucircumflex" unicode="&#xdb;" horiz-adv-x="723" 
d="M331 -10q-63 0 -114 19.5t-85 56.5t-48 90.5t-2 121.5l80 452h84l-81 -461q-8 -44 0 -80.5t30 -63.5t57.5 -42t84.5 -15q48 0 85.5 14.5t65 40t44.5 60t24 73.5l83 474h84l-83 -473q-11 -62 -36 -111t-64 -84t-91.5 -53.5t-117.5 -18.5zM443 948h63l91 -161h-76l-56 102
l-92 -102h-77z" />
    <glyph glyph-name="Udieresis" unicode="&#xdc;" horiz-adv-x="723" 
d="M331 -10q-63 0 -114 19.5t-85 56.5t-48 90.5t-2 121.5l80 452h84l-81 -461q-8 -44 0 -80.5t30 -63.5t57.5 -42t84.5 -15q48 0 85.5 14.5t65 40t44.5 60t24 73.5l83 474h84l-83 -473q-11 -62 -36 -111t-64 -84t-91.5 -53.5t-117.5 -18.5zM362 797q-28 0 -42.5 18t-9.5 44
q4 22 21 35.5t38 13.5q29 0 42.5 -19.5t8.5 -43.5q-3 -22 -19 -35t-39 -13zM542 797q-27 0 -41.5 18t-9.5 44q3 22 20.5 35.5t38.5 13.5q28 0 42 -19.5t9 -43.5q-4 -22 -20 -35t-39 -13z" />
    <glyph glyph-name="Yacute" unicode="&#xdd;" horiz-adv-x="675" 
d="M297 303l-193 427h87l160 -356l283 356h98l-353 -438l-51 -292h-84zM528 947h94l-171 -161h-69z" />
    <glyph glyph-name="Thorn" unicode="&#xde;" horiz-adv-x="620" 
d="M161 730h85l-25 -144h144q45 0 85 -16.5t68 -46.5t41 -72t4 -93q-7 -42 -27.5 -77.5t-52 -61.5t-73.5 -40.5t-92 -14.5h-171l-29 -164h-85zM207 509l-47 -268h163q66 0 107 37t51 91q5 29 -2.5 54.5t-24.5 44.5t-43 30t-57 11h-147z" />
    <glyph glyph-name="germandbls" unicode="&#xdf;" horiz-adv-x="604" 
d="M-120 -171q37 0 62 7t41.5 23t26.5 41t16 61l109 614q18 105 76 162t161 57q52 0 91.5 -19.5t65 -52t35 -73.5t1.5 -84q-11 -58 -49.5 -97.5t-87.5 -57.5q33 -11 58 -32.5t40 -50.5t20 -63t-1 -68q-8 -45 -28 -82.5t-51.5 -64.5t-73.5 -42.5t-93 -15.5q-18 0 -36.5 3.5
t-35.5 9t-31 12t-23 13.5l18 71q17 -14 47 -23.5t58 -9.5q33 0 61.5 10.5t50 29t35.5 43.5t19 55q6 34 -1.5 64.5t-26.5 53t-49 35.5t-69 13h-20l12 77h21q27 0 52.5 8.5t47 24.5t36.5 39t21 53q5 28 -0.5 55t-21 47t-40 32.5t-56.5 12.5q-56 0 -96 -36t-51 -103l-111 -619
q-10 -56 -26.5 -95.5t-43 -65t-64.5 -37.5t-90 -12h-19z" />
    <glyph glyph-name="agrave" unicode="&#xe0;" horiz-adv-x="679" 
d="M302 -11q-63 0 -113.5 25t-83.5 68t-46.5 100t-2.5 120q10 54 36.5 99.5t65 79t87 52t101.5 18.5q78 0 130 -34.5t75 -90.5l21 114h83l-95 -540h-82l15 87q-33 -45 -81 -71.5t-110 -26.5zM318 66q38 0 73 14t62.5 39.5t47 60t26.5 75.5q8 43 -0.5 82.5t-32 70.5t-60 49.5
t-85.5 18.5q-39 0 -74 -14t-63.5 -38.5t-48 -58t-26.5 -73.5q-7 -45 2.5 -85.5t33.5 -72t60.5 -50t84.5 -18.5zM223 775h94l88 -161h-66z" />
    <glyph glyph-name="aacute" unicode="&#xe1;" horiz-adv-x="679" 
d="M302 -11q-63 0 -113.5 25t-83.5 68t-46.5 100t-2.5 120q10 54 36.5 99.5t65 79t87 52t101.5 18.5q78 0 130 -34.5t75 -90.5l21 114h83l-95 -540h-82l15 87q-33 -45 -81 -71.5t-110 -26.5zM318 66q38 0 73 14t62.5 39.5t47 60t26.5 75.5q8 43 -0.5 82.5t-32 70.5t-60 49.5
t-85.5 18.5q-39 0 -74 -14t-63.5 -38.5t-48 -58t-26.5 -73.5q-7 -45 2.5 -85.5t33.5 -72t60.5 -50t84.5 -18.5zM477 775h94l-171 -161h-69z" />
    <glyph glyph-name="acircumflex" unicode="&#xe2;" horiz-adv-x="679" 
d="M302 -11q-63 0 -113.5 25t-83.5 68t-46.5 100t-2.5 120q10 54 36.5 99.5t65 79t87 52t101.5 18.5q78 0 130 -34.5t75 -90.5l21 114h83l-95 -540h-82l15 87q-33 -45 -81 -71.5t-110 -26.5zM318 66q38 0 73 14t62.5 39.5t47 60t26.5 75.5q8 43 -0.5 82.5t-32 70.5t-60 49.5
t-85.5 18.5q-39 0 -74 -14t-63.5 -38.5t-48 -58t-26.5 -73.5q-7 -45 2.5 -85.5t33.5 -72t60.5 -50t84.5 -18.5zM359 775h63l91 -161h-76l-56 102l-92 -102h-77z" />
    <glyph glyph-name="atilde" unicode="&#xe3;" horiz-adv-x="679" 
d="M302 -11q-63 0 -113.5 25t-83.5 68t-46.5 100t-2.5 120q10 54 36.5 99.5t65 79t87 52t101.5 18.5q78 0 130 -34.5t75 -90.5l21 114h83l-95 -540h-82l15 87q-33 -45 -81 -71.5t-110 -26.5zM318 66q38 0 73 14t62.5 39.5t47 60t26.5 75.5q8 43 -0.5 82.5t-32 70.5t-60 49.5
t-85.5 18.5q-39 0 -74 -14t-63.5 -38.5t-48 -58t-26.5 -73.5q-7 -45 2.5 -85.5t33.5 -72t60.5 -50t84.5 -18.5zM197 621q9 53 40 85.5t76 32.5q26 0 44 -8t35 -19q16 -11 30.5 -20t32.5 -9q38 0 48 52h59q-11 -54 -41 -86t-77 -32q-30 0 -50.5 11t-37.5 22q-13 9 -26 16
t-29 7q-37 0 -46 -52h-58z" />
    <glyph glyph-name="adieresis" unicode="&#xe4;" horiz-adv-x="679" 
d="M302 -11q-63 0 -113.5 25t-83.5 68t-46.5 100t-2.5 120q10 54 36.5 99.5t65 79t87 52t101.5 18.5q78 0 130 -34.5t75 -90.5l21 114h83l-95 -540h-82l15 87q-33 -45 -81 -71.5t-110 -26.5zM318 66q38 0 73 14t62.5 39.5t47 60t26.5 75.5q8 43 -0.5 82.5t-32 70.5t-60 49.5
t-85.5 18.5q-39 0 -74 -14t-63.5 -38.5t-48 -58t-26.5 -73.5q-7 -45 2.5 -85.5t33.5 -72t60.5 -50t84.5 -18.5zM278 624q-28 0 -42.5 18t-9.5 44q4 22 21 35.5t38 13.5q29 0 42.5 -19.5t8.5 -43.5q-3 -22 -19 -35t-39 -13zM458 624q-27 0 -41.5 18t-9.5 44q3 22 20.5 35.5
t38.5 13.5q28 0 42 -19.5t9 -43.5q-4 -22 -20 -35t-39 -13z" />
    <glyph glyph-name="aring" unicode="&#xe5;" horiz-adv-x="679" 
d="M302 -11q-63 0 -113.5 25t-83.5 68t-46.5 100t-2.5 120q10 54 36.5 99.5t65 79t87 52t101.5 18.5q78 0 130 -34.5t75 -90.5l21 114h83l-95 -540h-82l15 87q-33 -45 -81 -71.5t-110 -26.5zM318 66q38 0 73 14t62.5 39.5t47 60t26.5 75.5q8 43 -0.5 82.5t-32 70.5t-60 49.5
t-85.5 18.5q-39 0 -74 -14t-63.5 -38.5t-48 -58t-26.5 -73.5q-7 -45 2.5 -85.5t33.5 -72t60.5 -50t84.5 -18.5zM374 613q-24 0 -43 10t-31.5 26.5t-17 38.5t1.5 46q10 38 41 62t69 24q24 0 43.5 -10t32 -26.5t17 -38t-1.5 -44.5q-10 -38 -39.5 -63t-71.5 -25zM378 664
q20 0 36.5 13.5t20.5 31.5q5 23 -8 41.5t-38 18.5q-19 0 -34.5 -13t-20.5 -32q-5 -23 7 -41.5t37 -18.5z" />
    <glyph glyph-name="ae" unicode="&#xe6;" horiz-adv-x="1057" 
d="M210 -11q-54 0 -91.5 14.5t-60 38t-30.5 54t-2 63.5q7 42 29.5 71.5t57.5 48t81.5 26.5t103.5 8h168l7 38q5 28 -3 52t-27 41.5t-48 27t-65 9.5q-65 0 -105.5 -23t-72.5 -65l-67 39q46 54 106 86.5t149 32.5q77 0 125.5 -29t66.5 -78q41 48 100 77.5t135 29.5
q64 0 113.5 -23t81.5 -62t45 -92t4 -113l-3 -20h-469q1 -80 51.5 -129t144.5 -49q54 0 95.5 20.5t74.5 59.5l66 -49q-46 -52 -105 -78.5t-136 -26.5q-92 0 -152.5 34.5t-90.5 92.5q-104 -127 -277 -127zM761 480q-84 -1 -139 -46.5t-74 -120.5h387q-2 77 -46 122t-128 45z
M229 61q68 0 126.5 29.5t107.5 98.5q-2 12 -3 25t-1 27h-172q-83 0 -125 -17t-50 -65q-8 -43 21.5 -70.5t95.5 -27.5z" />
    <glyph glyph-name="ccedilla" unicode="&#xe7;" horiz-adv-x="616" 
d="M287 -238q-50 0 -86.5 15.5t-59.5 41.5l62 35q17 -17 37.5 -27t50.5 -10q31 0 50 10t23 29q8 41 -68 41h-40l17 95q-58 8 -103 36t-73.5 70.5t-39.5 95.5t0 110q9 54 36 99.5t66 78t88 51t104 18.5q95 0 155.5 -42t89.5 -109l-78 -36q-20 49 -60.5 80t-110.5 32
q-36 0 -71 -13t-63.5 -37t-48.5 -57.5t-27 -74.5q-8 -45 2 -86t34 -72.5t61.5 -50.5t85.5 -19q55 0 100.5 25.5t74.5 73.5l74 -40q-38 -60 -98.5 -95t-135.5 -40l-9 -48q59 -3 84 -29.5t19 -63.5q-7 -42 -46.5 -64.5t-95.5 -22.5z" />
    <glyph glyph-name="egrave" unicode="&#xe8;" horiz-adv-x="650" 
d="M321 -11q-76 0 -131 25t-88.5 67.5t-44.5 99.5t0 122q10 52 36 97.5t65 79t90.5 52.5t112.5 19q63 0 112 -22.5t81 -61.5t45 -91.5t4 -112.5l-4 -22h-468q1 -80 51 -129t144 -49q54 0 95 21t74 60l65 -49q-46 -52 -104 -79t-135 -27zM355 480q-85 -1 -140.5 -46.5
t-74.5 -120.5h387q-1 77 -45 122t-127 45zM233 776h94l88 -161h-66z" />
    <glyph glyph-name="eacute" unicode="&#xe9;" horiz-adv-x="650" 
d="M321 -11q-76 0 -131 25t-88.5 67.5t-44.5 99.5t0 122q10 52 36 97.5t65 79t90.5 52.5t112.5 19q63 0 112 -22.5t81 -61.5t45 -91.5t4 -112.5l-4 -22h-468q1 -80 51 -129t144 -49q54 0 95 21t74 60l65 -49q-46 -52 -104 -79t-135 -27zM355 480q-85 -1 -140.5 -46.5
t-74.5 -120.5h387q-1 77 -45 122t-127 45zM487 776h94l-171 -161h-69z" />
    <glyph glyph-name="ecircumflex" unicode="&#xea;" horiz-adv-x="650" 
d="M321 -11q-76 0 -131 25t-88.5 67.5t-44.5 99.5t0 122q10 52 36 97.5t65 79t90.5 52.5t112.5 19q63 0 112 -22.5t81 -61.5t45 -91.5t4 -112.5l-4 -22h-468q1 -80 51 -129t144 -49q54 0 95 21t74 60l65 -49q-46 -52 -104 -79t-135 -27zM355 480q-85 -1 -140.5 -46.5
t-74.5 -120.5h387q-1 77 -45 122t-127 45zM368 776h63l91 -161h-76l-56 102l-92 -102h-77z" />
    <glyph glyph-name="edieresis" unicode="&#xeb;" horiz-adv-x="650" 
d="M321 -11q-76 0 -131 25t-88.5 67.5t-44.5 99.5t0 122q10 52 36 97.5t65 79t90.5 52.5t112.5 19q63 0 112 -22.5t81 -61.5t45 -91.5t4 -112.5l-4 -22h-468q1 -80 51 -129t144 -49q54 0 95 21t74 60l65 -49q-46 -52 -104 -79t-135 -27zM355 480q-85 -1 -140.5 -46.5
t-74.5 -120.5h387q-1 77 -45 122t-127 45zM287 620q-28 0 -42.5 18t-9.5 44q4 22 21 35.5t38 13.5q29 0 42.5 -19.5t8.5 -43.5q-3 -22 -19 -35t-39 -13zM467 620q-27 0 -41.5 18t-9.5 44q3 22 20.5 35.5t38.5 13.5q28 0 42 -19.5t9 -43.5q-4 -22 -20 -35t-39 -13z" />
    <glyph glyph-name="igrave" unicode="&#xec;" horiz-adv-x="230" 
d="M26 0l95 540h83l-95 -540h-83zM34 769h94l88 -161h-66z" />
    <glyph glyph-name="iacute" unicode="&#xed;" horiz-adv-x="230" 
d="M287 775h94l-171 -161h-69zM26 0l95 540h83l-95 -540h-83z" />
    <glyph glyph-name="icircumflex" unicode="&#xee;" horiz-adv-x="230" 
d="M26 0l95 540h83l-95 -540h-83zM169 769h63l91 -161h-76l-56 102l-92 -102h-77z" />
    <glyph glyph-name="idieresis" unicode="&#xef;" horiz-adv-x="230" 
d="M26 0l95 540h83l-95 -540h-83zM88 618q-28 0 -42.5 18t-9.5 44q4 22 21 35.5t38 13.5q29 0 42.5 -19.5t8.5 -43.5q-3 -22 -19 -35t-39 -13zM268 618q-27 0 -41.5 18t-9.5 44q3 22 20.5 35.5t38.5 13.5q28 0 42 -19.5t9 -43.5q-4 -22 -20 -35t-39 -13z" />
    <glyph glyph-name="eth" unicode="&#xf0;" horiz-adv-x="672" 
d="M240 628l108 63q-24 23 -51 47t-57 50h119q16 -14 30.5 -28.5l28.5 -28.5l111 64l30 -44l-105 -61q96 -111 137 -227t20 -228q-10 -54 -36 -99t-64.5 -78t-87.5 -51t-106 -18q-63 0 -115.5 23.5t-87.5 64.5t-50.5 96.5t-6.5 119.5q9 56 35 102.5t64.5 79.5t86 51t98.5 18
q58 0 99.5 -20t68.5 -50q-39 86 -123 177l-118 -68zM322 65q36 0 70.5 13.5t62.5 37t47.5 56t26.5 70.5q8 43 0 84t-31 73t-60 52t-86 20q-38 0 -72.5 -13t-62.5 -36.5t-48 -56t-27 -72.5q-8 -44 1 -85t33 -72.5t61 -51t85 -19.5z" />
    <glyph glyph-name="ntilde" unicode="&#xf1;" horiz-adv-x="635" 
d="M120 540h82l-15 -81q32 45 79 68.5t107 23.5q55 0 96.5 -18t67 -51.5t34.5 -80.5t-1 -105l-53 -296h-84l52 296q15 83 -18.5 132.5t-116.5 49.5t-129 -52.5t-62 -141.5l-51 -284h-83zM220 619q9 53 40 85.5t76 32.5q26 0 44 -8t35 -19q16 -11 30.5 -20t32.5 -9
q38 0 48 52h59q-11 -54 -41 -86t-77 -32q-30 0 -50.5 11t-37.5 22q-13 9 -26 16t-29 7q-37 0 -46 -52h-58z" />
    <glyph glyph-name="ograve" unicode="&#xf2;" horiz-adv-x="668" 
d="M315 -11q-66 0 -119 24.5t-88 67.5t-49 101t-2 125q9 52 35.5 96.5t65.5 77.5t89.5 51.5t108.5 18.5q65 0 117.5 -25t87 -68t49 -101.5t2.5 -125.5q-9 -53 -35 -97.5t-64.5 -76.5t-89 -50t-108.5 -18zM316 65q42 0 78 12.5t64.5 35.5t47 55.5t26.5 73.5q8 46 0 88.5
t-31.5 75t-61 52t-88.5 19.5q-43 0 -79 -13t-63.5 -37t-45.5 -57.5t-25 -73.5q-9 -49 0.5 -91t33.5 -73t61 -49t83 -18zM231 775h94l88 -161h-66z" />
    <glyph glyph-name="oacute" unicode="&#xf3;" horiz-adv-x="668" 
d="M315 -11q-66 0 -119 24.5t-88 67.5t-49 101t-2 125q9 52 35.5 96.5t65.5 77.5t89.5 51.5t108.5 18.5q65 0 117.5 -25t87 -68t49 -101.5t2.5 -125.5q-9 -53 -35 -97.5t-64.5 -76.5t-89 -50t-108.5 -18zM316 65q42 0 78 12.5t64.5 35.5t47 55.5t26.5 73.5q8 46 0 88.5
t-31.5 75t-61 52t-88.5 19.5q-43 0 -79 -13t-63.5 -37t-45.5 -57.5t-25 -73.5q-9 -49 0.5 -91t33.5 -73t61 -49t83 -18zM485 775h94l-171 -161h-69z" />
    <glyph glyph-name="ocircumflex" unicode="&#xf4;" horiz-adv-x="668" 
d="M315 -11q-66 0 -119 24.5t-88 67.5t-49 101t-2 125q9 52 35.5 96.5t65.5 77.5t89.5 51.5t108.5 18.5q65 0 117.5 -25t87 -68t49 -101.5t2.5 -125.5q-9 -53 -35 -97.5t-64.5 -76.5t-89 -50t-108.5 -18zM316 65q42 0 78 12.5t64.5 35.5t47 55.5t26.5 73.5q8 46 0 88.5
t-31.5 75t-61 52t-88.5 19.5q-43 0 -79 -13t-63.5 -37t-45.5 -57.5t-25 -73.5q-9 -49 0.5 -91t33.5 -73t61 -49t83 -18zM366 775h63l91 -161h-76l-56 102l-92 -102h-77z" />
    <glyph glyph-name="otilde" unicode="&#xf5;" horiz-adv-x="668" 
d="M315 -11q-66 0 -119 24.5t-88 67.5t-49 101t-2 125q9 52 35.5 96.5t65.5 77.5t89.5 51.5t108.5 18.5q65 0 117.5 -25t87 -68t49 -101.5t2.5 -125.5q-9 -53 -35 -97.5t-64.5 -76.5t-89 -50t-108.5 -18zM316 65q42 0 78 12.5t64.5 35.5t47 55.5t26.5 73.5q8 46 0 88.5
t-31.5 75t-61 52t-88.5 19.5q-43 0 -79 -13t-63.5 -37t-45.5 -57.5t-25 -73.5q-9 -49 0.5 -91t33.5 -73t61 -49t83 -18zM204 621q9 53 40 85.5t76 32.5q26 0 44 -8t35 -19q16 -11 30.5 -20t32.5 -9q38 0 48 52h59q-11 -54 -41 -86t-77 -32q-30 0 -50.5 11t-37.5 22
q-13 9 -26 16t-29 7q-37 0 -46 -52h-58z" />
    <glyph glyph-name="odieresis" unicode="&#xf6;" horiz-adv-x="668" 
d="M315 -11q-66 0 -119 24.5t-88 67.5t-49 101t-2 125q9 52 35.5 96.5t65.5 77.5t89.5 51.5t108.5 18.5q65 0 117.5 -25t87 -68t49 -101.5t2.5 -125.5q-9 -53 -35 -97.5t-64.5 -76.5t-89 -50t-108.5 -18zM316 65q42 0 78 12.5t64.5 35.5t47 55.5t26.5 73.5q8 46 0 88.5
t-31.5 75t-61 52t-88.5 19.5q-43 0 -79 -13t-63.5 -37t-45.5 -57.5t-25 -73.5q-9 -49 0.5 -91t33.5 -73t61 -49t83 -18zM285 624q-28 0 -42.5 18t-9.5 44q4 22 21 35.5t38 13.5q29 0 42.5 -19.5t8.5 -43.5q-3 -22 -19 -35t-39 -13zM465 624q-27 0 -41.5 18t-9.5 44
q3 22 20.5 35.5t38.5 13.5q28 0 42 -19.5t9 -43.5q-4 -22 -20 -35t-39 -13z" />
    <glyph glyph-name="divide" unicode="&#xf7;" horiz-adv-x="500" 
d="M87 401h370l-13 -71h-370zM234 149q-28 0 -42.5 18.5t-9.5 44.5q4 22 21 35.5t37 13.5q29 0 43 -19.5t9 -43.5q-4 -22 -20 -35.5t-38 -13.5zM291 469q-28 0 -42 19t-9 45q4 21 20.5 34.5t37.5 13.5q29 0 42.5 -19.5t9.5 -42.5q-5 -23 -20.5 -36.5t-38.5 -13.5z" />
    <glyph glyph-name="oslash" unicode="&#xf8;" horiz-adv-x="669" 
d="M315 -11q-92 0 -158 46l-54 -58l-42 39l54 57q-39 43 -55 103t-3 131q9 52 35.5 96.5t65.5 77.5t89.5 51.5t108.5 18.5q48 0 88.5 -13.5t72.5 -37.5l56 59l42 -37l-57 -61q36 -44 51 -102.5t3 -127.5q-9 -53 -35 -97.5t-64.5 -76.5t-89 -50t-108.5 -18zM138 296
q-9 -49 0.5 -90.5t32.5 -72.5l292 310q-22 16 -50 25t-62 9q-43 0 -79 -13t-63.5 -37t-45.5 -57.5t-25 -73.5zM316 65q42 0 78 12.5t64.5 35.5t47 55.5t26.5 73.5q8 45 0.5 86.5t-30.5 73.5l-289 -308q43 -29 103 -29z" />
    <glyph glyph-name="ugrave" unicode="&#xf9;" horiz-adv-x="610" 
d="M245 -11q-53 0 -91.5 18t-62.5 51t-31.5 80t3.5 105l52 297h84l-52 -295q-14 -81 17.5 -131.5t106.5 -50.5q69 0 116.5 47t63.5 134l53 296h82l-95 -540h-82l14 82q-32 -45 -76.5 -69t-101.5 -24zM209 756h94l88 -161h-66z" />
    <glyph glyph-name="uacute" unicode="&#xfa;" horiz-adv-x="610" 
d="M245 -11q-53 0 -91.5 18t-62.5 51t-31.5 80t3.5 105l52 297h84l-52 -295q-14 -81 17.5 -131.5t106.5 -50.5q69 0 116.5 47t63.5 134l53 296h82l-95 -540h-82l14 82q-32 -45 -76.5 -69t-101.5 -24zM466 756h94l-171 -161h-69z" />
    <glyph glyph-name="ucircumflex" unicode="&#xfb;" horiz-adv-x="610" 
d="M245 -11q-53 0 -91.5 18t-62.5 51t-31.5 80t3.5 105l52 297h84l-52 -295q-14 -81 17.5 -131.5t106.5 -50.5q69 0 116.5 47t63.5 134l53 296h82l-95 -540h-82l14 82q-32 -45 -76.5 -69t-101.5 -24zM351 756h63l91 -161h-76l-56 102l-92 -102h-77z" />
    <glyph glyph-name="udieresis" unicode="&#xfc;" horiz-adv-x="610" 
d="M245 -11q-53 0 -91.5 18t-62.5 51t-31.5 80t3.5 105l52 297h84l-52 -295q-14 -81 17.5 -131.5t106.5 -50.5q69 0 116.5 47t63.5 134l53 296h82l-95 -540h-82l14 82q-32 -45 -76.5 -69t-101.5 -24zM268 605q-28 0 -42.5 18t-9.5 44q4 22 21 35.5t38 13.5q29 0 42.5 -19.5
t8.5 -43.5q-3 -22 -19 -35t-39 -13zM448 605q-27 0 -41.5 18t-9.5 44q3 22 20.5 35.5t38.5 13.5q28 0 42 -19.5t9 -43.5q-4 -22 -20 -35t-39 -13z" />
    <glyph glyph-name="yacute" unicode="&#xfd;" horiz-adv-x="594" 
d="M51 -201q-51 0 -87.5 20t-57.5 52l69 54q13 -22 31.5 -35t49.5 -13q16 0 32 4.5t32.5 16t33.5 32t37 53.5l31 51l-149 506h86l119 -413l242 413h93l-351 -583q-27 -45 -51.5 -75.5t-49 -48.5t-51.5 -26t-59 -8zM450 761h94l-171 -161h-69z" />
    <glyph glyph-name="thorn" unicode="&#xfe;" horiz-adv-x="680" 
d="M338 -11q-82 0 -132.5 36t-73.5 91l-63 -364h-84l183 1036h84l-20 -110q-8 -48 -18.5 -104t-18.5 -105q35 36 82.5 59t106.5 23q62 0 111 -25t81 -67.5t44.5 -99t1.5 -119.5q-9 -57 -36 -103t-65 -79t-85.5 -51t-97.5 -18zM332 66q39 0 74.5 14t63.5 39t47 58t25 72
q8 45 -1 86t-32.5 72.5t-60 50t-82.5 18.5q-38 0 -73.5 -14.5t-64 -40.5t-48 -61t-26.5 -76q-8 -44 1 -83.5t32 -69.5t60 -47.5t85 -17.5z" />
    <glyph glyph-name="ydieresis" unicode="&#xff;" horiz-adv-x="594" 
d="M51 -201q-51 0 -87.5 20t-57.5 52l69 54q13 -22 31.5 -35t49.5 -13q16 0 32 4.5t32.5 16t33.5 32t37 53.5l31 51l-149 506h86l119 -413l242 413h93l-351 -583q-27 -45 -51.5 -75.5t-49 -48.5t-51.5 -26t-59 -8zM252 610q-28 0 -42.5 18t-9.5 44q4 22 21 35.5t38 13.5
q29 0 42.5 -19.5t8.5 -43.5q-3 -22 -19 -35t-39 -13zM432 610q-27 0 -41.5 18t-9.5 44q3 22 20.5 35.5t38.5 13.5q28 0 42 -19.5t9 -43.5q-4 -22 -20 -35t-39 -13z" />
    <glyph glyph-name="Amacron" unicode="&#x100;" horiz-adv-x="730" 
d="M407 730h85l159 -730h-84l-39 183h-348l-104 -183h-90zM225 262h286l-77 368zM341 885h264l-12 -64h-264z" />
    <glyph glyph-name="amacron" unicode="&#x101;" horiz-adv-x="679" 
d="M302 -11q-63 0 -113.5 25t-83.5 68t-46.5 100t-2.5 120q10 54 36.5 99.5t65 79t87 52t101.5 18.5q78 0 130 -34.5t75 -90.5l21 114h83l-95 -540h-82l15 87q-33 -45 -81 -71.5t-110 -26.5zM318 66q38 0 73 14t62.5 39.5t47 60t26.5 75.5q8 43 -0.5 82.5t-32 70.5t-60 49.5
t-85.5 18.5q-39 0 -74 -14t-63.5 -38.5t-48 -58t-26.5 -73.5q-7 -45 2.5 -85.5t33.5 -72t60.5 -50t84.5 -18.5zM251 701h264l-12 -64h-264z" />
    <glyph glyph-name="Abreve" unicode="&#x102;" horiz-adv-x="730" 
d="M407 730h85l159 -730h-84l-39 183h-348l-104 -183h-90zM225 262h286l-77 368zM462 798q-40 0 -68 13t-44.5 35t-22 51.5t0.5 62.5h63q-9 -48 12 -77t68 -30q49 1 78 30t38 77h64q-6 -33 -21.5 -62.5t-40 -51.5t-56.5 -35t-71 -13z" />
    <glyph glyph-name="abreve" unicode="&#x103;" horiz-adv-x="679" 
d="M302 -11q-63 0 -113.5 25t-83.5 68t-46.5 100t-2.5 120q10 54 36.5 99.5t65 79t87 52t101.5 18.5q78 0 130 -34.5t75 -90.5l21 114h83l-95 -540h-82l15 87q-33 -45 -81 -71.5t-110 -26.5zM318 66q38 0 73 14t62.5 39.5t47 60t26.5 75.5q8 43 -0.5 82.5t-32 70.5t-60 49.5
t-85.5 18.5q-39 0 -74 -14t-63.5 -38.5t-48 -58t-26.5 -73.5q-7 -45 2.5 -85.5t33.5 -72t60.5 -50t84.5 -18.5zM362 614q-40 0 -68 13t-44.5 35t-22 51.5t0.5 62.5h63q-9 -48 12 -77t68 -30q49 1 78 30t38 77h64q-6 -33 -21.5 -62.5t-40 -51.5t-56.5 -35t-71 -13z" />
    <glyph glyph-name="Aogonek" unicode="&#x104;" horiz-adv-x="730" 
d="M550 -217q-57 0 -87.5 31t-22.5 74q3 17 10.5 33t21.5 31t36.5 30.5t55.5 32.5l-36 168h-348l-104 -183h-90l421 730h85l159 -730q-41 -23 -67 -38.5t-41 -28t-21.5 -22.5t-8.5 -22q-4 -21 9.5 -33t36.5 -12q24 0 41 9.5t35 23.5l52 -40q-30 -23 -64 -38.5t-73 -15.5z
M225 262h286l-77 368z" />
    <glyph glyph-name="aogonek" unicode="&#x105;" horiz-adv-x="679" 
d="M505 -217q-29 0 -51 9.5t-36.5 25.5t-20 36.5t-1.5 41.5q5 34 26.5 61t57.5 54l13 76q-33 -45 -81 -71.5t-110 -26.5q-63 0 -113.5 25t-83.5 68t-46.5 100t-2.5 120q10 54 36.5 99.5t65 79t87 52t101.5 18.5q78 0 130 -34.5t75 -90.5l21 114h83l-95 -540
q-46 -33 -66.5 -57t-24.5 -47q-4 -21 8.5 -36.5t36.5 -15.5t41 9.5t36 23.5l51 -40q-32 -26 -64 -40t-73 -14zM318 66q38 0 73 14t62.5 39.5t47 60t26.5 75.5q8 43 -0.5 82.5t-32 70.5t-60 49.5t-85.5 18.5q-39 0 -74 -14t-63.5 -38.5t-48 -58t-26.5 -73.5q-7 -45 2.5 -85.5
t33.5 -72t60.5 -50t84.5 -18.5z" />
    <glyph glyph-name="Cacute" unicode="&#x106;" horiz-adv-x="815" 
d="M431 -10q-92 0 -162.5 33.5t-116 90t-63 132t-2.5 159.5q12 72 48 133.5t89.5 106.5t121.5 70t145 25q115 0 193 -49t122 -143l-80 -38q-17 39 -39 67.5t-51.5 46.5t-67 27t-86.5 9q-58 0 -110.5 -20t-93.5 -55t-69.5 -83.5t-38.5 -106.5q-11 -65 2.5 -124t48.5 -103.5
t90.5 -71t127.5 -26.5q75 0 139.5 34t109.5 97l72 -49q-60 -80 -143 -121t-186 -41zM611 964h94l-171 -161h-69z" />
    <glyph glyph-name="cacute" unicode="&#x107;" horiz-adv-x="616" 
d="M315 -11q-68 0 -121 26t-87 69.5t-47.5 100.5t-2.5 119q9 54 36 99.5t66 78t88 51t104 18.5q95 0 155.5 -42t89.5 -109l-78 -36q-20 49 -60.5 80t-110.5 32q-36 0 -71 -13t-63.5 -37t-48.5 -57.5t-27 -74.5q-8 -45 2 -86t34 -72.5t61.5 -50.5t85.5 -19q55 0 100.5 25.5
t74.5 73.5l74 -40q-40 -64 -106 -100t-148 -36zM477 775h94l-171 -161h-69z" />
    <glyph glyph-name="Ccircumflex" unicode="&#x108;" horiz-adv-x="815" 
d="M431 -10q-92 0 -162.5 33.5t-116 90t-63 132t-2.5 159.5q12 72 48 133.5t89.5 106.5t121.5 70t145 25q115 0 193 -49t122 -143l-80 -38q-17 39 -39 67.5t-51.5 46.5t-67 27t-86.5 9q-58 0 -110.5 -20t-93.5 -55t-69.5 -83.5t-38.5 -106.5q-11 -65 2.5 -124t48.5 -103.5
t90.5 -71t127.5 -26.5q75 0 139.5 34t109.5 97l72 -49q-60 -80 -143 -121t-186 -41zM499 964h63l91 -161h-76l-56 102l-92 -102h-77z" />
    <glyph glyph-name="ccircumflex" unicode="&#x109;" horiz-adv-x="616" 
d="M315 -11q-68 0 -121 26t-87 69.5t-47.5 100.5t-2.5 119q9 54 36 99.5t66 78t88 51t104 18.5q95 0 155.5 -42t89.5 -109l-78 -36q-20 49 -60.5 80t-110.5 32q-36 0 -71 -13t-63.5 -37t-48.5 -57.5t-27 -74.5q-8 -45 2 -86t34 -72.5t61.5 -50.5t85.5 -19q55 0 100.5 25.5
t74.5 73.5l74 -40q-40 -64 -106 -100t-148 -36zM359 775h63l91 -161h-76l-56 102l-92 -102h-77z" />
    <glyph glyph-name="Cdotaccent" unicode="&#x10a;" horiz-adv-x="815" 
d="M431 -10q-92 0 -162.5 33.5t-116 90t-63 132t-2.5 159.5q12 72 48 133.5t89.5 106.5t121.5 70t145 25q115 0 193 -49t122 -143l-80 -38q-17 39 -39 67.5t-51.5 46.5t-67 27t-86.5 9q-58 0 -110.5 -20t-93.5 -55t-69.5 -83.5t-38.5 -106.5q-11 -65 2.5 -124t48.5 -103.5
t90.5 -71t127.5 -26.5q75 0 139.5 34t109.5 97l72 -49q-60 -80 -143 -121t-186 -41zM503 809q-30 0 -46 20.5t-10 49.5q4 23 22.5 38t41.5 15q32 0 47 -21.5t10 -47.5q-5 -24 -22.5 -39t-42.5 -15z" />
    <glyph glyph-name="cdotaccent" unicode="&#x10b;" horiz-adv-x="616" 
d="M315 -11q-68 0 -121 26t-87 69.5t-47.5 100.5t-2.5 119q9 54 36 99.5t66 78t88 51t104 18.5q95 0 155.5 -42t89.5 -109l-78 -36q-20 49 -60.5 80t-110.5 32q-36 0 -71 -13t-63.5 -37t-48.5 -57.5t-27 -74.5q-8 -45 2 -86t34 -72.5t61.5 -50.5t85.5 -19q55 0 100.5 25.5
t74.5 73.5l74 -40q-40 -64 -106 -100t-148 -36zM363 620q-30 0 -46 20.5t-10 49.5q4 23 22.5 38t41.5 15q32 0 47 -21.5t10 -47.5q-5 -24 -22.5 -39t-42.5 -15z" />
    <glyph glyph-name="Ccaron" unicode="&#x10c;" horiz-adv-x="815" 
d="M431 -10q-92 0 -162.5 33.5t-116 90t-63 132t-2.5 159.5q12 72 48 133.5t89.5 106.5t121.5 70t145 25q115 0 193 -49t122 -143l-80 -38q-17 39 -39 67.5t-51.5 46.5t-67 27t-86.5 9q-58 0 -110.5 -20t-93.5 -55t-69.5 -83.5t-38.5 -106.5q-11 -65 2.5 -124t48.5 -103.5
t90.5 -71t127.5 -26.5q75 0 139.5 34t109.5 97l72 -49q-60 -80 -143 -121t-186 -41zM381 965h76l56 -102l92 102h76l-147 -161h-62z" />
    <glyph glyph-name="ccaron" unicode="&#x10d;" horiz-adv-x="616" 
d="M315 -11q-68 0 -121 26t-87 69.5t-47.5 100.5t-2.5 119q9 54 36 99.5t66 78t88 51t104 18.5q95 0 155.5 -42t89.5 -109l-78 -36q-20 49 -60.5 80t-110.5 32q-36 0 -71 -13t-63.5 -37t-48.5 -57.5t-27 -74.5q-8 -45 2 -86t34 -72.5t61.5 -50.5t85.5 -19q55 0 100.5 25.5
t74.5 73.5l74 -40q-40 -64 -106 -100t-148 -36zM240 776h76l56 -102l92 102h76l-147 -161h-62z" />
    <glyph glyph-name="Dcaron" unicode="&#x10e;" horiz-adv-x="747" 
d="M165 730h212q80 -1 145.5 -32t109 -84t62 -123.5t4.5 -148.5q-13 -75 -48.5 -137.5t-88 -108t-120 -71t-143.5 -25.5h-261zM235 653l-101 -575h170q57 0 108.5 20t93 56t69.5 85.5t39 108.5q11 62 -2.5 117.5t-47 97t-84.5 66t-115 24.5h-130zM283 958h76l56 -102l92 102
h76l-147 -161h-62z" />
    <glyph glyph-name="dcaron" unicode="&#x10f;" horiz-adv-x="680" 
d="M301 -11q-63 0 -113 25.5t-83 68.5t-46 100.5t-2 120.5q9 54 35.5 99.5t65 78t87 51t101.5 18.5q78 0 130.5 -34.5t75.5 -90.5l63 362h83l-139 -788h-80l15 85q-35 -43 -84 -69.5t-109 -26.5zM319 66q37 0 72 14t62.5 38.5t47 58.5t26.5 74q8 44 -0.5 84.5t-31.5 71.5
t-60 50t-85 19q-39 0 -74.5 -13.5t-64 -37.5t-48 -58t-26.5 -74q-7 -44 2.5 -85t33.5 -72.5t61 -50.5t85 -19zM770 619q38 18 64 43.5t31 53.5q2 8 0 14q-5 -19 -17.5 -26.5t-28.5 -7.5q-21 0 -33.5 17t-7.5 40q4 23 22.5 39t47.5 16q35 0 53 -25t12 -66q-8 -45 -40 -77.5
t-81 -56.5z" />
    <glyph glyph-name="Dcroat" unicode="&#x110;" horiz-adv-x="755" 
d="M55 412h73l56 318h201q80 -1 145.5 -32t109.5 -84.5t62.5 -123.5t4.5 -149q-13 -73 -48.5 -135.5t-88.5 -108t-120.5 -71.5t-143.5 -26h-250l61 347h-76zM201 347l-47 -269h158q57 0 109 20.5t93.5 56.5t70 85.5t38.5 107.5q10 62 -3.5 117.5t-47 97t-84 66t-114.5 24.5
h-120l-42 -241h209l-13 -65h-207z" />
    <glyph glyph-name="dcroat" unicode="&#x111;" horiz-adv-x="680" 
d="M476 682h120l19 106h83l-19 -106l80 1l-10 -54h-79l-111 -629h-80l15 85q-35 -43 -84 -69.5t-109 -26.5q-63 0 -113 25.5t-83 68.5t-46 100.5t-2 120.5q9 54 35.5 99.5t65 78t87 51t101.5 18.5q78 0 130.5 -34.5t75.5 -90.5l35 203h-121zM319 66q37 0 72 14t62.5 38.5
t47 58.5t26.5 74q8 44 -0.5 84.5t-31.5 71.5t-60 50t-85 19q-39 0 -74.5 -13.5t-64 -37.5t-48 -58t-26.5 -74q-7 -44 2.5 -85t33.5 -72.5t61 -50.5t85 -19z" />
    <glyph glyph-name="Emacron" unicode="&#x112;" horiz-adv-x="631" 
d="M165 730h478l-14 -78h-396l-42 -245h395l-14 -79h-395l-44 -249h396l-14 -79h-478zM296 885h264l-12 -64h-264z" />
    <glyph glyph-name="emacron" unicode="&#x113;" horiz-adv-x="650" 
d="M321 -11q-76 0 -131 25t-88.5 67.5t-44.5 99.5t0 122q10 52 36 97.5t65 79t90.5 52.5t112.5 19q63 0 112 -22.5t81 -61.5t45 -91.5t4 -112.5l-4 -22h-468q1 -80 51 -129t144 -49q54 0 95 21t74 60l65 -49q-46 -52 -104 -79t-135 -27zM355 480q-85 -1 -140.5 -46.5
t-74.5 -120.5h387q-1 77 -45 122t-127 45zM260 702h264l-12 -64h-264z" />
    <glyph glyph-name="Ebreve" unicode="&#x114;" horiz-adv-x="631" 
d="M165 730h478l-14 -78h-396l-42 -245h395l-14 -79h-395l-44 -249h396l-14 -79h-478zM415 798q-40 0 -68 13t-44.5 35t-22 51.5t0.5 62.5h63q-9 -48 12 -77t68 -30q49 1 78 30t38 77h64q-6 -33 -21.5 -62.5t-40 -51.5t-56.5 -35t-71 -13z" />
    <glyph glyph-name="ebreve" unicode="&#x115;" horiz-adv-x="650" 
d="M321 -11q-76 0 -131 25t-88.5 67.5t-44.5 99.5t0 122q10 52 36 97.5t65 79t90.5 52.5t112.5 19q63 0 112 -22.5t81 -61.5t45 -91.5t4 -112.5l-4 -22h-468q1 -80 51 -129t144 -49q54 0 95 21t74 60l65 -49q-46 -52 -104 -79t-135 -27zM355 480q-85 -1 -140.5 -46.5
t-74.5 -120.5h387q-1 77 -45 122t-127 45zM372 614q-40 0 -68 13t-44.5 35t-22 51.5t0.5 62.5h63q-9 -48 12 -77t68 -30q49 1 78 30t38 77h64q-6 -33 -21.5 -62.5t-40 -51.5t-56.5 -35t-71 -13z" />
    <glyph glyph-name="Edotaccent" unicode="&#x116;" horiz-adv-x="631" 
d="M165 730h478l-14 -78h-396l-42 -245h395l-14 -79h-395l-44 -249h396l-14 -79h-478zM416 804q-30 0 -46 20.5t-10 49.5q4 23 22.5 38t41.5 15q32 0 47 -21.5t10 -47.5q-5 -24 -22.5 -39t-42.5 -15z" />
    <glyph glyph-name="edotaccent" unicode="&#x117;" horiz-adv-x="650" 
d="M321 -11q-76 0 -131 25t-88.5 67.5t-44.5 99.5t0 122q10 52 36 97.5t65 79t90.5 52.5t112.5 19q63 0 112 -22.5t81 -61.5t45 -91.5t4 -112.5l-4 -22h-468q1 -80 51 -129t144 -49q54 0 95 21t74 60l65 -49q-46 -52 -104 -79t-135 -27zM355 480q-85 -1 -140.5 -46.5
t-74.5 -120.5h387q-1 77 -45 122t-127 45zM372 621q-30 0 -46 20.5t-10 49.5q4 23 22.5 38t41.5 15q32 0 47 -21.5t10 -47.5q-5 -24 -22.5 -39t-42.5 -15z" />
    <glyph glyph-name="Eogonek" unicode="&#x118;" horiz-adv-x="631" 
d="M165 730h478l-14 -78h-396l-42 -245h395l-14 -79h-395l-44 -249h396l-14 -79h-1q-41 -23 -67 -38.5t-41 -28t-21.5 -22.5t-8.5 -22q-4 -21 9.5 -33t36.5 -12q24 0 41 9.5t35 23.5l52 -40q-30 -23 -64 -38.5t-73 -15.5q-57 0 -87.5 31t-22.5 74q3 15 9 29t17 27.5t28 27.5
t42 28h-362z" />
    <glyph glyph-name="eogonek" unicode="&#x119;" horiz-adv-x="650" 
d="M366 -194q-57 0 -87.5 31t-22.5 74q4 21 14 40t33 39q-71 3 -122.5 29t-82.5 68t-41.5 97.5t0.5 118.5q10 52 36 97.5t65 79t90.5 52.5t112.5 19q63 0 112 -22.5t81 -61.5t45 -91.5t4 -112.5l-4 -22h-468q1 -80 51 -129t144 -49q54 0 95 21t74 60l65 -49
q-51 -57 -113 -83q-35 -19 -57 -33t-35 -25.5t-19 -21t-7 -20.5q-4 -21 9.5 -33t36.5 -12q24 0 41 9.5t35 23.5l52 -40q-30 -23 -64 -38.5t-73 -15.5zM355 480q-85 -1 -140.5 -46.5t-74.5 -120.5h387q-1 77 -45 122t-127 45z" />
    <glyph glyph-name="Ecaron" unicode="&#x11a;" horiz-adv-x="631" 
d="M165 730h478l-14 -78h-396l-42 -245h395l-14 -79h-395l-44 -249h396l-14 -79h-478zM293 960h76l56 -102l92 102h76l-147 -161h-62z" />
    <glyph glyph-name="ecaron" unicode="&#x11b;" horiz-adv-x="650" 
d="M321 -11q-76 0 -131 25t-88.5 67.5t-44.5 99.5t0 122q10 52 36 97.5t65 79t90.5 52.5t112.5 19q63 0 112 -22.5t81 -61.5t45 -91.5t4 -112.5l-4 -22h-468q1 -80 51 -129t144 -49q54 0 95 21t74 60l65 -49q-46 -52 -104 -79t-135 -27zM355 480q-85 -1 -140.5 -46.5
t-74.5 -120.5h387q-1 77 -45 122t-127 45zM250 777h76l56 -102l92 102h76l-147 -161h-62z" />
    <glyph glyph-name="Gcircumflex" unicode="&#x11c;" horiz-adv-x="863" 
d="M429 -10q-86 0 -156 33.5t-116.5 90.5t-66 132t-4.5 159q12 70 47 131.5t88 106.5t120.5 71t145.5 26q54 0 102 -13.5t87.5 -38t70.5 -58t52 -73.5l-80 -42q-35 69 -95 107t-145 38q-59 0 -111.5 -20.5t-93 -56.5t-68 -84t-37.5 -103q-11 -63 2.5 -121.5t49 -103.5
t90 -72t125.5 -27q57 0 104.5 18t84 49.5t61.5 75t37 93.5h-292l15 79h379l-5 -30q-10 -80 -42 -147.5t-83 -116t-118 -76t-148 -27.5zM495 964h63l91 -161h-76l-56 102l-92 -102h-77z" />
    <glyph glyph-name="gcircumflex" unicode="&#x11d;" horiz-adv-x="679" 
d="M307 -11q-66 0 -117 25.5t-84.5 69t-46.5 100.5t-2 120q9 54 35.5 99t65 78t86.5 51.5t102 18.5q78 0 130 -35t75 -90l21 114h83l-88 -498q-12 -62 -35 -112t-59 -85t-86 -54t-116 -19q-91 0 -153.5 39.5t-89.5 108.5l85 28q18 -48 58.5 -74.5t106.5 -26.5q43 0 78 14
t61 39.5t42.5 61t23.5 78.5q0 -1 2 8.5t4 24.5q-31 -38 -76.5 -61t-105.5 -23zM319 66q38 0 72.5 14t62.5 38.5t46.5 58.5t25.5 74q8 43 -0.5 83.5t-31.5 72t-60 50.5t-85 19q-39 0 -74 -13.5t-63.5 -38t-48 -58t-26.5 -73.5q-8 -44 2 -85t34 -72.5t61 -50.5t85 -19z
M364 775h63l91 -161h-76l-56 102l-92 -102h-77z" />
    <glyph glyph-name="Gbreve" unicode="&#x11e;" horiz-adv-x="863" 
d="M429 -10q-86 0 -156 33.5t-116.5 90.5t-66 132t-4.5 159q12 70 47 131.5t88 106.5t120.5 71t145.5 26q54 0 102 -13.5t87.5 -38t70.5 -58t52 -73.5l-80 -42q-35 69 -95 107t-145 38q-59 0 -111.5 -20.5t-93 -56.5t-68 -84t-37.5 -103q-11 -63 2.5 -121.5t49 -103.5
t90 -72t125.5 -27q57 0 104.5 18t84 49.5t61.5 75t37 93.5h-292l15 79h379l-5 -30q-10 -80 -42 -147.5t-83 -116t-118 -76t-148 -27.5zM499 803q-40 0 -68 13t-44.5 35t-22 51.5t0.5 62.5h63q-9 -48 12 -77t68 -30q49 1 78 30t38 77h64q-6 -33 -21.5 -62.5t-40 -51.5
t-56.5 -35t-71 -13z" />
    <glyph glyph-name="gbreve" unicode="&#x11f;" horiz-adv-x="679" 
d="M307 -11q-66 0 -117 25.5t-84.5 69t-46.5 100.5t-2 120q9 54 35.5 99t65 78t86.5 51.5t102 18.5q78 0 130 -35t75 -90l21 114h83l-88 -498q-12 -62 -35 -112t-59 -85t-86 -54t-116 -19q-91 0 -153.5 39.5t-89.5 108.5l85 28q18 -48 58.5 -74.5t106.5 -26.5q43 0 78 14
t61 39.5t42.5 61t23.5 78.5q0 -1 2 8.5t4 24.5q-31 -38 -76.5 -61t-105.5 -23zM319 66q38 0 72.5 14t62.5 38.5t46.5 58.5t25.5 74q8 43 -0.5 83.5t-31.5 72t-60 50.5t-85 19q-39 0 -74 -13.5t-63.5 -38t-48 -58t-26.5 -73.5q-8 -44 2 -85t34 -72.5t61 -50.5t85 -19z
M372 614q-40 0 -68 13t-44.5 35t-22 51.5t0.5 62.5h63q-9 -48 12 -77t68 -30q49 1 78 30t38 77h64q-6 -33 -21.5 -62.5t-40 -51.5t-56.5 -35t-71 -13z" />
    <glyph glyph-name="Gdotaccent" unicode="&#x120;" horiz-adv-x="863" 
d="M429 -10q-86 0 -156 33.5t-116.5 90.5t-66 132t-4.5 159q12 70 47 131.5t88 106.5t120.5 71t145.5 26q54 0 102 -13.5t87.5 -38t70.5 -58t52 -73.5l-80 -42q-35 69 -95 107t-145 38q-59 0 -111.5 -20.5t-93 -56.5t-68 -84t-37.5 -103q-11 -63 2.5 -121.5t49 -103.5
t90 -72t125.5 -27q57 0 104.5 18t84 49.5t61.5 75t37 93.5h-292l15 79h379l-5 -30q-10 -80 -42 -147.5t-83 -116t-118 -76t-148 -27.5zM499 809q-30 0 -46 20.5t-10 49.5q4 23 22.5 38t41.5 15q32 0 47 -21.5t10 -47.5q-5 -24 -22.5 -39t-42.5 -15z" />
    <glyph glyph-name="gdotaccent" unicode="&#x121;" horiz-adv-x="679" 
d="M307 -11q-66 0 -117 25.5t-84.5 69t-46.5 100.5t-2 120q9 54 35.5 99t65 78t86.5 51.5t102 18.5q78 0 130 -35t75 -90l21 114h83l-88 -498q-12 -62 -35 -112t-59 -85t-86 -54t-116 -19q-91 0 -153.5 39.5t-89.5 108.5l85 28q18 -48 58.5 -74.5t106.5 -26.5q43 0 78 14
t61 39.5t42.5 61t23.5 78.5q0 -1 2 8.5t4 24.5q-31 -38 -76.5 -61t-105.5 -23zM319 66q38 0 72.5 14t62.5 38.5t46.5 58.5t25.5 74q8 43 -0.5 83.5t-31.5 72t-60 50.5t-85 19q-39 0 -74 -13.5t-63.5 -38t-48 -58t-26.5 -73.5q-8 -44 2 -85t34 -72.5t61 -50.5t85 -19z
M368 620q-30 0 -46 20.5t-10 49.5q4 23 22.5 38t41.5 15q32 0 47 -21.5t10 -47.5q-5 -24 -22.5 -39t-42.5 -15z" />
    <glyph glyph-name="Gcommaaccent" unicode="&#x122;" horiz-adv-x="863" 
d="M429 -10q-86 0 -156 33.5t-116.5 90.5t-66 132t-4.5 159q12 70 47 131.5t88 106.5t120.5 71t145.5 26q54 0 102 -13.5t87.5 -38t70.5 -58t52 -73.5l-80 -42q-35 69 -95 107t-145 38q-59 0 -111.5 -20.5t-93 -56.5t-68 -84t-37.5 -103q-11 -63 2.5 -121.5t49 -103.5
t90 -72t125.5 -27q57 0 104.5 18t84 49.5t61.5 75t37 93.5h-292l15 79h379l-5 -30q-10 -80 -42 -147.5t-83 -116t-118 -76t-148 -27.5zM334 -257q38 18 64 44t31 54q1 7 0 15q-5 -20 -17 -27.5t-29 -7.5q-21 0 -33.5 16.5t-7.5 39.5q4 23 22.5 39t47.5 16q35 0 53 -25
t12 -66q-8 -44 -40 -77t-81 -57z" />
    <glyph glyph-name="gcommaaccent" unicode="&#x123;" horiz-adv-x="679" 
d="M307 -11q-66 0 -117 25.5t-84.5 69t-46.5 100.5t-2 120q9 54 35.5 99t65 78t86.5 51.5t102 18.5q78 0 130 -35t75 -90l21 114h83l-88 -498q-12 -62 -35 -112t-59 -85t-86 -54t-116 -19q-91 0 -153.5 39.5t-89.5 108.5l85 28q18 -48 58.5 -74.5t106.5 -26.5q43 0 78 14
t61 39.5t42.5 61t23.5 78.5q0 -1 2 8.5t4 24.5q-31 -38 -76.5 -61t-105.5 -23zM319 66q38 0 72.5 14t62.5 38.5t46.5 58.5t25.5 74q8 43 -0.5 83.5t-31.5 72t-60 50.5t-85 19q-39 0 -74 -13.5t-63.5 -38t-48 -58t-26.5 -73.5q-8 -44 2 -85t34 -72.5t61 -50.5t85 -19z
M448 805q-38 -18 -64 -43.5t-31 -53.5q-2 -8 0 -15q5 20 17.5 27.5t28.5 7.5q22 0 34 -17t8 -40t-23 -39t-48 -16q-34 0 -52 25.5t-12 66.5q8 44 40 77t81 57z" />
    <glyph glyph-name="Hcircumflex" unicode="&#x124;" horiz-adv-x="724" 
d="M566 326h-388l-57 -326h-84l128 730h84l-57 -324h388l57 324h84l-128 -730h-84zM453 950h63l91 -161h-76l-56 102l-92 -102h-77z" />
    <glyph glyph-name="hcircumflex" unicode="&#x125;" horiz-adv-x="634" 
d="M164 788h83l-59 -329q33 44 80.5 68t107.5 24q54 0 94.5 -18t65.5 -51.5t33.5 -80.5t-1.5 -105l-52 -296h-84l52 296q15 83 -18 132.5t-115 49.5t-128 -49.5t-62 -140.5l-51 -288h-84zM213 1017h63l91 -161h-76l-56 102l-92 -102h-77z" />
    <glyph glyph-name="Hbar" unicode="&#x126;" horiz-adv-x="744" 
d="M98 593h53l24 137h84l-24 -137h388l24 137h84l-24 -137h58l-11 -54h-57l-94 -539h-84l57 326h-388l-57 -326h-84l94 539h-55zM590 406l23 133h-388l-23 -133h388z" />
    <glyph glyph-name="hbar" unicode="&#x127;" horiz-adv-x="634" 
d="M81 688h65l18 100h83l-18 -100l138 1l-11 -54l-137 -1l-31 -175q33 44 80.5 68t107.5 24q54 0 94.5 -18t65.5 -51.5t33.5 -80.5t-1.5 -105l-52 -296h-84l52 296q15 83 -18 132.5t-115 49.5t-128 -49.5t-62 -140.5l-51 -288h-84l111 634h-66z" />
    <glyph glyph-name="Itilde" unicode="&#x128;" horiz-adv-x="269" 
d="M174 730h84l-128 -730h-84zM58 805q9 53 40 85.5t76 32.5q26 0 44 -8t35 -19q16 -11 30.5 -20t32.5 -9q38 0 48 52h59q-11 -54 -41 -86t-77 -32q-30 0 -50.5 11t-37.5 22q-13 9 -26 16t-29 7q-37 0 -46 -52h-58z" />
    <glyph glyph-name="itilde" unicode="&#x129;" horiz-adv-x="230" 
d="M26 0l95 540h83l-95 -540h-83zM7 615q9 53 40 85.5t76 32.5q26 0 44 -8t35 -19q16 -11 30.5 -20t32.5 -9q38 0 48 52h59q-11 -54 -41 -86t-77 -32q-30 0 -50.5 11t-37.5 22q-13 9 -26 16t-29 7q-37 0 -46 -52h-58z" />
    <glyph glyph-name="Imacron" unicode="&#x12a;" horiz-adv-x="269" 
d="M174 730h84l-128 -730h-84zM115 885h264l-12 -64h-264z" />
    <glyph glyph-name="imacron" unicode="&#x12b;" horiz-adv-x="230" 
d="M26 0l95 540h83l-95 -540h-83zM61 695h264l-12 -64h-264z" />
    <glyph glyph-name="Ibreve" unicode="&#x12c;" horiz-adv-x="269" 
d="M174 730h84l-128 -730h-84zM226 798q-40 0 -68 13t-44.5 35t-22 51.5t0.5 62.5h63q-9 -48 12 -77t68 -30q49 1 78 30t38 77h64q-6 -33 -21.5 -62.5t-40 -51.5t-56.5 -35t-71 -13z" />
    <glyph glyph-name="ibreve" unicode="&#x12d;" horiz-adv-x="230" 
d="M26 0l95 540h83l-95 -540h-83zM172 608q-40 0 -68 13t-44.5 35t-22 51.5t0.5 62.5h63q-9 -48 12 -77t68 -30q49 1 78 30t38 77h64q-6 -33 -21.5 -62.5t-40 -51.5t-56.5 -35t-71 -13z" />
    <glyph glyph-name="Iogonek" unicode="&#x12e;" horiz-adv-x="269" 
d="M74 -217q-29 0 -51 9.5t-36.5 25.5t-20 36.5t-1.5 41.5q6 34 26.5 61t56.5 54l126 719h84l-128 -730h-1q-46 -33 -66.5 -57t-24.5 -47q-4 -21 8.5 -36.5t36.5 -15.5t41 9.5t36 23.5l51 -40q-32 -26 -64 -40t-73 -14z" />
    <glyph glyph-name="iogonek" unicode="&#x12f;" horiz-adv-x="230" 
d="M54 -217q-29 0 -51 9.5t-36.5 25.5t-20 36.5t-1.5 41.5q6 34 27 61t56 54l93 529h83l-95 -540q-46 -33 -66.5 -57t-24.5 -47q-4 -21 8.5 -36.5t36.5 -15.5t41 9.5t36 23.5l51 -40q-32 -26 -64 -40t-73 -14zM187 641q-31 0 -47.5 22t-10.5 51q4 25 23.5 40.5t42.5 15.5
q33 0 49 -23t11 -50q-5 -25 -23.5 -40.5t-44.5 -15.5z" />
    <glyph glyph-name="Idotaccent" unicode="&#x130;" horiz-adv-x="269" 
d="M174 730h84l-128 -730h-84zM227 804q-30 0 -46 20.5t-10 49.5q4 23 22.5 38t41.5 15q32 0 47 -21.5t10 -47.5q-5 -24 -22.5 -39t-42.5 -15z" />
    <glyph glyph-name="dotlessi" unicode="&#x131;" horiz-adv-x="230" 
d="M26 0l95 540h83l-95 -540h-83z" />
    <glyph glyph-name="IJ" unicode="&#x132;" horiz-adv-x="614" 
d="M223 79h83q60 0 90 28.5t40 87.5l95 535h85l-96 -535q-9 -51 -24 -88t-41 -60.5t-63.5 -35t-91.5 -11.5h-90zM174 730h84l-128 -730h-84z" />
    <glyph glyph-name="ij" unicode="&#x133;" horiz-adv-x="413" 
d="M26 0l94 540h85l-95 -540h-84zM9 -100h61q38 0 62 4t39.5 17.5t24.5 39t17 67.5q0 1 4 24t10.5 59.5t14.5 82t17 93.5q19 112 45 253h85l-92 -513q-11 -60 -25 -100t-38 -63t-60.5 -32.5t-91.5 -9.5h-88zM188 641q-32 0 -48 22t-10 51q3 25 22.5 40.5t43.5 15.5
q32 0 48 -23t11 -50q-5 -25 -23 -40.5t-44 -15.5zM371 641q-31 0 -47.5 22t-10.5 51q4 25 23 40.5t43 15.5q32 0 48.5 -23t11.5 -50q-5 -25 -23.5 -40.5t-44.5 -15.5z" />
    <glyph glyph-name="Jcircumflex" unicode="&#x134;" horiz-adv-x="516" 
d="M201 -10q-73 0 -123.5 37.5t-68.5 98.5l79 28q13 -39 42.5 -62.5t77.5 -23.5q57 0 89 36t42 91l95 535h84l-94 -530q-17 -100 -72 -155t-151 -55zM482 959h63l91 -161h-76l-56 102l-92 -102h-77z" />
    <glyph glyph-name="jcircumflex" unicode="&#x135;" horiz-adv-x="231" 
d="M-123 -170q38 0 62 4.5t39.5 18.5t24.5 39.5t17 66.5q0 1 5 27t12.5 67t16.5 93t19 106q23 127 51 288h84l-104 -582q-10 -60 -24.5 -99.5t-38.5 -63t-60.5 -33t-91.5 -9.5h-26zM174 769h63l91 -161h-76l-56 102l-92 -102h-77z" />
    <glyph glyph-name="Kcommaaccent" unicode="&#x136;" horiz-adv-x="684" 
d="M345 388l-186 -175l-37 -213h-85l128 730h85l-71 -405l430 405h109l-308 -289l198 -441h-91zM220 -235q38 18 64 44t31 54q1 7 0 15q-5 -20 -17 -27.5t-29 -7.5q-21 0 -33.5 16.5t-7.5 39.5q4 23 22.5 39t47.5 16q35 0 53 -25t12 -66q-8 -44 -40 -77t-81 -57z" />
    <glyph glyph-name="kcommaaccent" unicode="&#x137;" horiz-adv-x="571" 
d="M269 266l-134 -115l-26 -151h-83l138 788h83l-94 -536l332 288h109l-261 -228l173 -312h-91zM173 -234q38 18 64 44t31 54q1 7 0 15q-5 -20 -17 -27.5t-29 -7.5q-21 0 -33.5 16.5t-7.5 39.5q4 23 22.5 39t47.5 16q35 0 53 -25t12 -66q-8 -44 -40 -77t-81 -57z" />
    <glyph glyph-name="kgreenlandic" unicode="&#x138;" horiz-adv-x="571" 
d="M268 265l-133 -114l-26 -151h-83l95 540h83l-51 -287l332 287h109l-261 -228l173 -312h-90z" />
    <glyph glyph-name="Lacute" unicode="&#x139;" horiz-adv-x="596" 
d="M165 730h84l-115 -650h376l-14 -80h-459zM332 959h94l-171 -161h-69z" />
    <glyph glyph-name="lacute" unicode="&#x13a;" horiz-adv-x="229" 
d="M164 788h83l-138 -788h-83zM331 1017h94l-171 -161h-69z" />
    <glyph glyph-name="Lcommaaccent" unicode="&#x13b;" horiz-adv-x="596" 
d="M165 730h84l-115 -650h376l-14 -80h-459zM184 -252q38 18 64 44t31 54q1 7 0 15q-5 -20 -17 -27.5t-29 -7.5q-21 0 -33.5 16.5t-7.5 39.5q4 23 22.5 39t47.5 16q35 0 53 -25t12 -66q-8 -44 -40 -77t-81 -57z" />
    <glyph glyph-name="lcommaaccent" unicode="&#x13c;" horiz-adv-x="229" 
d="M164 788h83l-138 -788h-83zM-25 -252q38 18 64 44t31 54q1 7 0 15q-5 -20 -17 -27.5t-29 -7.5q-21 0 -33.5 16.5t-7.5 39.5q4 23 22.5 39t47.5 16q35 0 53 -25t12 -66q-8 -44 -40 -77t-81 -57z" />
    <glyph glyph-name="Lcaron" unicode="&#x13d;" horiz-adv-x="596" 
d="M165 730h84l-115 -650h376l-14 -80h-459zM469 561q38 18 64 43.5t31 53.5q2 8 0 14q-5 -19 -17.5 -26.5t-28.5 -7.5q-21 0 -33.5 17t-7.5 40q4 23 22.5 39t47.5 16q35 0 53 -25t12 -66q-8 -45 -40 -77.5t-81 -56.5z" />
    <glyph glyph-name="lcaron" unicode="&#x13e;" horiz-adv-x="229" 
d="M164 788h83l-138 -788h-83zM347 619q38 18 64 43.5t31 53.5q2 8 0 14q-5 -19 -17.5 -26.5t-28.5 -7.5q-21 0 -33.5 17t-7.5 40q4 23 22.5 39t47.5 16q35 0 53 -25t12 -66q-8 -45 -40 -77.5t-81 -56.5z" />
    <glyph glyph-name="Ldot" unicode="&#x13f;" horiz-adv-x="596" 
d="M165 730h84l-115 -650h376l-14 -80h-459zM463 292q-30 0 -46 20.5t-10 49.5q4 23 22.5 38t41.5 15q32 0 47 -21.5t10 -47.5q-5 -24 -22.5 -39t-42.5 -15z" />
    <glyph glyph-name="ldot" unicode="&#x140;" horiz-adv-x="384" 
d="M164 788h83l-138 -788h-83zM298 200q-30 0 -46 20.5t-10 49.5q4 23 22.5 38t41.5 15q32 0 47 -21.5t10 -47.5q-5 -24 -22.5 -39t-42.5 -15z" />
    <glyph glyph-name="Lslash" unicode="&#x141;" horiz-adv-x="614" 
d="M23 373l102 29l58 328h84l-54 -302l161 46l13 -51l-184 -53l-51 -290h376l-14 -80h-459l60 344l-78 -22z" />
    <glyph glyph-name="lslash" unicode="&#x142;" horiz-adv-x="319" 
d="M35 404l103 30l62 354h83l-58 -329l114 34l-10 -59l-114 -34l-70 -400h-83l65 374l-102 -30z" />
    <glyph glyph-name="Nacute" unicode="&#x143;" horiz-adv-x="763" 
d="M165 730h87l319 -604l107 604h82l-128 -730h-82l-324 611l-107 -611h-82zM585 948h94l-171 -161h-69z" />
    <glyph glyph-name="nacute" unicode="&#x144;" horiz-adv-x="635" 
d="M120 540h82l-15 -81q32 45 79 68.5t107 23.5q55 0 96.5 -18t67 -51.5t34.5 -80.5t-1 -105l-53 -296h-84l52 296q15 83 -18.5 132.5t-116.5 49.5t-129 -52.5t-62 -141.5l-51 -284h-83zM494 773h94l-171 -161h-69z" />
    <glyph glyph-name="Ncommaaccent" unicode="&#x145;" horiz-adv-x="763" 
d="M165 730h87l319 -604l107 604h82l-128 -730h-82l-324 611l-107 -611h-82zM230 -245q38 18 64 44t31 54q1 7 0 15q-5 -20 -17 -27.5t-29 -7.5q-21 0 -33.5 16.5t-7.5 39.5q4 23 22.5 39t47.5 16q35 0 53 -25t12 -66q-8 -44 -40 -77t-81 -57z" />
    <glyph glyph-name="ncommaaccent" unicode="&#x146;" horiz-adv-x="635" 
d="M120 540h82l-15 -81q32 45 79 68.5t107 23.5q55 0 96.5 -18t67 -51.5t34.5 -80.5t-1 -105l-53 -296h-84l52 296q15 83 -18.5 132.5t-116.5 49.5t-129 -52.5t-62 -141.5l-51 -284h-83zM183 -237q38 18 64 44t31 54q1 7 0 15q-5 -20 -17 -27.5t-29 -7.5q-21 0 -33.5 16.5
t-7.5 39.5q4 23 22.5 39t47.5 16q35 0 53 -25t12 -66q-8 -44 -40 -77t-81 -57z" />
    <glyph glyph-name="Ncaron" unicode="&#x147;" horiz-adv-x="763" 
d="M165 730h87l319 -604l107 604h82l-128 -730h-82l-324 611l-107 -611h-82zM363 949h76l56 -102l92 102h76l-147 -161h-62z" />
    <glyph glyph-name="ncaron" unicode="&#x148;" horiz-adv-x="635" 
d="M120 540h82l-15 -81q32 45 79 68.5t107 23.5q55 0 96.5 -18t67 -51.5t34.5 -80.5t-1 -105l-53 -296h-84l52 296q15 83 -18.5 132.5t-116.5 49.5t-129 -52.5t-62 -141.5l-51 -284h-83zM257 774h76l56 -102l92 102h76l-147 -161h-62z" />
    <glyph glyph-name="Eng" unicode="&#x14a;" horiz-adv-x="745" 
d="M350 -143h39q67 0 96.5 30t38.5 91l5 24l-299 598l-105 -600h-85l128 730h89l295 -589l104 589h84l-131 -746q-10 -56 -25.5 -95.5t-41 -64.5t-63 -36t-91.5 -11h-53z" />
    <glyph glyph-name="eng" unicode="&#x14b;" 
d="M282 -170q39 0 63.5 4.5t40 18t24.5 39t17 67.5q0 1 2.5 15.5t7 38.5t9.5 54t11 62q13 74 29 167q15 83 -19.5 132.5t-114.5 49.5q-81 0 -128 -49.5t-64 -143.5l-51 -285h-82l95 540h81l-15 -81q32 44 79 68t108 24q54 0 95 -18t67 -51.5t35 -80.5t-1 -105l-59 -338
q-11 -60 -25 -99.5t-38.5 -63t-61.5 -33t-92 -9.5h-27z" />
    <glyph glyph-name="Omacron" unicode="&#x14c;" horiz-adv-x="875" 
d="M426 -10q-86 0 -155 33t-115 90t-65 132.5t-4 159.5q13 73 49 134.5t88.5 106t119 69.5t139.5 25q88 0 157 -35.5t114 -93.5t63 -133t4 -154q-13 -73 -48.5 -134t-88 -105.5t-118.5 -69.5t-140 -25zM433 70q57 0 108 20t91.5 55t68.5 83.5t38 104.5q11 61 -2 120
t-47.5 105.5t-88.5 74.5t-125 28q-57 0 -108.5 -20t-92 -55.5t-68 -84t-37.5 -105.5q-11 -66 3 -125t49.5 -104t89 -71t121.5 -26zM382 890h264l-12 -64h-264z" />
    <glyph glyph-name="omacron" unicode="&#x14d;" horiz-adv-x="668" 
d="M315 -11q-66 0 -119 24.5t-88 67.5t-49 101t-2 125q9 52 35.5 96.5t65.5 77.5t89.5 51.5t108.5 18.5q65 0 117.5 -25t87 -68t49 -101.5t2.5 -125.5q-9 -53 -35 -97.5t-64.5 -76.5t-89 -50t-108.5 -18zM316 65q42 0 78 12.5t64.5 35.5t47 55.5t26.5 73.5q8 46 0 88.5
t-31.5 75t-61 52t-88.5 19.5q-43 0 -79 -13t-63.5 -37t-45.5 -57.5t-25 -73.5q-9 -49 0.5 -91t33.5 -73t61 -49t83 -18zM258 701h264l-12 -64h-264z" />
    <glyph glyph-name="Obreve" unicode="&#x14e;" horiz-adv-x="875" 
d="M426 -10q-86 0 -155 33t-115 90t-65 132.5t-4 159.5q13 73 49 134.5t88.5 106t119 69.5t139.5 25q88 0 157 -35.5t114 -93.5t63 -133t4 -154q-13 -73 -48.5 -134t-88 -105.5t-118.5 -69.5t-140 -25zM433 70q57 0 108 20t91.5 55t68.5 83.5t38 104.5q11 61 -2 120
t-47.5 105.5t-88.5 74.5t-125 28q-57 0 -108.5 -20t-92 -55.5t-68 -84t-37.5 -105.5q-11 -66 3 -125t49.5 -104t89 -71t121.5 -26zM495 806q-40 0 -68 13t-44.5 35t-22 51.5t0.5 62.5h63q-9 -48 12 -77t68 -30q49 1 78 30t38 77h64q-6 -33 -21.5 -62.5t-40 -51.5t-56.5 -35
t-71 -13z" />
    <glyph glyph-name="obreve" unicode="&#x14f;" horiz-adv-x="668" 
d="M315 -11q-66 0 -119 24.5t-88 67.5t-49 101t-2 125q9 52 35.5 96.5t65.5 77.5t89.5 51.5t108.5 18.5q65 0 117.5 -25t87 -68t49 -101.5t2.5 -125.5q-9 -53 -35 -97.5t-64.5 -76.5t-89 -50t-108.5 -18zM316 65q42 0 78 12.5t64.5 35.5t47 55.5t26.5 73.5q8 46 0 88.5
t-31.5 75t-61 52t-88.5 19.5q-43 0 -79 -13t-63.5 -37t-45.5 -57.5t-25 -73.5q-9 -49 0.5 -91t33.5 -73t61 -49t83 -18zM370 614q-40 0 -68 13t-44.5 35t-22 51.5t0.5 62.5h63q-9 -48 12 -77t68 -30q49 1 78 30t38 77h64q-6 -33 -21.5 -62.5t-40 -51.5t-56.5 -35t-71 -13z
" />
    <glyph glyph-name="Ohungarumlaut" unicode="&#x150;" horiz-adv-x="875" 
d="M426 -10q-86 0 -155 33t-115 90t-65 132.5t-4 159.5q13 73 49 134.5t88.5 106t119 69.5t139.5 25q88 0 157 -35.5t114 -93.5t63 -133t4 -154q-13 -73 -48.5 -134t-88 -105.5t-118.5 -69.5t-140 -25zM433 70q57 0 108 20t91.5 55t68.5 83.5t38 104.5q11 61 -2 120
t-47.5 105.5t-88.5 74.5t-125 28q-57 0 -108.5 -20t-92 -55.5t-68 -84t-37.5 -105.5q-11 -66 3 -125t49.5 -104t89 -71t121.5 -26zM547 964h90l-172 -161h-64zM689 964h89l-171 -161h-63z" />
    <glyph glyph-name="ohungarumlaut" unicode="&#x151;" horiz-adv-x="668" 
d="M315 -11q-66 0 -119 24.5t-88 67.5t-49 101t-2 125q9 52 35.5 96.5t65.5 77.5t89.5 51.5t108.5 18.5q65 0 117.5 -25t87 -68t49 -101.5t2.5 -125.5q-9 -53 -35 -97.5t-64.5 -76.5t-89 -50t-108.5 -18zM316 65q42 0 78 12.5t64.5 35.5t47 55.5t26.5 73.5q8 46 0 88.5
t-31.5 75t-61 52t-88.5 19.5q-43 0 -79 -13t-63.5 -37t-45.5 -57.5t-25 -73.5q-9 -49 0.5 -91t33.5 -73t61 -49t83 -18zM423 775h90l-172 -161h-64zM565 775h89l-171 -161h-63z" />
    <glyph glyph-name="OE" unicode="&#x152;" horiz-adv-x="1262" 
d="M704 126q-51 -63 -122 -99.5t-156 -36.5t-154.5 33.5t-115.5 90.5t-65.5 132t-4.5 159q13 73 49.5 134.5t90 106t120 69.5t138.5 25q109 0 185 -50t111 -133l30 173h462l-14 -78h-378l-43 -245h378l-14 -79h-378l-44 -249h378l-13 -79h-462zM435 72q55 0 106 21t92 58
t69 86.5t38 105.5q11 61 -2 119t-47 102t-88 71t-124 27q-57 0 -109 -20t-93.5 -56t-69.5 -84.5t-38 -105.5q-11 -63 2.5 -121.5t49 -103.5t90 -72t124.5 -27z" />
    <glyph glyph-name="oe" unicode="&#x153;" horiz-adv-x="1129" 
d="M314 -11q-66 0 -119 24.5t-87.5 67.5t-48.5 101t-2 125q9 52 35.5 96.5t65.5 77.5t89.5 51.5t108.5 18.5q78 0 137.5 -35t91.5 -95q40 59 104 94.5t149 35.5q64 0 114 -22.5t82 -61.5t45 -91.5t4 -112.5l-4 -22h-469q1 -80 52 -129t145 -49q54 0 95 20.5t75 59.5l65 -49
q-46 -52 -105 -78.5t-135 -26.5q-90 0 -150 33t-91 90q-40 -57 -103.5 -90t-143.5 -33zM316 65q42 0 78 12.5t64 35.5t47 55.5t27 73.5q8 46 0 88.5t-31 75t-60.5 52t-88.5 19.5q-43 0 -79 -13t-63.5 -37t-46 -57.5t-25.5 -73.5q-9 -49 0.5 -91t33.5 -73t61 -49t83 -18z
M832 480q-83 -1 -138 -46.5t-75 -120.5h388q-1 77 -45.5 122t-129.5 45z" />
    <glyph glyph-name="Racute" unicode="&#x154;" horiz-adv-x="698" 
d="M165 730h278q60 0 107 -20t77.5 -55.5t43 -83.5t2.5 -104q-7 -39 -25.5 -73t-45.5 -60.5t-61 -45t-71 -25.5l140 -263h-93l-132 256h-219l-45 -256h-84zM236 655l-57 -325h215q81 0 132.5 39t63.5 109q13 78 -28.5 126.5t-130.5 50.5h-195zM533 959h94l-171 -161h-69z
" />
    <glyph glyph-name="racute" unicode="&#x155;" horiz-adv-x="412" 
d="M120 540h80l-19 -106q27 51 70.5 78.5t105.5 27.5h59l-16 -84h-51q-44 0 -77 -13t-56.5 -37t-38.5 -57.5t-22 -73.5l-48 -275h-82zM401 760h94l-171 -161h-69z" />
    <glyph glyph-name="Rcommaaccent" unicode="&#x156;" horiz-adv-x="698" 
d="M165 730h278q60 0 107 -20t77.5 -55.5t43 -83.5t2.5 -104q-7 -39 -25.5 -73t-45.5 -60.5t-61 -45t-71 -25.5l140 -263h-93l-132 256h-219l-45 -256h-84zM236 655l-57 -325h215q81 0 132.5 39t63.5 109q13 78 -28.5 126.5t-130.5 50.5h-195zM223 -235q38 18 64 44t31 54
q1 7 0 15q-5 -20 -17 -27.5t-29 -7.5q-21 0 -33.5 16.5t-7.5 39.5q4 23 22.5 39t47.5 16q35 0 53 -25t12 -66q-8 -44 -40 -77t-81 -57z" />
    <glyph glyph-name="rcommaaccent" unicode="&#x157;" horiz-adv-x="412" 
d="M120 540h80l-19 -106q27 51 70.5 78.5t105.5 27.5h59l-16 -84h-51q-44 0 -77 -13t-56.5 -37t-38.5 -57.5t-22 -73.5l-48 -275h-82zM-28 -252q38 18 64 44t31 54q1 7 0 15q-5 -20 -17 -27.5t-29 -7.5q-21 0 -33.5 16.5t-7.5 39.5q4 23 22.5 39t47.5 16q35 0 53 -25t12 -66
q-8 -44 -40 -77t-81 -57z" />
    <glyph glyph-name="Rcaron" unicode="&#x158;" horiz-adv-x="698" 
d="M165 730h278q60 0 107 -20t77.5 -55.5t43 -83.5t2.5 -104q-7 -39 -25.5 -73t-45.5 -60.5t-61 -45t-71 -25.5l140 -263h-93l-132 256h-219l-45 -256h-84zM236 655l-57 -325h215q81 0 132.5 39t63.5 109q13 78 -28.5 126.5t-130.5 50.5h-195zM296 960h76l56 -102l92 102h76
l-147 -161h-62z" />
    <glyph glyph-name="rcaron" unicode="&#x159;" horiz-adv-x="412" 
d="M120 540h80l-19 -106q27 51 70.5 78.5t105.5 27.5h59l-16 -84h-51q-44 0 -77 -13t-56.5 -37t-38.5 -57.5t-22 -73.5l-48 -275h-82zM163 761h76l56 -102l92 102h76l-147 -161h-62z" />
    <glyph glyph-name="Sacute" unicode="&#x15a;" horiz-adv-x="643" 
d="M315 -12q-57 0 -104 11.5t-85.5 32.5t-68.5 49.5t-53 62.5l76 57q39 -65 98 -99.5t140 -34.5q77 0 119.5 33.5t51.5 85.5q7 39 -6.5 64.5t-39.5 43.5t-62 30.5t-75 24.5q-42 13 -81 29.5t-67.5 42t-42.5 62t-4 90.5q6 37 26 68t52 53.5t74.5 35t93.5 12.5
q96 0 165.5 -35.5t117.5 -91.5l-73 -54q-40 51 -92 78.5t-127 27.5q-69 0 -108 -29t-47 -74q-6 -35 5.5 -58.5t35.5 -40.5t58 -29t73 -25q43 -14 84.5 -31.5t72.5 -44t46.5 -65t5.5 -95.5q-7 -39 -28 -73t-54 -59.5t-77.5 -40t-99.5 -14.5zM510 964h94l-171 -161h-69z" />
    <glyph glyph-name="sacute" unicode="&#x15b;" horiz-adv-x="526" 
d="M245 -11q-44 0 -82 9.5t-69 26t-55.5 38.5t-40.5 46l73 48q25 -42 72 -69t108 -27q56 0 87 23t38 59q4 22 -6 37.5t-29 27.5t-45.5 21t-54.5 18q-34 10 -67 23t-57 33t-35.5 48.5t-3.5 70.5q12 61 65.5 95.5t135.5 34.5q80 0 135.5 -28t94.5 -76l-70 -46q-28 39 -67.5 60
t-99.5 21q-50 0 -78.5 -18.5t-34.5 -51.5q-4 -22 5.5 -37t28 -26.5t44.5 -20.5t55 -18q33 -10 66 -23.5t57 -33.5t36.5 -49.5t5.5 -71.5q-5 -30 -21.5 -56.5t-43.5 -46t-64 -30.5t-83 -11zM431 776h94l-171 -161h-69z" />
    <glyph glyph-name="Scircumflex" unicode="&#x15c;" horiz-adv-x="643" 
d="M315 -12q-57 0 -104 11.5t-85.5 32.5t-68.5 49.5t-53 62.5l76 57q39 -65 98 -99.5t140 -34.5q77 0 119.5 33.5t51.5 85.5q7 39 -6.5 64.5t-39.5 43.5t-62 30.5t-75 24.5q-42 13 -81 29.5t-67.5 42t-42.5 62t-4 90.5q6 37 26 68t52 53.5t74.5 35t93.5 12.5
q96 0 165.5 -35.5t117.5 -91.5l-73 -54q-40 51 -92 78.5t-127 27.5q-69 0 -108 -29t-47 -74q-6 -35 5.5 -58.5t35.5 -40.5t58 -29t73 -25q43 -14 84.5 -31.5t72.5 -44t46.5 -65t5.5 -95.5q-7 -39 -28 -73t-54 -59.5t-77.5 -40t-99.5 -14.5zM392 964h63l91 -161h-76l-56 102
l-92 -102h-77z" />
    <glyph glyph-name="scircumflex" unicode="&#x15d;" horiz-adv-x="526" 
d="M245 -11q-44 0 -82 9.5t-69 26t-55.5 38.5t-40.5 46l73 48q25 -42 72 -69t108 -27q56 0 87 23t38 59q4 22 -6 37.5t-29 27.5t-45.5 21t-54.5 18q-34 10 -67 23t-57 33t-35.5 48.5t-3.5 70.5q12 61 65.5 95.5t135.5 34.5q80 0 135.5 -28t94.5 -76l-70 -46q-28 39 -67.5 60
t-99.5 21q-50 0 -78.5 -18.5t-34.5 -51.5q-4 -22 5.5 -37t28 -26.5t44.5 -20.5t55 -18q33 -10 66 -23.5t57 -33.5t36.5 -49.5t5.5 -71.5q-5 -30 -21.5 -56.5t-43.5 -46t-64 -30.5t-83 -11zM312 776h63l91 -161h-76l-56 102l-92 -102h-77z" />
    <glyph glyph-name="Scedilla" unicode="&#x15e;" horiz-adv-x="643" 
d="M256 -237q-50 0 -86.5 15.5t-59.5 41.5l62 35q17 -17 37.5 -27t50.5 -10q31 0 50 10t23 29q8 41 -68 41h-40l17 96q-84 13 -142 53t-96 97l76 57q39 -65 98 -99.5t140 -34.5q77 0 119.5 33.5t51.5 85.5q7 39 -6.5 64.5t-39.5 43.5t-62 30.5t-75 24.5q-42 13 -81 29.5
t-67.5 42t-42.5 62t-4 90.5q6 37 26 68t52 53.5t74.5 35t93.5 12.5q96 0 165.5 -35.5t117.5 -91.5l-73 -54q-40 51 -92 78.5t-127 27.5q-69 0 -108 -29t-47 -74q-6 -35 5.5 -58.5t35.5 -40.5t58 -29t73 -25q43 -14 84.5 -31.5t72.5 -44t46.5 -65t5.5 -95.5q-7 -39 -28 -73
t-54 -59.5t-77.5 -40t-99.5 -14.5h-12l-8 -45q59 -3 84 -29.5t19 -63.5q-7 -42 -46.5 -64.5t-95.5 -22.5z" />
    <glyph glyph-name="scedilla" unicode="&#x15f;" horiz-adv-x="526" 
d="M194 -237q-50 0 -86.5 15.5t-59.5 41.5l62 35q17 -17 37.5 -27t50.5 -10q31 0 50 10t23 29q8 41 -68 41h-40l18 97q-64 11 -110.5 42.5t-72.5 71.5l73 48q25 -42 72 -69t108 -27q56 0 87 23t38 59q4 22 -6 37.5t-29 27.5t-45.5 21t-54.5 18q-34 10 -67 23t-57 33
t-35.5 48.5t-3.5 70.5q12 61 65.5 95.5t135.5 34.5q80 0 135.5 -28t94.5 -76l-70 -46q-28 39 -67.5 60t-99.5 21q-50 0 -78.5 -18.5t-34.5 -51.5q-4 -22 5.5 -37t28 -26.5t44.5 -20.5t55 -18q33 -10 66 -23.5t57 -33.5t36.5 -49.5t5.5 -71.5q-5 -30 -21.5 -56.5t-43.5 -46
t-64 -30.5t-83 -11h-3l-9 -46q59 -3 84 -29.5t19 -63.5q-7 -42 -46.5 -64.5t-95.5 -22.5z" />
    <glyph glyph-name="Scaron" unicode="&#x160;" horiz-adv-x="643" 
d="M315 -12q-57 0 -104 11.5t-85.5 32.5t-68.5 49.5t-53 62.5l76 57q39 -65 98 -99.5t140 -34.5q77 0 119.5 33.5t51.5 85.5q7 39 -6.5 64.5t-39.5 43.5t-62 30.5t-75 24.5q-42 13 -81 29.5t-67.5 42t-42.5 62t-4 90.5q6 37 26 68t52 53.5t74.5 35t93.5 12.5
q96 0 165.5 -35.5t117.5 -91.5l-73 -54q-40 51 -92 78.5t-127 27.5q-69 0 -108 -29t-47 -74q-6 -35 5.5 -58.5t35.5 -40.5t58 -29t73 -25q43 -14 84.5 -31.5t72.5 -44t46.5 -65t5.5 -95.5q-7 -39 -28 -73t-54 -59.5t-77.5 -40t-99.5 -14.5zM273 965h76l56 -102l92 102h76
l-147 -161h-62z" />
    <glyph glyph-name="scaron" unicode="&#x161;" horiz-adv-x="526" 
d="M245 -11q-44 0 -82 9.5t-69 26t-55.5 38.5t-40.5 46l73 48q25 -42 72 -69t108 -27q56 0 87 23t38 59q4 22 -6 37.5t-29 27.5t-45.5 21t-54.5 18q-34 10 -67 23t-57 33t-35.5 48.5t-3.5 70.5q12 61 65.5 95.5t135.5 34.5q80 0 135.5 -28t94.5 -76l-70 -46q-28 39 -67.5 60
t-99.5 21q-50 0 -78.5 -18.5t-34.5 -51.5q-4 -22 5.5 -37t28 -26.5t44.5 -20.5t55 -18q33 -10 66 -23.5t57 -33.5t36.5 -49.5t5.5 -71.5q-5 -30 -21.5 -56.5t-43.5 -46t-64 -30.5t-83 -11zM194 777h76l56 -102l92 102h76l-147 -161h-62z" />
    <glyph glyph-name="Tcommaaccent" unicode="&#x162;" horiz-adv-x="646" 
d="M234 0l114 652h-228l14 78h540l-13 -78h-229l-114 -652h-84zM183 -252q38 18 64 44t31 54q1 7 0 15q-5 -20 -17 -27.5t-29 -7.5q-21 0 -33.5 16.5t-7.5 39.5q4 23 22.5 39t47.5 16q35 0 53 -25t12 -66q-8 -44 -40 -77t-81 -57z" />
    <glyph glyph-name="tcommaaccent" unicode="&#x163;" horiz-adv-x="383" 
d="M70 540h99l23 129l90 46l-31 -175h137l-13 -73h-137l-46 -259q-8 -41 -7 -67t13 -40.5t37.5 -20t67.5 -5.5h3l-13 -75h-12q-58 0 -96 10t-58 34t-23.5 64t7.5 100l45 259h-99zM111 -249q38 18 64 44t31 54q1 7 0 15q-5 -20 -17 -27.5t-29 -7.5q-21 0 -33.5 16.5
t-7.5 39.5q4 23 22.5 39t47.5 16q35 0 53 -25t12 -66q-8 -44 -40 -77t-81 -57z" />
    <glyph glyph-name="Tcaron" unicode="&#x164;" horiz-adv-x="646" 
d="M234 0l114 652h-228l14 78h540l-13 -78h-229l-114 -652h-84zM293 960h76l56 -102l92 102h76l-147 -161h-62z" />
    <glyph glyph-name="tcaron" unicode="&#x165;" horiz-adv-x="383" 
d="M70 540h99l23 129l90 46l-31 -175h137l-13 -73h-137l-46 -259q-8 -41 -7 -67t13 -40.5t37.5 -20t67.5 -5.5h3l-13 -75h-12q-58 0 -96 10t-58 34t-23.5 64t7.5 100l45 259h-99zM369 638q38 18 64 43.5t31 53.5q2 8 0 14q-5 -19 -17.5 -26.5t-28.5 -7.5q-21 0 -33.5 17
t-7.5 40q4 23 22.5 39t47.5 16q35 0 53 -25t12 -66q-8 -45 -40 -77.5t-81 -56.5z" />
    <glyph glyph-name="Tbar" unicode="&#x166;" horiz-adv-x="646" 
d="M234 0l62 358h-112l12 59h111l41 235h-228l14 78h540l-13 -78h-229l-41 -235h113l-12 -59h-112l-62 -358h-84z" />
    <glyph glyph-name="tbar" unicode="&#x167;" horiz-adv-x="367" 
d="M55 540h99l23 129l90 46l-31 -175h137l-13 -73h-137l-26 -146l106 1l-12 -57h-104l-10 -57q-8 -41 -7 -67t13 -40.5t37.5 -20t67.5 -5.5h3l-13 -75h-12q-58 0 -96 10t-58 34t-23.5 64t7.5 100l10 57h-82l12 56h80l25 146h-99z" />
    <glyph glyph-name="Utilde" unicode="&#x168;" horiz-adv-x="723" 
d="M331 -10q-63 0 -114 19.5t-85 56.5t-48 90.5t-2 121.5l80 452h84l-81 -461q-8 -44 0 -80.5t30 -63.5t57.5 -42t84.5 -15q48 0 85.5 14.5t65 40t44.5 60t24 73.5l83 474h84l-83 -473q-11 -62 -36 -111t-64 -84t-91.5 -53.5t-117.5 -18.5zM281 794q9 53 40 85.5t76 32.5
q26 0 44 -8t35 -19q16 -11 30.5 -20t32.5 -9q38 0 48 52h59q-11 -54 -41 -86t-77 -32q-30 0 -50.5 11t-37.5 22q-13 9 -26 16t-29 7q-37 0 -46 -52h-58z" />
    <glyph glyph-name="utilde" unicode="&#x169;" horiz-adv-x="610" 
d="M245 -11q-53 0 -91.5 18t-62.5 51t-31.5 80t3.5 105l52 297h84l-52 -295q-14 -81 17.5 -131.5t106.5 -50.5q69 0 116.5 47t63.5 134l53 296h82l-95 -540h-82l14 82q-32 -45 -76.5 -69t-101.5 -24zM190 602q9 53 40 85.5t76 32.5q26 0 44 -8t35 -19q16 -11 30.5 -20
t32.5 -9q38 0 48 52h59q-11 -54 -41 -86t-77 -32q-30 0 -50.5 11t-37.5 22q-13 9 -26 16t-29 7q-37 0 -46 -52h-58z" />
    <glyph glyph-name="Umacron" unicode="&#x16a;" horiz-adv-x="723" 
d="M331 -10q-63 0 -114 19.5t-85 56.5t-48 90.5t-2 121.5l80 452h84l-81 -461q-8 -44 0 -80.5t30 -63.5t57.5 -42t84.5 -15q48 0 85.5 14.5t65 40t44.5 60t24 73.5l83 474h84l-83 -473q-11 -62 -36 -111t-64 -84t-91.5 -53.5t-117.5 -18.5zM335 874h264l-12 -64h-264z" />
    <glyph glyph-name="umacron" unicode="&#x16b;" horiz-adv-x="610" 
d="M245 -11q-53 0 -91.5 18t-62.5 51t-31.5 80t3.5 105l52 297h84l-52 -295q-14 -81 17.5 -131.5t106.5 -50.5q69 0 116.5 47t63.5 134l53 296h82l-95 -540h-82l14 82q-32 -45 -76.5 -69t-101.5 -24zM244 682h264l-12 -64h-264z" />
    <glyph glyph-name="Ubreve" unicode="&#x16c;" horiz-adv-x="723" 
d="M331 -10q-63 0 -114 19.5t-85 56.5t-48 90.5t-2 121.5l80 452h84l-81 -461q-8 -44 0 -80.5t30 -63.5t57.5 -42t84.5 -15q48 0 85.5 14.5t65 40t44.5 60t24 73.5l83 474h84l-83 -473q-11 -62 -36 -111t-64 -84t-91.5 -53.5t-117.5 -18.5zM447 787q-40 0 -68 13t-44.5 35
t-22 51.5t0.5 62.5h63q-9 -48 12 -77t68 -30q49 1 78 30t38 77h64q-6 -33 -21.5 -62.5t-40 -51.5t-56.5 -35t-71 -13z" />
    <glyph glyph-name="ubreve" unicode="&#x16d;" horiz-adv-x="610" 
d="M245 -11q-53 0 -91.5 18t-62.5 51t-31.5 80t3.5 105l52 297h84l-52 -295q-14 -81 17.5 -131.5t106.5 -50.5q69 0 116.5 47t63.5 134l53 296h82l-95 -540h-82l14 82q-32 -45 -76.5 -69t-101.5 -24zM357 594q-40 0 -68 13t-44.5 35t-22 51.5t0.5 62.5h63q-9 -48 12 -77
t68 -30q49 1 78 30t38 77h64q-6 -33 -21.5 -62.5t-40 -51.5t-56.5 -35t-71 -13z" />
    <glyph glyph-name="Uring" unicode="&#x16e;" horiz-adv-x="723" 
d="M331 -10q-63 0 -114 19.5t-85 56.5t-48 90.5t-2 121.5l80 452h84l-81 -461q-8 -44 0 -80.5t30 -63.5t57.5 -42t84.5 -15q48 0 85.5 14.5t65 40t44.5 60t24 73.5l83 474h84l-83 -473q-11 -62 -36 -111t-64 -84t-91.5 -53.5t-117.5 -18.5zM450 776q-24 0 -43 10t-31.5 26.5
t-17 38.5t1.5 46q10 38 41 62t69 24q24 0 43.5 -10t32 -26.5t17 -38t-1.5 -44.5q-10 -38 -39.5 -63t-71.5 -25zM454 827q20 0 36.5 13.5t20.5 31.5q5 23 -8 41.5t-38 18.5q-19 0 -34.5 -13t-20.5 -32q-5 -23 7 -41.5t37 -18.5z" />
    <glyph glyph-name="uring" unicode="&#x16f;" horiz-adv-x="610" 
d="M245 -11q-53 0 -91.5 18t-62.5 51t-31.5 80t3.5 105l52 297h84l-52 -295q-14 -81 17.5 -131.5t106.5 -50.5q69 0 116.5 47t63.5 134l53 296h82l-95 -540h-82l14 82q-32 -45 -76.5 -69t-101.5 -24zM354 594q-24 0 -43 10t-31.5 26.5t-17 38.5t1.5 46q10 38 41 62t69 24
q24 0 43.5 -10t32 -26.5t17 -38t-1.5 -44.5q-10 -38 -39.5 -63t-71.5 -25zM358 645q20 0 36.5 13.5t20.5 31.5q5 23 -8 41.5t-38 18.5q-19 0 -34.5 -13t-20.5 -32q-5 -23 7 -41.5t37 -18.5z" />
    <glyph glyph-name="Uhungarumlaut" unicode="&#x170;" horiz-adv-x="723" 
d="M331 -10q-63 0 -114 19.5t-85 56.5t-48 90.5t-2 121.5l80 452h84l-81 -461q-8 -44 0 -80.5t30 -63.5t57.5 -42t84.5 -15q48 0 85.5 14.5t65 40t44.5 60t24 73.5l83 474h84l-83 -473q-11 -62 -36 -111t-64 -84t-91.5 -53.5t-117.5 -18.5zM500 948h90l-172 -161h-64z
M642 948h89l-171 -161h-63z" />
    <glyph glyph-name="uhungarumlaut" unicode="&#x171;" horiz-adv-x="610" 
d="M245 -11q-53 0 -91.5 18t-62.5 51t-31.5 80t3.5 105l52 297h84l-52 -295q-14 -81 17.5 -131.5t106.5 -50.5q69 0 116.5 47t63.5 134l53 296h82l-95 -540h-82l14 82q-32 -45 -76.5 -69t-101.5 -24zM399 756h90l-172 -161h-64zM541 756h89l-171 -161h-63z" />
    <glyph glyph-name="Uogonek" unicode="&#x172;" horiz-adv-x="723" 
d="M356 -202q-57 0 -87.5 31t-22.5 74q4 24 17 45t42 43q-58 4 -104 25t-76.5 57.5t-42 88t-0.5 116.5l80 452h84l-81 -461q-8 -44 0 -80.5t30 -63.5t57.5 -42t84.5 -15q48 0 85.5 14.5t65 40t44.5 60t24 73.5l83 474h84l-83 -473q-17 -96 -67.5 -161t-133.5 -91
q-36 -20 -58.5 -34t-35.5 -25t-19 -21t-7 -21q-4 -21 9.5 -33t36.5 -12q24 0 41 9.5t35 23.5l52 -40q-30 -23 -64 -38.5t-73 -15.5z" />
    <glyph glyph-name="uogonek" unicode="&#x173;" horiz-adv-x="610" 
d="M436 -217q-29 0 -51 9.5t-36.5 25.5t-20 36.5t-1.5 41.5q5 34 26.5 61t57.5 54l12 71q-32 -45 -76.5 -69t-101.5 -24q-53 0 -91.5 18t-62.5 51t-31.5 80t3.5 105l52 297h84l-52 -295q-14 -81 17.5 -131.5t106.5 -50.5q69 0 116.5 47t63.5 134l53 296h82l-95 -540
q-46 -33 -66.5 -57t-24.5 -47q-4 -21 8.5 -36.5t36.5 -15.5t41 9.5t36 23.5l51 -40q-32 -26 -64 -40t-73 -14z" />
    <glyph glyph-name="Wcircumflex" unicode="&#x174;" horiz-adv-x="1082" 
d="M693 0l-101 609l-303 -609h-83l-83 730h86l63 -599l300 599h80l100 -603l281 603h88l-346 -730h-82zM619 959h63l91 -161h-76l-56 102l-92 -102h-77z" />
    <glyph glyph-name="wcircumflex" unicode="&#x175;" horiz-adv-x="916" 
d="M81 540h83l43 -430l249 430h79l71 -432l232 432h93l-299 -540h-85l-72 427l-253 -427h-83zM502 769h63l91 -161h-76l-56 102l-92 -102h-77z" />
    <glyph glyph-name="Ycircumflex" unicode="&#x176;" horiz-adv-x="675" 
d="M297 303l-193 427h87l160 -356l283 356h98l-353 -438l-51 -292h-84zM414 949h63l91 -161h-76l-56 102l-92 -102h-77z" />
    <glyph glyph-name="ycircumflex" unicode="&#x177;" horiz-adv-x="594" 
d="M51 -201q-51 0 -87.5 20t-57.5 52l69 54q13 -22 31.5 -35t49.5 -13q16 0 32 4.5t32.5 16t33.5 32t37 53.5l31 51l-149 506h86l119 -413l242 413h93l-351 -583q-27 -45 -51.5 -75.5t-49 -48.5t-51.5 -26t-59 -8zM339 761h63l91 -161h-76l-56 102l-92 -102h-77z" />
    <glyph glyph-name="Ydieresis" unicode="&#x178;" horiz-adv-x="675" 
d="M297 303l-193 427h87l160 -356l283 356h98l-353 -438l-51 -292h-84zM333 798q-28 0 -42.5 18t-9.5 44q4 22 21 35.5t38 13.5q29 0 42.5 -19.5t8.5 -43.5q-3 -22 -19 -35t-39 -13zM513 798q-27 0 -41.5 18t-9.5 44q3 22 20.5 35.5t38.5 13.5q28 0 42 -19.5t9 -43.5
q-4 -22 -20 -35t-39 -13z" />
    <glyph glyph-name="Zacute" unicode="&#x179;" horiz-adv-x="658" 
d="M16 0l13 77l527 576h-410l13 77h512l-13 -76l-523 -574h426l-14 -80h-531zM528 959h94l-171 -161h-69z" />
    <glyph glyph-name="zacute" unicode="&#x17a;" horiz-adv-x="580" 
d="M21 74l426 393h-348l14 73h458l-14 -73l-425 -393h361l-13 -74h-472zM452 770h94l-171 -161h-69z" />
    <glyph glyph-name="Zdotaccent" unicode="&#x17b;" horiz-adv-x="658" 
d="M16 0l13 77l527 576h-410l13 77h512l-13 -76l-523 -574h426l-14 -80h-531zM418 804q-30 0 -46 20.5t-10 49.5q4 23 22.5 38t41.5 15q32 0 47 -21.5t10 -47.5q-5 -24 -22.5 -39t-42.5 -15z" />
    <glyph glyph-name="zdotaccent" unicode="&#x17c;" horiz-adv-x="580" 
d="M21 74l426 393h-348l14 73h458l-14 -73l-425 -393h361l-13 -74h-472zM351 615q-30 0 -46 20.5t-10 49.5q4 23 22.5 38t41.5 15q32 0 47 -21.5t10 -47.5q-5 -24 -22.5 -39t-42.5 -15z" />
    <glyph glyph-name="Zcaron" unicode="&#x17d;" horiz-adv-x="658" 
d="M16 0l13 77l527 576h-410l13 77h512l-13 -76l-523 -574h426l-14 -80h-531zM296 960h76l56 -102l92 102h76l-147 -161h-62z" />
    <glyph glyph-name="zcaron" unicode="&#x17e;" horiz-adv-x="580" 
d="M21 74l426 393h-348l14 73h458l-14 -73l-425 -393h361l-13 -74h-472zM229 771h76l56 -102l92 102h76l-147 -161h-62z" />
    <glyph glyph-name="florin" unicode="&#x192;" horiz-adv-x="560" 
d="M131 411h147l51 124q23 58 48 96t53.5 60t61.5 30.5t71 8.5h7l-13 -75q-25 0 -45 -4t-37.5 -16.5t-32.5 -35.5t-30 -62l-52 -126h137l-14 -73h-152l-58 -143q-22 -57 -45 -95t-51 -60t-63 -31t-82 -9h-7l13 77q31 0 52.5 3.5t38.5 16t31.5 35.5t29.5 62l58 144h-131z" />
    <glyph glyph-name="Aringacute" unicode="&#x1fa;" horiz-adv-x="730" 
d="M389 700q-20 17 -28.5 43t-0.5 57q10 38 41 62t69 24q24 0 43.5 -10t32 -26.5t17 -38t-1.5 -44.5q-7 -26 -22.5 -46t-38.5 -31l151 -690h-84l-39 183h-348l-104 -183h-90zM225 262h286l-77 368zM591 1108h94l-171 -161h-69zM454 730q20 0 36.5 13.5t20.5 31.5
q5 23 -8 41.5t-38 18.5q-19 0 -34.5 -13t-20.5 -32q-5 -23 5.5 -40.5t33.5 -19.5h5z" />
    <glyph glyph-name="aringacute" unicode="&#x1fb;" horiz-adv-x="679" 
d="M302 -11q-63 0 -113.5 25t-83.5 68t-46.5 100t-2.5 120q10 54 36.5 99.5t65 79t87 52t101.5 18.5q78 0 130 -34.5t75 -90.5l21 114h83l-95 -540h-82l15 87q-33 -45 -81 -71.5t-110 -26.5zM318 66q38 0 73 14t62.5 39.5t47 60t26.5 75.5q8 43 -0.5 82.5t-32 70.5t-60 49.5
t-85.5 18.5q-39 0 -74 -14t-63.5 -38.5t-48 -58t-26.5 -73.5q-7 -45 2.5 -85.5t33.5 -72t60.5 -50t84.5 -18.5zM523 1039h94l-171 -161h-69zM374 613q-24 0 -43 10t-31.5 26.5t-17 38.5t1.5 46q10 38 41 62t69 24q24 0 43.5 -10t32 -26.5t17 -38t-1.5 -44.5
q-10 -38 -39.5 -63t-71.5 -25zM378 664q20 0 36.5 13.5t20.5 31.5q5 23 -8 41.5t-38 18.5q-19 0 -34.5 -13t-20.5 -32q-5 -23 7 -41.5t37 -18.5z" />
    <glyph glyph-name="AEacute" unicode="&#x1fc;" horiz-adv-x="1010" 
d="M473 730h540l-13 -79h-434l8 -245h382l-14 -79h-366l9 -247h314l-14 -80h-380l-6 178h-300l-119 -178h-95zM251 255h246l-11 351zM652 959h94l-171 -161h-69z" />
    <glyph glyph-name="aeacute" unicode="&#x1fd;" horiz-adv-x="1057" 
d="M210 -11q-54 0 -91.5 14.5t-60 38t-30.5 54t-2 63.5q7 42 29.5 71.5t57.5 48t81.5 26.5t103.5 8h168l7 38q5 28 -3 52t-27 41.5t-48 27t-65 9.5q-65 0 -105.5 -23t-72.5 -65l-67 39q46 54 106 86.5t149 32.5q77 0 125.5 -29t66.5 -78q41 48 100 77.5t135 29.5
q64 0 113.5 -23t81.5 -62t45 -92t4 -113l-3 -20h-469q1 -80 51.5 -129t144.5 -49q54 0 95.5 20.5t74.5 59.5l66 -49q-46 -52 -105 -78.5t-136 -26.5q-92 0 -152.5 34.5t-90.5 92.5q-104 -127 -277 -127zM761 480q-84 -1 -139 -46.5t-74 -120.5h387q-2 77 -46 122t-128 45z
M229 61q68 0 126.5 29.5t107.5 98.5q-2 12 -3 25t-1 27h-172q-83 0 -125 -17t-50 -65q-8 -43 21.5 -70.5t95.5 -27.5zM649 759h94l-171 -161h-69z" />
    <glyph glyph-name="Oslashacute" unicode="&#x1fe;" horiz-adv-x="875" 
d="M426 -10q-63 0 -117 18.5t-98 50.5l-72 -76l-44 38l73 78q-53 57 -75.5 136t-5.5 170q13 73 49 134.5t88.5 106t119 69.5t139.5 25q66 0 121.5 -20.5t98.5 -55.5l77 81l44 -37l-80 -85q51 -60 71.5 -137.5t5.5 -161.5q-13 -73 -48.5 -134t-88 -105.5t-118.5 -69.5
t-140 -25zM170 396q-12 -69 3.5 -129.5t53.5 -105.5l419 443q-33 26 -75.5 41.5t-94.5 15.5q-57 0 -108.5 -20t-92 -55.5t-68 -84t-37.5 -105.5zM433 70q57 0 108 20t91.5 55t68.5 83.5t38 104.5q11 63 -3 122.5t-50 106.5l-416 -441q32 -24 73.5 -37.5t89.5 -13.5zM609 960
h94l-171 -161h-69z" />
    <glyph glyph-name="oslashacute" unicode="&#x1ff;" horiz-adv-x="669" 
d="M315 -11q-92 0 -158 46l-54 -58l-42 39l54 57q-39 43 -55 103t-3 131q9 52 35.5 96.5t65.5 77.5t89.5 51.5t108.5 18.5q48 0 88.5 -13.5t72.5 -37.5l56 59l42 -37l-57 -61q36 -44 51 -102.5t3 -127.5q-9 -53 -35 -97.5t-64.5 -76.5t-89 -50t-108.5 -18zM138 296
q-9 -49 0.5 -90.5t32.5 -72.5l292 310q-22 16 -50 25t-62 9q-43 0 -79 -13t-63.5 -37t-45.5 -57.5t-25 -73.5zM316 65q42 0 78 12.5t64.5 35.5t47 55.5t26.5 73.5q8 45 0.5 86.5t-30.5 73.5l-289 -308q43 -29 103 -29zM479 775h94l-171 -161h-69z" />
    <glyph glyph-name="Scommaaccent" unicode="&#x218;" horiz-adv-x="643" 
d="M315 -12q-57 0 -104 11.5t-85.5 32.5t-68.5 49.5t-53 62.5l76 57q39 -65 98 -99.5t140 -34.5q77 0 119.5 33.5t51.5 85.5q7 39 -6.5 64.5t-39.5 43.5t-62 30.5t-75 24.5q-42 13 -81 29.5t-67.5 42t-42.5 62t-4 90.5q6 37 26 68t52 53.5t74.5 35t93.5 12.5
q96 0 165.5 -35.5t117.5 -91.5l-73 -54q-40 51 -92 78.5t-127 27.5q-69 0 -108 -29t-47 -74q-6 -35 5.5 -58.5t35.5 -40.5t58 -29t73 -25q43 -14 84.5 -31.5t72.5 -44t46.5 -65t5.5 -95.5q-7 -39 -28 -73t-54 -59.5t-77.5 -40t-99.5 -14.5zM182 -257q38 18 64 44t31 54
q1 7 0 15q-5 -20 -17 -27.5t-29 -7.5q-21 0 -33.5 16.5t-7.5 39.5q4 23 22.5 39t47.5 16q35 0 53 -25t12 -66q-8 -44 -40 -77t-81 -57z" />
    <glyph glyph-name="scommaaccent" unicode="&#x219;" horiz-adv-x="526" 
d="M245 -11q-44 0 -82 9.5t-69 26t-55.5 38.5t-40.5 46l73 48q25 -42 72 -69t108 -27q56 0 87 23t38 59q4 22 -6 37.5t-29 27.5t-45.5 21t-54.5 18q-34 10 -67 23t-57 33t-35.5 48.5t-3.5 70.5q12 61 65.5 95.5t135.5 34.5q80 0 135.5 -28t94.5 -76l-70 -46q-28 39 -67.5 60
t-99.5 21q-50 0 -78.5 -18.5t-34.5 -51.5q-4 -22 5.5 -37t28 -26.5t44.5 -20.5t55 -18q33 -10 66 -23.5t57 -33.5t36.5 -49.5t5.5 -71.5q-5 -30 -21.5 -56.5t-43.5 -46t-64 -30.5t-83 -11zM119 -259q38 18 64 44t31 54q1 7 0 15q-5 -20 -17 -27.5t-29 -7.5q-21 0 -33.5 16.5
t-7.5 39.5q4 23 22.5 39t47.5 16q35 0 53 -25t12 -66q-8 -44 -40 -77t-81 -57z" />
    <glyph glyph-name="dotlessj" unicode="&#x237;" horiz-adv-x="231" 
d="M-123 -170q38 0 62 4.5t39.5 18.5t24.5 39.5t17 66.5q0 1 5 27t12.5 67t16.5 93t19 106q23 127 51 288h84l-104 -582q-10 -60 -24.5 -99.5t-38.5 -63t-60.5 -33t-91.5 -9.5h-26z" />
    <glyph glyph-name="circumflex" unicode="&#x2c6;" horiz-adv-x="529" 
d="M321 769h63l91 -161h-76l-56 102l-92 -102h-77z" />
    <glyph glyph-name="caron" unicode="&#x2c7;" horiz-adv-x="529" 
d="M204 770h76l56 -102l92 102h76l-147 -161h-62z" />
    <glyph glyph-name="breve" unicode="&#x2d8;" horiz-adv-x="529" 
d="M328 607q-40 0 -68 13t-44.5 35t-22 51.5t0.5 62.5h63q-9 -48 12 -77t68 -30q49 1 78 30t38 77h64q-6 -33 -21.5 -62.5t-40 -51.5t-56.5 -35t-71 -13z" />
    <glyph glyph-name="dotaccent" unicode="&#x2d9;" horiz-adv-x="531" 
d="M323 614q-30 0 -46 20.5t-10 49.5q4 23 22.5 38t41.5 15q32 0 47 -21.5t10 -47.5q-5 -24 -22.5 -39t-42.5 -15z" />
    <glyph glyph-name="ring" unicode="&#x2da;" horiz-adv-x="529" 
d="M334 607q-24 0 -43 10t-31.5 26.5t-17 38.5t1.5 46q10 38 41 62t69 24q24 0 43.5 -10t32 -26.5t17 -38t-1.5 -44.5q-10 -38 -39.5 -63t-71.5 -25zM338 658q20 0 36.5 13.5t20.5 31.5q5 23 -8 41.5t-38 18.5q-19 0 -34.5 -13t-20.5 -32q-5 -23 7 -41.5t37 -18.5z" />
    <glyph glyph-name="ogonek" unicode="&#x2db;" horiz-adv-x="529" 
d="M177 -217q-57 0 -87.5 31t-22.5 74q3 19 12 36.5t27 34.5t47 35t73 38l52 -32q-41 -23 -67 -38.5t-41 -28t-21.5 -22.5t-8.5 -22q-4 -21 9.5 -33t36.5 -12q24 0 41 9.5t35 23.5l52 -40q-30 -23 -64 -38.5t-73 -15.5z" />
    <glyph glyph-name="tilde" unicode="&#x2dc;" horiz-adv-x="529" 
d="M152 615q9 53 40 85.5t76 32.5q26 0 44 -8t35 -19q16 -11 30.5 -20t32.5 -9q38 0 48 52h59q-11 -54 -41 -86t-77 -32q-30 0 -50.5 11t-37.5 22q-13 9 -26 16t-29 7q-37 0 -46 -52h-58v0z" />
    <glyph glyph-name="hungarumlaut" unicode="&#x2dd;" horiz-adv-x="529" 
d="M294 769h90l-172 -161h-64zM436 769h89l-171 -161h-63z" />
    <glyph glyph-name="uni0328" unicode="&#x328;" horiz-adv-x="529" 
d="M223 -217q-29 0 -51 9.5t-36.5 25.5t-20 36.5t-1.5 41.5q7 40 35 71t77 65l52 -32q-46 -33 -66.5 -57t-24.5 -47q-4 -21 8.5 -36.5t36.5 -15.5t41 9.5t36 23.5l51 -40q-32 -26 -64 -40t-73 -14z" />
    <glyph glyph-name="pi" unicode="&#x3c0;" horiz-adv-x="792" 
d="M135 730h690l-14 -78h-141l-80 -459q-6 -33 -5.5 -55t8.5 -35t23.5 -18.5t40.5 -5.5h47l-14 -79h-60q-87 0 -114 50t-10 144l80 458h-240l-114 -652h-84l114 652h-141z" />
    <glyph glyph-name="pi" unicode="&#x3d6;" horiz-adv-x="792" 
d="M135 730h690l-14 -78h-141l-80 -459q-6 -33 -5.5 -55t8.5 -35t23.5 -18.5t40.5 -5.5h47l-14 -79h-60q-87 0 -114 50t-10 144l80 458h-240l-114 -652h-84l114 652h-141z" />
    <glyph glyph-name="uni0E3F" unicode="&#xe3f;" horiz-adv-x="571" 
d="M151 663h171l12 67h59l-12 -68q38 -2 68.5 -16t51 -37t29.5 -53t3 -65q-6 -42 -30 -74.5t-65 -52.5q36 -21 53.5 -57.5t8.5 -87.5q-12 -69 -65.5 -110.5t-141.5 -41.5h-17l-12 -67h-59l12 67h-170zM417 233q8 42 -17.5 71t-76.5 31l-34 -192h10q49 0 79.5 23.5t38.5 66.5
zM143 143h87l34 192h-88zM189 408h88l32 181h-88zM453 496q5 38 -18 63.5t-67 28.5l-32 -180h5q49 0 78 26.5t34 61.5z" />
    <glyph glyph-name="Wgrave" unicode="&#x1e80;" horiz-adv-x="1082" 
d="M693 0l-101 609l-303 -609h-83l-83 730h86l63 -599l300 599h80l100 -603l281 603h88l-346 -730h-82zM478 959h94l88 -161h-66z" />
    <glyph glyph-name="wgrave" unicode="&#x1e81;" horiz-adv-x="916" 
d="M81 540h83l43 -430l249 430h79l71 -432l232 432h93l-299 -540h-85l-72 427l-253 -427h-83zM358 769h94l88 -161h-66z" />
    <glyph glyph-name="Wacute" unicode="&#x1e82;" horiz-adv-x="1082" 
d="M693 0l-101 609l-303 -609h-83l-83 730h86l63 -599l300 599h80l100 -603l281 603h88l-346 -730h-82zM738 959h94l-171 -161h-69z" />
    <glyph glyph-name="wacute" unicode="&#x1e83;" horiz-adv-x="916" 
d="M81 540h83l43 -430l249 430h79l71 -432l232 432h93l-299 -540h-85l-72 427l-253 -427h-83zM620 769h94l-171 -161h-69z" />
    <glyph glyph-name="Wdieresis" unicode="&#x1e84;" horiz-adv-x="1082" 
d="M693 0l-101 609l-303 -609h-83l-83 730h86l63 -599l300 599h80l100 -603l281 603h88l-346 -730h-82zM538 808q-28 0 -42.5 18t-9.5 44q4 22 21 35.5t38 13.5q29 0 42.5 -19.5t8.5 -43.5q-3 -22 -19 -35t-39 -13zM718 808q-27 0 -41.5 18t-9.5 44q3 22 20.5 35.5
t38.5 13.5q28 0 42 -19.5t9 -43.5q-4 -22 -20 -35t-39 -13z" />
    <glyph glyph-name="wdieresis" unicode="&#x1e85;" horiz-adv-x="916" 
d="M81 540h83l43 -430l249 430h79l71 -432l232 432h93l-299 -540h-85l-72 427l-253 -427h-83zM421 618q-28 0 -42.5 18t-9.5 44q4 22 21 35.5t38 13.5q29 0 42.5 -19.5t8.5 -43.5q-3 -22 -19 -35t-39 -13zM601 618q-27 0 -41.5 18t-9.5 44q3 22 20.5 35.5t38.5 13.5
q28 0 42 -19.5t9 -43.5q-4 -22 -20 -35t-39 -13z" />
    <glyph glyph-name="Ygrave" unicode="&#x1ef2;" horiz-adv-x="675" 
d="M297 303l-193 427h87l160 -356l283 356h98l-353 -438l-51 -292h-84zM284 945h94l88 -161h-66z" />
    <glyph glyph-name="ygrave" unicode="&#x1ef3;" horiz-adv-x="594" 
d="M51 -201q-51 0 -87.5 20t-57.5 52l69 54q13 -22 31.5 -35t49.5 -13q16 0 32 4.5t32.5 16t33.5 32t37 53.5l31 51l-149 506h86l119 -413l242 413h93l-351 -583q-27 -45 -51.5 -75.5t-49 -48.5t-51.5 -26t-59 -8zM209 761h94l88 -161h-66z" />
    <glyph glyph-name="figuredash" unicode="&#x2012;" horiz-adv-x="693" 
d="M73 291h560l-13 -71h-560z" />
    <glyph glyph-name="endash" unicode="&#x2013;" horiz-adv-x="539" 
d="M73 291h410l-13 -71h-410z" />
    <glyph glyph-name="emdash" unicode="&#x2014;" horiz-adv-x="743" 
d="M73 291h610l-13 -71h-610z" />
    <glyph glyph-name="uni2015" unicode="&#x2015;" horiz-adv-x="1043" 
d="M73 291h910l-13 -71h-910z" />
    <glyph glyph-name="doublebar" unicode="&#x2016;" horiz-adv-x="423" 
d="M166 730h84l-169 -960h-85zM343 730h84l-169 -960h-84z" />
    <glyph glyph-name="quoteleft" unicode="&#x2018;" horiz-adv-x="247" 
d="M170 483q-35 0 -55 26t-13 70q8 49 42 87.5t93 70.5l22 -38q-46 -24 -73 -55t-33 -63q-1 -9 0 -16q10 39 47 39q23 0 36 -18.5t9 -42.5q-5 -25 -24.5 -42.5t-50.5 -17.5z" />
    <glyph glyph-name="quoteright" unicode="&#x2019;" horiz-adv-x="247" 
d="M102 516q45 23 72.5 54t32.5 64q2 8 0 14q-5 -20 -17 -28.5t-29 -8.5q-23 0 -36.5 18t-8.5 43q4 25 24 42t50 17q36 0 56 -26t13 -70q-8 -49 -42.5 -87.5t-92.5 -69.5z" />
    <glyph glyph-name="quotesinglbase" unicode="&#x201a;" horiz-adv-x="248" 
d="M1 -102q45 23 72.5 54t32.5 64q2 8 0 14q-5 -20 -17 -28.5t-29 -8.5q-23 0 -36.5 18.5t-8.5 42.5q4 25 24 42.5t50 17.5q36 0 56 -26t13 -70q-8 -50 -42.5 -88.5t-92.5 -69.5z" />
    <glyph glyph-name="reversequoteleft" unicode="&#x201b;" horiz-adv-x="247" 
d="M192 480q-44 29 -67 70.5t-14 95.5q7 38 31 61.5t62 23.5q33 0 49.5 -20.5t11.5 -49.5q-5 -24 -21 -38t-39 -14q-19 0 -29 10.5t-8 30.5q-4 -7 -6 -18q-11 -67 62 -116l-32 -36v0z" />
    <glyph glyph-name="quotedblleft" unicode="&#x201c;" horiz-adv-x="433" 
d="M358 483q-36 0 -56 26t-13 70q8 49 42.5 87.5t92.5 70.5l22 -38q-45 -24 -72.5 -55t-32.5 -63q-2 -11 -1 -16q6 19 18 27t29 8q23 0 35 -18t8 -42q-5 -26 -24 -41.5t-48 -15.5zM170 483q-35 0 -55 26t-13 70q8 49 42 87.5t93 70.5l22 -38q-46 -24 -73 -55t-33 -63
q-2 -9 0 -17q5 20 17.5 28t29.5 8q23 0 35 -18t7 -42q-4 -26 -23.5 -41.5t-48.5 -15.5z" />
    <glyph glyph-name="quotedblright" unicode="&#x201d;" horiz-adv-x="433" 
d="M99 516q45 23 72.5 54t32.5 64q2 8 0 16q-5 -20 -17 -27.5t-29 -7.5q-23 0 -35 17.5t-8 41.5q5 26 24 41.5t48 15.5q36 0 56 -26t13 -70q-8 -49 -42.5 -87.5t-92.5 -69.5zM286 516q46 23 73 54t33 64q1 7 -1 17q-5 -20 -17 -28t-29 -8q-23 0 -35 17.5t-7 41.5
q4 26 23.5 41.5t48.5 15.5q35 0 55 -26t13 -70q-8 -49 -42 -87.5t-93 -69.5z" />
    <glyph glyph-name="quotedblbase" unicode="&#x201e;" horiz-adv-x="433" 
d="M-2 -102q46 24 73.5 55t32.5 64q2 8 0 16q-5 -20 -17 -28t-29 -8q-23 0 -35 18t-8 42q5 26 24 41.5t48 15.5q36 0 56 -26t13 -70q-8 -49 -42.5 -87.5t-92.5 -70.5zM186 -102q46 24 73 55t33 64q1 7 -1 17q-5 -20 -17 -28.5t-29 -8.5q-23 0 -35 18t-7 42q4 26 23.5 41.5
t48.5 15.5q35 0 55 -26t13 -70q-8 -49 -42 -87.5t-93 -70.5z" />
    <glyph glyph-name="reversequotedblleft" unicode="&#x201f;" horiz-adv-x="437" 
d="M192 480q-44 29 -67 70.5t-14 95.5q7 38 30.5 61.5t61.5 23.5q34 0 50 -20.5t11 -49.5q-5 -23 -20 -36.5t-38 -13.5q-18 0 -28.5 11t-8.5 30q-5 -8 -7 -20q-5 -32 10 -61.5t52 -54.5zM383 480q-44 29 -66.5 70.5t-13.5 95.5q6 38 30 61.5t62 23.5q33 0 49.5 -20.5
t10.5 -49.5q-5 -23 -20 -36.5t-37 -13.5q-19 0 -29 11t-8 31q-5 -8 -7 -21q-5 -32 9.5 -61.5t51.5 -54.5z" />
    <glyph glyph-name="dagger" unicode="&#x2020;" horiz-adv-x="601" 
d="M114 500h184l40 230h84l-40 -230h185l-13 -73h-185l-75 -427h-84l75 427h-184z" />
    <glyph glyph-name="daggerdbl" unicode="&#x2021;" horiz-adv-x="601" 
d="M120 531h183l35 199h84l-35 -199h186l-14 -73h-185l-31 -177h185l-13 -73h-185l-36 -208h-84l36 208h-184l13 73h184l31 177h-184z" />
    <glyph glyph-name="bullet" unicode="&#x2022;" horiz-adv-x="370" 
d="M191 177q-31 0 -53.5 22t-22.5 54t22.5 54.5t53.5 22.5q32 0 54.5 -22.5t22.5 -54.5t-22.5 -54t-54.5 -22z" />
    <glyph glyph-name="ellipsis" unicode="&#x2026;" horiz-adv-x="585" 
d="M74 -11q-30 0 -46 20.5t-10 49.5q4 23 22.5 38t41.5 15q32 0 47 -21.5t10 -47.5q-5 -24 -22.5 -39t-42.5 -15zM252 -11q-30 0 -46 20.5t-11 49.5q4 23 23 38t42 15q31 0 46 -21.5t11 -47.5q-5 -24 -22.5 -39t-42.5 -15zM429 -11q-30 0 -46 20.5t-11 49.5q4 23 23 38
t42 15q31 0 46 -21.5t11 -47.5q-5 -24 -22.5 -39t-42.5 -15z" />
    <glyph glyph-name="perthousand" unicode="&#x2030;" horiz-adv-x="1281" 
d="M789 730h105l-755 -730h-106zM285 399q-39 0 -70 15.5t-51.5 41.5t-29 60t-2.5 72q6 32 22.5 59.5t40.5 48t54.5 32.5t63.5 12q38 0 69 -15t52 -41t30 -60t3 -71q-6 -32 -22 -60t-40 -49t-55 -33t-65 -12zM292 469q19 0 36.5 7t32 19t24.5 28.5t13 35.5q3 21 -2 41.5
t-17 36t-30 25t-42 9.5q-40 0 -69.5 -26t-36.5 -64q-4 -21 1 -41.5t17 -36t30.5 -25t42.5 -9.5zM612 -11q-39 0 -70 15.5t-52 41.5t-29.5 60t-1.5 72q6 32 22.5 60t41 48.5t55 32.5t63.5 12q37 0 68 -15.5t52 -41t30 -60t3 -71.5q-6 -33 -22 -61t-40.5 -48.5t-55 -32.5
t-64.5 -12zM618 59q39 0 69.5 26t37.5 65q4 21 -1 41t-17 36t-30.5 25.5t-42.5 9.5q-40 0 -69.5 -26.5t-36.5 -64.5q-3 -21 1.5 -41t16.5 -36t30 -25.5t42 -9.5zM1008 -11q-39 0 -70 15.5t-52 41.5t-29.5 60t-1.5 72q6 32 22.5 60t41 48.5t55 32.5t63.5 12q37 0 68 -15.5
t52 -41t30 -60t3 -71.5q-6 -33 -22 -61t-40.5 -48.5t-55 -32.5t-64.5 -12zM1014 59q39 0 69.5 26t37.5 65q4 21 -1 41t-17 36t-30.5 25.5t-42.5 9.5q-40 0 -69.5 -26.5t-36.5 -64.5q-3 -21 1.5 -41t16.5 -36t30 -25.5t42 -9.5z" />
    <glyph glyph-name="minute" unicode="&#x2032;" horiz-adv-x="230" 
d="M101 526l77 204h75l-99 -204h-53z" />
    <glyph glyph-name="second" unicode="&#x2033;" horiz-adv-x="353" 
d="M224 526l77 204h75l-99 -204h-53zM101 526l77 204h75l-99 -204h-53z" />
    <glyph glyph-name="tripleprime" unicode="&#x2034;" horiz-adv-x="453" 
d="M135 500q-1 9 -1 28.5t1 41.5t2 43t3 33l15 84h66l-15 -84q-2 -12 -8 -33t-13 -43t-14 -41.5t-11 -28.5h-25zM255 500q-1 9 -1.5 28.5t0.5 41.5t2 43t3 33l15 84h66l-15 -84q-2 -12 -8 -33t-13 -43t-13.5 -41.5t-10.5 -28.5h-25zM374 500q-1 9 -1 28.5t1 41.5t2 43t3 33
l15 84h66l-15 -84q-2 -12 -8 -33t-13 -43t-14 -41.5t-11 -28.5h-25z" />
    <glyph glyph-name="guilsinglleft" unicode="&#x2039;" horiz-adv-x="320" 
d="M77 225l9 53l177 119l-11 -67l-122 -81l94 -80l-12 -63z" />
    <glyph glyph-name="guilsinglright" unicode="&#x203a;" horiz-adv-x="320" 
d="M246 277l-10 -53l-177 -119l12 67l121 80l-93 81l12 63z" />
    <glyph glyph-name="interrobang" unicode="&#x203d;" horiz-adv-x="580" 
d="M228 202q4 36 12.5 89t17.5 110.5t18.5 113.5t16.5 98l10 55q-36 -5 -68 -22.5t-52 -44.5l-63 47q34 42 89 67t121 25q50 0 91 -15.5t69 -43t40.5 -64.5t4.5 -80q-8 -42 -26 -69t-42 -47t-51.5 -37.5t-52 -41t-44.5 -57.5t-29 -86l-2 -9h-62zM453 544q8 43 -13.5 73
t-61.5 43l-8 -47q-10 -54 -23 -112.5t-27 -115.5q21 24 42 40.5t39.5 33t32.5 36t19 49.5zM232 -14q-32 0 -49 22t-11 51q5 25 24.5 41t43.5 16q33 0 49 -22.5t11 -50.5q-5 -25 -23.5 -41t-44.5 -16z" />
    <glyph glyph-name="fraction" unicode="&#x2044;" horiz-adv-x="719" 
d="M656 730h100l-652 -730h-100z" />
    <glyph glyph-name="uni2070" unicode="&#x2070;" horiz-adv-x="433" 
d="M233 302q-38 0 -68 13t-49 40t-25 68t4 97l5 26q17 98 67 144t120 46q35 0 64.5 -12.5t49 -39t27 -66.5t-2.5 -95l-5 -28q-10 -54 -27.5 -91t-41.5 -59.5t-54 -32.5t-64 -10zM240 373q44 0 69.5 30t37.5 98l6 32q13 68 -6.5 101t-64.5 33t-72 -30.5t-38 -99.5l-5 -26
q-12 -72 6.5 -105t66.5 -33z" />
    <glyph glyph-name="uni2074" unicode="&#x2074;" horiz-adv-x="401" 
d="M259 402h-191l11 65l236 263h71l-47 -264h70l-12 -64h-69l-16 -94h-69zM270 466l27 156l-137 -156h110z" />
    <glyph glyph-name="uni2075" unicode="&#x2075;" horiz-adv-x="375" 
d="M206 302q-53 0 -88 23t-50 64l70 32q8 -23 26.5 -37.5t47.5 -14.5q32 0 56 18.5t30 49.5q7 35 -11 60t-54 25q-27 0 -47 -12t-36 -33l-60 24l68 229h243l-12 -68h-184l-32 -106q14 12 34 20.5t51 8.5q29 0 52.5 -12t38.5 -33t21 -48.5t0 -58.5q-12 -61 -55 -96t-109 -35z
" />
    <glyph glyph-name="uni2076" unicode="&#x2076;" horiz-adv-x="390" 
d="M230 300q-38 0 -69.5 15.5t-50.5 41.5q-20 31 -26 71.5t5 100.5q19 104 76.5 155.5t141.5 51.5q41 0 65.5 -6.5t43.5 -19.5l-44 -62q-13 11 -30 16t-43 5q-53 0 -89.5 -31.5t-52.5 -99.5q17 25 43.5 39.5t61.5 14.5q33 0 58.5 -13t42 -34.5t22.5 -51t0 -62.5
q-10 -57 -50 -94t-105 -37zM233 365q31 0 54 19.5t28 52.5q7 36 -12 64t-60 28q-38 0 -60.5 -20t-28.5 -49q-3 -17 0.5 -33.5t13.5 -30.5t26 -22.5t39 -8.5z" />
    <glyph glyph-name="uni2077" unicode="&#x2077;" horiz-adv-x="359" 
d="M317 663h-212l12 67h288l-11 -62l-222 -360h-79z" />
    <glyph glyph-name="uni2078" unicode="&#x2078;" horiz-adv-x="409" 
d="M222 302q-78 0 -117 38.5t-28 98.5q5 32 27 58t57 41q-20 17 -29.5 40.5t-4.5 54.5q8 47 48.5 75t102.5 28q35 0 61.5 -10t43.5 -27t23.5 -40t2.5 -49q-5 -29 -22 -50t-43 -34q28 -18 41 -45.5t7 -59.5q-8 -53 -50.5 -86t-119.5 -33zM228 368q44 0 67.5 17t28.5 44
q5 30 -16 50t-66 20q-42 0 -65.5 -17t-28.5 -46q-5 -27 15 -47.5t65 -20.5zM262 562q35 0 55 14t24 37q5 26 -11.5 42.5t-56.5 16.5q-37 0 -56 -13.5t-24 -35.5q-5 -26 13.5 -43.5t55.5 -17.5z" />
    <glyph glyph-name="uni2079" unicode="&#x2079;" horiz-adv-x="393" 
d="M193 300q-44 0 -76 13.5t-53 34.5l52 55q14 -17 36.5 -26t48.5 -9q53 0 82.5 31.5t43.5 98.5q-17 -25 -43.5 -39.5t-61.5 -14.5q-33 0 -58.5 12.5t-42 34.5t-22.5 51.5t0 63.5q10 57 50 93.5t105 36.5q38 0 69.5 -15t50.5 -42q20 -31 26 -71.5t-5 -100.5
q-38 -207 -202 -207zM241 507q38 0 60.5 20t28.5 50q3 17 -0.5 33.5t-13.5 30t-26 22t-39 8.5q-31 0 -54 -19.5t-28 -51.5q-7 -38 12 -65.5t60 -27.5z" />
    <glyph glyph-name="uni207A" unicode="&#x207a;" horiz-adv-x="312" 
d="M103 549h77l14 76h60l-14 -76h76l-10 -60h-77l-13 -77h-60l13 77h-77z" />
    <glyph glyph-name="uni207B" unicode="&#x207b;" horiz-adv-x="312" 
d="M103 549h213l-10 -60h-214z" />
    <glyph glyph-name="uni207C" unicode="&#x207c;" horiz-adv-x="312" 
d="M111 596h214l-10 -60h-214zM94 498h214l-11 -60h-214z" />
    <glyph glyph-name="uni207D" unicode="&#x207d;" horiz-adv-x="306" 
d="M215 228q-29 23 -54 55t-41 71.5t-21.5 86t3.5 98.5q9 50 30 92.5t49.5 77.5t62.5 61t70 43l39 -58q-67 -31 -114.5 -86.5t-62.5 -137.5q-14 -80 11 -143t79 -105z" />
    <glyph glyph-name="uni207E" unicode="&#x207e;" horiz-adv-x="306" 
d="M192 810q29 -23 54 -54.5t41 -71t21.5 -85.5t-3.5 -98q-17 -100 -75 -170.5t-136 -105.5l-40 58q68 32 115 87t63 138q14 80 -12 143t-79 105z" />
    <glyph glyph-name="uni2080" unicode="&#x2080;" horiz-adv-x="433" 
d="M175 -6q-38 0 -68 13t-49 40t-25 68t4 97l5 26q17 98 67 144t120 46q35 0 64.5 -12.5t49 -39t27 -66.5t-2.5 -95l-5 -28q-10 -54 -27.5 -91t-41.5 -59.5t-54 -32.5t-64 -10zM182 65q44 0 69.5 30t37.5 98l6 32q13 68 -6.5 101t-64.5 33t-72 -30.5t-38 -99.5l-5 -26
q-12 -72 6.5 -105t66.5 -33z" />
    <glyph glyph-name="uni2081" unicode="&#x2081;" horiz-adv-x="244" 
d="M59 0l56 314q-13 -26 -37.5 -39.5t-56.5 -13.5h-6l13 73h3q43 0 69.5 23.5t33.5 64.5h71l-74 -422h-72z" />
    <glyph glyph-name="uni2082" unicode="&#x2082;" horiz-adv-x="369" 
d="M9 61q5 28 19 51t33.5 42t43.5 34t50 29q19 10 37 20.5t32 21t23.5 22.5t12.5 26q5 26 -13 42.5t-50 16.5q-30 0 -52.5 -16.5t-35.5 -42.5l-63 27q23 42 61.5 68t95.5 26q32 0 57.5 -10t42.5 -27.5t24 -41.5t2 -51q-4 -24 -17 -43.5t-31.5 -35t-40.5 -29t-45 -25.5
q-44 -24 -74 -45t-35 -52h203l-12 -68h-279z" />
    <glyph glyph-name="uni2083" unicode="&#x2083;" horiz-adv-x="362" 
d="M140 -6q-54 0 -95.5 22t-61.5 57l69 39q11 -23 35 -37t57 -14q34 0 54.5 15.5t25.5 44.5t-16.5 46t-60.5 17h-39l11 66h40q40 0 61.5 15t26.5 40q5 28 -12 44t-54 16q-29 0 -49.5 -11.5t-33.5 -30.5l-59 40q23 27 60.5 46t87.5 19q34 0 60 -10t43.5 -27t24.5 -40t3 -49
q-5 -29 -24 -50.5t-49 -35.5q30 -17 44.5 -44.5t7.5 -65.5q-9 -53 -50 -82.5t-107 -29.5z" />
    <glyph glyph-name="uni2084" unicode="&#x2084;" horiz-adv-x="401" 
d="M201 94h-191l11 65l236 263h71l-47 -264h70l-12 -64h-69l-16 -94h-69zM212 158l27 156l-137 -156h110z" />
    <glyph glyph-name="uni2085" unicode="&#x2085;" horiz-adv-x="375" 
d="M148 -6q-53 0 -88 23t-50 64l70 32q8 -23 26.5 -37.5t47.5 -14.5q32 0 56 18.5t30 49.5q7 35 -11 60t-54 25q-27 0 -47 -12t-36 -33l-60 24l68 229h243l-12 -68h-184l-32 -106q14 12 34 20.5t51 8.5q29 0 52.5 -12t38.5 -33t21 -48.5t0 -58.5q-12 -61 -55 -96t-109 -35z
" />
    <glyph glyph-name="uni2086" unicode="&#x2086;" horiz-adv-x="390" 
d="M172 -8q-38 0 -69.5 15.5t-50.5 41.5q-20 31 -26 71.5t5 100.5q19 104 76.5 155.5t141.5 51.5q41 0 65.5 -6.5t43.5 -19.5l-44 -62q-13 11 -30 16t-43 5q-53 0 -89.5 -31.5t-52.5 -99.5q17 25 43.5 39.5t61.5 14.5q33 0 58.5 -13t42 -34.5t22.5 -51t0 -62.5
q-10 -57 -50 -94t-105 -37zM175 57q31 0 54 19.5t28 52.5q7 36 -12 64t-60 28q-38 0 -60.5 -20t-28.5 -49q-3 -17 0.5 -33.5t13.5 -30.5t26 -22.5t39 -8.5z" />
    <glyph glyph-name="uni2087" unicode="&#x2087;" horiz-adv-x="359" 
d="M259 355h-212l12 67h288l-11 -62l-222 -360h-79z" />
    <glyph glyph-name="uni2088" unicode="&#x2088;" horiz-adv-x="409" 
d="M164 -6q-78 0 -117 38.5t-28 98.5q5 32 27 58t57 41q-20 17 -29.5 40.5t-4.5 54.5q8 47 48.5 75t102.5 28q35 0 61.5 -10t43.5 -27t23.5 -40t2.5 -49q-5 -29 -22 -50t-43 -34q28 -18 41 -45.5t7 -59.5q-8 -53 -50.5 -86t-119.5 -33zM170 60q44 0 67.5 17t28.5 44
q5 30 -16 50t-66 20q-42 0 -65.5 -17t-28.5 -46q-5 -27 15 -47.5t65 -20.5zM204 254q35 0 55 14t24 37q5 26 -11.5 42.5t-56.5 16.5q-37 0 -56 -13.5t-24 -35.5q-5 -26 13.5 -43.5t55.5 -17.5z" />
    <glyph glyph-name="uni2089" unicode="&#x2089;" horiz-adv-x="393" 
d="M135 -8q-44 0 -76 13.5t-53 34.5l52 55q14 -17 36.5 -26t48.5 -9q53 0 82.5 31.5t43.5 98.5q-17 -25 -43.5 -39.5t-61.5 -14.5q-33 0 -58.5 12.5t-42 34.5t-22.5 51.5t0 63.5q10 57 50 93.5t105 36.5q38 0 69.5 -15t50.5 -42q20 -31 26 -71.5t-5 -100.5
q-38 -207 -202 -207zM183 199q38 0 60.5 20t28.5 50q3 17 -0.5 33.5t-13.5 30t-26 22t-39 8.5q-31 0 -54 -19.5t-28 -51.5q-7 -38 12 -65.5t60 -27.5z" />
    <glyph glyph-name="uni208A" unicode="&#x208a;" horiz-adv-x="312" 
d="M45 241h77l14 76h60l-14 -76h76l-10 -60h-77l-13 -77h-60l13 77h-77z" />
    <glyph glyph-name="uni208B" unicode="&#x208b;" horiz-adv-x="312" 
d="M45 241h213l-10 -60h-214z" />
    <glyph glyph-name="uni208C" unicode="&#x208c;" horiz-adv-x="312" 
d="M53 288h214l-10 -60h-214zM36 190h214l-11 -60h-214z" />
    <glyph glyph-name="uni208D" unicode="&#x208d;" horiz-adv-x="306" 
d="M157 -80q-29 23 -54 55t-41 71.5t-21.5 86t3.5 98.5q9 50 30 92.5t49.5 77.5t62.5 61t70 43l39 -58q-67 -31 -114.5 -86.5t-62.5 -137.5q-14 -80 11 -143t79 -105z" />
    <glyph glyph-name="uni208E" unicode="&#x208e;" horiz-adv-x="306" 
d="M134 502q29 -23 54 -54.5t41 -71t21.5 -85.5t-3.5 -98q-17 -100 -75 -170.5t-136 -105.5l-40 58q68 32 115 87t63 138q14 80 -12 143t-79 105z" />
    <glyph glyph-name="uni20A1" unicode="&#x20a1;" horiz-adv-x="831" 
d="M196 74q-64 58 -91.5 145t-10.5 188q13 71 49.5 132t90.5 105.5t122 70t143 25.5q7 0 13.5 -0.5t13.5 -0.5l50 101h62l-55 -110q34 -8 66 -21l65 131h62l-79 -158q75 -50 113 -130l-80 -39q-13 29 -30 52.5t-40 41.5l-265 -534q10 -1 20 -1.5t21 -0.5q78 0 144.5 37
t110.5 106l75 -40q-54 -85 -138.5 -134.5t-198.5 -49.5q-19 0 -37 2t-35 5l-58 -117h-62l65 131q-17 6 -32.5 13t-29.5 16l-79 -160h-61zM177 395q-12 -69 3.5 -131t55.5 -108l250 504q-55 -1 -106.5 -20.5t-93 -55t-70.5 -83.5t-39 -106zM279 118q28 -21 60 -32l274 550
q-32 14 -67 20z" />
    <glyph glyph-name="uni20A2" unicode="&#x20a2;" horiz-adv-x="831" 
d="M429 -10q-88 0 -156.5 33.5t-113 90.5t-62.5 133t-3 160q13 71 49.5 132t90.5 105.5t122 70t143 25.5q54 0 102 -14t88 -38.5t70.5 -59t50.5 -76.5l-80 -39q-29 67 -87 107t-153 40q-56 0 -108 -19.5t-94 -55t-71.5 -84t-39.5 -106.5q-9 -54 -1.5 -105t31 -93t61 -72.5
t88.5 -44.5l37 192q8 35 -2 52t-40 17h-14l12 71h38q42 0 61.5 -21t21.5 -59q30 41 73.5 60.5t94.5 19.5h61l-15 -82h-52q-77 0 -118 -39.5t-55 -114.5l-21 -106q79 1 144.5 38.5t108.5 105.5l75 -40q-54 -85 -138.5 -134.5t-198.5 -49.5z" />
    <glyph glyph-name="franc" unicode="&#x20a3;" horiz-adv-x="567" 
d="M163 730h413l-14 -78h-329l-30 -171h329l-14 -75h-328l-16 -91h329l-13 -74h-329l-42 -241h-84z" />
    <glyph glyph-name="lira" unicode="&#x20a4;" horiz-adv-x="758" 
d="M145 484h77q-2 17 -1.5 35.5t4.5 38.5q7 41 27.5 74.5t51 57.5t70.5 37t85 13q73 0 124 -27.5t81 -75.5l-77 -35q-41 66 -131 66q-58 0 -98 -32.5t-50 -83.5q-3 -17 -3.5 -34t1.5 -34h236l-12 -64h-210q5 -17 10.5 -34t11.5 -34h176l-12 -64h-146q6 -29 8 -58t-3 -61
q-6 -32 -18 -58q30 -21 60.5 -36.5t66.5 -15.5q54 0 81 27.5t39 94.5l7 36h86l-9 -46q-16 -88 -60.5 -134.5t-132.5 -46.5q-54 0 -95.5 20.5t-76.5 46.5q-26 -30 -62.5 -49t-83.5 -19q-31 0 -56 8.5t-41.5 24t-23.5 38t-2 50.5q8 38 39 61.5t80 23.5q38 0 70.5 -14t61.5 -34
q2 5 3 10.5t2 10.5q5 32 0.5 61.5t-14.5 58.5h-176l11 64h140q-7 17 -13.5 33.5t-11.5 34.5h-103zM166 41q32 0 57.5 13.5t43.5 36.5q-26 20 -51.5 34.5t-51.5 14.5q-25 0 -40 -11.5t-18 -29.5q-5 -26 12.5 -42t47.5 -16z" />
    <glyph glyph-name="uni20A6" unicode="&#x20a6;" horiz-adv-x="836" 
d="M87 455h82l48 275h83l137 -275h218l49 275h84l-48 -275h80l-10 -56h-80l-11 -64h80l-11 -56h-79l-49 -279h-77l-140 279h-222l-49 -279h-84l49 279h-81l11 56h80l12 64h-81zM231 335h184l-32 64h-141zM497 335h137l11 64h-180zM279 606l-27 -151h103zM598 133l26 146h-99
z" />
    <glyph glyph-name="peseta" unicode="&#x20a7;" horiz-adv-x="1348" 
d="M1053 75q59 0 89 18.5t35 49.5q3 19 -6 32.5t-26 23.5t-39.5 18t-47.5 16q-29 9 -58 21t-50.5 29.5t-32 43.5t-3.5 64q11 57 61.5 89t125.5 31q64 0 112.5 -24.5t78.5 -63.5l-67 -43q-23 29 -54.5 46t-76.5 17q-41 0 -67.5 -14.5t-31.5 -45.5q-3 -18 5 -31t24.5 -23
t39 -18t46.5 -16q29 -10 58.5 -22t51.5 -30t33 -44.5t5 -64.5q-5 -30 -18 -54.5t-37.5 -42.5t-61.5 -27.5t-91 -9.5h-218q-63 0 -102.5 16t-60.5 45t-25 68.5t4 87.5l37 210h-80q-13 -44 -39 -81t-62.5 -63.5t-83.5 -41.5t-102 -15h-159l-40 -226h-84l128 730h211
q50 0 94.5 -16.5t77.5 -46.5t52 -72.5t18 -94.5h82l21 119l90 45q-5 -23 -9 -49q-4 -23 -9 -52.5t-11 -62.5h112l-13 -73h-112q-7 -40 -13.5 -78t-12 -67.5t-8.5 -47.5t-3 -19q-6 -33 -4 -59t15 -44t39.5 -27.5t69.5 -9.5h203zM235 655l-63 -352h150q42 0 77.5 12.5t62.5 35
t44.5 53t23.5 66.5q7 39 -3 73t-32.5 58.5t-56.5 39t-76 14.5h-127z" />
    <glyph glyph-name="uni20A8" unicode="&#x20a8;" horiz-adv-x="1077" 
d="M163 730h212q57 0 103 -19.5t77.5 -54t44.5 -81.5t4 -101q-7 -38 -25.5 -73t-48.5 -62t-70 -44t-90 -21q15 -41 43 -79.5t73.5 -68.5t111 -48t154.5 -18q78 0 114.5 22t42.5 57q3 18 -6 30.5t-25.5 22.5t-39 17.5l-46.5 15.5q-30 10 -60 22t-52.5 30.5t-34 44.5t-5.5 65
q10 57 61.5 91t126.5 33q64 0 115 -24.5t82 -63.5l-67 -43q-23 29 -57.5 46t-79.5 17q-41 0 -68 -16.5t-32 -47.5q-3 -18 5.5 -31t25.5 -23t40 -18.5t48 -17.5q30 -10 59.5 -22.5t51.5 -30.5t33.5 -43.5t4.5 -62.5q-10 -66 -68 -105t-176 -40q-124 0 -210.5 33.5
t-142.5 85.5t-85 115.5t-38 124.5h61q42 0 75 11.5t56.5 31t38 45.5t20.5 55q6 36 -3 66t-30 52.5t-53 35.5t-72 14h-128l-115 -655h-84z" />
    <glyph glyph-name="uni20A9" unicode="&#x20a9;" horiz-adv-x="1133" 
d="M87 455h101l-31 275h86l30 -275h197l137 275h80l41 -275h200l126 275h87l-128 -275h104l-10 -56h-120l-30 -64h138l-9 -56h-155l-130 -279h-83l-42 279h-212l-139 -279h-84l-32 279h-153l10 56h136l-7 64h-118zM492 335h176l-10 64h-134zM746 335h127l29 64h-165z
M286 335h125l32 64h-164zM552 455h98l-23 152zM755 279l23 -152l69 152h-92zM292 279l16 -150l75 150h-91z" />
    <glyph glyph-name="uni20AA" unicode="&#x20aa;" horiz-adv-x="763" 
d="M309 575q50 0 64.5 -17t6.5 -63l-75 -417h107q44 0 75.5 9.5t54 30t36 52.5t21.5 76l85 484h86l-85 -484q-12 -63 -33.5 -109.5t-56 -76.5t-82.5 -45t-113 -15h-192zM163 730h196q118 0 167.5 -60t26.5 -186l-42 -240q-8 -44 -29.5 -62t-70.5 -18l57 320q16 89 -11 129
t-113 40h-110l-115 -653h-85z" />
    <glyph glyph-name="Euro" unicode="&#x20ac;" horiz-adv-x="903" 
d="M101 508h87q26 51 65.5 94t88.5 73.5t106 47.5t118 17q54 0 102 -13.5t88 -38t71 -60.5t50 -81l-80 -37q-29 70 -88 110t-154 40q-84 0 -156 -41.5t-116 -110.5h390l-30 -68h-392q-4 -11 -6.5 -22.5t-4.5 -24.5q-11 -52 -3 -102h339l-30 -68h-292q28 -67 88.5 -110
t152.5 -43q82 0 152 41t112 113l75 -36q-51 -90 -140 -144t-207 -54q-62 0 -115 17.5t-94.5 48t-71 73.5t-44.5 94h-110l12 68h85q-6 52 5 113q2 9 3.5 18t3.5 18h-71z" />
    <glyph glyph-name="uni20AE" unicode="&#x20ae;" horiz-adv-x="631" 
d="M526 478l-138 -53l-14 -81l137 53l-10 -59l-137 -53l-50 -285h-84l44 251l-139 -53l9 58l140 54l14 80l-139 -53l10 58l139 53l36 204h-228l14 78h540l-13 -78h-229l-30 -169l138 53z" />
    <glyph glyph-name="uni20B1" unicode="&#x20b1;" horiz-adv-x="754" 
d="M111 567h78l29 163h211q41 0 78.5 -11.5t68 -32.5t52.5 -51t33 -68h98l-10 -56h-79q0 -13 -1 -26t-3 -27q-2 -8 -2 -11h73l-9 -56h-82q-33 -74 -104 -119.5t-170 -45.5h-159l-39 -226h-84l68 391h-78l9 56h79l11 64h-79zM376 303q59 0 104 24t72 64h-310l-15 -88h149z
M288 655l-16 -88h300q-20 40 -60 64t-95 24h-129zM584 470q3 23 2 41h-323l-11 -64h326z" />
    <glyph glyph-name="published" unicode="&#x2117;" horiz-adv-x="881" 
d="M418 -102q-86 0 -155 33.5t-115 90.5t-65.5 132t-5.5 159q13 73 49 134.5t89 106.5t119 70t138 25q85 0 154 -34t115 -91t65.5 -132.5t4.5 -159.5q-12 -72 -48 -133.5t-88.5 -106t-118.5 -69.5t-138 -25zM425 -31q58 0 110.5 20.5t94.5 57t70.5 86.5t39.5 109
q11 64 -2.5 124.5t-49 108t-91.5 76.5t-128 29q-60 0 -113 -21t-95.5 -57.5t-71.5 -87t-39 -109.5q-11 -65 3.5 -125.5t50.5 -107.5t92.5 -75t128.5 -28zM349 462h143q34 0 62 -12.5t46.5 -33.5t26.5 -48t3 -56q-9 -56 -52 -91.5t-108 -35.5h-95l-18 -104h-76zM412 398
l-26 -147h76q38 0 62.5 18t29.5 52q7 38 -17 57.5t-62 19.5h-63z" />
    <glyph glyph-name="servicemark" unicode="&#x2120;" horiz-adv-x="705" 
d="M390 730h60l73 -130l125 130h61l-52 -290h-60l35 194l-121 -121l-77 125l-35 -198h-60zM197 435q-37 0 -62.5 16t-39.5 39l53 32q7 -13 19.5 -23t30.5 -10q17 0 27.5 9t13.5 23q3 17 -11 27.5t-34 21.5q-12 7 -24.5 15t-21.5 19t-13.5 26.5t-0.5 36.5q5 31 31.5 50
t65.5 19q31 0 55.5 -13t37.5 -33l-51 -32q-14 27 -45 27q-15 0 -25 -7.5t-12 -19.5q-3 -16 11 -26t34 -20q12 -7 25 -15t22.5 -19.5t14 -27.5t0.5 -38q-5 -33 -31 -55t-70 -22z" />
    <glyph glyph-name="trademark" unicode="&#x2122;" horiz-adv-x="723" 
d="M408 730h60l73 -130l125 130h61l-52 -290h-60l35 195l-122 -122l-77 125l-35 -198h-59zM219 675h-90l10 55h239l-10 -55h-89l-42 -235h-60z" />
    <glyph glyph-name="uni2153" unicode="&#x2153;" horiz-adv-x="855" 
d="M620 -6q-54 0 -95.5 22t-61.5 57l69 39q11 -23 35 -37t57 -14q34 0 54.5 15.5t25.5 44.5t-16.5 46t-60.5 17h-39l11 66h40q40 0 61.5 15t26.5 40q5 28 -12 44t-54 16q-29 0 -49.5 -11.5t-33.5 -30.5l-59 40q23 27 60.5 46t87.5 19q34 0 60 -10t43.5 -27t24.5 -40t3 -49
q-5 -29 -24 -50.5t-49 -35.5q30 -17 44.5 -44.5t7.5 -65.5q-9 -53 -50 -82.5t-107 -29.5zM128 308l56 314q-13 -26 -37.5 -39.5t-56.5 -13.5h-6l13 73h3q43 0 69.5 23.5t33.5 64.5h71l-74 -422h-72zM654 730h100l-652 -730h-100z" />
    <glyph glyph-name="uni2154" unicode="&#x2154;" horiz-adv-x="1002" 
d="M78 369q5 28 19 51t33.5 42t43.5 34t50 29q19 10 37 20.5t32 21t23.5 22.5t12.5 26q5 26 -13 42.5t-50 16.5q-30 0 -52.5 -16.5t-35.5 -42.5l-63 27q23 42 61.5 68t95.5 26q32 0 57.5 -10t42.5 -27.5t24 -41.5t2 -51q-4 -24 -17 -43.5t-31.5 -35t-40.5 -29t-45 -25.5
q-44 -24 -74 -45t-35 -52h203l-12 -68h-279zM765 -6q-54 0 -95.5 22t-61.5 57l69 39q11 -23 35 -37t57 -14q34 0 54.5 15.5t25.5 44.5t-16.5 46t-60.5 17h-39l11 66h40q40 0 61.5 15t26.5 40q5 28 -12 44t-54 16q-29 0 -49.5 -11.5t-33.5 -30.5l-59 40q23 27 60.5 46
t87.5 19q34 0 60 -10t43.5 -27t24.5 -40t3 -49q-5 -29 -24 -50.5t-49 -35.5q30 -17 44.5 -44.5t7.5 -65.5q-9 -53 -50 -82.5t-107 -29.5zM800 730h100l-652 -730h-100z" />
    <glyph glyph-name="uni2155" unicode="&#x2155;" horiz-adv-x="855" 
d="M616 -6q-53 0 -88 23t-50 64l70 32q8 -23 26.5 -37.5t47.5 -14.5q32 0 56 18.5t30 49.5q7 35 -11 60t-54 25q-27 0 -47 -12t-36 -33l-60 24l68 229h243l-12 -68h-184l-32 -106q14 12 34 20.5t51 8.5q29 0 52.5 -12t38.5 -33t21 -48.5t0 -58.5q-12 -61 -55 -96t-109 -35z
M128 308l56 314q-13 -26 -37.5 -39.5t-56.5 -13.5h-6l13 73h3q43 0 69.5 23.5t33.5 64.5h71l-74 -422h-72zM654 730h100l-652 -730h-100z" />
    <glyph glyph-name="uni2156" unicode="&#x2156;" horiz-adv-x="1000" 
d="M78 369q5 28 19 51t33.5 42t43.5 34t50 29q19 10 37 20.5t32 21t23.5 22.5t12.5 26q5 26 -13 42.5t-50 16.5q-30 0 -52.5 -16.5t-35.5 -42.5l-63 27q23 42 61.5 68t95.5 26q32 0 57.5 -10t42.5 -27.5t24 -41.5t2 -51q-4 -24 -17 -43.5t-31.5 -35t-40.5 -29t-45 -25.5
q-44 -24 -74 -45t-35 -52h203l-12 -68h-279zM762 -6q-53 0 -88 23t-50 64l70 32q8 -23 26.5 -37.5t47.5 -14.5q32 0 56 18.5t30 49.5q7 35 -11 60t-54 25q-27 0 -47 -12t-36 -33l-60 24l68 229h243l-12 -68h-184l-32 -106q14 12 34 20.5t51 8.5q29 0 52.5 -12t38.5 -33
t21 -48.5t0 -58.5q-12 -61 -55 -96t-109 -35zM800 730h100l-652 -730h-100z" />
    <glyph glyph-name="uni2157" unicode="&#x2157;" horiz-adv-x="973" 
d="M210 304q-54 0 -95.5 22t-61.5 57l69 39q11 -23 35 -37t57 -14q34 0 54.5 15.5t25.5 44.5t-16.5 46t-60.5 17h-39l11 66h40q40 0 61.5 15t26.5 40q5 28 -12 44t-54 16q-29 0 -49.5 -11.5t-33.5 -30.5l-59 40q23 27 60.5 46t87.5 19q34 0 60 -10t43.5 -27t24.5 -40t3 -49
q-5 -29 -24 -50.5t-49 -35.5q30 -17 44.5 -44.5t7.5 -65.5q-9 -53 -50 -82.5t-107 -29.5zM735 -6q-53 0 -88 23t-50 64l70 32q8 -23 26.5 -37.5t47.5 -14.5q32 0 56 18.5t30 49.5q7 35 -11 60t-54 25q-27 0 -47 -12t-36 -33l-60 24l68 229h243l-12 -68h-184l-32 -106
q14 12 34 20.5t51 8.5q29 0 52.5 -12t38.5 -33t21 -48.5t0 -58.5q-12 -61 -55 -96t-109 -35zM773 730h100l-652 -730h-100z" />
    <glyph glyph-name="uni2158" unicode="&#x2158;" horiz-adv-x="995" 
d="M270 402h-191l11 65l236 263h71l-47 -264h70l-12 -64h-69l-16 -94h-69zM281 466l27 156l-137 -156h110zM756 -6q-53 0 -88 23t-50 64l70 32q8 -23 26.5 -37.5t47.5 -14.5q32 0 56 18.5t30 49.5q7 35 -11 60t-54 25q-27 0 -47 -12t-36 -33l-60 24l68 229h243l-12 -68h-184
l-32 -106q14 12 34 20.5t51 8.5q29 0 52.5 -12t38.5 -33t21 -48.5t0 -58.5q-12 -61 -55 -96t-109 -35zM795 730h100l-652 -730h-100z" />
    <glyph glyph-name="uni2159" unicode="&#x2159;" horiz-adv-x="845" 
d="M612 -8q-38 0 -69.5 15.5t-50.5 41.5q-20 31 -26 71.5t5 100.5q19 104 76.5 155.5t141.5 51.5q41 0 65.5 -6.5t43.5 -19.5l-44 -62q-13 11 -30 16t-43 5q-53 0 -89.5 -31.5t-52.5 -99.5q17 25 43.5 39.5t61.5 14.5q33 0 58.5 -13t42 -34.5t22.5 -51t0 -62.5
q-10 -57 -50 -94t-105 -37zM615 57q31 0 54 19.5t28 52.5q7 36 -12 64t-60 28q-38 0 -60.5 -20t-28.5 -49q-3 -17 0.5 -33.5t13.5 -30.5t26 -22.5t39 -8.5zM128 308l56 314q-13 -26 -37.5 -39.5t-56.5 -13.5h-6l13 73h3q43 0 69.5 23.5t33.5 64.5h71l-74 -422h-72zM654 730
h100l-652 -730h-100z" />
    <glyph glyph-name="uni215A" unicode="&#x215a;" horiz-adv-x="971" 
d="M219 302q-53 0 -88 23t-50 64l70 32q8 -23 26.5 -37.5t47.5 -14.5q32 0 56 18.5t30 49.5q7 35 -11 60t-54 25q-27 0 -47 -12t-36 -33l-60 24l68 229h243l-12 -68h-184l-32 -106q14 12 34 20.5t51 8.5q29 0 52.5 -12t38.5 -33t21 -48.5t0 -58.5q-12 -61 -55 -96t-109 -35z
M738 -8q-38 0 -69.5 15.5t-50.5 41.5q-20 31 -26 71.5t5 100.5q19 104 76.5 155.5t141.5 51.5q41 0 65.5 -6.5t43.5 -19.5l-44 -62q-13 11 -30 16t-43 5q-53 0 -89.5 -31.5t-52.5 -99.5q17 25 43.5 39.5t61.5 14.5q33 0 58.5 -13t42 -34.5t22.5 -51t0 -62.5q-10 -57 -50 -94
t-105 -37zM741 57q31 0 54 19.5t28 52.5q7 36 -12 64t-60 28q-38 0 -60.5 -20t-28.5 -49q-3 -17 0.5 -33.5t13.5 -30.5t26 -22.5t39 -8.5zM781 730h100l-652 -730h-100z" />
    <glyph glyph-name="uni215B" unicode="&#x215b;" horiz-adv-x="873" 
d="M613 -6q-78 0 -117 38.5t-28 98.5q5 32 27 58t57 41q-20 17 -29.5 40.5t-4.5 54.5q8 47 48.5 75t102.5 28q35 0 61.5 -10t43.5 -27t23.5 -40t2.5 -49q-5 -29 -22 -50t-43 -34q28 -18 41 -45.5t7 -59.5q-8 -53 -50.5 -86t-119.5 -33zM619 60q44 0 67.5 17t28.5 44
q5 30 -16 50t-66 20q-42 0 -65.5 -17t-28.5 -46q-5 -27 15 -47.5t65 -20.5zM653 254q35 0 55 14t24 37q5 26 -11.5 42.5t-56.5 16.5q-37 0 -56 -13.5t-24 -35.5q-5 -26 13.5 -43.5t55.5 -17.5zM128 308l56 314q-13 -26 -37.5 -39.5t-56.5 -13.5h-6l13 73h3q43 0 69.5 23.5
t33.5 64.5h71l-74 -422h-72zM654 730h100l-652 -730h-100z" />
    <glyph glyph-name="uni215C" unicode="&#x215c;" horiz-adv-x="992" 
d="M210 304q-54 0 -95.5 22t-61.5 57l69 39q11 -23 35 -37t57 -14q34 0 54.5 15.5t25.5 44.5t-16.5 46t-60.5 17h-39l11 66h40q40 0 61.5 15t26.5 40q5 28 -12 44t-54 16q-29 0 -49.5 -11.5t-33.5 -30.5l-59 40q23 27 60.5 46t87.5 19q34 0 60 -10t43.5 -27t24.5 -40t3 -49
q-5 -29 -24 -50.5t-49 -35.5q30 -17 44.5 -44.5t7.5 -65.5q-9 -53 -50 -82.5t-107 -29.5zM732 -5q-78 0 -117 38.5t-28 98.5q5 32 27 58t57 41q-20 17 -29.5 40.5t-4.5 54.5q8 47 48.5 75t102.5 28q35 0 61.5 -10t43.5 -27t23.5 -40t2.5 -49q-5 -29 -22 -50t-43 -34
q28 -18 41 -45.5t7 -59.5q-8 -53 -50.5 -86t-119.5 -33zM738 61q44 0 67.5 17t28.5 44q5 30 -16 50t-66 20q-42 0 -65.5 -17t-28.5 -46q-5 -27 15 -47.5t65 -20.5zM772 255q35 0 55 14t24 37q5 26 -11.5 42.5t-56.5 16.5q-37 0 -56 -13.5t-24 -35.5q-5 -26 13.5 -43.5
t55.5 -17.5zM773 730h100l-652 -730h-100z" />
    <glyph glyph-name="uni215D" unicode="&#x215d;" horiz-adv-x="999" 
d="M219 302q-53 0 -88 23t-50 64l70 32q8 -23 26.5 -37.5t47.5 -14.5q32 0 56 18.5t30 49.5q7 35 -11 60t-54 25q-27 0 -47 -12t-36 -33l-60 24l68 229h243l-12 -68h-184l-32 -106q14 12 34 20.5t51 8.5q29 0 52.5 -12t38.5 -33t21 -48.5t0 -58.5q-12 -61 -55 -96t-109 -35z
M739 -6q-78 0 -117 38.5t-28 98.5q5 32 27 58t57 41q-20 17 -29.5 40.5t-4.5 54.5q8 47 48.5 75t102.5 28q35 0 61.5 -10t43.5 -27t23.5 -40t2.5 -49q-5 -29 -22 -50t-43 -34q28 -18 41 -45.5t7 -59.5q-8 -53 -50.5 -86t-119.5 -33zM745 60q44 0 67.5 17t28.5 44
q5 30 -16 50t-66 20q-42 0 -65.5 -17t-28.5 -46q-5 -27 15 -47.5t65 -20.5zM779 254q35 0 55 14t24 37q5 26 -11.5 42.5t-56.5 16.5q-37 0 -56 -13.5t-24 -35.5q-5 -26 13.5 -43.5t55.5 -17.5zM781 730h100l-652 -730h-100z" />
    <glyph glyph-name="uni215E" unicode="&#x215e;" horiz-adv-x="891" 
d="M328 663h-212l12 67h288l-11 -62l-222 -360h-79zM631 -6q-78 0 -117 38.5t-28 98.5q5 32 27 58t57 41q-20 17 -29.5 40.5t-4.5 54.5q8 47 48.5 75t102.5 28q35 0 61.5 -10t43.5 -27t23.5 -40t2.5 -49q-5 -29 -22 -50t-43 -34q28 -18 41 -45.5t7 -59.5q-8 -53 -50.5 -86
t-119.5 -33zM637 60q44 0 67.5 17t28.5 44q5 30 -16 50t-66 20q-42 0 -65.5 -17t-28.5 -46q-5 -27 15 -47.5t65 -20.5zM671 254q35 0 55 14t24 37q5 26 -11.5 42.5t-56.5 16.5q-37 0 -56 -13.5t-24 -35.5q-5 -26 13.5 -43.5t55.5 -17.5zM673 730h100l-652 -730h-100z" />
    <glyph glyph-name="uni215F" unicode="&#x215f;" horiz-adv-x="745" 
d="M128 308l56 314q-13 -26 -37.5 -39.5t-56.5 -13.5h-6l13 73h3q43 0 69.5 23.5t33.5 64.5h71l-74 -422h-72zM654 730h100l-652 -730h-100z" />
    <glyph glyph-name="arrowleft" unicode="&#x2190;" horiz-adv-x="938" 
d="M313 109q-17 34 -40.5 68.5t-52 65.5t-60 57t-63.5 44v44q32 18 63.5 45.5t59.5 59.5t50.5 66t36.5 66l72 -43q-12 -26 -30 -51t-38.5 -48t-42.5 -42.5t-43 -34.5h636v-79h-636q21 -14 43 -33t42.5 -41.5t39 -47.5t31.5 -50l-68 -46v0z" />
    <glyph glyph-name="arrowup" unicode="&#x2191;" horiz-adv-x="938" 
d="M457 621q-30 -41 -76.5 -83t-97.5 -66l-42 71q31 13 65 36t66 51t59.5 59.5t45.5 63.5h43q18 -32 45.5 -63.5t59.5 -59.5t65.5 -51t65.5 -36l-42 -71q-26 12 -51 29.5t-47.5 37.5t-42 41.5t-34.5 41.5v-622h-82v621z" />
    <glyph glyph-name="arrowright" unicode="&#x2192;" horiz-adv-x="938" 
d="M580 154q13 25 31 50t38.5 47.5t42.5 42t43 33.5h-635v79h635q-21 15 -42.5 34.5t-42 42t-38 48t-29.5 51.5l72 43q13 -32 35.5 -66t50.5 -66.5t60 -60t64 -45.5v-43q-32 -18 -63.5 -44t-60 -57t-53 -65.5t-40.5 -68.5z" />
    <glyph glyph-name="arrowdown" unicode="&#x2193;" horiz-adv-x="938" 
d="M449 -23q-18 32 -45.5 64t-59.5 60t-66 50.5t-65 36.5l42 71q25 -12 50 -29t47.5 -37t42 -41.5t34.5 -42.5v621h81v-625q15 21 34.5 43t42.5 42.5t48 38.5t51 30l43 -71q-32 -14 -66 -36.5t-66 -50.5t-59.5 -60t-45.5 -64h-43v0z" />
    <glyph glyph-name="uni2196" unicode="&#x2196;" horiz-adv-x="938" 
d="M184 301q13 36 20.5 78t9 85t-2 84.5t-13.5 76.5l31 31q36 -9 78.5 -12t86 -0.5t84 10.5t72.5 21l10 -80q-26 -9 -55.5 -14.5t-59.5 -7t-59.5 0t-54.5 5.5l451 -450l-56 -56l-449 447q5 -24 7 -53t1.5 -59t-5 -60t-13.5 -57l-83 10v0z" />
    <glyph glyph-name="uni2197" unicode="&#x2197;" horiz-adv-x="938" 
d="M177 131l448 448q-24 -5 -53 -7t-59 -1.5t-60 5t-57 13.5l10 83q36 -13 78 -20t84.5 -9t84 2t76.5 14l32 -31q-10 -36 -13 -78.5t0 -86t11 -84t20 -72.5l-80 -10q-9 25 -14.5 54.5t-7 59.5t0 59t5.5 54l-450 -450z" />
    <glyph glyph-name="uni2198" unicode="&#x2198;" horiz-adv-x="938" 
d="M737 89q-36 9 -79 12t-86.5 0.5t-84 -10.5t-72.5 -21l-9 80q25 9 54 14t59 7t59 0.5t54 -5.5l-449 450l57 56l448 -448q-10 49 -8.5 112t18.5 118l83 -11q-13 -36 -20 -78t-9 -84.5t2 -84t14 -76.5l-31 -31v0z" />
    <glyph glyph-name="uni2199" unicode="&#x2199;" horiz-adv-x="938" 
d="M557 73q-36 13 -78 20t-85 9t-84.5 -2t-76.5 -14l-31 31q9 36 12 78.5t0.5 86t-10.5 84t-21 72.5l80 10q9 -26 14 -55.5t7 -59.5t0.5 -59t-5.5 -54l450 451l56 -57l-448 -449q49 11 112 9t118 -19l-10 -82v0z" />
    <glyph glyph-name="partialdiff" unicode="&#x2202;" horiz-adv-x="650" 
d="M306 -10q-59 0 -106.5 21.5t-80 59.5t-47 89.5t-5.5 110.5q7 52 31 95t59.5 73.5t79.5 47.5t91 17q51 0 88 -16.5t62 -42.5q-31 66 -91.5 136t-156.5 149h116q133 -120 195 -252t39 -260q-9 -50 -33 -92t-60 -72t-82 -47t-99 -17zM311 65q33 0 64.5 12t56.5 33t43 50.5
t24 64.5q7 38 0 75t-28 66.5t-54.5 47.5t-78.5 18q-33 0 -64.5 -11.5t-57 -33t-43 -51t-24.5 -65.5q-7 -39 1 -76.5t29.5 -66t55 -46t76.5 -17.5z" />
    <glyph glyph-name="Delta" unicode="&#x2206;" horiz-adv-x="939" 
d="M1 0l553 742l299 -742h-852zM159 80h575l-201 498z" />
    <glyph glyph-name="product" unicode="&#x220f;" horiz-adv-x="816" 
d="M147 730h690l-14 -78h-139l-114 -652h-84l114 652h-242l-114 -652h-84l114 652h-141z" />
    <glyph glyph-name="summation" unicode="&#x2211;" horiz-adv-x="611" 
d="M29 79l300 300l-186 278l15 73h474l-14 -78h-379l189 -285l-289 -288h387l-14 -79h-494z" />
    <glyph glyph-name="minus" unicode="&#x2212;" horiz-adv-x="500" 
d="M87 401h370l-12 -71h-370z" />
    <glyph glyph-name="radical" unicode="&#x221a;" horiz-adv-x="839" 
d="M168 424h-85v76h144l138 -401l365 632h95l-428 -731h-82z" />
    <glyph glyph-name="infinity" unicode="&#x221e;" horiz-adv-x="970" 
d="M293 221q-34 0 -63.5 13t-52 35t-35.5 51.5t-13 63.5t13 64t35.5 52t52 35t63.5 13q29 0 56.5 -9.5t53.5 -25.5t51.5 -36t49.5 -42q24 22 49.5 42.5t51.5 36t53 25t56 9.5q34 0 63.5 -13t52 -35t35.5 -52t13 -64t-13 -63.5t-35.5 -51.5t-52 -35t-63.5 -13
q-29 0 -56.5 9.5t-53.5 25.5t-51.5 36.5t-49.5 42.5q-24 -22 -49 -42.5t-51.5 -36.5t-54 -25.5t-55.5 -9.5zM294 293q38 0 77 27t80 64q-41 37 -80 63.5t-77 26.5q-18 0 -35 -7.5t-29.5 -19.5t-20 -28.5t-7.5 -34.5t7.5 -34.5t20 -29t29.5 -20t35 -7.5zM714 294
q18 0 34.5 7.5t29 20t19.5 29t7 34.5t-7 34.5t-19.5 29t-29 20t-34.5 7.5q-39 0 -77.5 -27t-79.5 -64q41 -37 80 -64t77 -27z" />
    <glyph glyph-name="integral" unicode="&#x222b;" horiz-adv-x="393" 
d="M-41 -112h17q28 0 46.5 4.5t31 16.5t20 32.5t13.5 52.5l95 545q10 60 24 97.5t37 58.5t57.5 28.5t86.5 7.5h24l-13 -76h-18q-29 0 -48 -3.5t-32 -16t-21 -35.5t-15 -62q0 -1 -4 -25t-11 -62.5t-15.5 -87t-17.5 -99.5q-21 -120 -47 -270q-9 -54 -22.5 -89t-34.5 -56
t-52 -29.5t-76 -8.5h-38z" />
    <glyph glyph-name="approxequal" unicode="&#x2248;" horiz-adv-x="500" 
d="M101 477q24 11 47 18.5t54 7.5q22 0 44.5 -6t44 -13t42 -13t40.5 -6q29 0 51 7t50 18l-14 -72q-23 -12 -45 -18.5t-55 -6.5q-21 0 -43 6t-44 13.5t-43 13.5t-40 6q-30 0 -54 -8t-48 -19zM71 310q24 11 45.5 19.5t52.5 8.5q22 0 45 -6t45.5 -13t44 -13t41.5 -6q29 0 50 6
t49 17l-14 -72q-23 -12 -43.5 -18t-53.5 -6q-21 0 -44 6t-46 13.5t-45 13.5t-41 6q-30 0 -52 -8.5t-46 -19.5z" />
    <glyph glyph-name="notequal" unicode="&#x2260;" horiz-adv-x="500" 
d="M102 481h195l37 68h62l-37 -68h113l-13 -71h-139l-50 -93h172l-12 -70h-198l-38 -70h-63l38 70h-109l12 70h135l51 93h-169z" />
    <glyph glyph-name="equivalence" unicode="&#x2261;" horiz-adv-x="500" 
d="M87 399h370l-13 -71h-370zM58 236h370l-13 -70h-370zM116 562h370l-13 -71h-370z" />
    <glyph glyph-name="lessequal" unicode="&#x2264;" horiz-adv-x="500" 
d="M89 411l13 71l393 138l-13 -75l-301 -100l266 -103l-14 -73zM56 227h370l-12 -71h-370z" />
    <glyph glyph-name="greaterequal" unicode="&#x2265;" horiz-adv-x="500" 
d="M77 346l300 100l-264 103l13 71l344 -141l-13 -70l-394 -140zM56 227h370l-12 -71h-370z" />
    <glyph glyph-name="squaremultiply" unicode="&#x22a0;" horiz-adv-x="968" 
d="M139 730h726v-730h-726v730zM222 80h560v571h-560v-571zM303 209l151 157l-151 158l49 48l150 -156l151 157l49 -49l-152 -158l151 -155l-49 -49l-150 154l-150 -156z" />
    <glyph glyph-name="house" unicode="&#x2302;" horiz-adv-x="916" 
d="M120 0v427l337 323l337 -323v-427h-674z" />
    <glyph glyph-name="blacksquare" unicode="&#x25a0;" horiz-adv-x="968" 
d="M139 730h726v-730h-726v730z" />
    <glyph glyph-name="blacksquare" unicode="&#xe740;" horiz-adv-x="968" 
d="M139 730h726v-730h-726v730z" />
    <glyph glyph-name="whitesquare" unicode="&#x25a1;" horiz-adv-x="968" 
d="M139 730h726v-730h-726v730zM222 80h560v571h-560v-571z" />
    <glyph glyph-name="blacksmallsquare" unicode="&#x25aa;" horiz-adv-x="742" 
d="M121 500h500v-500h-500v500z" />
    <glyph glyph-name="whitesmallsquare" unicode="&#x25ab;" horiz-adv-x="742" 
d="M121 500h500v-500h-500v500zM204 81h335v339h-335v-339z" />
    <glyph glyph-name="triagup" unicode="&#x25b2;" horiz-adv-x="939" 
d="M9 0l429 742l428 -742h-857z" />
    <glyph glyph-name="triagrt" unicode="&#x25ba;" horiz-adv-x="939" 
d="M159 800l742 -428l-742 -429v857z" />
    <glyph glyph-name="triagdn" unicode="&#x25bc;" horiz-adv-x="939" 
d="M972 730l-428 -742l-429 742h857z" />
    <glyph glyph-name="triaglf" unicode="&#x25c4;" horiz-adv-x="939" 
d="M822 -57l-742 429l742 428v-857z" />
    <glyph glyph-name="lozenge" unicode="&#x25ca;" horiz-adv-x="885" 
d="M78 378l434 368l328 -394l-434 -368zM415 95l317 265l-230 277l-317 -265z" />
    <glyph glyph-name="whitecircle" unicode="&#x25cb;" horiz-adv-x="969" 
d="M502 -10q-78 0 -146 29.5t-118.5 80.5t-80 119t-29.5 146t29.5 146t80 119t118.5 80.5t146 29.5t146.5 -29.5t119 -80.5t80 -119t29.5 -146t-29.5 -146t-80 -119t-119 -80.5t-146.5 -29.5zM502 71q61 0 114.5 23t92.5 63t61.5 93.5t22.5 114.5t-22.5 114.5t-61.5 93.5
t-92.5 63.5t-114.5 23.5t-114 -23.5t-92 -63.5t-61.5 -93.5t-22.5 -114.5t22.5 -114.5t61.5 -93.5t92 -63t114 -23z" />
    <glyph glyph-name="whitecircle" unicode="&#x25ef;" horiz-adv-x="969" 
d="M502 -10q-78 0 -146 29.5t-118.5 80.5t-80 119t-29.5 146t29.5 146t80 119t118.5 80.5t146 29.5t146.5 -29.5t119 -80.5t80 -119t29.5 -146t-29.5 -146t-80 -119t-119 -80.5t-146.5 -29.5zM502 71q61 0 114.5 23t92.5 63t61.5 93.5t22.5 114.5t-22.5 114.5t-61.5 93.5
t-92.5 63.5t-114.5 23.5t-114 -23.5t-92 -63.5t-61.5 -93.5t-22.5 -114.5t22.5 -114.5t61.5 -93.5t92 -63t114 -23z" />
    <glyph glyph-name="bullseye" unicode="&#x25ce;" horiz-adv-x="969" 
d="M504 -10q-78 0 -146 29.5t-119 80.5t-80.5 119t-29.5 146t29.5 146t80.5 119t119 80.5t146 29.5t146 -29.5t119 -80.5t80.5 -119t29.5 -146t-29.5 -146t-80.5 -119t-119 -80.5t-146 -29.5zM504 64q63 0 117 24t93.5 65t62 95.5t22.5 116.5t-22.5 116.5t-62 95.5t-93.5 65
t-117 24t-117 -24t-93.5 -65t-62 -95.5t-22.5 -116.5t22.5 -116.5t62 -95.5t93.5 -65t117 -24zM504 140q-47 0 -87.5 17t-70.5 47t-47.5 71t-17.5 89t17.5 89t47.5 71t70.5 47t87.5 17q46 0 87 -17t71.5 -47t48 -71t17.5 -89t-17.5 -89t-48 -71t-71.5 -47t-87 -17zM504 212
q31 0 58 11.5t47 32t31.5 48.5t11.5 60t-11.5 60t-31.5 48.5t-47 32t-58 11.5t-58 -11.5t-46.5 -32t-31 -48.5t-11.5 -60t11.5 -60t31 -48.5t46.5 -32t58 -11.5zM504 288q-32 0 -53.5 22.5t-21.5 54.5t21.5 54.5t53.5 22.5t53.5 -22.5t21.5 -54.5t-21.5 -54.5t-53.5 -22.5z
" />
    <glyph glyph-name="blackcircle" unicode="&#x25cf;" horiz-adv-x="969" 
d="M502 -10q-78 0 -146 29.5t-118.5 80.5t-80 119t-29.5 146t29.5 146t80 119t118.5 80.5t146 29.5t146.5 -29.5t119 -80.5t80 -119t29.5 -146t-29.5 -146t-80 -119t-119 -80.5t-146.5 -29.5z" />
    <glyph glyph-name="uni25E2" unicode="&#x25e2;" horiz-adv-x="939" 
d="M333 -73l-222 828l828 -222z" />
    <glyph glyph-name="uni25E3" unicode="&#x25e3;" horiz-adv-x="939" 
d="M100 533l828 222l-222 -828z" />
    <glyph glyph-name="uni25E4" unicode="&#x25e4;" horiz-adv-x="939" 
d="M30 168l606 606l222 -828z" />
    <glyph glyph-name="uni25E5" unicode="&#x25e5;" horiz-adv-x="939" 
d="M54 -58l223 828l605 -607z" />
    <glyph glyph-name="uni2605" unicode="&#x2605;" horiz-adv-x="942" 
d="M668 85l-187 135l-186 -135l72 219l-186 135l229 -1l72 218l71 -218l230 -1l-187 -134z" />
    <glyph glyph-name="ballotboxwithx" unicode="&#x2612;" horiz-adv-x="742" 
d="M121 500h500v-500h-500v500zM200 76h343v348h-343v-348zM240 160l85 88l-88 87l45 45l88 -87l87 90l45 -45l-87 -89l89 -87l-45 -45l-88 86l-86 -88z" />
    <glyph glyph-name="uni263C" unicode="&#x263c;" horiz-adv-x="970" 
d="M326 365q0 36 14 67.5t37.5 55t55 37.5t67.5 14t67.5 -14t55 -37.5t37.5 -55t14 -67.5t-14 -67.5t-37.5 -55t-55 -37.5t-67.5 -14t-67.5 14t-55 37.5t-37.5 55t-14 67.5zM473 719h54l-17 -142h-20zM527 13h-54l17 142h20zM147 339v54l142 -17v-20zM853 393v-54l-142 17
v20zM179 519l28 47l115 -87l-10 -15zM821 213l-28 -47l-115 87l10 15zM300 659l47 28l55 -133l-15 -10zM700 73l-47 -28l-55 133l15 10zM653 687l47 -28l-87 -115l-15 10zM347 45l-47 28l87 115l15 -10zM791 566l30 -46l-133 -56l-10 16zM209 166l-30 46l133 56l10 -16z" />
    <glyph glyph-name="uni263E" unicode="&#x263e;" horiz-adv-x="829" 
d="M572 616q-50 0 -93.5 -20t-75.5 -54t-51 -79.5t-19 -97.5t19 -97.5t51 -79.5t75.5 -54t93.5 -20q18 0 36 3.5t35 8.5q-38 -27 -83.5 -42t-94.5 -15q-61 0 -115 23.5t-94 63.5t-63.5 94t-23.5 115t23.5 115t63.5 94t94 63.5t115 23.5q49 0 94.5 -15t83.5 -42
q-17 5 -35 8.5t-36 3.5z" />
    <glyph glyph-name="spade" unicode="&#x2660;" horiz-adv-x="962" 
d="M366 0q10 19 26 49.5t31 69t26 82.5t11 89q-9 -26 -24 -50.5t-36 -43.5t-48.5 -30.5t-61.5 -11.5q-35 0 -66 12.5t-54.5 34t-37 50.5t-13.5 61q0 43 13.5 80.5t42 75t73 77.5t106.5 90l140 112h1l140 -112q62 -50 105.5 -90t70.5 -77.5t39.5 -75t12.5 -80.5
q0 -32 -12.5 -60.5t-34 -50t-50 -34t-60.5 -12.5q-37 0 -66 11t-51.5 30t-38.5 43.5t-25 50.5q0 -45 12 -89t28 -82.5t33 -69t27 -49.5h-259z" />
    <glyph glyph-name="club" unicode="&#x2663;" horiz-adv-x="962" 
d="M362 0q9 17 22.5 43t27.5 58t25 69.5t16 77.5q-21 -52 -65 -85t-102 -33q-37 0 -69 14t-56 38t-38 56t-14 69t14 69t38 56t56 38t69 14q11 0 21.5 -2t20.5 -5q-19 41 -19 87q0 36 13.5 68t37.5 56t56 38t68 14t68 -14t56 -38t38 -56t14 -68q0 -45 -19 -88q22 8 46 8
q37 0 69 -14t56 -38t37.5 -56t13.5 -69t-14 -69t-38 -56t-56 -38t-69 -14q-58 0 -100.5 33t-62.5 84q5 -39 17.5 -76.5t27.5 -69.5t29.5 -58t23.5 -43h-259z" />
    <glyph glyph-name="heart" unicode="&#x2665;" horiz-adv-x="962" 
d="M158 550q0 39 14 73.5t39 60.5t58 41t72 15q38 0 70.5 -12.5t56.5 -34t39 -51t19 -63.5q4 34 19 63.5t39 51t56 34t71 12.5t73 -15t60 -41t41 -60.5t15 -73.5q0 -43 -13 -86.5t-41 -92.5t-72 -105.5t-106 -125.5l-142 -157l-141 157q-62 69 -105.5 125.5t-70.5 105.5
t-39 92.5t-12 86.5z" />
    <glyph glyph-name="diamond" unicode="&#x2666;" horiz-adv-x="962" 
d="M506 791l327 -401l-327 -400l-327 400z" />
    <glyph glyph-name="uni267B" unicode="&#x267b;" horiz-adv-x="963" 
d="M861 244l-91 -157q-7 -11 -14 -20.5t-16 -16.5t-21.5 -11t-30.5 -4h-54v-47l-106 128l106 127v-46h136q21 0 37.5 7.5t28.5 16.5q13 11 24 25zM221 111l-90 158q-6 11 -11 21.5t-6.5 22t1.5 24t12 28.5l27 46l-40 23l164 29l55 -156l-38 23q-18 -31 -33 -57
q-13 -22 -23.5 -40.5t-11.5 -20.5q-11 -18 -13 -36.5t0 -32.5q2 -17 9 -32h-2zM428 729h182q13 0 25 -1t22.5 -5.5t20 -13t18.5 -24.5l26 -46l41 23l-58 -157l-162 30l38 22l-67 118q-11 18 -25.5 29t-28.5 16q-16 6 -32 8v1zM299 670q4 6 12.5 14.5t19.5 14.5
q21 12 45 13.5t46 -4.5t39.5 -17.5t24.5 -24.5l-109 -189l-141 81zM341 35q-8 0 -19.5 2.5t-22.5 9.5q-21 12 -34.5 32t-19.5 42t-4.5 42.5t9.5 33.5h218v-162h-127zM871 381q9 -14 9 -41q0 -24 -10.5 -45.5t-27 -37.5t-34.5 -25.5t-33 -9.5l-109 189l140 80z" />
    <glyph glyph-name="uni267C" unicode="&#x267c;" horiz-adv-x="963" 
d="M875 366q0 -78 -29.5 -146.5t-80.5 -119t-119 -80t-146 -29.5t-147 29.5t-120 80t-80.5 119t-29.5 146.5t29.5 146.5t80.5 120t120 81t147 29.5t146 -29.5t119 -81t80.5 -120t29.5 -146.5zM293 520l109 -63l84 146q-6 10 -19 19t-30.5 13.5t-36 3.5t-34.5 -10
q-8 -5 -15 -11.5t-9 -11.5zM437 651q14 -2 26 -7q11 -5 22 -12.5t19 -21.5l53 -91l-30 -18l126 -23l44 122l-31 -18l-21 36q-14 24 -30 29t-37 5h-141v-1zM469 114v126h-170q-6 -11 -7 -26.5t4 -32.5t15 -32.5t27 -25.5q8 -5 17 -7t15 -2h99zM282 173q-4 12 -6 25
q-2 11 -0.5 25.5t9.5 28.5l53 91l30 -18l-43 121l-127 -22l31 -18l-21 -36q-15 -25 -10.5 -41t13.5 -34l70 -122h1zM735 468l-110 -63l85 -147q12 0 26 7.5t27 20t21 29.5t8 36q0 10 -2.5 18.5t-5.5 13.5zM776 277q-8 -11 -19 -19q-9 -7 -21.5 -12.5t-29.5 -5.5h-105v35
l-83 -98l83 -99v36h41q29 0 41.5 11.5t22.5 28.5l71 122z" />
    <glyph glyph-name="uni267D" unicode="&#x267d;" horiz-adv-x="963" 
d="M873 366q0 -78 -29.5 -146.5t-80.5 -119t-119 -80t-146 -29.5t-147 29.5t-120 80t-80.5 119t-29.5 146.5t29.5 146.5t80.5 120t120 81t147 29.5t146 -29.5t119 -81t80.5 -120t29.5 -146.5zM854 366q0 74 -28 139.5t-76 114t-113 76.5t-139 28q-75 0 -140 -28t-114 -76.5
t-77 -114t-28 -139.5t28 -139t77 -113.5t114 -76.5t140 -28q74 0 139 28t113 76.5t76 113.5t28 139zM340 606q2 5 9 11.5t15 11.5q16 9 34.5 10t36 -3.5t30.5 -13.5t19 -19l-84 -146l-109 63zM435 652h141q21 0 37 -5t30 -29l21 -36l31 18l-44 -122l-126 23l30 18l-53 91
q-8 14 -19 21.5t-22 12.5q-12 5 -26 7v1zM368 114q-6 0 -15 2t-17 7q-17 10 -27 25.5t-15 32.5t-4 32.5t7 26.5h170v-126h-99zM279 173l-70 122q-9 18 -13.5 34t10.5 41l21 36l-31 18l127 22l43 -121l-30 18l-53 -91q-8 -14 -9.5 -28.5t0.5 -25.5q2 -13 6 -25h-1zM782 383
q3 -5 5.5 -13.5t2.5 -18.5q0 -19 -8 -36t-21 -29.5t-27 -20t-26 -7.5l-85 147l110 63zM775 276l-71 -122q-10 -17 -22.5 -28.5t-41.5 -11.5h-41v-36l-83 99l83 98v-35h105q17 0 29.5 5.5t21.5 12.5q11 8 19 19z" />
    <glyph glyph-name="mediumwhitecircle" unicode="&#x26aa;" horiz-adv-x="740" 
d="M370 -10q-54 0 -101 20t-82.5 55.5t-55.5 83t-20 101.5q0 55 20 102.5t55.5 82.5t82.5 55t101 20t101.5 -20t82.5 -55t55.5 -82.5t20.5 -102.5q0 -54 -20.5 -101.5t-55.5 -83t-82.5 -55.5t-101.5 -20zM370 66q37 0 69.5 14.5t56.5 39.5t38 58.5t14 71.5t-14 71.5
t-38 58.5t-56.5 39.5t-69.5 14.5q-38 0 -70 -14.5t-56 -39.5t-37.5 -58.5t-13.5 -71.5t13.5 -71.5t37.5 -58.5t56 -39.5t70 -14.5z" />
    <glyph glyph-name="mediumblackcircle" unicode="&#x26ab;" horiz-adv-x="740" 
d="M370 -10q-54 0 -101 20.5t-82.5 55.5t-55.5 82.5t-20 101.5t20 101.5t55.5 82.5t82.5 55.5t101 20.5t101 -20.5t82.5 -55.5t55.5 -82.5t20 -101.5t-20 -101.5t-55.5 -82.5t-82.5 -55.5t-101 -20.5z" />
    <glyph glyph-name="anglebracketleft" unicode="&#x3008;" horiz-adv-x="420" 
d="M71 261l270 469h93l-277 -481l102 -479h-85z" />
    <glyph glyph-name="anglebracketright" unicode="&#x3009;" horiz-adv-x="420" 
d="M258 251l-101 479h84l104 -491l-270 -469h-94z" />
    <glyph glyph-name="cordinal" unicode="&#xe181;" horiz-adv-x="421" 
d="M254 411q-36 0 -65.5 14t-49 38t-28.5 55.5t-3 67.5q5 32 20.5 59.5t38.5 47.5t52.5 31.5t62.5 11.5q50 0 86.5 -25t53.5 -67l-59 -26q-10 25 -32 42t-55 17q-20 0 -38 -7.5t-32 -20t-24 -30t-13 -37.5q-4 -22 0.5 -42t16.5 -35.5t30.5 -24.5t42.5 -9q29 0 54 15.5
t40 41.5l55 -27q-21 -42 -61 -66t-93 -24z" />
    <glyph glyph-name="fi" unicode="&#xe38c;" horiz-adv-x="613" 
d="M70 540h99l8 43q11 63 26 103t39 62.5t60.5 31t90.5 8.5h44l-14 -77h-37q-32 0 -53.5 -4t-35.5 -17.5t-23 -39t-16 -68.5l-8 -42h144l-13 -73h-144l-82 -467h-80l81 467h-99zM409 0l95 540h83l-95 -540h-83zM570 641q-31 0 -47.5 22t-10.5 51q4 25 23.5 40.5t42.5 15.5
q33 0 49 -23t11 -50q-5 -25 -23.5 -40.5t-44.5 -15.5z" />
    <glyph glyph-name="fi" unicode="&#xfb01;" horiz-adv-x="613" 
d="M70 540h99l8 43q11 63 26 103t39 62.5t60.5 31t90.5 8.5h44l-14 -77h-37q-32 0 -53.5 -4t-35.5 -17.5t-23 -39t-16 -68.5l-8 -42h144l-13 -73h-144l-82 -467h-80l81 467h-99zM409 0l95 540h83l-95 -540h-83zM570 641q-31 0 -47.5 22t-10.5 51q4 25 23.5 40.5t42.5 15.5
q33 0 49 -23t11 -50q-5 -25 -23.5 -40.5t-44.5 -15.5z" />
    <glyph glyph-name="fl" unicode="&#xe38d;" horiz-adv-x="612" 
d="M70 540h99l8 43q11 63 26 103t39 62.5t60.5 31t90.5 8.5h44l-14 -77h-37q-32 0 -53.5 -4t-35.5 -17.5t-23 -39t-16 -68.5l-8 -42h144l-13 -73h-144l-82 -467h-80l81 467h-99zM547 788h83l-138 -788h-83z" />
    <glyph glyph-name="fl" unicode="&#xfb02;" horiz-adv-x="612" 
d="M70 540h99l8 43q11 63 26 103t39 62.5t60.5 31t90.5 8.5h44l-14 -77h-37q-32 0 -53.5 -4t-35.5 -17.5t-23 -39t-16 -68.5l-8 -42h144l-13 -73h-144l-82 -467h-80l81 467h-99zM547 788h83l-138 -788h-83z" />
    <glyph glyph-name="invertedbreve" unicode="&#xe411;" horiz-adv-x="529" 
d="M167 611q6 34 21.5 63.5t39.5 51.5t56 34.5t71 12.5t67.5 -13t45.5 -35t22.5 -51.5t-0.5 -62.5h-63q9 48 -12 77t-69 30q-48 -1 -77 -30t-38 -77h-64v0z" />
    <glyph glyph-name="doublegrave" unicode="&#xe412;" horiz-adv-x="529" 
d="M325 769h86l71 -161h-62zM182 769h90l82 -161h-64z" />
    <glyph glyph-name="caronSlovak" unicode="&#xe413;" horiz-adv-x="529" 
d="M274 621q38 18 64 43.5t31 53.5q2 8 0 14q-5 -19 -17.5 -26.5t-28.5 -7.5q-21 0 -33.5 17t-7.5 40q4 23 22.5 39t47.5 16q35 0 53 -25t12 -66q-8 -45 -40 -77.5t-81 -56.5z" />
    <glyph glyph-name="commaaccent" unicode="&#xe414;" horiz-adv-x="531" 
d="M134 -252q38 18 64 44t31 54q1 7 0 15q-5 -20 -17 -27.5t-29 -7.5q-21 0 -33.5 16.5t-7.5 39.5q4 23 22.5 39t47.5 16q35 0 53 -25t12 -66q-8 -44 -40 -77t-81 -57z" />
    <glyph glyph-name="commaaccent" unicode="&#xf6c3;" horiz-adv-x="531" 
d="M134 -252q38 18 64 44t31 54q1 7 0 15q-5 -20 -17 -27.5t-29 -7.5q-21 0 -33.5 16.5t-7.5 39.5q4 23 22.5 39t47.5 16q35 0 53 -25t12 -66q-8 -44 -40 -77t-81 -57z" />
    <glyph glyph-name="dotbelow" unicode="&#xe415;" horiz-adv-x="531" 
d="M194 -187q-31 0 -46.5 20.5t-10.5 48.5q4 24 22.5 39t41.5 15q32 0 47 -21.5t10 -47.5q-5 -24 -22 -39t-42 -15z" />
    <glyph glyph-name="altcedilla" unicode="&#xe416;" horiz-adv-x="529" 
d="M182 -232q-50 0 -86.5 15.5t-59.5 41.5l62 35q17 -17 37.5 -27t50.5 -10q31 0 50 10t23 29q8 41 -68 41h-27l8 45h27q69 0 100.5 -27t24.5 -66q-8 -42 -47.5 -64.5t-94.5 -22.5z" />
    <glyph glyph-name="exclamdown.cap" unicode="&#xe441;" horiz-adv-x="267" 
d="M203 533q-3 -36 -8.5 -86.5t-13 -107t-16 -114.5t-17.5 -108l-20 -117h-83l20 117q9 50 20.5 108t24 114.5t24.5 107t22 86.5h47zM201 615q-32 0 -48.5 22t-10.5 51q5 25 24 41t44 16q33 0 49 -22.5t11 -50.5q-5 -25 -24 -41t-45 -16z" />
    <glyph glyph-name="questiondown.cap" unicode="&#xe444;" horiz-adv-x="558" 
d="M262 -10q-50 0 -91 15.5t-68.5 43t-39 65t-3.5 80.5q7 42 26.5 69t45 47t54.5 37.5t55 41t47 57t30 85.5l2 9h74l-1 -9q-11 -63 -32 -104t-47 -69t-53.5 -46t-52 -35.5t-42 -37.5t-23.5 -51q-5 -29 2.5 -52t25 -39t42.5 -25t56 -9q42 0 77 17.5t58 44.5l63 -47
q-32 -39 -86.5 -63.5t-118.5 -24.5zM375 615q-32 0 -49 22t-11 51q5 25 24.5 41t43.5 16q33 0 49 -22.5t11 -50.5q-5 -25 -23.5 -41t-44.5 -16z" />
    <glyph glyph-name="guilsinglleft.cap" unicode="&#xe451;" horiz-adv-x="320" 
d="M92 335l10 53l177 119l-12 -67l-122 -81l94 -80l-11 -63z" />
    <glyph glyph-name="guilsinglright.cap" unicode="&#xe452;" horiz-adv-x="320" 
d="M261 387l-9 -53l-177 -119l12 67l121 80l-94 81l12 63z" />
    <glyph glyph-name="guillemotleft.cap" unicode="&#xe453;" horiz-adv-x="495" 
d="M267 335l9 53l177 119l-11 -67l-122 -81l94 -80l-12 -63zM92 335l10 53l177 119l-12 -67l-122 -81l94 -80l-11 -63z" />
    <glyph glyph-name="guillemotright.cap" unicode="&#xe454;" horiz-adv-x="495" 
d="M436 387l-10 -53l-177 -119l12 67l121 80l-93 81l12 63zM261 387l-9 -53l-177 -119l12 67l121 80l-94 81l12 63z" />
    <glyph glyph-name="slash.cap" unicode="&#xe461;" horiz-adv-x="514" 
d="M464 730h91l-472 -730h-92z" />
    <glyph glyph-name="backslash.cap" unicode="&#xe462;" horiz-adv-x="514" 
d="M120 730h87l220 -730h-87z" />
    <glyph glyph-name="bar.cap" unicode="&#xe463;" horiz-adv-x="241" 
d="M182 840h85l-169 -960h-85z" />
    <glyph glyph-name="doublebar.cap" unicode="&#xe464;" horiz-adv-x="415" 
d="M182 840h85l-169 -960h-85zM356 840h85l-169 -960h-85z" />
    <glyph glyph-name="brokenbar.cap" unicode="&#xe465;" horiz-adv-x="241" 
d="M182 840h85l-74 -420h-85zM87 300h85l-74 -420h-85z" />
    <glyph glyph-name="bullet.cap" unicode="&#xe466;" horiz-adv-x="370" 
d="M204 287q-32 0 -54 22t-22 54t22 54.5t54 22.5t54 -22.5t22 -54.5t-22 -54t-54 -22z" />
    <glyph glyph-name="slash.smcp" unicode="&#xe467;" horiz-adv-x="471" 
d="M389 596h90l-385 -596h-89z" />
    <glyph glyph-name="backslash.smcp" unicode="&#xe468;" horiz-adv-x="471" 
d="M110 596h84l180 -596h-85z" />
    <glyph glyph-name="bar.smcp" unicode="&#xe469;" horiz-adv-x="241" 
d="M155 686h83l-138 -784h-83z" />
    <glyph glyph-name="doublebar.smcp" unicode="&#xe46a;" horiz-adv-x="413" 
d="M155 686h83l-138 -784h-83zM329 686h83l-138 -784h-83z" />
    <glyph glyph-name="onethirdemdash" unicode="&#xe471;" horiz-adv-x="454" 
d="M73 291h320l-13 -71h-320z" />
    <glyph glyph-name="threequarteremdash" unicode="&#xe472;" horiz-adv-x="643" 
d="M73 291h510l-13 -71h-510z" />
    <glyph glyph-name="periodcentered.cap" unicode="&#xe481;" horiz-adv-x="231" 
d="M128 302q-30 0 -45.5 20t-10.5 49q4 24 22.5 39t41.5 15q31 0 46 -22t11 -48q-5 -23 -22.5 -38t-42.5 -15z" />
    <glyph glyph-name="hyphen.cap" unicode="&#xe482;" horiz-adv-x="500" 
d="M89 400h370l-13 -70h-370z" />
    <glyph glyph-name="onethirdemdash.cap" unicode="&#xe483;" horiz-adv-x="454" 
d="M89 400h320l-13 -70h-320z" />
    <glyph glyph-name="endash.cap" unicode="&#xe484;" horiz-adv-x="539" 
d="M89 400h409l-13 -70h-409z" />
    <glyph glyph-name="threequarteremdash.cap" unicode="&#xe485;" horiz-adv-x="643" 
d="M89 400h509l-13 -70h-509z" />
    <glyph glyph-name="emdash.cap" unicode="&#xe486;" horiz-adv-x="743" 
d="M89 400h609l-13 -70h-609z" />
    <glyph glyph-name="figuredash.cap" unicode="&#xe487;" horiz-adv-x="693" 
d="M89 400h559l-13 -70h-559z" />
    <glyph glyph-name="uni2015.cap" unicode="&#xe488;" horiz-adv-x="1043" 
d="M89 400h909l-13 -70h-909z" />
    <glyph glyph-name="parenleft.cap" unicode="&#xe491;" horiz-adv-x="444" 
d="M280 -130q-51 40 -92.5 94t-68 120.5t-35 145.5t7.5 170q15 87 50 160t83.5 130.5t107 101t119.5 72.5l44 -68q-60 -29 -112.5 -67.5t-93.5 -89t-70.5 -113t-43.5 -137.5q-24 -149 19 -262.5t143 -191.5z" />
    <glyph glyph-name="parenright.cap" unicode="&#xe492;" horiz-adv-x="444" 
d="M195 857q51 -41 92.5 -94t68 -119t35 -144.5t-6.5 -169.5q-15 -87 -49.5 -161t-82 -133t-105 -103.5t-118.5 -73.5l-46 69q61 28 112.5 68t92 91.5t69 115t42.5 138.5q25 149 -18.5 261t-143.5 190z" />
    <glyph glyph-name="bracketleft.cap" unicode="&#xe493;" horiz-adv-x="426" 
d="M182 840h273l-13 -78h-190l-141 -804h189l-14 -78h-273z" />
    <glyph glyph-name="bracketright.cap" unicode="&#xe494;" horiz-adv-x="426" 
d="M22 -42h188l143 804h-189l14 78h273l-169 -960h-273z" />
    <glyph glyph-name="braceleft.cap" unicode="&#xe495;" horiz-adv-x="441" 
d="M305 -120q-63 0 -103 11t-61.5 36.5t-25 67t7.5 102.5l21 119q5 29 6 49t-6.5 32.5t-25.5 18t-49 5.5l13 78q31 0 50.5 5t32 17t19.5 32t12 50l20 120q11 61 29 102.5t47.5 67t74 36.5t107.5 11h11l-13 -75q-47 0 -77 -6.5t-48.5 -22.5t-29.5 -43.5t-18 -70.5l-21 -120
q-11 -59 -32 -93.5t-63 -50.5q36 -17 45.5 -51t-0.5 -90l-22 -119q-7 -43 -6 -70.5t14.5 -43.5t41 -22.5t74.5 -6.5l-14 -75h-11z" />
    <glyph glyph-name="braceright.cap" unicode="&#xe496;" horiz-adv-x="451" 
d="M17 -45q46 0 76.5 6.5t49 22.5t29 43.5t18.5 70.5l20 118q10 59 31 93t63 50q-36 17 -45 51t1 91l23 121q7 43 6 70.5t-14.5 43.5t-41.5 22.5t-74 6.5l13 75h11q63 0 103 -11t61.5 -36.5t25 -67t-7.5 -102.5l-21 -121q-5 -29 -6 -49t6.5 -32.5t25 -18t49.5 -5.5l-14 -78
q-30 0 -49.5 -5t-31.5 -17t-19 -32t-12 -50l-21 -118q-11 -61 -29 -102.5t-47.5 -67t-74 -36.5t-107.5 -11h-11z" />
    <glyph glyph-name="anglebracketleft.cap" unicode="&#xe497;" horiz-adv-x="420" 
d="M92 371l270 469h93l-277 -481l102 -479h-85z" />
    <glyph glyph-name="anglebracketright.cap" unicode="&#xe498;" horiz-adv-x="420" 
d="M278 361l-102 479h85l104 -491l-271 -469h-93z" />
    <glyph glyph-name="a.alt" unicode="&#xe4c0;" horiz-adv-x="615" 
d="M205 -11q-52 0 -88 14.5t-57.5 38.5t-29 55.5t-1.5 66.5q14 79 85 119t192 40h169l3 15q13 70 -24 106.5t-120 36.5q-116 0 -182 -85l-65 46q49 53 110.5 81t143.5 28q59 0 103 -16t72 -45t38.5 -70t1.5 -90l-58 -330h-80l16 93q-41 -48 -99 -76t-130 -28zM463 256h-165
q-90 0 -133.5 -25t-51.5 -74q-7 -42 19.5 -69t88.5 -27q31 0 62.5 7.5t61.5 23t57 38.5t48 54z" />
    <glyph glyph-name="lowline" unicode="&#xe511;" horiz-adv-x="500" 
d="M31 71h370l-13 -71h-371z" />
    <glyph glyph-name="underscoremonospace" unicode="&#xe512;" horiz-adv-x="672" 
d="M12 -48h552l-12 -70h-554z" />
    <glyph glyph-name="underscoremonospace" unicode="&#xff3f;" horiz-adv-x="672" 
d="M12 -48h552l-12 -70h-554z" />
    <glyph glyph-name="at.cap" unicode="&#xe513;" horiz-adv-x="869" 
d="M426 -10q-87 0 -155.5 33t-112.5 90t-62 132.5t-3 160.5q13 72 49 133t90 105.5t122 70t145 25.5q79 0 145.5 -28.5t111.5 -78t64.5 -116t6.5 -141.5q-6 -37 -20.5 -71t-36.5 -59.5t-52 -41t-69 -15.5q-43 0 -68 17.5t-35 43.5q-21 -26 -53 -43.5t-77 -17.5
q-38 0 -67.5 15t-47.5 40t-25 58.5t0 70.5q6 34 23 66t42.5 57t59 39.5t71.5 14.5q41 0 67 -17.5t40 -43.5q2 12 4 21.5t4 17.5q2 9 3 16h71l-44 -181q-15 -57 -2.5 -80t44.5 -23q21 0 38 11t29 29t20 40.5t12 45.5q10 58 -4 110t-48.5 91t-87.5 62t-121 23
q-61 0 -116.5 -21t-100 -58t-75 -87t-40.5 -108q-12 -65 1 -126.5t47.5 -108.5t89.5 -75.5t129 -28.5q56 0 101.5 17.5t86.5 52.5l55 -48q-49 -44 -110.5 -67.5t-138.5 -23.5zM430 258q24 0 44 9t35.5 24.5t25.5 35.5t15 42q6 24 4 44.5t-12 36.5t-26 25t-38 9
q-25 0 -47 -10t-39 -26.5t-28.5 -38t-15.5 -44.5q-7 -45 15 -76t67 -31z" />
    <glyph glyph-name="zero.LT" unicode="&#xe53f;" 
d="M290 -10q-59 0 -106 21t-76 63.5t-38.5 106t5.5 147.5l17 94q15 85 42.5 145t65.5 98.5t85.5 56.5t103.5 18q57 0 103.5 -20t76 -61t39.5 -104.5t-6 -150.5l-17 -97q-16 -87 -43.5 -147t-65.5 -98t-85 -55t-101 -17zM298 68q38 0 70 12.5t58 41t45 75t31 114.5l18 99
q13 72 7 120.5t-25.5 78t-50.5 42t-70 12.5q-35 0 -67 -13t-59 -42t-48 -76t-33 -116l-15 -90q-24 -134 15.5 -196t123.5 -62z" />
    <glyph glyph-name="one.LT" unicode="&#xe541;" 
d="M44 79h202l90 513q-17 -28 -53 -48t-78 -20h-11l16 86h5q36 0 62.5 11.5t45 29t29 38.5t13.5 41h80l-115 -651h203l-13 -79h-488z" />
    <glyph glyph-name="two.LT" unicode="&#xe542;" 
d="M43 81q9 49 35 88t63.5 71.5t81.5 60t89 52.5q38 22 74 43t65.5 43t49 46t24.5 53q5 27 -2 51t-25 41t-45 27t-62 10q-68 0 -116 -31t-72 -79l-73 33q38 69 105 109.5t158 40.5q53 0 96 -16t72 -44t41.5 -67.5t4.5 -85.5q-7 -40 -30 -72.5t-56.5 -60t-74.5 -52t-83 -47.5
q-41 -23 -79.5 -45.5t-70.5 -48t-54 -55t-28 -64.5l-1 -2h402l-13 -80h-490z" />
    <glyph glyph-name="three.LT" unicode="&#xe543;" 
d="M295 -10q-105 0 -171 37t-106 98l73 44q32 -51 80.5 -77t124.5 -26q32 0 62 8t54 23.5t41 39t22 54.5q11 65 -34 107t-136 42h-76l13 77h75q88 0 140 31.5t62 85.5q10 60 -30 97.5t-119 37.5q-69 0 -115 -27.5t-75 -68.5l-66 44q21 25 46.5 47.5t57.5 39.5t70.5 26.5
t84.5 9.5q59 0 105 -16t75.5 -45t41.5 -68.5t4 -86.5q-10 -54 -47 -91.5t-100 -57.5q63 -26 90.5 -77t14.5 -123q-8 -43 -31.5 -77.5t-58 -58.5t-79 -36.5t-93.5 -12.5z" />
    <glyph glyph-name="four.LT" unicode="&#xe544;" 
d="M382 166h-344l12 77l428 487h84l-86 -488h113l-14 -76h-112l-29 -166h-81zM395 242l63 357l-313 -357h250z" />
    <glyph glyph-name="five.LT" unicode="&#xe545;" 
d="M273 -10q-44 0 -81 11.5t-66.5 31.5t-51.5 47.5t-35 59.5l80 36q20 -48 59 -78.5t99 -30.5q38 0 70 11t57 31t41.5 48t23.5 62q8 40 2.5 74t-24.5 59t-50.5 39.5t-75.5 14.5q-47 0 -85.5 -17t-66.5 -46l-71 33l112 354h396l-14 -78h-325l-70 -217q27 20 64 33t84 13
q57 0 100.5 -21.5t70.5 -58t36.5 -85t-1.5 -103.5q-10 -49 -33 -90t-58.5 -70.5t-82.5 -46t-104 -16.5z" />
    <glyph glyph-name="six.LT" unicode="&#xe546;" 
d="M315 -10q-61 0 -111 23t-81 66q-38 52 -45.5 125.5t7.5 166.5q16 96 49 165.5t79.5 114.5t105 67t126.5 22q66 0 113 -17t82 -46l-57 -67q-23 23 -58 37.5t-82 14.5q-53 0 -97 -16t-79.5 -51t-60.5 -90t-39 -132q29 40 75 64t105 24q57 0 101.5 -21.5t73 -57.5
t39.5 -83.5t2 -98.5q-8 -43 -27.5 -81t-51 -66.5t-74 -45.5t-95.5 -17zM315 66q33 0 61.5 10.5t50.5 29.5t36 45t19 57q6 34 -1 66.5t-25.5 58t-49 40.5t-71.5 15q-35 0 -64.5 -10.5t-52 -28.5t-37.5 -43t-20 -54q-6 -38 1.5 -71.5t27.5 -59t51.5 -40.5t73.5 -15z" />
    <glyph glyph-name="seven.LT" unicode="&#xe547;" 
d="M541 652h-399l14 78h489l-12 -72l-427 -658h-95z" />
    <glyph glyph-name="eight.LT" unicode="&#xe548;" 
d="M291 -10q-62 0 -111 17.5t-80.5 48.5t-44.5 74t-4 94q9 59 49.5 103t106.5 68q-42 27 -61.5 71t-9.5 101q7 37 25.5 68.5t49.5 55t73.5 36.5t96.5 13q57 0 100 -17t70 -46t37.5 -68t3.5 -83q-9 -54 -43 -89.5t-83 -55.5q56 -29 83 -80.5t16 -112.5q-8 -44 -29 -80.5
t-55.5 -62.5t-82 -40.5t-107.5 -14.5zM298 66q83 0 130 36t56 93q6 32 -2 60t-29 49t-55 33t-80 12q-89 0 -133 -37t-54 -98q-5 -29 3.5 -56t30 -47.5t55 -32.5t78.5 -12zM351 420q72 0 113 32.5t50 84.5q9 56 -25 93t-116 37q-76 0 -114.5 -30.5t-46.5 -80.5
q-5 -28 1.5 -52.5t24 -43t46 -29.5t67.5 -11z" />
    <glyph glyph-name="nine.LT" unicode="&#xe549;" horiz-adv-x="631" 
d="M232 -10q-66 0 -114 19t-86 51l60 67q24 -25 59.5 -41.5t83.5 -16.5q52 0 94 15.5t74.5 50t55.5 89.5t37 134q-28 -42 -74 -65.5t-106 -23.5q-57 0 -101.5 21.5t-73 57.5t-40 83t-2.5 99q8 43 28 81.5t51.5 67t74 45t94.5 16.5q65 0 113.5 -23.5t79.5 -67.5
q36 -49 43.5 -124.5t-6.5 -166.5q-17 -98 -48 -167.5t-75 -114t-100 -65.5t-122 -21zM328 344q69 0 115.5 37.5t57.5 97.5q6 38 -1.5 72t-27 59.5t-51 40t-73.5 14.5q-34 0 -62.5 -11t-50.5 -30t-36 -45t-19 -56q-6 -34 1 -66.5t26 -57.5t49.5 -40t71.5 -15z" />
    <glyph glyph-name="zero.inf" unicode="&#xe571;" horiz-adv-x="433" 
d="M142 -217q-38 0 -68 13t-49 40t-25 68t4 97l5 26q17 98 67 144t120 46q35 0 64.5 -12.5t49 -39t27 -66.5t-2.5 -95l-5 -28q-10 -54 -27.5 -91t-41.5 -59.5t-54 -32.5t-64 -10zM149 -146q44 0 69.5 30t37.5 98l6 32q13 68 -6.5 101t-64.5 33t-72 -30.5t-38 -99.5l-5 -26
q-12 -72 6.5 -105t66.5 -33z" />
    <glyph glyph-name="one.inf" unicode="&#xe572;" horiz-adv-x="244" 
d="M26 -211l56 314q-13 -26 -37.5 -39.5t-56.5 -13.5h-6l13 73h3q43 0 69.5 23.5t33.5 64.5h71l-74 -422h-72z" />
    <glyph glyph-name="two.inf" unicode="&#xe573;" horiz-adv-x="369" 
d="M-24 -150q5 28 19 51t33.5 42t43.5 34t50 29q19 10 37 20.5t32 21t23.5 22.5t12.5 26q5 26 -13 42.5t-50 16.5q-30 0 -52.5 -16.5t-35.5 -42.5l-63 27q23 42 61.5 68t95.5 26q32 0 57.5 -10t42.5 -27.5t24 -41.5t2 -51q-4 -24 -17 -43.5t-31.5 -35t-40.5 -29t-45 -25.5
q-44 -24 -74 -45t-35 -52h203l-12 -68h-279z" />
    <glyph glyph-name="three.inf" unicode="&#xe574;" horiz-adv-x="362" 
d="M107 -217q-54 0 -95.5 22t-61.5 57l69 39q11 -23 35 -37t57 -14q34 0 54.5 15.5t25.5 44.5t-16.5 46t-60.5 17h-39l11 66h40q40 0 61.5 15t26.5 40q5 28 -12 44t-54 16q-29 0 -49.5 -11.5t-33.5 -30.5l-59 40q23 27 60.5 46t87.5 19q34 0 60 -10t43.5 -27t24.5 -40t3 -49
q-5 -29 -24 -50.5t-49 -35.5q30 -17 44.5 -44.5t7.5 -65.5q-9 -53 -50 -82.5t-107 -29.5z" />
    <glyph glyph-name="four.inf" unicode="&#xe575;" horiz-adv-x="401" 
d="M168 -117h-191l11 65l236 263h71l-47 -264h70l-12 -64h-69l-16 -94h-69zM179 -53l27 156l-137 -156h110z" />
    <glyph glyph-name="five.inf" unicode="&#xe576;" horiz-adv-x="375" 
d="M115 -217q-53 0 -88 23t-50 64l70 32q8 -23 26.5 -37.5t47.5 -14.5q32 0 56 18.5t30 49.5q7 35 -11 60t-54 25q-27 0 -47 -12t-36 -33l-60 24l68 229h243l-12 -68h-184l-32 -106q14 12 34 20.5t51 8.5q29 0 52.5 -12t38.5 -33t21 -48.5t0 -58.5q-12 -61 -55 -96t-109 -35
z" />
    <glyph glyph-name="six.inf" unicode="&#xe577;" horiz-adv-x="390" 
d="M139 -219q-38 0 -69.5 15.5t-50.5 41.5q-20 31 -26 71.5t5 100.5q19 104 76.5 155.5t141.5 51.5q41 0 65.5 -6.5t43.5 -19.5l-44 -62q-13 11 -30 16t-43 5q-53 0 -89.5 -31.5t-52.5 -99.5q17 25 43.5 39.5t61.5 14.5q33 0 58.5 -13t42 -34.5t22.5 -51t0 -62.5
q-10 -57 -50 -94t-105 -37zM142 -154q31 0 54 19.5t28 52.5q7 36 -12 64t-60 28q-38 0 -60.5 -20t-28.5 -49q-3 -17 0.5 -33.5t13.5 -30.5t26 -22.5t39 -8.5z" />
    <glyph glyph-name="seven.inf" unicode="&#xe578;" horiz-adv-x="359" 
d="M226 144h-212l12 67h288l-11 -62l-222 -360h-79z" />
    <glyph glyph-name="eight.inf" unicode="&#xe579;" horiz-adv-x="409" 
d="M131 -217q-78 0 -117 38.5t-28 98.5q5 32 27 58t57 41q-20 17 -29.5 40.5t-4.5 54.5q8 47 48.5 75t102.5 28q35 0 61.5 -10t43.5 -27t23.5 -40t2.5 -49q-5 -29 -22 -50t-43 -34q28 -18 41 -45.5t7 -59.5q-8 -53 -50.5 -86t-119.5 -33zM137 -151q44 0 67.5 17t28.5 44
q5 30 -16 50t-66 20q-42 0 -65.5 -17t-28.5 -46q-5 -27 15 -47.5t65 -20.5zM171 43q35 0 55 14t24 37q5 26 -11.5 42.5t-56.5 16.5q-37 0 -56 -13.5t-24 -35.5q-5 -26 13.5 -43.5t55.5 -17.5z" />
    <glyph glyph-name="nine.inf" unicode="&#xe57a;" horiz-adv-x="393" 
d="M102 -219q-44 0 -76 13.5t-53 34.5l52 55q14 -17 36.5 -26t48.5 -9q53 0 82.5 31.5t43.5 98.5q-17 -25 -43.5 -39.5t-61.5 -14.5q-33 0 -58.5 12.5t-42 34.5t-22.5 51.5t0 63.5q10 57 50 93.5t105 36.5q38 0 69.5 -15t50.5 -42q20 -31 26 -71.5t-5 -100.5
q-38 -207 -202 -207zM150 -12q38 0 60.5 20t28.5 50q3 17 -0.5 33.5t-13.5 30t-26 22t-39 8.5q-31 0 -54 -19.5t-28 -51.5q-7 -38 12 -65.5t60 -27.5z" />
    <glyph glyph-name="plus.inf" unicode="&#xe57b;" horiz-adv-x="312" 
d="M12 30h77l14 76h60l-14 -76h76l-10 -60h-77l-13 -77h-60l13 77h-77z" />
    <glyph glyph-name="minus.inf" unicode="&#xe57c;" horiz-adv-x="312" 
d="M12 30h213l-10 -60h-214z" />
    <glyph glyph-name="equal.inf" unicode="&#xe57d;" horiz-adv-x="312" 
d="M20 77h214l-10 -60h-214zM3 -21h214l-11 -60h-214z" />
    <glyph glyph-name="parenleft.inf" unicode="&#xe57e;" horiz-adv-x="306" 
d="M124 -291q-29 23 -54 55t-41 71.5t-21.5 86t3.5 98.5q9 50 30 92.5t49.5 77.5t62.5 61t70 43l39 -58q-67 -31 -114.5 -86.5t-62.5 -137.5q-14 -80 11 -143t79 -105z" />
    <glyph glyph-name="parenright.inf" unicode="&#xe57f;" horiz-adv-x="306" 
d="M101 291q29 -23 54 -54.5t41 -71t21.5 -85.5t-3.5 -98q-17 -100 -75 -170.5t-136 -105.5l-40 58q68 32 115 87t63 138q14 80 -12 143t-79 105z" />
    <glyph glyph-name="Anocross" unicode="&#xe731;" horiz-adv-x="734" 
d="M399 730h85l151 -730h-83l-127 627l-349 -627h-90z" />
    <glyph glyph-name="idotaccent" unicode="&#xe785;" horiz-adv-x="230" 
d="M26 0l95 540h83l-95 -540h-83zM187 641q-31 0 -47.5 22t-10.5 51q4 25 23.5 40.5t42.5 15.5q33 0 49 -23t11 -50q-5 -25 -23.5 -40.5t-44.5 -15.5z" />
    <glyph glyph-name="ohm" unicode="&#xe821;" horiz-adv-x="871" 
d="M445 68q47 41 87 78.5t71.5 77t53.5 82.5t31 96q9 52 -1 99.5t-36.5 83.5t-69 57t-98.5 21q-49 0 -93 -19t-79.5 -52.5t-59.5 -78.5t-33 -97q-9 -53 -3 -99.5t22.5 -89t42 -81.5t56.5 -77l-40 -69h-281l14 80h196q-22 28 -43 64.5t-35 80t-19 93.5t6 107
q11 65 42.5 122.5t78 100.5t106 68t128.5 25q72 0 130.5 -27.5t96.5 -75t53 -112t1 -139.5q-9 -51 -29 -94.5t-46.5 -81.5t-58.5 -70.5t-65 -60.5h204l-13 -80h-294z" />
    <glyph glyph-name="aacute.alt" unicode="&#xe891;" horiz-adv-x="615" 
d="M205 -11q-52 0 -88 14.5t-57.5 38.5t-29 55.5t-1.5 66.5q14 79 85 119t192 40h169l3 15q13 70 -24 106.5t-120 36.5q-116 0 -182 -85l-65 46q49 53 110.5 81t143.5 28q59 0 103 -16t72 -45t38.5 -70t1.5 -90l-58 -330h-80l16 93q-41 -48 -99 -76t-130 -28zM463 256h-165
q-90 0 -133.5 -25t-51.5 -74q-7 -42 19.5 -69t88.5 -27q31 0 62.5 7.5t61.5 23t57 38.5t48 54zM467 779h94l-171 -161h-69z" />
    <glyph glyph-name="agrave.alt" unicode="&#xe892;" horiz-adv-x="615" 
d="M205 -11q-52 0 -88 14.5t-57.5 38.5t-29 55.5t-1.5 66.5q14 79 85 119t192 40h169l3 15q13 70 -24 106.5t-120 36.5q-116 0 -182 -85l-65 46q49 53 110.5 81t143.5 28q59 0 103 -16t72 -45t38.5 -70t1.5 -90l-58 -330h-80l16 93q-41 -48 -99 -76t-130 -28zM463 256h-165
q-90 0 -133.5 -25t-51.5 -74q-7 -42 19.5 -69t88.5 -27q31 0 62.5 7.5t61.5 23t57 38.5t48 54zM228 777h94l88 -161h-66z" />
    <glyph glyph-name="acircumflex.alt" unicode="&#xe893;" horiz-adv-x="615" 
d="M205 -11q-52 0 -88 14.5t-57.5 38.5t-29 55.5t-1.5 66.5q14 79 85 119t192 40h169l3 15q13 70 -24 106.5t-120 36.5q-116 0 -182 -85l-65 46q49 53 110.5 81t143.5 28q59 0 103 -16t72 -45t38.5 -70t1.5 -90l-58 -330h-80l16 93q-41 -48 -99 -76t-130 -28zM463 256h-165
q-90 0 -133.5 -25t-51.5 -74q-7 -42 19.5 -69t88.5 -27q31 0 62.5 7.5t61.5 23t57 38.5t48 54zM357 777h63l91 -161h-76l-56 102l-92 -102h-77z" />
    <glyph glyph-name="adieresis.alt" unicode="&#xe894;" horiz-adv-x="615" 
d="M205 -11q-52 0 -88 14.5t-57.5 38.5t-29 55.5t-1.5 66.5q14 79 85 119t192 40h169l3 15q13 70 -24 106.5t-120 36.5q-116 0 -182 -85l-65 46q49 53 110.5 81t143.5 28q59 0 103 -16t72 -45t38.5 -70t1.5 -90l-58 -330h-80l16 93q-41 -48 -99 -76t-130 -28zM463 256h-165
q-90 0 -133.5 -25t-51.5 -74q-7 -42 19.5 -69t88.5 -27q31 0 62.5 7.5t61.5 23t57 38.5t48 54zM283 626q-28 0 -42.5 18t-9.5 44q4 22 21 35.5t38 13.5q29 0 42.5 -19.5t8.5 -43.5q-3 -22 -19 -35t-39 -13zM463 626q-27 0 -41.5 18t-9.5 44q3 22 20.5 35.5t38.5 13.5
q28 0 42 -19.5t9 -43.5q-4 -22 -20 -35t-39 -13z" />
    <glyph glyph-name="amacron.alt" unicode="&#xe895;" horiz-adv-x="615" 
d="M205 -11q-52 0 -88 14.5t-57.5 38.5t-29 55.5t-1.5 66.5q14 79 85 119t192 40h169l3 15q13 70 -24 106.5t-120 36.5q-116 0 -182 -85l-65 46q49 53 110.5 81t143.5 28q59 0 103 -16t72 -45t38.5 -70t1.5 -90l-58 -330h-80l16 93q-41 -48 -99 -76t-130 -28zM463 256h-165
q-90 0 -133.5 -25t-51.5 -74q-7 -42 19.5 -69t88.5 -27q31 0 62.5 7.5t61.5 23t57 38.5t48 54zM256 703h264l-12 -64h-264z" />
    <glyph glyph-name="abreve.alt" unicode="&#xe896;" horiz-adv-x="615" 
d="M205 -11q-52 0 -88 14.5t-57.5 38.5t-29 55.5t-1.5 66.5q14 79 85 119t192 40h169l3 15q13 70 -24 106.5t-120 36.5q-116 0 -182 -85l-65 46q49 53 110.5 81t143.5 28q59 0 103 -16t72 -45t38.5 -70t1.5 -90l-58 -330h-80l16 93q-41 -48 -99 -76t-130 -28zM463 256h-165
q-90 0 -133.5 -25t-51.5 -74q-7 -42 19.5 -69t88.5 -27q31 0 62.5 7.5t61.5 23t57 38.5t48 54zM367 616q-40 0 -68 13t-44.5 35t-22 51.5t0.5 62.5h63q-9 -48 12 -77t68 -30q49 1 78 30t38 77h64q-6 -33 -21.5 -62.5t-40 -51.5t-56.5 -35t-71 -13z" />
    <glyph glyph-name="aring.alt" unicode="&#xe897;" horiz-adv-x="615" 
d="M205 -11q-52 0 -88 14.5t-57.5 38.5t-29 55.5t-1.5 66.5q14 79 85 119t192 40h169l3 15q13 70 -24 106.5t-120 36.5q-116 0 -182 -85l-65 46q49 53 110.5 81t143.5 28q59 0 103 -16t72 -45t38.5 -70t1.5 -90l-58 -330h-80l16 93q-41 -48 -99 -76t-130 -28zM463 256h-165
q-90 0 -133.5 -25t-51.5 -74q-7 -42 19.5 -69t88.5 -27q31 0 62.5 7.5t61.5 23t57 38.5t48 54zM374 615q-24 0 -43 10t-31.5 26.5t-17 38.5t1.5 46q10 38 41 62t69 24q24 0 43.5 -10t32 -26.5t17 -38t-1.5 -44.5q-10 -38 -39.5 -63t-71.5 -25zM378 666q20 0 36.5 13.5
t20.5 31.5q5 23 -8 41.5t-38 18.5q-19 0 -34.5 -13t-20.5 -32q-5 -23 7 -41.5t37 -18.5z" />
    <glyph glyph-name="atilde.alt" unicode="&#xe898;" horiz-adv-x="615" 
d="M205 -11q-52 0 -88 14.5t-57.5 38.5t-29 55.5t-1.5 66.5q14 79 85 119t192 40h169l3 15q13 70 -24 106.5t-120 36.5q-116 0 -182 -85l-65 46q49 53 110.5 81t143.5 28q59 0 103 -16t72 -45t38.5 -70t1.5 -90l-58 -330h-80l16 93q-41 -48 -99 -76t-130 -28zM463 256h-165
q-90 0 -133.5 -25t-51.5 -74q-7 -42 19.5 -69t88.5 -27q31 0 62.5 7.5t61.5 23t57 38.5t48 54zM194 623q9 53 40 85.5t76 32.5q26 0 44 -8t35 -19q16 -11 30.5 -20t32.5 -9q38 0 48 52h59q-11 -54 -41 -86t-77 -32q-30 0 -50.5 11t-37.5 22q-13 9 -26 16t-29 7
q-37 0 -46 -52h-58z" />
    <glyph glyph-name="aogonek.alt" unicode="&#xe899;" horiz-adv-x="615" 
d="M443 -217q-29 0 -51 9.5t-36.5 25.5t-20 36.5t-1.5 41.5q5 35 27 62t59 55l14 80q-41 -48 -99 -76t-130 -28q-52 0 -88 14.5t-57.5 38.5t-29 55.5t-1.5 66.5q14 79 85 119t192 40h169l3 15q13 70 -24 106.5t-120 36.5q-116 0 -182 -85l-65 46q49 53 110.5 81t143.5 28
q59 0 103 -16t72 -45t38.5 -70t1.5 -90l-58 -330q-46 -33 -66.5 -57t-24.5 -47q-4 -21 8.5 -36.5t36.5 -15.5t41 9.5t36 23.5l51 -40q-32 -26 -64 -40t-73 -14zM463 256h-165q-90 0 -133.5 -25t-51.5 -74q-7 -42 19.5 -69t88.5 -27q31 0 62.5 7.5t61.5 23t57 38.5t48 54z
" />
    <glyph glyph-name="ordfeminine.alt" unicode="&#xe926;" horiz-adv-x="442" 
d="M208 413q-31 0 -52.5 8t-34.5 22t-17.5 32.5t-0.5 39.5q8 45 49.5 67t110.5 22h101l2 9q5 28 -12.5 48t-62.5 20q-35 0 -58.5 -12t-43.5 -37l-51 40q30 31 68.5 47.5t90.5 16.5q31 0 58 -9t45 -26.5t26.5 -41.5t2.5 -54l-34 -187h-64l10 55q-22 -29 -55 -44.5t-78 -15.5z
M355 554h-97q-83 0 -90 -43q-3 -20 10.5 -32.5t45.5 -12.5q35 0 69.5 14.5t57.5 49.5z" />
    <glyph glyph-name="interrobangdown" unicode="&#xe935;" horiz-adv-x="580" 
d="M240 -241q-50 0 -91.5 15.5t-69.5 43t-40 65t-4 80.5q7 42 25.5 69t42.5 47t51 38t51.5 41.5t44 57t29.5 85.5l2 9h62l-1 -11q-5 -36 -13 -89t-17.5 -111t-19 -114.5t-16.5 -98.5l-9 -54q36 5 67.5 22.5t52.5 44.5l62 -48q-33 -42 -88 -67t-121 -25zM116 -44
q-8 -43 13.5 -73t61.5 -43l9 46q9 54 22.5 113.5t27.5 116.5q-21 -25 -42.5 -41.5t-40 -32.5t-32.5 -35.5t-19 -50.5zM329 385q-32 0 -49 22t-11 51q5 25 24.5 40.5t43.5 15.5q33 0 49 -22.5t11 -49.5q-5 -26 -23.5 -41.5t-44.5 -15.5z" />
    <glyph glyph-name="interrobangdown.cap" unicode="&#xe99b;" horiz-adv-x="580" 
d="M279 -10q-50 0 -91 15.5t-69 43t-40 65t-4 80.5q7 42 25.5 69t42.5 47t51 37.5t51.5 41t44 57t29.5 85.5l2 9h62l-2 -11q-5 -36 -13 -89t-17.5 -110.5t-19 -114t-16.5 -98.5l-9 -54q37 4 68.5 21.5t51.5 45.5l62 -48q-32 -42 -87.5 -67t-121.5 -25zM155 187
q-7 -43 14.5 -73.5t61.5 -43.5l9 47q9 53 21.5 112t26.5 116q-21 -25 -42 -41.5t-39.5 -32t-32 -35t-19.5 -49.5zM369 615q-32 0 -49 22t-11 51q5 25 24.5 41t43.5 16q33 0 49 -22.5t11 -50.5q-5 -25 -23.5 -41t-44.5 -16z" />
    <glyph glyph-name="registered.cap" unicode="&#xe99c;" horiz-adv-x="881" 
d="M434 -10q-85 0 -154.5 33.5t-115.5 90.5t-65.5 132t-5.5 159q13 73 49.5 134.5t89 106t118.5 69.5t138 25q85 0 154.5 -34t115.5 -91t65.5 -132.5t4.5 -158.5q-13 -72 -49 -133.5t-88.5 -106t-118.5 -69.5t-138 -25zM442 61q58 0 110 20.5t94 57t70.5 86.5t39.5 109
q11 64 -2.5 124.5t-49 108t-91.5 76.5t-128 29q-60 0 -113 -21t-95.5 -57.5t-71.5 -87t-39 -109.5q-11 -65 3.5 -125.5t50.5 -107.5t92.5 -75t129.5 -28zM352 556h163q33 0 59 -11.5t43 -30.5t24.5 -43.5t3.5 -51.5q-8 -45 -36.5 -73t-74.5 -36l64 -128h-81l-84 179h57
q29 0 52 17t28 46q5 32 -16 49.5t-54 19.5h-83l-54 -311h-77z" />
    <glyph glyph-name="Aumlaut" unicode="&#xf176;" horiz-adv-x="730" 
d="M245 627q-28 0 -42.5 18.5t-9.5 44.5q4 21 21 34.5t38 13.5q29 0 42.5 -19.5t8.5 -42.5q-3 -22 -19 -35.5t-39 -13.5zM621 627q-27 0 -41.5 18.5t-9.5 44.5q3 21 20 34.5t38 13.5q29 0 42.5 -19.5t8.5 -42.5q-3 -22 -19 -35.5t-39 -13.5zM407 730h85l159 -730h-84
l-39 183h-348l-104 -183h-90zM225 262h286l-77 368z" />
    <glyph glyph-name="Oumlaut" unicode="&#xf177;" horiz-adv-x="875" 
d="M158 643q-21 0 -32 14t-8 34q3 17 16 27.5t30 10.5q23 0 33.5 -15t6.5 -34q-3 -17 -15.5 -27t-30.5 -10zM791 643q-21 0 -32 14t-8 34q3 17 16 27.5t30 10.5q22 0 32.5 -15t6.5 -34q-2 -17 -15 -27t-30 -10zM426 -10q-86 0 -155 33t-115 90t-65 132.5t-4 159.5
q13 73 49 134.5t88.5 106t119 69.5t139.5 25q88 0 157 -35.5t114 -93.5t63 -133t4 -154q-13 -73 -48.5 -134t-88 -105.5t-118.5 -69.5t-140 -25zM433 70q57 0 108 20t91.5 55t68.5 83.5t38 104.5q11 61 -2 120t-47.5 105.5t-88.5 74.5t-125 28q-57 0 -108.5 -20t-92 -55.5
t-68 -84t-37.5 -105.5q-11 -66 3 -125t49.5 -104t89 -71t121.5 -26z" />
    <glyph glyph-name="Uumlaut" unicode="&#xf178;" horiz-adv-x="723" 
d="M349 627q-27 0 -39 18.5t-7 44.5q4 21 18 34.5t36 13.5q29 0 40 -19.5t6 -42.5q-4 -22 -17.5 -35.5t-36.5 -13.5zM513 627q-27 0 -39 18.5t-7 44.5q3 21 17.5 34.5t35.5 13.5q29 0 40 -19.5t6 -42.5q-3 -22 -16.5 -35.5t-36.5 -13.5zM331 -10q-63 0 -114 19.5t-85 56.5
t-48 90.5t-2 121.5l80 452h84l-81 -461q-8 -44 0 -80.5t30 -63.5t57.5 -42t84.5 -15q48 0 85.5 14.5t65 40t44.5 60t24 73.5l83 474h84l-83 -473q-11 -62 -36 -111t-64 -84t-91.5 -53.5t-117.5 -18.5z" />
    <glyph glyph-name="period.T" unicode="&#xf182;" horiz-adv-x="331" 
d="M123 -14q-32 0 -48.5 22t-10.5 51q5 25 24 41t44 16q33 0 49 -22.5t11 -50.5q-5 -25 -24 -41t-45 -16z" />
    <glyph glyph-name="comma.T" unicode="&#xf183;" horiz-adv-x="331" 
d="M40 -102q45 23 72.5 54t32.5 64q2 8 0 14q-5 -20 -17 -28.5t-29 -8.5q-23 0 -36.5 18.5t-8.5 42.5q4 25 24 42.5t50 17.5q36 0 56 -26t13 -70q-8 -50 -42.5 -88.5t-92.5 -69.5z" />
    <glyph glyph-name="colon.T" unicode="&#xf184;" horiz-adv-x="331" 
d="M123 -14q-32 0 -48.5 22t-10.5 51q5 25 24 41t44 16q33 0 49 -22.5t11 -50.5q-5 -25 -24 -41t-45 -16zM192 377q-32 0 -48.5 22t-10.5 51q5 25 24 40.5t44 15.5q33 0 49 -22.5t11 -49.5q-5 -26 -24 -41.5t-45 -15.5z" />
    <glyph glyph-name="semicolon.T" unicode="&#xf185;" horiz-adv-x="331" 
d="M44 -102q46 23 73 54t33 64q2 8 0 15q-10 -38 -47 -38q-23 0 -36 18.5t-9 42.5q5 25 24.5 42.5t50.5 17.5q35 0 55 -26t13 -70q-8 -50 -42 -88.5t-93 -69.5zM193 377q-32 0 -48.5 22t-10.5 51q4 25 23.5 40.5t43.5 15.5q33 0 49 -22.5t11 -49.5q-5 -26 -23.5 -41.5
t-44.5 -15.5z" />
    <glyph glyph-name="onesixteenth" unicode="&#xf215;" horiz-adv-x="1121" 
d="M128 308l56 314q-13 -26 -37.5 -39.5t-56.5 -13.5h-6l13 73h3q43 0 69.5 23.5t33.5 64.5h71l-74 -422h-72zM654 730h100l-652 -730h-100zM532 0l56 314q-13 -26 -37.5 -39.5t-56.5 -13.5h-6l13 73h3q43 0 69.5 23.5t33.5 64.5h71l-74 -422h-72zM888 -8q-38 0 -69.5 15.5
t-50.5 41.5q-20 31 -26 71.5t5 100.5q19 104 76.5 155.5t141.5 51.5q41 0 65.5 -6.5t43.5 -19.5l-44 -62q-13 11 -30 16t-43 5q-53 0 -89.5 -31.5t-52.5 -99.5q17 25 43.5 39.5t61.5 14.5q33 0 58.5 -13t42 -34.5t22.5 -51t0 -62.5q-10 -57 -50 -94t-105 -37zM891 57
q31 0 54 19.5t28 52.5q7 36 -12 64t-60 28q-38 0 -60.5 -20t-28.5 -49q-3 -17 0.5 -33.5t13.5 -30.5t26 -22.5t39 -8.5z" />
    <glyph glyph-name="threesixteenths" unicode="&#xf216;" horiz-adv-x="1240" 
d="M210 304q-54 0 -95.5 22t-61.5 57l69 39q11 -23 35 -37t57 -14q34 0 54.5 15.5t25.5 44.5t-16.5 46t-60.5 17h-39l11 66h40q40 0 61.5 15t26.5 40q5 28 -12 44t-54 16q-29 0 -49.5 -11.5t-33.5 -30.5l-59 40q23 27 60.5 46t87.5 19q34 0 60 -10t43.5 -27t24.5 -40t3 -49
q-5 -29 -24 -50.5t-49 -35.5q30 -17 44.5 -44.5t7.5 -65.5q-9 -53 -50 -82.5t-107 -29.5zM773 730h100l-652 -730h-100zM650 0l56 314q-13 -26 -37.5 -39.5t-56.5 -13.5h-6l13 73h3q43 0 69.5 23.5t33.5 64.5h71l-74 -422h-72zM1007 -8q-38 0 -69.5 15.5t-50.5 41.5
q-20 31 -26 71.5t5 100.5q19 104 76.5 155.5t141.5 51.5q41 0 65.5 -6.5t43.5 -19.5l-44 -62q-13 11 -30 16t-43 5q-53 0 -89.5 -31.5t-52.5 -99.5q17 25 43.5 39.5t61.5 14.5q33 0 58.5 -13t42 -34.5t22.5 -51t0 -62.5q-10 -57 -50 -94t-105 -37zM1010 57q31 0 54 19.5
t28 52.5q7 36 -12 64t-60 28q-38 0 -60.5 -20t-28.5 -49q-3 -17 0.5 -33.5t13.5 -30.5t26 -22.5t39 -8.5z" />
    <glyph glyph-name="fivesixteenths" unicode="&#xf217;" horiz-adv-x="1247" 
d="M219 302q-53 0 -88 23t-50 64l70 32q8 -23 26.5 -37.5t47.5 -14.5q32 0 56 18.5t30 49.5q7 35 -11 60t-54 25q-27 0 -47 -12t-36 -33l-60 24l68 229h243l-12 -68h-184l-32 -106q14 12 34 20.5t51 8.5q29 0 52.5 -12t38.5 -33t21 -48.5t0 -58.5q-12 -61 -55 -96t-109 -35z
M781 730h100l-652 -730h-100zM658 0l56 314q-13 -26 -37.5 -39.5t-56.5 -13.5h-6l13 73h3q43 0 69.5 23.5t33.5 64.5h71l-74 -422h-72zM1014 -8q-38 0 -69.5 15.5t-50.5 41.5q-20 31 -26 71.5t5 100.5q19 104 76.5 155.5t141.5 51.5q41 0 65.5 -6.5t43.5 -19.5l-44 -62
q-13 11 -30 16t-43 5q-53 0 -89.5 -31.5t-52.5 -99.5q17 25 43.5 39.5t61.5 14.5q33 0 58.5 -13t42 -34.5t22.5 -51t0 -62.5q-10 -57 -50 -94t-105 -37zM1017 57q31 0 54 19.5t28 52.5q7 36 -12 64t-60 28q-38 0 -60.5 -20t-28.5 -49q-3 -17 0.5 -33.5t13.5 -30.5t26 -22.5
t39 -8.5z" />
    <glyph glyph-name="sevensixteenths" unicode="&#xf218;" horiz-adv-x="1139" 
d="M328 663h-212l12 67h288l-11 -62l-222 -360h-79zM673 730h100l-652 -730h-100zM550 0l56 314q-13 -26 -37.5 -39.5t-56.5 -13.5h-6l13 73h3q43 0 69.5 23.5t33.5 64.5h71l-74 -422h-72zM906 -8q-38 0 -69.5 15.5t-50.5 41.5q-20 31 -26 71.5t5 100.5q19 104 76.5 155.5
t141.5 51.5q41 0 65.5 -6.5t43.5 -19.5l-44 -62q-13 11 -30 16t-43 5q-53 0 -89.5 -31.5t-52.5 -99.5q17 25 43.5 39.5t61.5 14.5q33 0 58.5 -13t42 -34.5t22.5 -51t0 -62.5q-10 -57 -50 -94t-105 -37zM909 57q31 0 54 19.5t28 52.5q7 36 -12 64t-60 28q-38 0 -60.5 -20
t-28.5 -49q-3 -17 0.5 -33.5t13.5 -30.5t26 -22.5t39 -8.5z" />
    <glyph glyph-name="ninesixteenths" unicode="&#xf219;" horiz-adv-x="1253" 
d="M204 302q-44 0 -76 13.5t-53 34.5l52 55q14 -17 36.5 -26t48.5 -9q53 0 82.5 31.5t43.5 98.5q-17 -25 -43.5 -39.5t-61.5 -14.5q-33 0 -58.5 12.5t-42 34.5t-22.5 51.5t0 63.5q10 57 50 93.5t105 36.5q38 0 69.5 -15t50.5 -42q20 -31 26 -71.5t-5 -100.5
q-38 -207 -202 -207zM252 509q38 0 60.5 20t28.5 50q3 17 -0.5 33.5t-13.5 30t-26 22t-39 8.5q-31 0 -54 -19.5t-28 -51.5q-7 -38 12 -65.5t60 -27.5zM786 730h100l-652 -730h-100zM663 0l56 314q-13 -26 -37.5 -39.5t-56.5 -13.5h-6l13 73h3q43 0 69.5 23.5t33.5 64.5h71
l-74 -422h-72zM1020 -8q-38 0 -69.5 15.5t-50.5 41.5q-20 31 -26 71.5t5 100.5q19 104 76.5 155.5t141.5 51.5q41 0 65.5 -6.5t43.5 -19.5l-44 -62q-13 11 -30 16t-43 5q-53 0 -89.5 -31.5t-52.5 -99.5q17 25 43.5 39.5t61.5 14.5q33 0 58.5 -13t42 -34.5t22.5 -51t0 -62.5
q-10 -57 -50 -94t-105 -37zM1023 57q31 0 54 19.5t28 52.5q7 36 -12 64t-60 28q-38 0 -60.5 -20t-28.5 -49q-3 -17 0.5 -33.5t13.5 -30.5t26 -22.5t39 -8.5z" />
    <glyph glyph-name="elevensixteenths" unicode="&#xf220;" horiz-adv-x="1367" 
d="M362 308l56 314q-13 -26 -37.5 -39.5t-56.5 -13.5h-6l13 73h3q43 0 69.5 23.5t33.5 64.5h71l-74 -422h-72zM900 730h100l-652 -730h-100zM777 0l56 314q-13 -26 -37.5 -39.5t-56.5 -13.5h-6l13 73h3q43 0 69.5 23.5t33.5 64.5h71l-74 -422h-72zM1134 -8q-38 0 -69.5 15.5
t-50.5 41.5q-20 31 -26 71.5t5 100.5q19 104 76.5 155.5t141.5 51.5q41 0 65.5 -6.5t43.5 -19.5l-44 -62q-13 11 -30 16t-43 5q-53 0 -89.5 -31.5t-52.5 -99.5q17 25 43.5 39.5t61.5 14.5q33 0 58.5 -13t42 -34.5t22.5 -51t0 -62.5q-10 -57 -50 -94t-105 -37zM1137 57
q31 0 54 19.5t28 52.5q7 36 -12 64t-60 28q-38 0 -60.5 -20t-28.5 -49q-3 -17 0.5 -33.5t13.5 -30.5t26 -22.5t39 -8.5zM128 308l56 314q-13 -26 -37.5 -39.5t-56.5 -13.5h-6l13 73h3q43 0 69.5 23.5t33.5 64.5h71l-74 -422h-72z" />
    <glyph glyph-name="thirteensixteenths" unicode="&#xf221;" horiz-adv-x="1476" 
d="M886 0l56 314q-13 -26 -37.5 -39.5t-56.5 -13.5h-6l13 73h3q43 0 69.5 23.5t33.5 64.5h71l-74 -422h-72zM1243 -8q-38 0 -69.5 15.5t-50.5 41.5q-20 31 -26 71.5t5 100.5q19 104 76.5 155.5t141.5 51.5q41 0 65.5 -6.5t43.5 -19.5l-44 -62q-13 11 -30 16t-43 5
q-53 0 -89.5 -31.5t-52.5 -99.5q17 25 43.5 39.5t61.5 14.5q33 0 58.5 -13t42 -34.5t22.5 -51t0 -62.5q-10 -57 -50 -94t-105 -37zM1246 57q31 0 54 19.5t28 52.5q7 36 -12 64t-60 28q-38 0 -60.5 -20t-28.5 -49q-3 -17 0.5 -33.5t13.5 -30.5t26 -22.5t39 -8.5zM128 308
l56 314q-13 -26 -37.5 -39.5t-56.5 -13.5h-6l13 73h3q43 0 69.5 23.5t33.5 64.5h71l-74 -422h-72zM1009 730h100l-652 -730h-100zM446 304q-54 0 -95.5 22t-61.5 57l69 39q11 -23 35 -37t57 -14q34 0 54.5 15.5t25.5 44.5t-16.5 46t-60.5 17h-39l11 66h40q40 0 61.5 15
t26.5 40q5 28 -12 44t-54 16q-29 0 -49.5 -11.5t-33.5 -30.5l-59 40q23 27 60.5 46t87.5 19q34 0 60 -10t43.5 -27t24.5 -40t3 -49q-5 -29 -24 -50.5t-49 -35.5q30 -17 44.5 -44.5t7.5 -65.5q-9 -53 -50 -82.5t-107 -29.5z" />
    </font>
</defs>
</svg>
