<?xml version="1.0" standalone="no"?>
<!DOCTYPE svg PUBLIC "-//W3C//DTD SVG 1.1//EN" "http://www.w3.org/Graphics/SVG/1.1/DTD/svg11.dtd" >
<svg xmlns="http://www.w3.org/2000/svg" xmlns:xlink="http://www.w3.org/1999/xlink" version="1.1">
<metadata>
Created by FontForge 20170731 at Sat Aug 20 04:21:40 2016
 By Aleksey,,,
Copyright (c) 2016 by Lucas Sharp. All rights reserved.
</metadata>
<defs>
<font id="SharpSans-Thin" horiz-adv-x="638" >
  <font-face 
    font-family="Sharp Sans Thin"
    font-weight="280"
    font-stretch="normal"
    units-per-em="1000"
    panose-1="0 0 0 0 0 0 0 0 0 0"
    ascent="800"
    descent="-200"
    x-height="540"
    cap-height="730"
    bbox="-96 -317 1323 1092"
    underline-thickness="50"
    underline-position="-150"
    unicode-range="U+000D-F472"
  />
<missing-glyph horiz-adv-x="726" 
d="M98 730h530v-730h-530v730zM115 15h496v700h-496v-700z" />
    <glyph glyph-name=".notdef" horiz-adv-x="726" 
d="M98 730h530v-730h-530v730zM115 15h496v700h-496v-700z" />
    <glyph glyph-name=".null" horiz-adv-x="0" 
 />
    <glyph glyph-name="nonmarkingreturn" unicode="&#xd;" horiz-adv-x="214" 
 />
    <glyph glyph-name="NULL" horiz-adv-x="0" 
 />
    <glyph glyph-name="NULL" horiz-adv-x="0" 
 />
    <glyph glyph-name="space" unicode=" " horiz-adv-x="214" 
 />
    <glyph glyph-name="exclam" unicode="!" horiz-adv-x="247" 
d="M119 159v48t-0.5 70t-1 84l-1 90t-0.5 86.5v75.5v117h18v-117v-75.5t-0.5 -86.5t-0.5 -90t-0.5 -84t-0.5 -70v-48h-13zM100 22q0 25 25 25t25 -25t-25 -25t-25 25z" />
    <glyph glyph-name="quotedbl" unicode="&#x22;" horiz-adv-x="254" 
d="M79 500q-1 10 -1.5 29.5t-1 41.5t-1 42.5t-0.5 32.5v84h17v-84v-33t-0.5 -42.5t-1 -41t-1.5 -29.5h-10zM166 500q-1 10 -1.5 29.5t-1 41.5t-1 42.5t-0.5 32.5v84h17v-84v-33t-0.5 -42.5t-1 -41t-1.5 -29.5h-10z" />
    <glyph glyph-name="numbersign" unicode="#" horiz-adv-x="840" 
d="M536 237h-240v-237h-17v237h-224v15h224v238h-224v15h224v225h17v-225h240v225h17v-225h232v-15h-232v-238h232v-15h-232v-237h-17v237zM296 252h240v238h-240v-238z" />
    <glyph glyph-name="dollar" unicode="$" horiz-adv-x="551" 
d="M489 188q0 -44 -15.5 -80t-43 -61.5t-66 -40t-83.5 -16.5v-110h-17v110q-31 1 -61.5 7.5t-57.5 18.5t-50 27.5t-39 34.5l14 13q30 -35 83 -59t111 -26v372q-38 12 -74.5 25t-65 33t-45.5 50.5t-17 77.5q0 40 16 72.5t43 55.5t64 35.5t79 12.5v100h17v-101
q60 -3 104.5 -25t73.5 -55l-13 -12q-27 32 -67.5 53t-97.5 23v-334q39 -12 76 -26t66.5 -36t47.5 -55.5t18 -83.5zM472 187q0 45 -16 75.5t-43 51.5t-61.5 34.5t-70.5 24.5v-367q40 1 74.5 14t60.5 36.5t41 56.5t15 74zM79 564q0 -41 15.5 -68t41.5 -46t59 -31.5t69 -23.5
v329q-38 0 -71.5 -11.5t-59 -32t-40 -50t-14.5 -66.5z" />
    <glyph glyph-name="percent" unicode="%" horiz-adv-x="863" 
d="M113 580q0 -29 11.5 -55.5t31 -46t46 -31t55.5 -11.5t55.5 11.5t46 31t31 46t11.5 55.5t-11.5 55.5t-31 46t-46 31t-55.5 11.5t-55.5 -11.5t-46 -31t-31 -46t-11.5 -55.5zM469 149q0 33 12.5 62.5t34 51t51 34t62.5 12.5t62 -12.5t51 -34t34.5 -51t12.5 -62.5t-12.5 -62
t-34.5 -51t-51 -34.5t-62 -12.5t-62.5 12.5t-51 34.5t-34 51t-12.5 62zM745 730h23l-627 -730h-23zM485 149q0 -29 11.5 -55.5t31 -46t46 -31t55.5 -11.5t55.5 11.5t46 31t31 46t11.5 55.5t-11.5 55.5t-31 46t-46 31t-55.5 11.5t-55.5 -11.5t-46 -31t-31 -46t-11.5 -55.5z
M97 580q0 33 12.5 62.5t34 51t51 34t62.5 12.5t62 -12.5t51 -34t34.5 -51t12.5 -62.5t-12.5 -62t-34.5 -51t-51 -34.5t-62 -12.5t-62.5 12.5t-51 34.5t-34 51t-12.5 62z" />
    <glyph glyph-name="ampersand" unicode="&#x26;" horiz-adv-x="812" 
d="M268 -10q-47 0 -84 13.5t-63 38t-39.5 59t-13.5 75.5q0 43 20.5 77t53.5 62.5t74.5 53t83.5 47.5q-49 47 -79.5 89t-31.5 88q0 32 11.5 59t32 46.5t48.5 30.5t60 11q69 0 111.5 -38t42.5 -104q0 -30 -14 -55.5t-37.5 -48t-54.5 -42.5t-64 -39l12 -11l212 -198l193 235h20
l-202 -244l210 -195h-25l-195 182q-38 -47 -71.5 -82.5t-66.5 -60t-68 -37t-76 -12.5zM268 5q39 0 72 12t65 35.5t64.5 58.5t69.5 81l-214 200q-4 3 -7.5 6t-6.5 7q-41 -23 -81.5 -47t-72.5 -51t-52 -59t-20 -72q0 -36 12 -67t35.5 -54.5t57.5 -36.5t78 -13zM206 593
q0 -43 29.5 -83.5t77.5 -86.5q33 18 63 37t52.5 40t36 45t13.5 53q0 60 -37.5 93t-99.5 33q-28 0 -52.5 -9t-43 -26t-29 -41.5t-10.5 -54.5z" />
    <glyph glyph-name="quotesingle" unicode="'" horiz-adv-x="167" 
d="M79 500q-1 10 -1.5 29.5t-1 41.5t-1 42.5t-0.5 32.5v84h17v-84v-33t-0.5 -42.5t-1 -41t-1.5 -29.5h-10v0z" />
    <glyph glyph-name="parenleft" unicode="(" horiz-adv-x="395" 
d="M332 -250q-58 39 -107 89t-84.5 111.5t-55.5 136t-20 162.5q0 86 19 160t53.5 136t81.5 112.5t104 88.5l14 -12q-57 -38 -104 -88t-80.5 -111t-51.5 -133t-18 -153q0 -83 19 -154.5t53.5 -132.5t82.5 -110.5t105 -87.5l-11 -14v0z" />
    <glyph glyph-name="parenright" unicode=")" horiz-adv-x="395" 
d="M312 250q0 81 -18 152.5t-51.5 132.5t-80.5 111.5t-104 88.5l14 12q57 -38 104 -88.5t81.5 -112.5t53.5 -136t19 -160q0 -87 -20 -161t-55.5 -136t-84.5 -112.5t-107 -89.5l-11 15q57 38 104.5 87.5t82 109.5t54 132t19.5 155z" />
    <glyph glyph-name="asterisk" unicode="*" horiz-adv-x="442" 
d="M225 547l6 -172h-20l6 172l-146 -91l-10 17l152 81l-152 81l10 17l146 -91l-6 168h20l-6 -168l142 89l10 -17l-149 -79l149 -79l-10 -17z" />
    <glyph glyph-name="plus" unicode="+" horiz-adv-x="480" 
d="M55 373h177v176h16v-176h177v-16h-177v-178h-16v178h-177v16z" />
    <glyph glyph-name="comma" unicode="," horiz-adv-x="173" 
d="M100 17q0 -20 -20 -20q-9 0 -16 6.5t-7 17.5t7 18.5t20 7.5q17 0 27 -13t10 -39q0 -33 -20 -65t-46 -50l-8 10q13 7 24 19.5t19 27t12.5 29.5t4.5 29q0 22 -10 30q3 -3 3 -8z" />
    <glyph glyph-name="hyphen" unicode="-" horiz-adv-x="480" 
d="M55 263h370v-16h-370v16z" />
    <glyph glyph-name="period" unicode="." horiz-adv-x="168" 
d="M59 22q0 25 25 25t25 -25t-25 -25t-25 25z" />
    <glyph glyph-name="slash" unicode="/" horiz-adv-x="425" 
d="M376 730h19l-346 -730h-19z" />
    <glyph glyph-name="zero" unicode="0" horiz-adv-x="682" 
d="M340 6q48 0 91 17.5t76 58t52.5 107t19.5 164.5v32q0 91 -20 155.5t-53 105t-76 59t-89 18.5q-47 0 -90 -18.5t-76 -59t-52.5 -105t-19.5 -155.5v-31q0 -98 18.5 -165t51 -107.5t75.5 -58t92 -17.5zM341 -10q-55 0 -101.5 18.5t-80.5 61.5t-53.5 112t-19.5 170v34
q0 94 21 161t56 110t81.5 63t96.5 20q51 0 97.5 -20t81.5 -63t55.5 -110t20.5 -161v-34q0 -101 -20 -170t-54.5 -112t-81 -61.5t-99.5 -18.5z" />
    <glyph glyph-name="one" unicode="1" horiz-adv-x="333" 
d="M210 0v675q-5 -20 -17.5 -42.5t-32.5 -41.5t-47 -32t-60 -13h-11v15h5q36 0 66 16t51.5 41t33.5 55t12 57h17v-730h-17z" />
    <glyph glyph-name="two" unicode="2" horiz-adv-x="588" 
d="M66 22q0 43 19 79.5t49.5 69.5t70 63.5t80.5 59.5q40 28 77.5 57t67 59.5t47.5 64.5t18 72q0 39 -14 71.5t-39.5 56.5t-62 37t-82.5 13q-40 0 -73 -11.5t-59 -31t-46 -45.5t-33 -56l-16 9q15 31 36 58.5t49.5 47.5t63.5 32t78 12q49 0 89 -14.5t68 -40t43 -61t15 -77.5
t-18.5 -77.5t-49 -68t-69.5 -62t-79 -58.5q-41 -30 -79 -59t-67.5 -60t-47.5 -65.5t-18 -74.5v-6h435v-16h-453v22z" />
    <glyph glyph-name="three" unicode="3" horiz-adv-x="588" 
d="M283 -10q-75 0 -132.5 25t-87.5 61l14 11q13 -16 35 -31t49 -26t58.5 -18t64.5 -7q45 0 84 13.5t68 37.5t45.5 58t16.5 75q0 44 -17 78t-46 57t-67.5 35t-82.5 12h-84v15h84q44 0 80.5 12t63 34.5t41 54.5t14.5 71t-16 69.5t-43.5 52.5t-64 33.5t-77.5 11.5
q-33 0 -62.5 -7.5t-53.5 -18.5t-43 -24.5t-31 -26.5l-13 11q14 14 34 28.5t45.5 26t56.5 19t67 7.5q45 0 84.5 -12.5t69 -36.5t46.5 -57.5t17 -75.5q0 -70 -40.5 -117.5t-113.5 -62.5q75 -14 121.5 -62t46.5 -127q0 -45 -17.5 -81.5t-48 -62.5t-73 -40.5t-92.5 -14.5z" />
    <glyph glyph-name="four" unicode="4" horiz-adv-x="570" 
d="M427 198h-394l-6 16l401 516h16v-517h109v-15h-109v-198h-17v198zM427 213v489l-381 -489h381z" />
    <glyph glyph-name="five" unicode="5" horiz-adv-x="585" 
d="M266 -10q-61 0 -114.5 21t-89.5 63l14 12q34 -38 82.5 -59.5t107.5 -21.5q49 0 91 18.5t72.5 50t47.5 73.5t17 90q0 59 -20.5 102t-54 70.5t-75 40.5t-83.5 13q-23 0 -47.5 -6t-48 -16t-43.5 -23.5t-33 -28.5l-14 9l53 332h347v-15h-333l-49 -301q15 13 34.5 25
t41.5 20.5t45.5 13.5t46.5 5q46 0 91 -14t80.5 -43.5t57 -75t21.5 -108.5q0 -52 -18 -97t-50 -78.5t-77 -52.5t-100 -19z" />
    <glyph glyph-name="six" unicode="6" horiz-adv-x="657" 
d="M343 -10q-57 0 -108.5 23t-87.5 70q-17 21 -29 45t-19 52.5t-10 63t-3 77.5q0 96 24.5 173.5t70 132t110.5 84t147 29.5q31 0 53.5 -3t45.5 -10l-6 -16q-22 7 -43.5 10.5t-49.5 3.5q-79 0 -141.5 -28.5t-106 -81t-66.5 -127.5t-23 -167v-36q5 41 25.5 78.5t53 66t74 45.5
t88.5 17q55 0 101 -20t79.5 -54t52 -80t18.5 -98t-18.5 -97.5t-51.5 -79.5t-79 -53.5t-101 -19.5zM343 5q51 0 94 18.5t73.5 51t48 75t17.5 90.5q0 49 -17.5 92t-48.5 75t-74 51t-94 19q-48 0 -90.5 -19t-74 -51t-50 -75t-18.5 -92q0 -48 17.5 -90.5t49 -75t74.5 -51
t93 -18.5z" />
    <glyph glyph-name="seven" unicode="7" horiz-adv-x="603" 
d="M521 714h-465v16h483v-15l-359 -715h-19z" />
    <glyph glyph-name="eight" unicode="8" horiz-adv-x="654" 
d="M326 -10q-67 0 -116.5 15.5t-82.5 42.5t-49 63.5t-16 78.5q0 37 11.5 69.5t35.5 59t60.5 45.5t85.5 28q-76 15 -116 61.5t-40 106.5q0 37 15 70t43.5 57.5t71 38.5t97.5 14t97.5 -14t71.5 -38.5t44 -57t15 -69.5q0 -60 -38.5 -106t-113.5 -62q93 -17 141.5 -70t48.5 -126
q0 -42 -17 -80t-50.5 -66t-83 -44.5t-115.5 -16.5zM326 6q62 0 108.5 15t78 41t47 61t15.5 74q0 38 -15 72.5t-45.5 60t-77 40.5t-110.5 15t-110.5 -16t-77 -43t-45 -62.5t-14.5 -73.5q0 -39 15 -73t45.5 -58.5t76.5 -38.5t109 -14zM327 398q52 0 92 13t66 35.5t39.5 52
t13.5 62.5q0 34 -14 64t-41 52.5t-66.5 35t-90.5 12.5t-90 -13t-65.5 -35t-40.5 -52.5t-14 -64.5q0 -33 13.5 -62t39.5 -51.5t65.5 -35.5t92.5 -13z" />
    <glyph glyph-name="nine" unicode="9" horiz-adv-x="629" 
d="M228 -10q-88 0 -139 31l9 16q23 -14 55 -22.5t76 -8.5q73 0 128.5 29t93 81.5t57 126t19.5 163.5v45q-6 -38 -26.5 -72t-50.5 -59.5t-69 -41t-82 -15.5q-52 0 -96 18.5t-75.5 51t-49.5 76t-18 93.5q0 49 17.5 92.5t49 75.5t75.5 51t96 19q54 0 103 -22t84 -67
q16 -20 27.5 -43.5t18 -53t9.5 -66t3 -82.5q0 -92 -20 -168.5t-59.5 -131.5t-98.5 -85.5t-137 -30.5zM299 279q45 0 85 17.5t70 48t47 71t17 86.5q0 45 -16 85t-45.5 70.5t-70 48t-88.5 17.5t-88.5 -17t-70 -47t-46 -70.5t-16.5 -86.5q0 -47 17 -87.5t46.5 -70.5t70 -47.5
t88.5 -17.5z" />
    <glyph glyph-name="colon" unicode=":" horiz-adv-x="168" 
d="M59 92q0 25 25 25t25 -25t-25 -25t-25 25zM59 459q0 25 25 25t25 -25t-25 -25t-25 25z" />
    <glyph glyph-name="semicolon" unicode=";" horiz-adv-x="173" 
d="M47 -110q13 7 24 19.5t19 27t12.5 29.5t4.5 29q0 22 -10 30q3 -3 3 -8q0 -20 -20 -20q-9 0 -16 6.5t-7 17.5t7 18.5t20 7.5q17 0 27 -13t10 -39q0 -33 -20 -65t-46 -50zM59 459q0 25 25 25t25 -25t-25 -25t-25 25z" />
    <glyph glyph-name="less" unicode="&#x3c;" horiz-adv-x="480" 
d="M55 360v16l370 146v-18l-349 -136l349 -141v-18z" />
    <glyph glyph-name="equal" unicode="=" horiz-adv-x="480" 
d="M55 450h370v-16h-370v16zM55 292h370v-16h-370v16z" />
    <glyph glyph-name="greater" unicode="&#x3e;" horiz-adv-x="480" 
d="M55 227l348 141l-348 136v18l370 -146v-16l-370 -151v18z" />
    <glyph glyph-name="question" unicode="?" horiz-adv-x="524" 
d="M241 189q0 64 15 105.5t37 70t48.5 48.5t48.5 42t37 50.5t15 74.5q0 32 -14 58.5t-39 45.5t-58 29.5t-71 10.5q-70 0 -115.5 -28t-70.5 -78l-15 7q25 51 74.5 83t126.5 32q42 0 78.5 -11.5t63 -32.5t42 -50.5t15.5 -65.5q0 -49 -15 -79.5t-37 -53t-48.5 -42t-48.5 -46.5
t-37 -67t-15 -103v-37h-17v37zM250 -3q-25 0 -25 25t25 25t25 -25t-25 -25z" />
    <glyph glyph-name="at" unicode="@" horiz-adv-x="877" 
d="M438 -125q-78 0 -146 29.5t-118.5 80t-79.5 119t-29 146.5t31 146t83.5 119t122 80.5t147.5 29.5t144.5 -27.5t115 -73.5t76 -107.5t27.5 -128.5q0 -37 -9.5 -75t-28.5 -68.5t-46 -49.5t-61 -19q-28 0 -47.5 9t-32 25.5t-18 38.5t-5.5 48q-4 -20 -14.5 -41.5t-28.5 -39.5
t-43.5 -29.5t-59.5 -11.5q-27 0 -55 11t-49.5 33.5t-34 56t-7.5 79.5q6 45 22.5 78.5t40.5 56t53.5 34t62.5 11.5q29 0 52 -11t38.5 -28.5t24 -40t8.5 -45.5q5 42 7 65.5t4 35.5q2 14 2 18h14l-20 -181q-8 -85 15 -121.5t71 -36.5q28 0 51 16t40 43.5t26.5 63.5t9.5 75
q0 64 -26 122.5t-72 102.5t-109.5 70.5t-137.5 26.5t-140.5 -28.5t-116.5 -77.5t-79 -114.5t-29 -139.5t27.5 -139.5t75.5 -114.5t112.5 -77.5t138.5 -28.5q78 0 144.5 30.5t115.5 83.5l14 -11q-51 -55 -122 -86.5t-152 -31.5zM421 91q34 0 59.5 13.5t43 36.5t27.5 53t13 63
q4 32 -1 61t-19 51.5t-37 36t-56 13.5q-30 0 -57 -11.5t-49 -32.5t-36.5 -51.5t-18.5 -68.5q-5 -33 3 -63t25.5 -52.5t43.5 -35.5t59 -13z" />
    <glyph glyph-name="A" unicode="A" horiz-adv-x="728" 
d="M356 730h17l309 -730h-18l-103 243h-394l-103 -243h-18zM173 258h382l-191 450z" />
    <glyph glyph-name="B" unicode="B" horiz-adv-x="698" 
d="M98 730h324q40 0 74.5 -14t60.5 -39t41 -58t15 -70q0 -32 -10 -59.5t-27.5 -49.5t-41.5 -38t-53 -24q33 -8 60 -25t46.5 -41.5t30 -55t10.5 -64.5q0 -40 -14.5 -75t-40.5 -61t-61.5 -41t-76.5 -15h-337v730zM115 370v-354h318q38 0 70.5 13.5t56 37.5t37 56t13.5 69
t-13.5 69.5t-37 56.5t-55.5 38t-69 14h-320zM115 714v-329h317q34 0 64 13t52 35t34.5 52t12.5 64t-14 64t-38 52.5t-55.5 35.5t-67.5 13h-305z" />
    <glyph glyph-name="C" unicode="C" horiz-adv-x="846" 
d="M449 -10q-78 0 -146 29.5t-119 80.5t-80.5 119t-29.5 146t29.5 146t80.5 119t119 80.5t146 29.5q50 0 96.5 -12.5t87 -36t74 -56t58.5 -71.5l-14 -8q-48 75 -126 122t-176 47q-74 0 -139 -28.5t-113.5 -77.5t-76.5 -114.5t-28 -139.5t28 -139.5t76.5 -114.5t113.5 -77
t139 -28q49 0 95.5 13t87 36t74 56t56.5 73l15 -7q-25 -42 -59.5 -76.5t-77 -59t-91 -38t-100.5 -13.5z" />
    <glyph glyph-name="D" unicode="D" horiz-adv-x="752" 
d="M98 730h205q78 0 146 -28t119 -77.5t80.5 -116t29.5 -144.5t-29.5 -144.5t-80.5 -115t-119 -76.5t-146 -28h-205v730zM115 714v-698h188q74 0 139 26.5t113.5 73.5t76.5 110.5t28 137.5t-28 138t-76.5 111t-113.5 74t-139 27h-188z" />
    <glyph glyph-name="E" unicode="E" horiz-adv-x="652" 
d="M98 730h473v-16h-456v-341h456v-15h-456v-342h456v-16h-473v730z" />
    <glyph glyph-name="F" unicode="F" horiz-adv-x="633" 
d="M98 730h468v-16h-451v-342h451v-15h-451v-357h-17v730z" />
    <glyph glyph-name="G" unicode="G" horiz-adv-x="891" 
d="M451 -10q-82 0 -151 29.5t-119.5 80.5t-78.5 119t-28 146t30 146t81.5 119t120.5 80.5t148 29.5q105 0 186.5 -46t130.5 -126l-13 -9q-46 78 -124.5 122t-180.5 44q-75 0 -141 -28.5t-115 -77.5t-77 -114.5t-28 -139.5t26.5 -139.5t74.5 -114.5t114 -77t144 -28
q76 0 140 26.5t111 73t74 109.5t29 136h-359v15h376v-3q0 -78 -27 -146t-76 -118.5t-117.5 -79.5t-150.5 -29z" />
    <glyph glyph-name="H" unicode="H" horiz-adv-x="726" 
d="M611 357h-496v-357h-17v730h17v-358h496v358h17v-730h-17v357z" />
    <glyph glyph-name="I" unicode="I" horiz-adv-x="237" 
d="M110 730h17v-730h-17v730z" />
    <glyph glyph-name="J" unicode="J" horiz-adv-x="518" 
d="M235 -10q-135 0 -177 104l15 7q17 -45 58 -70t104 -25q41 0 73 13.5t53.5 37.5t32.5 56.5t11 70.5v546h17v-546q0 -42 -12.5 -77.5t-36 -61.5t-58.5 -40.5t-80 -14.5z" />
    <glyph glyph-name="K" unicode="K" horiz-adv-x="682" 
d="M315 422l-199 -221v-201h-17v730h17v-505l455 505h22l-266 -296l309 -434h-21z" />
    <glyph glyph-name="L" unicode="L" horiz-adv-x="614" 
d="M98 730h17v-714h438v-16h-455v730z" />
    <glyph glyph-name="M" unicode="M" horiz-adv-x="871" 
d="M98 730h17l317 -431l325 431h16v-730h-17v702l-324 -430l-317 429v-701h-17v730z" />
    <glyph glyph-name="N" unicode="N" horiz-adv-x="760" 
d="M98 730h17l530 -704v704h17v-730h-18l-529 702v-702h-17v730z" />
    <glyph glyph-name="O" unicode="O" horiz-adv-x="898" 
d="M449 -10q-78 0 -146 29.5t-119 80.5t-80.5 119t-29.5 146t29.5 146t80.5 119t119 80.5t146 29.5t146 -29.5t119 -80.5t80.5 -119t29.5 -146t-29.5 -146t-80.5 -119t-119 -80.5t-146 -29.5zM449 6q74 0 139 28t113.5 77t76.5 114.5t28 139.5t-28 139.5t-76.5 114
t-113.5 77t-139 28.5t-139 -28.5t-113.5 -77t-76.5 -114t-28 -139.5t28 -139.5t76.5 -114.5t113.5 -77t139 -28z" />
    <glyph glyph-name="P" unicode="P" horiz-adv-x="697" 
d="M98 730h246q66 0 118 -18.5t88 -51.5t55.5 -79.5t19.5 -101.5q0 -57 -19 -103.5t-54.5 -79.5t-87 -51.5t-117.5 -18.5h-232v-226h-17v730zM115 714v-472h232q63 0 111.5 17.5t81.5 49t50 75t17 95.5t-17.5 95.5t-51.5 74.5t-82.5 48t-111.5 17h-229z" />
    <glyph glyph-name="Q" unicode="Q" horiz-adv-x="898" 
d="M449 -10q-78 0 -146 29.5t-119 80.5t-80.5 119t-29.5 146t29.5 146t80.5 119t119 80.5t146 29.5t146 -29.5t119 -80.5t80.5 -119t29.5 -146q0 -81 -32 -151.5t-87 -122.5l84 -91h-22l-74 81q-49 -42 -111.5 -66.5t-132.5 -24.5zM449 6q67 0 126 23t107 64l-161 178h21
l152 -168q52 50 82 117t30 145q0 74 -28 139.5t-76.5 114t-113.5 77t-139 28.5t-139 -28.5t-113.5 -77t-76.5 -114t-28 -139.5t28 -139.5t76.5 -114.5t113.5 -77t139 -28z" />
    <glyph glyph-name="R" unicode="R" horiz-adv-x="708" 
d="M98 730h320q46 0 87 -17.5t71.5 -47.5t48 -70t17.5 -85q0 -43 -15.5 -80.5t-42 -66t-61 -46.5t-72.5 -22l192 -295h-20l-188 292h-320v-292h-17v730zM115 714v-408h303q42 0 79.5 15.5t65.5 43t44.5 65t16.5 80.5q0 42 -16.5 79t-44.5 65t-65.5 44t-79.5 16h-303z" />
    <glyph glyph-name="S" unicode="S" horiz-adv-x="673" 
d="M353 -10q-105 0 -180 38.5t-127 109.5l14 12q49 -72 122.5 -108t170.5 -36q58 0 102 15.5t73 41.5t44 60t15 72q0 49 -21.5 79.5t-56.5 49t-79.5 29t-91.5 18.5q-48 9 -94 19.5t-82.5 30t-58.5 50.5t-22 82q0 39 16 73.5t46 59.5t72.5 39.5t96.5 14.5q97 0 165 -36.5
t114 -94.5l-14 -11q-42 57 -108 91.5t-157 34.5q-51 0 -91 -13t-67.5 -36.5t-41.5 -54.5t-14 -67q0 -47 21 -75.5t55.5 -46t78.5 -27t91 -18.5q48 -9 95 -20t83.5 -31t59 -53.5t22.5 -86.5q0 -41 -16 -78t-48 -65.5t-79 -45t-108 -16.5z" />
    <glyph glyph-name="T" unicode="T" horiz-adv-x="639" 
d="M310 715h-252v15h523v-15h-254v-715h-17v715z" />
    <glyph glyph-name="U" unicode="U" horiz-adv-x="701" 
d="M350 -10q-58 0 -105.5 19t-81.5 52.5t-52.5 81t-18.5 104.5v483h17v-482q0 -54 17.5 -99t49.5 -76.5t76.5 -49t97.5 -17.5t97.5 17.5t76.5 49t50 76t18 99.5v482h17v-482q0 -57 -18.5 -104.5t-52.5 -81.5t-82 -53t-106 -19z" />
    <glyph glyph-name="V" unicode="V" horiz-adv-x="728" 
d="M46 730h18l299 -709l301 709h18l-310 -730h-17z" />
    <glyph glyph-name="W" unicode="W" horiz-adv-x="1105" 
d="M67 730h19l202 -703l252 703h12l250 -704l218 704h18l-226 -730h-18l-248 700l-250 -700h-17z" />
    <glyph glyph-name="X" unicode="X" horiz-adv-x="655" 
d="M327 367l-261 -367h-20l272 381l-248 349h20l238 -336l236 336h21l-247 -350l271 -380h-20z" />
    <glyph glyph-name="Y" unicode="Y" horiz-adv-x="655" 
d="M320 273l-275 457h21l263 -439l261 439h20l-273 -456v-274h-17v273z" />
    <glyph glyph-name="Z" unicode="Z" horiz-adv-x="649" 
d="M65 16l494 698h-469v16h490v-16l-495 -698h500v-16h-520v16z" />
    <glyph glyph-name="bracketleft" unicode="[" horiz-adv-x="383" 
d="M55 730h273v-15h-256v-930h256v-15h-273v960z" />
    <glyph glyph-name="backslash" unicode="\" horiz-adv-x="425" 
d="M30 730h19l346 -730h-19z" />
    <glyph glyph-name="bracketright" unicode="]" horiz-adv-x="383" 
d="M55 -216h256v931h-256v15h273v-960h-273v14z" />
    <glyph glyph-name="asciicircum" unicode="^" horiz-adv-x="511" 
d="M251 648h5l133 -164h-20l-116 143l-110 -143h-21z" />
    <glyph glyph-name="underscore" unicode="_" horiz-adv-x="480" 
d="M55 -10h370v-16h-370v16z" />
    <glyph glyph-name="grave" unicode="`" horiz-adv-x="511" 
d="M174 771h25l125 -140h-20z" />
    <glyph glyph-name="a" unicode="a" horiz-adv-x="620" 
d="M250 -10q-52 0 -90 12t-62.5 32.5t-36 48t-11.5 58.5q0 42 18.5 73t52 51.5t80 30.5t103.5 10h221v46q0 39 -13.5 72.5t-40 58t-66.5 38.5t-93 14q-42 0 -75.5 -6.5t-60.5 -19t-49.5 -31t-42.5 -42.5l-14 13q22 24 47 43t54 32t63.5 19.5t77.5 6.5q57 0 99.5 -15
t71 -41.5t43 -62.5t14.5 -79v-352h-15v160q-17 -37 -44.5 -68.5t-63.5 -54t-78.5 -35t-88.5 -12.5zM250 5q46 0 89 13.5t79.5 38t64 58t42.5 72.5v105h-220q-53 0 -97 -9.5t-75.5 -28t-48.5 -47t-17 -66.5q0 -27 10.5 -51.5t33 -43t57 -30t82.5 -11.5z" />
    <glyph glyph-name="b" unicode="b" horiz-adv-x="696" 
d="M361 -11q-44 0 -84.5 13t-74.5 37t-60 58.5t-41 78.5v-176h-15v790h15v-426q15 43 41 78t60 59t74.5 37t84.5 13q58 0 109 -22t89 -60t60 -89.5t22 -109.5q0 -59 -22 -110t-60 -89t-89 -60t-109 -22zM361 4q55 0 103 21t83.5 57t56 84.5t20.5 103.5t-20.5 103.5t-56 84.5
t-83.5 57t-103 21t-103 -21t-83.5 -57t-56 -84.5t-20.5 -103.5t20.5 -103.5t56 -84.5t83.5 -57t103 -21z" />
    <glyph glyph-name="c" unicode="c" horiz-adv-x="641" 
d="M339 -11q-63 0 -115 22t-89.5 60t-58.5 89t-21 110q0 58 22 109.5t60 89.5t89.5 60t110.5 22q83 0 145 -38.5t98 -104.5l-14 -9q-34 63 -92.5 100t-136.5 37q-56 0 -104.5 -21t-84 -57t-56 -84.5t-20.5 -103.5t19.5 -103.5t54.5 -84.5t84.5 -57t108.5 -21q43 0 79 11
t65.5 30t52 45.5t39.5 57.5l14 -9q-18 -32 -42 -59.5t-55.5 -47.5t-69.5 -31.5t-83 -11.5z" />
    <glyph glyph-name="d" unicode="d" horiz-adv-x="698" 
d="M336 -11q-58 0 -109 22t-89.5 60t-60.5 89t-22 110q0 58 22 109.5t60.5 89.5t89.5 60t109 22q44 0 85 -13.5t75.5 -38t60.5 -60.5t40 -81v432h15v-790h-15v182q-14 -45 -40 -81t-60.5 -61t-75.5 -38t-85 -13zM336 4q55 0 103 21t83 57t55.5 84.5t20.5 103.5t-20.5 103.5
t-55.5 84.5t-83 57t-103 21t-103 -21t-84 -57t-56.5 -84.5t-20.5 -103.5t20.5 -103.5t56.5 -84.5t84 -57t103 -21z" />
    <glyph glyph-name="e" unicode="e" horiz-adv-x="664" 
d="M337 -11q-69 0 -122 22t-88.5 60t-53.5 89t-18 110q0 58 21 109.5t58.5 89.5t89 60t112.5 22q62 0 112.5 -22t86 -59.5t54.5 -88.5t19 -109v-9h-537q1 -54 19 -101.5t51.5 -82.5t82.5 -55t112 -20q82 0 143.5 34.5t95.5 103.5l15 -8q-36 -72 -100.5 -108.5t-152.5 -36.5z
M336 536q-56 0 -104 -20t-83.5 -55.5t-56 -82.5t-21.5 -101h521q-1 54 -19 101t-51.5 82t-80.5 55.5t-105 20.5z" />
    <glyph glyph-name="f" unicode="f" horiz-adv-x="332" 
d="M28 540h92v74q0 54 7.5 88.5t27 54t53 26.5t84.5 7h2v-16q-47 0 -78 -5.5t-49 -22.5t-25 -49t-7 -84v-73h159v-14h-159v-526h-15v526h-92v14z" />
    <glyph glyph-name="g" unicode="g" horiz-adv-x="694" 
d="M336 -11q-58 0 -109 22t-89.5 60t-60.5 89t-22 110q0 58 22 109.5t60.5 89.5t89.5 60t109 22q44 0 84.5 -13t75 -37.5t60.5 -59.5t40 -79v178h16v-495q0 -63 -19.5 -113.5t-55 -85.5t-84.5 -53.5t-107 -18.5q-86 0 -148.5 30t-98.5 85l14 9q34 -53 92.5 -80.5
t140.5 -27.5q55 0 101 17.5t79 50t51.5 80t18.5 107.5v134q-14 -45 -40 -80t-60.5 -59.5t-75 -37.5t-84.5 -13zM336 4q55 0 103 21t83 57t55.5 84.5t20.5 103.5t-20.5 103.5t-55.5 84.5t-83 57t-103 21t-103 -21t-84 -57t-56.5 -84.5t-20.5 -103.5t20.5 -103.5t56.5 -84.5
t84 -57t103 -21z" />
    <glyph glyph-name="h" unicode="h" horiz-adv-x="663" 
d="M86 790h15v-410q9 35 30 66t52 54.5t70 37t83 13.5q54 0 99.5 -17t78.5 -48.5t51 -77.5t18 -103v-305h-15v306q0 52 -16.5 94.5t-47 72.5t-73.5 46.5t-95 16.5q-48 0 -91 -17t-74.5 -48t-50 -73t-18.5 -91v-307h-16v790z" />
    <glyph glyph-name="i" unicode="i" horiz-adv-x="188" 
d="M86 540h16v-540h-16v540zM69 708q0 24 25 24q11 0 17.5 -6.5t6.5 -17.5t-6.5 -17.5t-17.5 -6.5t-18 6.5t-7 17.5z" />
    <glyph glyph-name="j" unicode="j" horiz-adv-x="190" 
d="M-72 -200q48 0 79 6t49 23t25 49t7 84v578h16v-579q0 -54 -8 -88.5t-28 -54t-53.5 -27t-84.5 -7.5h-2v16zM71 708q0 11 7 17.5t18 6.5t17.5 -6.5t6.5 -17.5t-6.5 -17.5t-17.5 -6.5t-18 6.5t-7 17.5z" />
    <glyph glyph-name="k" unicode="k" horiz-adv-x="579" 
d="M274 306l-172 -170v-136h-16v790h16v-634l387 384h23l-227 -224l259 -316h-21z" />
    <glyph glyph-name="l" unicode="l" horiz-adv-x="188" 
d="M86 790h16v-790h-16v790z" />
    <glyph glyph-name="m" unicode="m" horiz-adv-x="1030" 
d="M82 540h14v-153q7 33 24 62.5t43.5 52t61.5 36t77 13.5q87 0 141.5 -42.5t68.5 -125.5q5 35 23 65.5t46.5 53.5t66 36t80.5 13q50 0 91 -16.5t70 -47t45 -73.5t16 -95v-319h-16v320q0 48 -14.5 87.5t-41.5 68t-65 44.5t-86 16q-44 0 -82 -14t-66 -40t-43.5 -63.5
t-15.5 -84.5v-334h-16v334q0 97 -53.5 149.5t-148.5 52.5q-46 0 -83.5 -16t-64.5 -44.5t-41.5 -68t-14.5 -85.5v-322h-16v540z" />
    <glyph glyph-name="n" unicode="n" horiz-adv-x="660" 
d="M82 540h14v-169q7 37 28 69.5t52.5 57t71.5 39t85 14.5q54 0 99.5 -17t78 -48.5t51 -77.5t18.5 -103v-305h-16v306q0 52 -16.5 94.5t-47 72.5t-73 46.5t-94.5 16.5q-48 0 -91 -17t-75 -48t-50.5 -73t-18.5 -91v-307h-16v540z" />
    <glyph glyph-name="o" unicode="o" horiz-adv-x="672" 
d="M336 -11q-59 0 -110 22t-89 60t-60 89t-22 110q0 58 22 109.5t60.5 89.5t89.5 60t109 22t109.5 -22t89.5 -60t60 -89.5t22 -109.5q0 -59 -22 -110t-60 -89t-89.5 -60t-109.5 -22zM336 4q55 0 103 20.5t84 56.5t56.5 84.5t20.5 104.5q0 55 -20.5 103.5t-56.5 84.5t-84 57
t-103 21t-103 -21t-84 -57t-56.5 -84.5t-20.5 -103.5q0 -56 20.5 -104.5t56 -84.5t83.5 -56.5t104 -20.5z" />
    <glyph glyph-name="p" unicode="p" horiz-adv-x="691" 
d="M357 -11q-91 0 -161 49t-99 137v-391h-15v756h15v-175q14 43 40 77.5t60 58.5t74.5 37t84.5 13q58 0 109 -22t89 -60t60 -89.5t22 -109.5q0 -59 -22 -110t-59.5 -89t-88.5 -60t-109 -22zM357 4q55 0 102.5 21t83 57t56 84.5t20.5 103.5t-20.5 103.5t-56 84.5t-83.5 57
t-103 21t-103 -21t-83.5 -57t-56 -84.5t-20.5 -103.5q0 -64 24 -113.5t62 -83.5t85 -51.5t93 -17.5z" />
    <glyph glyph-name="q" unicode="q" horiz-adv-x="695" 
d="M336 -11q-58 0 -109 22t-89.5 60t-60.5 89t-22 110q0 58 22 109.5t60.5 89.5t89.5 60t109 22q44 0 85 -13.5t75.5 -38t60.5 -60.5t40 -81v182h15v-756h-15v398q-14 -45 -40 -81t-60.5 -61t-75.5 -38t-85 -13zM336 4q55 0 103 21t83 57t55.5 84.5t20.5 103.5t-20.5 103.5
t-55.5 84.5t-83 57t-103 21t-103 -21t-84 -57t-56.5 -84.5t-20.5 -103.5t20.5 -103.5t56.5 -84.5t84 -57t103 -21z" />
    <glyph glyph-name="r" unicode="r" horiz-adv-x="414" 
d="M82 540h15v-140q19 75 66.5 113t120.5 38q27 0 52 -5.5t41 -14.5l-9 -15q-17 11 -38.5 15.5t-46.5 4.5q-88 0 -137.5 -62t-47.5 -184v-290h-16v540z" />
    <glyph glyph-name="s" unicode="s" horiz-adv-x="506" 
d="M261 -11q-44 0 -79.5 9.5t-64 25t-50 35t-37.5 40.5l14 11q15 -22 35.5 -41t47 -33.5t60 -23t74.5 -8.5q44 0 78 11t56.5 29.5t34 43.5t11.5 53q0 34 -16 56t-42.5 36.5t-60.5 23t-70 16.5t-71 17t-62 24t-44 38t-17 59q0 28 11.5 53.5t34.5 45t57.5 31t80.5 11.5
q69 0 121 -27.5t81 -65.5l-13 -10q-27 37 -76 62.5t-113 25.5q-42 0 -73.5 -10t-52.5 -27.5t-31.5 -40.5t-10.5 -48q0 -32 15.5 -52.5t41.5 -34t59.5 -22t68.5 -15.5q36 -8 71.5 -17.5t63.5 -25t45 -40.5t17 -63q0 -31 -13 -58.5t-37.5 -48.5t-61 -33t-83.5 -12z" />
    <glyph glyph-name="t" unicode="t" horiz-adv-x="354" 
d="M26 540h95v124l16 16v-140h169v-14h-169v-404q0 -57 27 -84.5t68 -27.5q28 0 47 8.5t37 25.5l10 -12q-20 -19 -42 -28t-52 -9q-48 0 -79.5 30.5t-31.5 96.5v404h-95v14z" />
    <glyph glyph-name="u" unicode="u" 
d="M315 -11q-54 0 -97.5 16.5t-74.5 47.5t-48 76t-17 102v309h16v-310q0 -105 58 -165.5t163 -60.5q51 0 92.5 18t71 50t46 74.5t16.5 92.5v301h15v-540h-14v166q-8 -36 -28 -68.5t-49 -56.5t-67 -38t-83 -14z" />
    <glyph glyph-name="v" unicode="v" horiz-adv-x="570" 
d="M32 540h18l232 -521l239 521h17l-248 -540h-16z" />
    <glyph glyph-name="w" unicode="w" horiz-adv-x="868" 
d="M44 540h16l158 -509l211 509h9l203 -514l167 514h16l-177 -540h-11l-203 516l-212 -516h-9z" />
    <glyph glyph-name="x" unicode="x" horiz-adv-x="575" 
d="M279 277l-224 263h20l214 -252l212 252h20l-222 -263l234 -277h-20l-224 266l-227 -266h-20z" />
    <glyph glyph-name="y" unicode="y" horiz-adv-x="591" 
d="M131 -172q-45 0 -75 18t-48 44l13 11q18 -25 44.5 -41.5t66.5 -16.5q27 0 48.5 9.5t39.5 29t35 49t36 69.5l2 4l-257 536h17l247 -519l242 519h17l-255 -546q-20 -42 -38 -73t-38 -51.5t-43.5 -31t-53.5 -10.5z" />
    <glyph glyph-name="z" unicode="z" horiz-adv-x="541" 
d="M50 15l417 510h-391v15h412v-14l-418 -511h419v-15h-439v15z" />
    <glyph glyph-name="braceleft" unicode="{" horiz-adv-x="410" 
d="M354 -230q-63 0 -105 11t-67.5 36.5t-36.5 67t-11 102.5v143q0 29 -3 50t-12.5 34.5t-28.5 19.5t-50 6v19q31 0 50 6t28.5 19.5t12.5 34.5t3 50v144q0 61 11 102.5t36.5 67t67.5 36.5t105 11h11v-15q-64 0 -105.5 -10t-65.5 -33t-33.5 -62.5t-9.5 -97.5v-144
q0 -51 -12 -80t-49 -39q39 -10 50 -39t11 -79v-143q0 -59 9.5 -98t33.5 -62t65.5 -33t105.5 -10v-15h-11z" />
    <glyph glyph-name="bar" unicode="|" horiz-adv-x="167" 
d="M75 730h17v-960h-17v960z" />
    <glyph glyph-name="braceright" unicode="}" horiz-adv-x="410" 
d="M45 -214q64 0 105.5 9.5t65.5 33t33.5 62t9.5 97.5v143q0 50 10.5 79t50.5 39q-37 10 -49 39t-12 80v144q0 58 -9.5 97t-33.5 62.5t-65.5 33t-105.5 9.5v16h11q63 0 105 -11t67.5 -36.5t36.5 -67t11 -102.5v-144q0 -29 3 -50t12.5 -34.5t28 -19.5t50.5 -6v-19
q-32 0 -50.5 -6t-28 -19.5t-12.5 -34.5t-3 -50v-143q0 -61 -11 -102.5t-36.5 -67t-67.5 -36.5t-105 -11h-11v16z" />
    <glyph glyph-name="asciitilde" unicode="~" horiz-adv-x="419" 
d="M64 554q5 32 27 51t51 19q27 0 45 -9t35 -20q18 -11 36.5 -21.5t40.5 -10.5q53 0 65 55h15q-5 -32 -25.5 -51t-53.5 -19q-29 0 -49 12t-40 23q-15 9 -31.5 17.5t-37.5 8.5q-46 0 -58 -55h-20v0z" />
    <glyph glyph-name="nonbreakingspace" unicode="&#xa0;" horiz-adv-x="214" 
 />
    <glyph glyph-name="exclamdown" unicode="&#xa1;" horiz-adv-x="247" 
d="M116 -112v75t0.5 87t0.5 90t0.5 84t0.5 70v48h13v-48t0.5 -70t1 -84l1 -90t0.5 -87v-75v-117h-18v117zM125 454q-25 0 -25 25t25 25t25 -25t-25 -25z" />
    <glyph glyph-name="cent" unicode="&#xa2;" horiz-adv-x="623" 
d="M311 -10q-53 2 -98.5 23t-79.5 56t-53.5 81.5t-19.5 99.5t19.5 99.5t53.5 81.5t79.5 56t98.5 23v120h17v-120q39 -1 74.5 -13t65.5 -33t53.5 -49.5t38.5 -62.5l-17 -7q-28 66 -87.5 107.5t-135.5 41.5q-51 0 -95 -19t-77 -52t-52 -77.5t-19 -95.5t19 -95.5t52 -77.5
t77 -52t95 -19q76 0 135.5 41.5t87.5 107.5l17 -7q-14 -34 -37.5 -62.5t-53.5 -49.5t-66 -33t-75 -13v-120h-17v120z" />
    <glyph glyph-name="sterling" unicode="&#xa3;" horiz-adv-x="732" 
d="M106 341h132q-17 21 -32.5 43t-28 46.5t-20 52.5t-7.5 62q0 43 14.5 79t41.5 61.5t66 40t87 14.5q73 0 131 -30.5t84 -90.5l-14 -10q-26 60 -77.5 88t-123.5 28q-44 0 -79.5 -13.5t-60.5 -37.5t-38.5 -57t-13.5 -72q0 -33 8 -60.5t21 -52t29 -47t33 -44.5h228v-15h-217
q28 -38 49 -79t21 -95q0 -32 -14 -65l42 -30t44.5 -26.5t49 -18.5t54.5 -7q35 0 61.5 7t44.5 25.5t27 50.5t9 82v14h16v-16q0 -53 -11 -87.5t-31 -54.5t-49 -28t-66 -8q-31 0 -58 7t-51 19t-46 27t-43 31q-20 -36 -58 -60.5t-92 -24.5t-83.5 24.5t-29.5 66.5q0 39 27 63.5
t77 25.5q21 0 40 -5.5t38 -15.5t37 -23.5t37 -27.5q12 27 12 55q0 54 -22 95t-51 79h-144v15zM168 3q50 0 84.5 24t52.5 58q-36 27 -71 48t-76 21q-42 0 -64 -21.5t-22 -53.5q0 -33 24 -54.5t72 -21.5z" />
    <glyph glyph-name="currency" unicode="&#xa4;" horiz-adv-x="773" 
d="M392 102q-51 0 -96 18t-80 50l-95 -99l-13 12l96 99q-34 35 -53 81t-19 99t19 99t53 81l-93 97l11 12l93 -98q35 32 80.5 50.5t96.5 18.5q50 0 94 -17.5t79 -48.5l87 90l12 -11l-87 -91q35 -35 55 -81.5t20 -100.5t-19.5 -100.5t-54.5 -81.5l85 -88l-11 -13l-87 88
q-35 -31 -79 -48t-94 -17zM392 118q51 0 95 19t76.5 52t51.5 77.5t19 95.5t-19 95.5t-51.5 77.5t-76.5 52t-95 19t-95 -19t-77 -52t-52 -77.5t-19 -95.5t19 -95.5t52 -77.5t77 -52t95 -19z" />
    <glyph glyph-name="yen" unicode="&#xa5;" horiz-adv-x="662" 
d="M146 355h174l-247 375h21l238 -364l237 364h21l-246 -375h172v-16h-175v-142h175v-16h-175v-181h-17v181h-178v16h178v142h-178v16z" />
    <glyph glyph-name="brokenbar" unicode="&#xa6;" horiz-adv-x="167" 
d="M75 730h17v-420h-17v420zM75 190h17v-420h-17v420z" />
    <glyph glyph-name="section" unicode="&#xa7;" horiz-adv-x="609" 
d="M307 -10q-58 0 -98 13.5t-65 36t-36 51.5t-11 59h18q0 -29 10.5 -55.5t33.5 -46.5t59.5 -31.5t88.5 -11.5q31 0 64 7.5t61 23.5t46 41t18 61q0 32 -15 53t-41 34.5t-60.5 21.5t-73.5 14q-41 6 -82.5 14.5t-75 23t-54.5 37.5t-21 59q0 33 21 62.5t64 46.5q-26 15 -41 38
t-15 56q0 36 15.5 63t42 44.5t61 26t72.5 8.5q57 0 96 -13.5t63 -35t35 -49.5t11 -58h-18q0 28 -10 54t-32.5 45t-58 30.5t-86.5 11.5q-30 0 -61 -6.5t-56 -21.5t-41 -39t-16 -60q0 -31 15 -52t40 -34.5t58 -21.5t70 -14q41 -6 81.5 -14t72.5 -22t52 -36t20 -58
q0 -33 -20 -61.5t-61 -45.5q30 -15 48 -39t18 -62q0 -36 -17.5 -64t-46.5 -46.5t-66 -28t-76 -9.5zM317 274q30 -5 58 -11.5t51 -15.5q42 14 64 40.5t21 58.5q-1 33 -21.5 53t-52 32t-70 19t-76.5 13q-32 5 -61 12.5t-53 18.5q-42 -14 -65 -40.5t-22 -58.5q1 -33 22.5 -53.5
t54.5 -33.5t72.5 -20.5t77.5 -13.5z" />
    <glyph glyph-name="dieresis" unicode="&#xa8;" horiz-adv-x="511" 
d="M160 673q0 11 7.5 18t18.5 7q25 0 25 -25q0 -11 -7.5 -18t-18.5 -7q-25 0 -25 25zM279 673q0 25 25 25t25 -25t-25 -25t-25 25z" />
    <glyph glyph-name="copyright" unicode="&#xa9;" horiz-adv-x="880" 
d="M440 -10q-78 0 -146 29.5t-119 80.5t-80.5 119t-29.5 146t29.5 146t80.5 119t119 80.5t146 29.5t146 -29.5t119 -80.5t80.5 -119t29.5 -146t-29.5 -146t-80.5 -119t-119 -80.5t-146 -29.5zM440 6q74 0 139 28t113.5 77t76.5 114.5t28 139.5t-28 139.5t-76.5 114
t-113.5 77t-139 28.5t-139 -28.5t-113.5 -77t-76.5 -114t-28 -139.5t28 -139.5t76.5 -114.5t113.5 -77t139 -28zM443 168q-41 0 -76.5 15.5t-62 42t-42 62t-15.5 76.5q0 40 15.5 76t42 62.5t62 42t76.5 15.5q51 0 95.5 -24t70.5 -64l-15 -12q-23 37 -63 60t-88 23
q-37 0 -69.5 -14t-56.5 -38.5t-38 -57t-14 -69.5t14 -69.5t38 -57t56.5 -38.5t69.5 -14q51 0 92 25t64 67l16 -10q-26 -45 -71.5 -72t-100.5 -27z" />
    <glyph glyph-name="ordfeminine" unicode="&#xaa;" horiz-adv-x="429" 
d="M181 435q-56 0 -82 23.5t-26 57.5q0 45 38 66.5t99 21.5h130v25q0 40 -31.5 65.5t-89.5 25.5q-42 0 -69.5 -12.5t-49.5 -38.5l-12 12q24 26 56 40.5t75 14.5q65 0 101 -30.5t36 -76.5v-189h-16v83q-19 -40 -64 -64t-95 -24zM181 450q25 0 49.5 7t46 19.5t38 30t25.5 38.5
v44h-130q-57 0 -88.5 -17.5t-31.5 -55.5q0 -24 21 -45t70 -21z" />
    <glyph glyph-name="guillemotleft" unicode="&#xab;" horiz-adv-x="424" 
d="M72 242v15l140 119v-21l-125 -106l125 -106v-20zM212 242v15l140 119v-21l-125 -106l125 -106v-20z" />
    <glyph glyph-name="logicalnot" unicode="&#xac;" horiz-adv-x="603" 
d="M536 463h-491v16h508v-281h-17v265z" />
    <glyph glyph-name="uni00AD" unicode="&#xad;" horiz-adv-x="480" 
d="M55 263h370v-16h-370v16z" />
    <glyph glyph-name="registered" unicode="&#xae;" horiz-adv-x="880" 
d="M440 -125q-78 0 -146 29.5t-119 80.5t-80.5 119t-29.5 146t29.5 146t80.5 119t119 80.5t146 29.5t146 -29.5t119 -80.5t80.5 -119t29.5 -146t-29.5 -146t-80.5 -119t-119 -80.5t-146 -29.5zM440 -109q74 0 139 28t113.5 77t76.5 114.5t28 139.5t-28 139.5t-76.5 114
t-113.5 77t-139 28.5t-139 -28.5t-113.5 -77t-76.5 -114t-28 -139.5t28 -139.5t76.5 -114.5t113.5 -77t139 -28zM316 439h154q27 0 49 -8.5t38 -23.5t25 -35.5t9 -44.5q0 -45 -28 -79t-76 -38l105 -145h-22l-113 158h10q48 0 77.5 30t29.5 74q0 43 -30 70t-74 27h-138v-359
h-16v374z" />
    <glyph glyph-name="macron" unicode="&#xaf;" horiz-adv-x="511" 
d="M124 669h264v-15h-264v15z" />
    <glyph glyph-name="degree" unicode="&#xb0;" horiz-adv-x="438" 
d="M219 584q-32 0 -55 23t-23 55t23 55t55 23t55 -23t23 -55t-23 -55t-55 -23zM219 598q26 0 44.5 18.5t18.5 44.5t-18.5 44.5t-44.5 18.5t-44.5 -18.5t-18.5 -44.5t18.5 -44.5t44.5 -18.5z" />
    <glyph glyph-name="plusminus" unicode="&#xb1;" horiz-adv-x="480" 
d="M55 464h177v176h16v-176h177v-16h-177v-178h-16v178h-177v16zM55 154h370v-16h-370v16z" />
    <glyph glyph-name="twosuperior" unicode="&#xb2;" horiz-adv-x="356" 
d="M46 327q0 24 11.5 45.5t30 40t41.5 35.5t47 34q23 16 44.5 32t38.5 33t27 36t10 40q0 44 -32 71t-83 27q-42 0 -73.5 -21t-47.5 -54l-15 8q18 36 53 59t83 23q60 0 95.5 -32t35.5 -81q0 -24 -11 -45t-28.5 -39.5t-40 -35.5t-45.5 -33t-45 -32t-39.5 -33.5t-28.5 -36.5
t-11 -41v-4h251v-15h-268v19z" />
    <glyph glyph-name="threesuperior" unicode="&#xb3;" horiz-adv-x="357" 
d="M169 302q-44 0 -81 15t-60 44l13 11q21 -29 55.5 -42t72.5 -13q61 0 97 28.5t36 74.5q0 48 -35.5 74.5t-92.5 26.5h-44v14h44q57 0 87.5 26t30.5 68t-31 67t-81 25q-43 0 -72 -16t-46 -39l-13 10q19 22 51 41t81 19q56 0 91.5 -29.5t35.5 -77.5q0 -38 -22 -64.5
t-64 -36.5q45 -10 70.5 -37t25.5 -71q0 -53 -40 -85.5t-109 -32.5z" />
    <glyph glyph-name="acute" unicode="&#xb4;" horiz-adv-x="511" 
d="M301 770h25l-130 -140h-20z" />
    <glyph glyph-name="mu" unicode="&#xb5;" horiz-adv-x="617" 
d="M78 500h16v-284q0 -46 17 -84.5t46 -66.5t68 -43.5t84 -15.5t84 15.5t68 43.5t45.5 66.5t16.5 84.5v284h16v-500h-15v148q-8 -33 -27.5 -61.5t-47.5 -50t-63.5 -34t-76.5 -12.5q-39 0 -73.5 11.5t-62.5 31t-48.5 46t-30.5 57.5v-366h-16v730z" />
    <glyph glyph-name="mu" unicode="&#x3bc;" horiz-adv-x="617" 
d="M78 500h16v-284q0 -46 17 -84.5t46 -66.5t68 -43.5t84 -15.5t84 15.5t68 43.5t45.5 66.5t16.5 84.5v284h16v-500h-15v148q-8 -33 -27.5 -61.5t-47.5 -50t-63.5 -34t-76.5 -12.5q-39 0 -73.5 11.5t-62.5 31t-48.5 46t-30.5 57.5v-366h-16v730z" />
    <glyph glyph-name="paragraph" unicode="&#xb6;" horiz-adv-x="519" 
d="M348 302h-91q-47 0 -86.5 16.5t-68.5 45.5t-45.5 68t-16.5 84t16.5 84t45.5 68t68.5 45.5t85.5 16.5h188v-730h-18v716h-60v-716h-18v302z" />
    <glyph glyph-name="periodcentered" unicode="&#xb7;" horiz-adv-x="168" 
d="M59 249q0 25 25 25t25 -25t-25 -25t-25 25z" />
    <glyph glyph-name="cedilla" unicode="&#xb8;" horiz-adv-x="511" 
d="M261 -226q-44 0 -74 14.5t-50 34.5l15 10q22 -20 45.5 -32t63.5 -12q48 0 77 19.5t29 49.5q0 26 -29 43.5t-80 17.5h-15v91h15v-78q57 0 92 -19.5t35 -54.5q0 -37 -33.5 -60.5t-90.5 -23.5z" />
    <glyph glyph-name="onesuperior" unicode="&#xb9;" horiz-adv-x="214" 
d="M114 308v378q-8 -21 -30 -35t-49 -14h-6v16h3q40 0 61 24.5t23 52.5h14v-422h-16z" />
    <glyph glyph-name="ordmasculine" unicode="&#xba;" horiz-adv-x="447" 
d="M223 435q-31 0 -58.5 12t-47.5 32t-32 47.5t-12 58.5t12 59t32 48t47.5 32t58.5 12t59 -12t48 -32t32 -48t12 -59t-12 -58.5t-32 -47.5t-48 -32t-59 -12zM223 451q28 0 52.5 10.5t42.5 28.5t28 42.5t10 52.5t-10 52.5t-28 43t-42.5 29t-52.5 10.5t-52 -10.5t-42 -29
t-28.5 -43t-10.5 -52.5t10.5 -52.5t28.5 -42.5t42 -28.5t52 -10.5z" />
    <glyph glyph-name="guillemotright" unicode="&#xbb;" horiz-adv-x="424" 
d="M212 143l125 106l-125 106v21l140 -119v-15l-140 -119v20zM72 143l125 106l-125 106v21l140 -119v-15l-140 -119v20z" />
    <glyph glyph-name="onequarter" unicode="&#xbc;" horiz-adv-x="665" 
d="M575 730h21l-527 -730h-21zM551 97h-227v15l227 310h16v-310h67v-15h-67v-97h-16v97zM551 112v284l-208 -284h208zM134 308v378q-8 -21 -30 -35t-49 -14h-6v16h3q40 0 61 24.5t23 52.5h14v-422h-16z" />
    <glyph glyph-name="onehalf" unicode="&#xbd;" horiz-adv-x="769" 
d="M575 730h21l-527 -730h-21zM459 19q0 24 11.5 45.5t30 40t41.5 35.5t47 34q23 16 44.5 32t38.5 33t27 36t10 40q0 44 -32 71t-83 27q-42 0 -73.5 -21t-47.5 -54l-15 8q18 36 53 59t83 23q60 0 95.5 -32t35.5 -81q0 -24 -11 -45t-28.5 -39.5t-40 -35.5t-45.5 -33t-45 -32
t-39.5 -33.5t-28.5 -36.5t-11 -41v-4h251v-15h-268v19zM134 308v378q-8 -21 -30 -35t-49 -14h-6v16h3q40 0 61 24.5t23 52.5h14v-422h-16z" />
    <glyph glyph-name="threequarters" unicode="&#xbe;" horiz-adv-x="812" 
d="M722 730h21l-527 -730h-21zM698 97h-227v15l227 310h16v-310h67v-15h-67v-97h-16v97zM698 112v284l-208 -284h208zM189 302q-44 0 -81 15t-60 44l13 11q21 -29 55.5 -42t72.5 -13q61 0 97 28.5t36 74.5q0 48 -35.5 74.5t-92.5 26.5h-44v14h44q57 0 87.5 26t30.5 68
t-31 67t-81 25q-43 0 -72 -16t-46 -39l-13 10q19 22 51 41t81 19q56 0 91.5 -29.5t35.5 -77.5q0 -38 -22 -64.5t-64 -36.5q45 -10 70.5 -37t25.5 -71q0 -53 -40 -85.5t-109 -32.5z" />
    <glyph glyph-name="questiondown" unicode="&#xbf;" horiz-adv-x="524" 
d="M258 -240q-42 0 -78.5 11.5t-63 32.5t-42 50.5t-15.5 65.5q0 49 15 79.5t37 53t48.5 42t48.5 46.5t37 67t15 103v37h17v-37q0 -64 -15 -105.5t-37 -70t-48.5 -48.5t-48.5 -42t-37 -50.5t-15 -74.5q0 -32 14 -58.5t39 -45.5t58 -29.5t71 -10.5q70 0 115.5 28t70.5 78
l15 -7q-25 -51 -74.5 -83t-126.5 -32zM268 453q-25 0 -25 25t25 25t25 -25t-25 -25z" />
    <glyph glyph-name="Agrave" unicode="&#xc0;" horiz-adv-x="728" 
d="M356 730h17l309 -730h-18l-103 243h-394l-103 -243h-18zM173 258h382l-191 450zM222 961h25l125 -140h-20z" />
    <glyph glyph-name="Aacute" unicode="&#xc1;" horiz-adv-x="728" 
d="M356 730h17l309 -730h-18l-103 243h-394l-103 -243h-18zM173 258h382l-191 450zM474 960h25l-130 -140h-20z" />
    <glyph glyph-name="Acircumflex" unicode="&#xc2;" horiz-adv-x="728" 
d="M356 730h17l309 -730h-18l-103 243h-394l-103 -243h-18zM173 258h382l-191 450zM356 950h15l119 -140h-21l-106 125l-106 -125h-20z" />
    <glyph glyph-name="Atilde" unicode="&#xc3;" horiz-adv-x="728" 
d="M356 730h17l309 -730h-18l-103 243h-394l-103 -243h-18zM173 258h382l-191 450zM175 823q0 38 23 61t59 23q25 0 48 -11.5t46 -25.5t46 -25.5t46 -11.5q31 0 50.5 16.5t19.5 54.5h16q0 -42 -23.5 -63.5t-63.5 -21.5q-27 0 -51 12t-47 26t-44.5 25t-42.5 11
q-27 0 -46.5 -17.5t-19.5 -52.5h-16z" />
    <glyph glyph-name="Adieresis" unicode="&#xc4;" horiz-adv-x="728" 
d="M356 730h17l309 -730h-18l-103 243h-394l-103 -243h-18zM173 258h382l-191 450zM277 863q0 11 7.5 18t18.5 7q25 0 25 -25q0 -11 -7.5 -18t-18.5 -7q-25 0 -25 25zM396 863q0 25 25 25t25 -25t-25 -25t-25 25z" />
    <glyph glyph-name="Aring" unicode="&#xc5;" horiz-adv-x="728" 
d="M350 716q-29 5 -48.5 28.5t-19.5 53.5q0 36 24.5 60.5t58.5 24.5q36 0 60.5 -24.5t24.5 -60.5q0 -31 -20 -54t-51 -28l303 -716h-18l-103 243h-394l-103 -243h-18zM173 258h382l-191 450zM297 798q0 -26 18 -46t44 -22h12q27 2 45.5 22t18.5 46q0 29 -20.5 49.5
t-49.5 20.5q-28 0 -48 -20.5t-20 -49.5z" />
    <glyph glyph-name="AE" unicode="&#xc6;" horiz-adv-x="1092" 
d="M471 730h532v-16h-510l71 -341h439v-15h-436l70 -342h366v-16h-378l-49 235h-369l-133 -235h-20zM216 250h357l-96 460z" />
    <glyph glyph-name="Ccedilla" unicode="&#xc7;" horiz-adv-x="846" 
d="M464 -231q-44 0 -74 14.5t-50 34.5l15 10q22 -20 45.5 -32t63.5 -12q48 0 77 19.5t29 49.5q0 26 -29 43.5t-80 17.5h-15v76q-77 1 -145 30.5t-118.5 80.5t-79.5 119t-29 145q0 78 29.5 146t80.5 119t119 80.5t146 29.5q50 0 96.5 -12.5t87 -36t74 -56t58.5 -71.5l-14 -8
q-48 75 -126 122t-176 47q-74 0 -139 -28.5t-113.5 -77.5t-76.5 -114.5t-28 -139.5t28 -139.5t76.5 -114.5t113.5 -77t139 -28q49 0 95.5 13t87 36t74 56t56.5 73l15 -7q-24 -41 -57.5 -75t-74 -58.5t-87.5 -38.5t-97 -15v-63q57 0 92 -19.5t35 -54.5q0 -37 -33.5 -60.5
t-90.5 -23.5z" />
    <glyph glyph-name="Egrave" unicode="&#xc8;" horiz-adv-x="652" 
d="M98 730h473v-16h-456v-341h456v-15h-456v-342h456v-16h-473v730zM213 961h25l125 -140h-20z" />
    <glyph glyph-name="Eacute" unicode="&#xc9;" horiz-adv-x="652" 
d="M98 730h473v-16h-456v-341h456v-15h-456v-342h456v-16h-473v730zM455 960h25l-130 -140h-20z" />
    <glyph glyph-name="Ecircumflex" unicode="&#xca;" horiz-adv-x="652" 
d="M98 730h473v-16h-456v-341h456v-15h-456v-342h456v-16h-473v730zM329 950h15l119 -140h-21l-106 125l-106 -125h-20z" />
    <glyph glyph-name="Edieresis" unicode="&#xcb;" horiz-adv-x="652" 
d="M98 730h473v-16h-456v-341h456v-15h-456v-342h456v-16h-473v730zM260 863q0 11 7.5 18t18.5 7q25 0 25 -25q0 -11 -7.5 -18t-18.5 -7q-25 0 -25 25zM379 863q0 25 25 25t25 -25t-25 -25t-25 25z" />
    <glyph glyph-name="Igrave" unicode="&#xcc;" horiz-adv-x="237" 
d="M110 730h17v-730h-17v730zM-25 961h25l125 -140h-20z" />
    <glyph glyph-name="Iacute" unicode="&#xcd;" horiz-adv-x="237" 
d="M110 730h17v-730h-17v730zM223 960h25l-130 -140h-20z" />
    <glyph glyph-name="Icircumflex" unicode="&#xce;" horiz-adv-x="237" 
d="M110 730h17v-730h-17v730zM109 950h15l119 -140h-21l-106 125l-106 -125h-20z" />
    <glyph glyph-name="Idieresis" unicode="&#xcf;" horiz-adv-x="237" 
d="M110 730h17v-730h-17v730zM30 863q0 11 7.5 18t18.5 7q25 0 25 -25q0 -11 -7.5 -18t-18.5 -7q-25 0 -25 25zM149 863q0 25 25 25t25 -25t-25 -25t-25 25z" />
    <glyph glyph-name="Eth" unicode="&#xd0;" horiz-adv-x="762" 
d="M37 383h71v347h205q78 0 146 -28t119 -77.5t80.5 -116t29.5 -144.5t-29.5 -144.5t-80.5 -115t-119 -76.5t-146 -28h-205v368h-71v15zM125 368v-352h188q74 0 139 26.5t113.5 73.5t76.5 110.5t28 137.5t-28 138t-76.5 111t-113.5 74t-139 27h-188v-331h265v-15h-265z" />
    <glyph glyph-name="Ntilde" unicode="&#xd1;" horiz-adv-x="760" 
d="M98 730h17l530 -704v704h17v-730h-18l-529 702v-702h-17v730zM501 949h25l-130 -140h-20z" />
    <glyph glyph-name="Ograve" unicode="&#xd2;" horiz-adv-x="898" 
d="M449 -10q-78 0 -146 29.5t-119 80.5t-80.5 119t-29.5 146t29.5 146t80.5 119t119 80.5t146 29.5t146 -29.5t119 -80.5t80.5 -119t29.5 -146t-29.5 -146t-80.5 -119t-119 -80.5t-146 -29.5zM449 6q74 0 139 28t113.5 77t76.5 114.5t28 139.5t-28 139.5t-76.5 114
t-113.5 77t-139 28.5t-139 -28.5t-113.5 -77t-76.5 -114t-28 -139.5t28 -139.5t76.5 -114.5t113.5 -77t139 -28zM306 966h25l125 -140h-20z" />
    <glyph glyph-name="Oacute" unicode="&#xd3;" horiz-adv-x="898" 
d="M449 -10q-78 0 -146 29.5t-119 80.5t-80.5 119t-29.5 146t29.5 146t80.5 119t119 80.5t146 29.5t146 -29.5t119 -80.5t80.5 -119t29.5 -146t-29.5 -146t-80.5 -119t-119 -80.5t-146 -29.5zM449 6q74 0 139 28t113.5 77t76.5 114.5t28 139.5t-28 139.5t-76.5 114
t-113.5 77t-139 28.5t-139 -28.5t-113.5 -77t-76.5 -114t-28 -139.5t28 -139.5t76.5 -114.5t113.5 -77t139 -28zM259 828q0 38 23 61t59 23q25 0 48 -11.5t46 -25.5t46 -25.5t46 -11.5q31 0 50.5 16.5t19.5 54.5h16q0 -42 -23.5 -63.5t-63.5 -21.5q-27 0 -51 12t-47 26
t-44.5 25t-42.5 11q-27 0 -46.5 -17.5t-19.5 -52.5h-16z" />
    <glyph glyph-name="Ocircumflex" unicode="&#xd4;" horiz-adv-x="898" 
d="M449 -10q-78 0 -146 29.5t-119 80.5t-80.5 119t-29.5 146t29.5 146t80.5 119t119 80.5t146 29.5t146 -29.5t119 -80.5t80.5 -119t29.5 -146t-29.5 -146t-80.5 -119t-119 -80.5t-146 -29.5zM449 6q74 0 139 28t113.5 77t76.5 114.5t28 139.5t-28 139.5t-76.5 114
t-113.5 77t-139 28.5t-139 -28.5t-113.5 -77t-76.5 -114t-28 -139.5t28 -139.5t76.5 -114.5t113.5 -77t139 -28zM440 955h15l119 -140h-21l-106 125l-106 -125h-20z" />
    <glyph glyph-name="Otilde" unicode="&#xd5;" horiz-adv-x="898" 
d="M449 -10q-78 0 -146 29.5t-119 80.5t-80.5 119t-29.5 146t29.5 146t80.5 119t119 80.5t146 29.5t146 -29.5t119 -80.5t80.5 -119t29.5 -146t-29.5 -146t-80.5 -119t-119 -80.5t-146 -29.5zM449 6q74 0 139 28t113.5 77t76.5 114.5t28 139.5t-28 139.5t-76.5 114
t-113.5 77t-139 28.5t-139 -28.5t-113.5 -77t-76.5 -114t-28 -139.5t28 -139.5t76.5 -114.5t113.5 -77t139 -28zM259 828q0 38 23 61t59 23q25 0 48 -11.5t46 -25.5t46 -25.5t46 -11.5q31 0 50.5 16.5t19.5 54.5h16q0 -42 -23.5 -63.5t-63.5 -21.5q-27 0 -51 12t-47 26
t-44.5 25t-42.5 11q-27 0 -46.5 -17.5t-19.5 -52.5h-16z" />
    <glyph glyph-name="Odieresis" unicode="&#xd6;" horiz-adv-x="898" 
d="M449 -10q-78 0 -146 29.5t-119 80.5t-80.5 119t-29.5 146t29.5 146t80.5 119t119 80.5t146 29.5t146 -29.5t119 -80.5t80.5 -119t29.5 -146t-29.5 -146t-80.5 -119t-119 -80.5t-146 -29.5zM449 6q74 0 139 28t113.5 77t76.5 114.5t28 139.5t-28 139.5t-76.5 114
t-113.5 77t-139 28.5t-139 -28.5t-113.5 -77t-76.5 -114t-28 -139.5t28 -139.5t76.5 -114.5t113.5 -77t139 -28zM361 868q0 11 7.5 18t18.5 7q25 0 25 -25q0 -11 -7.5 -18t-18.5 -7q-25 0 -25 25zM480 868q0 25 25 25t25 -25t-25 -25t-25 25z" />
    <glyph glyph-name="multiply" unicode="&#xd7;" horiz-adv-x="480" 
d="M90 225l140 140l-140 140l11 11l140 -140l139 139l11 -11l-139 -139l139 -139l-11 -11l-139 139l-140 -140z" />
    <glyph glyph-name="Oslash" unicode="&#xd8;" horiz-adv-x="898" 
d="M449 -10q-60 0 -114.5 17.5t-99.5 49.5l-69 -94l-14 10l69 94q-67 51 -107 128.5t-40 169.5q0 78 29.5 146t80.5 119t119 80.5t146 29.5q61 0 116 -18.5t102 -51.5l68 92l13 -8l-69 -93q66 -52 105.5 -128.5t39.5 -167.5q0 -78 -29.5 -146t-80.5 -119t-119 -80.5
t-146 -29.5zM92 365q0 -88 37.5 -161.5t101.5 -123.5l426 576q-45 32 -97 50t-111 18q-74 0 -139 -28.5t-113.5 -77t-76.5 -114t-28 -139.5zM449 6q74 0 139 28t113.5 77t76.5 114.5t28 139.5q0 86 -37 159t-100 123l-424 -577q44 -30 95.5 -47t108.5 -17z" />
    <glyph glyph-name="Ugrave" unicode="&#xd9;" horiz-adv-x="701" 
d="M350 -10q-58 0 -105.5 19t-81.5 52.5t-52.5 81t-18.5 104.5v483h17v-482q0 -54 17.5 -99t49.5 -76.5t76.5 -49t97.5 -17.5t97.5 17.5t76.5 49t50 76t18 99.5v482h17v-482q0 -57 -18.5 -104.5t-52.5 -81.5t-82 -53t-106 -19zM205 948h25l125 -140h-20z" />
    <glyph glyph-name="Uacute" unicode="&#xda;" horiz-adv-x="701" 
d="M350 -10q-58 0 -105.5 19t-81.5 52.5t-52.5 81t-18.5 104.5v483h17v-482q0 -54 17.5 -99t49.5 -76.5t76.5 -49t97.5 -17.5t97.5 17.5t76.5 49t50 76t18 99.5v482h17v-482q0 -57 -18.5 -104.5t-52.5 -81.5t-82 -53t-106 -19zM451 949h25l-130 -140h-20z" />
    <glyph glyph-name="Ucircumflex" unicode="&#xdb;" horiz-adv-x="701" 
d="M350 -10q-58 0 -105.5 19t-81.5 52.5t-52.5 81t-18.5 104.5v483h17v-482q0 -54 17.5 -99t49.5 -76.5t76.5 -49t97.5 -17.5t97.5 17.5t76.5 49t50 76t18 99.5v482h17v-482q0 -57 -18.5 -104.5t-52.5 -81.5t-82 -53t-106 -19zM339 939h15l119 -140h-21l-106 125l-106 -125
h-20z" />
    <glyph glyph-name="Udieresis" unicode="&#xdc;" horiz-adv-x="701" 
d="M350 -10q-58 0 -105.5 19t-81.5 52.5t-52.5 81t-18.5 104.5v483h17v-482q0 -54 17.5 -99t49.5 -76.5t76.5 -49t97.5 -17.5t97.5 17.5t76.5 49t50 76t18 99.5v482h17v-482q0 -57 -18.5 -104.5t-52.5 -81.5t-82 -53t-106 -19zM267 838q0 11 7.5 18t18.5 7q25 0 25 -25
q0 -11 -7.5 -18t-18.5 -7q-25 0 -25 25zM386 838q0 25 25 25t25 -25t-25 -25t-25 25z" />
    <glyph glyph-name="Yacute" unicode="&#xdd;" horiz-adv-x="655" 
d="M320 273l-275 457h21l263 -439l261 439h20l-273 -456v-274h-17v273zM437 950h25l-130 -140h-20z" />
    <glyph glyph-name="Thorn" unicode="&#xde;" horiz-adv-x="607" 
d="M91 730h17v-154h179q54 0 97 -15.5t73 -43t46 -65.5t16 -83t-15.5 -83.5t-45.5 -66t-73 -43.5t-98 -16h-179v-160h-17v730zM108 560v-384h179q50 0 90 14.5t67.5 40.5t42.5 61t15 77t-15 77t-42.5 60.5t-67.5 39.5t-90 14h-179z" />
    <glyph glyph-name="germandbls" unicode="&#xdf;" horiz-adv-x="586" 
d="M-62 -233q78 0 111.5 45.5t33.5 123.5v669q0 42 15.5 78t42 62t62 40.5t76.5 14.5q42 0 78 -15t62.5 -41.5t41 -62t14.5 -76.5q0 -35 -10.5 -65t-28 -53.5t-41.5 -40.5t-51 -25q87 -15 135.5 -72t48.5 -137q0 -47 -16.5 -87t-45 -69t-67.5 -45.5t-85 -16.5q-36 0 -66 8
t-53 22l8 14q23 -14 51 -22t60 -8q42 0 78 16t62.5 43.5t42 65t15.5 79.5q0 41 -15.5 77.5t-43.5 63.5t-67 42.5t-87 15.5h-16v17h16q28 0 56.5 13t51.5 36.5t37 56.5t14 73q0 36 -13.5 68.5t-37.5 57.5t-57 39.5t-71 14.5q-36 0 -68 -13.5t-57 -37.5t-39.5 -57t-14.5 -72
v-670q0 -91 -38.5 -138t-119.5 -47h-4v15z" />
    <glyph glyph-name="agrave" unicode="&#xe0;" horiz-adv-x="620" 
d="M250 -10q-52 0 -90 12t-62.5 32.5t-36 48t-11.5 58.5q0 42 18.5 73t52 51.5t80 30.5t103.5 10h221v46q0 39 -13.5 72.5t-40 58t-66.5 38.5t-93 14q-42 0 -75.5 -6.5t-60.5 -19t-49.5 -31t-42.5 -42.5l-14 13q22 24 47 43t54 32t63.5 19.5t77.5 6.5q57 0 99.5 -15
t71 -41.5t43 -62.5t14.5 -79v-352h-15v160q-17 -37 -44.5 -68.5t-63.5 -54t-78.5 -35t-88.5 -12.5zM250 5q46 0 89 13.5t79.5 38t64 58t42.5 72.5v105h-220q-53 0 -97 -9.5t-75.5 -28t-48.5 -47t-17 -66.5q0 -27 10.5 -51.5t33 -43t57 -30t82.5 -11.5zM169 777h25l125 -140
h-20z" />
    <glyph glyph-name="aacute" unicode="&#xe1;" horiz-adv-x="620" 
d="M250 -10q-52 0 -90 12t-62.5 32.5t-36 48t-11.5 58.5q0 42 18.5 73t52 51.5t80 30.5t103.5 10h221v46q0 39 -13.5 72.5t-40 58t-66.5 38.5t-93 14q-42 0 -75.5 -6.5t-60.5 -19t-49.5 -31t-42.5 -42.5l-14 13q22 24 47 43t54 32t63.5 19.5t77.5 6.5q57 0 99.5 -15
t71 -41.5t43 -62.5t14.5 -79v-352h-15v160q-17 -37 -44.5 -68.5t-63.5 -54t-78.5 -35t-88.5 -12.5zM250 5q46 0 89 13.5t79.5 38t64 58t42.5 72.5v105h-220q-53 0 -97 -9.5t-75.5 -28t-48.5 -47t-17 -66.5q0 -27 10.5 -51.5t33 -43t57 -30t82.5 -11.5zM417 776h25l-130 -140
h-20z" />
    <glyph glyph-name="acircumflex" unicode="&#xe2;" horiz-adv-x="620" 
d="M250 -10q-52 0 -90 12t-62.5 32.5t-36 48t-11.5 58.5q0 42 18.5 73t52 51.5t80 30.5t103.5 10h221v46q0 39 -13.5 72.5t-40 58t-66.5 38.5t-93 14q-42 0 -75.5 -6.5t-60.5 -19t-49.5 -31t-42.5 -42.5l-14 13q22 24 47 43t54 32t63.5 19.5t77.5 6.5q57 0 99.5 -15
t71 -41.5t43 -62.5t14.5 -79v-352h-15v160q-17 -37 -44.5 -68.5t-63.5 -54t-78.5 -35t-88.5 -12.5zM250 5q46 0 89 13.5t79.5 38t64 58t42.5 72.5v105h-220q-53 0 -97 -9.5t-75.5 -28t-48.5 -47t-17 -66.5q0 -27 10.5 -51.5t33 -43t57 -30t82.5 -11.5zM303 766h15l119 -140
h-21l-106 125l-106 -125h-20z" />
    <glyph glyph-name="atilde" unicode="&#xe3;" horiz-adv-x="620" 
d="M250 -10q-52 0 -90 12t-62.5 32.5t-36 48t-11.5 58.5q0 42 18.5 73t52 51.5t80 30.5t103.5 10h221v46q0 39 -13.5 72.5t-40 58t-66.5 38.5t-93 14q-42 0 -75.5 -6.5t-60.5 -19t-49.5 -31t-42.5 -42.5l-14 13q22 24 47 43t54 32t63.5 19.5t77.5 6.5q57 0 99.5 -15
t71 -41.5t43 -62.5t14.5 -79v-352h-15v160q-17 -37 -44.5 -68.5t-63.5 -54t-78.5 -35t-88.5 -12.5zM250 5q46 0 89 13.5t79.5 38t64 58t42.5 72.5v105h-220q-53 0 -97 -9.5t-75.5 -28t-48.5 -47t-17 -66.5q0 -27 10.5 -51.5t33 -43t57 -30t82.5 -11.5zM122 639q0 38 23 61
t59 23q25 0 48 -11.5t46 -25.5t46 -25.5t46 -11.5q31 0 50.5 16.5t19.5 54.5h16q0 -42 -23.5 -63.5t-63.5 -21.5q-27 0 -51 12t-47 26t-44.5 25t-42.5 11q-27 0 -46.5 -17.5t-19.5 -52.5h-16z" />
    <glyph glyph-name="adieresis" unicode="&#xe4;" horiz-adv-x="620" 
d="M250 -10q-52 0 -90 12t-62.5 32.5t-36 48t-11.5 58.5q0 42 18.5 73t52 51.5t80 30.5t103.5 10h221v46q0 39 -13.5 72.5t-40 58t-66.5 38.5t-93 14q-42 0 -75.5 -6.5t-60.5 -19t-49.5 -31t-42.5 -42.5l-14 13q22 24 47 43t54 32t63.5 19.5t77.5 6.5q57 0 99.5 -15
t71 -41.5t43 -62.5t14.5 -79v-352h-15v160q-17 -37 -44.5 -68.5t-63.5 -54t-78.5 -35t-88.5 -12.5zM250 5q46 0 89 13.5t79.5 38t64 58t42.5 72.5v105h-220q-53 0 -97 -9.5t-75.5 -28t-48.5 -47t-17 -66.5q0 -27 10.5 -51.5t33 -43t57 -30t82.5 -11.5zM224 674q0 11 7.5 18
t18.5 7q25 0 25 -25q0 -11 -7.5 -18t-18.5 -7q-25 0 -25 25zM343 674q0 25 25 25t25 -25t-25 -25t-25 25z" />
    <glyph glyph-name="aring" unicode="&#xe5;" horiz-adv-x="620" 
d="M250 -10q-52 0 -90 12t-62.5 32.5t-36 48t-11.5 58.5q0 42 18.5 73t52 51.5t80 30.5t103.5 10h221v46q0 39 -13.5 72.5t-40 58t-66.5 38.5t-93 14q-42 0 -75.5 -6.5t-60.5 -19t-49.5 -31t-42.5 -42.5l-14 13q22 24 47 43t54 32t63.5 19.5t77.5 6.5q57 0 99.5 -15
t71 -41.5t43 -62.5t14.5 -79v-352h-15v160q-17 -37 -44.5 -68.5t-63.5 -54t-78.5 -35t-88.5 -12.5zM250 5q46 0 89 13.5t79.5 38t64 58t42.5 72.5v105h-220q-53 0 -97 -9.5t-75.5 -28t-48.5 -47t-17 -66.5q0 -27 10.5 -51.5t33 -43t57 -30t82.5 -11.5zM312 626
q-34 0 -58.5 24.5t-24.5 58.5q0 36 24.5 60.5t58.5 24.5q36 0 60.5 -24.5t24.5 -60.5q0 -34 -24.5 -58.5t-60.5 -24.5zM312 641q29 0 49.5 20t20.5 48q0 29 -20.5 49.5t-49.5 20.5q-28 0 -48 -20.5t-20 -49.5q0 -28 20 -48t48 -20z" />
    <glyph glyph-name="ae" unicode="&#xe6;" horiz-adv-x="1132" 
d="M249 -10q-104 0 -152.5 39.5t-48.5 101.5q0 42 18.5 71.5t52 48t80 27t103.5 8.5h222v61q0 39 -13.5 73.5t-41 60t-69 40.5t-97.5 15q-39 0 -70.5 -6.5t-58 -19t-48.5 -31.5t-42 -43l-14 13q45 49 99 75.5t134 26.5q59 0 103 -16t73 -43.5t43.5 -64.5t14.5 -79
q12 44 36.5 81t59 64t78.5 42.5t94 15.5q62 0 112 -21.5t85.5 -59t54.5 -88t19 -107.5v-3h-538v-2q0 -56 17.5 -104.5t51.5 -84.5t83.5 -56.5t113.5 -20.5q82 0 143.5 34.5t95.5 103.5l15 -8q-36 -72 -100.5 -108.5t-152.5 -36.5q-52 0 -95 13t-76 36t-57 54.5t-37 69.5
q-42 -81 -117.5 -126.5t-173.5 -45.5zM805 536q-55 0 -102.5 -19.5t-83 -53.5t-57 -79.5t-24.5 -97.5h522q-2 52 -20.5 97.5t-51.5 79.5t-79.5 53.5t-103.5 19.5zM249 5q47 0 90.5 13.5t80.5 37t66 56t49 70.5q-11 39 -11 88v2h-221q-53 0 -96.5 -7.5t-75 -24.5t-49 -44
t-17.5 -65q0 -27 11 -50t33.5 -40t57 -26.5t82.5 -9.5z" />
    <glyph glyph-name="ccedilla" unicode="&#xe7;" horiz-adv-x="641" 
d="M349 -232q-44 0 -74 14.5t-50 34.5l15 10q22 -20 45.5 -32t63.5 -12q48 0 77 19.5t29 49.5q0 26 -29 43.5t-80 17.5h-15v76q-61 1 -112 23.5t-87.5 60.5t-56.5 88.5t-20 108.5t22 109.5t60 89.5t89.5 60t110.5 22q83 0 145 -38.5t98 -104.5l-14 -9q-34 63 -92.5 100
t-136.5 37q-56 0 -104.5 -21t-84 -57t-56 -84.5t-20.5 -103.5q0 -54 19 -102t53 -84t81.5 -57.5t105.5 -22.5h8q43 0 79 11t65.5 30t52 45.5t39.5 57.5l14 -9q-35 -64 -95.5 -106t-147.5 -44v-63q57 0 92 -19.5t35 -54.5q0 -37 -33.5 -60.5t-90.5 -23.5z" />
    <glyph glyph-name="egrave" unicode="&#xe8;" horiz-adv-x="664" 
d="M337 -11q-69 0 -122 22t-88.5 60t-53.5 89t-18 110q0 58 21 109.5t58.5 89.5t89 60t112.5 22q62 0 112.5 -22t86 -59.5t54.5 -88.5t19 -109v-9h-537q1 -54 19 -101.5t51.5 -82.5t82.5 -55t112 -20q82 0 143.5 34.5t95.5 103.5l15 -8q-36 -72 -100.5 -108.5t-152.5 -36.5z
M336 536q-56 0 -104 -20t-83.5 -55.5t-56 -82.5t-21.5 -101h521q-1 54 -19 101t-51.5 82t-80.5 55.5t-105 20.5zM193 777h25l125 -140h-20z" />
    <glyph glyph-name="eacute" unicode="&#xe9;" horiz-adv-x="664" 
d="M337 -11q-69 0 -122 22t-88.5 60t-53.5 89t-18 110q0 58 21 109.5t58.5 89.5t89 60t112.5 22q62 0 112.5 -22t86 -59.5t54.5 -88.5t19 -109v-9h-537q1 -54 19 -101.5t51.5 -82.5t82.5 -55t112 -20q82 0 143.5 34.5t95.5 103.5l15 -8q-36 -72 -100.5 -108.5t-152.5 -36.5z
M336 536q-56 0 -104 -20t-83.5 -55.5t-56 -82.5t-21.5 -101h521q-1 54 -19 101t-51.5 82t-80.5 55.5t-105 20.5zM441 776h25l-130 -140h-20z" />
    <glyph glyph-name="ecircumflex" unicode="&#xea;" horiz-adv-x="664" 
d="M337 -11q-69 0 -122 22t-88.5 60t-53.5 89t-18 110q0 58 21 109.5t58.5 89.5t89 60t112.5 22q62 0 112.5 -22t86 -59.5t54.5 -88.5t19 -109v-9h-537q1 -54 19 -101.5t51.5 -82.5t82.5 -55t112 -20q82 0 143.5 34.5t95.5 103.5l15 -8q-36 -72 -100.5 -108.5t-152.5 -36.5z
M336 536q-56 0 -104 -20t-83.5 -55.5t-56 -82.5t-21.5 -101h521q-1 54 -19 101t-51.5 82t-80.5 55.5t-105 20.5zM327 766h15l119 -140h-21l-106 125l-106 -125h-20z" />
    <glyph glyph-name="edieresis" unicode="&#xeb;" horiz-adv-x="664" 
d="M337 -11q-69 0 -122 22t-88.5 60t-53.5 89t-18 110q0 58 21 109.5t58.5 89.5t89 60t112.5 22q62 0 112.5 -22t86 -59.5t54.5 -88.5t19 -109v-9h-537q1 -54 19 -101.5t51.5 -82.5t82.5 -55t112 -20q82 0 143.5 34.5t95.5 103.5l15 -8q-36 -72 -100.5 -108.5t-152.5 -36.5z
M336 536q-56 0 -104 -20t-83.5 -55.5t-56 -82.5t-21.5 -101h521q-1 54 -19 101t-51.5 82t-80.5 55.5t-105 20.5zM248 679q0 11 7.5 18t18.5 7q25 0 25 -25q0 -11 -7.5 -18t-18.5 -7q-25 0 -25 25zM367 679q0 25 25 25t25 -25t-25 -25t-25 25z" />
    <glyph glyph-name="igrave" unicode="&#xec;" horiz-adv-x="188" 
d="M86 540h16v-540h-16v540zM-49 771h25l125 -140h-20z" />
    <glyph glyph-name="iacute" unicode="&#xed;" horiz-adv-x="188" 
d="M86 540h16v-540h-16v540zM213 770h25l-130 -140h-20z" />
    <glyph glyph-name="icircumflex" unicode="&#xee;" horiz-adv-x="188" 
d="M86 540h16v-540h-16v540zM85 760h15l119 -140h-21l-106 125l-106 -125h-20z" />
    <glyph glyph-name="idieresis" unicode="&#xef;" horiz-adv-x="188" 
d="M86 540h16v-540h-16v540zM6 673q0 11 7.5 18t18.5 7q25 0 25 -25q0 -11 -7.5 -18t-18.5 -7q-25 0 -25 25zM125 673q0 25 25 25t25 -25t-25 -25t-25 25z" />
    <glyph glyph-name="eth" unicode="&#xf0;" horiz-adv-x="672" 
d="M346 701q-25 22 -53 43t-58 44h25q27 -20 51.5 -40t47.5 -40l153 88l9 -10l-151 -87q123 -108 185 -213.5t62 -215.5q0 -59 -22 -110t-60 -89t-89.5 -60t-109.5 -22t-109 22t-89.5 60t-60.5 89t-22 110q0 58 22 109.5t60.5 89.5t89.5 60t109 22q79 0 142 -39t98 -104
q-52 138 -219 284l-149 -85l-8 10zM336 4q55 0 103 21t83.5 57t56 84.5t20.5 103.5t-20.5 103.5t-56 84.5t-83.5 57t-103 21t-103 -21t-84 -57t-56.5 -84.5t-20.5 -103.5t20.5 -103.5t56.5 -84.5t84 -57t103 -21z" />
    <glyph glyph-name="ntilde" unicode="&#xf1;" horiz-adv-x="660" 
d="M82 540h14v-169q7 37 28 69.5t52.5 57t71.5 39t85 14.5q54 0 99.5 -17t78 -48.5t51 -77.5t18.5 -103v-305h-16v306q0 52 -16.5 94.5t-47 72.5t-73 46.5t-94.5 16.5q-48 0 -91 -17t-75 -48t-50.5 -73t-18.5 -91v-307h-16v540zM142 637q0 38 23 61t59 23q25 0 48 -11.5
t46 -25.5t46 -25.5t46 -11.5q31 0 50.5 16.5t19.5 54.5h16q0 -42 -23.5 -63.5t-63.5 -21.5q-27 0 -51 12t-47 26t-44.5 25t-42.5 11q-27 0 -46.5 -17.5t-19.5 -52.5h-16z" />
    <glyph glyph-name="ograve" unicode="&#xf2;" horiz-adv-x="672" 
d="M336 -11q-59 0 -110 22t-89 60t-60 89t-22 110q0 58 22 109.5t60.5 89.5t89.5 60t109 22t109.5 -22t89.5 -60t60 -89.5t22 -109.5q0 -59 -22 -110t-60 -89t-89.5 -60t-109.5 -22zM336 4q55 0 103 20.5t84 56.5t56.5 84.5t20.5 104.5q0 55 -20.5 103.5t-56.5 84.5t-84 57
t-103 21t-103 -21t-84 -57t-56.5 -84.5t-20.5 -103.5q0 -56 20.5 -104.5t56 -84.5t83.5 -56.5t104 -20.5zM192 777h25l125 -140h-20z" />
    <glyph glyph-name="oacute" unicode="&#xf3;" horiz-adv-x="672" 
d="M336 -11q-59 0 -110 22t-89 60t-60 89t-22 110q0 58 22 109.5t60.5 89.5t89.5 60t109 22t109.5 -22t89.5 -60t60 -89.5t22 -109.5q0 -59 -22 -110t-60 -89t-89.5 -60t-109.5 -22zM336 4q55 0 103 20.5t84 56.5t56.5 84.5t20.5 104.5q0 55 -20.5 103.5t-56.5 84.5t-84 57
t-103 21t-103 -21t-84 -57t-56.5 -84.5t-20.5 -103.5q0 -56 20.5 -104.5t56 -84.5t83.5 -56.5t104 -20.5zM440 776h25l-130 -140h-20z" />
    <glyph glyph-name="ocircumflex" unicode="&#xf4;" horiz-adv-x="672" 
d="M336 -11q-59 0 -110 22t-89 60t-60 89t-22 110q0 58 22 109.5t60.5 89.5t89.5 60t109 22t109.5 -22t89.5 -60t60 -89.5t22 -109.5q0 -59 -22 -110t-60 -89t-89.5 -60t-109.5 -22zM336 4q55 0 103 20.5t84 56.5t56.5 84.5t20.5 104.5q0 55 -20.5 103.5t-56.5 84.5t-84 57
t-103 21t-103 -21t-84 -57t-56.5 -84.5t-20.5 -103.5q0 -56 20.5 -104.5t56 -84.5t83.5 -56.5t104 -20.5zM326 766h15l119 -140h-21l-106 125l-106 -125h-20z" />
    <glyph glyph-name="otilde" unicode="&#xf5;" horiz-adv-x="672" 
d="M336 -11q-59 0 -110 22t-89 60t-60 89t-22 110q0 58 22 109.5t60.5 89.5t89.5 60t109 22t109.5 -22t89.5 -60t60 -89.5t22 -109.5q0 -59 -22 -110t-60 -89t-89.5 -60t-109.5 -22zM336 4q55 0 103 20.5t84 56.5t56.5 84.5t20.5 104.5q0 55 -20.5 103.5t-56.5 84.5t-84 57
t-103 21t-103 -21t-84 -57t-56.5 -84.5t-20.5 -103.5q0 -56 20.5 -104.5t56 -84.5t83.5 -56.5t104 -20.5zM145 639q0 38 23 61t59 23q25 0 48 -11.5t46 -25.5t46 -25.5t46 -11.5q31 0 50.5 16.5t19.5 54.5h16q0 -42 -23.5 -63.5t-63.5 -21.5q-27 0 -51 12t-47 26t-44.5 25
t-42.5 11q-27 0 -46.5 -17.5t-19.5 -52.5h-16z" />
    <glyph glyph-name="odieresis" unicode="&#xf6;" horiz-adv-x="672" 
d="M336 -11q-59 0 -110 22t-89 60t-60 89t-22 110q0 58 22 109.5t60.5 89.5t89.5 60t109 22t109.5 -22t89.5 -60t60 -89.5t22 -109.5q0 -59 -22 -110t-60 -89t-89.5 -60t-109.5 -22zM336 4q55 0 103 20.5t84 56.5t56.5 84.5t20.5 104.5q0 55 -20.5 103.5t-56.5 84.5t-84 57
t-103 21t-103 -21t-84 -57t-56.5 -84.5t-20.5 -103.5q0 -56 20.5 -104.5t56 -84.5t83.5 -56.5t104 -20.5zM247 679q0 11 7.5 18t18.5 7q25 0 25 -25q0 -11 -7.5 -18t-18.5 -7q-25 0 -25 25zM366 679q0 25 25 25t25 -25t-25 -25t-25 25z" />
    <glyph glyph-name="divide" unicode="&#xf7;" horiz-adv-x="480" 
d="M55 373h370v-16h-370v16zM215 534q0 25 25 25t25 -25t-25 -25t-25 25zM215 194q0 25 25 25t25 -25t-25 -25t-25 25z" />
    <glyph glyph-name="oslash" unicode="&#xf8;" horiz-adv-x="672" 
d="M164 47q-50 38 -79.5 96t-29.5 127q0 58 22 109.5t60.5 89.5t89.5 60t109 22q45 0 84.5 -13t73.5 -36l31 42l12 -9l-30 -42q51 -38 80.5 -96t29.5 -127q0 -59 -22 -110t-60 -89t-89.5 -60t-109.5 -22q-45 0 -85 13t-74 36l-31 -43l-13 9zM72 270q0 -65 27 -119.5
t74 -90.5l312 429q-32 23 -69.5 35t-79.5 12q-55 0 -103 -21t-84 -57t-56.5 -84.5t-20.5 -103.5zM336 4q55 0 103 21t83.5 57t56 84.5t20.5 103.5q0 64 -27.5 119t-74.5 91l-311 -430q32 -22 70 -34t80 -12z" />
    <glyph glyph-name="ugrave" unicode="&#xf9;" 
d="M315 -11q-54 0 -97.5 16.5t-74.5 47.5t-48 76t-17 102v309h16v-310q0 -105 58 -165.5t163 -60.5q51 0 92.5 18t71 50t46 74.5t16.5 92.5v301h15v-540h-14v166q-8 -36 -28 -68.5t-49 -56.5t-67 -38t-83 -14zM177 760h25l125 -140h-20z" />
    <glyph glyph-name="uacute" unicode="&#xfa;" 
d="M315 -11q-54 0 -97.5 16.5t-74.5 47.5t-48 76t-17 102v309h16v-310q0 -105 58 -165.5t163 -60.5q51 0 92.5 18t71 50t46 74.5t16.5 92.5v301h15v-540h-14v166q-8 -36 -28 -68.5t-49 -56.5t-67 -38t-83 -14zM425 759h25l-130 -140h-20z" />
    <glyph glyph-name="ucircumflex" unicode="&#xfb;" 
d="M315 -11q-54 0 -97.5 16.5t-74.5 47.5t-48 76t-17 102v309h16v-310q0 -105 58 -165.5t163 -60.5q51 0 92.5 18t71 50t46 74.5t16.5 92.5v301h15v-540h-14v166q-8 -36 -28 -68.5t-49 -56.5t-67 -38t-83 -14zM311 749h15l119 -140h-21l-106 125l-106 -125h-20z" />
    <glyph glyph-name="udieresis" unicode="&#xfc;" 
d="M315 -11q-54 0 -97.5 16.5t-74.5 47.5t-48 76t-17 102v309h16v-310q0 -105 58 -165.5t163 -60.5q51 0 92.5 18t71 50t46 74.5t16.5 92.5v301h15v-540h-14v166q-8 -36 -28 -68.5t-49 -56.5t-67 -38t-83 -14zM232 662q0 11 7.5 18t18.5 7q25 0 25 -25q0 -11 -7.5 -18
t-18.5 -7q-25 0 -25 25zM351 662q0 25 25 25t25 -25t-25 -25t-25 25z" />
    <glyph glyph-name="yacute" unicode="&#xfd;" horiz-adv-x="591" 
d="M131 -172q-45 0 -75 18t-48 44l13 11q18 -25 44.5 -41.5t66.5 -16.5q27 0 48.5 9.5t39.5 29t35 49t36 69.5l2 4l-257 536h17l247 -519l242 519h17l-255 -546q-20 -42 -38 -73t-38 -51.5t-43.5 -31t-53.5 -10.5zM403 762h25l-130 -140h-20z" />
    <glyph glyph-name="thorn" unicode="&#xfe;" horiz-adv-x="698" 
d="M363 -11q-44 0 -84.5 13t-74.5 37t-60 58.5t-41 78.5v-424h-17v1036h17v-424q15 43 41 78t60 59t74.5 37t84.5 13q58 0 109 -22t89.5 -60t60.5 -89.5t22 -109.5q0 -59 -22 -110t-60.5 -89t-89.5 -60t-109 -22zM363 6q55 0 103 20.5t83.5 56.5t56 84t20.5 103t-20.5 103
t-56 84t-83.5 56.5t-103 20.5t-103 -20.5t-83.5 -56.5t-56 -84t-20.5 -103t20.5 -103t56 -84t83.5 -56.5t103 -20.5z" />
    <glyph glyph-name="ydieresis" unicode="&#xff;" horiz-adv-x="591" 
d="M131 -172q-45 0 -75 18t-48 44l13 11q18 -25 44.5 -41.5t66.5 -16.5q27 0 48.5 9.5t39.5 29t35 49t36 69.5l2 4l-257 536h17l247 -519l242 519h17l-255 -546q-20 -42 -38 -73t-38 -51.5t-43.5 -31t-53.5 -10.5zM210 665q0 11 7.5 18t18.5 7q25 0 25 -25q0 -11 -7.5 -18
t-18.5 -7q-25 0 -25 25zM329 665q0 25 25 25t25 -25t-25 -25t-25 25z" />
    <glyph glyph-name="Amacron" unicode="&#x100;" horiz-adv-x="728" 
d="M356 730h17l309 -730h-18l-103 243h-394l-103 -243h-18zM173 258h382l-191 450zM231 859h264v-15h-264v15z" />
    <glyph glyph-name="amacron" unicode="&#x101;" horiz-adv-x="620" 
d="M250 -10q-52 0 -90 12t-62.5 32.5t-36 48t-11.5 58.5q0 42 18.5 73t52 51.5t80 30.5t103.5 10h221v46q0 39 -13.5 72.5t-40 58t-66.5 38.5t-93 14q-42 0 -75.5 -6.5t-60.5 -19t-49.5 -31t-42.5 -42.5l-14 13q22 24 47 43t54 32t63.5 19.5t77.5 6.5q57 0 99.5 -15
t71 -41.5t43 -62.5t14.5 -79v-352h-15v160q-17 -37 -44.5 -68.5t-63.5 -54t-78.5 -35t-88.5 -12.5zM250 5q46 0 89 13.5t79.5 38t64 58t42.5 72.5v105h-220q-53 0 -97 -9.5t-75.5 -28t-48.5 -47t-17 -66.5q0 -27 10.5 -51.5t33 -43t57 -30t82.5 -11.5zM178 675h264v-15h-264
v15z" />
    <glyph glyph-name="Abreve" unicode="&#x102;" horiz-adv-x="728" 
d="M356 730h17l309 -730h-18l-103 243h-394l-103 -243h-18zM173 258h382l-191 450zM365 810q-41 0 -71.5 13t-50.5 33.5t-30 46.5t-10 52h16q0 -23 9 -46t27 -42t45.5 -30.5t64.5 -11.5q34 0 61 11.5t45.5 30.5t28.5 42t10 46h16q0 -26 -11 -52t-32 -46.5t-51 -33.5t-67 -13
z" />
    <glyph glyph-name="abreve" unicode="&#x103;" horiz-adv-x="620" 
d="M250 -10q-52 0 -90 12t-62.5 32.5t-36 48t-11.5 58.5q0 42 18.5 73t52 51.5t80 30.5t103.5 10h221v46q0 39 -13.5 72.5t-40 58t-66.5 38.5t-93 14q-42 0 -75.5 -6.5t-60.5 -19t-49.5 -31t-42.5 -42.5l-14 13q22 24 47 43t54 32t63.5 19.5t77.5 6.5q57 0 99.5 -15
t71 -41.5t43 -62.5t14.5 -79v-352h-15v160q-17 -37 -44.5 -68.5t-63.5 -54t-78.5 -35t-88.5 -12.5zM250 5q46 0 89 13.5t79.5 38t64 58t42.5 72.5v105h-220q-53 0 -97 -9.5t-75.5 -28t-48.5 -47t-17 -66.5q0 -27 10.5 -51.5t33 -43t57 -30t82.5 -11.5zM312 631
q-41 0 -71.5 13t-50.5 33.5t-30 46.5t-10 52h16q0 -23 9 -46t27 -42t45.5 -30.5t64.5 -11.5q34 0 61 11.5t45.5 30.5t28.5 42t10 46h16q0 -26 -11 -52t-32 -46.5t-51 -33.5t-67 -13z" />
    <glyph glyph-name="Aogonek" unicode="&#x104;" horiz-adv-x="728" 
d="M666 -194q-53 0 -84.5 23.5t-31.5 61.5q0 31 25 61t85 56l-99 235h-394l-103 -243h-18l310 730h17l309 -730q-61 -26 -88 -53.5t-27 -56.5q0 -31 27 -50t72 -19q35 0 61.5 14t48.5 35l14 -10q-22 -21 -52.5 -37.5t-71.5 -16.5zM173 258h382l-191 450z" />
    <glyph glyph-name="aogonek" unicode="&#x105;" horiz-adv-x="620" 
d="M531 -221q-44 0 -69 24.5t-25 60.5q0 37 25 72.5t63 72.5v151q-17 -37 -44.5 -68.5t-63.5 -54t-78.5 -35t-88.5 -12.5q-52 0 -90 12t-62.5 32.5t-36 48t-11.5 58.5q0 42 18.5 73t52 51.5t80 30.5t103.5 10h221v46q0 39 -13.5 72.5t-40 58t-66.5 38.5t-93 14
q-42 0 -75.5 -6.5t-60.5 -19t-49.5 -31t-42.5 -42.5l-14 13q22 24 47 43t54 32t63.5 19.5t77.5 6.5q57 0 99.5 -15t71 -41.5t43 -62.5t14.5 -79v-352q-39 -32 -63.5 -69t-24.5 -66q0 -32 21.5 -51.5t57.5 -19.5q30 0 51 13t41 32l12 -11q-20 -19 -44 -34t-60 -15zM250 5
q46 0 89 13.5t79.5 38t64 58t42.5 72.5v105h-220q-53 0 -97 -9.5t-75.5 -28t-48.5 -47t-17 -66.5q0 -27 10.5 -51.5t33 -43t57 -30t82.5 -11.5z" />
    <glyph glyph-name="Cacute" unicode="&#x106;" horiz-adv-x="846" 
d="M449 -10q-78 0 -146 29.5t-119 80.5t-80.5 119t-29.5 146t29.5 146t80.5 119t119 80.5t146 29.5q50 0 96.5 -12.5t87 -36t74 -56t58.5 -71.5l-14 -8q-48 75 -126 122t-176 47q-74 0 -139 -28.5t-113.5 -77.5t-76.5 -114.5t-28 -139.5t28 -139.5t76.5 -114.5t113.5 -77
t139 -28q49 0 95.5 13t87 36t74 56t56.5 73l15 -7q-25 -42 -59.5 -76.5t-77 -59t-91 -38t-100.5 -13.5zM555 965h25l-130 -140h-20z" />
    <glyph glyph-name="cacute" unicode="&#x107;" horiz-adv-x="641" 
d="M339 -11q-63 0 -115 22t-89.5 60t-58.5 89t-21 110q0 58 22 109.5t60 89.5t89.5 60t110.5 22q83 0 145 -38.5t98 -104.5l-14 -9q-34 63 -92.5 100t-136.5 37q-56 0 -104.5 -21t-84 -57t-56 -84.5t-20.5 -103.5t19.5 -103.5t54.5 -84.5t84.5 -57t108.5 -21q43 0 79 11
t65.5 30t52 45.5t39.5 57.5l14 -9q-18 -32 -42 -59.5t-55.5 -47.5t-69.5 -31.5t-83 -11.5zM442 776h25l-130 -140h-20z" />
    <glyph glyph-name="Ccircumflex" unicode="&#x108;" horiz-adv-x="846" 
d="M449 -10q-78 0 -146 29.5t-119 80.5t-80.5 119t-29.5 146t29.5 146t80.5 119t119 80.5t146 29.5q50 0 96.5 -12.5t87 -36t74 -56t58.5 -71.5l-14 -8q-48 75 -126 122t-176 47q-74 0 -139 -28.5t-113.5 -77.5t-76.5 -114.5t-28 -139.5t28 -139.5t76.5 -114.5t113.5 -77
t139 -28q49 0 95.5 13t87 36t74 56t56.5 73l15 -7q-25 -42 -59.5 -76.5t-77 -59t-91 -38t-100.5 -13.5zM441 955h15l119 -140h-21l-106 125l-106 -125h-20z" />
    <glyph glyph-name="ccircumflex" unicode="&#x109;" horiz-adv-x="641" 
d="M339 -11q-63 0 -115 22t-89.5 60t-58.5 89t-21 110q0 58 22 109.5t60 89.5t89.5 60t110.5 22q83 0 145 -38.5t98 -104.5l-14 -9q-34 63 -92.5 100t-136.5 37q-56 0 -104.5 -21t-84 -57t-56 -84.5t-20.5 -103.5t19.5 -103.5t54.5 -84.5t84.5 -57t108.5 -21q43 0 79 11
t65.5 30t52 45.5t39.5 57.5l14 -9q-18 -32 -42 -59.5t-55.5 -47.5t-69.5 -31.5t-83 -11.5zM328 766h15l119 -140h-21l-106 125l-106 -125h-20z" />
    <glyph glyph-name="Cdotaccent" unicode="&#x10a;" horiz-adv-x="846" 
d="M449 -10q-78 0 -146 29.5t-119 80.5t-80.5 119t-29.5 146t29.5 146t80.5 119t119 80.5t146 29.5q50 0 96.5 -12.5t87 -36t74 -56t58.5 -71.5l-14 -8q-48 75 -126 122t-176 47q-74 0 -139 -28.5t-113.5 -77.5t-76.5 -114.5t-28 -139.5t28 -139.5t76.5 -114.5t113.5 -77
t139 -28q49 0 95.5 13t87 36t74 56t56.5 73l15 -7q-25 -42 -59.5 -76.5t-77 -59t-91 -38t-100.5 -13.5zM425 871q0 25 25 25t25 -25t-25 -25t-25 25z" />
    <glyph glyph-name="cdotaccent" unicode="&#x10b;" horiz-adv-x="641" 
d="M339 -11q-63 0 -115 22t-89.5 60t-58.5 89t-21 110q0 58 22 109.5t60 89.5t89.5 60t110.5 22q83 0 145 -38.5t98 -104.5l-14 -9q-34 63 -92.5 100t-136.5 37q-56 0 -104.5 -21t-84 -57t-56 -84.5t-20.5 -103.5t19.5 -103.5t54.5 -84.5t84.5 -57t108.5 -21q43 0 79 11
t65.5 30t52 45.5t39.5 57.5l14 -9q-18 -32 -42 -59.5t-55.5 -47.5t-69.5 -31.5t-83 -11.5zM312 682q0 25 25 25t25 -25t-25 -25t-25 25z" />
    <glyph glyph-name="Ccaron" unicode="&#x10c;" horiz-adv-x="846" 
d="M449 -10q-78 0 -146 29.5t-119 80.5t-80.5 119t-29.5 146t29.5 146t80.5 119t119 80.5t146 29.5q50 0 96.5 -12.5t87 -36t74 -56t58.5 -71.5l-14 -8q-48 75 -126 122t-176 47q-74 0 -139 -28.5t-113.5 -77.5t-76.5 -114.5t-28 -139.5t28 -139.5t76.5 -114.5t113.5 -77
t139 -28q49 0 95.5 13t87 36t74 56t56.5 73l15 -7q-25 -42 -59.5 -76.5t-77 -59t-91 -38t-100.5 -13.5zM325 965h20l106 -125l106 125h21l-119 -140h-15z" />
    <glyph glyph-name="ccaron" unicode="&#x10d;" horiz-adv-x="641" 
d="M339 -11q-63 0 -115 22t-89.5 60t-58.5 89t-21 110q0 58 22 109.5t60 89.5t89.5 60t110.5 22q83 0 145 -38.5t98 -104.5l-14 -9q-34 63 -92.5 100t-136.5 37q-56 0 -104.5 -21t-84 -57t-56 -84.5t-20.5 -103.5t19.5 -103.5t54.5 -84.5t84.5 -57t108.5 -21q43 0 79 11
t65.5 30t52 45.5t39.5 57.5l14 -9q-18 -32 -42 -59.5t-55.5 -47.5t-69.5 -31.5t-83 -11.5zM212 776h20l106 -125l106 125h21l-119 -140h-15z" />
    <glyph glyph-name="Dcaron" unicode="&#x10e;" horiz-adv-x="752" 
d="M98 730h205q78 0 146 -28t119 -77.5t80.5 -116t29.5 -144.5t-29.5 -144.5t-80.5 -115t-119 -76.5t-146 -28h-205v730zM115 714v-698h188q74 0 139 26.5t113.5 73.5t76.5 110.5t28 137.5t-28 138t-76.5 111t-113.5 74t-139 27h-188zM221 958h20l106 -125l106 125h21
l-119 -140h-15z" />
    <glyph glyph-name="dcaron" unicode="&#x10f;" horiz-adv-x="698" 
d="M336 -11q-58 0 -109 22t-89.5 60t-60.5 89t-22 110q0 58 22 109.5t60.5 89.5t89.5 60t109 22q44 0 85 -13.5t75.5 -38t60.5 -60.5t40 -81v432h15v-790h-15v182q-14 -45 -40 -81t-60.5 -61t-75.5 -38t-85 -13zM336 4q55 0 103 21t83 57t55.5 84.5t20.5 103.5t-20.5 103.5
t-55.5 84.5t-83 57t-103 21t-103 -21t-84 -57t-56.5 -84.5t-20.5 -103.5t20.5 -103.5t56.5 -84.5t84 -57t103 -21zM720 647q13 7 24 19.5t19 27t12.5 29.5t4.5 29q0 22 -10 30q3 -3 3 -8q0 -20 -20 -20q-9 0 -16 6.5t-7 17.5t7 18.5t20 7.5q17 0 27 -13t10 -39
q0 -33 -20 -65t-46 -50z" />
    <glyph glyph-name="Dcroat" unicode="&#x110;" horiz-adv-x="762" 
d="M37 383h71v347h205q78 0 146 -28t119 -77.5t80.5 -116t29.5 -144.5t-29.5 -144.5t-80.5 -115t-119 -76.5t-146 -28h-205v368h-71v15zM125 368v-352h188q74 0 139 26.5t113.5 73.5t76.5 110.5t28 137.5t-28 138t-76.5 111t-113.5 74t-139 27h-188v-331h265v-15h-265z" />
    <glyph glyph-name="dcroat" unicode="&#x111;" horiz-adv-x="697" 
d="M387 645h210v145h15v-145h62v-15h-62v-630h-15v182q-14 -45 -40 -81t-60.5 -61t-75.5 -38t-85 -13q-58 0 -109 22t-89.5 60t-60.5 89t-22 110q0 58 22 109.5t60.5 89.5t89.5 60t109 22q44 0 85 -13.5t75.5 -38t60.5 -60.5t40 -81v272h-210v15zM336 4q55 0 103 21t83 57
t55.5 84.5t20.5 103.5t-20.5 103.5t-55.5 84.5t-83 57t-103 21t-103 -21t-84 -57t-56.5 -84.5t-20.5 -103.5t20.5 -103.5t56.5 -84.5t84 -57t103 -21z" />
    <glyph glyph-name="Emacron" unicode="&#x112;" horiz-adv-x="652" 
d="M98 730h473v-16h-456v-341h456v-15h-456v-342h456v-16h-473v730zM203 859h264v-15h-264v15z" />
    <glyph glyph-name="emacron" unicode="&#x113;" horiz-adv-x="664" 
d="M337 -11q-69 0 -122 22t-88.5 60t-53.5 89t-18 110q0 58 21 109.5t58.5 89.5t89 60t112.5 22q62 0 112.5 -22t86 -59.5t54.5 -88.5t19 -109v-9h-537q1 -54 19 -101.5t51.5 -82.5t82.5 -55t112 -20q82 0 143.5 34.5t95.5 103.5l15 -8q-36 -72 -100.5 -108.5t-152.5 -36.5z
M336 536q-56 0 -104 -20t-83.5 -55.5t-56 -82.5t-21.5 -101h521q-1 54 -19 101t-51.5 82t-80.5 55.5t-105 20.5zM202 675h264v-15h-264v15z" />
    <glyph glyph-name="Ebreve" unicode="&#x114;" horiz-adv-x="652" 
d="M98 730h473v-16h-456v-341h456v-15h-456v-342h456v-16h-473v730zM350 810q-41 0 -71.5 13t-50.5 33.5t-30 46.5t-10 52h16q0 -23 9 -46t27 -42t45.5 -30.5t64.5 -11.5q34 0 61 11.5t45.5 30.5t28.5 42t10 46h16q0 -26 -11 -52t-32 -46.5t-51 -33.5t-67 -13z" />
    <glyph glyph-name="ebreve" unicode="&#x115;" horiz-adv-x="664" 
d="M337 -11q-69 0 -122 22t-88.5 60t-53.5 89t-18 110q0 58 21 109.5t58.5 89.5t89 60t112.5 22q62 0 112.5 -22t86 -59.5t54.5 -88.5t19 -109v-9h-537q1 -54 19 -101.5t51.5 -82.5t82.5 -55t112 -20q82 0 143.5 34.5t95.5 103.5l15 -8q-36 -72 -100.5 -108.5t-152.5 -36.5z
M336 536q-56 0 -104 -20t-83.5 -55.5t-56 -82.5t-21.5 -101h521q-1 54 -19 101t-51.5 82t-80.5 55.5t-105 20.5zM336 626q-41 0 -71.5 13t-50.5 33.5t-30 46.5t-10 52h16q0 -23 9 -46t27 -42t45.5 -30.5t64.5 -11.5q34 0 61 11.5t45.5 30.5t28.5 42t10 46h16q0 -26 -11 -52
t-32 -46.5t-51 -33.5t-67 -13z" />
    <glyph glyph-name="Edotaccent" unicode="&#x116;" horiz-adv-x="652" 
d="M98 730h473v-16h-456v-341h456v-15h-456v-342h456v-16h-473v730zM317 866q0 25 25 25t25 -25t-25 -25t-25 25z" />
    <glyph glyph-name="edotaccent" unicode="&#x117;" horiz-adv-x="664" 
d="M337 -11q-69 0 -122 22t-88.5 60t-53.5 89t-18 110q0 58 21 109.5t58.5 89.5t89 60t112.5 22q62 0 112.5 -22t86 -59.5t54.5 -88.5t19 -109v-9h-537q1 -54 19 -101.5t51.5 -82.5t82.5 -55t112 -20q82 0 143.5 34.5t95.5 103.5l15 -8q-36 -72 -100.5 -108.5t-152.5 -36.5z
M336 536q-56 0 -104 -20t-83.5 -55.5t-56 -82.5t-21.5 -101h521q-1 54 -19 101t-51.5 82t-80.5 55.5t-105 20.5zM311 682q0 25 25 25t25 -25t-25 -25t-25 25z" />
    <glyph glyph-name="Eogonek" unicode="&#x118;" horiz-adv-x="652" 
d="M98 730h473v-16h-456v-341h456v-15h-456v-342h456v-16q-61 -26 -88 -53.5t-27 -56.5q0 -31 27 -50t72 -19q35 0 61.5 14t48.5 35l14 -10q-22 -21 -52.5 -37.5t-71.5 -16.5q-53 0 -84.5 23.5t-31.5 61.5q0 29 21.5 56t71.5 53h-434v730z" />
    <glyph glyph-name="eogonek" unicode="&#x119;" horiz-adv-x="664" 
d="M448 -181q-53 0 -84.5 23.5t-31.5 61.5q0 23 13.5 45.5t45.5 43.5q-14 -2 -27 -3t-27 -1q-69 0 -122 22t-88.5 60t-53.5 89t-18 110q0 58 21 109.5t58.5 89.5t89 60t112.5 22q62 0 112.5 -22t86 -59.5t54.5 -88.5t19 -109v-9h-537q1 -54 19 -101.5t51.5 -82.5t82.5 -55
t112 -20q82 0 143.5 34.5t95.5 103.5l15 -8q-44 -86 -127 -122q-61 -25 -87.5 -52.5t-26.5 -56.5q0 -31 27 -50t72 -19q35 0 61.5 14t48.5 35l14 -10q-22 -21 -52.5 -37.5t-71.5 -16.5zM336 536q-56 0 -104 -20t-83.5 -55.5t-56 -82.5t-21.5 -101h521q-1 54 -19 101
t-51.5 82t-80.5 55.5t-105 20.5z" />
    <glyph glyph-name="Ecaron" unicode="&#x11a;" horiz-adv-x="652" 
d="M98 730h473v-16h-456v-341h456v-15h-456v-342h456v-16h-473v730zM216 960h20l106 -125l106 125h21l-119 -140h-15z" />
    <glyph glyph-name="ecaron" unicode="&#x11b;" horiz-adv-x="664" 
d="M337 -11q-69 0 -122 22t-88.5 60t-53.5 89t-18 110q0 58 21 109.5t58.5 89.5t89 60t112.5 22q62 0 112.5 -22t86 -59.5t54.5 -88.5t19 -109v-9h-537q1 -54 19 -101.5t51.5 -82.5t82.5 -55t112 -20q82 0 143.5 34.5t95.5 103.5l15 -8q-36 -72 -100.5 -108.5t-152.5 -36.5z
M336 536q-56 0 -104 -20t-83.5 -55.5t-56 -82.5t-21.5 -101h521q-1 54 -19 101t-51.5 82t-80.5 55.5t-105 20.5zM211 776h20l106 -125l106 125h21l-119 -140h-15z" />
    <glyph glyph-name="Gcircumflex" unicode="&#x11c;" horiz-adv-x="891" 
d="M451 -10q-82 0 -151 29.5t-119.5 80.5t-78.5 119t-28 146t30 146t81.5 119t120.5 80.5t148 29.5q105 0 186.5 -46t130.5 -126l-13 -9q-46 78 -124.5 122t-180.5 44q-75 0 -141 -28.5t-115 -77.5t-77 -114.5t-28 -139.5t26.5 -139.5t74.5 -114.5t114 -77t144 -28
q76 0 140 26.5t111 73t74 109.5t29 136h-359v15h376v-3q0 -78 -27 -146t-76 -118.5t-117.5 -79.5t-150.5 -29zM444 955h15l119 -140h-21l-106 125l-106 -125h-20z" />
    <glyph glyph-name="gcircumflex" unicode="&#x11d;" horiz-adv-x="694" 
d="M336 -11q-58 0 -109 22t-89.5 60t-60.5 89t-22 110q0 58 22 109.5t60.5 89.5t89.5 60t109 22q44 0 84.5 -13t75 -37.5t60.5 -59.5t40 -79v178h16v-495q0 -63 -19.5 -113.5t-55 -85.5t-84.5 -53.5t-107 -18.5q-86 0 -148.5 30t-98.5 85l14 9q34 -53 92.5 -80.5
t140.5 -27.5q55 0 101 17.5t79 50t51.5 80t18.5 107.5v134q-14 -45 -40 -80t-60.5 -59.5t-75 -37.5t-84.5 -13zM336 4q55 0 103 21t83 57t55.5 84.5t20.5 103.5t-20.5 103.5t-55.5 84.5t-83 57t-103 21t-103 -21t-84 -57t-56.5 -84.5t-20.5 -103.5t20.5 -103.5t56.5 -84.5
t84 -57t103 -21zM331 766h15l119 -140h-21l-106 125l-106 -125h-20z" />
    <glyph glyph-name="Gbreve" unicode="&#x11e;" horiz-adv-x="891" 
d="M451 -10q-82 0 -151 29.5t-119.5 80.5t-78.5 119t-28 146t30 146t81.5 119t120.5 80.5t148 29.5q105 0 186.5 -46t130.5 -126l-13 -9q-46 78 -124.5 122t-180.5 44q-75 0 -141 -28.5t-115 -77.5t-77 -114.5t-28 -139.5t26.5 -139.5t74.5 -114.5t114 -77t144 -28
q76 0 140 26.5t111 73t74 109.5t29 136h-359v15h376v-3q0 -78 -27 -146t-76 -118.5t-117.5 -79.5t-150.5 -29zM453 818q-41 0 -71.5 13t-50.5 33.5t-30 46.5t-10 52h16q0 -23 9 -46t27 -42t45.5 -30.5t64.5 -11.5q34 0 61 11.5t45.5 30.5t28.5 42t10 46h16q0 -26 -11 -52
t-32 -46.5t-51 -33.5t-67 -13z" />
    <glyph glyph-name="gbreve" unicode="&#x11f;" horiz-adv-x="694" 
d="M336 -11q-58 0 -109 22t-89.5 60t-60.5 89t-22 110q0 58 22 109.5t60.5 89.5t89.5 60t109 22q44 0 84.5 -13t75 -37.5t60.5 -59.5t40 -79v178h16v-495q0 -63 -19.5 -113.5t-55 -85.5t-84.5 -53.5t-107 -18.5q-86 0 -148.5 30t-98.5 85l14 9q34 -53 92.5 -80.5
t140.5 -27.5q55 0 101 17.5t79 50t51.5 80t18.5 107.5v134q-14 -45 -40 -80t-60.5 -59.5t-75 -37.5t-84.5 -13zM336 4q55 0 103 21t83 57t55.5 84.5t20.5 103.5t-20.5 103.5t-55.5 84.5t-83 57t-103 21t-103 -21t-84 -57t-56.5 -84.5t-20.5 -103.5t20.5 -103.5t56.5 -84.5
t84 -57t103 -21zM340 634q-41 0 -71.5 13t-50.5 33.5t-30 46.5t-10 52h16q0 -23 9 -46t27 -42t45.5 -30.5t64.5 -11.5q34 0 61 11.5t45.5 30.5t28.5 42t10 46h16q0 -26 -11 -52t-32 -46.5t-51 -33.5t-67 -13z" />
    <glyph glyph-name="Gdotaccent" unicode="&#x120;" horiz-adv-x="891" 
d="M451 -10q-82 0 -151 29.5t-119.5 80.5t-78.5 119t-28 146t30 146t81.5 119t120.5 80.5t148 29.5q105 0 186.5 -46t130.5 -126l-13 -9q-46 78 -124.5 122t-180.5 44q-75 0 -141 -28.5t-115 -77.5t-77 -114.5t-28 -139.5t26.5 -139.5t74.5 -114.5t114 -77t144 -28
q76 0 140 26.5t111 73t74 109.5t29 136h-359v15h376v-3q0 -78 -27 -146t-76 -118.5t-117.5 -79.5t-150.5 -29zM428 871q0 25 25 25t25 -25t-25 -25t-25 25z" />
    <glyph glyph-name="gdotaccent" unicode="&#x121;" horiz-adv-x="694" 
d="M336 -11q-58 0 -109 22t-89.5 60t-60.5 89t-22 110q0 58 22 109.5t60.5 89.5t89.5 60t109 22q44 0 84.5 -13t75 -37.5t60.5 -59.5t40 -79v178h16v-495q0 -63 -19.5 -113.5t-55 -85.5t-84.5 -53.5t-107 -18.5q-86 0 -148.5 30t-98.5 85l14 9q34 -53 92.5 -80.5
t140.5 -27.5q55 0 101 17.5t79 50t51.5 80t18.5 107.5v134q-14 -45 -40 -80t-60.5 -59.5t-75 -37.5t-84.5 -13zM336 4q55 0 103 21t83 57t55.5 84.5t20.5 103.5t-20.5 103.5t-55.5 84.5t-83 57t-103 21t-103 -21t-84 -57t-56.5 -84.5t-20.5 -103.5t20.5 -103.5t56.5 -84.5
t84 -57t103 -21zM315 682q0 25 25 25t25 -25t-25 -25t-25 25z" />
    <glyph glyph-name="Gcommaaccent" unicode="&#x122;" horiz-adv-x="891" 
d="M451 -10q-82 0 -151 29.5t-119.5 80.5t-78.5 119t-28 146t30 146t81.5 119t120.5 80.5t148 29.5q105 0 186.5 -46t130.5 -126l-13 -9q-46 78 -124.5 122t-180.5 44q-75 0 -141 -28.5t-115 -77.5t-77 -114.5t-28 -139.5t26.5 -139.5t74.5 -114.5t114 -77t144 -28
q76 0 140 26.5t111 73t74 109.5t29 136h-359v15h376v-3q0 -78 -27 -146t-76 -118.5t-117.5 -79.5t-150.5 -29zM409 -256q13 7 24 19.5t19 27t12.5 29.5t4.5 29q0 24 -10 32q3 -5 3 -10q0 -20 -20 -20q-9 0 -16 6.5t-7 17.5t7 18.5t20 7.5q17 0 27 -13t10 -39q0 -33 -20 -65
t-46 -50z" />
    <glyph glyph-name="gcommaaccent" unicode="&#x123;" horiz-adv-x="694" 
d="M336 -11q-58 0 -109 22t-89.5 60t-60.5 89t-22 110q0 58 22 109.5t60.5 89.5t89.5 60t109 22q44 0 84.5 -13t75 -37.5t60.5 -59.5t40 -79v178h16v-495q0 -63 -19.5 -113.5t-55 -85.5t-84.5 -53.5t-107 -18.5q-86 0 -148.5 30t-98.5 85l14 9q34 -53 92.5 -80.5
t140.5 -27.5q55 0 101 17.5t79 50t51.5 80t18.5 107.5v134q-14 -45 -40 -80t-60.5 -59.5t-75 -37.5t-84.5 -13zM336 4q55 0 103 21t83 57t55.5 84.5t20.5 103.5t-20.5 103.5t-55.5 84.5t-83 57t-103 21t-103 -21t-84 -57t-56.5 -84.5t-20.5 -103.5t20.5 -103.5t56.5 -84.5
t84 -57t103 -21zM365 776q-13 -8 -24 -20t-19 -26.5t-12.5 -30t-4.5 -28.5q0 -23 8 -31q-1 2 -1 9q0 20 20 20q9 0 16 -6.5t7 -17.5t-7 -18.5t-20 -7.5q-17 0 -27 13t-10 39q0 33 20 65t46 50z" />
    <glyph glyph-name="Hcircumflex" unicode="&#x124;" horiz-adv-x="726" 
d="M611 357h-496v-357h-17v730h17v-358h496v358h17v-730h-17v357zM353 941h15l119 -140h-21l-106 125l-106 -125h-20z" />
    <glyph glyph-name="hcircumflex" unicode="&#x125;" horiz-adv-x="663" 
d="M86 790h15v-410q9 35 30 66t52 54.5t70 37t83 13.5q54 0 99.5 -17t78.5 -48.5t51 -77.5t18 -103v-305h-15v306q0 52 -16.5 94.5t-47 72.5t-73.5 46.5t-95 16.5q-48 0 -91 -17t-74.5 -48t-50 -73t-18.5 -91v-307h-16v790zM84 1010h15l119 -140h-21l-106 125l-106 -125h-20
z" />
    <glyph glyph-name="Hbar" unicode="&#x126;" horiz-adv-x="746" 
d="M31 560h77v170h17v-170h496v170h17v-170h66v-15h-66v-545h-17v357h-496v-357h-17v545h-77v15zM621 372v173h-496v-173h496z" />
    <glyph glyph-name="hbar" unicode="&#x127;" horiz-adv-x="663" 
d="M26 661h60v129h15v-129h145v-14h-145v-267q9 35 30 66t52 54.5t70 37t83 13.5q54 0 99.5 -17t78.5 -48.5t51 -77.5t18 -103v-305h-15v306q0 52 -16.5 94.5t-47 72.5t-73.5 46.5t-95 16.5q-48 0 -91 -17t-74.5 -48t-50 -73t-18.5 -91v-307h-16v647h-60v14z" />
    <glyph glyph-name="Itilde" unicode="&#x128;" horiz-adv-x="237" 
d="M110 730h17v-730h-17v730zM-64 823q0 38 23 61t59 23q25 0 48 -11.5t46 -25.5t46 -25.5t46 -11.5q31 0 50.5 16.5t19.5 54.5h16q0 -42 -23.5 -63.5t-63.5 -21.5q-27 0 -51 12t-47 26t-44.5 25t-42.5 11q-27 0 -46.5 -17.5t-19.5 -52.5h-16z" />
    <glyph glyph-name="itilde" unicode="&#x129;" horiz-adv-x="188" 
d="M86 540h16v-540h-16v540zM-96 633q0 38 23 61t59 23q25 0 48 -11.5t46 -25.5t46 -25.5t46 -11.5q31 0 50.5 16.5t19.5 54.5h16q0 -42 -23.5 -63.5t-63.5 -21.5q-27 0 -51 12t-47 26t-44.5 25t-42.5 11q-27 0 -46.5 -17.5t-19.5 -52.5h-16z" />
    <glyph glyph-name="Imacron" unicode="&#x12a;" horiz-adv-x="237" 
d="M110 730h17v-730h-17v730zM-16 859h264v-15h-264v15z" />
    <glyph glyph-name="imacron" unicode="&#x12b;" horiz-adv-x="188" 
d="M86 540h16v-540h-16v540zM-40 669h264v-15h-264v15z" />
    <glyph glyph-name="Ibreve" unicode="&#x12c;" horiz-adv-x="237" 
d="M110 730h17v-730h-17v730zM118 810q-41 0 -71.5 13t-50.5 33.5t-30 46.5t-10 52h16q0 -23 9 -46t27 -42t45.5 -30.5t64.5 -11.5q34 0 61 11.5t45.5 30.5t28.5 42t10 46h16q0 -26 -11 -52t-32 -46.5t-51 -33.5t-67 -13z" />
    <glyph glyph-name="ibreve" unicode="&#x12d;" horiz-adv-x="188" 
d="M86 540h16v-540h-16v540zM94 620q-41 0 -71.5 13t-50.5 33.5t-30 46.5t-10 52h16q0 -23 9 -46t27 -42t45.5 -30.5t64.5 -11.5q34 0 61 11.5t45.5 30.5t28.5 42t10 46h16q0 -26 -11 -52t-32 -46.5t-51 -33.5t-67 -13z" />
    <glyph glyph-name="Iogonek" unicode="&#x12e;" horiz-adv-x="237" 
d="M118 -221q-44 0 -69 24.5t-25 60.5q0 37 24 72t62 71v723h17v-730q-39 -32 -63.5 -69t-24.5 -66q0 -32 21.5 -51.5t57.5 -19.5q30 0 51 13t41 32l12 -11q-20 -19 -44 -34t-60 -15z" />
    <glyph glyph-name="iogonek" unicode="&#x12f;" horiz-adv-x="188" 
d="M93 -221q-44 0 -69 24.5t-25 60.5q0 37 24.5 72.5t62.5 71.5v532h16v-540q-39 -32 -63.5 -69t-24.5 -66q0 -32 21.5 -51.5t57.5 -19.5q30 0 51 13t41 32l12 -11q-20 -19 -44 -34t-60 -15zM69 708q0 24 25 24q11 0 17.5 -6.5t6.5 -17.5t-6.5 -17.5t-17.5 -6.5t-18 6.5
t-7 17.5z" />
    <glyph glyph-name="Idotaccent" unicode="&#x130;" horiz-adv-x="237" 
d="M110 730h17v-730h-17v730zM93 866q0 25 25 25t25 -25t-25 -25t-25 25z" />
    <glyph glyph-name="dotlessi" unicode="&#x131;" horiz-adv-x="188" 
d="M86 540h16v-540h-16v540z" />
    <glyph glyph-name="IJ" unicode="&#x132;" horiz-adv-x="535" 
d="M218 16h48q37 0 67 12.5t51 34t32 51t11 63.5v553h17v-553q0 -39 -12 -71.5t-35 -56t-56 -36.5t-75 -13h-48v16zM91 730h17v-730h-17v730z" />
    <glyph glyph-name="ij" unicode="&#x133;" horiz-adv-x="363" 
d="M82 -135h39q48 0 76.5 6.5t43.5 23t19.5 44t4.5 69.5v532h16v-533q0 -46 -6 -76.5t-23.5 -48.5t-48.5 -25.5t-81 -7.5h-40v16zM82 540h17v-540h-17v540zM66 708q0 24 25 24q11 0 17.5 -6.5t6.5 -17.5t-6.5 -17.5t-17.5 -6.5t-18 6.5t-7 17.5zM248 708q0 24 25 24
q11 0 17.5 -6.5t6.5 -17.5t-6.5 -17.5t-17.5 -6.5t-18 6.5t-7 17.5z" />
    <glyph glyph-name="Jcircumflex" unicode="&#x134;" horiz-adv-x="518" 
d="M235 -10q-135 0 -177 104l15 7q17 -45 58 -70t104 -25q41 0 73 13.5t53.5 37.5t32.5 56.5t11 70.5v546h17v-546q0 -42 -12.5 -77.5t-36 -61.5t-58.5 -40.5t-80 -14.5zM405 950h15l119 -140h-21l-106 125l-106 -125h-20z" />
    <glyph glyph-name="jcircumflex" unicode="&#x135;" horiz-adv-x="190" 
d="M-72 -207q48 0 79 6t49 23t25 49t7 84v585h16v-586q0 -54 -8 -88.5t-28 -54t-53.5 -27t-84.5 -7.5h-2v16zM87 760h15l119 -140h-21l-106 125l-106 -125h-20z" />
    <glyph glyph-name="Kcommaaccent" unicode="&#x136;" horiz-adv-x="682" 
d="M315 422l-199 -221v-201h-17v730h17v-505l455 505h22l-266 -296l309 -434h-21zM311 -231q13 7 24 19.5t19 27t12.5 29.5t4.5 29q0 24 -10 32q3 -5 3 -10q0 -20 -20 -20q-9 0 -16 6.5t-7 17.5t7 18.5t20 7.5q17 0 27 -13t10 -39q0 -33 -20 -65t-46 -50z" />
    <glyph glyph-name="kcommaaccent" unicode="&#x137;" horiz-adv-x="579" 
d="M274 306l-172 -170v-136h-16v790h16v-634l387 384h23l-227 -224l259 -316h-21zM258 -242q13 7 24 19.5t19 27t12.5 29.5t4.5 29q0 24 -10 32q3 -5 3 -10q0 -20 -20 -20q-9 0 -16 6.5t-7 17.5t7 18.5t20 7.5q17 0 27 -13t10 -39q0 -33 -20 -65t-46 -50z" />
    <glyph glyph-name="kgreenlandic" unicode="&#x138;" horiz-adv-x="579" 
d="M274 306l-172 -170v-136h-16v540h16v-384l387 384h23l-227 -224l259 -316h-21z" />
    <glyph glyph-name="Lacute" unicode="&#x139;" horiz-adv-x="614" 
d="M98 730h17v-714h438v-16h-455v730zM211 960h25l-130 -140h-20z" />
    <glyph glyph-name="lacute" unicode="&#x13a;" horiz-adv-x="188" 
d="M86 790h16v-790h-16v790zM199 1020h25l-130 -140h-20z" />
    <glyph glyph-name="Lcommaaccent" unicode="&#x13b;" horiz-adv-x="614" 
d="M98 730h17v-714h438v-16h-455v730zM285 -251q13 7 24 19.5t19 27t12.5 29.5t4.5 29q0 24 -10 32q3 -5 3 -10q0 -20 -20 -20q-9 0 -16 6.5t-7 17.5t7 18.5t20 7.5q17 0 27 -13t10 -39q0 -33 -20 -65t-46 -50z" />
    <glyph glyph-name="lcommaaccent" unicode="&#x13c;" horiz-adv-x="188" 
d="M86 790h16v-790h-16v790zM51 -251q13 7 24 19.5t19 27t12.5 29.5t4.5 29q0 24 -10 32q3 -5 3 -10q0 -20 -20 -20q-9 0 -16 6.5t-7 17.5t7 18.5t20 7.5q17 0 27 -13t10 -39q0 -33 -20 -65t-46 -50z" />
    <glyph glyph-name="Lcaron" unicode="&#x13d;" horiz-adv-x="614" 
d="M98 730h17v-714h438v-16h-455v730zM430 587q13 7 24 19.5t19 27t12.5 29.5t4.5 29q0 22 -10 30q3 -3 3 -8q0 -20 -20 -20q-9 0 -16 6.5t-7 17.5t7 18.5t20 7.5q17 0 27 -13t10 -39q0 -33 -20 -65t-46 -50z" />
    <glyph glyph-name="lcaron" unicode="&#x13e;" horiz-adv-x="188" 
d="M86 790h16v-790h-16v790zM210 647q13 7 24 19.5t19 27t12.5 29.5t4.5 29q0 22 -10 30q3 -3 3 -8q0 -20 -20 -20q-9 0 -16 6.5t-7 17.5t7 18.5t20 7.5q17 0 27 -13t10 -39q0 -33 -20 -65t-46 -50z" />
    <glyph glyph-name="Ldot" unicode="&#x13f;" horiz-adv-x="614" 
d="M98 730h17v-714h438v-16h-455v730zM461 365q0 25 25 25t25 -25t-25 -25t-25 25z" />
    <glyph glyph-name="ldot" unicode="&#x140;" horiz-adv-x="296" 
d="M86 790h16v-790h-16v790zM214 270q0 25 25 25t25 -25t-25 -25t-25 25z" />
    <glyph glyph-name="Lslash" unicode="&#x141;" horiz-adv-x="644" 
d="M25 343l103 30v357h17v-352l242 72l5 -13l-247 -73v-348h438v-16h-455v359l-98 -29z" />
    <glyph glyph-name="lslash" unicode="&#x142;" horiz-adv-x="271" 
d="M9 353l119 72v365h16v-356l117 72l7 -11l-124 -76v-419h-16v409l-112 -68z" />
    <glyph glyph-name="Nacute" unicode="&#x143;" horiz-adv-x="760" 
d="M98 730h17l530 -704v704h17v-730h-18l-529 702v-702h-17v730zM501 949h25l-130 -140h-20z" />
    <glyph glyph-name="nacute" unicode="&#x144;" horiz-adv-x="660" 
d="M82 540h14v-169q7 37 28 69.5t52.5 57t71.5 39t85 14.5q54 0 99.5 -17t78 -48.5t51 -77.5t18.5 -103v-305h-16v306q0 52 -16.5 94.5t-47 72.5t-73 46.5t-94.5 16.5q-48 0 -91 -17t-75 -48t-50.5 -73t-18.5 -91v-307h-16v540zM437 774h25l-130 -140h-20z" />
    <glyph glyph-name="Ncommaaccent" unicode="&#x145;" horiz-adv-x="760" 
d="M98 730h17l530 -704v704h17v-730h-18l-529 702v-702h-17v730zM328 -244q13 7 24 19.5t19 27t12.5 29.5t4.5 29q0 24 -10 32q3 -5 3 -10q0 -20 -20 -20q-9 0 -16 6.5t-7 17.5t7 18.5t20 7.5q17 0 27 -13t10 -39q0 -33 -20 -65t-46 -50z" />
    <glyph glyph-name="ncommaaccent" unicode="&#x146;" horiz-adv-x="660" 
d="M82 540h14v-169q7 37 28 69.5t52.5 57t71.5 39t85 14.5q54 0 99.5 -17t78 -48.5t51 -77.5t18.5 -103v-305h-16v306q0 52 -16.5 94.5t-47 72.5t-73 46.5t-94.5 16.5q-48 0 -91 -17t-75 -48t-50.5 -73t-18.5 -91v-307h-16v540zM291 -236q13 7 24 19.5t19 27t12.5 29.5
t4.5 29q0 24 -10 32q3 -5 3 -10q0 -20 -20 -20q-9 0 -16 6.5t-7 17.5t7 18.5t20 7.5q17 0 27 -13t10 -39q0 -33 -20 -65t-46 -50z" />
    <glyph glyph-name="Ncaron" unicode="&#x147;" horiz-adv-x="760" 
d="M98 730h17l530 -704v704h17v-730h-18l-529 702v-702h-17v730zM271 949h20l106 -125l106 125h21l-119 -140h-15z" />
    <glyph glyph-name="ncaron" unicode="&#x148;" horiz-adv-x="660" 
d="M82 540h14v-169q7 37 28 69.5t52.5 57t71.5 39t85 14.5q54 0 99.5 -17t78 -48.5t51 -77.5t18.5 -103v-305h-16v306q0 52 -16.5 94.5t-47 72.5t-73 46.5t-94.5 16.5q-48 0 -91 -17t-75 -48t-50.5 -73t-18.5 -91v-307h-16v540zM207 774h20l106 -125l106 125h21l-119 -140
h-15z" />
    <glyph glyph-name="Eng" unicode="&#x14a;" horiz-adv-x="760" 
d="M436 -184h103q49 0 78 29.5t28 74.5v80l-530 702v-702h-17v730h17l530 -701v701h17v-812q0 -54 -32.5 -86t-89.5 -32h-104v16z" />
    <glyph glyph-name="eng" unicode="&#x14b;" horiz-adv-x="661" 
d="M405 -231q48 0 79 6t49 23t25 49t7 84v375q0 52 -16.5 94.5t-47 72.5t-73.5 46.5t-95 16.5q-48 0 -91 -17t-74.5 -48t-50 -73t-18.5 -91v-307h-17v540h15v-164q8 36 29.5 68t52.5 55.5t70 37.5t84 14q54 0 99.5 -17t78 -48.5t51 -77.5t18.5 -103v-375q0 -54 -8 -88.5
t-28 -54t-53 -27t-84 -7.5h-2v16z" />
    <glyph glyph-name="Omacron" unicode="&#x14c;" horiz-adv-x="898" 
d="M449 -10q-78 0 -146 29.5t-119 80.5t-80.5 119t-29.5 146t29.5 146t80.5 119t119 80.5t146 29.5t146 -29.5t119 -80.5t80.5 -119t29.5 -146t-29.5 -146t-80.5 -119t-119 -80.5t-146 -29.5zM449 6q74 0 139 28t113.5 77t76.5 114.5t28 139.5t-28 139.5t-76.5 114
t-113.5 77t-139 28.5t-139 -28.5t-113.5 -77t-76.5 -114t-28 -139.5t28 -139.5t76.5 -114.5t113.5 -77t139 -28zM315 864h264v-15h-264v15z" />
    <glyph glyph-name="omacron" unicode="&#x14d;" horiz-adv-x="672" 
d="M336 -11q-59 0 -110 22t-89 60t-60 89t-22 110q0 58 22 109.5t60.5 89.5t89.5 60t109 22t109.5 -22t89.5 -60t60 -89.5t22 -109.5q0 -59 -22 -110t-60 -89t-89.5 -60t-109.5 -22zM336 4q55 0 103 20.5t84 56.5t56.5 84.5t20.5 104.5q0 55 -20.5 103.5t-56.5 84.5t-84 57
t-103 21t-103 -21t-84 -57t-56.5 -84.5t-20.5 -103.5q0 -56 20.5 -104.5t56 -84.5t83.5 -56.5t104 -20.5zM201 675h264v-15h-264v15z" />
    <glyph glyph-name="Obreve" unicode="&#x14e;" horiz-adv-x="898" 
d="M449 -10q-78 0 -146 29.5t-119 80.5t-80.5 119t-29.5 146t29.5 146t80.5 119t119 80.5t146 29.5t146 -29.5t119 -80.5t80.5 -119t29.5 -146t-29.5 -146t-80.5 -119t-119 -80.5t-146 -29.5zM449 6q74 0 139 28t113.5 77t76.5 114.5t28 139.5t-28 139.5t-76.5 114
t-113.5 77t-139 28.5t-139 -28.5t-113.5 -77t-76.5 -114t-28 -139.5t28 -139.5t76.5 -114.5t113.5 -77t139 -28zM449 815q-41 0 -71.5 13t-50.5 33.5t-30 46.5t-10 52h16q0 -23 9 -46t27 -42t45.5 -30.5t64.5 -11.5q34 0 61 11.5t45.5 30.5t28.5 42t10 46h16q0 -26 -11 -52
t-32 -46.5t-51 -33.5t-67 -13z" />
    <glyph glyph-name="obreve" unicode="&#x14f;" horiz-adv-x="672" 
d="M336 -11q-59 0 -110 22t-89 60t-60 89t-22 110q0 58 22 109.5t60.5 89.5t89.5 60t109 22t109.5 -22t89.5 -60t60 -89.5t22 -109.5q0 -59 -22 -110t-60 -89t-89.5 -60t-109.5 -22zM336 4q55 0 103 20.5t84 56.5t56.5 84.5t20.5 104.5q0 55 -20.5 103.5t-56.5 84.5t-84 57
t-103 21t-103 -21t-84 -57t-56.5 -84.5t-20.5 -103.5q0 -56 20.5 -104.5t56 -84.5t83.5 -56.5t104 -20.5zM335 626q-41 0 -71.5 13t-50.5 33.5t-30 46.5t-10 52h16q0 -23 9 -46t27 -42t45.5 -30.5t64.5 -11.5q34 0 61 11.5t45.5 30.5t28.5 42t10 46h16q0 -26 -11 -52
t-32 -46.5t-51 -33.5t-67 -13z" />
    <glyph glyph-name="Ohungarumlaut" unicode="&#x150;" horiz-adv-x="898" 
d="M449 -10q-78 0 -146 29.5t-119 80.5t-80.5 119t-29.5 146t29.5 146t80.5 119t119 80.5t146 29.5t146 -29.5t119 -80.5t80.5 -119t29.5 -146t-29.5 -146t-80.5 -119t-119 -80.5t-146 -29.5zM449 6q74 0 139 28t113.5 77t76.5 114.5t28 139.5t-28 139.5t-76.5 114
t-113.5 77t-139 28.5t-139 -28.5t-113.5 -77t-76.5 -114t-28 -139.5t28 -139.5t76.5 -114.5t113.5 -77t139 -28zM517 965h25l-130 -140h-20zM597 965h25l-130 -140h-20z" />
    <glyph glyph-name="ohungarumlaut" unicode="&#x151;" horiz-adv-x="672" 
d="M336 -11q-59 0 -110 22t-89 60t-60 89t-22 110q0 58 22 109.5t60.5 89.5t89.5 60t109 22t109.5 -22t89.5 -60t60 -89.5t22 -109.5q0 -59 -22 -110t-60 -89t-89.5 -60t-109.5 -22zM336 4q55 0 103 20.5t84 56.5t56.5 84.5t20.5 104.5q0 55 -20.5 103.5t-56.5 84.5t-84 57
t-103 21t-103 -21t-84 -57t-56.5 -84.5t-20.5 -103.5q0 -56 20.5 -104.5t56 -84.5t83.5 -56.5t104 -20.5zM403 776h25l-130 -140h-20zM483 776h25l-130 -140h-20z" />
    <glyph glyph-name="OE" unicode="&#x152;" horiz-adv-x="1350" 
d="M806 257q-17 -58 -50.5 -107t-80 -84.5t-104 -55.5t-122.5 -20q-78 0 -146 29.5t-119 80.5t-80.5 119t-29.5 146t29.5 146t80.5 119t119 80.5t146 29.5q64 0 121.5 -20t104 -56t80.5 -85.5t51 -107.5v259h453v-16h-436v-341h436v-15h-436v-342h436v-16h-453v257zM449 6
q74 0 139 28t113.5 77t76.5 114.5t28 139.5t-28 139.5t-76.5 114t-113.5 77t-139 28.5t-139 -28.5t-113.5 -77t-76.5 -114t-28 -139.5t28 -139.5t76.5 -114.5t113.5 -77t139 -28z" />
    <glyph glyph-name="oe" unicode="&#x153;" horiz-adv-x="1212" 
d="M336 -11q-58 0 -109 22t-89.5 60t-60.5 89t-22 110q0 58 22 109.5t60.5 89.5t89.5 60t109 22q52 0 97.5 -17t80.5 -46.5t59 -70t34 -88.5q9 48 33 88.5t59 70t81 46.5t99 17q61 0 111.5 -22t87 -59.5t57 -88.5t20.5 -109v-8h-541q1 -54 21.5 -101.5t55.5 -83t83 -55.5
t105 -20q85 0 147 39.5t95 108.5l14 -6q-35 -72 -100 -114.5t-156 -42.5q-54 0 -100 16.5t-81 45.5t-59 69t-33 87q-10 -47 -34 -87t-59 -69t-80 -45.5t-97 -16.5zM336 4q55 0 103 21t83.5 57t56 84.5t20.5 103.5t-20.5 103.5t-56 84.5t-83.5 57t-103 21t-103 -21t-84 -57
t-56.5 -84.5t-20.5 -103.5t20.5 -103.5t56.5 -84.5t84 -57t103 -21zM879 536q-55 0 -102.5 -20t-83 -55t-57 -81.5t-22.5 -100.5h524q-2 53 -21.5 100t-53.5 82t-81 55t-103 20z" />
    <glyph glyph-name="Racute" unicode="&#x154;" horiz-adv-x="708" 
d="M98 730h320q46 0 87 -17.5t71.5 -47.5t48 -70t17.5 -85q0 -43 -15.5 -80.5t-42 -66t-61 -46.5t-72.5 -22l192 -295h-20l-188 292h-320v-292h-17v730zM115 714v-408h303q42 0 79.5 15.5t65.5 43t44.5 65t16.5 80.5q0 42 -16.5 79t-44.5 65t-65.5 44t-79.5 16h-303z
M437 960h25l-130 -140h-20z" />
    <glyph glyph-name="racute" unicode="&#x155;" horiz-adv-x="414" 
d="M82 540h15v-140q19 75 66.5 113t120.5 38q27 0 52 -5.5t41 -14.5l-9 -15q-17 11 -38.5 15.5t-46.5 4.5q-88 0 -137.5 -62t-47.5 -184v-290h-16v540zM336 774h25l-130 -140h-20z" />
    <glyph glyph-name="Rcommaaccent" unicode="&#x156;" horiz-adv-x="708" 
d="M98 730h320q46 0 87 -17.5t71.5 -47.5t48 -70t17.5 -85q0 -43 -15.5 -80.5t-42 -66t-61 -46.5t-72.5 -22l192 -295h-20l-188 292h-320v-292h-17v730zM115 714v-408h303q42 0 79.5 15.5t65.5 43t44.5 65t16.5 80.5q0 42 -16.5 79t-44.5 65t-65.5 44t-79.5 16h-303z
M337 -227q13 7 24 19.5t19 27t12.5 29.5t4.5 29q0 24 -10 32q3 -5 3 -10q0 -20 -20 -20q-9 0 -16 6.5t-7 17.5t7 18.5t20 7.5q17 0 27 -13t10 -39q0 -33 -20 -65t-46 -50z" />
    <glyph glyph-name="rcommaaccent" unicode="&#x157;" horiz-adv-x="414" 
d="M82 540h15v-140q19 75 66.5 113t120.5 38q27 0 52 -5.5t41 -14.5l-9 -15q-17 11 -38.5 15.5t-46.5 4.5q-88 0 -137.5 -62t-47.5 -184v-290h-16v540zM48 -251q13 7 24 19.5t19 27t12.5 29.5t4.5 29q0 24 -10 32q3 -5 3 -10q0 -20 -20 -20q-9 0 -16 6.5t-7 17.5t7 18.5
t20 7.5q17 0 27 -13t10 -39q0 -33 -20 -65t-46 -50z" />
    <glyph glyph-name="Rcaron" unicode="&#x158;" horiz-adv-x="708" 
d="M98 730h320q46 0 87 -17.5t71.5 -47.5t48 -70t17.5 -85q0 -43 -15.5 -80.5t-42 -66t-61 -46.5t-72.5 -22l192 -295h-20l-188 292h-320v-292h-17v730zM115 714v-408h303q42 0 79.5 15.5t65.5 43t44.5 65t16.5 80.5q0 42 -16.5 79t-44.5 65t-65.5 44t-79.5 16h-303z
M230 960h20l106 -125l106 125h21l-119 -140h-15z" />
    <glyph glyph-name="rcaron" unicode="&#x159;" horiz-adv-x="414" 
d="M82 540h15v-140q19 75 66.5 113t120.5 38q27 0 52 -5.5t41 -14.5l-9 -15q-17 11 -38.5 15.5t-46.5 4.5q-88 0 -137.5 -62t-47.5 -184v-290h-16v540zM106 774h20l106 -125l106 125h21l-119 -140h-15z" />
    <glyph glyph-name="Sacute" unicode="&#x15a;" horiz-adv-x="673" 
d="M353 -10q-105 0 -180 38.5t-127 109.5l14 12q49 -72 122.5 -108t170.5 -36q58 0 102 15.5t73 41.5t44 60t15 72q0 49 -21.5 79.5t-56.5 49t-79.5 29t-91.5 18.5q-48 9 -94 19.5t-82.5 30t-58.5 50.5t-22 82q0 39 16 73.5t46 59.5t72.5 39.5t96.5 14.5q97 0 165 -36.5
t114 -94.5l-14 -11q-42 57 -108 91.5t-157 34.5q-51 0 -91 -13t-67.5 -36.5t-41.5 -54.5t-14 -67q0 -47 21 -75.5t55.5 -46t78.5 -27t91 -18.5q48 -9 95 -20t83.5 -31t59 -53.5t22.5 -86.5q0 -41 -16 -78t-48 -65.5t-79 -45t-108 -16.5zM446 965h25l-130 -140h-20z" />
    <glyph glyph-name="sacute" unicode="&#x15b;" horiz-adv-x="506" 
d="M261 -11q-44 0 -79.5 9.5t-64 25t-50 35t-37.5 40.5l14 11q15 -22 35.5 -41t47 -33.5t60 -23t74.5 -8.5q44 0 78 11t56.5 29.5t34 43.5t11.5 53q0 34 -16 56t-42.5 36.5t-60.5 23t-70 16.5t-71 17t-62 24t-44 38t-17 59q0 28 11.5 53.5t34.5 45t57.5 31t80.5 11.5
q69 0 121 -27.5t81 -65.5l-13 -10q-27 37 -76 62.5t-113 25.5q-42 0 -73.5 -10t-52.5 -27.5t-31.5 -40.5t-10.5 -48q0 -32 15.5 -52.5t41.5 -34t59.5 -22t68.5 -15.5q36 -8 71.5 -17.5t63.5 -25t45 -40.5t17 -63q0 -31 -13 -58.5t-37.5 -48.5t-61 -33t-83.5 -12zM353 777h25
l-130 -140h-20z" />
    <glyph glyph-name="Scircumflex" unicode="&#x15c;" horiz-adv-x="673" 
d="M353 -10q-105 0 -180 38.5t-127 109.5l14 12q49 -72 122.5 -108t170.5 -36q58 0 102 15.5t73 41.5t44 60t15 72q0 49 -21.5 79.5t-56.5 49t-79.5 29t-91.5 18.5q-48 9 -94 19.5t-82.5 30t-58.5 50.5t-22 82q0 39 16 73.5t46 59.5t72.5 39.5t96.5 14.5q97 0 165 -36.5
t114 -94.5l-14 -11q-42 57 -108 91.5t-157 34.5q-51 0 -91 -13t-67.5 -36.5t-41.5 -54.5t-14 -67q0 -47 21 -75.5t55.5 -46t78.5 -27t91 -18.5q48 -9 95 -20t83.5 -31t59 -53.5t22.5 -86.5q0 -41 -16 -78t-48 -65.5t-79 -45t-108 -16.5zM332 955h15l119 -140h-21l-106 125
l-106 -125h-20z" />
    <glyph glyph-name="scircumflex" unicode="&#x15d;" horiz-adv-x="506" 
d="M261 -11q-44 0 -79.5 9.5t-64 25t-50 35t-37.5 40.5l14 11q15 -22 35.5 -41t47 -33.5t60 -23t74.5 -8.5q44 0 78 11t56.5 29.5t34 43.5t11.5 53q0 34 -16 56t-42.5 36.5t-60.5 23t-70 16.5t-71 17t-62 24t-44 38t-17 59q0 28 11.5 53.5t34.5 45t57.5 31t80.5 11.5
q69 0 121 -27.5t81 -65.5l-13 -10q-27 37 -76 62.5t-113 25.5q-42 0 -73.5 -10t-52.5 -27.5t-31.5 -40.5t-10.5 -48q0 -32 15.5 -52.5t41.5 -34t59.5 -22t68.5 -15.5q36 -8 71.5 -17.5t63.5 -25t45 -40.5t17 -63q0 -31 -13 -58.5t-37.5 -48.5t-61 -33t-83.5 -12zM239 767h15
l119 -140h-21l-106 125l-106 -125h-20z" />
    <glyph glyph-name="Scedilla" unicode="&#x15e;" horiz-adv-x="673" 
d="M335 -237q-44 0 -74 14.5t-50 34.5l15 10q22 -20 45.5 -32t63.5 -12q48 0 77 19.5t29 49.5q0 26 -29 43.5t-80 17.5h-15v84q-91 6 -157 43.5t-114 102.5l14 12q49 -72 122.5 -108t170.5 -36q58 0 102 15.5t73 41.5t44 60t15 72q0 49 -21.5 79.5t-56.5 49t-79.5 29
t-91.5 18.5q-48 9 -94 19.5t-82.5 30t-58.5 50.5t-22 82q0 39 16 73.5t46 59.5t72.5 39.5t96.5 14.5q97 0 165 -36.5t114 -94.5l-14 -11q-42 57 -108 91.5t-157 34.5q-51 0 -91 -13t-67.5 -36.5t-41.5 -54.5t-14 -67q0 -47 21 -75.5t55.5 -46t78.5 -27t91 -18.5
q48 -9 95 -20t83.5 -31t59 -53.5t22.5 -86.5q0 -41 -16 -78t-48 -65.5t-79 -45t-108 -16.5h-10.5t-10.5 1v-70q57 0 92 -19.5t35 -54.5q0 -37 -33.5 -60.5t-90.5 -23.5z" />
    <glyph glyph-name="scedilla" unicode="&#x15f;" horiz-adv-x="506" 
d="M273 -232q-44 0 -74 14.5t-50 34.5l15 10q22 -20 45.5 -32t63.5 -12q48 0 77 19.5t29 49.5q0 26 -29 43.5t-80 17.5h-15v76q-42 1 -77 10.5t-62.5 25t-49 35t-36.5 39.5l14 11q30 -43 80 -73.5t131 -32.5h6q44 0 78 11t56.5 29.5t34 43.5t11.5 53q0 34 -16 56t-42.5 36.5
t-60.5 23t-70 16.5t-71 17t-62 24t-44 38t-17 59q0 28 11.5 53.5t34.5 45t57.5 31t80.5 11.5q69 0 121 -27.5t81 -65.5l-13 -10q-27 37 -76 62.5t-113 25.5q-42 0 -73.5 -10t-52.5 -27.5t-31.5 -40.5t-10.5 -48q0 -32 15.5 -52.5t41.5 -34t59.5 -22t68.5 -15.5
q36 -8 71.5 -17.5t63.5 -25t45 -40.5t17 -63q0 -30 -12 -57t-36 -48t-58.5 -33.5t-79.5 -13.5v-63q57 0 92 -19.5t35 -54.5q0 -37 -33.5 -60.5t-90.5 -23.5z" />
    <glyph glyph-name="Scaron" unicode="&#x160;" horiz-adv-x="673" 
d="M353 -10q-105 0 -180 38.5t-127 109.5l14 12q49 -72 122.5 -108t170.5 -36q58 0 102 15.5t73 41.5t44 60t15 72q0 49 -21.5 79.5t-56.5 49t-79.5 29t-91.5 18.5q-48 9 -94 19.5t-82.5 30t-58.5 50.5t-22 82q0 39 16 73.5t46 59.5t72.5 39.5t96.5 14.5q97 0 165 -36.5
t114 -94.5l-14 -11q-42 57 -108 91.5t-157 34.5q-51 0 -91 -13t-67.5 -36.5t-41.5 -54.5t-14 -67q0 -47 21 -75.5t55.5 -46t78.5 -27t91 -18.5q48 -9 95 -20t83.5 -31t59 -53.5t22.5 -86.5q0 -41 -16 -78t-48 -65.5t-79 -45t-108 -16.5zM212 965h20l106 -125l106 125h21
l-119 -140h-15z" />
    <glyph glyph-name="scaron" unicode="&#x161;" horiz-adv-x="506" 
d="M261 -11q-44 0 -79.5 9.5t-64 25t-50 35t-37.5 40.5l14 11q15 -22 35.5 -41t47 -33.5t60 -23t74.5 -8.5q44 0 78 11t56.5 29.5t34 43.5t11.5 53q0 34 -16 56t-42.5 36.5t-60.5 23t-70 16.5t-71 17t-62 24t-44 38t-17 59q0 28 11.5 53.5t34.5 45t57.5 31t80.5 11.5
q69 0 121 -27.5t81 -65.5l-13 -10q-27 37 -76 62.5t-113 25.5q-42 0 -73.5 -10t-52.5 -27.5t-31.5 -40.5t-10.5 -48q0 -32 15.5 -52.5t41.5 -34t59.5 -22t68.5 -15.5q36 -8 71.5 -17.5t63.5 -25t45 -40.5t17 -63q0 -31 -13 -58.5t-37.5 -48.5t-61 -33t-83.5 -12zM123 777h20
l106 -125l106 125h21l-119 -140h-15z" />
    <glyph glyph-name="Tcommaaccent" unicode="&#x162;" horiz-adv-x="639" 
d="M310 715h-252v15h523v-15h-254v-715h-17v715zM290 -251q13 7 24 19.5t19 27t12.5 29.5t4.5 29q0 24 -10 32q3 -5 3 -10q0 -20 -20 -20q-9 0 -16 6.5t-7 17.5t7 18.5t20 7.5q17 0 27 -13t10 -39q0 -33 -20 -65t-46 -50z" />
    <glyph glyph-name="tcommaaccent" unicode="&#x163;" horiz-adv-x="354" 
d="M26 540h95v124l16 16v-140h169v-14h-169v-404q0 -57 27 -84.5t68 -27.5q28 0 47 8.5t37 25.5l10 -12q-20 -19 -42 -28t-52 -9q-48 0 -79.5 30.5t-31.5 96.5v404h-95v14zM189 -251q13 7 24 19.5t19 27t12.5 29.5t4.5 29q0 24 -10 32q3 -5 3 -10q0 -20 -20 -20
q-9 0 -16 6.5t-7 17.5t7 18.5t20 7.5q17 0 27 -13t10 -39q0 -33 -20 -65t-46 -50z" />
    <glyph glyph-name="Tcaron" unicode="&#x164;" horiz-adv-x="639" 
d="M310 715h-252v15h523v-15h-254v-715h-17v715zM194 960h20l106 -125l106 125h21l-119 -140h-15z" />
    <glyph glyph-name="tcaron" unicode="&#x165;" horiz-adv-x="354" 
d="M26 540h95v124l16 16v-140h169v-14h-169v-404q0 -57 27 -84.5t68 -27.5q28 0 47 8.5t37 25.5l10 -12q-20 -19 -42 -28t-52 -9q-48 0 -79.5 30.5t-31.5 96.5v404h-95v14zM245 645q13 7 24 19.5t19 27t12.5 29.5t4.5 29q0 22 -10 30q3 -3 3 -8q0 -20 -20 -20q-9 0 -16 6.5
t-7 17.5t7 18.5t20 7.5q17 0 27 -13t10 -39q0 -33 -20 -65t-46 -50z" />
    <glyph glyph-name="Tbar" unicode="&#x166;" horiz-adv-x="643" 
d="M169 376h143v339h-252v15h523v-15h-254v-339h164v-15h-164v-361h-17v361h-143v15z" />
    <glyph glyph-name="tbar" unicode="&#x167;" horiz-adv-x="356" 
d="M25 540h95v124l16 16v-140h169v-14h-169v-223h139v-13h-139v-168q0 -57 27 -84.5t68 -27.5q28 0 47 8.5t37 25.5l10 -12q-20 -19 -42 -28t-52 -9q-48 0 -79.5 30.5t-31.5 96.5v168h-92v13h92v223h-95v14z" />
    <glyph glyph-name="Utilde" unicode="&#x168;" horiz-adv-x="701" 
d="M350 -10q-58 0 -105.5 19t-81.5 52.5t-52.5 81t-18.5 104.5v483h17v-482q0 -54 17.5 -99t49.5 -76.5t76.5 -49t97.5 -17.5t97.5 17.5t76.5 49t50 76t18 99.5v482h17v-482q0 -57 -18.5 -104.5t-52.5 -81.5t-82 -53t-106 -19zM156 812q0 38 23 61t59 23q25 0 48 -11.5
t46 -25.5t46 -25.5t46 -11.5q31 0 50.5 16.5t19.5 54.5h16q0 -42 -23.5 -63.5t-63.5 -21.5q-27 0 -51 12t-47 26t-44.5 25t-42.5 11q-27 0 -46.5 -17.5t-19.5 -52.5h-16z" />
    <glyph glyph-name="utilde" unicode="&#x169;" 
d="M315 -11q-54 0 -97.5 16.5t-74.5 47.5t-48 76t-17 102v309h16v-310q0 -105 58 -165.5t163 -60.5q51 0 92.5 18t71 50t46 74.5t16.5 92.5v301h15v-540h-14v166q-8 -36 -28 -68.5t-49 -56.5t-67 -38t-83 -14zM130 622q0 38 23 61t59 23q25 0 48 -11.5t46 -25.5t46 -25.5
t46 -11.5q31 0 50.5 16.5t19.5 54.5h16q0 -42 -23.5 -63.5t-63.5 -21.5q-27 0 -51 12t-47 26t-44.5 25t-42.5 11q-27 0 -46.5 -17.5t-19.5 -52.5h-16z" />
    <glyph glyph-name="Umacron" unicode="&#x16a;" horiz-adv-x="701" 
d="M350 -10q-58 0 -105.5 19t-81.5 52.5t-52.5 81t-18.5 104.5v483h17v-482q0 -54 17.5 -99t49.5 -76.5t76.5 -49t97.5 -17.5t97.5 17.5t76.5 49t50 76t18 99.5v482h17v-482q0 -57 -18.5 -104.5t-52.5 -81.5t-82 -53t-106 -19zM212 848h264v-15h-264v15z" />
    <glyph glyph-name="umacron" unicode="&#x16b;" 
d="M315 -11q-54 0 -97.5 16.5t-74.5 47.5t-48 76t-17 102v309h16v-310q0 -105 58 -165.5t163 -60.5q51 0 92.5 18t71 50t46 74.5t16.5 92.5v301h15v-540h-14v166q-8 -36 -28 -68.5t-49 -56.5t-67 -38t-83 -14zM186 658h264v-15h-264v15z" />
    <glyph glyph-name="Ubreve" unicode="&#x16c;" horiz-adv-x="701" 
d="M350 -10q-58 0 -105.5 19t-81.5 52.5t-52.5 81t-18.5 104.5v483h17v-482q0 -54 17.5 -99t49.5 -76.5t76.5 -49t97.5 -17.5t97.5 17.5t76.5 49t50 76t18 99.5v482h17v-482q0 -57 -18.5 -104.5t-52.5 -81.5t-82 -53t-106 -19zM346 799q-41 0 -71.5 13t-50.5 33.5t-30 46.5
t-10 52h16q0 -23 9 -46t27 -42t45.5 -30.5t64.5 -11.5q34 0 61 11.5t45.5 30.5t28.5 42t10 46h16q0 -26 -11 -52t-32 -46.5t-51 -33.5t-67 -13z" />
    <glyph glyph-name="ubreve" unicode="&#x16d;" 
d="M315 -11q-54 0 -97.5 16.5t-74.5 47.5t-48 76t-17 102v309h16v-310q0 -105 58 -165.5t163 -60.5q51 0 92.5 18t71 50t46 74.5t16.5 92.5v301h15v-540h-14v166q-8 -36 -28 -68.5t-49 -56.5t-67 -38t-83 -14zM320 609q-41 0 -71.5 13t-50.5 33.5t-30 46.5t-10 52h16
q0 -23 9 -46t27 -42t45.5 -30.5t64.5 -11.5q34 0 61 11.5t45.5 30.5t28.5 42t10 46h16q0 -26 -11 -52t-32 -46.5t-51 -33.5t-67 -13z" />
    <glyph glyph-name="Uring" unicode="&#x16e;" horiz-adv-x="701" 
d="M350 -10q-58 0 -105.5 19t-81.5 52.5t-52.5 81t-18.5 104.5v483h17v-482q0 -54 17.5 -99t49.5 -76.5t76.5 -49t97.5 -17.5t97.5 17.5t76.5 49t50 76t18 99.5v482h17v-482q0 -57 -18.5 -104.5t-52.5 -81.5t-82 -53t-106 -19zM346 799q-34 0 -58.5 24.5t-24.5 58.5
q0 36 24.5 60.5t58.5 24.5q36 0 60.5 -24.5t24.5 -60.5q0 -34 -24.5 -58.5t-60.5 -24.5zM346 814q29 0 49.5 20t20.5 48q0 29 -20.5 49.5t-49.5 20.5q-28 0 -48 -20.5t-20 -49.5q0 -28 20 -48t48 -20z" />
    <glyph glyph-name="uring" unicode="&#x16f;" 
d="M315 -11q-54 0 -97.5 16.5t-74.5 47.5t-48 76t-17 102v309h16v-310q0 -105 58 -165.5t163 -60.5q51 0 92.5 18t71 50t46 74.5t16.5 92.5v301h15v-540h-14v166q-8 -36 -28 -68.5t-49 -56.5t-67 -38t-83 -14zM320 609q-34 0 -58.5 24.5t-24.5 58.5q0 36 24.5 60.5
t58.5 24.5q36 0 60.5 -24.5t24.5 -60.5q0 -34 -24.5 -58.5t-60.5 -24.5zM320 624q29 0 49.5 20t20.5 48q0 29 -20.5 49.5t-49.5 20.5q-28 0 -48 -20.5t-20 -49.5q0 -28 20 -48t48 -20z" />
    <glyph glyph-name="Uhungarumlaut" unicode="&#x170;" horiz-adv-x="701" 
d="M350 -10q-58 0 -105.5 19t-81.5 52.5t-52.5 81t-18.5 104.5v483h17v-482q0 -54 17.5 -99t49.5 -76.5t76.5 -49t97.5 -17.5t97.5 17.5t76.5 49t50 76t18 99.5v482h17v-482q0 -57 -18.5 -104.5t-52.5 -81.5t-82 -53t-106 -19zM414 949h25l-130 -140h-20zM494 949h25
l-130 -140h-20z" />
    <glyph glyph-name="uhungarumlaut" unicode="&#x171;" 
d="M315 -11q-54 0 -97.5 16.5t-74.5 47.5t-48 76t-17 102v309h16v-310q0 -105 58 -165.5t163 -60.5q51 0 92.5 18t71 50t46 74.5t16.5 92.5v301h15v-540h-14v166q-8 -36 -28 -68.5t-49 -56.5t-67 -38t-83 -14zM388 759h25l-130 -140h-20zM468 759h25l-130 -140h-20z" />
    <glyph glyph-name="Uogonek" unicode="&#x172;" horiz-adv-x="701" 
d="M411 -194q-53 0 -84.5 23.5t-31.5 61.5q0 26 17.5 51.5t58.5 48.5q-5 0 -10.5 -0.5t-10.5 -0.5q-58 0 -105.5 19t-81.5 52.5t-52.5 81t-18.5 104.5v483h17v-482q0 -54 17.5 -99t49.5 -76.5t76.5 -49t97.5 -17.5t97.5 17.5t76.5 49t50 76t18 99.5v482h17v-482
q0 -47 -13 -88t-37 -73.5t-58 -55t-76 -32.5q-60 -26 -86.5 -53t-26.5 -56q0 -31 27 -50t72 -19q35 0 61.5 14t48.5 35l14 -10q-22 -21 -52.5 -37.5t-71.5 -16.5z" />
    <glyph glyph-name="uogonek" unicode="&#x173;" 
d="M550 -221q-44 0 -69 24.5t-25 60.5q0 37 24 72t62 71v159q-8 -36 -28 -68.5t-49 -56.5t-67 -38t-83 -14q-54 0 -97.5 16.5t-74.5 47.5t-48 76t-17 102v309h16v-310q0 -105 58 -165.5t163 -60.5q51 0 92.5 18t71 50t46 74.5t16.5 92.5v301h15v-538l3 -2q-39 -32 -63.5 -69
t-24.5 -66q0 -32 21.5 -51.5t57.5 -19.5q30 0 51 13t41 32l12 -11q-20 -19 -44 -34t-60 -15z" />
    <glyph glyph-name="Wcircumflex" unicode="&#x174;" horiz-adv-x="1105" 
d="M67 730h19l202 -703l252 703h12l250 -704l218 704h18l-226 -730h-18l-248 700l-250 -700h-17zM537 950h15l119 -140h-21l-106 125l-106 -125h-20z" />
    <glyph glyph-name="wcircumflex" unicode="&#x175;" horiz-adv-x="868" 
d="M44 540h16l158 -509l211 509h9l203 -514l167 514h16l-177 -540h-11l-203 516l-212 -516h-9zM424 760h15l119 -140h-21l-106 125l-106 -125h-20z" />
    <glyph glyph-name="Ycircumflex" unicode="&#x176;" horiz-adv-x="655" 
d="M320 273l-275 457h21l263 -439l261 439h20l-273 -456v-274h-17v273zM323 940h15l119 -140h-21l-106 125l-106 -125h-20z" />
    <glyph glyph-name="ycircumflex" unicode="&#x177;" horiz-adv-x="591" 
d="M131 -172q-45 0 -75 18t-48 44l13 11q18 -25 44.5 -41.5t66.5 -16.5q27 0 48.5 9.5t39.5 29t35 49t36 69.5l2 4l-257 536h17l247 -519l242 519h17l-255 -546q-20 -42 -38 -73t-38 -51.5t-43.5 -31t-53.5 -10.5zM289 752h15l119 -140h-21l-106 125l-106 -125h-20z" />
    <glyph glyph-name="Ydieresis" unicode="&#x178;" horiz-adv-x="655" 
d="M320 273l-275 457h21l263 -439l261 439h20l-273 -456v-274h-17v273zM244 853q0 11 7.5 18t18.5 7q25 0 25 -25q0 -11 -7.5 -18t-18.5 -7q-25 0 -25 25zM363 853q0 25 25 25t25 -25t-25 -25t-25 25z" />
    <glyph glyph-name="Zacute" unicode="&#x179;" horiz-adv-x="649" 
d="M65 16l494 698h-469v16h490v-16l-495 -698h500v-16h-520v16zM435 960h25l-130 -140h-20z" />
    <glyph glyph-name="zacute" unicode="&#x17a;" horiz-adv-x="541" 
d="M50 15l417 510h-391v15h412v-14l-418 -511h419v-15h-439v15zM386 771h25l-130 -140h-20z" />
    <glyph glyph-name="Zdotaccent" unicode="&#x17b;" horiz-adv-x="649" 
d="M65 16l494 698h-469v16h490v-16l-495 -698h500v-16h-520v16zM305 866q0 25 25 25t25 -25t-25 -25t-25 25z" />
    <glyph glyph-name="zdotaccent" unicode="&#x17c;" horiz-adv-x="541" 
d="M50 15l417 510h-391v15h412v-14l-418 -511h419v-15h-439v15zM256 677q0 25 25 25t25 -25t-25 -25t-25 25z" />
    <glyph glyph-name="Zcaron" unicode="&#x17d;" horiz-adv-x="649" 
d="M65 16l494 698h-469v16h490v-16l-495 -698h500v-16h-520v16zM205 960h20l106 -125l106 125h21l-119 -140h-15z" />
    <glyph glyph-name="zcaron" unicode="&#x17e;" horiz-adv-x="541" 
d="M50 15l417 510h-391v15h412v-14l-418 -511h419v-15h-439v15zM156 771h20l106 -125l106 125h21l-119 -140h-15z" />
    <glyph glyph-name="florin" unicode="&#x192;" horiz-adv-x="568" 
d="M141 392h150l44 169q12 48 25 80.5t31 52t43 28t62 8.5h2v-15q-35 0 -57.5 -7t-38 -24.5t-27 -48t-23.5 -78.5l-43 -165h151v-16h-155l-53 -207q-12 -48 -24.5 -80t-31 -52t-48 -28.5t-76.5 -8.5h-2v15q43 0 69.5 7t43.5 25t28 48.5t23 77.5l53 203h-146v16z" />
    <glyph glyph-name="Aringacute" unicode="&#x1fa;" horiz-adv-x="728" 
d="M350 716q-29 5 -48.5 28.5t-19.5 53.5q0 36 24.5 60.5t58.5 24.5q36 0 60.5 -24.5t24.5 -60.5q0 -31 -20 -54t-51 -28l303 -716h-18l-103 243h-394l-103 -243h-18zM173 258h382l-191 450zM365 730q29 0 49.5 20t20.5 48q0 29 -20.5 49.5t-49.5 20.5q-28 0 -48 -20.5
t-20 -49.5q0 -26 18 -46t44 -22h6zM475 1092h25l-130 -140h-20z" />
    <glyph glyph-name="aringacute" unicode="&#x1fb;" horiz-adv-x="620" 
d="M250 -10q-52 0 -90 12t-62.5 32.5t-36 48t-11.5 58.5q0 42 18.5 73t52 51.5t80 30.5t103.5 10h221v46q0 39 -13.5 72.5t-40 58t-66.5 38.5t-93 14q-42 0 -75.5 -6.5t-60.5 -19t-49.5 -31t-42.5 -42.5l-14 13q22 24 47 43t54 32t63.5 19.5t77.5 6.5q57 0 99.5 -15
t71 -41.5t43 -62.5t14.5 -79v-352h-15v160q-17 -37 -44.5 -68.5t-63.5 -54t-78.5 -35t-88.5 -12.5zM250 5q46 0 89 13.5t79.5 38t64 58t42.5 72.5v105h-220q-53 0 -97 -9.5t-75.5 -28t-48.5 -47t-17 -66.5q0 -27 10.5 -51.5t33 -43t57 -30t82.5 -11.5zM421 1002h25
l-130 -140h-20zM312 626q-34 0 -58.5 24.5t-24.5 58.5q0 36 24.5 60.5t58.5 24.5q36 0 60.5 -24.5t24.5 -60.5q0 -34 -24.5 -58.5t-60.5 -24.5zM312 641q29 0 49.5 20t20.5 48q0 29 -20.5 49.5t-49.5 20.5q-28 0 -48 -20.5t-20 -49.5q0 -28 20 -48t48 -20z" />
    <glyph glyph-name="AEacute" unicode="&#x1fc;" horiz-adv-x="1092" 
d="M471 730h532v-16h-510l71 -341h439v-15h-436l70 -342h366v-16h-378l-49 235h-369l-133 -235h-20zM216 250h357l-96 460zM669 960h25l-130 -140h-20z" />
    <glyph glyph-name="aeacute" unicode="&#x1fd;" horiz-adv-x="1132" 
d="M249 -10q-104 0 -152.5 39.5t-48.5 101.5q0 42 18.5 71.5t52 48t80 27t103.5 8.5h222v61q0 39 -13.5 73.5t-41 60t-69 40.5t-97.5 15q-39 0 -70.5 -6.5t-58 -19t-48.5 -31.5t-42 -43l-14 13q45 49 99 75.5t134 26.5q59 0 103 -16t73 -43.5t43.5 -64.5t14.5 -79
q12 44 36.5 81t59 64t78.5 42.5t94 15.5q62 0 112 -21.5t85.5 -59t54.5 -88t19 -107.5v-3h-538v-2q0 -56 17.5 -104.5t51.5 -84.5t83.5 -56.5t113.5 -20.5q82 0 143.5 34.5t95.5 103.5l15 -8q-36 -72 -100.5 -108.5t-152.5 -36.5q-52 0 -95 13t-76 36t-57 54.5t-37 69.5
q-42 -81 -117.5 -126.5t-173.5 -45.5zM805 536q-55 0 -102.5 -19.5t-83 -53.5t-57 -79.5t-24.5 -97.5h522q-2 52 -20.5 97.5t-51.5 79.5t-79.5 53.5t-103.5 19.5zM249 5q47 0 90.5 13.5t80.5 37t66 56t49 70.5q-11 39 -11 88v2h-221q-53 0 -96.5 -7.5t-75 -24.5t-49 -44
t-17.5 -65q0 -27 11 -50t33.5 -40t57 -26.5t82.5 -9.5zM663 751h25l-130 -140h-20z" />
    <glyph glyph-name="Oslashacute" unicode="&#x1fe;" horiz-adv-x="898" 
d="M449 -10q-60 0 -114.5 17.5t-99.5 49.5l-69 -94l-14 10l69 94q-67 51 -107 128.5t-40 169.5q0 78 29.5 146t80.5 119t119 80.5t146 29.5q61 0 116 -18.5t102 -51.5l68 92l13 -8l-69 -93q66 -52 105.5 -128.5t39.5 -167.5q0 -78 -29.5 -146t-80.5 -119t-119 -80.5
t-146 -29.5zM92 365q0 -88 37.5 -161.5t101.5 -123.5l426 576q-45 32 -97 50t-111 18q-74 0 -139 -28.5t-113.5 -77t-76.5 -114t-28 -139.5zM449 6q74 0 139 28t113.5 77t76.5 114.5t28 139.5q0 86 -37 159t-100 123l-424 -577q44 -30 95.5 -47t108.5 -17zM554 965h25
l-130 -140h-20z" />
    <glyph glyph-name="oslashacute" unicode="&#x1ff;" horiz-adv-x="672" 
d="M164 47q-50 38 -79.5 96t-29.5 127q0 58 22 109.5t60.5 89.5t89.5 60t109 22q45 0 84.5 -13t73.5 -36l31 42l12 -9l-30 -42q51 -38 80.5 -96t29.5 -127q0 -59 -22 -110t-60 -89t-89.5 -60t-109.5 -22q-45 0 -85 13t-74 36l-31 -43l-13 9zM72 270q0 -65 27 -119.5
t74 -90.5l312 429q-32 23 -69.5 35t-79.5 12q-55 0 -103 -21t-84 -57t-56.5 -84.5t-20.5 -103.5zM336 4q55 0 103 21t83.5 57t56 84.5t20.5 103.5q0 64 -27.5 119t-74.5 91l-311 -430q32 -22 70 -34t80 -12zM441 776h25l-130 -140h-20z" />
    <glyph glyph-name="Scommaaccent" unicode="&#x218;" horiz-adv-x="673" 
d="M353 -10q-105 0 -180 38.5t-127 109.5l14 12q49 -72 122.5 -108t170.5 -36q58 0 102 15.5t73 41.5t44 60t15 72q0 49 -21.5 79.5t-56.5 49t-79.5 29t-91.5 18.5q-48 9 -94 19.5t-82.5 30t-58.5 50.5t-22 82q0 39 16 73.5t46 59.5t72.5 39.5t96.5 14.5q97 0 165 -36.5
t114 -94.5l-14 -11q-42 57 -108 91.5t-157 34.5q-51 0 -91 -13t-67.5 -36.5t-41.5 -54.5t-14 -67q0 -47 21 -75.5t55.5 -46t78.5 -27t91 -18.5q48 -9 95 -20t83.5 -31t59 -53.5t22.5 -86.5q0 -41 -16 -78t-48 -65.5t-79 -45t-108 -16.5zM311 -251q13 7 24 19.5t19 27
t12.5 29.5t4.5 29q0 24 -10 32q3 -5 3 -10q0 -20 -20 -20q-9 0 -16 6.5t-7 17.5t7 18.5t20 7.5q17 0 27 -13t10 -39q0 -33 -20 -65t-46 -50z" />
    <glyph glyph-name="scommaaccent" unicode="&#x219;" horiz-adv-x="506" 
d="M261 -11q-44 0 -79.5 9.5t-64 25t-50 35t-37.5 40.5l14 11q15 -22 35.5 -41t47 -33.5t60 -23t74.5 -8.5q44 0 78 11t56.5 29.5t34 43.5t11.5 53q0 34 -16 56t-42.5 36.5t-60.5 23t-70 16.5t-71 17t-62 24t-44 38t-17 59q0 28 11.5 53.5t34.5 45t57.5 31t80.5 11.5
q69 0 121 -27.5t81 -65.5l-13 -10q-27 37 -76 62.5t-113 25.5q-42 0 -73.5 -10t-52.5 -27.5t-31.5 -40.5t-10.5 -48q0 -32 15.5 -52.5t41.5 -34t59.5 -22t68.5 -15.5q36 -8 71.5 -17.5t63.5 -25t45 -40.5t17 -63q0 -31 -13 -58.5t-37.5 -48.5t-61 -33t-83.5 -12zM221 -257
q13 7 24 19.5t19 27t12.5 29.5t4.5 29q0 24 -10 32q3 -5 3 -10q0 -20 -20 -20q-9 0 -16 6.5t-7 17.5t7 18.5t20 7.5q17 0 27 -13t10 -39q0 -33 -20 -65t-46 -50z" />
    <glyph glyph-name="dotlessj" unicode="&#x237;" horiz-adv-x="190" 
d="M-72 -207q48 0 79 6t49 23t25 49t7 84v585h16v-586q0 -54 -8 -88.5t-28 -54t-53.5 -27t-84.5 -7.5h-2v16z" />
    <glyph glyph-name="circumflex" unicode="&#x2c6;" horiz-adv-x="511" 
d="M248 760h15l119 -140h-21l-106 125l-106 -125h-20z" />
    <glyph glyph-name="caron" unicode="&#x2c7;" horiz-adv-x="511" 
d="M129 770h20l106 -125l106 125h21l-119 -140h-15z" />
    <glyph glyph-name="breve" unicode="&#x2d8;" horiz-adv-x="511" 
d="M255 620q-41 0 -71.5 13t-50.5 33.5t-30 46.5t-10 52h16q0 -23 9 -46t27 -42t45.5 -30.5t64.5 -11.5q34 0 61 11.5t45.5 30.5t28.5 42t10 46h16q0 -26 -11 -52t-32 -46.5t-51 -33.5t-67 -13z" />
    <glyph glyph-name="dotaccent" unicode="&#x2d9;" horiz-adv-x="511" 
d="M221 676q0 25 25 25t25 -25t-25 -25t-25 25z" />
    <glyph glyph-name="ring" unicode="&#x2da;" horiz-adv-x="511" 
d="M249 620q-34 0 -58.5 24.5t-24.5 58.5q0 36 24.5 60.5t58.5 24.5q36 0 60.5 -24.5t24.5 -60.5q0 -34 -24.5 -58.5t-60.5 -24.5zM249 635q29 0 49.5 20t20.5 48q0 29 -20.5 49.5t-49.5 20.5q-28 0 -48 -20.5t-20 -49.5q0 -28 20 -48t48 -20z" />
    <glyph glyph-name="ogonek" unicode="&#x2db;" horiz-adv-x="511" 
d="M246 -194q-53 0 -84.5 23.5t-31.5 61.5q0 32 27.5 62.5t91.5 58.5l13 -12q-61 -26 -88 -53.5t-27 -56.5q0 -31 27 -50t72 -19q35 0 61.5 14t48.5 35l14 -10q-22 -21 -52.5 -37.5t-71.5 -16.5z" />
    <glyph glyph-name="tilde" unicode="&#x2dc;" horiz-adv-x="511" 
d="M78 633q0 38 23 61t59 23q25 0 48 -11.5t46 -25.5t46 -25.5t46 -11.5q31 0 50.5 16.5t19.5 54.5h16q0 -42 -23.5 -63.5t-63.5 -21.5q-27 0 -51 12t-47 26t-44.5 25t-42.5 11q-27 0 -46.5 -17.5t-19.5 -52.5h-16v0z" />
    <glyph glyph-name="hungarumlaut" unicode="&#x2dd;" horiz-adv-x="511" 
d="M263 770h25l-130 -140h-20zM343 770h25l-130 -140h-20z" />
    <glyph glyph-name="uni0328" unicode="&#x328;" horiz-adv-x="511" 
d="M253 -221q-44 0 -69 24.5t-25 60.5q0 37 25 72.5t63 72.5l15 -9q-39 -32 -63.5 -69t-24.5 -66q0 -32 21.5 -51.5t57.5 -19.5q30 0 51 13t41 32l12 -11q-20 -19 -44 -34t-60 -15z" />
    <glyph glyph-name="pi" unicode="&#x3c0;" horiz-adv-x="721" 
d="M43 730h636v-16h-141v-588q0 -23 4.5 -43t16 -35t29.5 -23.5t45 -8.5h36v-16h-39q-29 0 -50 9.5t-34 26.5t-19 40t-6 50v588h-330v-714h-17v714h-131v16z" />
    <glyph glyph-name="pi" unicode="&#x3d6;" horiz-adv-x="721" 
d="M43 730h636v-16h-141v-588q0 -23 4.5 -43t16 -35t29.5 -23.5t45 -8.5h36v-16h-39q-29 0 -50 9.5t-34 26.5t-19 40t-6 50v588h-330v-714h-17v714h-131v16z" />
    <glyph glyph-name="uni0E3F" unicode="&#xe3f;" horiz-adv-x="551" 
d="M75 666h192v64h17v-64h42q33 0 61.5 -11.5t49.5 -32t33.5 -47.5t12.5 -58q0 -52 -29.5 -90.5t-77.5 -49.5q51 -13 83 -53.5t32 -95.5q0 -33 -12 -62t-33.5 -50.5t-50.5 -33.5t-63 -12h-48v-70h-17v70h-192v596zM91 85h176v285h-176v-285zM91 385h176v266h-176v-266z
M284 370v-285h47q31 0 57 11t45.5 30.5t30.5 45.5t11 56t-11 55.5t-30.5 45t-45.5 30.5t-56 11h-48zM284 651v-266h50q28 0 52.5 10.5t42.5 28.5t28 42t10 51q0 28 -11.5 52.5t-31 42.5t-45.5 28.5t-55 10.5h-40z" />
    <glyph glyph-name="Wgrave" unicode="&#x1e80;" horiz-adv-x="1105" 
d="M67 730h19l202 -703l252 703h12l250 -704l218 704h18l-226 -730h-18l-248 700l-250 -700h-17zM403 961h25l125 -140h-20z" />
    <glyph glyph-name="wgrave" unicode="&#x1e81;" horiz-adv-x="868" 
d="M44 540h16l158 -509l211 509h9l203 -514l167 514h16l-177 -540h-11l-203 516l-212 -516h-9zM290 771h25l125 -140h-20z" />
    <glyph glyph-name="Wacute" unicode="&#x1e82;" horiz-adv-x="1105" 
d="M67 730h19l202 -703l252 703h12l250 -704l218 704h18l-226 -730h-18l-248 700l-250 -700h-17zM651 960h25l-130 -140h-20z" />
    <glyph glyph-name="wacute" unicode="&#x1e83;" horiz-adv-x="868" 
d="M44 540h16l158 -509l211 509h9l203 -514l167 514h16l-177 -540h-11l-203 516l-212 -516h-9zM538 770h25l-130 -140h-20z" />
    <glyph glyph-name="Wdieresis" unicode="&#x1e84;" horiz-adv-x="1105" 
d="M67 730h19l202 -703l252 703h12l250 -704l218 704h18l-226 -730h-18l-248 700l-250 -700h-17zM458 863q0 11 7.5 18t18.5 7q25 0 25 -25q0 -11 -7.5 -18t-18.5 -7q-25 0 -25 25zM577 863q0 25 25 25t25 -25t-25 -25t-25 25z" />
    <glyph glyph-name="wdieresis" unicode="&#x1e85;" horiz-adv-x="868" 
d="M44 540h16l158 -509l211 509h9l203 -514l167 514h16l-177 -540h-11l-203 516l-212 -516h-9zM345 673q0 11 7.5 18t18.5 7q25 0 25 -25q0 -11 -7.5 -18t-18.5 -7q-25 0 -25 25zM464 673q0 25 25 25t25 -25t-25 -25t-25 25z" />
    <glyph glyph-name="Ygrave" unicode="&#x1ef2;" horiz-adv-x="655" 
d="M320 273l-275 457h21l263 -439l261 439h20l-273 -456v-274h-17v273zM189 945h25l125 -140h-20z" />
    <glyph glyph-name="ygrave" unicode="&#x1ef3;" horiz-adv-x="591" 
d="M131 -172q-45 0 -75 18t-48 44l13 11q18 -25 44.5 -41.5t66.5 -16.5q27 0 48.5 9.5t39.5 29t35 49t36 69.5l2 4l-257 536h17l247 -519l242 519h17l-255 -546q-20 -42 -38 -73t-38 -51.5t-43.5 -31t-53.5 -10.5zM155 763h25l125 -140h-20z" />
    <glyph glyph-name="figuredash" unicode="&#x2012;" horiz-adv-x="680" 
d="M55 263h570v-16h-570v16z" />
    <glyph glyph-name="endash" unicode="&#x2013;" horiz-adv-x="530" 
d="M55 263h420v-16h-420v16z" />
    <glyph glyph-name="emdash" unicode="&#x2014;" horiz-adv-x="730" 
d="M55 263h620v-16h-620v16z" />
    <glyph glyph-name="uni2015" unicode="&#x2015;" horiz-adv-x="1030" 
d="M55 263h920v-16h-920v16z" />
    <glyph glyph-name="doublebar" unicode="&#x2016;" horiz-adv-x="304" 
d="M75 730h17v-960h-17v960zM212 730h17v-960h-17v960z" />
    <glyph glyph-name="quoteleft" unicode="&#x2018;" horiz-adv-x="173" 
d="M64 620q0 -23 8 -31q-1 2 -1 9q0 20 20 20q9 0 16 -6.5t7 -17.5t-7 -18.5t-20 -7.5q-17 0 -27 13t-10 39q0 33 20 65t46 50l8 -10q-13 -8 -24 -20t-19 -26.5t-12.5 -30t-4.5 -28.5z" />
    <glyph glyph-name="quoteright" unicode="&#x2019;" horiz-adv-x="173" 
d="M47 574q13 7 24 19.5t19 27t12.5 29.5t4.5 29q0 22 -10 30q3 -3 3 -8q0 -20 -20 -20q-9 0 -16 6.5t-7 17.5t7 18.5t20 7.5q17 0 27 -13t10 -39q0 -33 -20 -65t-46 -50z" />
    <glyph glyph-name="quotesinglbase" unicode="&#x201a;" horiz-adv-x="173" 
d="M47 -110q13 7 24 19.5t19 27t12.5 29.5t4.5 29q0 22 -10 30q3 -3 3 -8q0 -20 -20 -20q-9 0 -16 6.5t-7 17.5t7 18.5t20 7.5q17 0 27 -13t10 -39q0 -33 -20 -65t-46 -50z" />
    <glyph glyph-name="reversequoteleft" unicode="&#x201b;" horiz-adv-x="173" 
d="M109 558q-26 18 -42.5 46t-16.5 63q0 30 10.5 46t27.5 16q13 0 20 -7.5t7 -18.5t-7 -17.5t-16 -6.5q-20 0 -20 20v3q-8 -13 -8 -35q0 -29 13.5 -56.5t39.5 -42.5l-8 -10v0z" />
    <glyph glyph-name="quotedblleft" unicode="&#x201c;" horiz-adv-x="283" 
d="M64 620q0 -23 8 -31q-1 2 -1 9q0 20 20 20q9 0 16 -6.5t7 -17.5t-7 -18.5t-20 -7.5q-17 0 -27 13t-10 39q0 33 20 65t46 50l8 -10q-13 -8 -24 -20t-19 -26.5t-12.5 -30t-4.5 -28.5zM174 620q0 -23 8 -31q-1 2 -1 9q0 20 20 20q9 0 16 -6.5t7 -17.5t-7 -18.5t-20 -7.5
q-17 0 -27 13t-10 39q0 33 20 65t46 50l8 -10q-13 -8 -24 -20t-19 -26.5t-12.5 -30t-4.5 -28.5z" />
    <glyph glyph-name="quotedblright" unicode="&#x201d;" horiz-adv-x="283" 
d="M157 574q13 7 24 19.5t19 27t12.5 29.5t4.5 29q0 22 -10 30q3 -3 3 -8q0 -20 -20 -20q-9 0 -16 6.5t-7 17.5t7 18.5t20 7.5q17 0 27 -13t10 -39q0 -33 -20 -65t-46 -50zM47 574q13 7 24 19.5t19 27t12.5 29.5t4.5 29q0 22 -10 30q3 -3 3 -8q0 -20 -20 -20q-9 0 -16 6.5
t-7 17.5t7 18.5t20 7.5q17 0 27 -13t10 -39q0 -33 -20 -65t-46 -50z" />
    <glyph glyph-name="quotedblbase" unicode="&#x201e;" horiz-adv-x="283" 
d="M217 -5q0 22 -10 30q3 -3 3 -8q0 -20 -20 -20q-9 0 -16 6.5t-7 17.5t7 18.5t20 7.5q17 0 27 -13t10 -39q0 -33 -20 -65t-46 -50l-8 10q13 7 24 19.5t19 27t12.5 29.5t4.5 29zM107 -5q0 22 -10 30q3 -3 3 -8q0 -20 -20 -20q-9 0 -16 6.5t-7 17.5t7 18.5t20 7.5
q17 0 27 -13t10 -39q0 -33 -20 -65t-46 -50l-8 10q13 7 24 19.5t19 27t12.5 29.5t4.5 29z" />
    <glyph glyph-name="reversequotedblleft" unicode="&#x201f;" horiz-adv-x="283" 
d="M72 702q-8 -13 -8 -35q0 -29 13.5 -56.5t39.5 -42.5l-8 -10q-26 18 -42.5 46t-16.5 63q0 30 10.5 46t27.5 16q13 0 20 -7.5t7 -18.5t-7 -17.5t-16 -6.5q-20 0 -20 20v3zM182 702q-8 -13 -8 -35q0 -29 13.5 -56.5t39.5 -42.5l-8 -10q-26 18 -42.5 46t-16.5 63
q0 30 10.5 46t27.5 16q13 0 20 -7.5t7 -18.5t-7 -17.5t-16 -6.5q-20 0 -20 20v3z" />
    <glyph glyph-name="dagger" unicode="&#x2020;" horiz-adv-x="603" 
d="M75 500h216v230h17v-230h220v-15h-220v-485h-17v485h-216v15z" />
    <glyph glyph-name="daggerdbl" unicode="&#x2021;" horiz-adv-x="603" 
d="M75 500h216v230h17v-230h220v-15h-220v-234h220v-15h-220v-236h-17v236h-216v15h216v234h-216v15z" />
    <glyph glyph-name="bullet" unicode="&#x2022;" horiz-adv-x="246" 
d="M123 220q-14 0 -23.5 9.5t-9.5 23.5t9.5 23.5t23.5 9.5t23.5 -9.5t9.5 -23.5t-9.5 -23.5t-23.5 -9.5z" />
    <glyph glyph-name="ellipsis" unicode="&#x2026;" horiz-adv-x="484" 
d="M59 22q0 25 25 25t25 -25t-25 -25t-25 25zM217 22q0 25 25 25t25 -25t-25 -25t-25 25zM375 22q0 25 25 25t25 -25t-25 -25t-25 25z" />
    <glyph glyph-name="perthousand" unicode="&#x2030;" horiz-adv-x="1295" 
d="M745 730h23l-627 -730h-23zM629 -11q-33 0 -62.5 12.5t-51 34.5t-34 51t-12.5 62t12.5 62.5t34 51t51 34t62.5 12.5t62 -12.5t51 -34t34.5 -51t12.5 -62.5t-12.5 -62t-34.5 -51t-51 -34.5t-62 -12.5zM629 5q29 0 55.5 11.5t46 31t31 46t11.5 55.5t-11.5 55.5t-31 46
t-46 31t-55.5 11.5t-55.5 -11.5t-46 -31t-31 -46t-11.5 -55.5t11.5 -55.5t31 -46t46 -31t55.5 -11.5zM257 420q-33 0 -62.5 12.5t-51 34.5t-34 51t-12.5 62t12.5 62.5t34 51t51 34t62.5 12.5t62 -12.5t51 -34t34.5 -51t12.5 -62.5t-12.5 -62t-34.5 -51t-51 -34.5t-62 -12.5z
M257 436q29 0 55.5 11.5t46 31t31 46t11.5 55.5t-11.5 55.5t-31 46t-46 31t-55.5 11.5t-55.5 -11.5t-46 -31t-31 -46t-11.5 -55.5t11.5 -55.5t31 -46t46 -31t55.5 -11.5zM1038 -11q-33 0 -62.5 12.5t-51 34.5t-34 51t-12.5 62t12.5 62.5t34 51t51 34t62.5 12.5t62 -12.5
t51 -34t34.5 -51t12.5 -62.5t-12.5 -62t-34.5 -51t-51 -34.5t-62 -12.5zM1038 5q29 0 55.5 11.5t46 31t31 46t11.5 55.5t-11.5 55.5t-31 46t-46 31t-55.5 11.5t-55.5 -11.5t-46 -31t-31 -46t-11.5 -55.5t11.5 -55.5t31 -46t46 -31t55.5 -11.5z" />
    <glyph glyph-name="minute" unicode="&#x2032;" horiz-adv-x="166" 
d="M47 526l49 204h21l-55 -204h-15z" />
    <glyph glyph-name="second" unicode="&#x2033;" horiz-adv-x="242" 
d="M172 730h21l-55 -204h-15zM96 730h21l-55 -204h-15z" />
    <glyph glyph-name="tripleprime" unicode="&#x2034;" horiz-adv-x="341" 
d="M79 500q-1 10 -1.5 29.5t-1 41.5t-1 42.5t-0.5 32.5v84h17v-84v-33t-0.5 -42.5t-1 -41t-1.5 -29.5h-10zM166 500q-1 10 -1.5 29.5t-1 41.5t-1 42.5t-0.5 32.5v84h17v-84v-33t-0.5 -42.5t-1 -41t-1.5 -29.5h-10zM253 500q-1 10 -1.5 29.5t-1 41.5t-1 42.5t-0.5 32.5v84h17
v-84v-33t-0.5 -42.5t-1 -41t-1.5 -29.5h-10z" />
    <glyph glyph-name="guilsinglleft" unicode="&#x2039;" horiz-adv-x="284" 
d="M72 242v15l140 119v-21l-125 -106l125 -106v-20z" />
    <glyph glyph-name="guilsinglright" unicode="&#x203a;" horiz-adv-x="284" 
d="M72 143l125 106l-125 106v21l140 -119v-15l-140 -119v20z" />
    <glyph glyph-name="interrobang" unicode="&#x203d;" horiz-adv-x="524" 
d="M250 152v48.5t-0.5 71.5t-0.5 85.5t-0.5 91.5t-0.5 88v76v110q-65 -3 -108 -30.5t-66 -74.5l-15 7q25 51 75.5 83t127.5 32q42 0 78 -12t62.5 -33.5t41.5 -51.5t15 -66q0 -46 -14 -75.5t-35.5 -52t-46.5 -43.5t-46.5 -49.5t-35.5 -70t-14 -105.5v-29h-17zM442 577
q0 32 -13.5 58.5t-37.5 46t-56 30.5t-69 12v-111q0 -36 -0.5 -78.5t-1 -87t-1 -88t-0.5 -80.5q10 40 27 67.5t37 48.5t40.5 38t37 37t27 45t10.5 62zM259 -3q-25 0 -25 25t25 25t25 -25t-25 -25z" />
    <glyph glyph-name="fraction" unicode="&#x2044;" horiz-adv-x="644" 
d="M575 730h21l-527 -730h-21z" />
    <glyph glyph-name="uni2070" unicode="&#x2070;" horiz-adv-x="409" 
d="M204 317q27 0 52 10t43.5 33t30 60.5t11.5 93.5v15q0 52 -11.5 88.5t-30.5 59.5t-43.5 33.5t-50.5 10.5t-50.5 -10.5t-43.5 -33.5t-30.5 -59.5t-11.5 -88.5v-14q0 -56 11 -94t29.5 -61t43 -33t51.5 -10zM205 302q-32 0 -60 11t-48.5 36t-32.5 65.5t-12 99.5v15
q0 55 13 94.5t34.5 64.5t49 36.5t56.5 11.5q30 0 57.5 -12t48.5 -37t33.5 -64t12.5 -94v-15q0 -59 -12 -99.5t-33 -65.5t-48.5 -36t-58.5 -11z" />
    <glyph glyph-name="uni2074" unicode="&#x2074;" horiz-adv-x="378" 
d="M264 405h-227v15l227 310h16v-310h67v-15h-67v-97h-16v97zM264 420v284l-208 -284h208z" />
    <glyph glyph-name="uni2075" unicode="&#x2075;" horiz-adv-x="378" 
d="M188 302q-48 0 -86.5 19.5t-58.5 60.5l15 8q17 -37 51.5 -55t78.5 -18q26 0 49.5 9t41 26t28 40t10.5 52q0 33 -11.5 56.5t-29.5 39.5t-40.5 23.5t-44.5 7.5q-49 0 -81.5 -23.5t-50.5 -61.5l-16 5l35 239h234v-14h-221l-30 -200q20 30 51.5 49.5t78.5 19.5
q25 0 50.5 -8.5t46 -26t33 -44t12.5 -62.5q0 -30 -11 -56t-30 -45t-46 -30t-58 -11z" />
    <glyph glyph-name="uni2076" unicode="&#x2076;" horiz-adv-x="387" 
d="M197 302q-32 0 -62 13.5t-51 40.5q-20 25 -27.5 56t-7.5 82q0 114 54 178t149 64q33 0 58 -7l-4 -15q-24 7 -54 7q-90 0 -139 -59.5t-49 -167.5v-2q6 21 18.5 39t29.5 32t39 22t46 8q31 0 58 -11.5t46 -31.5t30 -46.5t11 -56.5t-10.5 -56.5t-30 -46t-46 -31t-58.5 -11.5z
M197 317q28 0 51.5 10.5t41 28.5t27 41.5t9.5 49.5q0 27 -10 50.5t-27 41.5t-40.5 28.5t-51.5 10.5q-27 0 -50.5 -10.5t-41 -28.5t-27.5 -41.5t-10 -50.5q0 -26 10 -49.5t27 -41.5t41 -28.5t51 -10.5z" />
    <glyph glyph-name="uni2077" unicode="&#x2077;" horiz-adv-x="327" 
d="M280 715h-251v15h268v-14l-199 -408h-18z" />
    <glyph glyph-name="uni2078" unicode="&#x2078;" horiz-adv-x="382" 
d="M191 302q-36 0 -63.5 9.5t-46.5 26t-29 37.5t-10 45q0 42 28.5 73.5t81.5 42.5q-41 8 -64.5 33t-23.5 63q0 44 35.5 74t91.5 30t92 -30t36 -74q0 -38 -25 -63t-65 -33q53 -11 82 -42t29 -73q0 -24 -10 -45.5t-29 -38t-46.5 -26t-63.5 -9.5zM191 317q63 0 98 30t35 74
q0 43 -35 74.5t-98 31.5q-32 0 -56 -8.5t-41 -23.5t-25.5 -34.5t-8.5 -40.5q0 -44 34 -73.5t97 -29.5zM191 545q50 0 81 24.5t31 62.5t-31 63.5t-81 25.5t-80 -25.5t-30 -63.5q0 -40 30 -63.5t80 -23.5z" />
    <glyph glyph-name="uni2079" unicode="&#x2079;" horiz-adv-x="382" 
d="M126 302q-32 0 -61 8l4 15q27 -8 57 -8q89 0 140 59t52 166q-12 -41 -48.5 -69t-84.5 -28q-32 0 -58.5 11.5t-45.5 31.5t-30 46.5t-11 56.5t10.5 56.5t30 46t46 31t58.5 11.5t62 -13.5t51 -40.5q20 -25 27.5 -56t7.5 -82q0 -114 -56 -178t-151 -64zM185 460
q27 0 50.5 10.5t41 28.5t27.5 41.5t10 50.5q0 26 -10 49.5t-27 41.5t-41 28.5t-51 10.5q-28 0 -51.5 -10.5t-41 -28.5t-27 -41.5t-9.5 -49.5q0 -27 9.5 -50.5t27 -41.5t41 -28.5t51.5 -10.5z" />
    <glyph glyph-name="uni207A" unicode="&#x207a;" horiz-adv-x="290" 
d="M38 526h100v99h14v-99h99v-14h-99v-100h-14v100h-100v14z" />
    <glyph glyph-name="uni207B" unicode="&#x207b;" horiz-adv-x="290" 
d="M38 527h213v-15h-213v15z" />
    <glyph glyph-name="uni207C" unicode="&#x207c;" horiz-adv-x="290" 
d="M38 571h213v-14h-213v14zM38 479h213v-14h-213v14z" />
    <glyph glyph-name="uni207D" unicode="&#x207d;" horiz-adv-x="277" 
d="M222 202q-36 25 -66.5 56t-53 70t-35 85.5t-12.5 102.5q0 109 45 186.5t117 125.5l9 -13q-71 -47 -112.5 -123t-41.5 -176q0 -102 43.5 -177t114.5 -123l-8 -14v0z" />
    <glyph glyph-name="uni207E" unicode="&#x207e;" horiz-adv-x="278" 
d="M47 216q71 48 114.5 123t43.5 177q0 100 -41.5 176t-112.5 123l9 13q72 -48 117 -125.5t45 -186.5q0 -56 -12.5 -102.5t-35 -85.5t-53 -70t-66.5 -56z" />
    <glyph glyph-name="uni2080" unicode="&#x2080;" horiz-adv-x="409" 
d="M204 9q27 0 52 10t43.5 33t30 60.5t11.5 93.5v15q0 52 -11.5 88.5t-30.5 59.5t-43.5 33.5t-50.5 10.5t-50.5 -10.5t-43.5 -33.5t-30.5 -59.5t-11.5 -88.5v-14q0 -56 11 -94t29.5 -61t43 -33t51.5 -10zM205 -6q-32 0 -60 11t-48.5 36t-32.5 65.5t-12 99.5v15q0 55 13 94.5
t34.5 64.5t49 36.5t56.5 11.5q30 0 57.5 -12t48.5 -37t33.5 -64t12.5 -94v-15q0 -59 -12 -99.5t-33 -65.5t-48.5 -36t-58.5 -11z" />
    <glyph glyph-name="uni2081" unicode="&#x2081;" horiz-adv-x="214" 
d="M114 0v378q-8 -21 -30 -35t-49 -14h-6v16h3q40 0 61 24.5t23 52.5h14v-422h-16z" />
    <glyph glyph-name="uni2082" unicode="&#x2082;" horiz-adv-x="356" 
d="M46 19q0 24 11.5 45.5t30 40t41.5 35.5t47 34q23 16 44.5 32t38.5 33t27 36t10 40q0 44 -32 71t-83 27q-42 0 -73.5 -21t-47.5 -54l-15 8q18 36 53 59t83 23q60 0 95.5 -32t35.5 -81q0 -24 -11 -45t-28.5 -39.5t-40 -35.5t-45.5 -33t-45 -32t-39.5 -33.5t-28.5 -36.5
t-11 -41v-4h251v-15h-268v19z" />
    <glyph glyph-name="uni2083" unicode="&#x2083;" horiz-adv-x="357" 
d="M169 -6q-44 0 -81 15t-60 44l13 11q21 -29 55.5 -42t72.5 -13q61 0 97 28.5t36 74.5q0 48 -35.5 74.5t-92.5 26.5h-44v14h44q57 0 87.5 26t30.5 68t-31 67t-81 25q-43 0 -72 -16t-46 -39l-13 10q19 22 51 41t81 19q56 0 91.5 -29.5t35.5 -77.5q0 -38 -22 -64.5t-64 -36.5
q45 -10 70.5 -37t25.5 -71q0 -53 -40 -85.5t-109 -32.5z" />
    <glyph glyph-name="uni2084" unicode="&#x2084;" horiz-adv-x="370" 
d="M256 97h-227v15l227 310h16v-310h67v-15h-67v-97h-16v97zM256 112v284l-208 -284h208z" />
    <glyph glyph-name="uni2085" unicode="&#x2085;" horiz-adv-x="378" 
d="M188 -6q-48 0 -86.5 19.5t-58.5 60.5l15 8q17 -37 51.5 -55t78.5 -18q26 0 49.5 9t41 26t28 40t10.5 52q0 33 -11.5 56.5t-29.5 39.5t-40.5 23.5t-44.5 7.5q-49 0 -81.5 -23.5t-50.5 -61.5l-16 5l35 239h234v-14h-221l-30 -200q20 30 51.5 49.5t78.5 19.5q25 0 50.5 -8.5
t46 -26t33 -44t12.5 -62.5q0 -30 -11 -56t-30 -45t-46 -30t-58 -11z" />
    <glyph glyph-name="uni2086" unicode="&#x2086;" horiz-adv-x="387" 
d="M197 -6q-32 0 -62 13.5t-51 40.5q-20 25 -27.5 56t-7.5 82q0 114 54 178t149 64q33 0 58 -7l-4 -15q-24 7 -54 7q-90 0 -139 -59.5t-49 -167.5v-2q6 21 18.5 39t29.5 32t39 22t46 8q31 0 58 -11.5t46 -31.5t30 -46.5t11 -56.5t-10.5 -56.5t-30 -46t-46 -31t-58.5 -11.5z
M197 9q28 0 51.5 10.5t41 28.5t27 41.5t9.5 49.5q0 27 -10 50.5t-27 41.5t-40.5 28.5t-51.5 10.5q-27 0 -50.5 -10.5t-41 -28.5t-27.5 -41.5t-10 -50.5q0 -26 10 -49.5t27 -41.5t41 -28.5t51 -10.5z" />
    <glyph glyph-name="uni2087" unicode="&#x2087;" horiz-adv-x="327" 
d="M280 407h-251v15h268v-14l-199 -408h-18z" />
    <glyph glyph-name="uni2088" unicode="&#x2088;" horiz-adv-x="382" 
d="M191 -6q-36 0 -63.5 9.5t-46.5 26t-29 37.5t-10 45q0 42 28.5 73.5t81.5 42.5q-41 8 -64.5 33t-23.5 63q0 44 35.5 74t91.5 30t92 -30t36 -74q0 -38 -25 -63t-65 -33q53 -11 82 -42t29 -73q0 -24 -10 -45.5t-29 -38t-46.5 -26t-63.5 -9.5zM191 9q63 0 98 30t35 74
q0 43 -35 74.5t-98 31.5q-32 0 -56 -8.5t-41 -23.5t-25.5 -34.5t-8.5 -40.5q0 -44 34 -73.5t97 -29.5zM191 237q50 0 81 24.5t31 62.5t-31 63.5t-81 25.5t-80 -25.5t-30 -63.5q0 -40 30 -63.5t80 -23.5z" />
    <glyph glyph-name="uni2089" unicode="&#x2089;" horiz-adv-x="382" 
d="M126 -6q-32 0 -61 8l4 15q27 -8 57 -8q89 0 140 59t52 166q-12 -41 -48.5 -69t-84.5 -28q-32 0 -58.5 11.5t-45.5 31.5t-30 46.5t-11 56.5t10.5 56.5t30 46t46 31t58.5 11.5t62 -13.5t51 -40.5q20 -25 27.5 -56t7.5 -82q0 -114 -56 -178t-151 -64zM185 152
q27 0 50.5 10.5t41 28.5t27.5 41.5t10 50.5q0 26 -10 49.5t-27 41.5t-41 28.5t-51 10.5q-28 0 -51.5 -10.5t-41 -28.5t-27 -41.5t-9.5 -49.5q0 -27 9.5 -50.5t27 -41.5t41 -28.5t51.5 -10.5z" />
    <glyph glyph-name="uni208A" unicode="&#x208a;" horiz-adv-x="290" 
d="M38 218h100v99h14v-99h99v-14h-99v-100h-14v100h-100v14z" />
    <glyph glyph-name="uni208B" unicode="&#x208b;" horiz-adv-x="290" 
d="M38 219h213v-15h-213v15z" />
    <glyph glyph-name="uni208C" unicode="&#x208c;" horiz-adv-x="290" 
d="M38 263h213v-14h-213v14zM38 171h213v-14h-213v14z" />
    <glyph glyph-name="uni208D" unicode="&#x208d;" horiz-adv-x="277" 
d="M222 -106q-36 25 -66.5 56t-53 70t-35 85.5t-12.5 102.5q0 109 45 186.5t117 125.5l9 -13q-71 -47 -112.5 -123t-41.5 -176q0 -102 43.5 -177t114.5 -123l-8 -14v0z" />
    <glyph glyph-name="uni208E" unicode="&#x208e;" horiz-adv-x="278" 
d="M47 -92q71 48 114.5 123t43.5 177q0 100 -41.5 176t-112.5 123l9 13q72 -48 117 -125.5t45 -186.5q0 -56 -12.5 -102.5t-35 -85.5t-53 -70t-66.5 -56z" />
    <glyph glyph-name="uni20A1" unicode="&#x20a1;" horiz-adv-x="824" 
d="M164 -120l70 171q-77 51 -123 133t-46 181q0 78 29.5 146t80.5 119t119 80.5t146 29.5q36 0 74 -8l44 108h19l-46 -112q50 -13 92 -37l61 149h19l-65 -158q72 -46 118 -118l-14 -8q-43 68 -110 112l-269 -654q19 -4 38 -6t39 -2q49 0 95.5 13t87 36t74 56t56.5 73l15 -7
q-25 -42 -59.5 -76.5t-77 -59t-91 -38t-100.5 -13.5q-22 0 -42.5 2.5t-40.5 7.5l-49 -120h-18l50 123q-50 14 -91 39l-67 -162h-18zM83 365q0 -93 43 -171.5t115 -126.5l267 651q-31 7 -68 7q-74 0 -139 -28.5t-113.5 -77.5t-76.5 -114.5t-28 -139.5zM255 58q44 -27 91 -40
l271 659q-43 26 -92 38z" />
    <glyph glyph-name="uni20A2" unicode="&#x20a2;" horiz-adv-x="824" 
d="M440 -10q-78 0 -146 29.5t-119 80.5t-80.5 119t-29.5 146t29.5 146t80.5 119t119 80.5t146 29.5q50 0 96.5 -12.5t87 -36t74 -56t58.5 -71.5l-14 -8q-48 75 -126 122t-176 47q-74 0 -139 -28.5t-113.5 -77.5t-76.5 -114.5t-28 -139.5q0 -71 25.5 -134.5t70.5 -111.5
t106 -78t131 -34v367h15v-160q8 33 27 62.5t46.5 51t62.5 34t76 12.5h46v-16h-46q-44 0 -82.5 -16.5t-67 -45.5t-45 -69.5t-16.5 -88.5v-132h8q49 0 95.5 13t87 36t74 56t56.5 73l15 -7q-25 -42 -59.5 -76.5t-77 -59t-91 -38t-100.5 -13.5z" />
    <glyph glyph-name="franc" unicode="&#x20a3;" horiz-adv-x="561" 
d="M75 730h413v-16h-396v-278h396v-15h-396v-127h396v-15h-396v-279h-17v730z" />
    <glyph glyph-name="lira" unicode="&#x20a4;" horiz-adv-x="732" 
d="M84 451h95q-8 21 -13 44.5t-5 50.5q0 43 15 79t42.5 61.5t67 39.5t87.5 14q73 0 129.5 -30.5t82.5 -90.5l-14 -10q-26 60 -76 88t-122 28q-44 0 -80 -13.5t-61.5 -37t-39.5 -56.5t-14 -72q0 -27 5 -50.5t14 -44.5h291v-15h-284q17 -35 39 -65t43 -62h202v-15h-193
q19 -31 31.5 -65.5t12.5 -76.5q0 -32 -14 -65l42 -30t44.5 -26.5t49 -18.5t54.5 -7q35 0 61.5 7t44.5 25.5t27 50.5t9 82v14h16v-16q0 -53 -11 -87.5t-31 -54.5t-49 -28t-66 -8q-31 0 -58 7t-51 19t-46 27t-43 31q-20 -36 -58 -60.5t-92 -24.5t-83.5 24.5t-29.5 66.5
q0 39 27 63.5t77 25.5q21 0 40 -5.5t38 -15.5t37 -23.5t37 -27.5q12 27 12 55q0 43 -13 77t-33 65h-193v15h182q-21 31 -43 61.5t-38 65.5h-101v15zM168 3q50 0 84.5 24t52.5 58q-36 27 -71 48t-76 21q-42 0 -64 -21.5t-22 -53.5q0 -33 24 -54.5t72 -21.5z" />
    <glyph glyph-name="uni20A6" unicode="&#x20a6;" horiz-adv-x="794" 
d="M24 451h81v279h16l218 -279h333v279h17v-279h80v-15h-80v-127h80v-15h-80v-294h-18l-230 294h-319v-294h-17v294h-81v15h81v127h-81v15zM450 309h222v127h-321zM122 309h307l-99 127h-208v-127zM672 25v269h-210zM122 702v-251h196z" />
    <glyph glyph-name="peseta" unicode="&#x20a7;" horiz-adv-x="1241" 
d="M864 0q-55 0 -93.5 11.5t-62.5 35.5t-34.5 60.5t-10.5 86.5v292h-113q-1 -52 -20 -96t-53.5 -76t-84 -50t-111.5 -18h-189v-246h-17v730h206q60 0 109 -17t84 -48t54.5 -73t21.5 -92h113v120l16 9v-129h130v-14h-130v-291q0 -48 10 -82.5t32 -56t57 -31.5t86 -10h105
q109 0 155.5 33t46.5 85q0 29 -13.5 48.5t-36 33t-51 22.5t-58.5 17q-31 9 -60.5 18.5t-52.5 23.5t-37 35t-14 53q0 55 43 90.5t117 35.5q51 0 91 -17.5t67 -48.5l-13 -9q-52 60 -145 60q-66 0 -105 -30.5t-39 -79.5q0 -28 13 -47t34.5 -31.5t49.5 -21.5t59 -18t61 -18.5
t54 -24t38.5 -36.5t14.5 -55q0 -58 -52 -95.5t-168 -37.5h-104zM92 714v-452h189q58 0 104.5 17t79 47.5t50 72t17.5 90.5t-17.5 90t-50 71t-79 47t-104.5 17h-189z" />
    <glyph glyph-name="uni20A8" unicode="&#x20a8;" horiz-adv-x="992" 
d="M736 -10q-92 0 -166 23.5t-131 65.5t-97.5 100t-64.5 127h17q42 0 80 16t66 44t44.5 65t16.5 79t-16.5 79t-44.5 65t-65.5 44t-79.5 16h-203v-714h-17v730h220q46 0 87 -17.5t71.5 -47.5t48 -70t17.5 -85t-17 -84.5t-46.5 -69t-69.5 -47t-86 -17.5q23 -60 61 -112.5
t92 -91t124.5 -60.5t158.5 -22q45 0 79.5 10t58 27.5t36 40.5t12.5 49q0 29 -13.5 48.5t-35.5 33t-50.5 22.5t-58.5 17q-31 9 -60.5 18t-53 23.5t-37.5 35.5t-14 53q0 55 43 90.5t117 35.5q51 0 91 -17.5t67 -48.5l-13 -9q-52 60 -145 60q-66 0 -105 -30.5t-39 -79.5
q0 -28 13.5 -47t35.5 -31.5t50.5 -21.5t58.5 -17q31 -9 60.5 -19t53 -25t38 -36.5t14.5 -54.5q0 -29 -13 -55t-38.5 -45.5t-63.5 -31t-88 -11.5z" />
    <glyph glyph-name="uni20A9" unicode="&#x20a9;" horiz-adv-x="1073" 
d="M24 451h110l-83 279h19l83 -279h277l99 279h14l99 -279h278l83 279h19l-84 -279h110v-15h-115l-38 -127h153v-15h-157l-88 -294h-18l-105 294h-289l-104 -294h-17l-89 294h-157v15h153l-38 127h-115v15zM397 309h278l-45 127h-188zM692 309h185l38 127h-268zM196 309h183
l45 127h-266zM793 26l80 268h-175zM279 27l95 267h-174zM447 451h177l-88 249z" />
    <glyph glyph-name="uni20AA" unicode="&#x20aa;" horiz-adv-x="580" 
d="M75 730h134q45 0 75.5 -12.5t49 -34.5t26.5 -52t8 -65v-402q0 -14 -17 -14v416q0 31 -6.5 58t-23 47t-43.5 31.5t-69 11.5h-117v-714h-17v730zM212 581q6 0 11.5 -4t5.5 -11v-550h117q35 0 61.5 11.5t44.5 31.5t27 47t9 58v566h17v-566q0 -35 -10 -65t-30.5 -52
t-50 -34.5t-68.5 -12.5h-134v581z" />
    <glyph glyph-name="Euro" unicode="&#x20ac;" horiz-adv-x="842" 
d="M40 502h111q21 52 55.5 95.5t80 75t99.5 49.5t114 18q83 0 154.5 -33.5t122.5 -90.5l-12 -11q-49 54 -116.5 87t-148.5 33q-56 0 -107.5 -16.5t-94 -46t-75.5 -70.5t-53 -90h474l-4 -16h-477q-11 -29 -15.5 -59t-4.5 -62q0 -67 19 -121h412l-4 -16h-401q20 -49 53 -89.5
t76 -70t94.5 -46t107.5 -16.5q78 0 147.5 30.5t119.5 84.5l14 -8q-53 -57 -125 -90t-156 -33q-60 0 -114 17.5t-100 49t-80.5 75t-55.5 96.5h-110v16h104q-18 57 -18 121q0 65 19 121h-105v16z" />
    <glyph glyph-name="uni20AE" unicode="&#x20ae;" horiz-adv-x="647" 
d="M183 397l132 54v263h-245v16h507v-16h-245v-256l141 58v-18l-141 -58v-108l141 58v-18l-141 -58v-314h-17v307l-132 -54v18l132 54v108l-132 -54v18z" />
    <glyph glyph-name="uni20B1" unicode="&#x20b1;" horiz-adv-x="675" 
d="M24 569h81v161h206q100 0 166 -44.5t90 -116.5h83v-15h-78q4 -16 6 -32t2 -33q0 -35 -7 -62h77v-15h-82q-23 -75 -90 -120.5t-167 -45.5h-189v-246h-17v412h-81v15h81v127h-81v15zM562 489q0 33 -9 65h-431v-127h432q8 30 8 62zM311 262q92 0 154 41t85 109h-428v-150
h189zM122 714v-145h426q-23 66 -84.5 105.5t-152.5 39.5h-189z" />
    <glyph glyph-name="published" unicode="&#x2117;" horiz-adv-x="880" 
d="M440 -125q-78 0 -146 29.5t-119 80.5t-80.5 119t-29.5 146t29.5 146t80.5 119t119 80.5t146 29.5t146 -29.5t119 -80.5t80.5 -119t29.5 -146t-29.5 -146t-80.5 -119t-119 -80.5t-146 -29.5zM440 -109q74 0 139 28t113.5 77t76.5 114.5t28 139.5t-28 139.5t-76.5 114
t-113.5 77t-139 28.5t-139 -28.5t-113.5 -77t-76.5 -114t-28 -139.5t28 -139.5t76.5 -114.5t113.5 -77t139 -28zM334 439h134q27 0 49 -8.5t38 -23.5t25 -35.5t9 -44.5q0 -23 -7.5 -44.5t-23 -38t-38 -26.5t-52.5 -10h-118v-143h-16v374zM350 424v-201h118q48 0 76 30t28 74
q0 43 -30 70t-74 27h-118z" />
    <glyph glyph-name="servicemark" unicode="&#x2120;" horiz-adv-x="656" 
d="M277 730h13l146 -194l147 194h13v-290h-16v260l-144 -191l-144 191v-260h-15v290zM121 439q-26 0 -48 10.5t-36 26.5l12 11q12 -14 30.5 -24t41.5 -10q35 0 54 18.5t19 46.5q0 22 -11 34.5t-28 20.5t-36.5 14.5t-36.5 15.5t-28 23t-11 38q0 29 22.5 49t57.5 20
q26 0 45.5 -9.5t31.5 -23.5l-13 -10q-10 13 -27 20.5t-37 7.5q-29 0 -46.5 -16t-17.5 -38q0 -20 11 -31.5t28 -19.5t36.5 -14.5t36.5 -16t28 -24.5t11 -40q0 -34 -24 -56.5t-65 -22.5z" />
    <glyph glyph-name="trademark" unicode="&#x2122;" horiz-adv-x="677" 
d="M298 730h13l146 -194l147 194h13v-290h-16v260l-144 -191l-144 191v-260h-15v290zM131 716h-102v14h219v-14h-102v-276h-15v276z" />
    <glyph glyph-name="uni2153" unicode="&#x2153;" horiz-adv-x="771" 
d="M575 730h21l-527 -730h-21zM583 -6q-44 0 -81 15t-60 44l13 11q21 -29 55.5 -42t72.5 -13q61 0 97 28.5t36 74.5q0 48 -35.5 74.5t-92.5 26.5h-44v14h44q57 0 87.5 26t30.5 68t-31 67t-81 25q-43 0 -72 -16t-46 -39l-13 10q19 22 51 41t81 19q56 0 91.5 -29.5t35.5 -77.5
q0 -38 -22 -64.5t-64 -36.5q45 -10 70.5 -37t25.5 -71q0 -53 -40 -85.5t-109 -32.5zM134 308v378q-8 -21 -30 -35t-49 -14h-6v16h3q40 0 61 24.5t23 52.5h14v-422h-16z" />
    <glyph glyph-name="uni2154" unicode="&#x2154;" horiz-adv-x="921" 
d="M723 730h21l-527 -730h-21zM733 -6q-44 0 -81 15t-60 44l13 11q21 -29 55.5 -42t72.5 -13q61 0 97 28.5t36 74.5q0 48 -35.5 74.5t-92.5 26.5h-44v14h44q57 0 87.5 26t30.5 68t-31 67t-81 25q-43 0 -72 -16t-46 -39l-13 10q19 22 51 41t81 19q56 0 91.5 -29.5t35.5 -77.5
q0 -38 -22 -64.5t-64 -36.5q45 -10 70.5 -37t25.5 -71q0 -53 -40 -85.5t-109 -32.5zM46 327q0 24 11.5 45.5t30 40t41.5 35.5t47 34q23 16 44.5 32t38.5 33t27 36t10 40q0 44 -32 71t-83 27q-42 0 -73.5 -21t-47.5 -54l-15 8q18 36 53 59t83 23q60 0 95.5 -32t35.5 -81
q0 -24 -11 -45t-28.5 -39.5t-40 -35.5t-45.5 -33t-45 -32t-39.5 -33.5t-28.5 -36.5t-11 -41v-4h251v-15h-268v19z" />
    <glyph glyph-name="uni2155" unicode="&#x2155;" horiz-adv-x="789" 
d="M575 730h21l-527 -730h-21zM599 -6q-48 0 -86.5 19.5t-58.5 60.5l15 8q17 -37 51.5 -55t78.5 -18q26 0 49.5 9t41 26t28 40t10.5 52q0 33 -11.5 56.5t-29.5 39.5t-40.5 23.5t-44.5 7.5q-49 0 -81.5 -23.5t-50.5 -61.5l-16 5l35 239h234v-14h-221l-30 -200
q20 30 51.5 49.5t78.5 19.5q25 0 50.5 -8.5t46 -26t33 -44t12.5 -62.5q0 -30 -11 -56t-30 -45t-46 -30t-58 -11zM134 308v378q-8 -21 -30 -35t-49 -14h-6v16h3q40 0 61 24.5t23 52.5h14v-422h-16z" />
    <glyph glyph-name="uni2156" unicode="&#x2156;" horiz-adv-x="937" 
d="M747 -6q-48 0 -86.5 19.5t-58.5 60.5l15 8q17 -37 51.5 -55t78.5 -18q26 0 49.5 9t41 26t28 40t10.5 52q0 33 -11.5 56.5t-29.5 39.5t-40.5 23.5t-44.5 7.5q-49 0 -81.5 -23.5t-50.5 -61.5l-16 5l35 239h234v-14h-221l-30 -200q20 30 51.5 49.5t78.5 19.5q25 0 50.5 -8.5
t46 -26t33 -44t12.5 -62.5q0 -30 -11 -56t-30 -45t-46 -30t-58 -11zM723 730h21l-527 -730h-21zM46 327q0 24 11.5 45.5t30 40t41.5 35.5t47 34q23 16 44.5 32t38.5 33t27 36t10 40q0 44 -32 71t-83 27q-42 0 -73.5 -21t-47.5 -54l-15 8q18 36 53 59t83 23q60 0 95.5 -32
t35.5 -81q0 -24 -11 -45t-28.5 -39.5t-40 -35.5t-45.5 -33t-45 -32t-39.5 -33.5t-28.5 -36.5t-11 -41v-4h251v-15h-268v19z" />
    <glyph glyph-name="uni2157" unicode="&#x2157;" horiz-adv-x="936" 
d="M746 -6q-48 0 -86.5 19.5t-58.5 60.5l15 8q17 -37 51.5 -55t78.5 -18q26 0 49.5 9t41 26t28 40t10.5 52q0 33 -11.5 56.5t-29.5 39.5t-40.5 23.5t-44.5 7.5q-49 0 -81.5 -23.5t-50.5 -61.5l-16 5l35 239h234v-14h-221l-30 -200q20 30 51.5 49.5t78.5 19.5q25 0 50.5 -8.5
t46 -26t33 -44t12.5 -62.5q0 -30 -11 -56t-30 -45t-46 -30t-58 -11zM721 730h21l-527 -730h-21zM189 302q-44 0 -81 15t-60 44l13 11q21 -29 55.5 -42t72.5 -13q61 0 97 28.5t36 74.5q0 48 -35.5 74.5t-92.5 26.5h-44v14h44q57 0 87.5 26t30.5 68t-31 67t-81 25
q-43 0 -72 -16t-46 -39l-13 10q19 22 51 41t81 19q56 0 91.5 -29.5t35.5 -77.5q0 -38 -22 -64.5t-64 -36.5q45 -10 70.5 -37t25.5 -71q0 -53 -40 -85.5t-109 -32.5z" />
    <glyph glyph-name="uni2158" unicode="&#x2158;" horiz-adv-x="926" 
d="M736 -6q-48 0 -86.5 19.5t-58.5 60.5l15 8q17 -37 51.5 -55t78.5 -18q26 0 49.5 9t41 26t28 40t10.5 52q0 33 -11.5 56.5t-29.5 39.5t-40.5 23.5t-44.5 7.5q-49 0 -81.5 -23.5t-50.5 -61.5l-16 5l35 239h234v-14h-221l-30 -200q20 30 51.5 49.5t78.5 19.5q25 0 50.5 -8.5
t46 -26t33 -44t12.5 -62.5q0 -30 -11 -56t-30 -45t-46 -30t-58 -11zM711 730h21l-527 -730h-21zM264 405h-227v15l227 310h16v-310h67v-15h-67v-97h-16v97zM264 420v284l-208 -284h208z" />
    <glyph glyph-name="uni2159" unicode="&#x2159;" horiz-adv-x="761" 
d="M575 730h21l-527 -730h-21zM571 -6q-32 0 -62 13.5t-51 40.5q-20 25 -27.5 56t-7.5 82q0 114 54 178t149 64q33 0 58 -7l-4 -15q-24 7 -54 7q-90 0 -139 -59.5t-49 -167.5v-2q6 21 18.5 39t29.5 32t39 22t46 8q31 0 58 -11.5t46 -31.5t30 -46.5t11 -56.5t-10.5 -56.5
t-30 -46t-46 -31t-58.5 -11.5zM571 9q28 0 51.5 10.5t41 28.5t27 41.5t9.5 49.5q0 27 -10 50.5t-27 41.5t-40.5 28.5t-51.5 10.5q-27 0 -50.5 -10.5t-41 -28.5t-27.5 -41.5t-10 -50.5q0 -26 10 -49.5t27 -41.5t41 -28.5t51 -10.5zM134 308v378q-8 -21 -30 -35t-49 -14h-6v16
h3q40 0 61 24.5t23 52.5h14v-422h-16z" />
    <glyph glyph-name="uni215A" unicode="&#x215a;" horiz-adv-x="892" 
d="M706 730h21l-527 -730h-21zM702 -6q-32 0 -62 13.5t-51 40.5q-20 25 -27.5 56t-7.5 82q0 114 54 178t149 64q33 0 58 -7l-4 -15q-24 7 -54 7q-90 0 -139 -59.5t-49 -167.5v-2q6 21 18.5 39t29.5 32t39 22t46 8q31 0 58 -11.5t46 -31.5t30 -46.5t11 -56.5t-10.5 -56.5
t-30 -46t-46 -31t-58.5 -11.5zM702 9q28 0 51.5 10.5t41 28.5t27 41.5t9.5 49.5q0 27 -10 50.5t-27 41.5t-40.5 28.5t-51.5 10.5q-27 0 -50.5 -10.5t-41 -28.5t-27.5 -41.5t-10 -50.5q0 -26 10 -49.5t27 -41.5t41 -28.5t51 -10.5zM188 302q-48 0 -86.5 19.5t-58.5 60.5l15 8
q17 -37 51.5 -55t78.5 -18q26 0 49.5 9t41 26t28 40t10.5 52q0 33 -11.5 56.5t-29.5 39.5t-40.5 23.5t-44.5 7.5q-49 0 -81.5 -23.5t-50.5 -61.5l-16 5l35 239h234v-14h-221l-30 -200q20 30 51.5 49.5t78.5 19.5q25 0 50.5 -8.5t46 -26t33 -44t12.5 -62.5q0 -30 -11 -56
t-30 -45t-46 -30t-58 -11z" />
    <glyph glyph-name="uni215B" unicode="&#x215b;" horiz-adv-x="768" 
d="M575 730h21l-527 -730h-21zM577 -6q-36 0 -63.5 9.5t-46.5 26t-29 37.5t-10 45q0 42 28.5 73.5t81.5 42.5q-41 8 -64.5 33t-23.5 63q0 44 35.5 74t91.5 30t92 -30t36 -74q0 -38 -25 -63t-65 -33q53 -11 82 -42t29 -73q0 -24 -10 -45.5t-29 -38t-46.5 -26t-63.5 -9.5z
M577 9q63 0 98 30t35 74q0 43 -35 74.5t-98 31.5q-32 0 -56 -8.5t-41 -23.5t-25.5 -34.5t-8.5 -40.5q0 -44 34 -73.5t97 -29.5zM577 237q50 0 81 24.5t31 62.5t-31 63.5t-81 25.5t-80 -25.5t-30 -63.5q0 -40 30 -63.5t80 -23.5zM134 308v378q-8 -21 -30 -35t-49 -14h-6v16h3
q40 0 61 24.5t23 52.5h14v-422h-16z" />
    <glyph glyph-name="uni215C" unicode="&#x215c;" horiz-adv-x="915" 
d="M189 302q-44 0 -81 15t-60 44l13 11q21 -29 55.5 -42t72.5 -13q61 0 97 28.5t36 74.5q0 48 -35.5 74.5t-92.5 26.5h-44v14h44q57 0 87.5 26t30.5 68t-31 67t-81 25q-43 0 -72 -16t-46 -39l-13 10q19 22 51 41t81 19q56 0 91.5 -29.5t35.5 -77.5q0 -38 -22 -64.5
t-64 -36.5q45 -10 70.5 -37t25.5 -71q0 -53 -40 -85.5t-109 -32.5zM722 730h21l-527 -730h-21zM724 -6q-36 0 -63.5 9.5t-46.5 26t-29 37.5t-10 45q0 42 28.5 73.5t81.5 42.5q-41 8 -64.5 33t-23.5 63q0 44 35.5 74t91.5 30t92 -30t36 -74q0 -38 -25 -63t-65 -33
q53 -11 82 -42t29 -73q0 -24 -10 -45.5t-29 -38t-46.5 -26t-63.5 -9.5zM724 9q63 0 98 30t35 74q0 43 -35 74.5t-98 31.5q-32 0 -56 -8.5t-41 -23.5t-25.5 -34.5t-8.5 -40.5q0 -44 34 -73.5t97 -29.5zM724 237q50 0 81 24.5t31 62.5t-31 63.5t-81 25.5t-80 -25.5t-30 -63.5
q0 -40 30 -63.5t80 -23.5z" />
    <glyph glyph-name="uni215D" unicode="&#x215d;" horiz-adv-x="899" 
d="M708 -6q-36 0 -63.5 9.5t-46.5 26t-29 37.5t-10 45q0 42 28.5 73.5t81.5 42.5q-41 8 -64.5 33t-23.5 63q0 44 35.5 74t91.5 30t92 -30t36 -74q0 -38 -25 -63t-65 -33q53 -11 82 -42t29 -73q0 -24 -10 -45.5t-29 -38t-46.5 -26t-63.5 -9.5zM708 9q63 0 98 30t35 74
q0 43 -35 74.5t-98 31.5q-32 0 -56 -8.5t-41 -23.5t-25.5 -34.5t-8.5 -40.5q0 -44 34 -73.5t97 -29.5zM708 237q50 0 81 24.5t31 62.5t-31 63.5t-81 25.5t-80 -25.5t-30 -63.5q0 -40 30 -63.5t80 -23.5zM706 730h21l-527 -730h-21zM188 302q-48 0 -86.5 19.5t-58.5 60.5
l15 8q17 -37 51.5 -55t78.5 -18q26 0 49.5 9t41 26t28 40t10.5 52q0 33 -11.5 56.5t-29.5 39.5t-40.5 23.5t-44.5 7.5q-49 0 -81.5 -23.5t-50.5 -61.5l-16 5l35 239h234v-14h-221l-30 -200q20 30 51.5 49.5t78.5 19.5q25 0 50.5 -8.5t46 -26t33 -44t12.5 -62.5
q0 -30 -11 -56t-30 -45t-46 -30t-58 -11z" />
    <glyph glyph-name="uni215E" unicode="&#x215e;" horiz-adv-x="768" 
d="M577 -6q-36 0 -63.5 9.5t-46.5 26t-29 37.5t-10 45q0 42 28.5 73.5t81.5 42.5q-41 8 -64.5 33t-23.5 63q0 44 35.5 74t91.5 30t92 -30t36 -74q0 -38 -25 -63t-65 -33q53 -11 82 -42t29 -73q0 -24 -10 -45.5t-29 -38t-46.5 -26t-63.5 -9.5zM577 9q63 0 98 30t35 74
q0 43 -35 74.5t-98 31.5q-32 0 -56 -8.5t-41 -23.5t-25.5 -34.5t-8.5 -40.5q0 -44 34 -73.5t97 -29.5zM577 237q50 0 81 24.5t31 62.5t-31 63.5t-81 25.5t-80 -25.5t-30 -63.5q0 -40 30 -63.5t80 -23.5zM280 715h-251v15h268v-14l-199 -408h-18zM575 730h21l-527 -730h-21z
" />
    <glyph glyph-name="uni215F" unicode="&#x215f;" horiz-adv-x="644" 
d="M575 730h21l-527 -730h-21zM134 308v378q-8 -21 -30 -35t-49 -14h-6v16h3q40 0 61 24.5t23 52.5h14v-422h-16z" />
    <glyph glyph-name="arrowleft" unicode="&#x2190;" horiz-adv-x="896" 
d="M257 148q-12 36 -37.5 69.5t-55.5 61t-61.5 48.5t-55.5 32v11q25 11 56 32t61 49t55.5 61.5t37.5 69.5l14 -5q-12 -36 -35 -68t-51.5 -58.5t-58.5 -46.5t-54 -32h757v-15h-759q24 -11 54.5 -31t59 -46.5t52 -58.5t35.5 -68l-14 -5v0z" />
    <glyph glyph-name="arrowup" unicode="&#x2191;" horiz-adv-x="896" 
d="M439 754q-12 -24 -32 -53.5t-46 -57.5t-58 -50.5t-67 -34.5l-5 14q36 12 69.5 37.5t61 55.5t48.5 61.5t32 55.5h11q11 -25 32 -56t49 -61t61.5 -55.5t69.5 -37.5l-5 -14q-35 11 -67 34t-58.5 50.5t-46.5 56.5t-32 53v-752h-17v754z" />
    <glyph glyph-name="arrowright" unicode="&#x2192;" horiz-adv-x="896" 
d="M617 152q12 35 35 67t51 58.5t58 47t54 32.5h-756v15h759q-25 11 -55 31t-58.5 46.5t-52 58.5t-35.5 68l14 5q12 -36 37.5 -69.5t55.5 -61t61.5 -48.5t55.5 -32v-11q-25 -11 -56 -32t-61 -49t-55.5 -61.5t-37.5 -69.5z" />
    <glyph glyph-name="arrowdown" unicode="&#x2193;" horiz-adv-x="896" 
d="M443 -52q-11 25 -32 56t-49 61t-61.5 55.5t-69.5 37.5l5 14q35 -12 66.5 -34.5t58 -50t47 -56.5t32.5 -53v752h17v-754q12 24 31.5 53.5t46 57t58 50.5t67.5 35l5 -14q-36 -12 -69.5 -37.5t-61 -55.5t-48.5 -61.5t-32 -55.5h-11v0z" />
    <glyph glyph-name="uni2196" unicode="&#x2196;" horiz-adv-x="896" 
d="M173 618q9 -26 16 -61t8.5 -74t-4.5 -78t-23 -72l-13 7q16 34 22 75.5t4.5 82.5t-9 77.5t-17.5 61.5l8 8q25 -9 62 -16.5t78 -9t82.5 4t75.5 22.5l7 -13q-33 -17 -72.5 -23t-78.5 -5t-74.5 8t-60.5 16l535 -536l-10 -10z" />
    <glyph glyph-name="uni2197" unicode="&#x2197;" horiz-adv-x="896" 
d="M157 93l535 536q-26 -9 -61 -16t-74 -8.5t-78 4.5t-72 23l7 13q34 -17 75.5 -22.5t82.5 -4t77.5 9t61.5 17.5l8 -8q-9 -26 -16.5 -62.5t-9 -77.5t4 -82.5t22.5 -75.5l-13 -7q-17 33 -23 72.5t-5 78.5t8 74t16 61l-536 -535z" />
    <glyph glyph-name="uni2198" unicode="&#x2198;" horiz-adv-x="896" 
d="M711 83q-26 9 -62.5 16.5t-77.5 9t-82.5 -4.5t-75.5 -22l-7 13q33 17 72.5 23t78.5 4.5t74 -8t61 -15.5l-535 536l10 10l536 -535q-9 25 -16 60.5t-8.5 74t4.5 78t23 72.5l13 -7q-17 -34 -22.5 -75.5t-4 -82.5t9 -77.5t17.5 -61.5l-8 -8v0z" />
    <glyph glyph-name="uni2199" unicode="&#x2199;" horiz-adv-x="896" 
d="M462 83q-34 16 -75.5 22t-82.5 4.5t-77.5 -9t-61.5 -17.5l-8 8q9 25 16.5 62t9 78t-4.5 82.5t-22 75.5l13 7q17 -33 23 -72.5t4.5 -78.5t-8 -74.5t-15.5 -60.5l536 535l10 -10l-535 -536q25 9 60.5 16t74 8.5t78 -4.5t72.5 -23l-7 -13v0z" />
    <glyph glyph-name="partialdiff" unicode="&#x2202;" horiz-adv-x="626" 
d="M313 -10q-54 0 -101.5 20.5t-82.5 55.5t-55.5 82.5t-20.5 101.5t20.5 101.5t55.5 82.5t82.5 55.5t101.5 20.5q69 0 124.5 -32.5t89.5 -86.5q-36 81 -112.5 164.5t-197.5 174.5h26q161 -124 245.5 -241t84.5 -239q0 -54 -20.5 -101.5t-55.5 -82.5t-82.5 -55.5
t-101.5 -20.5zM313 6q51 0 95 19t76.5 52t51.5 77.5t19 95.5t-19 95.5t-51.5 77.5t-76.5 52t-95 19t-95 -19t-77 -52t-52 -77.5t-19 -95.5t19 -95.5t52 -77.5t77 -52t95 -19z" />
    <glyph glyph-name="Delta" unicode="&#x2206;" horiz-adv-x="897" 
d="M20 0l429 742l428 -742h-857zM48 16h800l-399 694l1 4z" />
    <glyph glyph-name="product" unicode="&#x220f;" horiz-adv-x="721" 
d="M43 730h636v-16h-132v-714h-17v714h-339v-714h-17v714h-131v16z" />
    <glyph glyph-name="summation" unicode="&#x2211;" horiz-adv-x="600" 
d="M60 16l278 363l-277 335v16h474v-16h-453l276 -335l-278 -363h455v-16h-475v16z" />
    <glyph glyph-name="minus" unicode="&#x2212;" horiz-adv-x="480" 
d="M55 374h370v-16h-370v16z" />
    <glyph glyph-name="radical" unicode="&#x221a;" horiz-adv-x="750" 
d="M139 487h-94v13h107l182 -476l357 706h17l-368 -730h-13z" />
    <glyph glyph-name="infinity" unicode="&#x221e;" horiz-adv-x="940" 
d="M278 267q-24 0 -45.5 9.5t-37.5 25t-25.5 37t-9.5 45.5t9.5 45.5t25.5 37t37.5 25t45.5 9.5q25 0 50.5 -9.5t51 -25.5t50.5 -35.5t51 -40.5q25 21 50 40.5t50.5 35.5t51 25.5t51.5 9.5q24 0 45.5 -9t37 -25t25 -37.5t9.5 -45.5t-9.5 -45.5t-25 -37.5t-37 -25t-45.5 -9
q-28 0 -54 8.5t-51 22.5t-49 32t-48 38q-24 -20 -49 -38t-50.5 -32t-51.5 -22.5t-53 -8.5zM278 283q25 0 49 8t48 21.5t47.5 30.5t46.5 36q-24 20 -48 39t-48 33.5t-47.5 23.5t-47.5 9q-20 0 -38.5 -8.5t-32.5 -22.5t-22 -32t-8 -38t8 -38t22 -32t32.5 -22t38.5 -8zM684 285
q20 0 38.5 8t32 22t21 32t7.5 38t-8 38t-21.5 32t-31.5 22t-38 8q-24 0 -47.5 -9t-47.5 -24t-47.5 -34t-47.5 -39q46 -38 93 -66t97 -28z" />
    <glyph glyph-name="integral" unicode="&#x222b;" horiz-adv-x="325" 
d="M-17 -211q44 0 72.5 5t45 20.5t23 45t6.5 77.5v629q0 50 7.5 82t25.5 50t49 25t78 7h2v-17q-44 0 -72 -5t-44.5 -20.5t-23 -45t-6.5 -77.5v-629q0 -50 -7.5 -82t-26 -50t-49.5 -25t-78 -7h-2v17z" />
    <glyph glyph-name="approxequal" unicode="&#x2248;" horiz-adv-x="480" 
d="M55 441q22 11 44 18t53 7q22 0 45.5 -6t46 -13t44 -13t41.5 -6q29 0 49.5 6t46.5 20v-17q-21 -12 -42 -18.5t-54 -6.5q-21 0 -44 6t-46.5 13t-45.5 13t-41 6q-30 0 -52 -7.5t-45 -18.5v17zM55 283q22 11 44 18t53 7q22 0 45.5 -6t46 -13t44 -13t41.5 -6q29 0 49.5 6
t46.5 20v-17q-21 -12 -42 -18.5t-54 -6.5q-21 0 -44 6t-46.5 13t-45.5 13t-41 6q-30 0 -52 -7.5t-45 -18.5v17z" />
    <glyph glyph-name="notequal" unicode="&#x2260;" horiz-adv-x="480" 
d="M287 450h138v-16h-145l-68 -142h213v-16h-220l-33 -70h-19l33 70h-131v16h138l67 142h-205v16h213l32 67h19z" />
    <glyph glyph-name="equivalence" unicode="&#x2261;" horiz-adv-x="480" 
d="M55 370h370v-16h-370v16zM55 212h370v-16h-370v16zM55 528h370v-16h-370v16z" />
    <glyph glyph-name="lessequal" unicode="&#x2264;" horiz-adv-x="480" 
d="M55 430v16l370 146v-18l-349 -136l349 -141v-18zM55 222h370v-16h-370v16z" />
    <glyph glyph-name="greaterequal" unicode="&#x2265;" horiz-adv-x="480" 
d="M55 297l348 141l-348 136v18l370 -146v-16l-370 -151v18zM55 222h370v-16h-370v16z" />
    <glyph glyph-name="squaremultiply" unicode="&#x22a0;" horiz-adv-x="926" 
d="M100 730h726v-730h-726v730zM117 15h692v700h-692v-700zM231 134l225 232l-217 222l10 11l218 -222l214 221l10 -11l-214 -221l223 -226l-10 -11l-223 227l-226 -233z" />
    <glyph glyph-name="house" unicode="&#x2302;" horiz-adv-x="874" 
d="M100 0v427l337 323l337 -323v-427h-674z" />
    <glyph glyph-name="blacksquare" unicode="&#x25a0;" horiz-adv-x="926" 
d="M100 730h726v-730h-726v730z" />
    <glyph glyph-name="blacksquare" unicode="&#xe740;" horiz-adv-x="926" 
d="M100 730h726v-730h-726v730z" />
    <glyph glyph-name="whitesquare" unicode="&#x25a1;" horiz-adv-x="926" 
d="M100 730h726v-730h-726v730zM117 15h692v700h-692v-700z" />
    <glyph glyph-name="blacksmallsquare" unicode="&#x25aa;" horiz-adv-x="700" 
d="M100 500h500v-500h-500v500z" />
    <glyph glyph-name="whitesmallsquare" unicode="&#x25ab;" horiz-adv-x="700" 
d="M100 500h500v-500h-500v500zM117 15h466v470h-466v-470z" />
    <glyph glyph-name="triagup" unicode="&#x25b2;" horiz-adv-x="897" 
d="M20 0l429 742l428 -742h-857z" />
    <glyph glyph-name="triagrt" unicode="&#x25ba;" horiz-adv-x="897" 
d="M100 800l742 -428l-742 -429v857z" />
    <glyph glyph-name="triagdn" unicode="&#x25bc;" horiz-adv-x="897" 
d="M877 730l-428 -742l-429 742h857z" />
    <glyph glyph-name="triaglf" unicode="&#x25c4;" horiz-adv-x="897" 
d="M797 -57l-742 429l742 428v-857z" />
    <glyph glyph-name="lozenge" unicode="&#x25ca;" horiz-adv-x="843" 
d="M33 366l380 380l382 -382l-380 -380zM415 9l357 356l-359 357l-357 -356z" />
    <glyph glyph-name="whitecircle" unicode="&#x25cb;" horiz-adv-x="927" 
d="M464 -10q-78 0 -146 29.5t-119 80.5t-80.5 119t-29.5 146t29.5 146t80.5 119t119 80.5t146 29.5t146 -29.5t119 -80.5t80.5 -119t29.5 -146t-29.5 -146t-80.5 -119t-119 -80.5t-146 -29.5zM464 6q74 0 139 28t113.5 77t76.5 114.5t28 139.5t-28 139.5t-76.5 114
t-113.5 77t-139 28.5t-139 -28.5t-113.5 -77t-76.5 -114t-28 -139.5t28 -139.5t76.5 -114.5t113.5 -77t139 -28z" />
    <glyph glyph-name="whitecircle" unicode="&#x25ef;" horiz-adv-x="927" 
d="M464 -10q-78 0 -146 29.5t-119 80.5t-80.5 119t-29.5 146t29.5 146t80.5 119t119 80.5t146 29.5t146 -29.5t119 -80.5t80.5 -119t29.5 -146t-29.5 -146t-80.5 -119t-119 -80.5t-146 -29.5zM464 6q74 0 139 28t113.5 77t76.5 114.5t28 139.5t-28 139.5t-76.5 114
t-113.5 77t-139 28.5t-139 -28.5t-113.5 -77t-76.5 -114t-28 -139.5t28 -139.5t76.5 -114.5t113.5 -77t139 -28z" />
    <glyph glyph-name="bullseye" unicode="&#x25ce;" horiz-adv-x="927" 
d="M464 -10q-78 0 -146 29.5t-119 80.5t-80.5 119t-29.5 146t29.5 146t80.5 119t119 80.5t146 29.5t146 -29.5t119 -80.5t80.5 -119t29.5 -146t-29.5 -146t-80.5 -119t-119 -80.5t-146 -29.5zM464 6q74 0 139 28t113.5 77t76.5 114.5t28 139.5t-28 139.5t-76.5 114
t-113.5 77t-139 28.5t-139 -28.5t-113.5 -77t-76.5 -114t-28 -139.5t28 -139.5t76.5 -114.5t113.5 -77t139 -28zM465 170q-40 0 -75.5 15.5t-61.5 41.5t-41.5 61.5t-15.5 75.5t15.5 75.5t41.5 61.5t61.5 41.5t75.5 15.5t75.5 -15.5t61.5 -41.5t41.5 -61.5t15.5 -75.5
t-15.5 -75.5t-41.5 -61.5t-61.5 -41.5t-75.5 -15.5zM465 187q37 0 69 14t56 38t37.5 56t13.5 69t-13.5 69t-37.5 56t-56 38t-69 14t-69 -14t-56 -38t-37.5 -56t-13.5 -69t13.5 -69t37.5 -56t56 -38t69 -14zM465 344q-8 0 -14 6t-6 14t6 14t14 6t14 -6t6 -14t-6 -14t-14 -6z
" />
    <glyph glyph-name="blackcircle" unicode="&#x25cf;" horiz-adv-x="927" 
d="M464 -10q-78 0 -146 29.5t-119 80.5t-80.5 119t-29.5 146t29.5 146t80.5 119t119 80.5t146 29.5t146 -29.5t119 -80.5t80.5 -119t29.5 -146t-29.5 -146t-80.5 -119t-119 -80.5t-146 -29.5z" />
    <glyph glyph-name="uni25E2" unicode="&#x25e2;" horiz-adv-x="897" 
d="M267 -73l-222 828l828 -222z" />
    <glyph glyph-name="uni25E3" unicode="&#x25e3;" horiz-adv-x="897" 
d="M26 533l828 222l-222 -828z" />
    <glyph glyph-name="uni25E4" unicode="&#x25e4;" horiz-adv-x="897" 
d="M29 168l606 606l222 -828z" />
    <glyph glyph-name="uni25E5" unicode="&#x25e5;" horiz-adv-x="897" 
d="M44 -58l223 828l605 -607z" />
    <glyph glyph-name="uni2605" unicode="&#x2605;" horiz-adv-x="900" 
d="M634 85l-187 135l-186 -135l72 219l-186 135l229 -1l72 218l71 -218l230 -1l-187 -134z" />
    <glyph glyph-name="ballotboxwithx" unicode="&#x2612;" horiz-adv-x="700" 
d="M100 500h500v-500h-500v500zM117 15h466v470h-466v-470zM349 259l138 140l10 -11l-138 -140l137 -138l-10 -11l-137 139l-138 -140l-10 11l137 139l-138 141l10 11z" />
    <glyph glyph-name="uni263C" unicode="&#x263c;" horiz-adv-x="928" 
d="M287 365q0 36 14 67.5t37.5 55t55 37.5t67.5 14t67.5 -14t55 -37.5t37.5 -55t14 -67.5t-14 -67.5t-37.5 -55t-55 -37.5t-67.5 -14t-67.5 14t-55 37.5t-37.5 55t-14 67.5zM434 719h54l-17 -142h-20zM488 13h-54l17 142h20zM108 339v54l142 -17v-20zM814 393v-54l-142 17
v20zM140 519l28 47l115 -87l-10 -15zM782 213l-28 -47l-115 87l10 15zM261 659l47 28l55 -133l-15 -10zM661 73l-47 -28l-55 133l15 10zM614 687l47 -28l-87 -115l-15 10zM308 45l-47 28l87 115l15 -10zM752 566l30 -46l-133 -56l-10 16zM170 166l-30 46l133 56l10 -16z" />
    <glyph glyph-name="uni263E" unicode="&#x263e;" horiz-adv-x="787" 
d="M534 616q-50 0 -93.5 -20t-75.5 -54t-51 -79.5t-19 -97.5t19 -97.5t51 -79.5t75.5 -54t93.5 -20q18 0 36 3.5t35 8.5q-38 -27 -83.5 -42t-94.5 -15q-61 0 -115 23.5t-94 63.5t-63.5 94t-23.5 115t23.5 115t63.5 94t94 63.5t115 23.5q49 0 94.5 -15t83.5 -42
q-17 5 -35 8.5t-36 3.5z" />
    <glyph glyph-name="spade" unicode="&#x2660;" horiz-adv-x="920" 
d="M335 0q10 19 26 49.5t31 69t26 82.5t11 89q-9 -26 -24 -50.5t-36 -43.5t-48.5 -30.5t-61.5 -11.5q-35 0 -66 12.5t-54.5 34t-37 50.5t-13.5 61q0 43 13.5 80.5t42 75t73 77.5t106.5 90l140 112h1l140 -112q62 -50 105.5 -90t70.5 -77.5t39.5 -75t12.5 -80.5
q0 -32 -12.5 -60.5t-34 -50t-50 -34t-60.5 -12.5q-37 0 -66 11t-51.5 30t-38.5 43.5t-25 50.5q0 -45 12 -89t28 -82.5t33 -69t27 -49.5h-259z" />
    <glyph glyph-name="club" unicode="&#x2663;" horiz-adv-x="920" 
d="M336 0q9 17 22.5 43t27.5 58t25 69.5t16 77.5q-21 -52 -65 -85t-102 -33q-37 0 -69 14t-56 38t-38 56t-14 69t14 69t38 56t56 38t69 14q11 0 21.5 -2t20.5 -5q-19 41 -19 87q0 36 13.5 68t37.5 56t56 38t68 14t68 -14t56 -38t38 -56t14 -68q0 -45 -19 -88q22 8 46 8
q37 0 69 -14t56 -38t37.5 -56t13.5 -69t-14 -69t-38 -56t-56 -38t-69 -14q-58 0 -100.5 33t-62.5 84q5 -39 17.5 -76.5t27.5 -69.5t29.5 -58t23.5 -43h-259z" />
    <glyph glyph-name="heart" unicode="&#x2665;" horiz-adv-x="920" 
d="M89 550q0 39 14 73.5t39 60.5t58 41t72 15q38 0 70.5 -12.5t56.5 -34t39 -51t19 -63.5q4 34 19 63.5t39 51t56 34t71 12.5t73 -15t60 -41t41 -60.5t15 -73.5q0 -43 -13 -86.5t-41 -92.5t-72 -105.5t-106 -125.5l-142 -157l-141 157q-62 69 -105.5 125.5t-70.5 105.5
t-39 92.5t-12 86.5z" />
    <glyph glyph-name="diamond" unicode="&#x2666;" horiz-adv-x="920" 
d="M460 791l327 -401l-327 -400l-327 400z" />
    <glyph glyph-name="uni267B" unicode="&#x267b;" horiz-adv-x="921" 
d="M822 244l-91 -157q-7 -11 -14 -20.5t-16 -16.5t-21.5 -11t-30.5 -4h-54v-47l-106 128l106 127v-46h136q21 0 37.5 7.5t28.5 16.5q13 11 24 25zM182 111l-90 158q-6 11 -11 21.5t-6.5 22t1.5 24t12 28.5l27 46l-40 23l164 29l55 -156l-38 23q-18 -31 -33 -57
q-13 -22 -23.5 -40.5t-11.5 -20.5q-11 -18 -13 -36.5t0 -32.5q2 -17 9 -32h-2zM389 729h182q13 0 25 -1t22.5 -5.5t20 -13t18.5 -24.5l26 -46l41 23l-58 -157l-162 30l38 22l-67 118q-11 18 -25.5 29t-28.5 16q-16 6 -32 8v1zM260 670q4 6 12.5 14.5t19.5 14.5
q21 12 45 13.5t46 -4.5t39.5 -17.5t24.5 -24.5l-109 -189l-141 81zM302 35q-8 0 -19.5 2.5t-22.5 9.5q-21 12 -34.5 32t-19.5 42t-4.5 42.5t9.5 33.5h218v-162h-127zM832 381q9 -14 9 -41q0 -24 -10.5 -45.5t-27 -37.5t-34.5 -25.5t-33 -9.5l-109 189l140 80z" />
    <glyph glyph-name="uni267C" unicode="&#x267c;" horiz-adv-x="921" 
d="M837 366q0 -78 -29.5 -146.5t-80.5 -119t-119 -80t-146 -29.5t-147 29.5t-120 80t-80.5 119t-29.5 146.5t29.5 146.5t80.5 120t120 81t147 29.5t146 -29.5t119 -81t80.5 -120t29.5 -146.5zM255 520l109 -63l84 146q-6 10 -19 19t-30.5 13.5t-36 3.5t-34.5 -10
q-8 -5 -15 -11.5t-9 -11.5zM399 651q14 -2 26 -7q11 -5 22 -12.5t19 -21.5l53 -91l-30 -18l126 -23l44 122l-31 -18l-21 36q-14 24 -30 29t-37 5h-141v-1zM431 114v126h-170q-6 -11 -7 -26.5t4 -32.5t15 -32.5t27 -25.5q8 -5 17 -7t15 -2h99zM244 173q-4 12 -6 25
q-2 11 -0.5 25.5t9.5 28.5l53 91l30 -18l-43 121l-127 -22l31 -18l-21 -36q-15 -25 -10.5 -41t13.5 -34l70 -122h1zM697 468l-110 -63l85 -147q12 0 26 7.5t27 20t21 29.5t8 36q0 10 -2.5 18.5t-5.5 13.5zM738 277q-8 -11 -19 -19q-9 -7 -21.5 -12.5t-29.5 -5.5h-105v35
l-83 -98l83 -99v36h41q29 0 41.5 11.5t22.5 28.5l71 122z" />
    <glyph glyph-name="uni267D" unicode="&#x267d;" horiz-adv-x="921" 
d="M837 366q0 -78 -29.5 -146.5t-80.5 -119t-119 -80t-146 -29.5t-147 29.5t-120 80t-80.5 119t-29.5 146.5t29.5 146.5t80.5 120t120 81t147 29.5t146 -29.5t119 -81t80.5 -120t29.5 -146.5zM818 366q0 74 -28 139.5t-76 114t-113 76.5t-139 28q-75 0 -140 -28t-114 -76.5
t-77 -114t-28 -139.5t28 -139t77 -113.5t114 -76.5t140 -28q74 0 139 28t113 76.5t76 113.5t28 139zM304 606q2 5 9 11.5t15 11.5q16 9 34.5 10t36 -3.5t30.5 -13.5t19 -19l-84 -146l-109 63zM399 652h141q21 0 37 -5t30 -29l21 -36l31 18l-44 -122l-126 23l30 18l-53 91
q-8 14 -19 21.5t-22 12.5q-12 5 -26 7v1zM332 114q-6 0 -15 2t-17 7q-17 10 -27 25.5t-15 32.5t-4 32.5t7 26.5h170v-126h-99zM243 173l-70 122q-9 18 -13.5 34t10.5 41l21 36l-31 18l127 22l43 -121l-30 18l-53 -91q-8 -14 -9.5 -28.5t0.5 -25.5q2 -13 6 -25h-1zM746 383
q3 -5 5.5 -13.5t2.5 -18.5q0 -19 -8 -36t-21 -29.5t-27 -20t-26 -7.5l-85 147l110 63zM739 276l-71 -122q-10 -17 -22.5 -28.5t-41.5 -11.5h-41v-36l-83 99l83 98v-35h105q17 0 29.5 5.5t21.5 12.5q11 8 19 19z" />
    <glyph glyph-name="mediumwhitecircle" unicode="&#x26aa;" horiz-adv-x="698" 
d="M349 -10q-54 0 -101.5 20.5t-82.5 55.5t-55.5 82.5t-20.5 101.5t20.5 101.5t55.5 82.5t82.5 55.5t101.5 20.5t101.5 -20.5t82.5 -55.5t55.5 -82.5t20.5 -101.5t-20.5 -101.5t-55.5 -82.5t-82.5 -55.5t-101.5 -20.5zM349 6q51 0 95 19t76.5 52t51.5 77.5t19 95.5t-19 95.5
t-51.5 77.5t-76.5 52t-95 19t-95 -19t-77 -52t-52 -77.5t-19 -95.5t19 -95.5t52 -77.5t77 -52t95 -19z" />
    <glyph glyph-name="mediumblackcircle" unicode="&#x26ab;" horiz-adv-x="698" 
d="M349 -10q-54 0 -101 20.5t-82.5 55.5t-55.5 82.5t-20 101.5t20 101.5t55.5 82.5t82.5 55.5t101 20.5t101 -20.5t82.5 -55.5t55.5 -82.5t20 -101.5t-20 -101.5t-55.5 -82.5t-82.5 -55.5t-101 -20.5z" />
    <glyph glyph-name="anglebracketleft" unicode="&#x3008;" horiz-adv-x="343" 
d="M50 250l228 480h19l-228 -480l228 -480h-19z" />
    <glyph glyph-name="anglebracketright" unicode="&#x3009;" horiz-adv-x="343" 
d="M40 -230l228 480l-228 480h19l228 -480l-228 -480h-19z" />
    <glyph glyph-name="cordinal" unicode="&#xe181;" horiz-adv-x="429" 
d="M223 435q-31 0 -58.5 12t-47.5 32t-32 47.5t-12 59.5q0 31 12 58.5t32 47.5t47.5 32t58.5 12q48 0 85 -25t54 -66l-17 -7q-15 37 -47.5 59.5t-74.5 22.5q-28 0 -52 -10.5t-42 -28.5t-28.5 -42.5t-10.5 -52.5t10.5 -52.5t28.5 -43t42 -29t52 -10.5q42 0 74.5 23t47.5 60
l17 -7q-17 -41 -54 -66.5t-85 -25.5z" />
    <glyph glyph-name="fi" unicode="&#xe38c;" horiz-adv-x="520" 
d="M28 540h92v74q0 54 7.5 88.5t27 54t53 26.5t84.5 7h2v-16q-47 0 -78 -5.5t-49 -22.5t-25 -49t-7 -84v-73h159v-14h-159v-526h-15v526h-92v14zM418 540h16v-540h-16v540zM401 708q0 24 25 24q11 0 17.5 -6.5t6.5 -17.5t-6.5 -17.5t-17.5 -6.5t-18 6.5t-7 17.5z" />
    <glyph glyph-name="fi" unicode="&#xfb01;" horiz-adv-x="520" 
d="M28 540h92v74q0 54 7.5 88.5t27 54t53 26.5t84.5 7h2v-16q-47 0 -78 -5.5t-49 -22.5t-25 -49t-7 -84v-73h159v-14h-159v-526h-15v526h-92v14zM418 540h16v-540h-16v540zM401 708q0 24 25 24q11 0 17.5 -6.5t6.5 -17.5t-6.5 -17.5t-17.5 -6.5t-18 6.5t-7 17.5z" />
    <glyph glyph-name="fl" unicode="&#xe38d;" horiz-adv-x="520" 
d="M28 540h92v74q0 54 7.5 88.5t27 54t53 26.5t84.5 7h2v-16q-47 0 -78 -5.5t-49 -22.5t-25 -49t-7 -84v-73h159v-14h-159v-526h-15v526h-92v14zM418 790h16v-790h-16v790z" />
    <glyph glyph-name="fl" unicode="&#xfb02;" horiz-adv-x="520" 
d="M28 540h92v74q0 54 7.5 88.5t27 54t53 26.5t84.5 7h2v-16q-47 0 -78 -5.5t-49 -22.5t-25 -49t-7 -84v-73h159v-14h-159v-526h-15v526h-92v14zM418 790h16v-790h-16v790z" />
    <glyph glyph-name="invertedbreve" unicode="&#xe411;" horiz-adv-x="511" 
d="M93 615q0 26 10 52t30 46.5t50.5 33.5t71.5 13q37 0 67 -13t51 -33.5t32 -46.5t11 -52h-16q0 23 -10 46t-28.5 42t-45.5 30.5t-61 11.5q-37 0 -64.5 -11.5t-45.5 -30.5t-27 -42t-9 -46h-16v0z" />
    <glyph glyph-name="doublegrave" unicode="&#xe412;" horiz-adv-x="511" 
d="M118 771h25l135 -140h-20zM237 771h25l115 -140h-20z" />
    <glyph glyph-name="caronSlovak" unicode="&#xe413;" horiz-adv-x="511" 
d="M247 645q13 7 24 19.5t19 27t12.5 29.5t4.5 29q0 22 -10 30q3 -3 3 -8q0 -20 -20 -20q-9 0 -16 6.5t-7 17.5t7 18.5t20 7.5q17 0 27 -13t10 -39q0 -33 -20 -65t-46 -50z" />
    <glyph glyph-name="commaaccent" unicode="&#xe414;" horiz-adv-x="511" 
d="M211 -251q13 7 24 19.5t19 27t12.5 29.5t4.5 29q0 24 -10 32q3 -5 3 -10q0 -20 -20 -20q-9 0 -16 6.5t-7 17.5t7 18.5t20 7.5q17 0 27 -13t10 -39q0 -33 -20 -65t-46 -50z" />
    <glyph glyph-name="commaaccent" unicode="&#xf6c3;" horiz-adv-x="511" 
d="M211 -251q13 7 24 19.5t19 27t12.5 29.5t4.5 29q0 24 -10 32q3 -5 3 -10q0 -20 -20 -20q-9 0 -16 6.5t-7 17.5t7 18.5t20 7.5q17 0 27 -13t10 -39q0 -33 -20 -65t-46 -50z" />
    <glyph glyph-name="dotbelow" unicode="&#xe415;" horiz-adv-x="511" 
d="M221 -117q0 25 25 25t25 -25t-25 -25t-25 25z" />
    <glyph glyph-name="altcedilla" unicode="&#xe416;" horiz-adv-x="511" 
d="M261 -214q-44 0 -74 14.5t-50 34.5l15 10q22 -20 45.5 -32t63.5 -12q48 0 77 19.5t29 49.5q0 26 -24 43.5t-75 17.5h-18v13h18q55 0 86 -21t31 -53q0 -37 -33.5 -60.5t-90.5 -23.5z" />
    <glyph glyph-name="exclamdown.cap" unicode="&#xe441;" horiz-adv-x="247" 
d="M116 117v75t0.5 87t0.5 90t0.5 84t0.5 70v48h13v-48t0.5 -70t1 -84l1 -90t0.5 -87v-75v-117h-18v117zM125 683q-25 0 -25 25t25 25t25 -25t-25 -25z" />
    <glyph glyph-name="questiondown.cap" unicode="&#xe444;" horiz-adv-x="524" 
d="M258 -10q-42 0 -78.5 11.5t-63 32.5t-42 50.5t-15.5 65.5q0 49 15 79.5t37 53t48.5 42t48.5 46.5t37 67t15 103v37h17v-37q0 -65 -15 -106t-37 -69.5t-48.5 -48.5t-48.5 -42t-37 -50.5t-15 -74.5q0 -32 14 -58.5t39 -45.5t58 -29.5t71 -10.5q70 0 115.5 28t70.5 78l15 -7
q-25 -51 -74.5 -83t-126.5 -32zM268 683q-25 0 -25 25t25 25t25 -25t-25 -25z" />
    <glyph glyph-name="guilsinglleft.cap" unicode="&#xe451;" horiz-adv-x="284" 
d="M72 352v15l140 119v-21l-125 -106l125 -106v-20z" />
    <glyph glyph-name="guilsinglright.cap" unicode="&#xe452;" horiz-adv-x="284" 
d="M72 253l125 106l-125 106v21l140 -119v-15l-140 -119v20z" />
    <glyph glyph-name="guillemotleft.cap" unicode="&#xe453;" horiz-adv-x="424" 
d="M72 352v15l140 119v-21l-125 -106l125 -106v-20zM212 352v15l140 119v-21l-125 -106l125 -106v-20z" />
    <glyph glyph-name="guillemotright.cap" unicode="&#xe454;" horiz-adv-x="424" 
d="M212 253l125 106l-125 106v21l140 -119v-15l-140 -119v20zM72 253l125 106l-125 106v21l140 -119v-15l-140 -119v20z" />
    <glyph glyph-name="slash.cap" unicode="&#xe461;" horiz-adv-x="425" 
d="M376 730h19l-346 -730h-19z" />
    <glyph glyph-name="backslash.cap" unicode="&#xe462;" horiz-adv-x="425" 
d="M30 730h19l346 -730h-19z" />
    <glyph glyph-name="bar.cap" unicode="&#xe463;" horiz-adv-x="167" 
d="M75 840h17v-960h-17v960z" />
    <glyph glyph-name="doublebar.cap" unicode="&#xe464;" horiz-adv-x="304" 
d="M75 840h17v-960h-17v960zM212 840h17v-960h-17v960z" />
    <glyph glyph-name="brokenbar.cap" unicode="&#xe465;" horiz-adv-x="165" 
d="M75 840h17v-420h-17v420zM75 300h17v-420h-17v420z" />
    <glyph glyph-name="bullet.cap" unicode="&#xe466;" horiz-adv-x="246" 
d="M123 330q-14 0 -23.5 9.5t-9.5 23.5t9.5 23.5t23.5 9.5t23.5 -9.5t9.5 -23.5t-9.5 -23.5t-23.5 -9.5z" />
    <glyph glyph-name="slash.smcp" unicode="&#xe467;" horiz-adv-x="378" 
d="M322 596h18l-283 -596h-18z" />
    <glyph glyph-name="backslash.smcp" unicode="&#xe468;" horiz-adv-x="378" 
d="M39 596h18l283 -596h-18z" />
    <glyph glyph-name="bar.smcp" unicode="&#xe469;" horiz-adv-x="167" 
d="M75 686h16v-784h-16v784z" />
    <glyph glyph-name="doublebar.smcp" unicode="&#xe46a;" horiz-adv-x="304" 
d="M75 686h17v-784h-17v784zM213 686h17v-784h-17v784z" />
    <glyph glyph-name="onethirdemdash" unicode="&#xe471;" horiz-adv-x="430" 
d="M55 263h320v-16h-320v16z" />
    <glyph glyph-name="threequarteremdash" unicode="&#xe472;" horiz-adv-x="630" 
d="M55 263h520v-16h-520v16z" />
    <glyph glyph-name="periodcentered.cap" unicode="&#xe481;" horiz-adv-x="168" 
d="M59 362q0 25 25 25t25 -25t-25 -25t-25 25z" />
    <glyph glyph-name="hyphen.cap" unicode="&#xe482;" horiz-adv-x="480" 
d="M55 377h370v-16h-370v16z" />
    <glyph glyph-name="onethirdemdash.cap" unicode="&#xe483;" horiz-adv-x="430" 
d="M55 377h320v-16h-320v16z" />
    <glyph glyph-name="endash.cap" unicode="&#xe484;" horiz-adv-x="530" 
d="M55 377h420v-16h-420v16z" />
    <glyph glyph-name="threequarteremdash.cap" unicode="&#xe485;" horiz-adv-x="630" 
d="M55 377h520v-16h-520v16z" />
    <glyph glyph-name="emdash.cap" unicode="&#xe486;" horiz-adv-x="730" 
d="M55 377h620v-16h-620v16z" />
    <glyph glyph-name="figuredash.cap" unicode="&#xe487;" horiz-adv-x="680" 
d="M55 377h570v-16h-570v16z" />
    <glyph glyph-name="uni2015.cap" unicode="&#xe488;" horiz-adv-x="1030" 
d="M55 377h920v-16h-920v16z" />
    <glyph glyph-name="parenleft.cap" unicode="&#xe491;" horiz-adv-x="395" 
d="M332 -139q-58 39 -107 89t-84.5 111.5t-55.5 136t-20 162.5q0 86 19 160t53.5 136t81.5 112.5t104 88.5l14 -12q-57 -38 -104 -88t-80.5 -111t-51.5 -133t-18 -153q0 -83 19 -154.5t53.5 -132.5t82.5 -110.5t105 -87.5l-11 -14v0z" />
    <glyph glyph-name="parenright.cap" unicode="&#xe492;" horiz-adv-x="395" 
d="M52 -125q57 38 104.5 87.5t82 110t54 132.5t19.5 155q0 81 -18 152.5t-51.5 132.5t-80.5 111.5t-104 88.5l14 12q57 -38 104 -88.5t81.5 -112.5t53.5 -136t19 -160q0 -88 -20 -162.5t-55.5 -136t-84.5 -111.5t-107 -89z" />
    <glyph glyph-name="bracketleft.cap" unicode="&#xe493;" horiz-adv-x="383" 
d="M55 840h273v-15h-256v-930h256v-15h-273v960z" />
    <glyph glyph-name="bracketright.cap" unicode="&#xe494;" horiz-adv-x="383" 
d="M55 -106h256v931h-256v15h273v-960h-273v14z" />
    <glyph glyph-name="braceleft.cap" unicode="&#xe495;" horiz-adv-x="410" 
d="M354 -120q-63 0 -105 11t-67.5 36.5t-36.5 67t-11 102.5v143q0 29 -3 50t-12.5 34.5t-28.5 19.5t-50 6v19q31 0 50 6t28.5 19.5t12.5 34.5t3 50v144q0 61 11 102.5t36.5 67t67.5 36.5t105 11h11v-15q-64 0 -105.5 -10t-65.5 -33t-33.5 -62.5t-9.5 -97.5v-144
q0 -51 -12 -80t-49 -39q39 -10 50 -39t11 -79v-143q0 -59 9.5 -98t33.5 -62t65.5 -33t105.5 -10v-15h-11z" />
    <glyph glyph-name="braceright.cap" unicode="&#xe496;" horiz-adv-x="410" 
d="M45 -104q64 0 105.5 9.5t65.5 33t33.5 62t9.5 97.5v143q0 50 10.5 79t50.5 39q-37 10 -49 39t-12 80v144q0 58 -9.5 97t-33.5 62.5t-65.5 33t-105.5 9.5v16h11q63 0 105 -11t67.5 -36.5t36.5 -67t11 -102.5v-144q0 -29 3 -50t12.5 -34.5t28 -19.5t50.5 -6v-19
q-32 0 -50.5 -6t-28 -19.5t-12.5 -34.5t-3 -50v-143q0 -61 -11 -102.5t-36.5 -67t-67.5 -36.5t-105 -11h-11v16z" />
    <glyph glyph-name="anglebracketleft.cap" unicode="&#xe497;" horiz-adv-x="343" 
d="M50 360l228 480h19l-228 -480l228 -480h-19z" />
    <glyph glyph-name="anglebracketright.cap" unicode="&#xe498;" horiz-adv-x="343" 
d="M40 -120l228 480l-228 480h19l228 -480l-228 -480h-19z" />
    <glyph glyph-name="a.alt" unicode="&#xe4c0;" horiz-adv-x="694" 
d="M336 -11q-58 0 -109 22t-89.5 60t-60.5 89t-22 110q0 58 22 109.5t60.5 89.5t89.5 60t109 22q44 0 85 -13.5t75.5 -38t60.5 -60.5t40 -81v182h15v-540h-15v182q-14 -45 -40 -81t-60.5 -61t-75.5 -38t-85 -13zM336 4q55 0 103 21t83 57t55.5 84.5t20.5 103.5t-20.5 103.5
t-55.5 84.5t-83 57t-103 21t-103 -21t-84 -57t-56.5 -84.5t-20.5 -103.5t20.5 -103.5t56.5 -84.5t84 -57t103 -21z" />
    <glyph glyph-name="lowline" unicode="&#xe511;" horiz-adv-x="480" 
d="M55 -100h370v-16h-370v16z" />
    <glyph glyph-name="underscoremonospace" unicode="&#xe512;" horiz-adv-x="588" 
d="M55 -10h478v-16h-478v16z" />
    <glyph glyph-name="underscoremonospace" unicode="&#xff3f;" horiz-adv-x="588" 
d="M55 -10h478v-16h-478v16z" />
    <glyph glyph-name="at.cap" unicode="&#xe513;" horiz-adv-x="877" 
d="M438 -10q-78 0 -146 29.5t-118.5 80t-79.5 119t-29 146.5t31 146t83.5 119t122 80.5t147.5 29.5t144.5 -27.5t115 -73.5t76 -107.5t27.5 -128.5q0 -37 -9.5 -75t-28.5 -68.5t-46 -49.5t-61 -19q-28 0 -47.5 9t-32 25.5t-18 38.5t-5.5 48q-4 -20 -14.5 -41.5t-28.5 -39.5
t-43.5 -29.5t-59.5 -11.5q-27 0 -55 11t-49.5 33.5t-34 56t-7.5 79.5q6 45 22.5 78.5t40.5 56t53.5 34t62.5 11.5q29 0 52 -11t38.5 -28.5t24 -40t8.5 -45.5q5 42 7 65.5t4 35.5q2 14 2 18h14l-20 -181q-8 -85 15 -121.5t71 -36.5q28 0 51 16t40 43.5t26.5 63.5t9.5 75
q0 64 -26 122.5t-72 102.5t-109.5 70.5t-137.5 26.5t-140.5 -28.5t-116.5 -77.5t-79 -114.5t-29 -139.5t27.5 -139.5t75.5 -114.5t112.5 -77.5t138.5 -28.5q78 0 144.5 30.5t115.5 83.5l14 -11q-51 -55 -122 -86.5t-152 -31.5zM421 206q34 0 59.5 13.5t43 36.5t27.5 53
t13 63q4 32 -1 61t-19 51.5t-37 36t-56 13.5q-30 0 -57 -11.5t-49 -32.5t-36.5 -51.5t-18.5 -68.5q-5 -33 3 -63t25.5 -52.5t43.5 -35.5t59 -13z" />
    <glyph glyph-name="zero.LT" unicode="&#xe53f;" 
d="M318 6q49 0 91 16t72 54.5t47 103.5t17 163v58q0 91 -18 153t-48.5 99.5t-72 53.5t-87.5 16q-47 0 -88 -16t-71.5 -53.5t-48.5 -99.5t-18 -153v-57q0 -98 16.5 -163t46.5 -104t71 -55t91 -16zM319 -10q-54 0 -98.5 17t-77 58t-50 108.5t-17.5 168.5v60q0 94 19 158.5
t52 104.5t77.5 57.5t94.5 17.5q51 0 95.5 -17.5t77.5 -57.5t51.5 -104.5t18.5 -158.5v-60q0 -101 -17.5 -168.5t-50 -108.5t-77 -58t-98.5 -17z" />
    <glyph glyph-name="one.LT" unicode="&#xe541;" 
d="M50 15h256v649q-4 -17 -14.5 -35t-28 -32t-41 -23t-52.5 -9h-13v15h6q42 0 70 15t44 37.5t22.5 48.5t6.5 49h17v-715h265v-15h-538v15z" />
    <glyph glyph-name="two.LT" unicode="&#xe542;" 
d="M77 22q0 43 24 81.5t60.5 73t81 66.5t85.5 61q40 28 77 55.5t65.5 56.5t45.5 61t17 70q0 39 -14 71.5t-40 56.5t-65 37t-88 13q-44 0 -80 -11.5t-64.5 -31t-50 -45.5t-34.5 -56l-16 9q15 31 38 58.5t54 47.5t69.5 32t83.5 12q53 0 94.5 -14.5t70.5 -40t44 -61t15 -77.5
q0 -41 -18 -75t-48 -64t-68.5 -58t-78.5 -57q-41 -29 -84 -60t-78 -64.5t-57.5 -70t-22.5 -76.5v-6h468v-16h-486v22z" />
    <glyph glyph-name="three.LT" unicode="&#xe543;" 
d="M302 -10q-39 0 -76 7t-68 19t-55.5 28t-39.5 34l14 11q14 -18 37.5 -33t53 -26.5t64.5 -18t71 -6.5q52 0 95.5 13.5t74 37.5t47.5 58t17 75q0 44 -16 78t-45.5 57.5t-70.5 36t-90 12.5h-112v15h112q97 0 152.5 46t55.5 124t-57 122.5t-156 44.5q-38 0 -71 -7.5t-60 -20.5
t-48 -29t-34 -33l-13 11q15 17 37 34t51 30.5t64 21.5t74 8q53 0 95.5 -12.5t72 -36.5t45.5 -57.5t16 -75.5q0 -70 -40.5 -117t-117.5 -61q78 -14 125 -63t47 -128q0 -45 -17.5 -81.5t-50 -62.5t-79 -40.5t-104.5 -14.5z" />
    <glyph glyph-name="four.LT" unicode="&#xe544;" 
d="M453 198h-390l-6 16l397 516h16v-517h113v-15h-113v-198h-17v198zM453 213v489l-377 -489h377z" />
    <glyph glyph-name="five.LT" unicode="&#xe545;" 
d="M302 -10q-70 0 -129 26t-97 75l14 11q35 -46 90.5 -71t121.5 -25q52 0 96 19.5t76.5 53t51 78t18.5 94.5q0 62 -21 107t-54.5 74.5t-75.5 43.5t-83 14q-33 0 -64.5 -9t-59 -23.5t-48 -33t-30.5 -37.5l-16 4l50 339h365v-15h-352l-43 -302q12 17 32 33.5t46.5 29.5t57 21
t62.5 8q45 0 90 -15t80.5 -46.5t58 -79t22.5 -113.5q0 -55 -19 -102.5t-53 -83t-81.5 -55.5t-105.5 -20z" />
    <glyph glyph-name="six.LT" unicode="&#xe546;" 
d="M332 -10q-56 0 -107 23t-86 69q-17 21 -28.5 44.5t-18.5 51.5t-10 62t-3 76q0 95 24.5 173t70.5 134t111.5 86.5t147.5 30.5q31 0 52.5 -3t44.5 -10l-6 -16q-22 6 -42.5 9t-48.5 3q-79 0 -142 -29.5t-106.5 -82.5t-67 -128.5t-23.5 -166.5v-35q5 40 25.5 77t52 65
t72.5 45t87 17q54 0 99.5 -19.5t78.5 -53t51.5 -79t18.5 -96.5t-18.5 -96t-51 -78.5t-78 -53t-99.5 -19.5zM332 5q51 0 93 18.5t72.5 50t47.5 73.5t17 90t-17 90.5t-48 74t-73 50t-93 18.5q-48 0 -89.5 -18.5t-72.5 -50t-49 -74t-18 -90.5t17.5 -90t48 -73.5t72.5 -50
t92 -18.5z" />
    <glyph glyph-name="seven.LT" unicode="&#xe547;" 
d="M556 714h-492v16h510v-15l-378 -715h-19z" />
    <glyph glyph-name="eight.LT" unicode="&#xe548;" 
d="M321 -10q-66 0 -114.5 15.5t-81 43t-48 64.5t-15.5 79q0 36 12.5 69t36.5 59.5t58.5 45t78.5 27.5q-71 16 -110 62.5t-39 105.5q0 37 14 69.5t41.5 57t68.5 38.5t95 14t95 -14t69 -38.5t42 -57t14 -69.5q0 -59 -39 -105t-108 -62q87 -17 136 -70.5t49 -126.5
q0 -42 -16 -80t-48 -66t-79.5 -44.5t-111.5 -16.5zM321 6q60 0 105 15t74.5 41t44 61t14.5 74q0 38 -15 72.5t-45 60.5t-75 41t-105 15t-105 -16t-74.5 -43t-44.5 -62t-15 -73q0 -39 14.5 -73t44.5 -59t75 -39.5t107 -14.5zM319 399q49 0 86.5 13t63.5 35.5t39.5 51.5
t13.5 62q0 34 -13.5 64t-39.5 52.5t-64 35t-87 12.5t-87 -12.5t-63.5 -35t-38.5 -52.5t-13 -64q0 -33 13.5 -62t39.5 -51.5t63.5 -35.5t86.5 -13z" />
    <glyph glyph-name="nine.LT" unicode="&#xe549;" 
d="M235 -10q-88 0 -139 31l9 16q23 -14 55 -22.5t76 -8.5q73 0 128.5 28t93.5 79.5t57.5 125t19.5 164.5v52q-5 -39 -25 -74.5t-51 -63t-71 -43.5t-85 -16q-53 0 -97 19t-76 51.5t-50 76.5t-18 95q0 49 18 93t49.5 76.5t75.5 51.5t97 19q55 0 105 -22.5t85 -67.5
q16 -21 27.5 -44.5t18 -53t9.5 -66.5t3 -83q0 -93 -20 -169t-59.5 -130.5t-98.5 -84t-137 -29.5zM303 274q46 0 86.5 18t71 49t48 72t17.5 87q0 45 -16.5 85.5t-46 71t-71 48.5t-90.5 18q-48 0 -89 -17.5t-70.5 -47.5t-46.5 -71t-17 -87q0 -48 17 -89t47 -71.5t71 -48
t89 -17.5z" />
    <glyph glyph-name="zero.inf" unicode="&#xe571;" horiz-adv-x="409" 
d="M204 -202q27 0 52 10t43.5 33t30 60.5t11.5 93.5v15q0 52 -11.5 88.5t-30.5 59.5t-43.5 33.5t-50.5 10.5t-50.5 -10.5t-43.5 -33.5t-30.5 -59.5t-11.5 -88.5v-14q0 -56 11 -94t29.5 -61t43 -33t51.5 -10zM205 -217q-32 0 -60 11t-48.5 36t-32.5 65.5t-12 99.5v15
q0 55 13 94.5t34.5 64.5t49 36.5t56.5 11.5q30 0 57.5 -12t48.5 -37t33.5 -64t12.5 -94v-15q0 -59 -12 -99.5t-33 -65.5t-48.5 -36t-58.5 -11z" />
    <glyph glyph-name="one.inf" unicode="&#xe572;" horiz-adv-x="214" 
d="M114 -211v378q-8 -21 -30 -35t-49 -14h-6v16h3q40 0 61 24.5t23 52.5h14v-422h-16z" />
    <glyph glyph-name="two.inf" unicode="&#xe573;" horiz-adv-x="356" 
d="M46 -192q0 24 11.5 45.5t30 40t41.5 35.5t47 34q23 16 44.5 32t38.5 33t27 36t10 40q0 44 -32 71t-83 27q-42 0 -73.5 -21t-47.5 -54l-15 8q18 36 53 59t83 23q60 0 95.5 -32t35.5 -81q0 -24 -11 -45t-28.5 -39.5t-40 -35.5t-45.5 -33t-45 -32t-39.5 -33.5t-28.5 -36.5
t-11 -41v-4h251v-15h-268v19z" />
    <glyph glyph-name="three.inf" unicode="&#xe574;" horiz-adv-x="357" 
d="M169 -217q-44 0 -81 15t-60 44l13 11q21 -29 55.5 -42t72.5 -13q61 0 97 28.5t36 74.5q0 48 -35.5 74.5t-92.5 26.5h-44v14h44q57 0 87.5 26t30.5 68t-31 67t-81 25q-43 0 -72 -16t-46 -39l-13 10q19 22 51 41t81 19q56 0 91.5 -29.5t35.5 -77.5q0 -38 -22 -64.5
t-64 -36.5q45 -10 70.5 -37t25.5 -71q0 -53 -40 -85.5t-109 -32.5z" />
    <glyph glyph-name="four.inf" unicode="&#xe575;" horiz-adv-x="378" 
d="M264 -114h-227v15l227 310h16v-310h67v-15h-67v-97h-16v97zM264 -99v284l-208 -284h208z" />
    <glyph glyph-name="five.inf" unicode="&#xe576;" horiz-adv-x="378" 
d="M188 -217q-48 0 -86.5 19.5t-58.5 60.5l15 8q17 -37 51.5 -55t78.5 -18q26 0 49.5 9t41 26t28 40t10.5 52q0 33 -11.5 56.5t-29.5 39.5t-40.5 23.5t-44.5 7.5q-49 0 -81.5 -23.5t-50.5 -61.5l-16 5l35 239h234v-14h-221l-30 -200q20 30 51.5 49.5t78.5 19.5
q25 0 50.5 -8.5t46 -26t33 -44t12.5 -62.5q0 -30 -11 -56t-30 -45t-46 -30t-58 -11z" />
    <glyph glyph-name="six.inf" unicode="&#xe577;" horiz-adv-x="387" 
d="M197 -217q-32 0 -62 13.5t-51 40.5q-20 25 -27.5 56t-7.5 82q0 114 54 178t149 64q33 0 58 -7l-4 -15q-24 7 -54 7q-90 0 -139 -59.5t-49 -167.5v-2q6 21 18.5 39t29.5 32t39 22t46 8q31 0 58 -11.5t46 -31.5t30 -46.5t11 -56.5t-10.5 -56.5t-30 -46t-46 -31t-58.5 -11.5
zM197 -202q28 0 51.5 10.5t41 28.5t27 41.5t9.5 49.5q0 27 -10 50.5t-27 41.5t-40.5 28.5t-51.5 10.5q-27 0 -50.5 -10.5t-41 -28.5t-27.5 -41.5t-10 -50.5q0 -26 10 -49.5t27 -41.5t41 -28.5t51 -10.5z" />
    <glyph glyph-name="seven.inf" unicode="&#xe578;" horiz-adv-x="327" 
d="M280 196h-251v15h268v-14l-199 -408h-18z" />
    <glyph glyph-name="eight.inf" unicode="&#xe579;" horiz-adv-x="382" 
d="M191 -217q-36 0 -63.5 9.5t-46.5 26t-29 37.5t-10 45q0 42 28.5 73.5t81.5 42.5q-41 8 -64.5 33t-23.5 63q0 44 35.5 74t91.5 30t92 -30t36 -74q0 -38 -25 -63t-65 -33q53 -11 82 -42t29 -73q0 -24 -10 -45.5t-29 -38t-46.5 -26t-63.5 -9.5zM191 -202q63 0 98 30t35 74
q0 43 -35 74.5t-98 31.5q-32 0 -56 -8.5t-41 -23.5t-25.5 -34.5t-8.5 -40.5q0 -44 34 -73.5t97 -29.5zM191 26q50 0 81 24.5t31 62.5t-31 63.5t-81 25.5t-80 -25.5t-30 -63.5q0 -40 30 -63.5t80 -23.5z" />
    <glyph glyph-name="nine.inf" unicode="&#xe57a;" horiz-adv-x="382" 
d="M126 -217q-32 0 -61 8l4 15q27 -8 57 -8q89 0 140 59t52 166q-12 -41 -48.5 -69t-84.5 -28q-32 0 -58.5 11.5t-45.5 31.5t-30 46.5t-11 56.5t10.5 56.5t30 46t46 31t58.5 11.5t62 -13.5t51 -40.5q20 -25 27.5 -56t7.5 -82q0 -114 -56 -178t-151 -64zM185 -59
q27 0 50.5 10.5t41 28.5t27.5 41.5t10 50.5q0 26 -10 49.5t-27 41.5t-41 28.5t-51 10.5q-28 0 -51.5 -10.5t-41 -28.5t-27 -41.5t-9.5 -49.5q0 -27 9.5 -50.5t27 -41.5t41 -28.5t51.5 -10.5z" />
    <glyph glyph-name="plus.inf" unicode="&#xe57b;" horiz-adv-x="290" 
d="M38 7h100v99h14v-99h99v-14h-99v-100h-14v100h-100v14z" />
    <glyph glyph-name="minus.inf" unicode="&#xe57c;" horiz-adv-x="290" 
d="M38 8h213v-15h-213v15z" />
    <glyph glyph-name="equal.inf" unicode="&#xe57d;" horiz-adv-x="290" 
d="M38 52h213v-14h-213v14zM38 -40h213v-14h-213v14z" />
    <glyph glyph-name="parenleft.inf" unicode="&#xe57e;" horiz-adv-x="277" 
d="M222 -317q-36 25 -66.5 56t-53 70t-35 85.5t-12.5 102.5q0 109 45 186.5t117 125.5l9 -13q-71 -47 -112.5 -123t-41.5 -176q0 -102 43.5 -177t114.5 -123l-8 -14v0z" />
    <glyph glyph-name="parenright.inf" unicode="&#xe57f;" horiz-adv-x="278" 
d="M47 -303q71 48 114.5 123t43.5 177q0 100 -41.5 176t-112.5 123l9 13q72 -48 117 -125.5t45 -186.5q0 -56 -12.5 -102.5t-35 -85.5t-53 -70t-66.5 -56z" />
    <glyph glyph-name="Anocross" unicode="&#xe731;" horiz-adv-x="732" 
d="M358 730h17l299 -730h-19l-289 706l-289 -706h-19z" />
    <glyph glyph-name="idotaccent" unicode="&#xe785;" horiz-adv-x="188" 
d="M86 540h16v-540h-16v540zM69 708q0 24 25 24q11 0 17.5 -6.5t6.5 -17.5t-6.5 -17.5t-17.5 -6.5t-18 6.5t-7 17.5z" />
    <glyph glyph-name="ohm" unicode="&#xe821;" horiz-adv-x="829" 
d="M26 16h284q-33 34 -71 77t-70.5 94t-54 109t-21.5 121q0 67 25.5 126t69.5 103t102.5 69.5t123.5 25.5t123.5 -25t103 -69t70.5 -103t26 -127q0 -64 -22.5 -121t-56 -107.5t-72 -93.5t-71.5 -79h288v-16h-298l-11 16q33 39 72.5 82.5t73.5 93t56.5 105.5t22.5 120
q0 66 -24.5 122t-66.5 97.5t-97.5 65t-116.5 23.5q-62 0 -117 -23.5t-96.5 -65t-65.5 -97.5t-24 -122q0 -62 22 -120t55.5 -109.5t72.5 -95t72 -76.5l-8 -16h-299v16z" />
    <glyph glyph-name="aacute.alt" unicode="&#xe891;" horiz-adv-x="694" 
d="M336 -11q-58 0 -109 22t-89.5 60t-60.5 89t-22 110q0 58 22 109.5t60.5 89.5t89.5 60t109 22q44 0 85 -13.5t75.5 -38t60.5 -60.5t40 -81v182h15v-540h-15v182q-14 -45 -40 -81t-60.5 -61t-75.5 -38t-85 -13zM336 4q55 0 103 21t83 57t55.5 84.5t20.5 103.5t-20.5 103.5
t-55.5 84.5t-83 57t-103 21t-103 -21t-84 -57t-56.5 -84.5t-20.5 -103.5t20.5 -103.5t56.5 -84.5t84 -57t103 -21zM444 780h25l-130 -140h-20z" />
    <glyph glyph-name="agrave.alt" unicode="&#xe892;" horiz-adv-x="694" 
d="M336 -11q-58 0 -109 22t-89.5 60t-60.5 89t-22 110q0 58 22 109.5t60.5 89.5t89.5 60t109 22q44 0 85 -13.5t75.5 -38t60.5 -60.5t40 -81v182h15v-540h-15v182q-14 -45 -40 -81t-60.5 -61t-75.5 -38t-85 -13zM336 4q55 0 103 21t83 57t55.5 84.5t20.5 103.5t-20.5 103.5
t-55.5 84.5t-83 57t-103 21t-103 -21t-84 -57t-56.5 -84.5t-20.5 -103.5t20.5 -103.5t56.5 -84.5t84 -57t103 -21zM201 778h25l125 -140h-20z" />
    <glyph glyph-name="acircumflex.alt" unicode="&#xe893;" horiz-adv-x="694" 
d="M336 -11q-58 0 -109 22t-89.5 60t-60.5 89t-22 110q0 58 22 109.5t60.5 89.5t89.5 60t109 22q44 0 85 -13.5t75.5 -38t60.5 -60.5t40 -81v182h15v-540h-15v182q-14 -45 -40 -81t-60.5 -61t-75.5 -38t-85 -13zM336 4q55 0 103 21t83 57t55.5 84.5t20.5 103.5t-20.5 103.5
t-55.5 84.5t-83 57t-103 21t-103 -21t-84 -57t-56.5 -84.5t-20.5 -103.5t20.5 -103.5t56.5 -84.5t84 -57t103 -21zM335 767h15l119 -140h-21l-106 125l-106 -125h-20z" />
    <glyph glyph-name="adieresis.alt" unicode="&#xe894;" horiz-adv-x="694" 
d="M336 -11q-58 0 -109 22t-89.5 60t-60.5 89t-22 110q0 58 22 109.5t60.5 89.5t89.5 60t109 22q44 0 85 -13.5t75.5 -38t60.5 -60.5t40 -81v182h15v-540h-15v182q-14 -45 -40 -81t-60.5 -61t-75.5 -38t-85 -13zM336 4q55 0 103 21t83 57t55.5 84.5t20.5 103.5t-20.5 103.5
t-55.5 84.5t-83 57t-103 21t-103 -21t-84 -57t-56.5 -84.5t-20.5 -103.5t20.5 -103.5t56.5 -84.5t84 -57t103 -21zM256 680q0 11 7.5 18t18.5 7q25 0 25 -25q0 -11 -7.5 -18t-18.5 -7q-25 0 -25 25zM375 680q0 25 25 25t25 -25t-25 -25t-25 25z" />
    <glyph glyph-name="amacron.alt" unicode="&#xe895;" horiz-adv-x="694" 
d="M336 -11q-58 0 -109 22t-89.5 60t-60.5 89t-22 110q0 58 22 109.5t60.5 89.5t89.5 60t109 22q44 0 85 -13.5t75.5 -38t60.5 -60.5t40 -81v182h15v-540h-15v182q-14 -45 -40 -81t-60.5 -61t-75.5 -38t-85 -13zM336 4q55 0 103 21t83 57t55.5 84.5t20.5 103.5t-20.5 103.5
t-55.5 84.5t-83 57t-103 21t-103 -21t-84 -57t-56.5 -84.5t-20.5 -103.5t20.5 -103.5t56.5 -84.5t84 -57t103 -21zM210 676h264v-15h-264v15z" />
    <glyph glyph-name="abreve.alt" unicode="&#xe896;" horiz-adv-x="694" 
d="M336 -11q-58 0 -109 22t-89.5 60t-60.5 89t-22 110q0 58 22 109.5t60.5 89.5t89.5 60t109 22q44 0 85 -13.5t75.5 -38t60.5 -60.5t40 -81v182h15v-540h-15v182q-14 -45 -40 -81t-60.5 -61t-75.5 -38t-85 -13zM336 4q55 0 103 21t83 57t55.5 84.5t20.5 103.5t-20.5 103.5
t-55.5 84.5t-83 57t-103 21t-103 -21t-84 -57t-56.5 -84.5t-20.5 -103.5t20.5 -103.5t56.5 -84.5t84 -57t103 -21zM344 629q-41 0 -71.5 13t-50.5 33.5t-30 46.5t-10 52h16q0 -23 9 -46t27 -42t45.5 -30.5t64.5 -11.5q34 0 61 11.5t45.5 30.5t28.5 42t10 46h16
q0 -26 -11 -52t-32 -46.5t-51 -33.5t-67 -13z" />
    <glyph glyph-name="aring.alt" unicode="&#xe897;" horiz-adv-x="694" 
d="M336 -11q-58 0 -109 22t-89.5 60t-60.5 89t-22 110q0 58 22 109.5t60.5 89.5t89.5 60t109 22q44 0 85 -13.5t75.5 -38t60.5 -60.5t40 -81v182h15v-540h-15v182q-14 -45 -40 -81t-60.5 -61t-75.5 -38t-85 -13zM336 4q55 0 103 21t83 57t55.5 84.5t20.5 103.5t-20.5 103.5
t-55.5 84.5t-83 57t-103 21t-103 -21t-84 -57t-56.5 -84.5t-20.5 -103.5t20.5 -103.5t56.5 -84.5t84 -57t103 -21zM344 627q-34 0 -58.5 24.5t-24.5 58.5q0 36 24.5 60.5t58.5 24.5q36 0 60.5 -24.5t24.5 -60.5q0 -34 -24.5 -58.5t-60.5 -24.5zM344 642q29 0 49.5 20
t20.5 48q0 29 -20.5 49.5t-49.5 20.5q-28 0 -48 -20.5t-20 -49.5q0 -28 20 -48t48 -20z" />
    <glyph glyph-name="atilde.alt" unicode="&#xe898;" horiz-adv-x="694" 
d="M336 -11q-58 0 -109 22t-89.5 60t-60.5 89t-22 110q0 58 22 109.5t60.5 89.5t89.5 60t109 22q44 0 85 -13.5t75.5 -38t60.5 -60.5t40 -81v182h15v-540h-15v182q-14 -45 -40 -81t-60.5 -61t-75.5 -38t-85 -13zM336 4q55 0 103 21t83 57t55.5 84.5t20.5 103.5t-20.5 103.5
t-55.5 84.5t-83 57t-103 21t-103 -21t-84 -57t-56.5 -84.5t-20.5 -103.5t20.5 -103.5t56.5 -84.5t84 -57t103 -21zM154 640q0 38 23 61t59 23q25 0 48 -11.5t46 -25.5t46 -25.5t46 -11.5q31 0 50.5 16.5t19.5 54.5h16q0 -42 -23.5 -63.5t-63.5 -21.5q-27 0 -51 12t-47 26
t-44.5 25t-42.5 11q-27 0 -46.5 -17.5t-19.5 -52.5h-16z" />
    <glyph glyph-name="aogonek.alt" unicode="&#xe899;" horiz-adv-x="694" 
d="M603 -221q-44 0 -69 24.5t-25 60.5q0 37 25 72.5t63 72.5v173q-14 -45 -40 -81t-60.5 -61t-75.5 -38t-85 -13q-58 0 -109 22t-89.5 60t-60.5 89t-22 110q0 58 22 109.5t60.5 89.5t89.5 60t109 22q44 0 85 -13.5t75.5 -38t60.5 -60.5t40 -81v182h15v-540
q-39 -32 -63.5 -69t-24.5 -66q0 -32 21.5 -51.5t57.5 -19.5q30 0 51 13t41 32l12 -11q-20 -19 -44 -34t-60 -15zM336 4q55 0 103 21t83 57t55.5 84.5t20.5 103.5t-20.5 103.5t-55.5 84.5t-83 57t-103 21t-103 -21t-84 -57t-56.5 -84.5t-20.5 -103.5t20.5 -103.5t56.5 -84.5
t84 -57t103 -21z" />
    <glyph glyph-name="ordfeminine.alt" unicode="&#xe926;" horiz-adv-x="429" 
d="M222 435q-30 0 -57.5 11.5t-47.5 32t-32 47.5t-12 59t12 59.5t32 48t47.5 32t57.5 11.5q45 0 81 -24t52 -67v85h16v-289h-16v83q-16 -42 -52 -65.5t-81 -23.5zM224 451q28 0 52 10.5t42 28.5t28 42.5t10 52.5t-10 52.5t-28 43t-42 29t-52 10.5t-52.5 -10.5t-42.5 -29
t-28.5 -43t-10.5 -52.5t10.5 -52.5t28.5 -42.5t42.5 -28.5t52.5 -10.5z" />
    <glyph glyph-name="interrobangdown" unicode="&#xe935;" horiz-adv-x="524" 
d="M256 -240q-42 0 -78 12t-62.5 33.5t-41.5 51.5t-15 66q0 46 14 75.5t35.5 52t46.5 43.5t46.5 49.5t35.5 70t14 105.5v29h17q0 -26 0.5 -82t0.5 -123.5t0.5 -136.5t0.5 -119v-110q64 3 107 30.5t67 74.5l15 -7q-25 -51 -75.5 -83t-127.5 -32zM76 -77q0 -32 13.5 -58.5
t37.5 -46t56 -30.5t69 -12v111q0 36 0.5 78.5t1 86.5t1 87.5t0.5 81.5q-10 -40 -27 -67.5t-37 -48.5t-40.5 -38.5t-37 -37t-27 -45t-10.5 -61.5zM234 478q0 25 25 25t25 -25t-25 -25t-25 25z" />
    <glyph glyph-name="interrobangdown.cap" unicode="&#xe99b;" horiz-adv-x="524" 
d="M256 -10q-42 0 -78 12t-62.5 33.5t-41.5 51.5t-15 66q0 46 14 75.5t35.5 52t46.5 43.5t46.5 49.5t35.5 70t14 105.5v29h17q0 -26 0.5 -82t0.5 -123.5t0.5 -136.5t0.5 -119v-111q64 3 107 30.5t67 75.5l15 -7q-25 -51 -75.5 -83t-127.5 -32zM76 153q0 -32 13.5 -59
t37.5 -46.5t56 -30.5t69 -11v111q0 36 0.5 78t1 86.5t1 88t0.5 81.5q-10 -40 -27 -67.5t-37 -48.5t-40.5 -38.5t-37 -37t-27 -45t-10.5 -61.5zM234 708q0 25 25 25t25 -25t-25 -25t-25 25z" />
    <glyph glyph-name="registered.cap" unicode="&#xe99c;" horiz-adv-x="880" 
d="M440 -10q-78 0 -146 29.5t-119 80.5t-80.5 119t-29.5 146t29.5 146t80.5 119t119 80.5t146 29.5t146 -29.5t119 -80.5t80.5 -119t29.5 -146t-29.5 -146t-80.5 -119t-119 -80.5t-146 -29.5zM440 6q74 0 139 28t113.5 77t76.5 114.5t28 139.5t-28 139.5t-76.5 114
t-113.5 77t-139 28.5t-139 -28.5t-113.5 -77t-76.5 -114t-28 -139.5t28 -139.5t76.5 -114.5t113.5 -77t139 -28zM316 554h154q27 0 49 -8.5t38 -23.5t25 -35.5t9 -44.5q0 -45 -28 -79t-76 -38l105 -145h-22l-113 158h10q48 0 77.5 30t29.5 74q0 43 -30 70t-74 27h-138v-359
h-16v374z" />
    <glyph glyph-name="Aumlaut" unicode="&#xf176;" horiz-adv-x="728" 
d="M160 707q0 11 7.5 18t18.5 7q25 0 25 -25q0 -11 -7.5 -18t-18.5 -7q-25 0 -25 25zM519 707q0 25 25 25t25 -25t-25 -25t-25 25zM356 730h17l309 -730h-18l-103 243h-394l-103 -243h-18zM173 258h382l-191 450z" />
    <glyph glyph-name="Oumlaut" unicode="&#xf177;" horiz-adv-x="898" 
d="M84 717q0 11 7.5 18t18.5 7q25 0 25 -25q0 -11 -7.5 -18t-18.5 -7q-25 0 -25 25zM757 717q0 25 25 25t25 -25t-25 -25t-25 25zM449 -10q-78 0 -146 29.5t-119 80.5t-80.5 119t-29.5 146t29.5 146t80.5 119t119 80.5t146 29.5t146 -29.5t119 -80.5t80.5 -119t29.5 -146
t-29.5 -146t-80.5 -119t-119 -80.5t-146 -29.5zM449 6q74 0 139 28t113.5 77t76.5 114.5t28 139.5t-28 139.5t-76.5 114t-113.5 77t-139 28.5t-139 -28.5t-113.5 -77t-76.5 -114t-28 -139.5t28 -139.5t76.5 -114.5t113.5 -77t139 -28z" />
    <glyph glyph-name="Uumlaut" unicode="&#xf178;" horiz-adv-x="701" 
d="M225 708q0 11 7.5 18t18.5 7q25 0 25 -25q0 -11 -7.5 -18t-18.5 -7q-25 0 -25 25zM421 708q0 25 25 25t25 -25t-25 -25t-25 25zM350 -10q-58 0 -105.5 19t-81.5 52.5t-52.5 81t-18.5 104.5v483h17v-482q0 -54 17.5 -99t49.5 -76.5t76.5 -49t97.5 -17.5t97.5 17.5t76.5 49
t50 76t18 99.5v482h17v-482q0 -57 -18.5 -104.5t-52.5 -81.5t-82 -53t-106 -19z" />
    <glyph glyph-name="period.T" unicode="&#xf182;" horiz-adv-x="294" 
d="M120 22q0 25 25 25t25 -25t-25 -25t-25 25z" />
    <glyph glyph-name="comma.T" unicode="&#xf183;" horiz-adv-x="294" 
d="M109 -110q13 7 24 19.5t19 27t12.5 29.5t4.5 29q0 22 -10 30q3 -3 3 -8q0 -20 -20 -20q-9 0 -16 6.5t-7 17.5t7 18.5t20 7.5q17 0 27 -13t10 -39q0 -33 -20 -65t-46 -50z" />
    <glyph glyph-name="colon.T" unicode="&#xf184;" horiz-adv-x="294" 
d="M121 92q0 25 25 25t25 -25t-25 -25t-25 25zM121 459q0 25 25 25t25 -25t-25 -25t-25 25z" />
    <glyph glyph-name="semicolon.T" unicode="&#xf185;" horiz-adv-x="294" 
d="M109 -110q13 7 24 19.5t19 27t12.5 29.5t4.5 29q0 22 -10 30q3 -3 3 -8q0 -20 -20 -20q-9 0 -16 6.5t-7 17.5t7 18.5t20 7.5q17 0 27 -13t10 -39q0 -33 -20 -65t-46 -50zM121 459q0 25 25 25t25 -25t-25 -25t-25 25z" />
    <glyph glyph-name="onesixteenth" unicode="&#xf215;" horiz-adv-x="1011" 
d="M575 730h21l-527 -730h-21zM134 308v378q-8 -21 -30 -35t-49 -14h-6v16h3q40 0 61 24.5t23 52.5h14v-422h-16zM531 0v378q-8 -21 -30 -35t-49 -14h-6v16h3q40 0 61 24.5t23 52.5h14v-422h-16zM821 -6q-32 0 -62 13.5t-51 40.5q-20 25 -27.5 56t-7.5 82q0 114 54 178
t149 64q33 0 58 -7l-4 -15q-24 7 -54 7q-90 0 -139 -59.5t-49 -167.5v-2q6 21 18.5 39t29.5 32t39 22t46 8q31 0 58 -11.5t46 -31.5t30 -46.5t11 -56.5t-10.5 -56.5t-30 -46t-46 -31t-58.5 -11.5zM821 9q28 0 51.5 10.5t41 28.5t27 41.5t9.5 49.5q0 27 -10 50.5t-27 41.5
t-40.5 28.5t-51.5 10.5q-27 0 -50.5 -10.5t-41 -28.5t-27.5 -41.5t-10 -50.5q0 -26 10 -49.5t27 -41.5t41 -28.5t51 -10.5z" />
    <glyph glyph-name="threesixteenths" unicode="&#xf216;" horiz-adv-x="1158" 
d="M678 0v378q-8 -21 -30 -35t-49 -14h-6v16h3q40 0 61 24.5t23 52.5h14v-422h-16zM968 -6q-32 0 -62 13.5t-51 40.5q-20 25 -27.5 56t-7.5 82q0 114 54 178t149 64q33 0 58 -7l-4 -15q-24 7 -54 7q-90 0 -139 -59.5t-49 -167.5v-2q6 21 18.5 39t29.5 32t39 22t46 8
q31 0 58 -11.5t46 -31.5t30 -46.5t11 -56.5t-10.5 -56.5t-30 -46t-46 -31t-58.5 -11.5zM968 9q28 0 51.5 10.5t41 28.5t27 41.5t9.5 49.5q0 27 -10 50.5t-27 41.5t-40.5 28.5t-51.5 10.5q-27 0 -50.5 -10.5t-41 -28.5t-27.5 -41.5t-10 -50.5q0 -26 10 -49.5t27 -41.5
t41 -28.5t51 -10.5zM722 730h21l-527 -730h-21zM189 302q-44 0 -81 15t-60 44l13 11q21 -29 55.5 -42t72.5 -13q61 0 97 28.5t36 74.5q0 48 -35.5 74.5t-92.5 26.5h-44v14h44q57 0 87.5 26t30.5 68t-31 67t-81 25q-43 0 -72 -16t-46 -39l-13 10q19 22 51 41t81 19
q56 0 91.5 -29.5t35.5 -77.5q0 -38 -22 -64.5t-64 -36.5q45 -10 70.5 -37t25.5 -71q0 -53 -40 -85.5t-109 -32.5z" />
    <glyph glyph-name="fivesixteenths" unicode="&#xf217;" horiz-adv-x="1142" 
d="M662 0v378q-8 -21 -30 -35t-49 -14h-6v16h3q40 0 61 24.5t23 52.5h14v-422h-16zM952 -6q-32 0 -62 13.5t-51 40.5q-20 25 -27.5 56t-7.5 82q0 114 54 178t149 64q33 0 58 -7l-4 -15q-24 7 -54 7q-90 0 -139 -59.5t-49 -167.5v-2q6 21 18.5 39t29.5 32t39 22t46 8
q31 0 58 -11.5t46 -31.5t30 -46.5t11 -56.5t-10.5 -56.5t-30 -46t-46 -31t-58.5 -11.5zM952 9q28 0 51.5 10.5t41 28.5t27 41.5t9.5 49.5q0 27 -10 50.5t-27 41.5t-40.5 28.5t-51.5 10.5q-27 0 -50.5 -10.5t-41 -28.5t-27.5 -41.5t-10 -50.5q0 -26 10 -49.5t27 -41.5
t41 -28.5t51 -10.5zM188 302q-48 0 -86.5 19.5t-58.5 60.5l15 8q17 -37 51.5 -55t78.5 -18q26 0 49.5 9t41 26t28 40t10.5 52q0 33 -11.5 56.5t-29.5 39.5t-40.5 23.5t-44.5 7.5q-49 0 -81.5 -23.5t-50.5 -61.5l-16 5l35 239h234v-14h-221l-30 -200q20 30 51.5 49.5
t78.5 19.5q25 0 50.5 -8.5t46 -26t33 -44t12.5 -62.5q0 -30 -11 -56t-30 -45t-46 -30t-58 -11zM706 730h21l-527 -730h-21z" />
    <glyph glyph-name="sevensixteenths" unicode="&#xf218;" horiz-adv-x="1011" 
d="M280 715h-251v15h268v-14l-199 -408h-18zM531 0v378q-8 -21 -30 -35t-49 -14h-6v16h3q40 0 61 24.5t23 52.5h14v-422h-16zM821 -6q-32 0 -62 13.5t-51 40.5q-20 25 -27.5 56t-7.5 82q0 114 54 178t149 64q33 0 58 -7l-4 -15q-24 7 -54 7q-90 0 -139 -59.5t-49 -167.5v-2
q6 21 18.5 39t29.5 32t39 22t46 8q31 0 58 -11.5t46 -31.5t30 -46.5t11 -56.5t-10.5 -56.5t-30 -46t-46 -31t-58.5 -11.5zM821 9q28 0 51.5 10.5t41 28.5t27 41.5t9.5 49.5q0 27 -10 50.5t-27 41.5t-40.5 28.5t-51.5 10.5q-27 0 -50.5 -10.5t-41 -28.5t-27.5 -41.5
t-10 -50.5q0 -26 10 -49.5t27 -41.5t41 -28.5t51 -10.5zM575 730h21l-527 -730h-21z" />
    <glyph glyph-name="ninesixteenths" unicode="&#xf219;" horiz-adv-x="1115" 
d="M635 0v378q-8 -21 -30 -35t-49 -14h-6v16h3q40 0 61 24.5t23 52.5h14v-422h-16zM925 -6q-32 0 -62 13.5t-51 40.5q-20 25 -27.5 56t-7.5 82q0 114 54 178t149 64q33 0 58 -7l-4 -15q-24 7 -54 7q-90 0 -139 -59.5t-49 -167.5v-2q6 21 18.5 39t29.5 32t39 22t46 8
q31 0 58 -11.5t46 -31.5t30 -46.5t11 -56.5t-10.5 -56.5t-30 -46t-46 -31t-58.5 -11.5zM925 9q28 0 51.5 10.5t41 28.5t27 41.5t9.5 49.5q0 27 -10 50.5t-27 41.5t-40.5 28.5t-51.5 10.5q-27 0 -50.5 -10.5t-41 -28.5t-27.5 -41.5t-10 -50.5q0 -26 10 -49.5t27 -41.5
t41 -28.5t51 -10.5zM679 730h21l-527 -730h-21zM126 302q-32 0 -61 8l4 15q27 -8 57 -8q89 0 140 59t52 166q-12 -41 -48.5 -69t-84.5 -28q-32 0 -58.5 11.5t-45.5 31.5t-30 46.5t-11 56.5t10.5 56.5t30 46t46 31t58.5 11.5t62 -13.5t51 -40.5q20 -25 27.5 -56t7.5 -82
q0 -114 -56 -178t-151 -64zM185 460q27 0 50.5 10.5t41 28.5t27.5 41.5t10 50.5q0 26 -10 49.5t-27 41.5t-41 28.5t-51 10.5q-28 0 -51.5 -10.5t-41 -28.5t-27 -41.5t-9.5 -49.5q0 -27 9.5 -50.5t27 -41.5t41 -28.5t51.5 -10.5z" />
    <glyph glyph-name="elevensixteenths" unicode="&#xf220;" horiz-adv-x="1215" 
d="M779 730h21l-527 -730h-21zM338 308v378q-8 -21 -30 -35t-49 -14h-6v16h3q40 0 61 24.5t23 52.5h14v-422h-16zM735 0v378q-8 -21 -30 -35t-49 -14h-6v16h3q40 0 61 24.5t23 52.5h14v-422h-16zM1025 -6q-32 0 -62 13.5t-51 40.5q-20 25 -27.5 56t-7.5 82q0 114 54 178
t149 64q33 0 58 -7l-4 -15q-24 7 -54 7q-90 0 -139 -59.5t-49 -167.5v-2q6 21 18.5 39t29.5 32t39 22t46 8q31 0 58 -11.5t46 -31.5t30 -46.5t11 -56.5t-10.5 -56.5t-30 -46t-46 -31t-58.5 -11.5zM1025 9q28 0 51.5 10.5t41 28.5t27 41.5t9.5 49.5q0 27 -10 50.5t-27 41.5
t-40.5 28.5t-51.5 10.5q-27 0 -50.5 -10.5t-41 -28.5t-27.5 -41.5t-10 -50.5q0 -26 10 -49.5t27 -41.5t41 -28.5t51 -10.5zM134 308v378q-8 -21 -30 -35t-49 -14h-6v16h3q40 0 61 24.5t23 52.5h14v-422h-16z" />
    <glyph glyph-name="thirteensixteenths" unicode="&#xf221;" horiz-adv-x="1368" 
d="M888 0v378q-8 -21 -30 -35t-49 -14h-6v16h3q40 0 61 24.5t23 52.5h14v-422h-16zM1178 -6q-32 0 -62 13.5t-51 40.5q-20 25 -27.5 56t-7.5 82q0 114 54 178t149 64q33 0 58 -7l-4 -15q-24 7 -54 7q-90 0 -139 -59.5t-49 -167.5v-2q6 21 18.5 39t29.5 32t39 22t46 8
q31 0 58 -11.5t46 -31.5t30 -46.5t11 -56.5t-10.5 -56.5t-30 -46t-46 -31t-58.5 -11.5zM1178 9q28 0 51.5 10.5t41 28.5t27 41.5t9.5 49.5q0 27 -10 50.5t-27 41.5t-40.5 28.5t-51.5 10.5q-27 0 -50.5 -10.5t-41 -28.5t-27.5 -41.5t-10 -50.5q0 -26 10 -49.5t27 -41.5
t41 -28.5t51 -10.5zM932 730h21l-527 -730h-21zM134 308v378q-8 -21 -30 -35t-49 -14h-6v16h3q40 0 61 24.5t23 52.5h14v-422h-16zM392 302q-44 0 -81 15t-60 44l13 11q21 -29 55.5 -42t72.5 -13q61 0 97 28.5t36 74.5q0 48 -35.5 74.5t-92.5 26.5h-44v14h44q57 0 87.5 26
t30.5 68t-31 67t-81 25q-43 0 -72 -16t-46 -39l-13 10q19 22 51 41t81 19q56 0 91.5 -29.5t35.5 -77.5q0 -38 -22 -64.5t-64 -36.5q45 -10 70.5 -37t25.5 -71q0 -53 -40 -85.5t-109 -32.5z" />
    <glyph glyph-name="fifteensixteenths" unicode="&#xf222;" horiz-adv-x="1368" 
d="M888 0v378q-8 -21 -30 -35t-49 -14h-6v16h3q40 0 61 24.5t23 52.5h14v-422h-16zM1178 -6q-32 0 -62 13.5t-51 40.5q-20 25 -27.5 56t-7.5 82q0 114 54 178t149 64q33 0 58 -7l-4 -15q-24 7 -54 7q-90 0 -139 -59.5t-49 -167.5v-2q6 21 18.5 39t29.5 32t39 22t46 8
q31 0 58 -11.5t46 -31.5t30 -46.5t11 -56.5t-10.5 -56.5t-30 -46t-46 -31t-58.5 -11.5zM1178 9q28 0 51.5 10.5t41 28.5t27 41.5t9.5 49.5q0 27 -10 50.5t-27 41.5t-40.5 28.5t-51.5 10.5q-27 0 -50.5 -10.5t-41 -28.5t-27.5 -41.5t-10 -50.5q0 -26 10 -49.5t27 -41.5
t41 -28.5t51 -10.5zM932 730h21l-527 -730h-21zM134 308v378q-8 -21 -30 -35t-49 -14h-6v16h3q40 0 61 24.5t23 52.5h14v-422h-16zM409 302q-48 0 -86.5 19.5t-58.5 60.5l15 8q17 -37 51.5 -55t78.5 -18q26 0 49.5 9t41 26t28 40t10.5 52q0 33 -11.5 56.5t-29.5 39.5
t-40.5 23.5t-44.5 7.5q-49 0 -81.5 -23.5t-50.5 -61.5l-16 5l35 239h234v-14h-221l-30 -200q20 30 51.5 49.5t78.5 19.5q25 0 50.5 -8.5t46 -26t33 -44t12.5 -62.5q0 -30 -11 -56t-30 -45t-46 -30t-58 -11z" />
    </font>
</defs>
</svg>
