<?xml version="1.0" standalone="no"?>
<!DOCTYPE svg PUBLIC "-//W3C//DTD SVG 1.1//EN" "http://www.w3.org/Graphics/SVG/1.1/DTD/svg11.dtd" >
<svg xmlns="http://www.w3.org/2000/svg" xmlns:xlink="http://www.w3.org/1999/xlink" version="1.1">
<metadata>
Created by FontForge 20170731 at Fri Sep  9 18:41:26 2016
 By Aleksey,,,
Copyright (c) 2016 by Lucas Sharp. All rights reserved.
</metadata>
<defs>
<font id="SharpSans-SemiboldItalic" horiz-adv-x="638" >
  <font-face 
    font-family="Sharp Sans Semibold"
    font-weight="600"
    font-style="italic"
    font-stretch="normal"
    units-per-em="1000"
    panose-1="0 0 0 0 0 0 0 0 0 0"
    ascent="800"
    descent="-200"
    x-height="540"
    cap-height="730"
    bbox="-142 -297 1454 1106"
    underline-thickness="50"
    underline-position="-150"
    unicode-range="U+000D-F472"
  />
<missing-glyph horiz-adv-x="740" 
d="M164 730h574l-128 -730h-574zM164 105h354l91 520h-354z" />
    <glyph glyph-name=".notdef" horiz-adv-x="740" 
d="M164 730h574l-128 -730h-574zM164 105h354l91 520h-354z" />
    <glyph glyph-name=".null" horiz-adv-x="0" 
 />
    <glyph glyph-name="nonmarkingreturn" unicode="&#xd;" horiz-adv-x="240" 
 />
    <glyph glyph-name="NULL" horiz-adv-x="0" 
 />
    <glyph glyph-name="NULL" horiz-adv-x="0" 
 />
    <glyph glyph-name="space" unicode=" " horiz-adv-x="240" 
 />
    <glyph glyph-name="exclam" unicode="!" horiz-adv-x="267" 
d="M91 193q2 40 7 92t11.5 108t15 113t17.5 107l20 117h108l-20 -117q-9 -50 -21 -107t-25.5 -113t-27.5 -108t-26 -92h-59zM94 -16q-38 0 -58 25.5t-13 60.5q5 29 28.5 48t52.5 19q19 0 34 -7t24 -19t12.5 -27.5t0.5 -31.5q-6 -30 -28 -49t-53 -19z" />
    <glyph glyph-name="quotedbl" unicode="&#x22;" horiz-adv-x="357" 
d="M139 500q-2 9 -3 28.5t-1.5 41.5t0 43t2.5 33l15 84h85l-15 -84q-2 -12 -8.5 -33t-15 -43t-16.5 -41.5t-12 -28.5h-31zM271 500q-2 9 -3 28.5t-1.5 41.5t0 43t2.5 33l15 84h85l-15 -84q-2 -12 -8.5 -33t-15 -43t-16.5 -41.5t-12 -28.5h-31z" />
    <glyph glyph-name="numbersign" unicode="#" horiz-adv-x="860" 
d="M510 171h-184l-30 -171h-110l30 171h-170l20 105h168l33 188h-168l19 105h168l28 161h110l-28 -161h184l28 161h110l-28 -161h169l-20 -105h-168l-33 -188h168l-19 -105h-167l-30 -171h-110zM344 276h184l33 188h-184z" />
    <glyph glyph-name="dollar" unicode="$" horiz-adv-x="601" 
d="M529 180q-6 -38 -24.5 -70.5t-47.5 -57.5t-67.5 -41t-85.5 -20l-12 -73h-94l14 78q-69 13 -116 48.5t-76 82.5l99 67q18 -34 46 -58.5t65 -35.5l44 244q-32 14 -63 32t-54 43.5t-34 61t-3 85.5q14 76 73.5 122.5t149.5 50.5l13 72h93l-15 -80q53 -13 93 -41.5t65 -64.5
l-93 -64q-14 25 -35 43t-47 28l-39 -219q32 -16 63 -35.5t53 -46.5t32.5 -64t2.5 -87zM417 191q8 38 -9.5 63.5t-49.5 45.5l-35 -203q40 9 64 34t30 60zM232 555q-7 -36 11.5 -59.5t49.5 -41.5l33 187q-42 -7 -65.5 -30.5t-28.5 -55.5z" />
    <glyph glyph-name="percent" unicode="%" horiz-adv-x="883" 
d="M773 730h137l-755 -730h-138zM278 391q-39 0 -71 15.5t-53 42t-29.5 61.5t-2.5 73q6 32 23 60.5t42 50t56.5 34t66.5 12.5q38 0 69.5 -15.5t53 -41.5t30.5 -60.5t3 -71.5q-6 -33 -22.5 -62t-41 -51t-56.5 -34.5t-68 -12.5zM287 482q33 0 58.5 22t30.5 54q3 18 -1 34.5
t-14 29t-25.5 20.5t-34.5 8q-34 0 -58.5 -21.5t-30.5 -53.5q-3 -18 1 -35t13.5 -29.5t25 -20.5t35.5 -8zM616 -11q-39 0 -70.5 16t-52.5 42.5t-30 61t-2 72.5q6 32 23 61t42 50.5t56.5 34t66.5 12.5q38 0 69.5 -15.5t53 -42t30.5 -61t3 -71.5q-6 -33 -22.5 -62t-41.5 -51
t-57 -34.5t-68 -12.5zM625 80q16 0 31.5 6t27.5 16.5t20 24.5t11 30q3 17 -1 33.5t-14 29.5t-25.5 21t-34.5 8q-34 0 -58.5 -22t-30.5 -54q-3 -18 1 -34.5t13.5 -29.5t24.5 -21t35 -8z" />
    <glyph glyph-name="ampersand" unicode="&#x26;" horiz-adv-x="793" 
d="M228 -10q-51 0 -90 19t-63.5 50t-34.5 71.5t-2 83.5q7 40 26.5 70.5t46.5 54t60 42t68 33.5q-36 48 -49.5 88.5t-4.5 92.5q5 30 21.5 56t41.5 46t58 31.5t72 11.5q47 0 82 -15.5t56.5 -42t29.5 -60t2 -69.5q-6 -31 -20.5 -55.5t-35.5 -44.5t-47.5 -36.5t-54.5 -30.5
l108 -128l175 181h134l-244 -250l168 -189h-131l-105 120q-41 -39 -73.5 -64t-63 -39.5t-62 -20.5t-68.5 -6zM245 90q24 0 44.5 4.5t42 15.5t45 30t53.5 48l-132 155q-29 -13 -54.5 -27t-46 -29.5t-34 -34.5t-17.5 -43q-8 -53 20 -86t79 -33zM285 575q-5 -25 5 -50.5
t43 -68.5q45 21 77 45.5t39 62.5q7 37 -14.5 62t-57.5 25q-38 0 -62 -21t-30 -55z" />
    <glyph glyph-name="quotesingle" unicode="'" horiz-adv-x="225" 
d="M139 500q-2 9 -3 28.5t-1.5 41.5t0 43t2.5 33l15 84h85l-15 -84q-2 -12 -8.5 -33t-15 -43t-16.5 -41.5t-12 -28.5h-31v0z" />
    <glyph glyph-name="parenleft" unicode="(" horiz-adv-x="448" 
d="M262 -241q-53 43 -96 96t-70.5 118t-36 143t7.5 170q14 86 48.5 157.5t82.5 129.5t107 102.5t122 77.5l62 -89q-123 -60 -203 -156t-106 -236q-23 -137 16 -242.5t141 -184.5z" />
    <glyph glyph-name="parenright" unicode=")" horiz-adv-x="448" 
d="M187 748q53 -43 96 -96t70 -117.5t35.5 -142t-7.5 -169.5q-14 -86 -47.5 -158.5t-81 -131.5t-105.5 -104.5t-121 -78.5l-63 90q124 60 201.5 158t103.5 239q23 138 -15.5 241.5t-140.5 182.5z" />
    <glyph glyph-name="asterisk" unicode="*" horiz-adv-x="463" 
d="M302 508l-3 -131h-95l45 132l-120 -84l-31 82l132 47l-115 49l62 81l88 -85l1 132h95l-44 -131l118 83l33 -82l-134 -47l116 -48l-62 -81z" />
    <glyph glyph-name="plus" unicode="+" horiz-adv-x="500" 
d="M91 411h139l25 138h91l-25 -138h140l-17 -92h-139l-24 -140h-91l24 140h-140z" />
    <glyph glyph-name="comma" unicode="," horiz-adv-x="282" 
d="M6 -101q105 58 117 130v4q-12 -42 -51 -42q-28 0 -43.5 22.5t-10.5 50.5q5 30 28.5 51.5t60.5 21.5q39 0 63 -28.5t16 -76.5q-18 -106 -152 -178z" />
    <glyph glyph-name="hyphen" unicode="-" horiz-adv-x="500" 
d="M75 301h370l-17 -92h-370z" />
    <glyph glyph-name="period" unicode="." horiz-adv-x="258" 
d="M89 -16q-38 0 -58 25.5t-13 60.5q5 29 28.5 48t52.5 19q19 0 34 -7t24 -19t12.5 -27.5t0.5 -31.5q-6 -30 -28 -49t-53 -19z" />
    <glyph glyph-name="slash" unicode="/" horiz-adv-x="541" 
d="M466 730h117l-471 -730h-119z" />
    <glyph glyph-name="zero" unicode="0" horiz-adv-x="645" 
d="M296 -10q-68 0 -118.5 22t-81 66t-39 109t7.5 151l22 122q26 142 102.5 211t194.5 69q58 0 108 -19t83.5 -59t46 -102.5t-4.5 -149.5l-24 -138q-26 -139 -101 -210.5t-196 -71.5zM304 93q72 0 117 47t65 151l22 128q11 59 6 100.5t-23 67.5t-48.5 38t-69.5 12
q-73 0 -117.5 -49t-63.5 -152l-16 -99q-11 -66 -7 -112.5t21 -75.5t46 -42.5t68 -13.5z" />
    <glyph glyph-name="one" unicode="1" horiz-adv-x="379" 
d="M256 565q-24 -38 -67 -60t-97 -22h-12l19 108h5q41 0 72.5 10.5t54 29.5t36.5 44t20 55h105l-128 -730h-107z" />
    <glyph glyph-name="two" unicode="2" horiz-adv-x="578" 
d="M17 104q8 45 32.5 82t59.5 68t76.5 57.5t83.5 50.5q35 21 68.5 40.5t60.5 40.5t45.5 43.5t23.5 48.5q4 24 -3 44t-23 34.5t-40 23t-54 8.5q-57 0 -97.5 -27t-60.5 -69l-94 45q33 67 100 106.5t155 39.5q54 0 99.5 -16t76 -45.5t43.5 -70t4 -88.5q-7 -40 -30 -73
t-56 -61.5t-72.5 -53t-79.5 -47.5q-36 -21 -70.5 -41.5t-62 -42.5t-46.5 -46t-24 -51h366l-18 -104h-481z" />
    <glyph glyph-name="three" unicode="3" horiz-adv-x="578" 
d="M250 -10q-94 0 -160 36.5t-98 94.5l96 55q25 -46 68 -67t94 -21q26 0 52 7t47 21.5t35.5 35.5t19.5 49q5 27 -1.5 50t-23 40t-42.5 26.5t-60 9.5h-81l17 100h76q63 0 107.5 29t52.5 79q4 24 -2.5 45t-23 36.5t-41.5 24.5t-56 9q-57 0 -93 -20t-63 -56l-83 58
q38 49 98 78.5t148 29.5q55 0 100 -16t74.5 -44.5t42 -69t3.5 -89.5q-9 -50 -40.5 -87.5t-85.5 -60.5q49 -30 72.5 -79.5t12.5 -115.5q-8 -44 -31 -79t-57.5 -59t-78.5 -37t-95 -13z" />
    <glyph glyph-name="four" unicode="4" horiz-adv-x="624" 
d="M374 172h-349l18 100l423 458h112l-81 -458h101l-18 -100h-100l-30 -172h-106zM391 272l53 300l-277 -300h224z" />
    <glyph glyph-name="five" unicode="5" horiz-adv-x="572" 
d="M244 -10q-85 0 -146 38t-86 103l106 48q14 -39 49 -64t83 -25q28 0 54.5 9t47.5 25.5t36.5 40t21.5 51.5q8 36 4 66t-19 52.5t-41.5 35t-63.5 12.5q-42 0 -75 -16t-56 -42l-92 42l110 364h398l-18 -102h-305l-57 -187q25 17 55.5 27.5t75.5 10.5q47 0 87 -18t67 -51.5
t38.5 -82t1.5 -108.5q-9 -48 -32 -90t-58.5 -73t-82.5 -48.5t-103 -17.5z" />
    <glyph glyph-name="six" unicode="6" horiz-adv-x="631" 
d="M313 -10q-124 0 -193 81q-44 51 -56 134.5t3 179.5q16 95 51 162.5t82 110t103.5 62.5t117.5 20q72 0 121.5 -19.5t84.5 -48.5l-76 -87q-19 20 -53.5 36t-83.5 16q-41 0 -78 -12.5t-68 -39.5t-54.5 -70t-38.5 -104q66 78 178 78q59 0 105 -22.5t75.5 -60t41.5 -86.5
t2 -103q-8 -45 -28.5 -86t-53.5 -72.5t-78.5 -50t-103.5 -18.5zM313 89q32 0 59 10.5t47.5 29.5t33.5 43.5t18 53.5q6 31 -0.5 61.5t-24.5 53.5t-46 37.5t-66 14.5q-32 0 -59.5 -9.5t-48.5 -27t-35 -41t-19 -51.5q-7 -35 0.5 -67t26.5 -56t48.5 -38t65.5 -14z" />
    <glyph glyph-name="seven" unicode="7" horiz-adv-x="580" 
d="M475 627h-366l18 103h484l-16 -94l-399 -636h-125z" />
    <glyph glyph-name="eight" unicode="8" horiz-adv-x="637" 
d="M291 -10q-66 0 -116.5 17.5t-82.5 49t-44.5 76t-3.5 98.5q8 54 45.5 96t97.5 66q-37 29 -54 71.5t-7 97.5q7 38 26.5 70.5t52 56.5t77.5 37.5t103 13.5q60 0 105.5 -17.5t74.5 -48t40.5 -71.5t3.5 -87q-9 -50 -40.5 -84.5t-77.5 -56.5q47 -30 69.5 -78t13.5 -104
q-8 -46 -30.5 -83.5t-59 -64t-85 -41t-108.5 -14.5zM300 87q74 0 117.5 33t51.5 83q5 28 -1.5 52t-25.5 42t-50 28t-75 10q-81 0 -120.5 -32t-48.5 -85q-5 -24 2.5 -47t26 -42t49.5 -30.5t74 -11.5zM352 427q71 0 109 29.5t46 76.5q8 51 -25.5 81.5t-105.5 30.5
q-68 0 -105.5 -26t-45.5 -71q-4 -25 1.5 -47t21 -38.5t41.5 -26t63 -9.5z" />
    <glyph glyph-name="nine" unicode="9" horiz-adv-x="630" 
d="M253 -12q-84 0 -141 29.5t-91 73.5l89 74q19 -30 59 -52t93 -22q39 0 73.5 12t64 39t52 71t36.5 108q-37 -45 -84 -63.5t-98 -18.5q-59 0 -105 23t-76 61.5t-42 88t-2 103.5q8 48 31 89t58.5 70.5t81.5 46.5t100 17q64 0 112 -22.5t83 -64.5q40 -48 51 -127t-6 -188
q-17 -101 -49.5 -168t-77 -107t-99 -56.5t-113.5 -16.5zM325 335q64 0 108.5 35t55.5 94q6 33 0.5 64.5t-22.5 55.5t-46 39t-70 15q-71 0 -112 -37.5t-51 -94.5q-6 -32 0.5 -62.5t24.5 -54.5t46 -39t66 -15z" />
    <glyph glyph-name="colon" unicode=":" horiz-adv-x="258" 
d="M89 -16q-38 0 -58 25.5t-13 60.5q5 29 28.5 48t52.5 19q19 0 34 -7t24 -19t12.5 -27.5t0.5 -31.5q-6 -30 -28 -49t-53 -19zM153 347q-38 0 -58 25.5t-13 60.5q5 29 28.5 48t52.5 19q19 0 34 -7t24 -19t12.5 -27.5t0.5 -31.5q-6 -30 -28 -49t-53 -19z" />
    <glyph glyph-name="semicolon" unicode=";" horiz-adv-x="282" 
d="M6 -101q105 58 117 130v4q-12 -42 -51 -42q-28 0 -43.5 22.5t-10.5 50.5q5 30 28.5 51.5t60.5 21.5q39 0 63 -28.5t16 -76.5q-18 -106 -152 -178zM160 347q-38 0 -58 25.5t-13 60.5q5 29 28.5 48t52.5 19q19 0 34 -7t24 -19t12.5 -27.5t0.5 -31.5q-6 -30 -28 -49t-53 -19
z" />
    <glyph glyph-name="less" unicode="&#x3c;" horiz-adv-x="500" 
d="M75 319l16 92l394 136l-17 -97l-271 -87l240 -89l-17 -93z" />
    <glyph glyph-name="equal" unicode="=" horiz-adv-x="500" 
d="M106 492h370l-17 -92h-370zM76 327h370l-16 -92h-370z" />
    <glyph glyph-name="greater" unicode="&#x3e;" horiz-adv-x="500" 
d="M68 279l271 87l-240 89l16 92l346 -138l-17 -91l-393 -137z" />
    <glyph glyph-name="question" unicode="?" horiz-adv-x="577" 
d="M202 199q11 64 31.5 105.5t45.5 69.5t52 46t50 34t39.5 34.5t21.5 47.5q8 48 -22.5 79t-86.5 31q-41 0 -73 -18t-52 -47l-87 55q32 48 89.5 76t130.5 28q54 0 96.5 -17t70.5 -46t39.5 -67t3.5 -81q-7 -43 -26 -70t-44 -47t-53.5 -37.5t-54 -39.5t-45.5 -54t-29 -82
l-2 -10h-97zM225 -16q-38 0 -58.5 25.5t-13.5 60.5q5 29 29 48t53 19q19 0 34 -7t24 -19t12.5 -27.5t0.5 -31.5q-6 -30 -28 -49t-53 -19z" />
    <glyph glyph-name="at" unicode="@" horiz-adv-x="859" 
d="M398 -129q-86 0 -154 33.5t-112 90t-62 132t-3 159.5q12 71 48.5 132.5t90.5 106.5t122.5 71t145.5 26q74 0 140 -28t112.5 -77.5t68.5 -116.5t8 -145q-6 -38 -21 -72t-38 -59t-54.5 -39.5t-70.5 -14.5q-40 0 -65 14.5t-38 35.5q-20 -22 -49 -36t-70 -14t-72 15.5
t-50.5 42t-26.5 61.5t0 73q6 34 22.5 64.5t41.5 54t57 37.5t69 14q36 0 62 -13.5t41 -35.5q2 8 3.5 16t2.5 14q1 7 2 12h90l-41 -181q-11 -45 -1.5 -64t38.5 -19q17 0 30.5 10t23.5 25.5t16.5 34.5t9.5 37q10 55 -4.5 103.5t-48.5 85t-83.5 57.5t-109.5 21q-57 0 -109 -20
t-94 -55t-70.5 -82.5t-37.5 -101.5q-11 -61 1 -118.5t44.5 -101.5t83.5 -71t119 -27q61 0 107 20t88 63l72 -58q-52 -54 -118.5 -83t-156.5 -29zM414 155q42 0 68 28.5t34 64.5q5 21 2 39.5t-12.5 32t-24.5 21.5t-33 8q-22 0 -40.5 -8t-32.5 -21.5t-23.5 -31t-12.5 -35.5
q-6 -39 14.5 -68.5t60.5 -29.5z" />
    <glyph glyph-name="A" unicode="A" horiz-adv-x="714" 
d="M389 730h109l149 -730h-109l-31 156h-331l-87 -156h-116zM235 260h252l-66 333z" />
    <glyph glyph-name="B" unicode="B" horiz-adv-x="689" 
d="M155 730h304q53 0 94 -18t67 -48t36.5 -69.5t3.5 -82.5q-8 -48 -35.5 -86t-75.5 -61q42 -27 63 -71.5t10 -106.5q-16 -86 -83.5 -136.5t-181.5 -50.5h-330zM191 325l-39 -223h213q65 0 101.5 28.5t44.5 75.5q9 52 -24 85.5t-100 33.5h-196zM245 631l-36 -208h210
q60 0 92.5 28.5t40.5 66.5q10 48 -17.5 80.5t-90.5 32.5h-199z" />
    <glyph glyph-name="C" unicode="C" horiz-adv-x="797" 
d="M422 -10q-92 0 -163 33t-116.5 89.5t-63.5 131.5t-3 159q13 72 48 134t87.5 107t121 70.5t147.5 25.5q110 0 189.5 -46t124.5 -143l-104 -51q-33 74 -86 104.5t-135 30.5q-56 0 -103.5 -18t-85 -50.5t-62 -77t-33.5 -97.5q-11 -60 1.5 -114t44.5 -94.5t83 -64t118 -23.5
q65 0 122.5 32.5t96.5 87.5l94 -64q-60 -78 -142 -120t-181 -42z" />
    <glyph glyph-name="D" unicode="D" horiz-adv-x="732" 
d="M155 730h217q80 0 145.5 -31.5t109 -84t62 -122.5t4.5 -148q-13 -73 -48 -135.5t-87.5 -109t-119.5 -73t-145 -26.5h-266zM247 629l-92 -527h146q52 0 99 19t84.5 52.5t63.5 79t35 98.5q10 57 -2 107.5t-42 88.5t-76 60t-105 22h-111z" />
    <glyph glyph-name="E" unicode="E" horiz-adv-x="616" 
d="M155 730h478l-18 -102h-370l-37 -208h371l-19 -103h-370l-37 -214h370l-18 -103h-478z" />
    <glyph glyph-name="F" unicode="F" horiz-adv-x="603" 
d="M155 730h473l-18 -103h-363l-37 -209h363l-18 -103h-363l-55 -315h-110z" />
    <glyph glyph-name="G" unicode="G" horiz-adv-x="845" 
d="M417 -10q-86 0 -155 33.5t-115 90t-65 131.5t-5 158q12 69 46.5 130.5t87 107.5t121.5 72.5t149 26.5q55 0 104 -14.5t88.5 -39.5t70 -59t50.5 -73l-105 -56q-31 66 -85.5 101.5t-133.5 35.5q-56 0 -104 -19.5t-85.5 -52.5t-62 -77.5t-33.5 -93.5q-10 -57 2.5 -110.5
t44.5 -94.5t81.5 -65.5t113.5 -24.5q49 0 90 14.5t73 40t54.5 61t35.5 77.5h-262l19 104h380l-7 -42q-12 -83 -46 -149.5t-85 -114t-117.5 -73t-144.5 -25.5z" />
    <glyph glyph-name="H" unicode="H" horiz-adv-x="712" 
d="M536 313h-344l-55 -313h-110l128 730h110l-55 -312h344l55 312h110l-128 -730h-110z" />
    <glyph glyph-name="I" unicode="I" horiz-adv-x="272" 
d="M162 730h110l-128 -730h-110z" />
    <glyph glyph-name="J" unicode="J" horiz-adv-x="517" 
d="M203 -10q-78 0 -131.5 42.5t-69.5 113.5l105 31q11 -39 36.5 -62t68.5 -23q48 0 76 32t36 77l94 529h110l-93 -519q-18 -106 -75 -163.5t-157 -57.5z" />
    <glyph glyph-name="K" unicode="K" horiz-adv-x="678" 
d="M343 379l-167 -157l-39 -222h-110l128 730h110l-64 -364l387 364h142l-301 -282l184 -448h-120z" />
    <glyph glyph-name="L" unicode="L" horiz-adv-x="585" 
d="M155 730h110l-110 -625h354l-19 -105h-463z" />
    <glyph glyph-name="M" unicode="M" horiz-adv-x="849" 
d="M155 730h97l190 -330l317 330h97l-128 -730h-110l95 542l-296 -307l-183 319l-97 -554h-110z" />
    <glyph glyph-name="N" unicode="N" horiz-adv-x="756" 
d="M155 730h111l291 -561l98 561h108l-128 -730h-106l-295 568l-99 -568h-108z" />
    <glyph glyph-name="O" unicode="O" horiz-adv-x="855" 
d="M412 -10q-85 0 -153.5 33t-114 89.5t-64.5 131.5t-4 159q13 72 48.5 134t88.5 107t120.5 70.5t142.5 25.5q86 0 154.5 -34.5t113.5 -92t63.5 -132t4.5 -154.5q-13 -72 -48.5 -134t-88 -107t-120 -70.5t-143.5 -25.5zM422 96q54 0 101 18.5t84 51t62.5 77t34.5 95.5
q10 57 -1.5 110.5t-42.5 95t-80.5 66.5t-113.5 25q-54 0 -101.5 -18.5t-84.5 -51t-61.5 -77t-33.5 -96.5q-11 -60 2 -114t45 -94.5t80.5 -64t109.5 -23.5z" />
    <glyph glyph-name="P" unicode="P" horiz-adv-x="671" 
d="M155 730h261q54 0 101.5 -20t81.5 -56t49.5 -87.5t4.5 -114.5q-8 -50 -33 -93.5t-64 -75.5t-90 -50.5t-111 -18.5h-182l-37 -214h-109zM247 630l-56 -315h170q37 0 68.5 12t55.5 32.5t39 48.5t21 60q6 34 -2 63.5t-27.5 51.5t-49 34.5t-66.5 12.5h-153z" />
    <glyph glyph-name="Q" unicode="Q" horiz-adv-x="865" 
d="M630 54q-47 -30 -100.5 -47t-113.5 -17q-85 0 -154 33.5t-114.5 90t-65 131.5t-5.5 158q13 72 49 134t89 107t119 70.5t140 25.5q87 0 156 -34.5t114 -92t64 -132t5 -154.5q-11 -57 -38 -109.5t-67 -96.5l84 -121h-125zM426 96q80 0 145 40l-131 193h126l79 -127
q47 59 60 136q10 57 -2.5 110.5t-44 95t-80.5 66.5t-112 25q-53 0 -100 -18.5t-84 -51t-62 -77t-34 -96.5q-10 -59 3 -112.5t45 -94.5t81 -65t111 -24z" />
    <glyph glyph-name="R" unicode="R" horiz-adv-x="687" 
d="M155 730h278q62 0 111 -20.5t80.5 -56.5t44.5 -85.5t3 -106.5q-13 -74 -65 -129t-129 -75l134 -257h-122l-121 244h-190l-43 -244h-109zM247 631l-51 -288h190q78 0 122 35.5t55 95.5q12 72 -24 114.5t-121 42.5h-171z" />
    <glyph glyph-name="S" unicode="S" horiz-adv-x="626" 
d="M299 -11q-60 0 -107.5 12t-85.5 33t-66 49t-49 60l103 75q32 -56 84 -90.5t124 -34.5q66 0 104 28t46 73q6 35 -6.5 58t-37 39t-57.5 27l-69 23q-40 13 -76.5 29.5t-63 43t-38.5 64t-2 92.5q6 36 27 67.5t54 55t77 36.5t96 13q49 0 89.5 -9.5t74.5 -26.5t61 -40.5
t48 -51.5l-100 -69q-27 45 -73 71t-113 26q-58 0 -91.5 -25t-40.5 -62q-5 -30 4 -49.5t30 -34t51 -25.5t67 -23q41 -14 81.5 -31.5t70.5 -45t45 -67.5t5 -97q-8 -42 -29.5 -77.5t-56 -61t-80 -40t-100.5 -14.5z" />
    <glyph glyph-name="T" unicode="T" 
d="M218 0l109 627h-216l18 103h542l-18 -103h-216l-109 -627h-110z" />
    <glyph glyph-name="U" unicode="U" horiz-adv-x="705" 
d="M319 -10q-62 0 -112.5 20t-84.5 57t-48 89t-3 117l80 457h111l-82 -467q-6 -35 1 -66.5t26 -55t49 -37t69 -13.5q43 0 77 13.5t59 36t40.5 52t20.5 61.5l83 476h111l-83 -474q-11 -62 -37.5 -111.5t-67 -84t-93.5 -52.5t-116 -18z" />
    <glyph glyph-name="V" unicode="V" horiz-adv-x="713" 
d="M250 0l-149 730h109l116 -592l332 592h117l-416 -730h-109z" />
    <glyph glyph-name="W" unicode="W" horiz-adv-x="1072" 
d="M670 0l-95 569l-278 -569h-109l-79 730h112l54 -557l273 557h105l95 -562l262 562h115l-348 -730h-107z" />
    <glyph glyph-name="X" unicode="X" horiz-adv-x="683" 
d="M350 295l-232 -295h-137l316 386l-168 344h120l126 -270l213 270h133l-296 -359l182 -371h-122z" />
    <glyph glyph-name="Y" unicode="Y" horiz-adv-x="673" 
d="M284 310l-185 420h114l143 -325l252 325h128l-344 -433l-52 -297h-110z" />
    <glyph glyph-name="Z" unicode="Z" horiz-adv-x="675" 
d="M18 0l17 100l504 530h-398l17 100h534l-17 -99l-502 -527h408l-18 -104h-545z" />
    <glyph glyph-name="bracketleft" unicode="[" horiz-adv-x="416" 
d="M159 730h273l-18 -103h-163l-133 -754h163l-18 -103h-273z" />
    <glyph glyph-name="backslash" unicode="\" horiz-adv-x="541" 
d="M122 730h113l220 -730h-113z" />
    <glyph glyph-name="bracketright" unicode="]" horiz-adv-x="416" 
d="M5 -127h163l134 754h-163l18 103h273l-169 -960h-273z" />
    <glyph glyph-name="asciicircum" unicode="^" horiz-adv-x="530" 
d="M307 710h74l91 -169h-88l-49 96l-83 -96h-95z" />
    <glyph glyph-name="underscore" unicode="_" horiz-adv-x="500" 
d="M12 -50h370l-16 -91h-371z" />
    <glyph glyph-name="grave" unicode="`" horiz-adv-x="530" 
d="M232 772h113l86 -166h-81z" />
    <glyph glyph-name="a" unicode="a" horiz-adv-x="664" 
d="M286 -11q-62 0 -111 25.5t-81 68.5t-44.5 100t-1.5 120q9 54 35 99.5t64 78.5t86 51.5t102 18.5q71 0 118.5 -29.5t70.5 -78.5l17 97h109l-95 -540h-107l12 72q-31 -38 -74.5 -60.5t-99.5 -22.5zM312 89q33 0 64 12.5t55.5 34.5t42 52t23.5 65q7 40 -0.5 76t-28 63.5
t-53 44t-74.5 16.5q-35 0 -67 -12t-57 -34t-42 -51.5t-23 -65.5q-6 -39 2.5 -75.5t29.5 -64t53.5 -44.5t74.5 -17z" />
    <glyph glyph-name="b" unicode="b" horiz-adv-x="663" 
d="M333 -11q-70 0 -118 29.5t-74 78.5l-17 -97h-109l138 788h110q-9 -51 -19 -104q-8 -45 -17.5 -98t-17.5 -101q32 30 73.5 48t92.5 18q63 0 112.5 -25.5t82 -68.5t45 -99.5t1.5 -119.5q-9 -55 -35 -101t-64 -79t-85 -51t-99 -18zM327 88q34 0 65.5 12.5t56 34t41.5 51.5
t23 65q6 38 -2 74.5t-28.5 64.5t-53 45.5t-74.5 17.5q-34 0 -65 -12.5t-56.5 -34.5t-43 -52t-23.5 -65q-7 -39 1.5 -75t29.5 -64t54 -45t75 -17z" />
    <glyph glyph-name="c" unicode="c" horiz-adv-x="602" 
d="M306 -11q-69 0 -122.5 26t-87 69.5t-46.5 101t-2 119.5q10 52 36.5 97t65.5 78t88.5 52t105.5 19q48 0 88 -12t71 -33t53.5 -50.5t35.5 -64.5l-104 -44q-16 47 -52.5 76t-96.5 30q-32 0 -62.5 -12t-56 -33t-43.5 -50.5t-25 -65.5q-6 -39 2.5 -76t29.5 -65t53.5 -45
t74.5 -17q48 0 88.5 24.5t66.5 66.5l95 -54q-39 -64 -105 -100.5t-151 -36.5z" />
    <glyph glyph-name="d" unicode="d" horiz-adv-x="664" 
d="M286 -11q-62 0 -111 25.5t-81 68.5t-44.5 100t-1.5 120q9 54 35 99.5t64 78.5t86 51.5t102 18.5q70 0 118.5 -29t71.5 -77l60 343h108l-139 -788h-105l12 72q-32 -38 -75.5 -60.5t-99.5 -22.5zM312 89q33 0 64 12.5t55.5 34.5t42 52t23.5 65q7 40 -0.5 76t-28 63.5
t-53 44t-74.5 16.5q-35 0 -67 -12t-57 -34t-42 -51.5t-23 -65.5q-6 -39 2.5 -75.5t29.5 -64t53.5 -44.5t74.5 -17z" />
    <glyph glyph-name="e" unicode="e" horiz-adv-x="633" 
d="M313 -11q-77 0 -132.5 24.5t-88.5 67.5t-44 99.5t0 121.5q10 53 36.5 98.5t65.5 79t89 52.5t109 19q66 0 116 -23.5t82.5 -63.5t45 -93.5t2.5 -114.5l-5 -26h-445q4 -69 49.5 -107.5t122.5 -38.5q49 0 85.5 19t66.5 51l81 -62q-45 -51 -103 -77t-133 -26zM342 459
q-74 -1 -120 -38.5t-65 -98.5h339q-3 65 -42.5 101.5t-111.5 35.5z" />
    <glyph glyph-name="f" unicode="f" horiz-adv-x="386" 
d="M70 540h92l6 32q12 67 27.5 109t40.5 66t63 32.5t95 8.5h47l-18 -101h-38q-28 0 -46 -3t-30.5 -15t-20.5 -35t-15 -63l-6 -31h130l-17 -97h-130l-78 -443h-104l77 443h-92z" />
    <glyph glyph-name="g" unicode="g" horiz-adv-x="665" 
d="M296 -11q-66 0 -117 25.5t-83.5 69t-45.5 100t-2 119.5q9 53 35 98.5t64 78.5t86 52t102 19q70 0 117 -28.5t71 -75.5l17 93h111l-88 -497q-11 -62 -33.5 -111.5t-58.5 -84.5t-86 -54t-116 -19q-91 0 -155 39.5t-92 109.5l110 37q17 -44 52 -66t94 -22q36 0 65.5 12.5
t51.5 35t36.5 53t20.5 67.5l3 17q-27 -32 -66.5 -50t-92.5 -18zM312 89q34 0 65 12.5t55.5 34.5t41 52t22.5 65q7 39 -0.5 75t-28 63.5t-52.5 44.5t-74 17q-35 0 -67 -12.5t-57 -34.5t-42 -52t-23 -64q-6 -39 2.5 -75t29.5 -64t53.5 -45t74.5 -17z" />
    <glyph glyph-name="h" unicode="h" horiz-adv-x="616" 
d="M153 788h108l-58 -322q32 42 77 63.5t97 21.5t91 -18.5t63 -52.5t32 -80.5t-2 -103.5l-53 -296h-111l52 295q7 36 4.5 65.5t-15 51t-36.5 33t-61 11.5q-69 0 -111 -45.5t-55 -125.5l-51 -285h-109z" />
    <glyph glyph-name="i" unicode="i" horiz-adv-x="233" 
d="M15 0l95 540h109l-95 -540h-109zM187 626q-36 0 -55.5 25t-13.5 60q5 29 28 47.5t51 18.5q19 0 33.5 -7.5t23.5 -19.5t12.5 -27t0.5 -31q-6 -29 -27.5 -47.5t-52.5 -18.5z" />
    <glyph glyph-name="j" unicode="j" horiz-adv-x="235" 
d="M-118 -115q37 0 59.5 3.5t36.5 15.5t22 35.5t16 62.5q0 2 4.5 26t11 62.5t15 86.5t17.5 98q20 117 47 265h110l-96 -539q-11 -63 -25.5 -105t-39.5 -66.5t-63.5 -35t-96.5 -10.5h-36zM190 626q-38 0 -57 25t-12 60q5 29 27.5 47.5t51.5 18.5q19 0 33.5 -7.5t23.5 -19.5
t12 -27t0 -31q-5 -29 -27 -47.5t-52 -18.5z" />
    <glyph glyph-name="k" unicode="k" horiz-adv-x="569" 
d="M265 251l-117 -105l-25 -146h-108l138 788h108l-90 -511l292 263h139l-254 -229l165 -311h-119z" />
    <glyph glyph-name="l" unicode="l" horiz-adv-x="231" 
d="M153 788h107l-138 -788h-107z" />
    <glyph glyph-name="m" unicode="m" horiz-adv-x="961" 
d="M110 540h107l-13 -73q29 40 70 62t93 22q59 0 101 -25.5t61 -72.5q34 48 83 73t108 25q51 0 90.5 -17.5t64.5 -50t34 -77.5t-1 -99l-57 -307h-109l52 296q6 35 4 64.5t-14 51t-35 33t-58 11.5q-66 -1 -101.5 -47t-49.5 -121l-51 -288h-110l53 297q12 73 -11 116t-89 43
t-105 -47.5t-53 -124.5q-1 -4 -3.5 -18t-6.5 -35t-8.5 -46.5t-8.5 -50.5q-11 -61 -24 -134h-108z" />
    <glyph glyph-name="n" unicode="n" horiz-adv-x="616" 
d="M110 540h108l-13 -75q32 43 75.5 64.5t96.5 21.5q52 0 91 -18.5t63 -52.5t32 -80.5t-2 -103.5l-53 -296h-111l52 295q7 36 4.5 65.5t-15 51t-36.5 33t-61 11.5q-69 0 -110.5 -45.5t-55.5 -126.5l-52 -284h-108z" />
    <glyph glyph-name="o" unicode="o" horiz-adv-x="653" 
d="M304 -11q-66 0 -118.5 25t-87 67.5t-48.5 100t-2 123.5q9 50 35.5 95t66 78.5t91.5 53t112 19.5q61 0 113 -24.5t87 -67t50 -100t3 -123.5q-9 -52 -34.5 -97t-64.5 -78.5t-90.5 -52.5t-112.5 -19zM308 88q78 0 129.5 44.5t64.5 116.5q7 40 0 76.5t-27 65t-53 45.5t-78 17
q-38 0 -70.5 -12t-57.5 -34t-41 -51.5t-22 -63.5q-8 -44 0.5 -81.5t29.5 -64.5t53 -42.5t72 -15.5z" />
    <glyph glyph-name="p" unicode="p" horiz-adv-x="662" 
d="M110 540h106l-14 -78q31 40 75.5 64t103.5 24q60 0 108 -25.5t79.5 -68t44.5 -99.5t2 -120q-9 -54 -34.5 -99.5t-63.5 -78.5t-86 -52t-102 -19q-69 0 -117 29t-72 78l-54 -311h-110zM324 87q35 0 66.5 12.5t56.5 34.5t41.5 51.5t22.5 64.5q6 38 -2 74.5t-28.5 64.5
t-53 45t-74.5 17q-34 0 -65 -12.5t-55.5 -34.5t-41.5 -52t-24 -65q-8 -40 0 -76t29 -63.5t53.5 -44t74.5 -16.5z" />
    <glyph glyph-name="q" unicode="q" horiz-adv-x="665" 
d="M286 -11q-62 0 -111 25.5t-81 68.5t-44.5 100t-1.5 120q9 54 35 99.5t64 78.5t86 51.5t102 18.5q71 0 118 -29.5t70 -77.5l18 96h110l-134 -756h-109q8 44 16 92q7 41 15.5 89t16.5 95q-30 -33 -72.5 -52t-97.5 -19zM312 89q33 0 64 12.5t55.5 34.5t42 52t23.5 65
q7 40 -0.5 76t-28 63.5t-53 44t-74.5 16.5q-35 0 -67 -12t-57 -34t-42 -51.5t-23 -65.5q-6 -39 2.5 -75.5t29.5 -64t53.5 -44.5t74.5 -17z" />
    <glyph glyph-name="r" unicode="r" horiz-adv-x="418" 
d="M110 540h104l-17 -95q25 47 63.5 71t94.5 24h65l-20 -109h-56q-42 0 -72.5 -11t-51 -32.5t-33 -52.5t-19.5 -71l-47 -264h-106z" />
    <glyph glyph-name="s" unicode="s" horiz-adv-x="509" 
d="M234 -11q-45 0 -83 9.5t-69.5 26t-55 38t-38.5 45.5l94 61q23 -38 65.5 -63t95.5 -25q45 0 71 19.5t31 49.5q3 16 -5.5 28.5t-25.5 22.5t-40.5 18.5t-49.5 16.5q-34 10 -66 23.5t-55 34t-34 50t-2 72.5q13 64 70 100t142 36q81 0 135.5 -29t92.5 -77l-91 -57
q-25 35 -58.5 54.5t-87.5 19.5q-42 0 -67 -15.5t-30 -43.5q-3 -17 5 -29t23.5 -21.5t38.5 -17.5t51 -17q33 -10 64.5 -24t55.5 -35t36 -50.5t5 -70.5q-6 -33 -23 -60.5t-45 -47.5t-65.5 -31t-84.5 -11z" />
    <glyph glyph-name="t" unicode="t" horiz-adv-x="391" 
d="M70 540h92l23 128l116 62l-34 -190h136l-17 -97h-136l-39 -226q-8 -38 -6.5 -61t14 -36t37 -17t63.5 -4h6l-17 -99h-19q-61 0 -101.5 10.5t-62 36t-26 67.5t6.5 104l39 225h-92z" />
    <glyph glyph-name="u" unicode="u" horiz-adv-x="592" 
d="M224 -11q-100 0 -148 65t-28 179l54 307h111l-54 -300q-12 -72 14.5 -114t89.5 -42q59 0 99.5 41.5t54.5 122.5l53 292h108l-95 -540h-108l11 69q-30 -38 -70.5 -59t-91.5 -21z" />
    <glyph glyph-name="v" unicode="v" horiz-adv-x="566" 
d="M67 540h111l80 -404l218 404h118l-303 -540h-108z" />
    <glyph glyph-name="w" unicode="w" horiz-adv-x="923" 
d="M73 540h108l40 -396l226 396h103l63 -399l216 399h118l-300 -540h-110l-64 395l-231 -395h-109z" />
    <glyph glyph-name="x" unicode="x" horiz-adv-x="584" 
d="M230 284l-145 256h119l103 -187l165 187h137l-249 -270l161 -270h-121l-117 201l-180 -201h-134z" />
    <glyph glyph-name="y" unicode="y" horiz-adv-x="589" 
d="M58 -203q-56 0 -92 22.5t-56 54.5l91 68q8 -19 24 -32t45 -13q15 0 29 4t28 15.5t30 31.5t34 52l19 33l-143 507h111l103 -382l216 382h120l-333 -570q-30 -51 -56 -84t-52 -53t-54.5 -28t-63.5 -8z" />
    <glyph glyph-name="z" unicode="z" horiz-adv-x="566" 
d="M10 96l394 348h-326l19 96h471l-18 -96l-395 -348h340l-17 -96h-485z" />
    <glyph glyph-name="braceleft" unicode="{" horiz-adv-x="436" 
d="M285 -230q-63 0 -103 11t-61.5 36.5t-25 67t7.5 102.5l19 109q5 29 6 48.5t-6.5 31.5t-25.5 17t-49 5l17 101q31 0 50.5 5t31.5 16.5t19 31t12 49.5l19 112q11 61 29 102.5t48 67t74 36.5t107 11h11l-17 -99q-40 0 -65 -5t-40 -18t-23.5 -36t-14.5 -60l-20 -112
q-11 -61 -33.5 -98t-66.5 -55q37 -18 47 -54.5t-1 -95.5l-19 -109q-6 -37 -6 -60t11 -36t34 -18t63 -5l-18 -99h-11z" />
    <glyph glyph-name="bar" unicode="|" horiz-adv-x="255" 
d="M159 730h110l-169 -960h-110z" />
    <glyph glyph-name="braceright" unicode="}" horiz-adv-x="442" 
d="M-2 -131q40 0 65 5t40 18t23.5 36t14.5 60l19 108q10 61 32.5 98t66.5 54q-37 19 -47 55.5t1 96.5l21 112q6 37 6 60t-11 36t-34 18t-63 5l17 99h11q63 0 103 -11t61.5 -36.5t25 -67t-7.5 -102.5l-20 -112q-5 -29 -5.5 -49t7 -32t25 -17t49.5 -5l-18 -101q-31 0 -50.5 -5
t-31.5 -16.5t-18.5 -31t-11.5 -49.5l-19 -108q-11 -61 -29 -102.5t-48 -67t-74 -36.5t-107 -11h-11z" />
    <glyph glyph-name="asciitilde" unicode="~" horiz-adv-x="518" 
d="M147 580q11 57 43.5 91.5t79.5 34.5q24 0 41.5 -8t31.5 -18q14 -9 25 -16.5t25 -7.5q31 0 40 45h71q-11 -57 -42.5 -91.5t-81.5 -34.5q-29 0 -47.5 10t-32.5 20q-12 8 -22 13.5t-22 5.5q-29 0 -39 -44h-70v0z" />
    <glyph glyph-name="nonbreakingspace" unicode="&#xa0;" horiz-adv-x="240" 
 />
    <glyph glyph-name="exclamdown" unicode="&#xa1;" horiz-adv-x="267" 
d="M13 -113q9 50 21.5 107t25.5 113t27 108t26 93h59q-2 -41 -7 -93t-11.5 -108t-15 -113t-17.5 -107l-20 -117h-108zM160 364q-38 0 -58 25.5t-13 60.5q5 29 28.5 48t52.5 19q19 0 34 -7t24 -19t12.5 -27.5t0.5 -31.5q-6 -30 -28 -49t-53 -19z" />
    <glyph glyph-name="cent" unicode="&#xa2;" horiz-adv-x="616" 
d="M215 3q-44 15 -76 42.5t-52 64.5t-26.5 80.5t2.5 90.5q9 45 30 84t52.5 69t71.5 49.5t87 24.5l22 122h109l-24 -131q57 -17 97 -55.5t57 -91.5l-99 -38q-14 43 -48 71t-88 28q-27 0 -54 -10.5t-49.5 -29.5t-38.5 -46t-22 -59q-6 -35 1.5 -67t26 -56.5t47.5 -39.5t66 -15
q48 0 86 25.5t60 67.5l93 -45q-32 -63 -90.5 -102.5t-134.5 -44.5l-20 -121h-109z" />
    <glyph glyph-name="sterling" unicode="&#xa3;" horiz-adv-x="753" 
d="M131 405h106q-9 34 -13.5 70.5t3.5 78.5q7 42 28 76.5t53 58.5t73 37.5t89 13.5q77 0 128 -29.5t76 -82.5l-102 -38q-32 56 -108 56q-51 0 -85.5 -27.5t-42.5 -70.5q-7 -38 -1.5 -73t15.5 -70h186l-15 -86h-147q8 -31 10.5 -64t-3.5 -68q-6 -34 -21 -66q26 -17 51 -29.5
t53 -12.5q48 0 70 23.5t33 78.5l8 44h113l-11 -58q-8 -40 -22.5 -72.5t-38.5 -56t-57.5 -36t-79.5 -12.5q-51 0 -90.5 18.5t-73.5 43.5q-26 -28 -62 -45.5t-84 -17.5q-73 0 -110 36t-25 97q8 41 41.5 66t86.5 26q36 0 66 -11.5t57 -28.5q0 3 1 5q6 35 -1.5 70t-19.5 70h-149
zM169 56q24 0 45.5 12t37.5 33q-22 17 -42.5 28t-42.5 11t-34.5 -9.5t-15.5 -25.5q-3 -20 10 -34.5t42 -14.5z" />
    <glyph glyph-name="currency" unicode="&#xa4;" horiz-adv-x="821" 
d="M548 133q-56 -31 -123 -31q-45 0 -85 13.5t-72 38.5l-136 -125l-67 74l137 125q-17 29 -26.5 62.5t-9.5 71.5q0 45 13.5 84.5t37.5 72.5l-95 112l80 70l95 -112q29 16 61 24.5t67 8.5q43 0 82.5 -13t71.5 -37l129 120l67 -73l-129 -120q39 -62 39 -137q0 -46 -14.5 -87
t-40.5 -74l89 -103l-80 -70zM425 202q32 0 60 12.5t49 34.5t33 51t12 62t-12 62t-33 51t-49 34.5t-60 12.5t-60 -12.5t-48.5 -34.5t-32.5 -51t-12 -62t12 -62t32.5 -51t48.5 -34.5t60 -12.5z" />
    <glyph glyph-name="yen" unicode="&#xa5;" horiz-adv-x="684" 
d="M150 383h158l-173 347h117l125 -260l216 260h125l-296 -347h158l-16 -88h-162l-16 -93h162l-15 -88h-162l-19 -114h-109l20 114h-160l15 88h160l16 93h-160z" />
    <glyph glyph-name="brokenbar" unicode="&#xa6;" horiz-adv-x="255" 
d="M159 730h110l-74 -420h-110zM64 190h110l-74 -420h-110z" />
    <glyph glyph-name="section" unicode="&#xa7;" 
d="M293 -10q-49 0 -90 12t-71.5 31.5t-50.5 45t-27 52.5l112 31q11 -36 48 -59t86 -23q47 0 77 16t35 46q4 19 -6 31.5t-30 21.5t-48 16t-59 15q-49 12 -87 26.5t-63 34.5t-35 47.5t-3 65.5q7 37 38 63.5t77 36.5q-17 20 -25.5 44.5t-3.5 56.5q6 32 24 58t46.5 44.5t66.5 28
t83 8.5q43 0 79 -10t63.5 -27t45 -38.5t24.5 -45.5l-108 -30q-7 28 -36.5 47.5t-74.5 19.5q-47 0 -75.5 -14.5t-33.5 -44.5q-3 -17 6.5 -30t28 -23.5t45 -19t58.5 -15.5q45 -11 83 -24t64.5 -31.5t39 -45.5t6.5 -64q-8 -39 -37 -67t-69 -41q32 -35 25 -89q-5 -38 -24 -67.5
t-49.5 -50t-70 -30.5t-84.5 -9zM341 308q25 -6 47 -13t41 -15q28 8 44 23t20 33q3 18 -7 30.5t-30.5 23t-50.5 19.5t-67 18q-41 9 -81 29q-61 -16 -66 -56q-3 -18 6.5 -31.5t29 -24t49 -19t65.5 -17.5z" />
    <glyph glyph-name="dieresis" unicode="&#xa8;" horiz-adv-x="531" 
d="M245 607q-32 0 -49 21.5t-11 52.5q4 25 24 41t45 16q34 0 49.5 -23t10.5 -51q-5 -26 -24 -41.5t-45 -15.5zM429 607q-32 0 -49 21.5t-11 52.5q4 25 24 41t45 16q34 0 49.5 -23t10.5 -51q-5 -26 -24 -41.5t-45 -15.5z" />
    <glyph glyph-name="copyright" unicode="&#xa9;" horiz-adv-x="866" 
d="M425 -10q-85 0 -154 33.5t-114.5 90t-65 131.5t-5.5 158q13 72 49 134t89 107t119 70.5t140 25.5q85 0 154 -33.5t114.5 -90.5t65 -132t5.5 -157q-13 -72 -49 -133.5t-88.5 -107t-119 -71t-140.5 -25.5zM435 80q55 0 104.5 20t88.5 54.5t66 82t37 102.5q10 60 -3 117
t-46 100.5t-85 70t-118 26.5q-57 0 -107.5 -20t-90 -54.5t-66 -82.5t-36.5 -103q-11 -61 2.5 -117.5t47 -100t86 -69.5t120.5 -26zM441 165q-47 0 -83.5 17.5t-60 47.5t-33.5 70t-2 84q7 38 26.5 71.5t48.5 58t65.5 38.5t78.5 14q59 0 102.5 -30t61.5 -79l-88 -40
q-10 28 -29.5 44t-56.5 16q-21 0 -40.5 -7.5t-35.5 -21t-27 -32.5t-15 -41q-4 -23 0.5 -44.5t17 -38.5t32.5 -27.5t46 -10.5q32 0 57.5 17.5t41.5 46.5l81 -39q-26 -51 -72.5 -82.5t-115.5 -31.5z" />
    <glyph glyph-name="ordfeminine" unicode="&#xaa;" horiz-adv-x="437" 
d="M325 470q-17 -27 -42 -42.5t-63 -15.5q-29 0 -54.5 11t-43.5 32t-26 52.5t-2 72.5q5 40 22 70t40.5 49t50.5 28.5t53 9.5q41 0 66.5 -18t36.5 -44l10 55h81l-57 -312h-81zM250 486q18 0 34 7t28.5 19t21 28t10.5 34q7 36 -14.5 63t-60.5 27q-37 0 -64.5 -23t-33.5 -61
q-5 -39 17 -66.5t62 -27.5z" />
    <glyph glyph-name="guillemotleft" unicode="&#xab;" horiz-adv-x="515" 
d="M76 218l12 68l183 119l-14 -85l-112 -71l87 -70l-14 -80zM264 218l12 68l183 119l-14 -85l-112 -71l87 -70l-14 -80z" />
    <glyph glyph-name="logicalnot" unicode="&#xac;" horiz-adv-x="659" 
d="M521 448h-432l18 104h540l-61 -344h-108z" />
    <glyph glyph-name="uni00AD" unicode="&#xad;" horiz-adv-x="500" 
d="M75 301h370l-17 -92h-370z" />
    <glyph glyph-name="registered" unicode="&#xae;" horiz-adv-x="867" 
d="M405 -128q-85 0 -154 33.5t-115 90t-65 131.5t-5 158q12 72 48 134t89 107t119.5 70.5t140.5 25.5q85 0 153.5 -33.5t114.5 -90.5t65 -132t5 -157q-12 -72 -48 -133.5t-89 -107t-119.5 -71t-139.5 -25.5zM414 -38q55 0 105 20t89 54.5t65.5 82t36.5 102.5q11 60 -2 117
t-46 100.5t-85 70t-118 26.5q-57 0 -107.5 -20t-90 -54.5t-66.5 -82.5t-37 -103q-11 -61 3 -117.5t47.5 -100t86 -69.5t119.5 -26zM318 438h169q36 0 64 -12t46 -31.5t25.5 -44.5t3.5 -52q-15 -87 -103 -109l58 -125h-103l-76 183h54q26 0 47 14t26 42q5 29 -13.5 42
t-47.5 14h-67l-52 -295h-97z" />
    <glyph glyph-name="macron" unicode="&#xaf;" horiz-adv-x="530" 
d="M228 704h264l-15 -77h-264z" />
    <glyph glyph-name="degree" unicode="&#xb0;" horiz-adv-x="462" 
d="M288 433q-32 0 -60 12t-49 33t-33 49t-12 60t12 60t33 48.5t49 32.5t60 12t60 -12t48.5 -32.5t32.5 -48.5t12 -60t-12 -60t-32.5 -49t-48.5 -33t-60 -12zM288 523q26 0 44.5 18.5t18.5 44.5t-18.5 44.5t-44.5 18.5t-44.5 -18.5t-18.5 -44.5t18.5 -44.5t44.5 -18.5z" />
    <glyph glyph-name="plusminus" unicode="&#xb1;" horiz-adv-x="500" 
d="M109 516h140l25 139h91l-25 -139h139l-16 -92h-139l-24 -139h-92l25 139h-140zM57 214h370l-17 -92h-370z" />
    <glyph glyph-name="twosuperior" unicode="&#xb2;" horiz-adv-x="354" 
d="M54 380q5 30 19 53.5t33.5 42.5t43.5 33t49 26q38 17 63 34t29 41q4 20 -11 33.5t-41 13.5q-27 0 -46.5 -15t-31.5 -41l-81 37q26 43 65.5 70.5t102.5 27.5q33 0 60 -11t44.5 -30t25 -43.5t2.5 -52.5q-5 -25 -17.5 -44.5t-30.5 -35t-40 -27.5t-44 -23q-42 -20 -66.5 -35
t-29.5 -39h193l-16 -87h-288z" />
    <glyph glyph-name="threesuperior" unicode="&#xb3;" horiz-adv-x="355" 
d="M193 302q-54 0 -95.5 20t-62.5 53l89 52q7 -17 27 -29t46 -12q29 0 44 13t19 36t-13.5 35t-47.5 12h-43l15 83h46q62 0 70 42q4 23 -9 36t-42 13q-50 0 -76 -42l-76 52q29 32 69 51t92 19q34 0 60.5 -10t44 -27.5t25 -41t3.5 -49.5q-5 -29 -23 -50t-45 -35
q26 -17 38 -44.5t6 -62.5q-9 -54 -50.5 -84t-110.5 -30z" />
    <glyph glyph-name="acute" unicode="&#xb4;" horiz-adv-x="530" 
d="M347 772h114l-176 -166h-82z" />
    <glyph glyph-name="mu" unicode="&#xb5;" horiz-adv-x="600" 
d="M110 540h111l-54 -300q-12 -72 14.5 -114t89.5 -42q59 0 99.5 41.5t54.5 122.5l53 292h108l-95 -540h-108l12 73q-22 -41 -56 -62.5t-87 -21.5q-83 0 -123 45l-49 -283h-110z" />
    <glyph glyph-name="mu" unicode="&#x3bc;" horiz-adv-x="600" 
d="M110 540h111l-54 -300q-12 -72 14.5 -114t89.5 -42q59 0 99.5 41.5t54.5 122.5l53 292h108l-95 -540h-108l12 73q-22 -41 -56 -62.5t-87 -21.5q-83 0 -123 45l-49 -283h-110z" />
    <glyph glyph-name="paragraph" unicode="&#xb6;" horiz-adv-x="677" 
d="M367 302h-82q-49 1 -87.5 19.5t-63.5 49.5t-35 73t-2 90q8 42 30 78t54.5 62.5t73 41t84.5 14.5h350l-128 -730h-94l111 630h-61l-110 -630h-93z" />
    <glyph glyph-name="periodcentered" unicode="&#xb7;" horiz-adv-x="248" 
d="M120 180q-36 0 -55 24.5t-12 57.5q5 28 27 45.5t49 17.5q38 0 55.5 -25t11.5 -56q-5 -29 -26 -46.5t-50 -17.5z" />
    <glyph glyph-name="cedilla" unicode="&#xb8;" horiz-adv-x="530" 
d="M180 -237q-53 0 -90.5 16t-61.5 42l75 43q17 -16 35.5 -25.5t45.5 -9.5q56 0 62 33q8 33 -58 33h-47l19 105h75l-9 -49q58 -5 81.5 -33t17.5 -66q-8 -44 -48 -66.5t-97 -22.5z" />
    <glyph glyph-name="onesuperior" unicode="&#xb9;" horiz-adv-x="243" 
d="M109 308l50 291q-11 -24 -35.5 -37t-50.5 -13h-6l16 91h3q45 0 67.5 24.5t30.5 65.5h89l-74 -422h-90z" />
    <glyph glyph-name="ordmasculine" unicode="&#xba;" horiz-adv-x="410" 
d="M245 411q-35 0 -63.5 13.5t-49 36t-30 53t-5.5 65.5q3 34 18 62.5t38 49.5t52.5 33t62.5 12q35 0 64 -13.5t49.5 -36.5t30.5 -54t7 -66q-5 -33 -19.5 -61t-37.5 -49t-53 -33t-64 -12zM250 487q35 0 60.5 23t30.5 57q4 37 -17 65.5t-60 28.5q-35 0 -60.5 -24t-29.5 -59
q-5 -36 16 -63.5t60 -27.5z" />
    <glyph glyph-name="guillemotright" unicode="&#xbb;" horiz-adv-x="515" 
d="M440 285l-12 -68l-183 -119l15 85l111 70l-87 71l15 80zM252 285l-12 -68l-183 -119l15 85l111 70l-87 71l15 80z" />
    <glyph glyph-name="onequarter" unicode="&#xbc;" horiz-adv-x="843" 
d="M666 730h130l-652 -730h-130zM136 308l50 291q-11 -24 -35.5 -37t-50.5 -13h-6l16 91h3q45 0 67.5 24.5t30.5 65.5h89l-74 -422h-90zM596 90h-176l14 79l219 253h90l-44 -251h71l-15 -81h-70l-16 -90h-88zM610 171l20 114l-98 -114h78z" />
    <glyph glyph-name="onehalf" unicode="&#xbd;" horiz-adv-x="888" 
d="M501 72q5 30 19 53.5t33.5 42.5t43.5 33t49 26q38 17 63 34t29 41q4 20 -11 33.5t-41 13.5q-27 0 -46.5 -15t-31.5 -41l-81 37q26 43 65.5 70.5t102.5 27.5q33 0 60 -11t44.5 -30t25 -43.5t2.5 -52.5q-5 -25 -17.5 -44.5t-30.5 -35t-40 -27.5t-44 -23q-42 -20 -66.5 -35
t-29.5 -39h193l-16 -87h-288zM666 730h130l-652 -730h-130zM136 308l50 291q-11 -24 -35.5 -37t-50.5 -13h-6l16 91h3q45 0 67.5 24.5t30.5 65.5h89l-74 -422h-90z" />
    <glyph glyph-name="threequarters" unicode="&#xbe;" horiz-adv-x="951" 
d="M220 302q-54 0 -95.5 20t-62.5 53l89 52q7 -17 27 -29t46 -12q29 0 44 13t19 36t-13.5 35t-47.5 12h-43l15 83h46q62 0 70 42q4 23 -9 36t-42 13q-50 0 -76 -42l-76 52q29 32 69 51t92 19q34 0 60.5 -10t44 -27.5t25 -41t3.5 -49.5q-5 -29 -23 -50t-45 -35
q26 -17 38 -44.5t6 -62.5q-9 -54 -50.5 -84t-110.5 -30zM774 730h130l-652 -730h-130zM704 90h-176l14 79l219 253h90l-44 -251h71l-15 -81h-70l-16 -90h-88zM718 171l20 114l-98 -114h78z" />
    <glyph glyph-name="questiondown" unicode="&#xbf;" horiz-adv-x="577" 
d="M231 -241q-54 0 -96.5 17t-70.5 46t-40 67t-4 81q7 43 26.5 70.5t44.5 47.5t53 37.5t54 39.5t46 54t29 82l2 10h97l-2 -10q-11 -64 -31.5 -105.5t-45.5 -69.5t-52 -46t-50 -34t-39.5 -35t-21.5 -48q-8 -48 22.5 -78.5t86.5 -30.5q41 0 73 18t52 46l87 -54
q-32 -48 -89.5 -76.5t-130.5 -28.5zM338 363q-38 0 -58.5 25.5t-13.5 60.5q5 29 29 48t53 19q19 0 34 -7t24 -19t12.5 -27.5t0.5 -31.5q-6 -30 -28 -49t-53 -19z" />
    <glyph glyph-name="Agrave" unicode="&#xc0;" horiz-adv-x="714" 
d="M389 730h109l149 -730h-109l-31 156h-331l-87 -156h-116zM235 260h252l-66 333zM287 962h113l86 -166h-81z" />
    <glyph glyph-name="Aacute" unicode="&#xc1;" horiz-adv-x="714" 
d="M389 730h109l149 -730h-109l-31 156h-331l-87 -156h-116zM235 260h252l-66 333zM558 962h114l-176 -166h-82z" />
    <glyph glyph-name="Acircumflex" unicode="&#xc2;" horiz-adv-x="714" 
d="M389 730h109l149 -730h-109l-31 156h-331l-87 -156h-116zM235 260h252l-66 333zM441 962h76l90 -166h-92l-48 94l-82 -94h-92z" />
    <glyph glyph-name="Atilde" unicode="&#xc3;" horiz-adv-x="714" 
d="M389 730h109l149 -730h-109l-31 156h-331l-87 -156h-116zM235 260h252l-66 333zM276 796q11 58 43 93t80 35q26 0 43.5 -7.5t31.5 -17.5t27 -18t28 -8q31 0 40 47h71q-11 -59 -42.5 -93.5t-81.5 -34.5q-30 0 -49.5 10.5t-35.5 21.5q-11 8 -22 13.5t-24 5.5q-30 0 -39 -47
h-70z" />
    <glyph glyph-name="Adieresis" unicode="&#xc4;" horiz-adv-x="714" 
d="M389 730h109l149 -730h-109l-31 156h-331l-87 -156h-116zM235 260h252l-66 333zM359 797q-32 0 -49 21.5t-11 52.5q4 25 24 41t45 16q34 0 49.5 -23t10.5 -51q-5 -26 -24 -41.5t-45 -15.5zM543 797q-32 0 -49 21.5t-11 52.5q4 25 24 41t45 16q34 0 49.5 -23t10.5 -51
q-5 -26 -24 -41.5t-45 -15.5z" />
    <glyph glyph-name="Aring" unicode="&#xc5;" horiz-adv-x="714" 
d="M372 701q-17 18 -23 43t2 54q11 38 42.5 63t71.5 25q25 0 45 -10.5t33 -27.5t17.5 -40t-2.5 -47q-13 -49 -52 -73l141 -688h-109l-31 156h-331l-87 -156h-116zM235 260h252l-66 333zM408 787q-6 -22 4 -38.5t31 -18.5h8q18 1 32 12.5t19 28.5q5 23 -7.5 40t-35.5 17
q-17 0 -31.5 -12t-19.5 -29z" />
    <glyph glyph-name="AE" unicode="&#xc6;" horiz-adv-x="993" 
d="M461 730h542l-18 -103h-405l-1 -209h369l-18 -103h-351v-211h314l-18 -104h-404v154h-271l-103 -154h-124zM472 254l1 308l-206 -308h205z" />
    <glyph glyph-name="Ccedilla" unicode="&#xc7;" horiz-adv-x="797" 
d="M393 -242q-53 0 -90.5 16t-61.5 42l75 43q17 -16 35.5 -25.5t45.5 -9.5q56 0 62 33q8 33 -58 33h-47l18 103q-80 9 -141.5 44.5t-100.5 90.5t-53.5 126t-0.5 149q13 72 48 134t87.5 107t121 70.5t147.5 25.5q110 0 189.5 -46t124.5 -143l-104 -51q-33 74 -86 104.5
t-135 30.5q-56 0 -103.5 -18t-85 -50.5t-62 -77t-33.5 -97.5q-11 -60 1.5 -114t44.5 -94.5t83 -64t118 -23.5q65 0 122.5 32.5t96.5 87.5l94 -64q-56 -74 -131.5 -115t-166.5 -46l-8 -45q58 -5 81.5 -33t17.5 -66q-8 -44 -48 -66.5t-97 -22.5z" />
    <glyph glyph-name="Egrave" unicode="&#xc8;" horiz-adv-x="616" 
d="M155 730h478l-18 -102h-370l-37 -208h371l-19 -103h-370l-37 -214h370l-18 -103h-478zM263 962h113l86 -166h-81z" />
    <glyph glyph-name="Eacute" unicode="&#xc9;" horiz-adv-x="616" 
d="M155 730h478l-18 -102h-370l-37 -208h371l-19 -103h-370l-37 -214h370l-18 -103h-478zM517 962h114l-176 -166h-82z" />
    <glyph glyph-name="Ecircumflex" unicode="&#xca;" horiz-adv-x="616" 
d="M155 730h478l-18 -102h-370l-37 -208h371l-19 -103h-370l-37 -214h370l-18 -103h-478zM401 962h76l90 -166h-92l-48 94l-82 -94h-92z" />
    <glyph glyph-name="Edieresis" unicode="&#xcb;" horiz-adv-x="616" 
d="M155 730h478l-18 -102h-370l-37 -208h371l-19 -103h-370l-37 -214h370l-18 -103h-478zM322 797q-32 0 -49 21.5t-11 52.5q4 25 24 41t45 16q34 0 49.5 -23t10.5 -51q-5 -26 -24 -41.5t-45 -15.5zM506 797q-32 0 -49 21.5t-11 52.5q4 25 24 41t45 16q34 0 49.5 -23
t10.5 -51q-5 -26 -24 -41.5t-45 -15.5z" />
    <glyph glyph-name="Igrave" unicode="&#xcc;" horiz-adv-x="272" 
d="M162 730h110l-128 -730h-110zM82 962h113l86 -166h-81z" />
    <glyph glyph-name="Iacute" unicode="&#xcd;" horiz-adv-x="272" 
d="M162 730h110l-128 -730h-110zM336 962h114l-176 -166h-82z" />
    <glyph glyph-name="Icircumflex" unicode="&#xce;" horiz-adv-x="272" 
d="M162 730h110l-128 -730h-110zM220 962h76l90 -166h-92l-48 94l-82 -94h-92z" />
    <glyph glyph-name="Idieresis" unicode="&#xcf;" horiz-adv-x="272" 
d="M162 730h110l-128 -730h-110zM141 797q-32 0 -49 21.5t-11 52.5q4 25 24 41t45 16q34 0 49.5 -23t10.5 -51q-5 -26 -24 -41.5t-45 -15.5zM325 797q-32 0 -49 21.5t-11 52.5q4 25 24 41t45 16q34 0 49.5 -23t10.5 -51q-5 -26 -24 -41.5t-45 -15.5z" />
    <glyph glyph-name="Eth" unicode="&#xd0;" horiz-adv-x="752" 
d="M53 423h68l54 307h217q80 0 145.5 -31.5t109 -84t62 -122.5t4.5 -148q-13 -73 -48 -135.5t-87.5 -109t-119.5 -73t-145 -26.5h-266l59 337h-71zM216 337l-41 -235h146q52 0 99 19t84.5 52.5t63.5 79t35 98.5q10 57 -2 107.5t-42 88.5t-76 60t-105 22h-111l-36 -206h190
l-17 -86h-188z" />
    <glyph glyph-name="Ntilde" unicode="&#xd1;" horiz-adv-x="756" 
d="M155 730h111l291 -561l98 561h108l-128 -730h-106l-295 568l-99 -568h-108zM579 949h114l-176 -166h-82z" />
    <glyph glyph-name="Ograve" unicode="&#xd2;" horiz-adv-x="855" 
d="M412 -10q-85 0 -153.5 33t-114 89.5t-64.5 131.5t-4 159q13 72 48.5 134t88.5 107t120.5 70.5t142.5 25.5q86 0 154.5 -34.5t113.5 -92t63.5 -132t4.5 -154.5q-13 -72 -48.5 -134t-88 -107t-120 -70.5t-143.5 -25.5zM422 96q54 0 101 18.5t84 51t62.5 77t34.5 95.5
q10 57 -1.5 110.5t-42.5 95t-80.5 66.5t-113.5 25q-54 0 -101.5 -18.5t-84.5 -51t-61.5 -77t-33.5 -96.5q-11 -60 2 -114t45 -94.5t80.5 -64t109.5 -23.5zM343 967h113l86 -166h-81z" />
    <glyph glyph-name="Oacute" unicode="&#xd3;" horiz-adv-x="855" 
d="M412 -10q-85 0 -153.5 33t-114 89.5t-64.5 131.5t-4 159q13 72 48.5 134t88.5 107t120.5 70.5t142.5 25.5q86 0 154.5 -34.5t113.5 -92t63.5 -132t4.5 -154.5q-13 -72 -48.5 -134t-88 -107t-120 -70.5t-143.5 -25.5zM422 96q54 0 101 18.5t84 51t62.5 77t34.5 95.5
q10 57 -1.5 110.5t-42.5 95t-80.5 66.5t-113.5 25q-54 0 -101.5 -18.5t-84.5 -51t-61.5 -77t-33.5 -96.5q-11 -60 2 -114t45 -94.5t80.5 -64t109.5 -23.5zM324 801q11 58 43 93t80 35q26 0 43.5 -7.5t31.5 -17.5t27 -18t28 -8q31 0 40 47h71q-11 -59 -42.5 -93.5
t-81.5 -34.5q-30 0 -49.5 10.5t-35.5 21.5q-11 8 -22 13.5t-24 5.5q-30 0 -39 -47h-70z" />
    <glyph glyph-name="Ocircumflex" unicode="&#xd4;" horiz-adv-x="855" 
d="M412 -10q-85 0 -153.5 33t-114 89.5t-64.5 131.5t-4 159q13 72 48.5 134t88.5 107t120.5 70.5t142.5 25.5q86 0 154.5 -34.5t113.5 -92t63.5 -132t4.5 -154.5q-13 -72 -48.5 -134t-88 -107t-120 -70.5t-143.5 -25.5zM422 96q54 0 101 18.5t84 51t62.5 77t34.5 95.5
q10 57 -1.5 110.5t-42.5 95t-80.5 66.5t-113.5 25q-54 0 -101.5 -18.5t-84.5 -51t-61.5 -77t-33.5 -96.5q-11 -60 2 -114t45 -94.5t80.5 -64t109.5 -23.5zM481 967h76l90 -166h-92l-48 94l-82 -94h-92z" />
    <glyph glyph-name="Otilde" unicode="&#xd5;" horiz-adv-x="855" 
d="M412 -10q-85 0 -153.5 33t-114 89.5t-64.5 131.5t-4 159q13 72 48.5 134t88.5 107t120.5 70.5t142.5 25.5q86 0 154.5 -34.5t113.5 -92t63.5 -132t4.5 -154.5q-13 -72 -48.5 -134t-88 -107t-120 -70.5t-143.5 -25.5zM422 96q54 0 101 18.5t84 51t62.5 77t34.5 95.5
q10 57 -1.5 110.5t-42.5 95t-80.5 66.5t-113.5 25q-54 0 -101.5 -18.5t-84.5 -51t-61.5 -77t-33.5 -96.5q-11 -60 2 -114t45 -94.5t80.5 -64t109.5 -23.5zM324 801q11 58 43 93t80 35q26 0 43.5 -7.5t31.5 -17.5t27 -18t28 -8q31 0 40 47h71q-11 -59 -42.5 -93.5
t-81.5 -34.5q-30 0 -49.5 10.5t-35.5 21.5q-11 8 -22 13.5t-24 5.5q-30 0 -39 -47h-70z" />
    <glyph glyph-name="Odieresis" unicode="&#xd6;" horiz-adv-x="855" 
d="M412 -10q-85 0 -153.5 33t-114 89.5t-64.5 131.5t-4 159q13 72 48.5 134t88.5 107t120.5 70.5t142.5 25.5q86 0 154.5 -34.5t113.5 -92t63.5 -132t4.5 -154.5q-13 -72 -48.5 -134t-88 -107t-120 -70.5t-143.5 -25.5zM422 96q54 0 101 18.5t84 51t62.5 77t34.5 95.5
q10 57 -1.5 110.5t-42.5 95t-80.5 66.5t-113.5 25q-54 0 -101.5 -18.5t-84.5 -51t-61.5 -77t-33.5 -96.5q-11 -60 2 -114t45 -94.5t80.5 -64t109.5 -23.5zM402 802q-32 0 -49 21.5t-11 52.5q4 25 24 41t45 16q34 0 49.5 -23t10.5 -51q-5 -26 -24 -41.5t-45 -15.5zM586 802
q-32 0 -49 21.5t-11 52.5q4 25 24 41t45 16q34 0 49.5 -23t10.5 -51q-5 -26 -24 -41.5t-45 -15.5z" />
    <glyph glyph-name="multiply" unicode="&#xd7;" horiz-adv-x="500" 
d="M70 251l134 114l-93 114l74 62l93 -113l133 113l54 -65l-133 -113l92 -112l-75 -62l-91 111l-134 -114z" />
    <glyph glyph-name="Oslash" unicode="&#xd8;" horiz-adv-x="855" 
d="M412 -10q-63 0 -116 18t-95 50l-75 -77l-51 44l76 79q-49 57 -69.5 134t-5.5 165q13 72 48.5 134t88.5 107t120.5 70.5t142.5 25.5q66 0 120.5 -20.5t97.5 -55.5l81 83l51 -44l-84 -87q46 -58 65 -133t5 -156q-13 -72 -48.5 -134t-88 -107t-120 -70.5t-143.5 -25.5z
M185 392q-11 -60 1.5 -113t43.5 -94l388 400q-29 23 -67.5 36.5t-84.5 13.5q-54 0 -101.5 -18.5t-84.5 -51t-61.5 -77t-33.5 -96.5zM422 96q54 0 101 18.5t84 51t62.5 77t34.5 95.5q10 54 -0.5 105t-39.5 93l-385 -397q29 -20 65 -31.5t78 -11.5z" />
    <glyph glyph-name="Ugrave" unicode="&#xd9;" horiz-adv-x="705" 
d="M319 -10q-62 0 -112.5 20t-84.5 57t-48 89t-3 117l80 457h111l-82 -467q-6 -35 1 -66.5t26 -55t49 -37t69 -13.5q43 0 77 13.5t59 36t40.5 52t20.5 61.5l83 476h111l-83 -474q-11 -62 -37.5 -111.5t-67 -84t-93.5 -52.5t-116 -18zM293 951h113l86 -166h-81z" />
    <glyph glyph-name="Uacute" unicode="&#xda;" horiz-adv-x="705" 
d="M319 -10q-62 0 -112.5 20t-84.5 57t-48 89t-3 117l80 457h111l-82 -467q-6 -35 1 -66.5t26 -55t49 -37t69 -13.5q43 0 77 13.5t59 36t40.5 52t20.5 61.5l83 476h111l-83 -474q-11 -62 -37.5 -111.5t-67 -84t-93.5 -52.5t-116 -18zM547 951h114l-176 -166h-82z" />
    <glyph glyph-name="Ucircumflex" unicode="&#xdb;" horiz-adv-x="705" 
d="M319 -10q-62 0 -112.5 20t-84.5 57t-48 89t-3 117l80 457h111l-82 -467q-6 -35 1 -66.5t26 -55t49 -37t69 -13.5q43 0 77 13.5t59 36t40.5 52t20.5 61.5l83 476h111l-83 -474q-11 -62 -37.5 -111.5t-67 -84t-93.5 -52.5t-116 -18zM431 951h76l90 -166h-92l-48 94l-82 -94
h-92z" />
    <glyph glyph-name="Udieresis" unicode="&#xdc;" horiz-adv-x="705" 
d="M319 -10q-62 0 -112.5 20t-84.5 57t-48 89t-3 117l80 457h111l-82 -467q-6 -35 1 -66.5t26 -55t49 -37t69 -13.5q43 0 77 13.5t59 36t40.5 52t20.5 61.5l83 476h111l-83 -474q-11 -62 -37.5 -111.5t-67 -84t-93.5 -52.5t-116 -18zM352 786q-32 0 -49 21.5t-11 52.5
q4 25 24 41t45 16q34 0 49.5 -23t10.5 -51q-5 -26 -24 -41.5t-45 -15.5zM536 786q-32 0 -49 21.5t-11 52.5q4 25 24 41t45 16q34 0 49.5 -23t10.5 -51q-5 -26 -24 -41.5t-45 -15.5z" />
    <glyph glyph-name="Yacute" unicode="&#xdd;" horiz-adv-x="673" 
d="M284 310l-185 420h114l143 -325l252 325h128l-344 -433l-52 -297h-110zM513 948h114l-176 -166h-82z" />
    <glyph glyph-name="Thorn" unicode="&#xde;" horiz-adv-x="620" 
d="M156 730h110l-25 -139h133q44 0 84 -17t68.5 -47.5t41.5 -74t4 -96.5q-7 -42 -28 -79t-53.5 -64t-75 -42.5t-93.5 -15.5h-157l-27 -155h-110zM223 490l-41 -234h146q28 0 51.5 9t41 24.5t28.5 36t16 44.5q4 25 -2 46.5t-20.5 38t-36 26t-48.5 9.5h-135z" />
    <glyph glyph-name="germandbls" unicode="&#xdf;" horiz-adv-x="602" 
d="M-116 -147q36 0 59 5t37.5 18.5t23 36.5t14.5 58l106 593q19 107 76.5 167.5t165.5 60.5q54 0 95 -20t67 -53t36 -75t2 -86q-10 -53 -42.5 -92.5t-78.5 -60.5q30 -12 51.5 -33.5t34.5 -49.5t16.5 -60t-2.5 -63q-8 -46 -28.5 -84.5t-52 -66t-74.5 -43t-95 -15.5
q-30 0 -62.5 8.5t-48.5 18.5l20 93q16 -9 39.5 -15.5t46.5 -6.5q58 0 97 35t49 88q10 63 -24 104t-107 41h-23l17 99h22q54 0 93.5 31t49.5 82q4 25 -1 48t-18.5 40.5t-34.5 28t-49 10.5q-49 0 -82 -31.5t-43 -90.5l-108 -602q-11 -60 -27.5 -101.5t-43 -68t-66 -38
t-96.5 -11.5h-29z" />
    <glyph glyph-name="agrave" unicode="&#xe0;" horiz-adv-x="664" 
d="M286 -11q-62 0 -111 25.5t-81 68.5t-44.5 100t-1.5 120q9 54 35 99.5t64 78.5t86 51.5t102 18.5q71 0 118.5 -29.5t70.5 -78.5l17 97h109l-95 -540h-107l12 72q-31 -38 -74.5 -60.5t-99.5 -22.5zM312 89q33 0 64 12.5t55.5 34.5t42 52t23.5 65q7 40 -0.5 76t-28 63.5
t-53 44t-74.5 16.5q-35 0 -67 -12t-57 -34t-42 -51.5t-23 -65.5q-6 -39 2.5 -75.5t29.5 -64t53.5 -44.5t74.5 -17zM202 778h113l86 -166h-81z" />
    <glyph glyph-name="aacute" unicode="&#xe1;" horiz-adv-x="664" 
d="M286 -11q-62 0 -111 25.5t-81 68.5t-44.5 100t-1.5 120q9 54 35 99.5t64 78.5t86 51.5t102 18.5q71 0 118.5 -29.5t70.5 -78.5l17 97h109l-95 -540h-107l12 72q-31 -38 -74.5 -60.5t-99.5 -22.5zM312 89q33 0 64 12.5t55.5 34.5t42 52t23.5 65q7 40 -0.5 76t-28 63.5
t-53 44t-74.5 16.5q-35 0 -67 -12t-57 -34t-42 -51.5t-23 -65.5q-6 -39 2.5 -75.5t29.5 -64t53.5 -44.5t74.5 -17zM456 778h114l-176 -166h-82z" />
    <glyph glyph-name="acircumflex" unicode="&#xe2;" horiz-adv-x="664" 
d="M286 -11q-62 0 -111 25.5t-81 68.5t-44.5 100t-1.5 120q9 54 35 99.5t64 78.5t86 51.5t102 18.5q71 0 118.5 -29.5t70.5 -78.5l17 97h109l-95 -540h-107l12 72q-31 -38 -74.5 -60.5t-99.5 -22.5zM312 89q33 0 64 12.5t55.5 34.5t42 52t23.5 65q7 40 -0.5 76t-28 63.5
t-53 44t-74.5 16.5q-35 0 -67 -12t-57 -34t-42 -51.5t-23 -65.5q-6 -39 2.5 -75.5t29.5 -64t53.5 -44.5t74.5 -17zM340 778h76l90 -166h-92l-48 94l-82 -94h-92z" />
    <glyph glyph-name="atilde" unicode="&#xe3;" horiz-adv-x="664" 
d="M286 -11q-62 0 -111 25.5t-81 68.5t-44.5 100t-1.5 120q9 54 35 99.5t64 78.5t86 51.5t102 18.5q71 0 118.5 -29.5t70.5 -78.5l17 97h109l-95 -540h-107l12 72q-31 -38 -74.5 -60.5t-99.5 -22.5zM312 89q33 0 64 12.5t55.5 34.5t42 52t23.5 65q7 40 -0.5 76t-28 63.5
t-53 44t-74.5 16.5q-35 0 -67 -12t-57 -34t-42 -51.5t-23 -65.5q-6 -39 2.5 -75.5t29.5 -64t53.5 -44.5t74.5 -17zM183 612q11 58 43 93t80 35q26 0 43.5 -7.5t31.5 -17.5t27 -18t28 -8q31 0 40 47h71q-11 -59 -42.5 -93.5t-81.5 -34.5q-30 0 -49.5 10.5t-35.5 21.5
q-11 8 -22 13.5t-24 5.5q-30 0 -39 -47h-70z" />
    <glyph glyph-name="adieresis" unicode="&#xe4;" horiz-adv-x="664" 
d="M286 -11q-62 0 -111 25.5t-81 68.5t-44.5 100t-1.5 120q9 54 35 99.5t64 78.5t86 51.5t102 18.5q71 0 118.5 -29.5t70.5 -78.5l17 97h109l-95 -540h-107l12 72q-31 -38 -74.5 -60.5t-99.5 -22.5zM312 89q33 0 64 12.5t55.5 34.5t42 52t23.5 65q7 40 -0.5 76t-28 63.5
t-53 44t-74.5 16.5q-35 0 -67 -12t-57 -34t-42 -51.5t-23 -65.5q-6 -39 2.5 -75.5t29.5 -64t53.5 -44.5t74.5 -17zM261 613q-32 0 -49 21.5t-11 52.5q4 25 24 41t45 16q34 0 49.5 -23t10.5 -51q-5 -26 -24 -41.5t-45 -15.5zM445 613q-32 0 -49 21.5t-11 52.5q4 25 24 41
t45 16q34 0 49.5 -23t10.5 -51q-5 -26 -24 -41.5t-45 -15.5z" />
    <glyph glyph-name="aring" unicode="&#xe5;" horiz-adv-x="664" 
d="M286 -11q-62 0 -111 25.5t-81 68.5t-44.5 100t-1.5 120q9 54 35 99.5t64 78.5t86 51.5t102 18.5q71 0 118.5 -29.5t70.5 -78.5l17 97h109l-95 -540h-107l12 72q-31 -38 -74.5 -60.5t-99.5 -22.5zM312 89q33 0 64 12.5t55.5 34.5t42 52t23.5 65q7 40 -0.5 76t-28 63.5
t-53 44t-74.5 16.5q-35 0 -67 -12t-57 -34t-42 -51.5t-23 -65.5q-6 -39 2.5 -75.5t29.5 -64t53.5 -44.5t74.5 -17zM355 613q-25 0 -45 10.5t-32.5 28t-17 40.5t2.5 48q11 38 42.5 63t71.5 25q25 0 45 -10.5t33 -27.5t17.5 -40t-2.5 -47q-11 -40 -41 -65t-74 -25zM360 672
q19 0 34 12t20 29q5 23 -7.5 40t-35.5 17q-17 0 -31.5 -12t-19.5 -29q-6 -23 5.5 -40t34.5 -17z" />
    <glyph glyph-name="ae" unicode="&#xe6;" horiz-adv-x="1033" 
d="M209 -11q-51 0 -88 14t-60.5 38t-32 55.5t-2.5 67.5q15 85 84 121.5t182 36.5h158l5 28q8 48 -27 79t-103 31q-57 0 -91.5 -21.5t-57.5 -58.5l-95 43q21 28 46 52t56 40.5t69 26t85 9.5q77 0 123 -25.5t66 -67.5q41 43 97 68t124 25q66 0 116 -23.5t82.5 -63.5t45 -93.5
t2.5 -114.5l-5 -26h-445q4 -69 49.5 -107.5t122.5 -38.5q49 0 85.5 19t66.5 51l81 -62q-45 -51 -103 -77t-133 -26q-91 0 -150 32.5t-90 87.5q-45 -58 -110 -89t-153 -31zM741 459q-74 -1 -120 -38.5t-65 -98.5h339q-2 64 -42 101t-112 36zM233 83q69 0 122 29.5t88 98.5
q-1 5 -1 9.5v9.5h-163q-73 0 -103.5 -17t-37.5 -53q-6 -34 18.5 -55.5t76.5 -21.5z" />
    <glyph glyph-name="ccedilla" unicode="&#xe7;" horiz-adv-x="602" 
d="M283 -243q-53 0 -90.5 16t-61.5 42l75 43q17 -16 35.5 -25.5t45.5 -9.5q56 0 62 33q8 33 -58 33h-47l18 103q-59 8 -103.5 36.5t-72.5 70.5t-38 95.5t0 110.5q10 52 36.5 97t65.5 78t88.5 52t105.5 19q48 0 88 -12t71 -33t53.5 -50.5t35.5 -64.5l-104 -44
q-16 47 -52.5 76t-96.5 30q-32 0 -62.5 -12t-56 -33t-43.5 -50.5t-25 -65.5q-6 -39 2.5 -76t29.5 -65t53.5 -45t74.5 -17q48 0 88.5 24.5t66.5 66.5l95 -54q-35 -58 -93 -93t-132 -42l-8 -46q58 -5 81.5 -33t17.5 -66q-8 -44 -48 -66.5t-97 -22.5z" />
    <glyph glyph-name="egrave" unicode="&#xe8;" horiz-adv-x="633" 
d="M313 -11q-77 0 -132.5 24.5t-88.5 67.5t-44 99.5t0 121.5q10 53 36.5 98.5t65.5 79t89 52.5t109 19q66 0 116 -23.5t82.5 -63.5t45 -93.5t2.5 -114.5l-5 -26h-445q4 -69 49.5 -107.5t122.5 -38.5q49 0 85.5 19t66.5 51l81 -62q-45 -51 -103 -77t-133 -26zM342 459
q-74 -1 -120 -38.5t-65 -98.5h339q-3 65 -42.5 101.5t-111.5 35.5zM214 778h113l86 -166h-81z" />
    <glyph glyph-name="eacute" unicode="&#xe9;" horiz-adv-x="633" 
d="M313 -11q-77 0 -132.5 24.5t-88.5 67.5t-44 99.5t0 121.5q10 53 36.5 98.5t65.5 79t89 52.5t109 19q66 0 116 -23.5t82.5 -63.5t45 -93.5t2.5 -114.5l-5 -26h-445q4 -69 49.5 -107.5t122.5 -38.5q49 0 85.5 19t66.5 51l81 -62q-45 -51 -103 -77t-133 -26zM342 459
q-74 -1 -120 -38.5t-65 -98.5h339q-3 65 -42.5 101.5t-111.5 35.5zM468 778h114l-176 -166h-82z" />
    <glyph glyph-name="ecircumflex" unicode="&#xea;" horiz-adv-x="633" 
d="M313 -11q-77 0 -132.5 24.5t-88.5 67.5t-44 99.5t0 121.5q10 53 36.5 98.5t65.5 79t89 52.5t109 19q66 0 116 -23.5t82.5 -63.5t45 -93.5t2.5 -114.5l-5 -26h-445q4 -69 49.5 -107.5t122.5 -38.5q49 0 85.5 19t66.5 51l81 -62q-45 -51 -103 -77t-133 -26zM342 459
q-74 -1 -120 -38.5t-65 -98.5h339q-3 65 -42.5 101.5t-111.5 35.5zM352 778h76l90 -166h-92l-48 94l-82 -94h-92z" />
    <glyph glyph-name="edieresis" unicode="&#xeb;" horiz-adv-x="633" 
d="M313 -11q-77 0 -132.5 24.5t-88.5 67.5t-44 99.5t0 121.5q10 53 36.5 98.5t65.5 79t89 52.5t109 19q66 0 116 -23.5t82.5 -63.5t45 -93.5t2.5 -114.5l-5 -26h-445q4 -69 49.5 -107.5t122.5 -38.5q49 0 85.5 19t66.5 51l81 -62q-45 -51 -103 -77t-133 -26zM342 459
q-74 -1 -120 -38.5t-65 -98.5h339q-3 65 -42.5 101.5t-111.5 35.5zM273 613q-32 0 -49 21.5t-11 52.5q4 25 24 41t45 16q34 0 49.5 -23t10.5 -51q-5 -26 -24 -41.5t-45 -15.5zM457 613q-32 0 -49 21.5t-11 52.5q4 25 24 41t45 16q34 0 49.5 -23t10.5 -51q-5 -26 -24 -41.5
t-45 -15.5z" />
    <glyph glyph-name="igrave" unicode="&#xec;" horiz-adv-x="233" 
d="M15 0l95 540h109l-95 -540h-109zM30 772h113l86 -166h-81z" />
    <glyph glyph-name="iacute" unicode="&#xed;" horiz-adv-x="233" 
d="M15 0l95 540h109l-95 -540h-109zM277 772h114l-176 -166h-82z" />
    <glyph glyph-name="icircumflex" unicode="&#xee;" horiz-adv-x="233" 
d="M15 0l95 540h109l-95 -540h-109zM168 772h76l90 -166h-92l-48 94l-82 -94h-92z" />
    <glyph glyph-name="idieresis" unicode="&#xef;" horiz-adv-x="233" 
d="M15 0l95 540h109l-95 -540h-109zM89 607q-32 0 -49 21.5t-11 52.5q4 25 24 41t45 16q34 0 49.5 -23t10.5 -51q-5 -26 -24 -41.5t-45 -15.5zM273 607q-32 0 -49 21.5t-11 52.5q4 25 24 41t45 16q34 0 49.5 -23t10.5 -51q-5 -26 -24 -41.5t-45 -15.5z" />
    <glyph glyph-name="eth" unicode="&#xf0;" horiz-adv-x="658" 
d="M212 619l111 64q-51 49 -117 105h150l27.5 -27.5t26.5 -27.5l111 64l36 -53l-103 -60q89 -108 130 -223t21 -226q-10 -54 -35.5 -99t-64 -77.5t-88.5 -51t-109 -18.5q-63 0 -115 23.5t-87 64.5t-50.5 96.5t-5.5 120.5q8 55 33.5 101t63 79t83.5 51t96 18q48 0 83 -12
t61 -31q-35 65 -101 135l-122 -71zM315 88q33 0 63 11.5t55 32.5t42.5 49.5t23.5 63.5q7 38 0.5 74.5t-27 65.5t-53 46.5t-76.5 17.5q-33 0 -63.5 -11.5t-55.5 -32.5t-42 -50t-24 -65q-7 -39 1 -75t29 -64.5t53 -45.5t74 -17z" />
    <glyph glyph-name="ntilde" unicode="&#xf1;" horiz-adv-x="616" 
d="M110 540h108l-13 -75q32 43 75.5 64.5t96.5 21.5q52 0 91 -18.5t63 -52.5t32 -80.5t-2 -103.5l-53 -296h-111l52 295q7 36 4.5 65.5t-15 51t-36.5 33t-61 11.5q-69 0 -110.5 -45.5t-55.5 -126.5l-52 -284h-108zM215 610q11 58 43 93t80 35q26 0 43.5 -7.5t31.5 -17.5
t27 -18t28 -8q31 0 40 47h71q-11 -59 -42.5 -93.5t-81.5 -34.5q-30 0 -49.5 10.5t-35.5 21.5q-11 8 -22 13.5t-24 5.5q-30 0 -39 -47h-70z" />
    <glyph glyph-name="ograve" unicode="&#xf2;" horiz-adv-x="653" 
d="M304 -11q-66 0 -118.5 25t-87 67.5t-48.5 100t-2 123.5q9 50 35.5 95t66 78.5t91.5 53t112 19.5q61 0 113 -24.5t87 -67t50 -100t3 -123.5q-9 -52 -34.5 -97t-64.5 -78.5t-90.5 -52.5t-112.5 -19zM308 88q78 0 129.5 44.5t64.5 116.5q7 40 0 76.5t-27 65t-53 45.5t-78 17
q-38 0 -70.5 -12t-57.5 -34t-41 -51.5t-22 -63.5q-8 -44 0.5 -81.5t29.5 -64.5t53 -42.5t72 -15.5zM220 778h113l86 -166h-81z" />
    <glyph glyph-name="oacute" unicode="&#xf3;" horiz-adv-x="653" 
d="M304 -11q-66 0 -118.5 25t-87 67.5t-48.5 100t-2 123.5q9 50 35.5 95t66 78.5t91.5 53t112 19.5q61 0 113 -24.5t87 -67t50 -100t3 -123.5q-9 -52 -34.5 -97t-64.5 -78.5t-90.5 -52.5t-112.5 -19zM308 88q78 0 129.5 44.5t64.5 116.5q7 40 0 76.5t-27 65t-53 45.5t-78 17
q-38 0 -70.5 -12t-57.5 -34t-41 -51.5t-22 -63.5q-8 -44 0.5 -81.5t29.5 -64.5t53 -42.5t72 -15.5zM474 778h114l-176 -166h-82z" />
    <glyph glyph-name="ocircumflex" unicode="&#xf4;" horiz-adv-x="653" 
d="M304 -11q-66 0 -118.5 25t-87 67.5t-48.5 100t-2 123.5q9 50 35.5 95t66 78.5t91.5 53t112 19.5q61 0 113 -24.5t87 -67t50 -100t3 -123.5q-9 -52 -34.5 -97t-64.5 -78.5t-90.5 -52.5t-112.5 -19zM308 88q78 0 129.5 44.5t64.5 116.5q7 40 0 76.5t-27 65t-53 45.5t-78 17
q-38 0 -70.5 -12t-57.5 -34t-41 -51.5t-22 -63.5q-8 -44 0.5 -81.5t29.5 -64.5t53 -42.5t72 -15.5zM358 778h76l90 -166h-92l-48 94l-82 -94h-92z" />
    <glyph glyph-name="otilde" unicode="&#xf5;" horiz-adv-x="653" 
d="M304 -11q-66 0 -118.5 25t-87 67.5t-48.5 100t-2 123.5q9 50 35.5 95t66 78.5t91.5 53t112 19.5q61 0 113 -24.5t87 -67t50 -100t3 -123.5q-9 -52 -34.5 -97t-64.5 -78.5t-90.5 -52.5t-112.5 -19zM308 88q78 0 129.5 44.5t64.5 116.5q7 40 0 76.5t-27 65t-53 45.5t-78 17
q-38 0 -70.5 -12t-57.5 -34t-41 -51.5t-22 -63.5q-8 -44 0.5 -81.5t29.5 -64.5t53 -42.5t72 -15.5zM201 612q11 58 43 93t80 35q26 0 43.5 -7.5t31.5 -17.5t27 -18t28 -8q31 0 40 47h71q-11 -59 -42.5 -93.5t-81.5 -34.5q-30 0 -49.5 10.5t-35.5 21.5q-11 8 -22 13.5
t-24 5.5q-30 0 -39 -47h-70z" />
    <glyph glyph-name="odieresis" unicode="&#xf6;" horiz-adv-x="653" 
d="M304 -11q-66 0 -118.5 25t-87 67.5t-48.5 100t-2 123.5q9 50 35.5 95t66 78.5t91.5 53t112 19.5q61 0 113 -24.5t87 -67t50 -100t3 -123.5q-9 -52 -34.5 -97t-64.5 -78.5t-90.5 -52.5t-112.5 -19zM308 88q78 0 129.5 44.5t64.5 116.5q7 40 0 76.5t-27 65t-53 45.5t-78 17
q-38 0 -70.5 -12t-57.5 -34t-41 -51.5t-22 -63.5q-8 -44 0.5 -81.5t29.5 -64.5t53 -42.5t72 -15.5zM279 613q-32 0 -49 21.5t-11 52.5q4 25 24 41t45 16q34 0 49.5 -23t10.5 -51q-5 -26 -24 -41.5t-45 -15.5zM463 613q-32 0 -49 21.5t-11 52.5q4 25 24 41t45 16
q34 0 49.5 -23t10.5 -51q-5 -26 -24 -41.5t-45 -15.5z" />
    <glyph glyph-name="divide" unicode="&#xf7;" horiz-adv-x="500" 
d="M91 411h370l-17 -92h-370zM237 144q-31 0 -46.5 20.5t-10.5 48.5q5 23 23 38t41 15q32 0 47 -21t10 -47q-5 -24 -22.5 -39t-41.5 -15zM293 462q-31 0 -46.5 20.5t-10.5 49.5q5 23 23 38t41 15q32 0 47 -21t10 -47q-5 -25 -22.5 -40t-41.5 -15z" />
    <glyph glyph-name="oslash" unicode="&#xf8;" horiz-adv-x="655" 
d="M304 -11q-45 0 -83.5 11.5t-70.5 32.5l-58 -60l-49 45l58 60q-36 44 -50.5 102t-2.5 125q9 50 35.5 95t66 78.5t91.5 53t112 19.5q45 0 83.5 -13t70.5 -36l57 59l49 -44l-58 -61q34 -42 48 -98t3 -122q-9 -52 -34.5 -97t-64.5 -78.5t-90.5 -52.5t-112.5 -19zM153 292
q-7 -41 -1 -75.5t23 -60.5l261 272q-38 25 -92 25q-38 0 -70.5 -12t-57.5 -34t-41 -51.5t-22 -63.5zM308 88q78 0 129.5 44.5t64.5 116.5q12 74 -20 131l-259 -270q38 -22 85 -22z" />
    <glyph glyph-name="ugrave" unicode="&#xf9;" horiz-adv-x="592" 
d="M224 -11q-100 0 -148 65t-28 179l54 307h111l-54 -300q-12 -72 14.5 -114t89.5 -42q59 0 99.5 41.5t54.5 122.5l53 292h108l-95 -540h-108l11 69q-30 -38 -70.5 -59t-91.5 -21zM186 759h113l86 -166h-81z" />
    <glyph glyph-name="uacute" unicode="&#xfa;" horiz-adv-x="592" 
d="M224 -11q-100 0 -148 65t-28 179l54 307h111l-54 -300q-12 -72 14.5 -114t89.5 -42q59 0 99.5 41.5t54.5 122.5l53 292h108l-95 -540h-108l11 69q-30 -38 -70.5 -59t-91.5 -21zM446 759h114l-176 -166h-82z" />
    <glyph glyph-name="ucircumflex" unicode="&#xfb;" horiz-adv-x="592" 
d="M224 -11q-100 0 -148 65t-28 179l54 307h111l-54 -300q-12 -72 14.5 -114t89.5 -42q59 0 99.5 41.5t54.5 122.5l53 292h108l-95 -540h-108l11 69q-30 -38 -70.5 -59t-91.5 -21zM337 759h76l90 -166h-92l-48 94l-82 -94h-92z" />
    <glyph glyph-name="udieresis" unicode="&#xfc;" horiz-adv-x="592" 
d="M224 -11q-100 0 -148 65t-28 179l54 307h111l-54 -300q-12 -72 14.5 -114t89.5 -42q59 0 99.5 41.5t54.5 122.5l53 292h108l-95 -540h-108l11 69q-30 -38 -70.5 -59t-91.5 -21zM254 594q-32 0 -49 21.5t-11 52.5q4 25 24 41t45 16q34 0 49.5 -23t10.5 -51
q-5 -26 -24 -41.5t-45 -15.5zM438 594q-32 0 -49 21.5t-11 52.5q4 25 24 41t45 16q34 0 49.5 -23t10.5 -51q-5 -26 -24 -41.5t-45 -15.5z" />
    <glyph glyph-name="yacute" unicode="&#xfd;" horiz-adv-x="589" 
d="M58 -203q-56 0 -92 22.5t-56 54.5l91 68q8 -19 24 -32t45 -13q15 0 29 4t28 15.5t30 31.5t34 52l19 33l-143 507h111l103 -382l216 382h120l-333 -570q-30 -51 -56 -84t-52 -53t-54.5 -28t-63.5 -8zM431 764h114l-176 -166h-82z" />
    <glyph glyph-name="thorn" unicode="&#xfe;" horiz-adv-x="668" 
d="M335 -11q-73 0 -120 29t-70 75l-60 -341h-108l183 1036h108q-9 -49 -18 -100q-8 -44 -17.5 -96t-17.5 -102q32 27 72.5 44t91.5 17q62 0 111 -25t81 -67t44 -98.5t1 -119.5q-9 -57 -35.5 -103.5t-64.5 -79.5t-84.5 -51t-96.5 -18zM325 88q36 0 67.5 13t56.5 35t41.5 52
t22.5 65q7 39 -1.5 75.5t-29 64t-53 44t-73.5 16.5q-34 0 -65.5 -13t-56.5 -35.5t-42 -53.5t-23 -66q-7 -41 1 -77t28.5 -62.5t52.5 -42t74 -15.5z" />
    <glyph glyph-name="ydieresis" unicode="&#xff;" horiz-adv-x="589" 
d="M58 -203q-56 0 -92 22.5t-56 54.5l91 68q8 -19 24 -32t45 -13q15 0 29 4t28 15.5t30 31.5t34 52l19 33l-143 507h111l103 -382l216 382h120l-333 -570q-30 -51 -56 -84t-52 -53t-54.5 -28t-63.5 -8zM240 599q-32 0 -49 21.5t-11 52.5q4 25 24 41t45 16q34 0 49.5 -23
t10.5 -51q-5 -26 -24 -41.5t-45 -15.5zM424 599q-32 0 -49 21.5t-11 52.5q4 25 24 41t45 16q34 0 49.5 -23t10.5 -51q-5 -26 -24 -41.5t-45 -15.5z" />
    <glyph glyph-name="Amacron" unicode="&#x100;" horiz-adv-x="714" 
d="M389 730h109l149 -730h-109l-31 156h-331l-87 -156h-116zM235 260h252l-66 333zM338 894h264l-15 -77h-264z" />
    <glyph glyph-name="amacron" unicode="&#x101;" horiz-adv-x="664" 
d="M286 -11q-62 0 -111 25.5t-81 68.5t-44.5 100t-1.5 120q9 54 35 99.5t64 78.5t86 51.5t102 18.5q71 0 118.5 -29.5t70.5 -78.5l17 97h109l-95 -540h-107l12 72q-31 -38 -74.5 -60.5t-99.5 -22.5zM312 89q33 0 64 12.5t55.5 34.5t42 52t23.5 65q7 40 -0.5 76t-28 63.5
t-53 44t-74.5 16.5q-35 0 -67 -12t-57 -34t-42 -51.5t-23 -65.5q-6 -39 2.5 -75.5t29.5 -64t53.5 -44.5t74.5 -17zM245 710h264l-15 -77h-264z" />
    <glyph glyph-name="Abreve" unicode="&#x102;" horiz-adv-x="714" 
d="M389 730h109l149 -730h-109l-31 156h-331l-87 -156h-116zM235 260h252l-66 333zM460 792q-41 0 -69 13t-44 35.5t-20.5 52.5t1.5 65h76q-9 -48 9 -73.5t59 -26.5q42 1 67.5 26.5t34.5 73.5h77q-6 -35 -22.5 -65t-41 -52.5t-57 -35.5t-70.5 -13z" />
    <glyph glyph-name="abreve" unicode="&#x103;" horiz-adv-x="664" 
d="M286 -11q-62 0 -111 25.5t-81 68.5t-44.5 100t-1.5 120q9 54 35 99.5t64 78.5t86 51.5t102 18.5q71 0 118.5 -29.5t70.5 -78.5l17 97h109l-95 -540h-107l12 72q-31 -38 -74.5 -60.5t-99.5 -22.5zM312 89q33 0 64 12.5t55.5 34.5t42 52t23.5 65q7 40 -0.5 76t-28 63.5
t-53 44t-74.5 16.5q-35 0 -67 -12t-57 -34t-42 -51.5t-23 -65.5q-6 -39 2.5 -75.5t29.5 -64t53.5 -44.5t74.5 -17zM348 608q-41 0 -69 13t-44 35.5t-20.5 52.5t1.5 65h76q-9 -48 9 -73.5t59 -26.5q42 1 67.5 26.5t34.5 73.5h77q-6 -35 -22.5 -65t-41 -52.5t-57 -35.5
t-70.5 -13z" />
    <glyph glyph-name="Aogonek" unicode="&#x104;" horiz-adv-x="714" 
d="M531 -223q-31 0 -55 8.5t-40 23.5t-22.5 34.5t-2.5 41.5q5 34 32 64.5t92 64.5l-28 142h-331l-87 -156h-116l416 730h109l149 -730q-44 -25 -71.5 -42t-43.5 -29t-23 -21.5t-8 -19.5q-4 -19 9 -28t33 -9q23 0 39.5 9.5t33.5 21.5l63 -48q-31 -23 -70.5 -40t-77.5 -17z
M235 260h252l-66 333z" />
    <glyph glyph-name="aogonek" unicode="&#x105;" horiz-adv-x="664" 
d="M499 -223q-33 0 -57.5 10.5t-39.5 27t-21 38t-2 43.5q5 32 23 59.5t47 51.5l11 65q-31 -38 -74.5 -60.5t-99.5 -22.5q-62 0 -111 25.5t-81 68.5t-44.5 100t-1.5 120q9 54 35 99.5t64 78.5t86 51.5t102 18.5q71 0 118.5 -29.5t70.5 -78.5l17 97h109l-95 -540
q-42 -30 -62.5 -55.5t-23.5 -46.5q-4 -19 7.5 -33t34.5 -14t39.5 9.5t33.5 21.5l63 -48q-67 -57 -148 -57zM312 89q33 0 64 12.5t55.5 34.5t42 52t23.5 65q7 40 -0.5 76t-28 63.5t-53 44t-74.5 16.5q-35 0 -67 -12t-57 -34t-42 -51.5t-23 -65.5q-6 -39 2.5 -75.5t29.5 -64
t53.5 -44.5t74.5 -17z" />
    <glyph glyph-name="Cacute" unicode="&#x106;" horiz-adv-x="797" 
d="M422 -10q-92 0 -163 33t-116.5 89.5t-63.5 131.5t-3 159q13 72 48 134t87.5 107t121 70.5t147.5 25.5q110 0 189.5 -46t124.5 -143l-104 -51q-33 74 -86 104.5t-135 30.5q-56 0 -103.5 -18t-85 -50.5t-62 -77t-33.5 -97.5q-11 -60 1.5 -114t44.5 -94.5t83 -64t118 -23.5
q65 0 122.5 32.5t96.5 87.5l94 -64q-60 -78 -142 -120t-181 -42zM588 967h114l-176 -166h-82z" />
    <glyph glyph-name="cacute" unicode="&#x107;" horiz-adv-x="602" 
d="M306 -11q-69 0 -122.5 26t-87 69.5t-46.5 101t-2 119.5q10 52 36.5 97t65.5 78t88.5 52t105.5 19q48 0 88 -12t71 -33t53.5 -50.5t35.5 -64.5l-104 -44q-16 47 -52.5 76t-96.5 30q-32 0 -62.5 -12t-56 -33t-43.5 -50.5t-25 -65.5q-6 -39 2.5 -76t29.5 -65t53.5 -45
t74.5 -17q48 0 88.5 24.5t66.5 66.5l95 -54q-39 -64 -105 -100.5t-151 -36.5zM465 778h114l-176 -166h-82z" />
    <glyph glyph-name="Ccircumflex" unicode="&#x108;" horiz-adv-x="797" 
d="M422 -10q-92 0 -163 33t-116.5 89.5t-63.5 131.5t-3 159q13 72 48 134t87.5 107t121 70.5t147.5 25.5q110 0 189.5 -46t124.5 -143l-104 -51q-33 74 -86 104.5t-135 30.5q-56 0 -103.5 -18t-85 -50.5t-62 -77t-33.5 -97.5q-11 -60 1.5 -114t44.5 -94.5t83 -64t118 -23.5
q65 0 122.5 32.5t96.5 87.5l94 -64q-60 -78 -142 -120t-181 -42zM485 967h76l90 -166h-92l-48 94l-82 -94h-92z" />
    <glyph glyph-name="ccircumflex" unicode="&#x109;" horiz-adv-x="602" 
d="M306 -11q-69 0 -122.5 26t-87 69.5t-46.5 101t-2 119.5q10 52 36.5 97t65.5 78t88.5 52t105.5 19q48 0 88 -12t71 -33t53.5 -50.5t35.5 -64.5l-104 -44q-16 47 -52.5 76t-96.5 30q-32 0 -62.5 -12t-56 -33t-43.5 -50.5t-25 -65.5q-6 -39 2.5 -76t29.5 -65t53.5 -45
t74.5 -17q48 0 88.5 24.5t66.5 66.5l95 -54q-39 -64 -105 -100.5t-151 -36.5zM349 778h76l90 -166h-92l-48 94l-82 -94h-92z" />
    <glyph glyph-name="Cdotaccent" unicode="&#x10a;" horiz-adv-x="797" 
d="M422 -10q-92 0 -163 33t-116.5 89.5t-63.5 131.5t-3 159q13 72 48 134t87.5 107t121 70.5t147.5 25.5q110 0 189.5 -46t124.5 -143l-104 -51q-33 74 -86 104.5t-135 30.5q-56 0 -103.5 -18t-85 -50.5t-62 -77t-33.5 -97.5q-11 -60 1.5 -114t44.5 -94.5t83 -64t118 -23.5
q65 0 122.5 32.5t96.5 87.5l94 -64q-60 -78 -142 -120t-181 -42zM494 801q-36 0 -55 24.5t-12 57.5q5 28 27 45.5t49 17.5q38 0 55.5 -25t11.5 -56q-5 -29 -26 -46.5t-50 -17.5z" />
    <glyph glyph-name="cdotaccent" unicode="&#x10b;" horiz-adv-x="602" 
d="M306 -11q-69 0 -122.5 26t-87 69.5t-46.5 101t-2 119.5q10 52 36.5 97t65.5 78t88.5 52t105.5 19q48 0 88 -12t71 -33t53.5 -50.5t35.5 -64.5l-104 -44q-16 47 -52.5 76t-96.5 30q-32 0 -62.5 -12t-56 -33t-43.5 -50.5t-25 -65.5q-6 -39 2.5 -76t29.5 -65t53.5 -45
t74.5 -17q48 0 88.5 24.5t66.5 66.5l95 -54q-39 -64 -105 -100.5t-151 -36.5zM358 612q-36 0 -55 24.5t-12 57.5q5 28 27 45.5t49 17.5q38 0 55.5 -25t11.5 -56q-5 -29 -26 -46.5t-50 -17.5z" />
    <glyph glyph-name="Ccaron" unicode="&#x10c;" horiz-adv-x="797" 
d="M422 -10q-92 0 -163 33t-116.5 89.5t-63.5 131.5t-3 159q13 72 48 134t87.5 107t121 70.5t147.5 25.5q110 0 189.5 -46t124.5 -143l-104 -51q-33 74 -86 104.5t-135 30.5q-56 0 -103.5 -18t-85 -50.5t-62 -77t-33.5 -97.5q-11 -60 1.5 -114t44.5 -94.5t83 -64t118 -23.5
q65 0 122.5 32.5t96.5 87.5l94 -64q-60 -78 -142 -120t-181 -42zM363 967h92l48 -94l82 94h92l-149 -166h-75z" />
    <glyph glyph-name="ccaron" unicode="&#x10d;" horiz-adv-x="602" 
d="M306 -11q-69 0 -122.5 26t-87 69.5t-46.5 101t-2 119.5q10 52 36.5 97t65.5 78t88.5 52t105.5 19q48 0 88 -12t71 -33t53.5 -50.5t35.5 -64.5l-104 -44q-16 47 -52.5 76t-96.5 30q-32 0 -62.5 -12t-56 -33t-43.5 -50.5t-25 -65.5q-6 -39 2.5 -76t29.5 -65t53.5 -45
t74.5 -17q48 0 88.5 24.5t66.5 66.5l95 -54q-39 -64 -105 -100.5t-151 -36.5zM227 778h92l48 -94l82 94h92l-149 -166h-75z" />
    <glyph glyph-name="Dcaron" unicode="&#x10e;" horiz-adv-x="732" 
d="M155 730h217q80 0 145.5 -31.5t109 -84t62 -122.5t4.5 -148q-13 -73 -48 -135.5t-87.5 -109t-119.5 -73t-145 -26.5h-266zM247 629l-92 -527h146q52 0 99 19t84.5 52.5t63.5 79t35 98.5q10 57 -2 107.5t-42 88.5t-76 60t-105 22h-111zM255 960h92l48 -94l82 94h92
l-149 -166h-75z" />
    <glyph glyph-name="dcaron" unicode="&#x10f;" horiz-adv-x="664" 
d="M286 -11q-62 0 -111 25.5t-81 68.5t-44.5 100t-1.5 120q9 54 35 99.5t64 78.5t86 51.5t102 18.5q70 0 118.5 -29t71.5 -77l60 343h108l-139 -788h-105l12 72q-32 -38 -75.5 -60.5t-99.5 -22.5zM312 89q33 0 64 12.5t55.5 34.5t42 52t23.5 65q7 40 -0.5 76t-28 63.5
t-53 44t-74.5 16.5q-35 0 -67 -12t-57 -34t-42 -51.5t-23 -65.5q-6 -39 2.5 -75.5t29.5 -64t53.5 -44.5t74.5 -17zM752 627q38 17 65 40t31 49v2q-6 -20 -19.5 -27t-30.5 -7q-24 0 -38 20t-9 44q5 26 25.5 45t55.5 19q36 0 57.5 -26.5t14.5 -68.5q-8 -43 -42 -76t-82 -55z
" />
    <glyph glyph-name="Dcroat" unicode="&#x110;" horiz-adv-x="752" 
d="M53 423h68l54 307h217q80 0 145.5 -31.5t109 -84t62 -122.5t4.5 -148q-13 -73 -48 -135.5t-87.5 -109t-119.5 -73t-145 -26.5h-266l59 337h-71zM216 337l-41 -235h146q52 0 99 19t84.5 52.5t63.5 79t35 98.5q10 57 -2 107.5t-42 88.5t-76 60t-105 22h-111l-36 -206h190
l-17 -86h-188z" />
    <glyph glyph-name="dcroat" unicode="&#x111;" horiz-adv-x="664" 
d="M461 677h104l20 111h108l-20 -111h69l-12 -68h-69l-107 -609h-105l12 72q-32 -38 -75.5 -60.5t-99.5 -22.5q-62 0 -111 25.5t-81 68.5t-44.5 100t-1.5 120q9 54 35 99.5t64 78.5t86 51.5t102 18.5q70 0 118.5 -29t71.5 -77l28 164h-104zM312 89q33 0 64 12.5t55.5 34.5
t42 52t23.5 65q7 40 -0.5 76t-28 63.5t-53 44t-74.5 16.5q-35 0 -67 -12t-57 -34t-42 -51.5t-23 -65.5q-6 -39 2.5 -75.5t29.5 -64t53.5 -44.5t74.5 -17z" />
    <glyph glyph-name="Emacron" unicode="&#x112;" horiz-adv-x="616" 
d="M155 730h478l-18 -102h-370l-37 -208h371l-19 -103h-370l-37 -214h370l-18 -103h-478zM290 894h264l-15 -77h-264z" />
    <glyph glyph-name="emacron" unicode="&#x113;" horiz-adv-x="633" 
d="M313 -11q-77 0 -132.5 24.5t-88.5 67.5t-44 99.5t0 121.5q10 53 36.5 98.5t65.5 79t89 52.5t109 19q66 0 116 -23.5t82.5 -63.5t45 -93.5t2.5 -114.5l-5 -26h-445q4 -69 49.5 -107.5t122.5 -38.5q49 0 85.5 19t66.5 51l81 -62q-45 -51 -103 -77t-133 -26zM342 459
q-74 -1 -120 -38.5t-65 -98.5h339q-3 65 -42.5 101.5t-111.5 35.5zM257 710h264l-15 -77h-264z" />
    <glyph glyph-name="Ebreve" unicode="&#x114;" horiz-adv-x="616" 
d="M155 730h478l-18 -102h-370l-37 -208h371l-19 -103h-370l-37 -214h370l-18 -103h-478zM409 792q-41 0 -69 13t-44 35.5t-20.5 52.5t1.5 65h76q-9 -48 9 -73.5t59 -26.5q42 1 67.5 26.5t34.5 73.5h77q-6 -35 -22.5 -65t-41 -52.5t-57 -35.5t-70.5 -13z" />
    <glyph glyph-name="ebreve" unicode="&#x115;" horiz-adv-x="633" 
d="M313 -11q-77 0 -132.5 24.5t-88.5 67.5t-44 99.5t0 121.5q10 53 36.5 98.5t65.5 79t89 52.5t109 19q66 0 116 -23.5t82.5 -63.5t45 -93.5t2.5 -114.5l-5 -26h-445q4 -69 49.5 -107.5t122.5 -38.5q49 0 85.5 19t66.5 51l81 -62q-45 -51 -103 -77t-133 -26zM342 459
q-74 -1 -120 -38.5t-65 -98.5h339q-3 65 -42.5 101.5t-111.5 35.5zM360 608q-41 0 -69 13t-44 35.5t-20.5 52.5t1.5 65h76q-9 -48 9 -73.5t59 -26.5q42 1 67.5 26.5t34.5 73.5h77q-6 -35 -22.5 -65t-41 -52.5t-57 -35.5t-70.5 -13z" />
    <glyph glyph-name="Edotaccent" unicode="&#x116;" horiz-adv-x="616" 
d="M155 730h478l-18 -102h-370l-37 -208h371l-19 -103h-370l-37 -214h370l-18 -103h-478zM410 796q-36 0 -55 24.5t-12 57.5q5 28 27 45.5t49 17.5q38 0 55.5 -25t11.5 -56q-5 -29 -26 -46.5t-50 -17.5z" />
    <glyph glyph-name="edotaccent" unicode="&#x117;" horiz-adv-x="633" 
d="M313 -11q-77 0 -132.5 24.5t-88.5 67.5t-44 99.5t0 121.5q10 53 36.5 98.5t65.5 79t89 52.5t109 19q66 0 116 -23.5t82.5 -63.5t45 -93.5t2.5 -114.5l-5 -26h-445q4 -69 49.5 -107.5t122.5 -38.5q49 0 85.5 19t66.5 51l81 -62q-45 -51 -103 -77t-133 -26zM342 459
q-74 -1 -120 -38.5t-65 -98.5h339q-3 65 -42.5 101.5t-111.5 35.5zM361 612q-36 0 -55 24.5t-12 57.5q5 28 27 45.5t49 17.5q38 0 55.5 -25t11.5 -56q-5 -29 -26 -46.5t-50 -17.5z" />
    <glyph glyph-name="Eogonek" unicode="&#x118;" horiz-adv-x="616" 
d="M155 730h478l-18 -102h-370l-37 -208h371l-19 -103h-370l-37 -214h370l-18 -103q-44 -25 -71.5 -42t-43.5 -29t-23 -21.5t-8 -19.5q-4 -19 9 -28t33 -9q23 0 39.5 9.5t33.5 21.5l63 -48q-31 -23 -70.5 -40t-77.5 -17q-31 0 -55 8.5t-40 23.5t-22.5 34.5t-2.5 41.5
q5 30 26 57.5t71 57.5h-339z" />
    <glyph glyph-name="eogonek" unicode="&#x119;" horiz-adv-x="633" 
d="M341 -201q-31 0 -55 8.5t-40 23.5t-22.5 34.5t-2.5 41.5t15.5 42.5t37.5 41.5q-67 6 -114.5 33t-75.5 68.5t-37 95.5t1 114q10 53 36.5 98.5t65.5 79t89 52.5t109 19q66 0 116 -23.5t82.5 -63.5t45 -93.5t2.5 -114.5l-5 -26h-445q4 -69 49.5 -107.5t122.5 -38.5
q49 0 85.5 19t66.5 51l81 -62q-47 -51 -106 -78q-39 -23 -64 -38t-39.5 -26.5t-21 -20.5t-7.5 -19q-4 -19 9 -28t33 -9q23 0 39.5 9.5t33.5 21.5l63 -48q-31 -23 -70.5 -40t-77.5 -17zM342 459q-74 -1 -120 -38.5t-65 -98.5h339q-3 65 -42.5 101.5t-111.5 35.5z" />
    <glyph glyph-name="Ecaron" unicode="&#x11a;" horiz-adv-x="616" 
d="M155 730h478l-18 -102h-370l-37 -208h371l-19 -103h-370l-37 -214h370l-18 -103h-478zM279 962h92l48 -94l82 94h92l-149 -166h-75z" />
    <glyph glyph-name="ecaron" unicode="&#x11b;" horiz-adv-x="633" 
d="M313 -11q-77 0 -132.5 24.5t-88.5 67.5t-44 99.5t0 121.5q10 53 36.5 98.5t65.5 79t89 52.5t109 19q66 0 116 -23.5t82.5 -63.5t45 -93.5t2.5 -114.5l-5 -26h-445q4 -69 49.5 -107.5t122.5 -38.5q49 0 85.5 19t66.5 51l81 -62q-45 -51 -103 -77t-133 -26zM342 459
q-74 -1 -120 -38.5t-65 -98.5h339q-3 65 -42.5 101.5t-111.5 35.5zM230 778h92l48 -94l82 94h92l-149 -166h-75z" />
    <glyph glyph-name="Gcircumflex" unicode="&#x11c;" horiz-adv-x="845" 
d="M417 -10q-86 0 -155 33.5t-115 90t-65 131.5t-5 158q12 69 46.5 130.5t87 107.5t121.5 72.5t149 26.5q55 0 104 -14.5t88.5 -39.5t70 -59t50.5 -73l-105 -56q-31 66 -85.5 101.5t-133.5 35.5q-56 0 -104 -19.5t-85.5 -52.5t-62 -77.5t-33.5 -93.5q-10 -57 2.5 -110.5
t44.5 -94.5t81.5 -65.5t113.5 -24.5q49 0 90 14.5t73 40t54.5 61t35.5 77.5h-262l19 104h380l-7 -42q-12 -83 -46 -149.5t-85 -114t-117.5 -73t-144.5 -25.5zM486 967h76l90 -166h-92l-48 94l-82 -94h-92z" />
    <glyph glyph-name="gcircumflex" unicode="&#x11d;" horiz-adv-x="665" 
d="M296 -11q-66 0 -117 25.5t-83.5 69t-45.5 100t-2 119.5q9 53 35 98.5t64 78.5t86 52t102 19q70 0 117 -28.5t71 -75.5l17 93h111l-88 -497q-11 -62 -33.5 -111.5t-58.5 -84.5t-86 -54t-116 -19q-91 0 -155 39.5t-92 109.5l110 37q17 -44 52 -66t94 -22q36 0 65.5 12.5
t51.5 35t36.5 53t20.5 67.5l3 17q-27 -32 -66.5 -50t-92.5 -18zM312 89q34 0 65 12.5t55.5 34.5t41 52t22.5 65q7 39 -0.5 75t-28 63.5t-52.5 44.5t-74 17q-35 0 -67 -12.5t-57 -34.5t-42 -52t-23 -64q-6 -39 2.5 -75t29.5 -64t53.5 -45t74.5 -17zM351 778h76l90 -166h-92
l-48 94l-82 -94h-92z" />
    <glyph glyph-name="Gbreve" unicode="&#x11e;" horiz-adv-x="845" 
d="M417 -10q-86 0 -155 33.5t-115 90t-65 131.5t-5 158q12 69 46.5 130.5t87 107.5t121.5 72.5t149 26.5q55 0 104 -14.5t88.5 -39.5t70 -59t50.5 -73l-105 -56q-31 66 -85.5 101.5t-133.5 35.5q-56 0 -104 -19.5t-85.5 -52.5t-62 -77.5t-33.5 -93.5q-10 -57 2.5 -110.5
t44.5 -94.5t81.5 -65.5t113.5 -24.5q49 0 90 14.5t73 40t54.5 61t35.5 77.5h-262l19 104h380l-7 -42q-12 -83 -46 -149.5t-85 -114t-117.5 -73t-144.5 -25.5zM494 797q-41 0 -69 13t-44 35.5t-20.5 52.5t1.5 65h76q-9 -48 9 -73.5t59 -26.5q42 1 67.5 26.5t34.5 73.5h77
q-6 -35 -22.5 -65t-41 -52.5t-57 -35.5t-70.5 -13z" />
    <glyph glyph-name="gbreve" unicode="&#x11f;" horiz-adv-x="665" 
d="M296 -11q-66 0 -117 25.5t-83.5 69t-45.5 100t-2 119.5q9 53 35 98.5t64 78.5t86 52t102 19q70 0 117 -28.5t71 -75.5l17 93h111l-88 -497q-11 -62 -33.5 -111.5t-58.5 -84.5t-86 -54t-116 -19q-91 0 -155 39.5t-92 109.5l110 37q17 -44 52 -66t94 -22q36 0 65.5 12.5
t51.5 35t36.5 53t20.5 67.5l3 17q-27 -32 -66.5 -50t-92.5 -18zM312 89q34 0 65 12.5t55.5 34.5t41 52t22.5 65q7 39 -0.5 75t-28 63.5t-52.5 44.5t-74 17q-35 0 -67 -12.5t-57 -34.5t-42 -52t-23 -64q-6 -39 2.5 -75t29.5 -64t53.5 -45t74.5 -17zM359 608q-41 0 -69 13
t-44 35.5t-20.5 52.5t1.5 65h76q-9 -48 9 -73.5t59 -26.5q42 1 67.5 26.5t34.5 73.5h77q-6 -35 -22.5 -65t-41 -52.5t-57 -35.5t-70.5 -13z" />
    <glyph glyph-name="Gdotaccent" unicode="&#x120;" horiz-adv-x="845" 
d="M417 -10q-86 0 -155 33.5t-115 90t-65 131.5t-5 158q12 69 46.5 130.5t87 107.5t121.5 72.5t149 26.5q55 0 104 -14.5t88.5 -39.5t70 -59t50.5 -73l-105 -56q-31 66 -85.5 101.5t-133.5 35.5q-56 0 -104 -19.5t-85.5 -52.5t-62 -77.5t-33.5 -93.5q-10 -57 2.5 -110.5
t44.5 -94.5t81.5 -65.5t113.5 -24.5q49 0 90 14.5t73 40t54.5 61t35.5 77.5h-262l19 104h380l-7 -42q-12 -83 -46 -149.5t-85 -114t-117.5 -73t-144.5 -25.5zM495 801q-36 0 -55 24.5t-12 57.5q5 28 27 45.5t49 17.5q38 0 55.5 -25t11.5 -56q-5 -29 -26 -46.5t-50 -17.5z
" />
    <glyph glyph-name="gdotaccent" unicode="&#x121;" horiz-adv-x="665" 
d="M296 -11q-66 0 -117 25.5t-83.5 69t-45.5 100t-2 119.5q9 53 35 98.5t64 78.5t86 52t102 19q70 0 117 -28.5t71 -75.5l17 93h111l-88 -497q-11 -62 -33.5 -111.5t-58.5 -84.5t-86 -54t-116 -19q-91 0 -155 39.5t-92 109.5l110 37q17 -44 52 -66t94 -22q36 0 65.5 12.5
t51.5 35t36.5 53t20.5 67.5l3 17q-27 -32 -66.5 -50t-92.5 -18zM312 89q34 0 65 12.5t55.5 34.5t41 52t22.5 65q7 39 -0.5 75t-28 63.5t-52.5 44.5t-74 17q-35 0 -67 -12.5t-57 -34.5t-42 -52t-23 -64q-6 -39 2.5 -75t29.5 -64t53.5 -45t74.5 -17zM360 612q-36 0 -55 24.5
t-12 57.5q5 28 27 45.5t49 17.5q38 0 55.5 -25t11.5 -56q-5 -29 -26 -46.5t-50 -17.5z" />
    <glyph glyph-name="Gcommaaccent" unicode="&#x122;" horiz-adv-x="845" 
d="M417 -10q-86 0 -155 33.5t-115 90t-65 131.5t-5 158q12 69 46.5 130.5t87 107.5t121.5 72.5t149 26.5q55 0 104 -14.5t88.5 -39.5t70 -59t50.5 -73l-105 -56q-31 66 -85.5 101.5t-133.5 35.5q-56 0 -104 -19.5t-85.5 -52.5t-62 -77.5t-33.5 -93.5q-10 -57 2.5 -110.5
t44.5 -94.5t81.5 -65.5t113.5 -24.5q49 0 90 14.5t73 40t54.5 61t35.5 77.5h-262l19 104h380l-7 -42q-12 -83 -46 -149.5t-85 -114t-117.5 -73t-144.5 -25.5zM325 -248q38 17 65 40t31 49v3q-6 -20 -19.5 -27.5t-30.5 -7.5q-24 0 -38 20t-9 44q5 26 25.5 45t55.5 19
q36 0 57.5 -26.5t14.5 -68.5q-8 -43 -42 -76t-82 -55z" />
    <glyph glyph-name="gcommaaccent" unicode="&#x123;" horiz-adv-x="665" 
d="M296 -11q-66 0 -117 25.5t-83.5 69t-45.5 100t-2 119.5q9 53 35 98.5t64 78.5t86 52t102 19q70 0 117 -28.5t71 -75.5l17 93h111l-88 -497q-11 -62 -33.5 -111.5t-58.5 -84.5t-86 -54t-116 -19q-91 0 -155 39.5t-92 109.5l110 37q17 -44 52 -66t94 -22q36 0 65.5 12.5
t51.5 35t36.5 53t20.5 67.5l3 17q-27 -32 -66.5 -50t-92.5 -18zM312 89q34 0 65 12.5t55.5 34.5t41 52t22.5 65q7 39 -0.5 75t-28 63.5t-52.5 44.5t-74 17q-35 0 -67 -12.5t-57 -34.5t-42 -52t-23 -64q-6 -39 2.5 -75t29.5 -64t53.5 -45t74.5 -17zM437 797q-38 -17 -65 -40
t-31 -49q6 18 20 25t30 7q24 0 38 -20t9 -44q-5 -26 -25.5 -45t-55.5 -19q-36 0 -57.5 26.5t-14.5 68.5q8 43 42 76t82 55z" />
    <glyph glyph-name="Hcircumflex" unicode="&#x124;" horiz-adv-x="712" 
d="M536 313h-344l-55 -313h-110l128 730h110l-55 -312h344l55 312h110l-128 -730h-110zM440 953h76l90 -166h-92l-48 94l-82 -94h-92z" />
    <glyph glyph-name="hcircumflex" unicode="&#x125;" horiz-adv-x="616" 
d="M153 788h108l-58 -322q32 42 77 63.5t97 21.5t91 -18.5t63 -52.5t32 -80.5t-2 -103.5l-53 -296h-111l52 295q7 36 4.5 65.5t-15 51t-36.5 33t-61 11.5q-69 0 -111 -45.5t-55 -125.5l-51 -285h-109zM212 1020h76l90 -166h-92l-48 94l-82 -94h-92z" />
    <glyph glyph-name="Hbar" unicode="&#x126;" horiz-adv-x="732" 
d="M91 606h52l22 124h110l-22 -124h344l22 124h110l-22 -124h55l-13 -64h-53l-95 -542h-110l55 313h-344l-55 -313h-110l95 542h-54zM564 418l22 124h-344l-22 -124h344z" />
    <glyph glyph-name="hbar" unicode="&#x127;" horiz-adv-x="616" 
d="M71 688h64l18 100h108l-18 -100l113 1l-13 -69l-113 -1l-27 -153q32 42 77 63.5t97 21.5t91 -18.5t63 -52.5t32 -80.5t-2 -103.5l-53 -296h-111l52 295q7 36 4.5 65.5t-15 51t-36.5 33t-61 11.5q-69 0 -111 -45.5t-55 -125.5l-51 -285h-109l108 619h-64z" />
    <glyph glyph-name="Itilde" unicode="&#x128;" horiz-adv-x="272" 
d="M162 730h110l-128 -730h-110zM57 796q11 58 43 93t80 35q26 0 43.5 -7.5t31.5 -17.5t27 -18t28 -8q31 0 40 47h71q-11 -59 -42.5 -93.5t-81.5 -34.5q-30 0 -49.5 10.5t-35.5 21.5q-11 8 -22 13.5t-24 5.5q-30 0 -39 -47h-70z" />
    <glyph glyph-name="itilde" unicode="&#x129;" horiz-adv-x="233" 
d="M15 0l95 540h109l-95 -540h-109zM11 606q11 58 43 93t80 35q26 0 43.5 -7.5t31.5 -17.5t27 -18t28 -8q31 0 40 47h71q-11 -59 -42.5 -93.5t-81.5 -34.5q-30 0 -49.5 10.5t-35.5 21.5q-11 8 -22 13.5t-24 5.5q-30 0 -39 -47h-70z" />
    <glyph glyph-name="Imacron" unicode="&#x12a;" horiz-adv-x="272" 
d="M162 730h110l-128 -730h-110zM125 894h264l-15 -77h-264z" />
    <glyph glyph-name="imacron" unicode="&#x12b;" horiz-adv-x="233" 
d="M15 0l95 540h109l-95 -540h-109zM73 704h264l-15 -77h-264z" />
    <glyph glyph-name="Ibreve" unicode="&#x12c;" horiz-adv-x="272" 
d="M162 730h110l-128 -730h-110zM228 792q-41 0 -69 13t-44 35.5t-20.5 52.5t1.5 65h76q-9 -48 9 -73.5t59 -26.5q42 1 67.5 26.5t34.5 73.5h77q-6 -35 -22.5 -65t-41 -52.5t-57 -35.5t-70.5 -13z" />
    <glyph glyph-name="ibreve" unicode="&#x12d;" horiz-adv-x="233" 
d="M15 0l95 540h109l-95 -540h-109zM176 602q-41 0 -69 13t-44 35.5t-20.5 52.5t1.5 65h76q-9 -48 9 -73.5t59 -26.5q42 1 67.5 26.5t34.5 73.5h77q-6 -35 -22.5 -65t-41 -52.5t-57 -35.5t-70.5 -13z" />
    <glyph glyph-name="Iogonek" unicode="&#x12e;" horiz-adv-x="272" 
d="M87 -223q-33 0 -57.5 10.5t-39.5 27t-21 38t-2 43.5q6 32 23.5 58.5t44.5 50.5l127 725h110l-128 -730h-1q-42 -30 -62.5 -55.5t-23.5 -46.5q-4 -19 7.5 -33t34.5 -14t39.5 9.5t33.5 21.5l63 -48q-67 -57 -148 -57z" />
    <glyph glyph-name="iogonek" unicode="&#x12f;" horiz-adv-x="233" 
d="M68 -223q-33 0 -57.5 10.5t-39.5 27t-21 38t-2 43.5q6 32 23.5 58.5t44.5 50.5l94 535h109l-95 -540q-42 -30 -62.5 -55.5t-23.5 -46.5q-4 -19 7.5 -33t34.5 -14t39.5 9.5t33.5 21.5l63 -48q-67 -57 -148 -57zM187 626q-36 0 -55.5 25t-13.5 60q5 29 28 47.5t51 18.5
q19 0 33.5 -7.5t23.5 -19.5t12.5 -27t0.5 -31q-6 -29 -27.5 -47.5t-52.5 -18.5z" />
    <glyph glyph-name="Idotaccent" unicode="&#x130;" horiz-adv-x="272" 
d="M162 730h110l-128 -730h-110zM229 796q-36 0 -55 24.5t-12 57.5q5 28 27 45.5t49 17.5q38 0 55.5 -25t11.5 -56q-5 -29 -26 -46.5t-50 -17.5z" />
    <glyph glyph-name="dotlessi" unicode="&#x131;" horiz-adv-x="233" 
d="M15 0l95 540h109l-95 -540h-109z" />
    <glyph glyph-name="IJ" unicode="&#x132;" horiz-adv-x="619" 
d="M235 103h76q54 0 78.5 23t32.5 75l95 529h110l-96 -533q-9 -56 -24 -93.5t-41 -60.5t-65.5 -33t-97.5 -10h-86zM169 730h110l-128 -730h-110z" />
    <glyph glyph-name="ij" unicode="&#x133;" horiz-adv-x="440" 
d="M21 0l94 540h109l-95 -540h-108zM5 -85h83q36 0 58.5 3.5t36.5 15.5t22 35t16 62q0 2 4 25t10.5 59t14.5 82t17 93q19 111 45 250h109l-91 -510q-11 -63 -25.5 -104.5t-39.5 -66.5t-63.5 -35.5t-96.5 -10.5h-118zM194 626q-37 0 -56.5 25t-12.5 60q5 29 27.5 47.5
t51.5 18.5q19 0 33.5 -7.5t23.5 -19.5t12 -27t0 -31q-6 -29 -27 -47.5t-52 -18.5zM390 626q-37 0 -56.5 25t-13.5 60q5 29 27.5 47.5t51.5 18.5q19 0 33.5 -7.5t23.5 -19.5t12.5 -27t0.5 -31q-6 -29 -27.5 -47.5t-51.5 -18.5z" />
    <glyph glyph-name="Jcircumflex" unicode="&#x134;" horiz-adv-x="517" 
d="M203 -10q-78 0 -131.5 42.5t-69.5 113.5l105 31q11 -39 36.5 -62t68.5 -23q48 0 76 32t36 77l94 529h110l-93 -519q-18 -106 -75 -163.5t-157 -57.5zM476 962h76l90 -166h-92l-48 94l-82 -94h-92z" />
    <glyph glyph-name="jcircumflex" unicode="&#x135;" horiz-adv-x="235" 
d="M-124 -147q37 0 59.5 3.5t36.5 15.5t22 35.5t16 62.5q0 2 4.5 27.5t12 66t16.5 91.5t18 104q22 124 50 281h110l-102 -571q-11 -63 -25.5 -105t-39.5 -66.5t-63.5 -35t-96.5 -10.5h-36zM171 772h76l90 -166h-92l-48 94l-82 -94h-92z" />
    <glyph glyph-name="Kcommaaccent" unicode="&#x136;" horiz-adv-x="678" 
d="M343 379l-167 -157l-39 -222h-110l128 730h110l-64 -364l387 364h142l-301 -282l184 -448h-120zM217 -226q38 17 65 40t31 49v3q-6 -20 -19.5 -27.5t-30.5 -7.5q-24 0 -38 20t-9 44q5 26 25.5 45t55.5 19q36 0 57.5 -26.5t14.5 -68.5q-8 -43 -42 -76t-82 -55z" />
    <glyph glyph-name="kcommaaccent" unicode="&#x137;" horiz-adv-x="569" 
d="M265 251l-117 -105l-25 -146h-108l138 788h108l-90 -511l292 263h139l-254 -229l165 -311h-119zM175 -225q38 17 65 40t31 49v3q-6 -20 -19.5 -27.5t-30.5 -7.5q-24 0 -38 20t-9 44q5 26 25.5 45t55.5 19q36 0 57.5 -26.5t14.5 -68.5q-8 -43 -42 -76t-82 -55z" />
    <glyph glyph-name="kgreenlandic" unicode="&#x138;" horiz-adv-x="569" 
d="M263 249l-115 -103l-25 -146h-108l95 540h108l-46 -262l291 262h139l-254 -229l165 -311h-116z" />
    <glyph glyph-name="Lacute" unicode="&#x139;" horiz-adv-x="585" 
d="M155 730h110l-110 -625h354l-19 -105h-463zM329 962h114l-176 -166h-82z" />
    <glyph glyph-name="lacute" unicode="&#x13a;" horiz-adv-x="231" 
d="M153 788h107l-138 -788h-107zM327 1020h114l-176 -166h-82z" />
    <glyph glyph-name="Lcommaaccent" unicode="&#x13b;" horiz-adv-x="585" 
d="M155 730h110l-110 -625h354l-19 -105h-463zM178 -243q38 17 65 40t31 49v3q-6 -20 -19.5 -27.5t-30.5 -7.5q-24 0 -38 20t-9 44q5 26 25.5 45t55.5 19q36 0 57.5 -26.5t14.5 -68.5q-8 -43 -42 -76t-82 -55z" />
    <glyph glyph-name="lcommaaccent" unicode="&#x13c;" horiz-adv-x="231" 
d="M153 788h107l-138 -788h-107zM-22 -243q38 17 65 40t31 49v3q-6 -20 -19.5 -27.5t-30.5 -7.5q-24 0 -38 20t-9 44q5 26 25.5 45t55.5 19q36 0 57.5 -26.5t14.5 -68.5q-8 -43 -42 -76t-82 -55z" />
    <glyph glyph-name="Lcaron" unicode="&#x13d;" horiz-adv-x="585" 
d="M155 730h110l-110 -625h354l-19 -105h-463zM464 569q38 17 65 40t31 49v2q-6 -20 -19.5 -27t-30.5 -7q-24 0 -38 20t-9 44q5 26 25.5 45t55.5 19q36 0 57.5 -26.5t14.5 -68.5q-8 -43 -42 -76t-82 -55z" />
    <glyph glyph-name="lcaron" unicode="&#x13e;" horiz-adv-x="231" 
d="M153 788h107l-138 -788h-107zM375 627q38 17 65 40t31 49v2q-6 -20 -19.5 -27t-30.5 -7q-24 0 -38 20t-9 44q5 26 25.5 45t55.5 19q36 0 57.5 -26.5t14.5 -68.5q-8 -43 -42 -76t-82 -55z" />
    <glyph glyph-name="Ldot" unicode="&#x13f;" horiz-adv-x="585" 
d="M155 730h110l-110 -625h354l-19 -105h-463zM465 284q-36 0 -55 24.5t-12 57.5q5 28 27 45.5t49 17.5q38 0 55.5 -25t11.5 -56q-5 -29 -26 -46.5t-50 -17.5z" />
    <glyph glyph-name="ldot" unicode="&#x140;" horiz-adv-x="389" 
d="M153 788h107l-138 -788h-107zM303 196q-36 0 -55 24.5t-12 57.5q5 28 27 45.5t49 17.5q38 0 55.5 -25t11.5 -56q-5 -29 -26 -46.5t-50 -17.5z" />
    <glyph glyph-name="Lslash" unicode="&#x141;" horiz-adv-x="604" 
d="M12 371l104 30l58 329h110l-52 -296l136 39l17 -60l-165 -47l-46 -261h354l-19 -105h-463l58 333l-75 -21z" />
    <glyph glyph-name="lslash" unicode="&#x142;" horiz-adv-x="327" 
d="M39 422l92 25l60 341h107l-54 -310l106 30l-14 -77l-106 -30l-70 -401h-107l65 370l-93 -25z" />
    <glyph glyph-name="Nacute" unicode="&#x143;" horiz-adv-x="756" 
d="M155 730h111l291 -561l98 561h108l-128 -730h-106l-295 568l-99 -568h-108zM565 951h114l-176 -166h-82z" />
    <glyph glyph-name="nacute" unicode="&#x144;" horiz-adv-x="616" 
d="M110 540h108l-13 -75q32 43 75.5 64.5t96.5 21.5q52 0 91 -18.5t63 -52.5t32 -80.5t-2 -103.5l-53 -296h-111l52 295q7 36 4.5 65.5t-15 51t-36.5 33t-61 11.5q-69 0 -110.5 -45.5t-55.5 -126.5l-52 -284h-108zM488 776h114l-176 -166h-82z" />
    <glyph glyph-name="Ncommaaccent" unicode="&#x145;" horiz-adv-x="756" 
d="M155 730h111l291 -561l98 561h108l-128 -730h-106l-295 568l-99 -568h-108zM232 -236q38 17 65 40t31 49v3q-6 -20 -19.5 -27.5t-30.5 -7.5q-24 0 -38 20t-9 44q5 26 25.5 45t55.5 19q36 0 57.5 -26.5t14.5 -68.5q-8 -43 -42 -76t-82 -55z" />
    <glyph glyph-name="ncommaaccent" unicode="&#x146;" horiz-adv-x="616" 
d="M110 540h108l-13 -75q32 43 75.5 64.5t96.5 21.5q52 0 91 -18.5t63 -52.5t32 -80.5t-2 -103.5l-53 -296h-111l52 295q7 36 4.5 65.5t-15 51t-36.5 33t-61 11.5q-69 0 -110.5 -45.5t-55.5 -126.5l-52 -284h-108zM169 -228q38 17 65 40t31 49v3q-6 -20 -19.5 -27.5
t-30.5 -7.5q-24 0 -38 20t-9 44q5 26 25.5 45t55.5 19q36 0 57.5 -26.5t14.5 -68.5q-8 -43 -42 -76t-82 -55z" />
    <glyph glyph-name="Ncaron" unicode="&#x147;" horiz-adv-x="756" 
d="M155 730h111l291 -561l98 561h108l-128 -730h-106l-295 568l-99 -568h-108zM356 951h92l48 -94l82 94h92l-149 -166h-75z" />
    <glyph glyph-name="ncaron" unicode="&#x148;" horiz-adv-x="616" 
d="M110 540h108l-13 -75q32 43 75.5 64.5t96.5 21.5q52 0 91 -18.5t63 -52.5t32 -80.5t-2 -103.5l-53 -296h-111l52 295q7 36 4.5 65.5t-15 51t-36.5 33t-61 11.5q-69 0 -110.5 -45.5t-55.5 -126.5l-52 -284h-108zM250 776h92l48 -94l82 94h92l-149 -166h-75z" />
    <glyph glyph-name="Eng" unicode="&#x14a;" horiz-adv-x="736" 
d="M351 -129h24q63 0 89 25t34 81l5 24l-263 554l-97 -555h-110l128 730h115l257 -542l96 542h110l-130 -744q-11 -61 -27 -102.5t-42.5 -67t-66 -37t-96.5 -11.5h-45z" />
    <glyph glyph-name="eng" unicode="&#x14b;" horiz-adv-x="623" 
d="M257 -147q38 0 62 3t38.5 14.5t22.5 35t15 64.5q0 1 3 15.5t7 38t9 52.5t10 59l28 160q14 72 -12.5 116.5t-95.5 44.5q-65 0 -107.5 -40.5t-59.5 -130.5l-51 -285h-108l95 540h108l-13 -73q64 84 173 84q50 0 88.5 -18.5t63 -52.5t33 -80.5t-1.5 -103.5l-58 -327
q-11 -63 -26 -105t-40.5 -67t-64.5 -35t-99 -10h-37z" />
    <glyph glyph-name="Omacron" unicode="&#x14c;" horiz-adv-x="855" 
d="M412 -10q-85 0 -153.5 33t-114 89.5t-64.5 131.5t-4 159q13 72 48.5 134t88.5 107t120.5 70.5t142.5 25.5q86 0 154.5 -34.5t113.5 -92t63.5 -132t4.5 -154.5q-13 -72 -48.5 -134t-88 -107t-120 -70.5t-143.5 -25.5zM422 96q54 0 101 18.5t84 51t62.5 77t34.5 95.5
q10 57 -1.5 110.5t-42.5 95t-80.5 66.5t-113.5 25q-54 0 -101.5 -18.5t-84.5 -51t-61.5 -77t-33.5 -96.5q-11 -60 2 -114t45 -94.5t80.5 -64t109.5 -23.5zM386 899h264l-15 -77h-264z" />
    <glyph glyph-name="omacron" unicode="&#x14d;" horiz-adv-x="653" 
d="M304 -11q-66 0 -118.5 25t-87 67.5t-48.5 100t-2 123.5q9 50 35.5 95t66 78.5t91.5 53t112 19.5q61 0 113 -24.5t87 -67t50 -100t3 -123.5q-9 -52 -34.5 -97t-64.5 -78.5t-90.5 -52.5t-112.5 -19zM308 88q78 0 129.5 44.5t64.5 116.5q7 40 0 76.5t-27 65t-53 45.5t-78 17
q-38 0 -70.5 -12t-57.5 -34t-41 -51.5t-22 -63.5q-8 -44 0.5 -81.5t29.5 -64.5t53 -42.5t72 -15.5zM263 710h264l-15 -77h-264z" />
    <glyph glyph-name="Obreve" unicode="&#x14e;" horiz-adv-x="855" 
d="M412 -10q-85 0 -153.5 33t-114 89.5t-64.5 131.5t-4 159q13 72 48.5 134t88.5 107t120.5 70.5t142.5 25.5q86 0 154.5 -34.5t113.5 -92t63.5 -132t4.5 -154.5q-13 -72 -48.5 -134t-88 -107t-120 -70.5t-143.5 -25.5zM422 96q54 0 101 18.5t84 51t62.5 77t34.5 95.5
q10 57 -1.5 110.5t-42.5 95t-80.5 66.5t-113.5 25q-54 0 -101.5 -18.5t-84.5 -51t-61.5 -77t-33.5 -96.5q-11 -60 2 -114t45 -94.5t80.5 -64t109.5 -23.5zM491 804q-41 0 -69 13t-44 35.5t-20.5 52.5t1.5 65h76q-9 -48 9 -73.5t59 -26.5q42 1 67.5 26.5t34.5 73.5h77
q-6 -35 -22.5 -65t-41 -52.5t-57 -35.5t-70.5 -13z" />
    <glyph glyph-name="obreve" unicode="&#x14f;" horiz-adv-x="653" 
d="M304 -11q-66 0 -118.5 25t-87 67.5t-48.5 100t-2 123.5q9 50 35.5 95t66 78.5t91.5 53t112 19.5q61 0 113 -24.5t87 -67t50 -100t3 -123.5q-9 -52 -34.5 -97t-64.5 -78.5t-90.5 -52.5t-112.5 -19zM308 88q78 0 129.5 44.5t64.5 116.5q7 40 0 76.5t-27 65t-53 45.5t-78 17
q-38 0 -70.5 -12t-57.5 -34t-41 -51.5t-22 -63.5q-8 -44 0.5 -81.5t29.5 -64.5t53 -42.5t72 -15.5zM366 608q-41 0 -69 13t-44 35.5t-20.5 52.5t1.5 65h76q-9 -48 9 -73.5t59 -26.5q42 1 67.5 26.5t34.5 73.5h77q-6 -35 -22.5 -65t-41 -52.5t-57 -35.5t-70.5 -13z" />
    <glyph glyph-name="Ohungarumlaut" unicode="&#x150;" horiz-adv-x="855" 
d="M412 -10q-85 0 -153.5 33t-114 89.5t-64.5 131.5t-4 159q13 72 48.5 134t88.5 107t120.5 70.5t142.5 25.5q86 0 154.5 -34.5t113.5 -92t63.5 -132t4.5 -154.5q-13 -72 -48.5 -134t-88 -107t-120 -70.5t-143.5 -25.5zM422 96q54 0 101 18.5t84 51t62.5 77t34.5 95.5
q10 57 -1.5 110.5t-42.5 95t-80.5 66.5t-113.5 25q-54 0 -101.5 -18.5t-84.5 -51t-61.5 -77t-33.5 -96.5q-11 -60 2 -114t45 -94.5t80.5 -64t109.5 -23.5zM528 967h108l-177 -166h-76zM684 967h108l-176 -166h-76z" />
    <glyph glyph-name="ohungarumlaut" unicode="&#x151;" horiz-adv-x="653" 
d="M304 -11q-66 0 -118.5 25t-87 67.5t-48.5 100t-2 123.5q9 50 35.5 95t66 78.5t91.5 53t112 19.5q61 0 113 -24.5t87 -67t50 -100t3 -123.5q-9 -52 -34.5 -97t-64.5 -78.5t-90.5 -52.5t-112.5 -19zM308 88q78 0 129.5 44.5t64.5 116.5q7 40 0 76.5t-27 65t-53 45.5t-78 17
q-38 0 -70.5 -12t-57.5 -34t-41 -51.5t-22 -63.5q-8 -44 0.5 -81.5t29.5 -64.5t53 -42.5t72 -15.5zM405 778h108l-177 -166h-76zM561 778h108l-176 -166h-76z" />
    <glyph glyph-name="OE" unicode="&#x152;" horiz-adv-x="1238" 
d="M666 100q-48 -51 -111.5 -80.5t-139.5 -29.5q-85 0 -154 33.5t-114.5 90t-65 131.5t-5.5 158q13 72 49 134t89.5 107t120 70.5t140.5 25.5q99 0 169 -41.5t108 -112.5l25 144h478l-18 -102h-367l-37 -208h368l-19 -103h-367l-38 -214h368l-18 -103h-478zM426 97
q52 0 99 19.5t84 53t62.5 79t34.5 96.5q10 57 -2 109.5t-43.5 93t-80 65t-111.5 24.5q-54 0 -101.5 -19t-85 -52t-63 -77.5t-34.5 -96.5q-10 -57 2.5 -110.5t44.5 -94.5t81.5 -65.5t112.5 -24.5z" />
    <glyph glyph-name="oe" unicode="&#x153;" horiz-adv-x="1090" 
d="M304 -11q-66 0 -118.5 25t-87 67.5t-48.5 100t-2 123.5q9 50 35.5 95t66.5 78.5t91.5 53t111.5 19.5q69 0 124.5 -30t90.5 -82q41 51 101.5 81.5t135.5 30.5q66 0 116 -23.5t82.5 -63.5t45 -93.5t2.5 -114.5l-5 -26h-445q4 -69 49.5 -107.5t122.5 -38.5q49 0 85.5 19
t66.5 51l81 -62q-45 -51 -103 -77t-133 -26q-84 0 -141 28.5t-89 76.5q-41 -48 -101 -76.5t-135 -28.5zM308 88q38 0 71 12t58 33t42 50.5t23 65.5q7 40 0 76.5t-27 65t-53 45.5t-78 17q-38 0 -70.5 -12t-57.5 -34t-41 -51.5t-22 -63.5q-8 -44 0.5 -81.5t29.5 -64.5
t53 -42.5t72 -15.5zM799 459q-74 -1 -120 -38.5t-65 -98.5h339q-2 64 -42 101t-112 36z" />
    <glyph glyph-name="Racute" unicode="&#x154;" horiz-adv-x="687" 
d="M155 730h278q62 0 111 -20.5t80.5 -56.5t44.5 -85.5t3 -106.5q-13 -74 -65 -129t-129 -75l134 -257h-122l-121 244h-190l-43 -244h-109zM247 631l-51 -288h190q78 0 122 35.5t55 95.5q12 72 -24 114.5t-121 42.5h-171zM517 962h114l-176 -166h-82z" />
    <glyph glyph-name="racute" unicode="&#x155;" horiz-adv-x="418" 
d="M110 540h104l-17 -95q25 47 63.5 71t94.5 24h65l-20 -109h-56q-42 0 -72.5 -11t-51 -32.5t-33 -52.5t-19.5 -71l-47 -264h-106zM393 763h114l-176 -166h-82z" />
    <glyph glyph-name="Rcommaaccent" unicode="&#x156;" horiz-adv-x="687" 
d="M155 730h278q62 0 111 -20.5t80.5 -56.5t44.5 -85.5t3 -106.5q-13 -74 -65 -129t-129 -75l134 -257h-122l-121 244h-190l-43 -244h-109zM247 631l-51 -288h190q78 0 122 35.5t55 95.5q12 72 -24 114.5t-121 42.5h-171zM209 -226q38 17 65 40t31 49v3q-6 -20 -19.5 -27.5
t-30.5 -7.5q-24 0 -38 20t-9 44q5 26 25.5 45t55.5 19q36 0 57.5 -26.5t14.5 -68.5q-8 -43 -42 -76t-82 -55z" />
    <glyph glyph-name="rcommaaccent" unicode="&#x157;" horiz-adv-x="418" 
d="M110 540h104l-17 -95q25 47 63.5 71t94.5 24h65l-20 -109h-56q-42 0 -72.5 -11t-51 -32.5t-33 -52.5t-19.5 -71l-47 -264h-106zM-22 -243q38 17 65 40t31 49v3q-6 -20 -19.5 -27.5t-30.5 -7.5q-24 0 -38 20t-9 44q5 26 25.5 45t55.5 19q36 0 57.5 -26.5t14.5 -68.5
q-8 -43 -42 -76t-82 -55z" />
    <glyph glyph-name="Rcaron" unicode="&#x158;" horiz-adv-x="687" 
d="M155 730h278q62 0 111 -20.5t80.5 -56.5t44.5 -85.5t3 -106.5q-13 -74 -65 -129t-129 -75l134 -257h-122l-121 244h-190l-43 -244h-109zM247 631l-51 -288h190q78 0 122 35.5t55 95.5q12 72 -24 114.5t-121 42.5h-171zM279 962h92l48 -94l82 94h92l-149 -166h-75z" />
    <glyph glyph-name="rcaron" unicode="&#x159;" horiz-adv-x="418" 
d="M110 540h104l-17 -95q25 47 63.5 71t94.5 24h65l-20 -109h-56q-42 0 -72.5 -11t-51 -32.5t-33 -52.5t-19.5 -71l-47 -264h-106zM155 763h92l48 -94l82 94h92l-149 -166h-75z" />
    <glyph glyph-name="Sacute" unicode="&#x15a;" horiz-adv-x="626" 
d="M299 -11q-60 0 -107.5 12t-85.5 33t-66 49t-49 60l103 75q32 -56 84 -90.5t124 -34.5q66 0 104 28t46 73q6 35 -6.5 58t-37 39t-57.5 27l-69 23q-40 13 -76.5 29.5t-63 43t-38.5 64t-2 92.5q6 36 27 67.5t54 55t77 36.5t96 13q49 0 89.5 -9.5t74.5 -26.5t61 -40.5
t48 -51.5l-100 -69q-27 45 -73 71t-113 26q-58 0 -91.5 -25t-40.5 -62q-5 -30 4 -49.5t30 -34t51 -25.5t67 -23q41 -14 81.5 -31.5t70.5 -45t45 -67.5t5 -97q-8 -42 -29.5 -77.5t-56 -61t-80 -40t-100.5 -14.5zM488 967h114l-176 -166h-82z" />
    <glyph glyph-name="sacute" unicode="&#x15b;" horiz-adv-x="509" 
d="M234 -11q-45 0 -83 9.5t-69.5 26t-55 38t-38.5 45.5l94 61q23 -38 65.5 -63t95.5 -25q45 0 71 19.5t31 49.5q3 16 -5.5 28.5t-25.5 22.5t-40.5 18.5t-49.5 16.5q-34 10 -66 23.5t-55 34t-34 50t-2 72.5q13 64 70 100t142 36q81 0 135.5 -29t92.5 -77l-91 -57
q-25 35 -58.5 54.5t-87.5 19.5q-42 0 -67 -15.5t-30 -43.5q-3 -17 5 -29t23.5 -21.5t38.5 -17.5t51 -17q33 -10 64.5 -24t55.5 -35t36 -50.5t5 -70.5q-6 -33 -23 -60.5t-45 -47.5t-65.5 -31t-84.5 -11zM418 778h114l-176 -166h-82z" />
    <glyph glyph-name="Scircumflex" unicode="&#x15c;" horiz-adv-x="626" 
d="M299 -11q-60 0 -107.5 12t-85.5 33t-66 49t-49 60l103 75q32 -56 84 -90.5t124 -34.5q66 0 104 28t46 73q6 35 -6.5 58t-37 39t-57.5 27l-69 23q-40 13 -76.5 29.5t-63 43t-38.5 64t-2 92.5q6 36 27 67.5t54 55t77 36.5t96 13q49 0 89.5 -9.5t74.5 -26.5t61 -40.5
t48 -51.5l-100 -69q-27 45 -73 71t-113 26q-58 0 -91.5 -25t-40.5 -62q-5 -30 4 -49.5t30 -34t51 -25.5t67 -23q41 -14 81.5 -31.5t70.5 -45t45 -67.5t5 -97q-8 -42 -29.5 -77.5t-56 -61t-80 -40t-100.5 -14.5zM372 967h76l90 -166h-92l-48 94l-82 -94h-92z" />
    <glyph glyph-name="scircumflex" unicode="&#x15d;" horiz-adv-x="509" 
d="M234 -11q-45 0 -83 9.5t-69.5 26t-55 38t-38.5 45.5l94 61q23 -38 65.5 -63t95.5 -25q45 0 71 19.5t31 49.5q3 16 -5.5 28.5t-25.5 22.5t-40.5 18.5t-49.5 16.5q-34 10 -66 23.5t-55 34t-34 50t-2 72.5q13 64 70 100t142 36q81 0 135.5 -29t92.5 -77l-91 -57
q-25 35 -58.5 54.5t-87.5 19.5q-42 0 -67 -15.5t-30 -43.5q-3 -17 5 -29t23.5 -21.5t38.5 -17.5t51 -17q33 -10 64.5 -24t55.5 -35t36 -50.5t5 -70.5q-6 -33 -23 -60.5t-45 -47.5t-65.5 -31t-84.5 -11zM302 778h76l90 -166h-92l-48 94l-82 -94h-92z" />
    <glyph glyph-name="Scedilla" unicode="&#x15e;" horiz-adv-x="626" 
d="M242 -240q-53 0 -90.5 16t-61.5 42l75 43q17 -16 35.5 -25.5t45.5 -9.5q56 0 62 33q8 33 -58 33h-47l18 103q-85 14 -140.5 54.5t-89.5 93.5l103 75q32 -56 84 -90.5t124 -34.5q66 0 104 28t46 73q6 35 -6.5 58t-37 39t-57.5 27l-69 23q-40 13 -76.5 29.5t-63 43
t-38.5 64t-2 92.5q6 36 27 67.5t54 55t77 36.5t96 13q49 0 89.5 -9.5t74.5 -26.5t61 -40.5t48 -51.5l-100 -69q-27 45 -73 71t-113 26q-58 0 -91.5 -25t-40.5 -62q-5 -30 4 -49.5t30 -34t51 -25.5t67 -23q41 -14 81.5 -31.5t70.5 -45t45 -67.5t5 -97q-8 -42 -29.5 -77.5
t-56 -61t-80 -40t-100.5 -14.5h-4l-7 -41q58 -5 81.5 -33t17.5 -66q-8 -44 -48 -66.5t-97 -22.5z" />
    <glyph glyph-name="scedilla" unicode="&#x15f;" horiz-adv-x="509" 
d="M186 -240q-53 0 -90.5 16t-61.5 42l75 43q17 -16 35.5 -25.5t45.5 -9.5q56 0 62 33q8 33 -58 33h-47l18 103q-63 12 -108 43.5t-69 69.5l94 61q23 -38 65.5 -63t95.5 -25q45 0 71 19.5t31 49.5q3 16 -5.5 28.5t-25.5 22.5t-40.5 18.5t-49.5 16.5q-34 10 -66 23.5t-55 34
t-34 50t-2 72.5q13 64 70 100t142 36q81 0 135.5 -29t92.5 -77l-91 -57q-25 35 -58.5 54.5t-87.5 19.5q-42 0 -67 -15.5t-30 -43.5q-3 -17 5 -29t23.5 -21.5t38.5 -17.5t51 -17q33 -10 64.5 -24t55.5 -35t36 -50.5t5 -70.5q-11 -65 -66 -106.5t-147 -43.5l-7 -41
q58 -5 81.5 -33t17.5 -66q-8 -44 -48 -66.5t-97 -22.5z" />
    <glyph glyph-name="Scaron" unicode="&#x160;" horiz-adv-x="626" 
d="M299 -11q-60 0 -107.5 12t-85.5 33t-66 49t-49 60l103 75q32 -56 84 -90.5t124 -34.5q66 0 104 28t46 73q6 35 -6.5 58t-37 39t-57.5 27l-69 23q-40 13 -76.5 29.5t-63 43t-38.5 64t-2 92.5q6 36 27 67.5t54 55t77 36.5t96 13q49 0 89.5 -9.5t74.5 -26.5t61 -40.5
t48 -51.5l-100 -69q-27 45 -73 71t-113 26q-58 0 -91.5 -25t-40.5 -62q-5 -30 4 -49.5t30 -34t51 -25.5t67 -23q41 -14 81.5 -31.5t70.5 -45t45 -67.5t5 -97q-8 -42 -29.5 -77.5t-56 -61t-80 -40t-100.5 -14.5zM250 967h92l48 -94l82 94h92l-149 -166h-75z" />
    <glyph glyph-name="scaron" unicode="&#x161;" horiz-adv-x="509" 
d="M234 -11q-45 0 -83 9.5t-69.5 26t-55 38t-38.5 45.5l94 61q23 -38 65.5 -63t95.5 -25q45 0 71 19.5t31 49.5q3 16 -5.5 28.5t-25.5 22.5t-40.5 18.5t-49.5 16.5q-34 10 -66 23.5t-55 34t-34 50t-2 72.5q13 64 70 100t142 36q81 0 135.5 -29t92.5 -77l-91 -57
q-25 35 -58.5 54.5t-87.5 19.5q-42 0 -67 -15.5t-30 -43.5q-3 -17 5 -29t23.5 -21.5t38.5 -17.5t51 -17q33 -10 64.5 -24t55.5 -35t36 -50.5t5 -70.5q-6 -33 -23 -60.5t-45 -47.5t-65.5 -31t-84.5 -11zM180 778h92l48 -94l82 94h92l-149 -166h-75z" />
    <glyph glyph-name="Tcommaaccent" unicode="&#x162;" 
d="M218 0l109 627h-216l18 103h542l-18 -103h-216l-109 -627h-110zM183 -243q38 17 65 40t31 49v3q-6 -20 -19.5 -27.5t-30.5 -7.5q-24 0 -38 20t-9 44q5 26 25.5 45t55.5 19q36 0 57.5 -26.5t14.5 -68.5q-8 -43 -42 -76t-82 -55z" />
    <glyph glyph-name="tcommaaccent" unicode="&#x163;" horiz-adv-x="391" 
d="M70 540h92l23 128l116 62l-34 -190h136l-17 -97h-136l-39 -226q-8 -38 -6.5 -61t14 -36t37 -17t63.5 -4h6l-17 -99h-19q-61 0 -101.5 10.5t-62 36t-26 67.5t6.5 104l39 225h-92zM114 -240q38 17 65 40t31 49v3q-6 -20 -19.5 -27.5t-30.5 -7.5q-24 0 -38 20t-9 44
q5 26 25.5 45t55.5 19q36 0 57.5 -26.5t14.5 -68.5q-8 -43 -42 -76t-82 -55z" />
    <glyph glyph-name="Tcaron" unicode="&#x164;" 
d="M218 0l109 627h-216l18 103h542l-18 -103h-216l-109 -627h-110zM282 962h92l48 -94l82 94h92l-149 -166h-75z" />
    <glyph glyph-name="tcaron" unicode="&#x165;" horiz-adv-x="391" 
d="M70 540h92l23 128l116 62l-34 -190h136l-17 -97h-136l-39 -226q-8 -38 -6.5 -61t14 -36t37 -17t63.5 -4h6l-17 -99h-19q-61 0 -101.5 10.5t-62 36t-26 67.5t6.5 104l39 225h-92zM373 627q38 17 65 40t31 49v2q-6 -20 -19.5 -27t-30.5 -7q-24 0 -38 20t-9 44q5 26 25.5 45
t55.5 19q36 0 57.5 -26.5t14.5 -68.5q-8 -43 -42 -76t-82 -55z" />
    <glyph glyph-name="Tbar" unicode="&#x166;" 
d="M218 0l59 338h-121l17 77h117l37 212h-216l18 103h542l-18 -103h-216l-37 -212h125l-16 -77h-122l-59 -338h-110z" />
    <glyph glyph-name="tbar" unicode="&#x167;" horiz-adv-x="379" 
d="M62 540h92l23 128l116 62l-34 -190h136l-17 -97h-136l-20 -115h96l-13 -68h-95l-7 -43q-8 -38 -6.5 -61t14 -36t37 -17t63.5 -4h6l-17 -99h-19q-61 0 -101.5 10.5t-62 36t-26 67.5t6.5 104l7 42h-80l15 68h77l20 115h-92z" />
    <glyph glyph-name="Utilde" unicode="&#x168;" horiz-adv-x="705" 
d="M319 -10q-62 0 -112.5 20t-84.5 57t-48 89t-3 117l80 457h111l-82 -467q-6 -35 1 -66.5t26 -55t49 -37t69 -13.5q43 0 77 13.5t59 36t40.5 52t20.5 61.5l83 476h111l-83 -474q-11 -62 -37.5 -111.5t-67 -84t-93.5 -52.5t-116 -18zM274 785q11 58 43 93t80 35
q26 0 43.5 -7.5t31.5 -17.5t27 -18t28 -8q31 0 40 47h71q-11 -59 -42.5 -93.5t-81.5 -34.5q-30 0 -49.5 10.5t-35.5 21.5q-11 8 -22 13.5t-24 5.5q-30 0 -39 -47h-70z" />
    <glyph glyph-name="utilde" unicode="&#x169;" horiz-adv-x="592" 
d="M224 -11q-100 0 -148 65t-28 179l54 307h111l-54 -300q-12 -72 14.5 -114t89.5 -42q59 0 99.5 41.5t54.5 122.5l53 292h108l-95 -540h-108l11 69q-30 -38 -70.5 -59t-91.5 -21zM182 593q11 58 43 93t80 35q26 0 43.5 -7.5t31.5 -17.5t27 -18t28 -8q31 0 40 47h71
q-11 -59 -42.5 -93.5t-81.5 -34.5q-30 0 -49.5 10.5t-35.5 21.5q-11 8 -22 13.5t-24 5.5q-30 0 -39 -47h-70z" />
    <glyph glyph-name="Umacron" unicode="&#x16a;" horiz-adv-x="705" 
d="M319 -10q-62 0 -112.5 20t-84.5 57t-48 89t-3 117l80 457h111l-82 -467q-6 -35 1 -66.5t26 -55t49 -37t69 -13.5q43 0 77 13.5t59 36t40.5 52t20.5 61.5l83 476h111l-83 -474q-11 -62 -37.5 -111.5t-67 -84t-93.5 -52.5t-116 -18zM336 883h264l-15 -77h-264z" />
    <glyph glyph-name="umacron" unicode="&#x16b;" horiz-adv-x="592" 
d="M224 -11q-100 0 -148 65t-28 179l54 307h111l-54 -300q-12 -72 14.5 -114t89.5 -42q59 0 99.5 41.5t54.5 122.5l53 292h108l-95 -540h-108l11 69q-30 -38 -70.5 -59t-91.5 -21zM234 691h264l-15 -77h-264z" />
    <glyph glyph-name="Ubreve" unicode="&#x16c;" horiz-adv-x="705" 
d="M319 -10q-62 0 -112.5 20t-84.5 57t-48 89t-3 117l80 457h111l-82 -467q-6 -35 1 -66.5t26 -55t49 -37t69 -13.5q43 0 77 13.5t59 36t40.5 52t20.5 61.5l83 476h111l-83 -474q-11 -62 -37.5 -111.5t-67 -84t-93.5 -52.5t-116 -18zM439 781q-41 0 -69 13t-44 35.5
t-20.5 52.5t1.5 65h76q-9 -48 9 -73.5t59 -26.5q42 1 67.5 26.5t34.5 73.5h77q-6 -35 -22.5 -65t-41 -52.5t-57 -35.5t-70.5 -13z" />
    <glyph glyph-name="ubreve" unicode="&#x16d;" horiz-adv-x="592" 
d="M224 -11q-100 0 -148 65t-28 179l54 307h111l-54 -300q-12 -72 14.5 -114t89.5 -42q59 0 99.5 41.5t54.5 122.5l53 292h108l-95 -540h-108l11 69q-30 -38 -70.5 -59t-91.5 -21zM349 589q-41 0 -69 13t-44 35.5t-20.5 52.5t1.5 65h76q-9 -48 9 -73.5t59 -26.5
q42 1 67.5 26.5t34.5 73.5h77q-6 -35 -22.5 -65t-41 -52.5t-57 -35.5t-70.5 -13z" />
    <glyph glyph-name="Uring" unicode="&#x16e;" horiz-adv-x="705" 
d="M319 -10q-62 0 -112.5 20t-84.5 57t-48 89t-3 117l80 457h111l-82 -467q-6 -35 1 -66.5t26 -55t49 -37t69 -13.5q43 0 77 13.5t59 36t40.5 52t20.5 61.5l83 476h111l-83 -474q-11 -62 -37.5 -111.5t-67 -84t-93.5 -52.5t-116 -18zM440 766q-25 0 -45 10.5t-32.5 28
t-17 40.5t2.5 48q11 38 42.5 63t71.5 25q25 0 45 -10.5t33 -27.5t17.5 -40t-2.5 -47q-11 -40 -41 -65t-74 -25zM445 825q19 0 34 12t20 29q5 23 -7.5 40t-35.5 17q-17 0 -31.5 -12t-19.5 -29q-6 -23 5.5 -40t34.5 -17z" />
    <glyph glyph-name="uring" unicode="&#x16f;" horiz-adv-x="592" 
d="M224 -11q-100 0 -148 65t-28 179l54 307h111l-54 -300q-12 -72 14.5 -114t89.5 -42q59 0 99.5 41.5t54.5 122.5l53 292h108l-95 -540h-108l11 69q-30 -38 -70.5 -59t-91.5 -21zM332 594q-25 0 -45 10.5t-32.5 28t-17 40.5t2.5 48q11 38 42.5 63t71.5 25q25 0 45 -10.5
t33 -27.5t17.5 -40t-2.5 -47q-11 -40 -41 -65t-74 -25zM337 653q19 0 34 12t20 29q5 23 -7.5 40t-35.5 17q-17 0 -31.5 -12t-19.5 -29q-6 -23 5.5 -40t34.5 -17z" />
    <glyph glyph-name="Uhungarumlaut" unicode="&#x170;" horiz-adv-x="705" 
d="M319 -10q-62 0 -112.5 20t-84.5 57t-48 89t-3 117l80 457h111l-82 -467q-6 -35 1 -66.5t26 -55t49 -37t69 -13.5q43 0 77 13.5t59 36t40.5 52t20.5 61.5l83 476h111l-83 -474q-11 -62 -37.5 -111.5t-67 -84t-93.5 -52.5t-116 -18zM478 951h108l-177 -166h-76zM634 951
h108l-176 -166h-76z" />
    <glyph glyph-name="uhungarumlaut" unicode="&#x171;" horiz-adv-x="592" 
d="M224 -11q-100 0 -148 65t-28 179l54 307h111l-54 -300q-12 -72 14.5 -114t89.5 -42q59 0 99.5 41.5t54.5 122.5l53 292h108l-95 -540h-108l11 69q-30 -38 -70.5 -59t-91.5 -21zM366 759h108l-177 -166h-76zM522 759h108l-176 -166h-76z" />
    <glyph glyph-name="Uogonek" unicode="&#x172;" horiz-adv-x="705" 
d="M340 -205q-31 0 -55 8.5t-40 23.5t-22.5 34.5t-2.5 41.5q4 23 17.5 45t42.5 45q-54 6 -97 28.5t-71.5 58.5t-40 85t-0.5 108l80 457h111l-82 -467q-6 -35 1 -66.5t26 -55t49 -37t69 -13.5q43 0 77 13.5t59 36t40.5 52t20.5 61.5l83 476h111l-83 -474q-15 -91 -63.5 -153
t-123.5 -91q-41 -23 -66.5 -38.5t-40.5 -27t-21.5 -21t-7.5 -19.5q-4 -19 9 -28t33 -9q23 0 39.5 9.5t33.5 21.5l63 -48q-31 -23 -70.5 -40t-77.5 -17z" />
    <glyph glyph-name="uogonek" unicode="&#x173;" horiz-adv-x="592" 
d="M427 -223q-33 0 -57.5 10.5t-39.5 27t-21 38t-2 43.5q5 32 22.5 59t46.5 51l10 63q-30 -38 -70.5 -59t-91.5 -21q-100 0 -148 65t-28 179l54 307h111l-54 -300q-12 -72 14.5 -114t89.5 -42q59 0 99.5 41.5t54.5 122.5l53 292h108l-95 -540q-42 -30 -62.5 -55.5
t-23.5 -46.5q-4 -19 7.5 -33t34.5 -14t39.5 9.5t33.5 21.5l63 -48q-67 -57 -148 -57z" />
    <glyph glyph-name="Wcircumflex" unicode="&#x174;" horiz-adv-x="1072" 
d="M670 0l-95 569l-278 -569h-109l-79 730h112l54 -557l273 557h105l95 -562l262 562h115l-348 -730h-107zM604 962h76l90 -166h-92l-48 94l-82 -94h-92z" />
    <glyph glyph-name="wcircumflex" unicode="&#x175;" horiz-adv-x="923" 
d="M73 540h108l40 -396l226 396h103l63 -399l216 399h118l-300 -540h-110l-64 395l-231 -395h-109zM501 772h76l90 -166h-92l-48 94l-82 -94h-92z" />
    <glyph glyph-name="Ycircumflex" unicode="&#x176;" horiz-adv-x="673" 
d="M284 310l-185 420h114l143 -325l252 325h128l-344 -433l-52 -297h-110zM405 952h76l90 -166h-92l-48 94l-82 -94h-92z" />
    <glyph glyph-name="ycircumflex" unicode="&#x177;" horiz-adv-x="589" 
d="M58 -203q-56 0 -92 22.5t-56 54.5l91 68q8 -19 24 -32t45 -13q15 0 29 4t28 15.5t30 31.5t34 52l19 33l-143 507h111l103 -382l216 382h120l-333 -570q-30 -51 -56 -84t-52 -53t-54.5 -28t-63.5 -8zM330 764h76l90 -166h-92l-48 94l-82 -94h-92z" />
    <glyph glyph-name="Ydieresis" unicode="&#x178;" horiz-adv-x="673" 
d="M284 310l-185 420h114l143 -325l252 325h128l-344 -433l-52 -297h-110zM326 787q-32 0 -49 21.5t-11 52.5q4 25 24 41t45 16q34 0 49.5 -23t10.5 -51q-5 -26 -24 -41.5t-45 -15.5zM510 787q-32 0 -49 21.5t-11 52.5q4 25 24 41t45 16q34 0 49.5 -23t10.5 -51
q-5 -26 -24 -41.5t-45 -15.5z" />
    <glyph glyph-name="Zacute" unicode="&#x179;" horiz-adv-x="675" 
d="M18 0l17 100l504 530h-398l17 100h534l-17 -99l-502 -527h408l-18 -104h-545zM525 962h114l-176 -166h-82z" />
    <glyph glyph-name="zacute" unicode="&#x17a;" horiz-adv-x="566" 
d="M10 96l394 348h-326l19 96h471l-18 -96l-395 -348h340l-17 -96h-485zM428 773h114l-176 -166h-82z" />
    <glyph glyph-name="Zdotaccent" unicode="&#x17b;" horiz-adv-x="675" 
d="M18 0l17 100l504 530h-398l17 100h534l-17 -99l-502 -527h408l-18 -104h-545zM427 796q-36 0 -55 24.5t-12 57.5q5 28 27 45.5t49 17.5q38 0 55.5 -25t11.5 -56q-5 -29 -26 -46.5t-50 -17.5z" />
    <glyph glyph-name="zdotaccent" unicode="&#x17c;" horiz-adv-x="566" 
d="M10 96l394 348h-326l19 96h471l-18 -96l-395 -348h340l-17 -96h-485zM348 607q-36 0 -55 24.5t-12 57.5q5 28 27 45.5t49 17.5q38 0 55.5 -25t11.5 -56q-5 -29 -26 -46.5t-50 -17.5z" />
    <glyph glyph-name="Zcaron" unicode="&#x17d;" horiz-adv-x="675" 
d="M18 0l17 100l504 530h-398l17 100h534l-17 -99l-502 -527h408l-18 -104h-545zM296 962h92l48 -94l82 94h92l-149 -166h-75z" />
    <glyph glyph-name="zcaron" unicode="&#x17e;" horiz-adv-x="566" 
d="M10 96l394 348h-326l19 96h471l-18 -96l-395 -348h340l-17 -96h-485zM217 773h92l48 -94l82 94h92l-149 -166h-75z" />
    <glyph glyph-name="florin" unicode="&#x192;" horiz-adv-x="550" 
d="M117 418h146l42 107q24 63 51.5 102.5t59 62.5t66.5 31.5t74 8.5h9l-17 -99q-21 0 -39.5 -2.5t-35 -13t-31.5 -31t-28 -55.5l-44 -111h131l-18 -96h-150l-46 -117q-23 -61 -48 -100.5t-55 -63t-66.5 -32.5t-83.5 -9h-9l17 100q25 0 44.5 2.5t35.5 12.5t29 30.5t27 56.5
l47 120h-126z" />
    <glyph glyph-name="Aringacute" unicode="&#x1fa;" horiz-adv-x="714" 
d="M372 701q-17 18 -23 43t2 54q11 38 42.5 63t71.5 25q25 0 45 -10.5t33 -27.5t17.5 -40t-2.5 -47q-13 -49 -52 -73l141 -688h-109l-31 156h-331l-87 -156h-116zM235 260h252l-66 333zM576 1106h114l-176 -166h-82zM448 730q19 0 34 12t20 29q5 23 -7.5 40t-35.5 17
q-17 0 -31.5 -12t-19.5 -29q-6 -23 5.5 -40t34.5 -17z" />
    <glyph glyph-name="aringacute" unicode="&#x1fb;" horiz-adv-x="664" 
d="M286 -11q-62 0 -111 25.5t-81 68.5t-44.5 100t-1.5 120q9 54 35 99.5t64 78.5t86 51.5t102 18.5q71 0 118.5 -29.5t70.5 -78.5l17 97h109l-95 -540h-107l12 72q-31 -38 -74.5 -60.5t-99.5 -22.5zM312 89q33 0 64 12.5t55.5 34.5t42 52t23.5 65q7 40 -0.5 76t-28 63.5
t-53 44t-74.5 16.5q-35 0 -67 -12t-57 -34t-42 -51.5t-23 -65.5q-6 -39 2.5 -75.5t29.5 -64t53.5 -44.5t74.5 -17zM495 1043h114l-176 -166h-82zM355 613q-25 0 -45 10.5t-32.5 28t-17 40.5t2.5 48q11 38 42.5 63t71.5 25q25 0 45 -10.5t33 -27.5t17.5 -40t-2.5 -47
q-11 -40 -41 -65t-74 -25zM360 672q19 0 34 12t20 29q5 23 -7.5 40t-35.5 17q-17 0 -31.5 -12t-19.5 -29q-6 -23 5.5 -40t34.5 -17z" />
    <glyph glyph-name="AEacute" unicode="&#x1fc;" horiz-adv-x="993" 
d="M461 730h542l-18 -103h-405l-1 -209h369l-18 -103h-351v-211h314l-18 -104h-404v154h-271l-103 -154h-124zM472 254l1 308l-206 -308h205zM646 962h114l-176 -166h-82z" />
    <glyph glyph-name="aeacute" unicode="&#x1fd;" horiz-adv-x="1033" 
d="M209 -11q-51 0 -88 14t-60.5 38t-32 55.5t-2.5 67.5q15 85 84 121.5t182 36.5h158l5 28q8 48 -27 79t-103 31q-57 0 -91.5 -21.5t-57.5 -58.5l-95 43q21 28 46 52t56 40.5t69 26t85 9.5q77 0 123 -25.5t66 -67.5q41 43 97 68t124 25q66 0 116 -23.5t82.5 -63.5t45 -93.5
t2.5 -114.5l-5 -26h-445q4 -69 49.5 -107.5t122.5 -38.5q49 0 85.5 19t66.5 51l81 -62q-45 -51 -103 -77t-133 -26q-91 0 -150 32.5t-90 87.5q-45 -58 -110 -89t-153 -31zM741 459q-74 -1 -120 -38.5t-65 -98.5h339q-2 64 -42 101t-112 36zM233 83q69 0 122 29.5t88 98.5
q-1 5 -1 9.5v9.5h-163q-73 0 -103.5 -17t-37.5 -53q-6 -34 18.5 -55.5t76.5 -21.5zM645 755h114l-176 -166h-82z" />
    <glyph glyph-name="Oslashacute" unicode="&#x1fe;" horiz-adv-x="855" 
d="M412 -10q-63 0 -116 18t-95 50l-75 -77l-51 44l76 79q-49 57 -69.5 134t-5.5 165q13 72 48.5 134t88.5 107t120.5 70.5t142.5 25.5q66 0 120.5 -20.5t97.5 -55.5l81 83l51 -44l-84 -87q46 -58 65 -133t5 -156q-13 -72 -48.5 -134t-88 -107t-120 -70.5t-143.5 -25.5z
M185 392q-11 -60 1.5 -113t43.5 -94l388 400q-29 23 -67.5 36.5t-84.5 13.5q-54 0 -101.5 -18.5t-84.5 -51t-61.5 -77t-33.5 -96.5zM422 96q54 0 101 18.5t84 51t62.5 77t34.5 95.5q10 54 -0.5 105t-39.5 93l-385 -397q29 -20 65 -31.5t78 -11.5zM598 963h114l-176 -166h-82
z" />
    <glyph glyph-name="oslashacute" unicode="&#x1ff;" horiz-adv-x="655" 
d="M304 -11q-45 0 -83.5 11.5t-70.5 32.5l-58 -60l-49 45l58 60q-36 44 -50.5 102t-2.5 125q9 50 35.5 95t66 78.5t91.5 53t112 19.5q45 0 83.5 -13t70.5 -36l57 59l49 -44l-58 -61q34 -42 48 -98t3 -122q-9 -52 -34.5 -97t-64.5 -78.5t-90.5 -52.5t-112.5 -19zM153 292
q-7 -41 -1 -75.5t23 -60.5l261 272q-38 25 -92 25q-38 0 -70.5 -12t-57.5 -34t-41 -51.5t-22 -63.5zM308 88q78 0 129.5 44.5t64.5 116.5q12 74 -20 131l-259 -270q38 -22 85 -22zM469 778h114l-176 -166h-82z" />
    <glyph glyph-name="Scommaaccent" unicode="&#x218;" horiz-adv-x="626" 
d="M299 -11q-60 0 -107.5 12t-85.5 33t-66 49t-49 60l103 75q32 -56 84 -90.5t124 -34.5q66 0 104 28t46 73q6 35 -6.5 58t-37 39t-57.5 27l-69 23q-40 13 -76.5 29.5t-63 43t-38.5 64t-2 92.5q6 36 27 67.5t54 55t77 36.5t96 13q49 0 89.5 -9.5t74.5 -26.5t61 -40.5
t48 -51.5l-100 -69q-27 45 -73 71t-113 26q-58 0 -91.5 -25t-40.5 -62q-5 -30 4 -49.5t30 -34t51 -25.5t67 -23q41 -14 81.5 -31.5t70.5 -45t45 -67.5t5 -97q-8 -42 -29.5 -77.5t-56 -61t-80 -40t-100.5 -14.5zM173 -246q38 17 65 40t31 49v3q-6 -20 -19.5 -27.5t-30.5 -7.5
q-24 0 -38 20t-9 44q5 26 25.5 45t55.5 19q36 0 57.5 -26.5t14.5 -68.5q-8 -43 -42 -76t-82 -55z" />
    <glyph glyph-name="scommaaccent" unicode="&#x219;" horiz-adv-x="509" 
d="M234 -11q-45 0 -83 9.5t-69.5 26t-55 38t-38.5 45.5l94 61q23 -38 65.5 -63t95.5 -25q45 0 71 19.5t31 49.5q3 16 -5.5 28.5t-25.5 22.5t-40.5 18.5t-49.5 16.5q-34 10 -66 23.5t-55 34t-34 50t-2 72.5q13 64 70 100t142 36q81 0 135.5 -29t92.5 -77l-91 -57
q-25 35 -58.5 54.5t-87.5 19.5q-42 0 -67 -15.5t-30 -43.5q-3 -17 5 -29t23.5 -21.5t38.5 -17.5t51 -17q33 -10 64.5 -24t55.5 -35t36 -50.5t5 -70.5q-6 -33 -23 -60.5t-45 -47.5t-65.5 -31t-84.5 -11zM116 -250q38 17 65 40t31 49v3q-6 -20 -19.5 -27.5t-30.5 -7.5
q-24 0 -38 20t-9 44q5 26 25.5 45t55.5 19q36 0 57.5 -26.5t14.5 -68.5q-8 -43 -42 -76t-82 -55z" />
    <glyph glyph-name="dotlessj" unicode="&#x237;" horiz-adv-x="235" 
d="M-124 -147q37 0 59.5 3.5t36.5 15.5t22 35.5t16 62.5q0 2 4.5 27.5t12 66t16.5 91.5t18 104q22 124 50 281h110l-102 -571q-11 -63 -25.5 -105t-39.5 -66.5t-63.5 -35t-96.5 -10.5h-36z" />
    <glyph glyph-name="circumflex" unicode="&#x2c6;" horiz-adv-x="530" 
d="M318 772h76l90 -166h-92l-48 94l-82 -94h-92z" />
    <glyph glyph-name="caron" unicode="&#x2c7;" horiz-adv-x="530" 
d="M199 772h92l48 -94l82 94h92l-149 -166h-75z" />
    <glyph glyph-name="breve" unicode="&#x2d8;" horiz-adv-x="530" 
d="M327 601q-41 0 -69 13t-44 35.5t-20.5 52.5t1.5 65h76q-9 -48 9 -73.5t59 -26.5q42 1 67.5 26.5t34.5 73.5h77q-6 -35 -22.5 -65t-41 -52.5t-57 -35.5t-70.5 -13z" />
    <glyph glyph-name="dotaccent" unicode="&#x2d9;" horiz-adv-x="531" 
d="M325 606q-36 0 -55 24.5t-12 57.5q5 28 27 45.5t49 17.5q38 0 55.5 -25t11.5 -56q-5 -29 -26 -46.5t-50 -17.5z" />
    <glyph glyph-name="ring" unicode="&#x2da;" horiz-adv-x="530" 
d="M336 607q-25 0 -45 10.5t-32.5 28t-17 40.5t2.5 48q11 38 42.5 63t71.5 25q25 0 45 -10.5t33 -27.5t17.5 -40t-2.5 -47q-11 -40 -41 -65t-74 -25zM341 666q19 0 34 12t20 29q5 23 -7.5 40t-35.5 17q-17 0 -31.5 -12t-19.5 -29q-6 -23 5.5 -40t34.5 -17z" />
    <glyph glyph-name="ogonek" unicode="&#x2db;" horiz-adv-x="530" 
d="M177 -223q-31 0 -55 8.5t-40 23.5t-22.5 34.5t-2.5 41.5q3 19 13 37.5t29.5 37t51 38t77.5 40.5l65 -38q-44 -25 -71.5 -42t-43.5 -29t-23 -21.5t-8 -19.5q-4 -19 9 -28t33 -9q23 0 39.5 9.5t33.5 21.5l63 -48q-31 -23 -70.5 -40t-77.5 -17z" />
    <glyph glyph-name="tilde" unicode="&#x2dc;" horiz-adv-x="530" 
d="M154 606q11 58 43 93t80 35q26 0 43.5 -7.5t31.5 -17.5t27 -18t28 -8q31 0 40 47h71q-11 -59 -42.5 -93.5t-81.5 -34.5q-30 0 -49.5 10.5t-35.5 21.5q-11 8 -22 13.5t-24 5.5q-30 0 -39 -47h-70v0z" />
    <glyph glyph-name="hungarumlaut" unicode="&#x2dd;" horiz-adv-x="530" 
d="M281 772h108l-177 -166h-76zM437 772h108l-176 -166h-76z" />
    <glyph glyph-name="uni0328" unicode="&#x328;" horiz-adv-x="530" 
d="M237 -223q-33 0 -57.5 10.5t-39.5 27t-21 38t-2 43.5q8 43 36.5 76.5t74.5 65.5l65 -38q-42 -30 -62.5 -55.5t-23.5 -46.5q-4 -19 7.5 -33t34.5 -14t39.5 9.5t33.5 21.5l63 -48q-67 -57 -148 -57z" />
    <glyph glyph-name="pi" unicode="&#x3c0;" horiz-adv-x="780" 
d="M125 730h698l-18 -103h-134l-75 -427q-5 -30 -5 -48.5t7 -29.5t20.5 -15t35.5 -4h43l-19 -103h-66q-85 0 -114.5 48.5t-11.5 151.5l75 427h-212l-110 -627h-110l110 627h-132z" />
    <glyph glyph-name="pi" unicode="&#x3d6;" horiz-adv-x="780" 
d="M125 730h698l-18 -103h-134l-75 -427q-5 -30 -5 -48.5t7 -29.5t20.5 -15t35.5 -4h43l-19 -103h-66q-85 0 -114.5 48.5t-11.5 151.5l75 427h-212l-110 -627h-110l110 627h-132z" />
    <glyph glyph-name="uni0E3F" unicode="&#xe3f;" horiz-adv-x="563" 
d="M145 663h172l12 67h68l-12 -69q38 -4 68 -19.5t49.5 -39t27.5 -54t2 -65.5q-6 -39 -28.5 -70t-59.5 -51q32 -21 47.5 -56t6.5 -86q-13 -72 -68.5 -112.5t-149.5 -40.5l-12 -67h-67l11 67h-171zM165 165h64l28 157h-64zM390 239q6 32 -10.5 54t-54.5 27l-28 -155
q79 4 93 74zM210 418h64l26 149h-64zM427 489q5 29 -10.5 49.5t-48.5 26.5l-26 -147q39 4 59.5 24.5t25.5 46.5z" />
    <glyph glyph-name="Wgrave" unicode="&#x1e80;" horiz-adv-x="1072" 
d="M670 0l-95 569l-278 -569h-109l-79 730h112l54 -557l273 557h105l95 -562l262 562h115l-348 -730h-107zM453 962h113l86 -166h-81z" />
    <glyph glyph-name="wgrave" unicode="&#x1e81;" horiz-adv-x="923" 
d="M73 540h108l40 -396l226 396h103l63 -399l216 399h118l-300 -540h-110l-64 395l-231 -395h-109zM346 772h113l86 -166h-81z" />
    <glyph glyph-name="Wacute" unicode="&#x1e82;" horiz-adv-x="1072" 
d="M670 0l-95 569l-278 -569h-109l-79 730h112l54 -557l273 557h105l95 -562l262 562h115l-348 -730h-107zM720 962h114l-176 -166h-82z" />
    <glyph glyph-name="wacute" unicode="&#x1e83;" horiz-adv-x="923" 
d="M73 540h108l40 -396l226 396h103l63 -399l216 399h118l-300 -540h-110l-64 395l-231 -395h-109zM617 772h114l-176 -166h-82z" />
    <glyph glyph-name="Wdieresis" unicode="&#x1e84;" horiz-adv-x="1072" 
d="M670 0l-95 569l-278 -569h-109l-79 730h112l54 -557l273 557h105l95 -562l262 562h115l-348 -730h-107zM525 797q-32 0 -49 21.5t-11 52.5q4 25 24 41t45 16q34 0 49.5 -23t10.5 -51q-5 -26 -24 -41.5t-45 -15.5zM709 797q-32 0 -49 21.5t-11 52.5q4 25 24 41t45 16
q34 0 49.5 -23t10.5 -51q-5 -26 -24 -41.5t-45 -15.5z" />
    <glyph glyph-name="wdieresis" unicode="&#x1e85;" horiz-adv-x="923" 
d="M73 540h108l40 -396l226 396h103l63 -399l216 399h118l-300 -540h-110l-64 395l-231 -395h-109zM422 607q-32 0 -49 21.5t-11 52.5q4 25 24 41t45 16q34 0 49.5 -23t10.5 -51q-5 -26 -24 -41.5t-45 -15.5zM606 607q-32 0 -49 21.5t-11 52.5q4 25 24 41t45 16
q34 0 49.5 -23t10.5 -51q-5 -26 -24 -41.5t-45 -15.5z" />
    <glyph glyph-name="Ygrave" unicode="&#x1ef2;" horiz-adv-x="673" 
d="M284 310l-185 420h114l143 -325l252 325h128l-344 -433l-52 -297h-110zM278 952h113l86 -166h-81z" />
    <glyph glyph-name="ygrave" unicode="&#x1ef3;" horiz-adv-x="589" 
d="M58 -203q-56 0 -92 22.5t-56 54.5l91 68q8 -19 24 -32t45 -13q15 0 29 4t28 15.5t30 31.5t34 52l19 33l-143 507h111l103 -382l216 382h120l-333 -570q-30 -51 -56 -84t-52 -53t-54.5 -28t-63.5 -8zM203 764h113l86 -166h-81z" />
    <glyph glyph-name="figuredash" unicode="&#x2012;" horiz-adv-x="688" 
d="M75 301h555l-17 -92h-555z" />
    <glyph glyph-name="endash" unicode="&#x2013;" horiz-adv-x="535" 
d="M75 301h405l-17 -92h-405z" />
    <glyph glyph-name="emdash" unicode="&#x2014;" horiz-adv-x="738" 
d="M75 301h605l-17 -92h-605z" />
    <glyph glyph-name="uni2015" unicode="&#x2015;" horiz-adv-x="1038" 
d="M75 301h905l-17 -92h-905z" />
    <glyph glyph-name="doublebar" unicode="&#x2016;" horiz-adv-x="449" 
d="M159 730h110l-169 -960h-110zM349 730h110l-169 -960h-110z" />
    <glyph glyph-name="quoteleft" unicode="&#x2018;" horiz-adv-x="282" 
d="M179 455q-39 0 -63 28.5t-16 76.5q18 106 152 178l28 -45q-105 -58 -117 -130v-1q13 39 51 39q28 0 43.5 -22.5t10.5 -50.5q-5 -30 -28.5 -51.5t-60.5 -21.5z" />
    <glyph glyph-name="quoteright" unicode="&#x2019;" horiz-adv-x="282" 
d="M108 496q105 58 117 130v4q-12 -42 -51 -42q-28 0 -43.5 22.5t-10.5 50.5q5 30 28.5 51.5t60.5 21.5q39 0 63 -28.5t16 -76.5q-18 -106 -152 -178z" />
    <glyph glyph-name="quotesinglbase" unicode="&#x201a;" horiz-adv-x="282" 
d="M6 -101q105 58 117 130v4q-12 -42 -51 -42q-28 0 -43.5 22.5t-10.5 50.5q5 30 28.5 51.5t60.5 21.5q39 0 63 -28.5t16 -76.5q-18 -106 -152 -178z" />
    <glyph glyph-name="reversequoteleft" unicode="&#x201b;" horiz-adv-x="282" 
d="M203 452q-23 17 -42 37t-31 43.5t-16 50t1 57.5q7 41 35.5 67.5t70.5 26.5q39 0 59 -24t12 -61q-5 -26 -24.5 -43.5t-47.5 -17.5q-20 0 -31.5 10.5t-9.5 33.5q-2 -6 -2 -11q-5 -35 10.5 -65t56.5 -63l-41 -41v0z" />
    <glyph glyph-name="quotedblleft" unicode="&#x201c;" horiz-adv-x="482" 
d="M179 455q-39 0 -63 28.5t-16 76.5q18 106 152 178l28 -45q-105 -58 -117 -130q-1 -3 -1 -9q7 21 20.5 30t31.5 9q27 0 40.5 -21.5t8.5 -48.5q-5 -32 -27 -50t-57 -18zM383 455q-39 0 -63 28.5t-16 76.5q18 106 152 178l28 -45q-105 -58 -117 -130q-1 -3 -1 -9
q7 21 20.5 30t31.5 9q27 0 40.5 -21.5t8.5 -48.5q-5 -32 -27 -50t-57 -18z" />
    <glyph glyph-name="quotedblright" unicode="&#x201d;" horiz-adv-x="482" 
d="M102 496q105 58 117 130v8q-6 -21 -19.5 -29.5t-31.5 -8.5q-27 0 -40.5 21.5t-8.5 48.5q5 32 27 50t57 18q39 0 63 -28.5t16 -76.5q-18 -106 -152 -178zM306 496q105 58 117 130v8q-6 -21 -19.5 -29.5t-31.5 -8.5q-27 0 -40.5 21.5t-8.5 48.5q5 32 27 50t57 18
q39 0 63 -28.5t16 -76.5q-18 -106 -152 -178z" />
    <glyph glyph-name="quotedblbase" unicode="&#x201e;" horiz-adv-x="482" 
d="M2 -100q105 58 117 130v8q-6 -21 -19.5 -29.5t-31.5 -8.5q-27 0 -40.5 21.5t-8.5 48.5q5 32 27 50t57 18q39 0 63 -28.5t16 -76.5q-18 -106 -152 -178zM206 -100q105 58 117 130v8q-6 -21 -19.5 -29.5t-31.5 -8.5q-27 0 -40.5 21.5t-8.5 48.5q5 32 27 50t57 18
q39 0 63 -28.5t16 -76.5q-18 -106 -152 -178z" />
    <glyph glyph-name="reversequotedblleft" unicode="&#x201f;" horiz-adv-x="490" 
d="M203 452q-23 17 -42 37t-31 43.5t-16 50t1 57.5q7 41 35 67.5t70 26.5q39 0 58.5 -24.5t11.5 -59.5q-5 -25 -23 -41.5t-45 -16.5q-19 0 -30.5 11t-10.5 32q-1 -3 -2 -6.5t-1 -6.5q-5 -34 10 -65t56 -64zM415 452q-23 17 -42 37t-31 43.5t-16 50t1 57.5q7 41 35 67.5
t70 26.5q39 0 58.5 -24.5t11.5 -59.5q-5 -25 -23 -41.5t-45 -16.5q-19 0 -30.5 11t-10.5 32q-1 -3 -2 -6.5t-1 -6.5q-5 -34 10 -65t56 -64z" />
    <glyph glyph-name="dagger" unicode="&#x2020;" horiz-adv-x="593" 
d="M112 500h171l40 230h110l-40 -230h172l-17 -96h-172l-71 -404h-110l71 404h-171z" />
    <glyph glyph-name="daggerdbl" unicode="&#x2021;" horiz-adv-x="593" 
d="M120 542h170l33 188h110l-33 -188h173l-18 -95h-172l-27 -155h172l-17 -95h-172l-34 -197h-110l34 197h-171l17 95h171l27 155h-171z" />
    <glyph glyph-name="bullet" unicode="&#x2022;" horiz-adv-x="410" 
d="M209 160q-19 0 -36 7.5t-29.5 20t-20 29.5t-7.5 36t7.5 36t20 29.5t29.5 20t36 7.5t36 -7.5t29.5 -20t20 -29.5t7.5 -36t-7.5 -36t-20 -29.5t-29.5 -20t-36 -7.5z" />
    <glyph glyph-name="ellipsis" unicode="&#x2026;" horiz-adv-x="650" 
d="M89 -12q-35 0 -54.5 24.5t-12.5 57.5q5 28 27 45.5t50 17.5q37 0 54.5 -25t12.5 -56q-5 -29 -26.5 -46.5t-50.5 -17.5zM287 -12q-35 0 -54 24.5t-13 57.5q5 28 27 45.5t50 17.5q37 0 54.5 -25t12.5 -56q-5 -29 -26.5 -46.5t-50.5 -17.5zM484 -12q-35 0 -54 24.5t-13 57.5
q5 28 27 45.5t50 17.5q37 0 54.5 -25t12.5 -56q-5 -29 -26.5 -46.5t-50.5 -17.5z" />
    <glyph glyph-name="perthousand" unicode="&#x2030;" horiz-adv-x="1276" 
d="M773 730h137l-755 -730h-138zM278 391q-39 0 -71 15.5t-53 42t-29.5 61.5t-2.5 73q6 32 23 60.5t42 50t56.5 34t66.5 12.5q38 0 69.5 -15.5t53 -41.5t30.5 -60.5t3 -71.5q-6 -33 -22.5 -62t-41 -51t-56.5 -34.5t-68 -12.5zM287 482q33 0 58.5 22t30.5 54q3 18 -1 34.5
t-14 29t-25.5 20.5t-34.5 8q-34 0 -58.5 -21.5t-30.5 -53.5q-3 -18 1 -35t13.5 -29.5t25 -20.5t35.5 -8zM616 -11q-39 0 -70.5 16t-52.5 42.5t-30 61t-2 72.5q6 32 23 61t42 50.5t56.5 34t66.5 12.5q38 0 69.5 -15.5t53 -42t30.5 -61t3 -71.5q-6 -33 -22.5 -62t-41.5 -51
t-57 -34.5t-68 -12.5zM625 80q16 0 31.5 6t27.5 16.5t20 24.5t11 30q3 17 -1 33.5t-14 29.5t-25.5 21t-34.5 8q-34 0 -58.5 -22t-30.5 -54q-3 -18 1 -34.5t13.5 -29.5t24.5 -21t35 -8zM1007 -11q-39 0 -70.5 16t-52.5 42.5t-30 61t-2 72.5q6 32 23 61t42 50.5t56.5 34
t66.5 12.5q38 0 69.5 -15.5t53 -42t30.5 -61t3 -71.5q-6 -33 -22.5 -62t-41.5 -51t-57 -34.5t-68 -12.5zM1016 80q16 0 31.5 6t27.5 16.5t20 24.5t11 30q3 17 -1 33.5t-14 29.5t-25.5 21t-34.5 8q-34 0 -58.5 -22t-30.5 -54q-3 -18 1 -34.5t13.5 -29.5t24.5 -21t35 -8z" />
    <glyph glyph-name="minute" unicode="&#x2032;" horiz-adv-x="247" 
d="M103 526l74 204h96l-102 -204h-68z" />
    <glyph glyph-name="second" unicode="&#x2033;" horiz-adv-x="388" 
d="M244 526l74 204h96l-102 -204h-68zM103 526l74 204h96l-102 -204h-68z" />
    <glyph glyph-name="tripleprime" unicode="&#x2034;" horiz-adv-x="489" 
d="M139 500q-2 9 -3 28.5t-1.5 41.5t0 43t2.5 33l15 84h85l-15 -84q-2 -12 -8.5 -33t-15 -43t-16.5 -41.5t-12 -28.5h-31zM271 500q-2 9 -3 28.5t-1.5 41.5t0 43t2.5 33l15 84h85l-15 -84q-2 -12 -8.5 -33t-15 -43t-16.5 -41.5t-12 -28.5h-31zM403 500q-2 9 -3 28.5
t-1.5 41.5t0 43t2.5 33l15 84h85l-15 -84q-2 -12 -8.5 -33t-15 -43t-16.5 -41.5t-12 -28.5h-31z" />
    <glyph glyph-name="guilsinglleft" unicode="&#x2039;" horiz-adv-x="327" 
d="M76 218l12 68l183 119l-14 -85l-112 -71l87 -70l-14 -80z" />
    <glyph glyph-name="guilsinglright" unicode="&#x203a;" horiz-adv-x="327" 
d="M252 285l-12 -68l-183 -119l15 85l111 70l-87 71l15 80z" />
    <glyph glyph-name="interrobang" unicode="&#x203d;" horiz-adv-x="596" 
d="M228 205q5 40 13.5 96t18.5 114t19 111t15 87l5 31q-32 -7 -58.5 -25t-43.5 -47l-87 54q35 54 94.5 84t135.5 30q53 0 96.5 -17t72.5 -46t41.5 -67t4.5 -81t-26.5 -70.5t-43.5 -47.5t-52.5 -37t-52.5 -39.5t-45 -54.5t-29 -81l-2 -10h-78zM240 -16q-38 0 -58.5 25.5
t-13.5 60.5q5 29 29 48t53 19q19 0 34 -7t24 -19t12.5 -27.5t0.5 -31.5q-6 -30 -28 -49t-53 -19zM450 538q5 34 -10.5 59t-46.5 38l-4 -22q-9 -48 -21 -100t-26 -104q18 18 35.5 31t32 26.5t25 30t15.5 41.5z" />
    <glyph glyph-name="fraction" unicode="&#x2044;" horiz-adv-x="742" 
d="M652 730h130l-652 -730h-130z" />
    <glyph glyph-name="uni2070" unicode="&#x2070;" horiz-adv-x="421" 
d="M227 302q-39 0 -70 13t-51 39.5t-27 67.5t3 98l4 23q19 100 69.5 146.5t128.5 46.5q38 0 68.5 -13t50 -40t26.5 -67.5t-2 -94.5l-4 -23q-10 -57 -29 -95t-44.5 -60.5t-56.5 -31.5t-66 -9zM235 393q42 0 63 29.5t31 87.5l4 23q21 113 -57 113q-43 0 -64.5 -28.5
t-31.5 -84.5l-4 -23q-21 -117 59 -117z" />
    <glyph glyph-name="uni2074" unicode="&#x2074;" horiz-adv-x="391" 
d="M231 398h-176l14 79l219 253h90l-44 -251h71l-15 -81h-70l-16 -90h-88zM245 479l20 114l-98 -114h78z" />
    <glyph glyph-name="uni2075" unicode="&#x2075;" horiz-adv-x="358" 
d="M195 302q-54 0 -90.5 23t-53.5 65l91 42q7 -20 23 -32t39 -12q27 0 45 14t23 37q5 29 -9.5 48.5t-43.5 19.5q-23 0 -38.5 -9t-29.5 -25l-77 30l68 227h254l-15 -86h-180l-25 -86q11 11 29.5 19.5t50.5 8.5q27 0 49.5 -12t37.5 -32.5t20.5 -48.5t-0.5 -60
q-12 -64 -56.5 -97.5t-111.5 -33.5z" />
    <glyph glyph-name="uni2076" unicode="&#x2076;" horiz-adv-x="375" 
d="M219 298q-38 0 -68.5 13.5t-51.5 39.5q-10 15 -17.5 31t-11 36t-3 45t6.5 58q19 103 79.5 159t157.5 56q37 0 60.5 -5t40.5 -13l-52 -83q-11 8 -25.5 12t-38.5 4q-49 0 -83.5 -27t-51.5 -82q16 22 39.5 35t57.5 13q33 0 57.5 -12t40.5 -33.5t21.5 -50.5t-0.5 -62
q-11 -60 -51.5 -97t-106.5 -37zM223 381q25 0 43 15.5t22 41.5q5 29 -10 51t-47 22q-30 0 -48 -16t-23 -39q-2 -13 0.5 -26.5t10.5 -24t21 -17.5t31 -7z" />
    <glyph glyph-name="uni2077" unicode="&#x2077;" horiz-adv-x="340" 
d="M280 644h-186l15 86h282l-14 -80l-209 -342h-99z" />
    <glyph glyph-name="uni2078" unicode="&#x2078;" horiz-adv-x="388" 
d="M213 302q-82 0 -121 40t-27 103q5 29 24 53.5t49 41.5q-32 35 -23 89q10 51 51 79t102 28q34 0 60.5 -10.5t44 -28.5t24 -42.5t2.5 -53.5q-5 -27 -20 -46.5t-35 -33.5q21 -18 32 -43t6 -54q-9 -56 -51.5 -89t-117.5 -33zM218 384q35 0 54 13.5t23 34.5q4 25 -13 41
t-53 16q-33 0 -53 -13t-24 -36t13 -39.5t53 -16.5zM252 568q29 0 44.5 11t19.5 31q3 20 -10 33.5t-43 13.5q-29 0 -45 -11t-20 -28q-4 -21 9 -35.5t45 -14.5z" />
    <glyph glyph-name="uni2079" unicode="&#x2079;" horiz-adv-x="381" 
d="M176 298q-46 0 -75.5 12t-49.5 30l64 72q24 -29 76 -29q85 0 113 110q-15 -23 -39 -36t-58 -13q-33 0 -57.5 12t-40.5 33.5t-21.5 50.5t0.5 62q11 60 51.5 97t106.5 37q38 0 68.5 -13.5t51.5 -39.5q10 -15 17.5 -31t11 -36t3 -45t-6.5 -58q-19 -103 -72 -159t-143 -56z
M234 523q30 0 48 16t23 39q2 13 -0.5 26.5t-10.5 24t-21 17.5t-31 7q-25 0 -43 -15.5t-22 -41.5q-5 -29 10 -51t47 -22z" />
    <glyph glyph-name="uni207A" unicode="&#x207a;" horiz-adv-x="308" 
d="M102 557h69l12 68h76l-12 -68h68l-13 -76h-69l-12 -69h-76l12 69h-69z" />
    <glyph glyph-name="uni207B" unicode="&#x207b;" horiz-adv-x="308" 
d="M102 557h213l-13 -76h-214z" />
    <glyph glyph-name="uni207C" unicode="&#x207c;" horiz-adv-x="308" 
d="M110 604h214l-13 -75h-214zM92 504h214l-13 -76h-215z" />
    <glyph glyph-name="uni207D" unicode="&#x207d;" horiz-adv-x="309" 
d="M211 225q-31 25 -57 56.5t-42.5 70.5t-22 85.5t4.5 100.5q9 50 29 92.5t48.5 78t63.5 62.5t73 47l51 -73q-69 -34 -113 -87t-58 -130q-24 -146 87 -234z" />
    <glyph glyph-name="uni207E" unicode="&#x207e;" horiz-adv-x="309" 
d="M199 815q31 -25 56.5 -56.5t42 -70.5t22 -85t-4.5 -100q-17 -100 -75 -170t-138 -111l-52 73q69 34 113 87.5t58 129.5q13 74 -9.5 132.5t-77.5 101.5z" />
    <glyph glyph-name="uni2080" unicode="&#x2080;" horiz-adv-x="421" 
d="M170 -6q-39 0 -70 13t-51 39.5t-27 67.5t3 98l4 23q19 100 69.5 146.5t128.5 46.5q38 0 68.5 -13t50 -40t26.5 -67.5t-2 -94.5l-4 -23q-10 -57 -29 -95t-44.5 -60.5t-56.5 -31.5t-66 -9zM178 85q42 0 63 29.5t31 87.5l4 23q21 113 -57 113q-43 0 -64.5 -28.5t-31.5 -84.5
l-4 -23q-21 -117 59 -117z" />
    <glyph glyph-name="uni2081" unicode="&#x2081;" horiz-adv-x="243" 
d="M52 0l50 291q-11 -24 -35.5 -37t-50.5 -13h-6l16 91h3q45 0 67.5 24.5t30.5 65.5h89l-74 -422h-90z" />
    <glyph glyph-name="uni2082" unicode="&#x2082;" horiz-adv-x="354" 
d="M-3 72q5 30 19 53.5t33.5 42.5t43.5 33t49 26q38 17 63 34t29 41q4 20 -11 33.5t-41 13.5q-27 0 -46.5 -15t-31.5 -41l-81 37q26 43 65.5 70.5t102.5 27.5q33 0 60 -11t44.5 -30t25 -43.5t2.5 -52.5q-5 -25 -17.5 -44.5t-30.5 -35t-40 -27.5t-44 -23q-42 -20 -66.5 -35
t-29.5 -39h193l-16 -87h-288z" />
    <glyph glyph-name="uni2083" unicode="&#x2083;" horiz-adv-x="355" 
d="M136 -6q-54 0 -95.5 20t-62.5 53l89 52q7 -17 27 -29t46 -12q29 0 44 13t19 36t-13.5 35t-47.5 12h-43l15 83h46q62 0 70 42q4 23 -9 36t-42 13q-50 0 -76 -42l-76 52q29 32 69 51t92 19q34 0 60.5 -10t44 -27.5t25 -41t3.5 -49.5q-5 -29 -23 -50t-45 -35
q26 -17 38 -44.5t6 -62.5q-9 -54 -50.5 -84t-110.5 -30z" />
    <glyph glyph-name="uni2084" unicode="&#x2084;" horiz-adv-x="391" 
d="M174 90h-176l14 79l219 253h90l-44 -251h71l-15 -81h-70l-16 -90h-88zM188 171l20 114l-98 -114h78z" />
    <glyph glyph-name="uni2085" unicode="&#x2085;" horiz-adv-x="358" 
d="M138 -6q-54 0 -90.5 23t-53.5 65l91 42q7 -20 23 -32t39 -12q27 0 45 14t23 37q5 29 -9.5 48.5t-43.5 19.5q-23 0 -38.5 -9t-29.5 -25l-77 30l68 227h254l-15 -86h-180l-25 -86q11 11 29.5 19.5t50.5 8.5q27 0 49.5 -12t37.5 -32.5t20.5 -48.5t-0.5 -60
q-12 -64 -56.5 -97.5t-111.5 -33.5z" />
    <glyph glyph-name="uni2086" unicode="&#x2086;" horiz-adv-x="375" 
d="M162 -10q-38 0 -68.5 13.5t-51.5 39.5q-10 15 -17.5 31t-11 36t-3 45t6.5 58q19 103 79.5 159t157.5 56q37 0 60.5 -5t40.5 -13l-52 -83q-11 8 -25.5 12t-38.5 4q-49 0 -83.5 -27t-51.5 -82q16 22 39.5 35t57.5 13q33 0 57.5 -12t40.5 -33.5t21.5 -50.5t-0.5 -62
q-11 -60 -51.5 -97t-106.5 -37zM166 73q25 0 43 15.5t22 41.5q5 29 -10 51t-47 22q-30 0 -48 -16t-23 -39q-2 -13 0.5 -26.5t10.5 -24t21 -17.5t31 -7z" />
    <glyph glyph-name="uni2087" unicode="&#x2087;" horiz-adv-x="340" 
d="M223 336h-186l15 86h282l-14 -80l-209 -342h-99z" />
    <glyph glyph-name="uni2088" unicode="&#x2088;" horiz-adv-x="388" 
d="M156 -6q-82 0 -121 40t-27 103q5 29 24 53.5t49 41.5q-32 35 -23 89q10 51 51 79t102 28q34 0 60.5 -10.5t44 -28.5t24 -42.5t2.5 -53.5q-5 -27 -20 -46.5t-35 -33.5q21 -18 32 -43t6 -54q-9 -56 -51.5 -89t-117.5 -33zM161 76q35 0 54 13.5t23 34.5q4 25 -13 41t-53 16
q-33 0 -53 -13t-24 -36t13 -39.5t53 -16.5zM195 260q29 0 44.5 11t19.5 31q3 20 -10 33.5t-43 13.5q-29 0 -45 -11t-20 -28q-4 -21 9 -35.5t45 -14.5z" />
    <glyph glyph-name="uni2089" unicode="&#x2089;" horiz-adv-x="381" 
d="M119 -10q-46 0 -75.5 12t-49.5 30l64 72q24 -29 76 -29q85 0 113 110q-15 -23 -39 -36t-58 -13q-33 0 -57.5 12t-40.5 33.5t-21.5 50.5t0.5 62q11 60 51.5 97t106.5 37q38 0 68.5 -13.5t51.5 -39.5q10 -15 17.5 -31t11 -36t3 -45t-6.5 -58q-19 -103 -72 -159t-143 -56z
M177 215q30 0 48 16t23 39q2 13 -0.5 26.5t-10.5 24t-21 17.5t-31 7q-25 0 -43 -15.5t-22 -41.5q-5 -29 10 -51t47 -22z" />
    <glyph glyph-name="uni208A" unicode="&#x208a;" horiz-adv-x="308" 
d="M45 249h69l12 68h76l-12 -68h68l-13 -76h-69l-12 -69h-76l12 69h-69z" />
    <glyph glyph-name="uni208B" unicode="&#x208b;" horiz-adv-x="308" 
d="M45 249h213l-13 -76h-214z" />
    <glyph glyph-name="uni208C" unicode="&#x208c;" horiz-adv-x="308" 
d="M53 296h214l-13 -75h-214zM35 196h214l-13 -76h-215z" />
    <glyph glyph-name="uni208D" unicode="&#x208d;" horiz-adv-x="309" 
d="M154 -83q-31 25 -57 56.5t-42.5 70.5t-22 85.5t4.5 100.5q9 50 29 92.5t48.5 78t63.5 62.5t73 47l51 -73q-69 -34 -113 -87t-58 -130q-24 -146 87 -234z" />
    <glyph glyph-name="uni208E" unicode="&#x208e;" horiz-adv-x="309" 
d="M142 507q31 -25 56.5 -56.5t42 -70.5t22 -85t-4.5 -100q-17 -100 -75 -170t-138 -111l-52 73q69 34 113 87.5t58 129.5q13 74 -9.5 132.5t-77.5 101.5z" />
    <glyph glyph-name="uni20A1" unicode="&#x20a1;" horiz-adv-x="817" 
d="M189 74q-65 59 -92 146t-10 187q12 70 48 131t89.5 106t121.5 70.5t145 25.5h10.5t11.5 -1l49 101h73l-54 -111q14 -4 26.5 -8t24.5 -9l63 128h73l-78 -160q38 -26 66.5 -60t48.5 -75l-105 -51q-11 26 -25 48t-34 39l-236 -483q7 -1 13.5 -1h13.5q72 0 130 33.5t100 97.5
l97 -55q-56 -84 -136.5 -133t-198.5 -50q-37 0 -70 6l-56 -116h-72l64 132q-24 10 -49 24l-76 -156h-71zM196 391q-11 -59 1.5 -112.5t44.5 -94.5l220 450q-49 -3 -93 -22t-79.5 -51t-60 -75.5t-33.5 -94.5zM291 138q11 -8 23 -14t25 -11l246 503q-12 5 -25 9t-27 6z" />
    <glyph glyph-name="uni20A2" unicode="&#x20a2;" horiz-adv-x="817" 
d="M424 -10q-89 -1 -158 33t-114 91.5t-62.5 133t-2.5 159.5q12 70 48 131t89.5 106t121.5 70.5t145 25.5q56 0 104.5 -14.5t88.5 -40.5t70.5 -62t50.5 -78l-105 -51q-26 64 -78.5 102.5t-140.5 38.5q-52 0 -99.5 -18t-85.5 -50t-64.5 -77t-35.5 -99q-8 -47 -2.5 -91.5
t24.5 -81.5t49.5 -65.5t72.5 -43.5l31 160q8 32 -1 46t-36 14h-15l16 93h47q42 0 62 -19t25 -51q30 36 70.5 53t86.5 17h55l-19 -107h-43q-71 0 -106.5 -34t-49.5 -107l-16 -80q68 4 122.5 38.5t92.5 95.5l97 -55q-56 -84 -136.5 -133t-198.5 -50z" />
    <glyph glyph-name="franc" unicode="&#x20a3;" horiz-adv-x="555" 
d="M157 730h413l-18 -103h-304l-23 -134h303l-17 -96h-303l-13 -76h303l-17 -95h-303l-39 -226h-110z" />
    <glyph glyph-name="lira" unicode="&#x20a4;" horiz-adv-x="753" 
d="M143 495h80q-2 30 4 59q7 42 28 76.5t51.5 58.5t70 37.5t84.5 13.5q79 0 131 -29t82 -78l-103 -48q-16 29 -44.5 45t-68.5 16q-48 0 -81.5 -27.5t-41.5 -70.5q-5 -27 -3 -53h213l-15 -81h-186l15 -59h161l-14 -81h-131q3 -24 3.5 -49t-4.5 -51q-2 -14 -6 -28t-10 -27
q26 -17 51.5 -28.5t54.5 -11.5q48 0 70 23.5t33 78.5l8 44h113l-11 -58q-8 -40 -22.5 -72.5t-38.5 -56t-57.5 -36t-79.5 -12.5q-51 0 -91 18.5t-74 41.5q-26 -28 -62 -44.5t-79 -16.5q-67 0 -101.5 34t-23.5 92q8 38 39.5 62t81.5 24q36 0 66.5 -11t57.5 -28l3 14q4 25 1 49
t-10 49h-183l14 81h139q-5 14 -10 28.5t-10 30.5h-109zM173 54q52 0 85 38q-23 17 -44.5 29t-42.5 12q-20 0 -32 -9t-15 -24q-3 -20 9.5 -33t39.5 -13z" />
    <glyph glyph-name="uni20A6" unicode="&#x20a6;" horiz-adv-x="847" 
d="M90 458h81l48 272h106l129 -272h185l48 272h110l-48 -272h80l-11 -65h-80l-9 -51h80l-12 -65h-80l-48 -277h-99l-132 277h-190l-48 -277h-110l49 277h-81l12 65h80l9 51h-80zM260 342h147l-24 51h-114zM509 342h109l9 51h-142zM300 569l-20 -111h72zM589 174l18 103h-67z
" />
    <glyph glyph-name="peseta" unicode="&#x20a7;" horiz-adv-x="1361" 
d="M1073 99q94 0 102 52q3 15 -5.5 26t-23.5 19t-36 14.5t-43 13.5q-29 9 -57.5 20t-50 29.5t-32 45.5t-3.5 67q11 58 64.5 91.5t130.5 33.5q67 0 117 -25.5t79 -67.5l-87 -56q-20 29 -48 45t-69 16q-34 0 -55 -11t-26 -37q-3 -14 5 -24t23 -18t35 -14.5t42 -13.5
q29 -9 58 -21t50.5 -30.5t33 -45.5t4.5 -67q-6 -33 -19.5 -59t-38.5 -44t-63.5 -28t-92.5 -10h-236q-65 0 -105 15.5t-61 44t-24.5 70t5.5 92.5l31 182h-77q-15 -41 -41.5 -75t-62.5 -58.5t-81 -38.5t-97 -14h-141l-38 -218h-110l128 730h221q48 0 91.5 -16t76.5 -46
t52.5 -72.5t18.5 -95.5h77l21 118l119 59q-5 -25 -10 -53q-5 -25 -10 -57t-11 -67h104l-17 -96h-104l-33 -183q-5 -30 -4.5 -53t11.5 -38t34.5 -23t63.5 -8h215zM250 631l-55 -313h128q37 0 68.5 12t55 32.5t38.5 48t21 59.5q6 34 -2 63t-27.5 51t-49 34.5t-65.5 12.5h-112z
" />
    <glyph glyph-name="uni20A8" unicode="&#x20a8;" horiz-adv-x="1069" 
d="M157 730h216q60 0 108 -20t80 -55.5t45 -83t4 -102.5q-6 -35 -23 -67.5t-43.5 -59t-63.5 -45.5t-83 -26q17 -38 46.5 -72t73 -59.5t103 -40.5t137.5 -15q66 0 95.5 16.5t34.5 44.5q3 15 -5 25t-23 18t-35 14t-42 13q-30 9 -59.5 21t-52 30.5t-34 46t-4.5 68.5
q5 29 21.5 53t42 41t59 26.5t72.5 9.5q67 0 119 -25.5t82 -67.5l-88 -56q-20 29 -50 45t-71 16q-34 0 -55.5 -13.5t-26.5 -39.5q-3 -14 5.5 -24t23.5 -18.5t35.5 -15.5t43.5 -14q29 -9 58.5 -21t51.5 -30.5t33.5 -45.5t4.5 -66q-11 -69 -68.5 -108.5t-176.5 -40.5
q-119 0 -206 33.5t-146 87t-92 119.5t-44 132h59q43 0 74.5 10.5t53.5 28t34.5 40.5t17.5 49q6 31 -2 57.5t-27 46t-48 30.5t-66 11h-107l-110 -631h-110z" />
    <glyph glyph-name="uni20A9" unicode="&#x20a9;" horiz-adv-x="1136" 
d="M90 458h96l-30 272h113l27 -272h170l132 272h103l38 -272h170l123 272h114l-126 -272h98l-12 -65h-116l-24 -51h131l-11 -65h-150l-128 -277h-107l-38 277h-181l-135 -277h-109l-31 277h-149l11 65h130l-5 51h-116zM513 342h141l-7 51h-109zM755 342h102l23 51h-132z
M308 342h101l25 51h-131zM570 458h68l-15 110zM764 277l15 -110l49 110h-64zM314 277l11 -108l53 108h-64z" />
    <glyph glyph-name="uni20AA" unicode="&#x20aa;" horiz-adv-x="819" 
d="M315 566q33 0 54 -4t32 -15.5t12.5 -30.5t-4.5 -49l-65 -366h94q48 0 82.5 9.5t58 30t37.5 53t23 79.5l81 457h112l-81 -457q-13 -70 -36.5 -121.5t-62 -85t-94 -50t-133.5 -16.5h-210zM157 730h213q137 0 194 -67t32 -206l-33 -185q-5 -28 -14 -47t-24 -31t-37 -17
t-54 -5l50 285q9 47 6.5 80t-18 53.5t-46.5 29.5t-80 9h-96l-111 -629h-111z" />
    <glyph glyph-name="Euro" unicode="&#x20ac;" horiz-adv-x="902" 
d="M103 512h85q25 50 64 92t87.5 72t105.5 47t119 17q54 0 103 -14.5t90 -41t72.5 -64.5t50.5 -84l-106 -49q-25 68 -79.5 108t-145.5 40q-72 0 -133 -33t-102 -90h349l-39 -89h-353q-3 -8 -4.5 -17t-3.5 -18q-9 -40 -4 -81h313l-39 -88h-251q27 -55 80.5 -89.5t132.5 -34.5
q78 0 143 40.5t103 112.5l99 -47q-25 -47 -60 -86t-79.5 -67t-99 -43t-117.5 -15q-62 0 -114 17t-93.5 47.5t-71 72.5t-44.5 92h-108l15 88h77q-3 46 6 94q1 5 1.5 10.5t2.5 11.5h-67z" />
    <glyph glyph-name="uni20AE" unicode="&#x20ae;" horiz-adv-x="625" 
d="M525 465l-128 -49l-12 -70l127 49l-12 -70l-127 -49l-48 -276h-110l40 231l-132 -51l11 70l133 51l12 69l-132 -50l12 70l132 50l33 187h-216l18 103h542l-18 -103h-216l-25 -142l128 49z" />
    <glyph glyph-name="uni20B1" unicode="&#x20b1;" horiz-adv-x="769" 
d="M115 565h77l29 165h221q40 0 77 -11.5t67.5 -33t52.5 -52t33 -68.5h98l-12 -65h-77q0 -11 -1 -22.5t-3 -23.5q-1 -2 -1 -5h73l-11 -65h-83q-33 -74 -104.5 -120t-169.5 -46h-140l-38 -218h-110l67 384h-77l11 65h78l9 51h-78zM386 318q47 0 83.5 18t61.5 48h-261l-12 -66
h128zM570 470q2 8 2 15v15h-282l-9 -51h284zM313 631l-11 -66h252q-18 30 -51 48t-77 18h-113z" />
    <glyph glyph-name="published" unicode="&#x2117;" horiz-adv-x="867" 
d="M415 -71q-85 0 -154 33.5t-115 90t-65 131.5t-5 158q12 72 48 134t89 107t119.5 70.5t140.5 25.5q85 0 153.5 -33.5t114.5 -90.5t65 -132t5 -157q-12 -72 -48 -133.5t-89 -107t-119.5 -71t-139.5 -25.5zM424 19q55 0 105 20t89 54.5t65.5 82t36.5 102.5q11 60 -2 117
t-46 100.5t-85 70t-118 26.5q-57 0 -107.5 -20t-90 -54.5t-66.5 -82.5t-37 -103q-11 -61 3 -117.5t47.5 -100t86 -69.5t119.5 -26zM341 495h155q37 0 66 -13.5t47.5 -35.5t26 -49.5t3.5 -55.5q-10 -57 -54 -93t-112 -36h-86l-17 -97h-96zM422 415l-21 -121h62
q31 0 52.5 14.5t26.5 44.5q6 32 -14.5 47t-52.5 15h-53z" />
    <glyph glyph-name="servicemark" unicode="&#x2120;" horiz-adv-x="695" 
d="M387 730h76l60 -109l105 109h78l-52 -290h-77l30 169l-100 -98l-64 100l-30 -171h-77zM199 434q-39 0 -66.5 16.5t-42.5 40.5l67 42q6 -12 17 -21t25 -9q13 0 20.5 6.5t9.5 16.5q2 12 -10.5 20t-29.5 18q-12 6 -24.5 14.5t-21.5 20t-13.5 27t-0.5 37.5q5 33 33.5 53
t70.5 20q34 0 60 -13.5t39 -34.5l-64 -41q-13 25 -38 25q-24 0 -27 -20q-2 -11 10.5 -19t30.5 -17q12 -6 24.5 -14.5t22 -20t14 -28t0.5 -38.5q-5 -34 -31.5 -57.5t-74.5 -23.5z" />
    <glyph glyph-name="trademark" unicode="&#x2122;" horiz-adv-x="717" 
d="M409 730h76l60 -109l105 109h78l-52 -290h-77l30 169l-100 -98l-64 100l-30 -171h-77zM209 659h-82l13 71h239l-13 -71h-80l-39 -219h-77z" />
    <glyph glyph-name="uni2153" unicode="&#x2153;" horiz-adv-x="898" 
d="M649 -6q-54 0 -95.5 20t-62.5 53l89 52q7 -17 27 -29t46 -12q29 0 44 13t19 36t-13.5 35t-47.5 12h-43l15 83h46q62 0 70 42q4 23 -9 36t-42 13q-50 0 -76 -42l-76 52q29 32 69 51t92 19q34 0 60.5 -10t44 -27.5t25 -41t3.5 -49.5q-5 -29 -23 -50t-45 -35
q26 -17 38 -44.5t6 -62.5q-9 -54 -50.5 -84t-110.5 -30zM666 730h130l-652 -730h-130zM136 308l50 291q-11 -24 -35.5 -37t-50.5 -13h-6l16 91h3q45 0 67.5 24.5t30.5 65.5h89l-74 -422h-90z" />
    <glyph glyph-name="uni2154" unicode="&#x2154;" horiz-adv-x="1025" 
d="M81 380q5 30 19 53.5t33.5 42.5t43.5 33t49 26q38 17 63 34t29 41q4 20 -11 33.5t-41 13.5q-27 0 -46.5 -15t-31.5 -41l-81 37q26 43 65.5 70.5t102.5 27.5q33 0 60 -11t44.5 -30t25 -43.5t2.5 -52.5q-5 -25 -17.5 -44.5t-30.5 -35t-40 -27.5t-44 -23q-42 -20 -66.5 -35
t-29.5 -39h193l-16 -87h-288zM793 730h130l-652 -730h-130zM776 -6q-54 0 -95.5 20t-62.5 53l89 52q7 -17 27 -29t46 -12q29 0 44 13t19 36t-13.5 35t-47.5 12h-43l15 83h46q62 0 70 42q4 23 -9 36t-42 13q-50 0 -76 -42l-76 52q29 32 69 51t92 19q34 0 60.5 -10t44 -27.5
t25 -41t3.5 -49.5q-5 -29 -23 -50t-45 -35q26 -17 38 -44.5t6 -62.5q-9 -54 -50.5 -84t-110.5 -30z" />
    <glyph glyph-name="uni2155" unicode="&#x2155;" horiz-adv-x="894" 
d="M666 730h130l-652 -730h-130zM136 308l50 291q-11 -24 -35.5 -37t-50.5 -13h-6l16 91h3q45 0 67.5 24.5t30.5 65.5h89l-74 -422h-90zM651 -6q-54 0 -90.5 23t-53.5 65l91 42q7 -20 23 -32t39 -12q27 0 45 14t23 37q5 29 -9.5 48.5t-43.5 19.5q-23 0 -38.5 -9t-29.5 -25
l-77 30l68 227h254l-15 -86h-180l-25 -86q11 11 29.5 19.5t50.5 8.5q27 0 49.5 -12t37.5 -32.5t20.5 -48.5t-0.5 -60q-12 -64 -56.5 -97.5t-111.5 -33.5z" />
    <glyph glyph-name="uni2156" unicode="&#x2156;" horiz-adv-x="1021" 
d="M81 380q5 30 19 53.5t33.5 42.5t43.5 33t49 26q38 17 63 34t29 41q4 20 -11 33.5t-41 13.5q-27 0 -46.5 -15t-31.5 -41l-81 37q26 43 65.5 70.5t102.5 27.5q33 0 60 -11t44.5 -30t25 -43.5t2.5 -52.5q-5 -25 -17.5 -44.5t-30.5 -35t-40 -27.5t-44 -23q-42 -20 -66.5 -35
t-29.5 -39h193l-16 -87h-288zM793 730h130l-652 -730h-130zM778 -6q-54 0 -90.5 23t-53.5 65l91 42q7 -20 23 -32t39 -12q27 0 45 14t23 37q5 29 -9.5 48.5t-43.5 19.5q-23 0 -38.5 -9t-29.5 -25l-77 30l68 227h254l-15 -86h-180l-25 -86q11 11 29.5 19.5t50.5 8.5
q27 0 49.5 -12t37.5 -32.5t20.5 -48.5t-0.5 -60q-12 -64 -56.5 -97.5t-111.5 -33.5z" />
    <glyph glyph-name="uni2157" unicode="&#x2157;" horiz-adv-x="1002" 
d="M759 -6q-54 0 -90.5 23t-53.5 65l91 42q7 -20 23 -32t39 -12q27 0 45 14t23 37q5 29 -9.5 48.5t-43.5 19.5q-23 0 -38.5 -9t-29.5 -25l-77 30l68 227h254l-15 -86h-180l-25 -86q11 11 29.5 19.5t50.5 8.5q27 0 49.5 -12t37.5 -32.5t20.5 -48.5t-0.5 -60
q-12 -64 -56.5 -97.5t-111.5 -33.5zM220 302q-54 0 -95.5 20t-62.5 53l89 52q7 -17 27 -29t46 -12q29 0 44 13t19 36t-13.5 35t-47.5 12h-43l15 83h46q62 0 70 42q4 23 -9 36t-42 13q-50 0 -76 -42l-76 52q29 32 69 51t92 19q34 0 60.5 -10t44 -27.5t25 -41t3.5 -49.5
q-5 -29 -23 -50t-45 -35q26 -17 38 -44.5t6 -62.5q-9 -54 -50.5 -84t-110.5 -30zM774 730h130l-652 -730h-130z" />
    <glyph glyph-name="uni2158" unicode="&#x2158;" horiz-adv-x="1029" 
d="M258 398h-176l14 79l219 253h90l-44 -251h71l-15 -81h-70l-16 -90h-88zM272 479l20 114l-98 -114h78zM801 730h130l-652 -730h-130zM786 -6q-54 0 -90.5 23t-53.5 65l91 42q7 -20 23 -32t39 -12q27 0 45 14t23 37q5 29 -9.5 48.5t-43.5 19.5q-23 0 -38.5 -9t-29.5 -25
l-77 30l68 227h254l-15 -86h-180l-25 -86q11 11 29.5 19.5t50.5 8.5q27 0 49.5 -12t37.5 -32.5t20.5 -48.5t-0.5 -60q-12 -64 -56.5 -97.5t-111.5 -33.5z" />
    <glyph glyph-name="uni2159" unicode="&#x2159;" horiz-adv-x="878" 
d="M666 730h130l-652 -730h-130zM136 308l50 291q-11 -24 -35.5 -37t-50.5 -13h-6l16 91h3q45 0 67.5 24.5t30.5 65.5h89l-74 -422h-90zM635 -10q-38 0 -68.5 13.5t-51.5 39.5q-10 15 -17.5 31t-11 36t-3 45t6.5 58q19 103 79.5 159t157.5 56q37 0 60.5 -5t40.5 -13l-52 -83
q-11 8 -25.5 12t-38.5 4q-49 0 -83.5 -27t-51.5 -82q16 22 39.5 35t57.5 13q33 0 57.5 -12t40.5 -33.5t21.5 -50.5t-0.5 -62q-11 -60 -51.5 -97t-106.5 -37zM639 73q25 0 43 15.5t22 41.5q5 29 -10 51t-47 22q-30 0 -48 -16t-23 -39q-2 -13 0.5 -26.5t10.5 -24t21 -17.5
t31 -7z" />
    <glyph glyph-name="uni215A" unicode="&#x215a;" horiz-adv-x="986" 
d="M223 302q-54 0 -90.5 23t-53.5 65l91 42q7 -20 23 -32t39 -12q27 0 45 14t23 37q5 29 -9.5 48.5t-43.5 19.5q-23 0 -38.5 -9t-29.5 -25l-77 30l68 227h254l-15 -86h-180l-25 -86q11 11 29.5 19.5t50.5 8.5q27 0 49.5 -12t37.5 -32.5t20.5 -48.5t-0.5 -60
q-12 -64 -56.5 -97.5t-111.5 -33.5zM774 730h130l-652 -730h-130zM743 -10q-38 0 -68.5 13.5t-51.5 39.5q-10 15 -17.5 31t-11 36t-3 45t6.5 58q19 103 79.5 159t157.5 56q37 0 60.5 -5t40.5 -13l-52 -83q-11 8 -25.5 12t-38.5 4q-49 0 -83.5 -27t-51.5 -82q16 22 39.5 35
t57.5 13q33 0 57.5 -12t40.5 -33.5t21.5 -50.5t-0.5 -62q-11 -60 -51.5 -97t-106.5 -37zM747 73q25 0 43 15.5t22 41.5q5 29 -10 51t-47 22q-30 0 -48 -16t-23 -39q-2 -13 0.5 -26.5t10.5 -24t21 -17.5t31 -7z" />
    <glyph glyph-name="uni215B" unicode="&#x215b;" horiz-adv-x="906" 
d="M666 730h130l-652 -730h-130zM136 308l50 291q-11 -24 -35.5 -37t-50.5 -13h-6l16 91h3q45 0 67.5 24.5t30.5 65.5h89l-74 -422h-90zM644 -6q-82 0 -121 40t-27 103q5 29 24 53.5t49 41.5q-15 17 -21.5 39t-1.5 50q10 51 51 79t102 28q34 0 60.5 -10.5t44 -28.5t24 -42.5
t2.5 -53.5q-5 -27 -20 -46.5t-35 -33.5q21 -18 32 -43t6 -54q-9 -56 -51.5 -89t-117.5 -33zM649 76q35 0 54 13.5t23 34.5q4 25 -13 41t-53 16q-33 0 -53 -13t-24 -36t13 -39.5t53 -16.5zM683 260q29 0 44.5 11t19.5 31q3 20 -10 33.5t-43 13.5q-29 0 -45 -11t-20 -28
q-4 -21 9 -35.5t45 -14.5z" />
    <glyph glyph-name="uni215C" unicode="&#x215c;" horiz-adv-x="1014" 
d="M752 -5q-82 0 -121 40t-27 103q5 29 24 53.5t49 41.5q-15 17 -21.5 39t-1.5 50q10 51 51 79t102 28q34 0 60.5 -10.5t44 -28.5t24 -42.5t2.5 -53.5q-5 -27 -20 -46.5t-35 -33.5q21 -18 32 -43t6 -54q-9 -56 -51.5 -89t-117.5 -33zM757 77q35 0 54 13.5t23 34.5
q4 25 -13 41t-53 16q-33 0 -53 -13t-24 -36t13 -39.5t53 -16.5zM791 261q29 0 44.5 11t19.5 31q3 20 -10 33.5t-43 13.5q-29 0 -45 -11t-20 -28q-4 -21 9 -35.5t45 -14.5zM220 302q-54 0 -95.5 20t-62.5 53l89 52q7 -17 27 -29t46 -12q29 0 44 13t19 36t-13.5 35t-47.5 12
h-43l15 83h46q62 0 70 42q4 23 -9 36t-42 13q-50 0 -76 -42l-76 52q29 32 69 51t92 19q34 0 60.5 -10t44 -27.5t25 -41t3.5 -49.5q-5 -29 -23 -50t-45 -35q26 -17 38 -44.5t6 -62.5q-9 -54 -50.5 -84t-110.5 -30zM774 730h130l-652 -730h-130z" />
    <glyph glyph-name="uni215D" unicode="&#x215d;" horiz-adv-x="1014" 
d="M223 302q-54 0 -90.5 23t-53.5 65l91 42q7 -20 23 -32t39 -12q27 0 45 14t23 37q5 29 -9.5 48.5t-43.5 19.5q-23 0 -38.5 -9t-29.5 -25l-77 30l68 227h254l-15 -86h-180l-25 -86q11 11 29.5 19.5t50.5 8.5q27 0 49.5 -12t37.5 -32.5t20.5 -48.5t-0.5 -60
q-12 -64 -56.5 -97.5t-111.5 -33.5zM774 730h130l-652 -730h-130zM752 -6q-82 0 -121 40t-27 103q5 29 24 53.5t49 41.5q-15 17 -21.5 39t-1.5 50q10 51 51 79t102 28q34 0 60.5 -10.5t44 -28.5t24 -42.5t2.5 -53.5q-5 -27 -20 -46.5t-35 -33.5q21 -18 32 -43t6 -54
q-9 -56 -51.5 -89t-117.5 -33zM757 76q35 0 54 13.5t23 34.5q4 25 -13 41t-53 16q-33 0 -53 -13t-24 -36t13 -39.5t53 -16.5zM791 260q29 0 44.5 11t19.5 31q3 20 -10 33.5t-43 13.5q-29 0 -45 -11t-20 -28q-4 -21 9 -35.5t45 -14.5z" />
    <glyph glyph-name="uni215E" unicode="&#x215e;" horiz-adv-x="922" 
d="M307 644h-186l15 86h282l-14 -80l-209 -342h-99zM682 730h130l-652 -730h-130zM660 -6q-82 0 -121 40t-27 103q5 29 24 53.5t49 41.5q-15 17 -21.5 39t-1.5 50q10 51 51 79t102 28q34 0 60.5 -10.5t44 -28.5t24 -42.5t2.5 -53.5q-5 -27 -20 -46.5t-35 -33.5
q21 -18 32 -43t6 -54q-9 -56 -51.5 -89t-117.5 -33zM665 76q35 0 54 13.5t23 34.5q4 25 -13 41t-53 16q-33 0 -53 -13t-24 -36t13 -39.5t53 -16.5zM699 260q29 0 44.5 11t19.5 31q3 20 -10 33.5t-43 13.5q-29 0 -45 -11t-20 -28q-4 -21 9 -35.5t45 -14.5z" />
    <glyph glyph-name="uni215F" unicode="&#x215f;" horiz-adv-x="786" 
d="M666 730h130l-652 -730h-130zM136 308l50 291q-11 -24 -35.5 -37t-50.5 -13h-6l16 91h3q45 0 67.5 24.5t30.5 65.5h89l-74 -422h-90z" />
    <glyph glyph-name="arrowleft" unicode="&#x2190;" horiz-adv-x="944" 
d="M329 90q-18 36 -42 71.5t-52.5 68t-61.5 60.5t-67 49v52q34 22 67 52.5t61.5 65t50 69.5t33.5 65l95 -55q-23 -50 -62 -95t-79 -75h586v-104h-584q40 -28 79 -72t65 -91l-89 -61v0z" />
    <glyph glyph-name="arrowup" unicode="&#x2191;" horiz-adv-x="944" 
d="M451 574q-31 -39 -75.5 -77t-93.5 -61l-54 94q30 12 64.5 34t69 50t65.5 60.5t52 67.5h50q21 -35 52 -67.5t65.5 -60.5t69 -50t64.5 -34l-54 -94q-50 23 -94 61t-75 77v-574h-106v574z" />
    <glyph glyph-name="arrowright" unicode="&#x2192;" horiz-adv-x="944" 
d="M549 151q26 48 64.5 91.5t78.5 71.5h-583v104h585q-40 31 -78.5 75.5t-61.5 94.5l95 55q12 -30 33.5 -65t50 -69.5t61 -65.5t67.5 -52v-52q-35 -21 -67.5 -49t-61 -60.5t-53 -68t-42.5 -71.5z" />
    <glyph glyph-name="arrowdown" unicode="&#x2193;" horiz-adv-x="944" 
d="M445 -12q-21 34 -52 67t-65 61.5t-69 50t-65 33.5l55 95q48 -23 92.5 -61t75.5 -77v573h105v-576q30 40 75 79t95 62l55 -95q-30 -12 -65 -33.5t-69.5 -50t-65 -61.5t-52.5 -67h-50v0z" />
    <glyph glyph-name="uni2196" unicode="&#x2196;" horiz-adv-x="944" 
d="M182 269q13 38 21 82t10.5 89t-0.5 89.5t-13 82.5l37 38q40 -9 86.5 -11t92.5 2.5t87.5 14t71.5 22.5l7 -105q-46 -17 -102.5 -22t-106.5 0l415 -414l-74 -73l-412 411q9 -48 7 -105t-17 -109l-110 8v0z" />
    <glyph glyph-name="uni2197" unicode="&#x2197;" horiz-adv-x="944" 
d="M165 141l412 412q-47 -9 -104.5 -7t-109.5 17l8 110q38 -13 82 -21t89 -10t89 1t83 13l37 -37q-9 -40 -10.5 -86.5t3 -92.5t14 -87.5t21.5 -71.5l-105 -8q-17 46 -21.5 102.5t0.5 106.5l-414 -415z" />
    <glyph glyph-name="uni2198" unicode="&#x2198;" horiz-adv-x="944" 
d="M732 90q-40 9 -86.5 10.5t-92.5 -3t-87.5 -14t-71.5 -21.5l-7 105q46 17 102 21.5t106 -0.5l-414 414l74 74l411 -412q-9 47 -6.5 104.5t17.5 109.5l110 -8q-13 -38 -21 -82t-10.5 -89t0.5 -89t13 -83l-37 -37v0z" />
    <glyph glyph-name="uni2199" unicode="&#x2199;" horiz-adv-x="944" 
d="M589 66q-38 13 -82 21t-89 10.5t-89.5 -0.5t-82.5 -13l-38 37q9 40 11 86.5t-2.5 92.5t-14 87.5t-22.5 71.5l105 7q17 -46 22 -102.5t-1 -106.5l415 415l73 -74l-411 -412q47 9 104.5 7t109.5 -17l-8 -110v0z" />
    <glyph glyph-name="partialdiff" unicode="&#x2202;" horiz-adv-x="640" 
d="M300 -10q-59 0 -106.5 21.5t-80 59.5t-46.5 89.5t-5 111.5q7 51 30.5 93.5t58 73t77 47.5t88.5 17q42 0 72.5 -9.5t53.5 -25.5q-34 60 -93 123t-150 139h147q61 -58 109 -121t79 -128.5t42.5 -132t-0.5 -130.5q-9 -50 -32.5 -91.5t-59.5 -72t-82.5 -47.5t-101.5 -17z
M307 88q29 0 56.5 10t49.5 28.5t37 44.5t21 57q7 34 1 66.5t-24 58t-47.5 41.5t-68.5 16q-29 0 -56 -10t-49 -29t-37.5 -45t-21.5 -58q-6 -35 1 -67t25.5 -57.5t47 -40.5t65.5 -15z" />
    <glyph glyph-name="Delta" unicode="&#x2206;" horiz-adv-x="945" 
d="M4 0l553 742l299 -742h-852zM208 104h492l-172 426z" />
    <glyph glyph-name="product" unicode="&#x220f;" horiz-adv-x="828" 
d="M149 730h698l-18 -103h-130l-110 -627h-110l110 627h-216l-110 -627h-110l110 627h-132z" />
    <glyph glyph-name="summation" unicode="&#x2211;" horiz-adv-x="611" 
d="M33 108l281 269l-175 254l19 99h475l-18 -103h-351l181 -266l-271 -257h357l-18 -104h-497z" />
    <glyph glyph-name="minus" unicode="&#x2212;" horiz-adv-x="500" 
d="M91 411h370l-16 -92h-370z" />
    <glyph glyph-name="radical" unicode="&#x221a;" horiz-adv-x="837" 
d="M166 402h-87v98h163l133 -373l327 603h122l-404 -730h-108z" />
    <glyph glyph-name="infinity" unicode="&#x221e;" horiz-adv-x="963" 
d="M294 210q-36 0 -68 13.5t-55.5 37.5t-37.5 55.5t-14 67.5t14 68t37.5 56t55.5 37.5t68 13.5q30 0 57.5 -9t53.5 -24.5t50.5 -35.5t47.5 -41q23 22 47 42t50 35t53 24t56 9q36 0 68 -13.5t56 -37.5t37.5 -56t13.5 -68t-13.5 -67.5t-37.5 -55.5t-56 -37.5t-68 -13.5
q-29 0 -56 9t-53 24.5t-50.5 35.5t-47.5 42q-23 -22 -47.5 -42t-50.5 -35.5t-53.5 -24.5t-56.5 -9zM295 302q34 0 69 24t72 59q-36 33 -71 56.5t-70 23.5q-17 0 -31.5 -6.5t-26 -18t-18 -26t-6.5 -30.5q0 -17 6.5 -31.5t18 -26t26 -18t31.5 -6.5zM709 303q33 0 57 24.5
t24 57.5q0 16 -6.5 30.5t-17.5 26t-26 18t-31 6.5q-35 0 -69 -23.5t-71 -56.5q37 -35 71.5 -59t68.5 -24z" />
    <glyph glyph-name="integral" unicode="&#x222b;" horiz-adv-x="401" 
d="M-38 -101h22q25 0 41.5 3.5t27 14.5t17.5 30t12 51l93 530q10 64 24.5 104t38.5 62.5t60.5 30t90.5 7.5h31l-17 -100h-23q-25 0 -41 -3t-26.5 -14t-17.5 -31.5t-13 -56.5q0 -2 -4.5 -25t-11 -60.5t-14.5 -85t-17 -96.5l-46 -262q-10 -58 -23 -96t-34 -61t-54 -32.5
t-82 -9.5h-51z" />
    <glyph glyph-name="approxequal" unicode="&#x2248;" horiz-adv-x="500" 
d="M105 487q23 11 46 18.5t54 7.5q22 0 44.5 -6t44 -13.5t42 -13.5t40.5 -6q29 0 51 7.5t50 18.5l-17 -93q-23 -12 -45 -19t-55 -7q-21 0 -43 6t-44 13.5t-43 14t-40 6.5q-30 0 -54 -8t-48 -19zM75 320q23 11 45 19.5t53 8.5q22 0 45 -6t45.5 -13.5t44 -13.5t41.5 -6
q29 0 50 6.5t48 17.5l-17 -93q-23 -12 -43.5 -18.5t-53.5 -6.5q-21 0 -44 6t-46 13.5t-45 14t-41 6.5q-30 0 -52 -8.5t-46 -19.5z" />
    <glyph glyph-name="notequal" unicode="&#x2260;" horiz-adv-x="500" 
d="M106 492h189l37 69h80l-37 -69h101l-17 -92h-134l-39 -73h160l-16 -92h-193l-37 -70h-79l37 70h-98l16 92h131l39 73h-157z" />
    <glyph glyph-name="equivalence" unicode="&#x2261;" horiz-adv-x="500" 
d="M91 409h370l-17 -92h-370zM61 244h370l-16 -91h-370zM120 574h370l-16 -92h-370z" />
    <glyph glyph-name="lessequal" unicode="&#x2264;" horiz-adv-x="500" 
d="M89 403l17 92l393 136l-17 -97l-270 -87l240 -88l-17 -94zM58 228h370l-16 -92h-370z" />
    <glyph glyph-name="greaterequal" unicode="&#x2265;" horiz-adv-x="500" 
d="M82 364l270 87l-239 88l16 92l345 -137l-16 -92l-394 -137zM58 228h370l-16 -92h-370z" />
    <glyph glyph-name="squaremultiply" unicode="&#x22a0;" horiz-adv-x="974" 
d="M141 730h726v-730h-726v730zM250 104h509v522h-509v-522zM309 229l132 137l-134 140l64 63l133 -138l133 139l64 -63l-135 -140l133 -138l-64 -63l-132 136l-130 -136z" />
    <glyph glyph-name="house" unicode="&#x2302;" horiz-adv-x="922" 
d="M122 0v427l337 323l337 -323v-427h-674z" />
    <glyph glyph-name="blacksquare" unicode="&#x25a0;" horiz-adv-x="974" 
d="M141 730h726v-730h-726v730z" />
    <glyph glyph-name="blacksquare" unicode="&#xe740;" horiz-adv-x="974" 
d="M141 730h726v-730h-726v730z" />
    <glyph glyph-name="whitesquare" unicode="&#x25a1;" horiz-adv-x="974" 
d="M141 730h726v-730h-726v730zM250 104h509v522h-509v-522z" />
    <glyph glyph-name="blacksmallsquare" unicode="&#x25aa;" horiz-adv-x="748" 
d="M124 500h500v-500h-500v500z" />
    <glyph glyph-name="whitesmallsquare" unicode="&#x25ab;" horiz-adv-x="748" 
d="M124 500h500v-500h-500v500zM232 106h285v289h-285v-289z" />
    <glyph glyph-name="triagup" unicode="&#x25b2;" horiz-adv-x="945" 
d="M10 0l429 742l428 -742h-857z" />
    <glyph glyph-name="triagrt" unicode="&#x25ba;" horiz-adv-x="945" 
d="M163 800l742 -428l-742 -429v857z" />
    <glyph glyph-name="triagdn" unicode="&#x25bc;" horiz-adv-x="945" 
d="M976 730l-428 -742l-429 742h857z" />
    <glyph glyph-name="triaglf" unicode="&#x25c4;" horiz-adv-x="945" 
d="M821 -57l-742 429l742 428v-857z" />
    <glyph glyph-name="lozenge" unicode="&#x25ca;" horiz-adv-x="891" 
d="M80 378l434 368l328 -394l-434 -368zM421 126l282 236l-203 244l-282 -236z" />
    <glyph glyph-name="whitecircle" unicode="&#x25cb;" horiz-adv-x="975" 
d="M505 -10q-78 0 -146 29.5t-118.5 80.5t-80 119t-29.5 146t29.5 146t80 119t118.5 80.5t146 29.5t146.5 -29.5t119 -80.5t80 -119t29.5 -146t-29.5 -146t-80 -119t-119 -80.5t-146.5 -29.5zM505 96q56 0 104.5 21t84.5 58t56.5 85.5t20.5 104.5q0 55 -20.5 104.5t-56.5 86
t-84.5 58t-104.5 21.5t-104.5 -21.5t-84 -58t-56 -86t-20.5 -104.5q0 -56 20.5 -104.5t56 -85.5t84 -58t104.5 -21z" />
    <glyph glyph-name="whitecircle" unicode="&#x25ef;" horiz-adv-x="975" 
d="M505 -10q-78 0 -146 29.5t-118.5 80.5t-80 119t-29.5 146t29.5 146t80 119t118.5 80.5t146 29.5t146.5 -29.5t119 -80.5t80 -119t29.5 -146t-29.5 -146t-80 -119t-119 -80.5t-146.5 -29.5zM505 96q56 0 104.5 21t84.5 58t56.5 85.5t20.5 104.5q0 55 -20.5 104.5t-56.5 86
t-84.5 58t-104.5 21.5t-104.5 -21.5t-84 -58t-56 -86t-20.5 -104.5q0 -56 20.5 -104.5t56 -85.5t84 -58t104.5 -21z" />
    <glyph glyph-name="bullseye" unicode="&#x25ce;" horiz-adv-x="975" 
d="M505 -10q-78 0 -147 29.5t-120.5 80.5t-82 119t-30.5 146t30.5 146t82 119t120.5 80.5t147 29.5t147 -29.5t120.5 -80.5t82 -119t30.5 -146t-30.5 -146t-82 -119t-120.5 -80.5t-147 -29.5zM505 83q59 0 110 22.5t88.5 61t59 89.5t21.5 109t-21.5 109t-59 89.5t-88.5 61
t-110 22.5t-110 -22.5t-88.5 -61t-59 -89.5t-21.5 -109t21.5 -109t59 -89.5t88.5 -61t110 -22.5zM505 131q-49 0 -91 17.5t-73.5 48.5t-49.5 74t-18 93t18 93t49.5 74t73.5 48.5t91 17.5q48 0 90.5 -17.5t74 -48.5t50 -74t18.5 -93t-18.5 -93t-50 -74t-74 -48.5t-90.5 -17.5
zM505 221q29 0 54 11t43.5 30t29 45t10.5 57t-10.5 57t-29 45t-43.5 30t-54 11t-54 -11t-43.5 -30t-29 -45t-10.5 -57t10.5 -57t29 -45t43.5 -30t54 -11zM505 268q-39 0 -65.5 27t-26.5 69t26.5 69t65.5 27t65.5 -27t26.5 -69t-26.5 -69t-65.5 -27z" />
    <glyph glyph-name="blackcircle" unicode="&#x25cf;" horiz-adv-x="975" 
d="M505 -10q-78 0 -146 29.5t-118.5 80.5t-80 119t-29.5 146t29.5 146t80 119t118.5 80.5t146 29.5t146.5 -29.5t119 -80.5t80 -119t29.5 -146t-29.5 -146t-80 -119t-119 -80.5t-146.5 -29.5z" />
    <glyph glyph-name="uni25E2" unicode="&#x25e2;" horiz-adv-x="945" 
d="M337 -73l-222 828l828 -222z" />
    <glyph glyph-name="uni25E3" unicode="&#x25e3;" horiz-adv-x="945" 
d="M104 533l828 222l-222 -828z" />
    <glyph glyph-name="uni25E4" unicode="&#x25e4;" horiz-adv-x="945" 
d="M33 168l606 606l222 -828z" />
    <glyph glyph-name="uni25E5" unicode="&#x25e5;" horiz-adv-x="945" 
d="M53 -58l223 828l605 -607z" />
    <glyph glyph-name="uni2605" unicode="&#x2605;" horiz-adv-x="948" 
d="M666 85l-187 135l-186 -135l72 219l-186 135l229 -1l72 218l71 -218l230 -1l-187 -134z" />
    <glyph glyph-name="ballotboxwithx" unicode="&#x2612;" horiz-adv-x="748" 
d="M124 500h500v-500h-500v500zM223 97h302v306h-302v-306zM249 177l69 71l-71 70l56 56l70 -70l71 73l56 -56l-70 -72l71 -70l-56 -56l-71 69l-69 -71z" />
    <glyph glyph-name="uni263C" unicode="&#x263c;" horiz-adv-x="976" 
d="M328 365q0 36 14 67.5t37.5 55t55 37.5t67.5 14t67.5 -14t55 -37.5t37.5 -55t14 -67.5t-14 -67.5t-37.5 -55t-55 -37.5t-67.5 -14t-67.5 14t-55 37.5t-37.5 55t-14 67.5zM475 719h54l-17 -142h-20zM529 13h-54l17 142h20zM149 339v54l142 -17v-20zM855 393v-54l-142 17
v20zM181 519l28 47l115 -87l-10 -15zM823 213l-28 -47l-115 87l10 15zM302 659l47 28l55 -133l-15 -10zM702 73l-47 -28l-55 133l15 10zM655 687l47 -28l-87 -115l-15 10zM349 45l-47 28l87 115l15 -10zM793 566l30 -46l-133 -56l-10 16zM211 166l-30 46l133 56l10 -16z" />
    <glyph glyph-name="uni263E" unicode="&#x263e;" horiz-adv-x="835" 
d="M573 616q-50 0 -93.5 -20t-75.5 -54t-51 -79.5t-19 -97.5t19 -97.5t51 -79.5t75.5 -54t93.5 -20q18 0 36 3.5t35 8.5q-38 -27 -83.5 -42t-94.5 -15q-61 0 -115 23.5t-94 63.5t-63.5 94t-23.5 115t23.5 115t63.5 94t94 63.5t115 23.5q49 0 94.5 -15t83.5 -42
q-17 5 -35 8.5t-36 3.5z" />
    <glyph glyph-name="spade" unicode="&#x2660;" horiz-adv-x="968" 
d="M370 0q10 19 26 49.5t31 69t26 82.5t11 89q-9 -26 -24 -50.5t-36 -43.5t-48.5 -30.5t-61.5 -11.5q-35 0 -66 12.5t-54.5 34t-37 50.5t-13.5 61q0 43 13.5 80.5t42 75t73 77.5t106.5 90l140 112h1l140 -112q62 -50 105.5 -90t70.5 -77.5t39.5 -75t12.5 -80.5
q0 -32 -12.5 -60.5t-34 -50t-50 -34t-60.5 -12.5q-37 0 -66 11t-51.5 30t-38.5 43.5t-25 50.5q0 -45 12 -89t28 -82.5t33 -69t27 -49.5h-259z" />
    <glyph glyph-name="club" unicode="&#x2663;" horiz-adv-x="968" 
d="M366 0q9 17 22.5 43t27.5 58t25 69.5t16 77.5q-21 -52 -65 -85t-102 -33q-37 0 -69 14t-56 38t-38 56t-14 69t14 69t38 56t56 38t69 14q11 0 21.5 -2t20.5 -5q-19 41 -19 87q0 36 13.5 68t37.5 56t56 38t68 14t68 -14t56 -38t38 -56t14 -68q0 -45 -19 -88q22 8 46 8
q37 0 69 -14t56 -38t37.5 -56t13.5 -69t-14 -69t-38 -56t-56 -38t-69 -14q-58 0 -100.5 33t-62.5 84q5 -39 17.5 -76.5t27.5 -69.5t29.5 -58t23.5 -43h-259z" />
    <glyph glyph-name="heart" unicode="&#x2665;" horiz-adv-x="968" 
d="M162 550q0 39 14 73.5t39 60.5t58 41t72 15q38 0 70.5 -12.5t56.5 -34t39 -51t19 -63.5q4 34 19 63.5t39 51t56 34t71 12.5t73 -15t60 -41t41 -60.5t15 -73.5q0 -43 -13 -86.5t-41 -92.5t-72 -105.5t-106 -125.5l-142 -157l-141 157q-62 69 -105.5 125.5t-70.5 105.5
t-39 92.5t-12 86.5z" />
    <glyph glyph-name="diamond" unicode="&#x2666;" horiz-adv-x="968" 
d="M508 791l327 -401l-327 -400l-327 400z" />
    <glyph glyph-name="uni267B" unicode="&#x267b;" horiz-adv-x="969" 
d="M863 244l-91 -157q-7 -11 -14 -20.5t-16 -16.5t-21.5 -11t-30.5 -4h-54v-47l-106 128l106 127v-46h136q21 0 37.5 7.5t28.5 16.5q13 11 24 25zM223 111l-90 158q-6 11 -11 21.5t-6.5 22t1.5 24t12 28.5l27 46l-40 23l164 29l55 -156l-38 23q-18 -31 -33 -57
q-13 -22 -23.5 -40.5t-11.5 -20.5q-11 -18 -13 -36.5t0 -32.5q2 -17 9 -32h-2zM430 729h182q13 0 25 -1t22.5 -5.5t20 -13t18.5 -24.5l26 -46l41 23l-58 -157l-162 30l38 22l-67 118q-11 18 -25.5 29t-28.5 16q-16 6 -32 8v1zM301 670q4 6 12.5 14.5t19.5 14.5
q21 12 45 13.5t46 -4.5t39.5 -17.5t24.5 -24.5l-109 -189l-141 81zM343 35q-8 0 -19.5 2.5t-22.5 9.5q-21 12 -34.5 32t-19.5 42t-4.5 42.5t9.5 33.5h218v-162h-127zM873 381q9 -14 9 -41q0 -24 -10.5 -45.5t-27 -37.5t-34.5 -25.5t-33 -9.5l-109 189l140 80z" />
    <glyph glyph-name="uni267C" unicode="&#x267c;" horiz-adv-x="969" 
d="M877 366q0 -78 -29.5 -146.5t-80.5 -119t-119 -80t-146 -29.5t-147 29.5t-120 80t-80.5 119t-29.5 146.5t29.5 146.5t80.5 120t120 81t147 29.5t146 -29.5t119 -81t80.5 -120t29.5 -146.5zM295 520l109 -63l84 146q-6 10 -19 19t-30.5 13.5t-36 3.5t-34.5 -10
q-8 -5 -15 -11.5t-9 -11.5zM439 651q14 -2 26 -7q11 -5 22 -12.5t19 -21.5l53 -91l-30 -18l126 -23l44 122l-31 -18l-21 36q-14 24 -30 29t-37 5h-141v-1zM471 114v126h-170q-6 -11 -7 -26.5t4 -32.5t15 -32.5t27 -25.5q8 -5 17 -7t15 -2h99zM284 173q-4 12 -6 25
q-2 11 -0.5 25.5t9.5 28.5l53 91l30 -18l-43 121l-127 -22l31 -18l-21 -36q-15 -25 -10.5 -41t13.5 -34l70 -122h1zM737 468l-110 -63l85 -147q12 0 26 7.5t27 20t21 29.5t8 36q0 10 -2.5 18.5t-5.5 13.5zM778 277q-8 -11 -19 -19q-9 -7 -21.5 -12.5t-29.5 -5.5h-105v35
l-83 -98l83 -99v36h41q29 0 41.5 11.5t22.5 28.5l71 122z" />
    <glyph glyph-name="uni267D" unicode="&#x267d;" horiz-adv-x="969" 
d="M876 366q0 -78 -29.5 -146.5t-80.5 -119t-119 -80t-146 -29.5t-147 29.5t-120 80t-80.5 119t-29.5 146.5t29.5 146.5t80.5 120t120 81t147 29.5t146 -29.5t119 -81t80.5 -120t29.5 -146.5zM857 366q0 74 -28 139.5t-76 114t-113 76.5t-139 28q-75 0 -140 -28t-114 -76.5
t-77 -114t-28 -139.5t28 -139t77 -113.5t114 -76.5t140 -28q74 0 139 28t113 76.5t76 113.5t28 139zM343 606q2 5 9 11.5t15 11.5q16 9 34.5 10t36 -3.5t30.5 -13.5t19 -19l-84 -146l-109 63zM438 652h141q21 0 37 -5t30 -29l21 -36l31 18l-44 -122l-126 23l30 18l-53 91
q-8 14 -19 21.5t-22 12.5q-12 5 -26 7v1zM371 114q-6 0 -15 2t-17 7q-17 10 -27 25.5t-15 32.5t-4 32.5t7 26.5h170v-126h-99zM282 173l-70 122q-9 18 -13.5 34t10.5 41l21 36l-31 18l127 22l43 -121l-30 18l-53 -91q-8 -14 -9.5 -28.5t0.5 -25.5q2 -13 6 -25h-1zM785 383
q3 -5 5.5 -13.5t2.5 -18.5q0 -19 -8 -36t-21 -29.5t-27 -20t-26 -7.5l-85 147l110 63zM778 276l-71 -122q-10 -17 -22.5 -28.5t-41.5 -11.5h-41v-36l-83 99l83 98v-35h105q17 0 29.5 5.5t21.5 12.5q11 8 19 19z" />
    <glyph glyph-name="mediumwhitecircle" unicode="&#x26aa;" horiz-adv-x="746" 
d="M373 -10q-54 0 -101 20t-82.5 55.5t-55.5 83t-20 101.5q0 55 20 102.5t55.5 82.5t82.5 55t101 20t101 -20t82.5 -55t55.5 -82.5t20 -102.5q0 -54 -20 -101.5t-55.5 -83t-82.5 -55.5t-101 -20zM373 90q32 0 60 12.5t49 34.5t33 51t12 62t-12 62t-33 51t-49 34.5t-60 12.5
q-33 0 -61 -12.5t-48.5 -34.5t-32 -51t-11.5 -62t11.5 -62t32 -51t48.5 -34.5t61 -12.5z" />
    <glyph glyph-name="mediumblackcircle" unicode="&#x26ab;" horiz-adv-x="746" 
d="M373 -10q-54 0 -101 20.5t-82.5 55.5t-55.5 82.5t-20 101.5t20 101.5t55.5 82.5t82.5 55.5t101 20.5t101 -20.5t82.5 -55.5t55.5 -82.5t20 -101.5t-20 -101.5t-55.5 -82.5t-82.5 -55.5t-101 -20.5z" />
    <glyph glyph-name="anglebracketleft" unicode="&#x3008;" horiz-adv-x="413" 
d="M64 264l250 466h121l-258 -481l84 -479h-112z" />
    <glyph glyph-name="anglebracketright" unicode="&#x3009;" horiz-adv-x="413" 
d="M233 251l-84 479h112l85 -494l-249 -466h-122z" />
    <glyph glyph-name="cordinal" unicode="&#xe181;" horiz-adv-x="410" 
d="M245 411q-35 0 -64 14t-49 37t-29 54t-4 66q4 33 19.5 61t38.5 49t53 32.5t64 11.5q49 0 86 -24.5t54 -66.5l-75 -33q-8 21 -26.5 35t-45.5 14q-17 0 -32 -6.5t-27 -17.5t-20 -26t-10 -32q-7 -36 13.5 -63.5t59.5 -27.5q25 0 46 12.5t33 35.5l71 -34q-21 -42 -61.5 -66.5
t-94.5 -24.5z" />
    <glyph glyph-name="fi" unicode="&#xe38c;" horiz-adv-x="619" 
d="M70 540h92l6 32q12 67 27.5 109t40.5 66t63 32.5t95 8.5h47l-18 -101h-38q-28 0 -46 -3t-30.5 -15t-20.5 -35t-15 -63l-6 -31h130l-17 -97h-130l-78 -443h-104l77 443h-92zM401 0l95 540h109l-95 -540h-109zM573 626q-36 0 -55.5 25t-13.5 60q5 29 28 47.5t51 18.5
q19 0 33.5 -7.5t23.5 -19.5t12.5 -27t0.5 -31q-6 -29 -27.5 -47.5t-52.5 -18.5z" />
    <glyph glyph-name="fi" unicode="&#xfb01;" horiz-adv-x="619" 
d="M70 540h92l6 32q12 67 27.5 109t40.5 66t63 32.5t95 8.5h47l-18 -101h-38q-28 0 -46 -3t-30.5 -15t-20.5 -35t-15 -63l-6 -31h130l-17 -97h-130l-78 -443h-104l77 443h-92zM401 0l95 540h109l-95 -540h-109zM573 626q-36 0 -55.5 25t-13.5 60q5 29 28 47.5t51 18.5
q19 0 33.5 -7.5t23.5 -19.5t12.5 -27t0.5 -31q-6 -29 -27.5 -47.5t-52.5 -18.5z" />
    <glyph glyph-name="fl" unicode="&#xe38d;" horiz-adv-x="617" 
d="M70 540h92l6 32q12 67 27.5 109t40.5 66t63 32.5t95 8.5h47l-18 -101h-38q-28 0 -46 -3t-30.5 -15t-20.5 -35t-15 -63l-6 -31h130l-17 -97h-130l-78 -443h-104l77 443h-92zM539 788h107l-138 -788h-107z" />
    <glyph glyph-name="fl" unicode="&#xfb02;" horiz-adv-x="617" 
d="M70 540h92l6 32q12 67 27.5 109t40.5 66t63 32.5t95 8.5h47l-18 -101h-38q-28 0 -46 -3t-30.5 -15t-20.5 -35t-15 -63l-6 -31h130l-17 -97h-130l-78 -443h-104l77 443h-92zM539 788h107l-138 -788h-107z" />
    <glyph glyph-name="invertedbreve" unicode="&#xe411;" horiz-adv-x="530" 
d="M169 609q6 36 22 66.5t40 53t56 35t70 12.5q40 0 68 -13t45 -36t22.5 -53.5t-0.5 -64.5h-77q9 48 -8.5 73.5t-58.5 27.5q-84 -3 -102 -101h-77v0z" />
    <glyph glyph-name="doublegrave" unicode="&#xe412;" horiz-adv-x="530" 
d="M319 772h107l73 -166h-77zM173 772h111l81 -166h-79z" />
    <glyph glyph-name="caronSlovak" unicode="&#xe413;" horiz-adv-x="530" 
d="M290 627q38 17 65 40t31 49v2q-6 -20 -19.5 -27t-30.5 -7q-24 0 -38 20t-9 44q5 26 25.5 45t55.5 19q36 0 57.5 -26.5t14.5 -68.5q-8 -43 -42 -76t-82 -55z" />
    <glyph glyph-name="commaaccent" unicode="&#xe414;" horiz-adv-x="531" 
d="M154 -243q38 17 65 40t31 49v3q-6 -20 -19.5 -27.5t-30.5 -7.5q-24 0 -38 20t-9 44q5 26 25.5 45t55.5 19q36 0 57.5 -26.5t14.5 -68.5q-8 -43 -42 -76t-82 -55z" />
    <glyph glyph-name="commaaccent" unicode="&#xf6c3;" horiz-adv-x="531" 
d="M154 -243q38 17 65 40t31 49v3q-6 -20 -19.5 -27.5t-30.5 -7.5q-24 0 -38 20t-9 44q5 26 25.5 45t55.5 19q36 0 57.5 -26.5t14.5 -68.5q-8 -43 -42 -76t-82 -55z" />
    <glyph glyph-name="dotbelow" unicode="&#xe415;" horiz-adv-x="531" 
d="M196 -208q-36 0 -55 24t-12 57q5 29 27 46.5t49 17.5q38 0 55.5 -25.5t11.5 -56.5q-5 -28 -26 -45.5t-50 -17.5z" />
    <glyph glyph-name="altcedilla" unicode="&#xe416;" horiz-adv-x="530" 
d="M180 -237q-53 0 -90.5 16t-61.5 42l75 43q17 -16 35.5 -25.5t45.5 -9.5q56 0 62 33q8 34 -57 34h-32l10 55h33q69 0 100.5 -28.5t23.5 -70.5q-8 -44 -48.5 -66.5t-95.5 -22.5z" />
    <glyph glyph-name="exclamdown.cap" unicode="&#xe441;" horiz-adv-x="267" 
d="M213 538q-2 -41 -7 -93t-12 -108t-15 -113t-17 -107l-20 -117h-108l20 117q9 50 21 107t25.5 113t27 108t25.5 93h60zM201 594q-38 0 -58 25.5t-13 60.5q5 29 28.5 48t52.5 19q19 0 34 -7t24 -19t12.5 -27.5t0.5 -31.5q-6 -30 -28 -49t-53 -19z" />
    <glyph glyph-name="questiondown.cap" unicode="&#xe444;" horiz-adv-x="577" 
d="M270 -10q-53 0 -95.5 17t-70.5 46t-40 67t-4 81q7 43 26.5 70.5t44.5 47.5t53 37t54 39.5t46 54t29 81.5l2 10h96l-1 -10q-11 -64 -31.5 -105.5t-45.5 -69.5t-52 -46t-50 -34t-40 -34.5t-22 -47.5q-8 -48 23 -78.5t87 -30.5q41 0 72.5 18t51.5 46l87 -54
q-32 -48 -89.5 -76.5t-130.5 -28.5zM378 594q-38 0 -58.5 25.5t-13.5 60.5q5 29 29 48t53 19q19 0 34 -7t24 -19t12.5 -27.5t0.5 -31.5q-6 -30 -28 -49t-53 -19z" />
    <glyph glyph-name="guilsinglleft.cap" unicode="&#xe451;" horiz-adv-x="327" 
d="M93 328l12 68l183 119l-14 -85l-112 -71l87 -70l-14 -80z" />
    <glyph glyph-name="guilsinglright.cap" unicode="&#xe452;" horiz-adv-x="327" 
d="M269 395l-12 -68l-183 -119l15 85l111 70l-87 71l15 80z" />
    <glyph glyph-name="guillemotleft.cap" unicode="&#xe453;" horiz-adv-x="515" 
d="M93 328l12 68l183 119l-14 -85l-112 -71l87 -70l-14 -80zM281 328l12 68l183 119l-14 -85l-112 -71l87 -70l-14 -80z" />
    <glyph glyph-name="guillemotright.cap" unicode="&#xe454;" horiz-adv-x="515" 
d="M457 395l-12 -68l-183 -119l15 85l111 70l-87 71l15 80zM269 395l-12 -68l-183 -119l15 85l111 70l-87 71l15 80z" />
    <glyph glyph-name="slash.cap" unicode="&#xe461;" horiz-adv-x="541" 
d="M466 730h117l-471 -730h-119z" />
    <glyph glyph-name="backslash.cap" unicode="&#xe462;" horiz-adv-x="541" 
d="M122 730h113l220 -730h-113z" />
    <glyph glyph-name="bar.cap" unicode="&#xe463;" horiz-adv-x="255" 
d="M176 840h110l-169 -960h-110z" />
    <glyph glyph-name="doublebar.cap" unicode="&#xe464;" horiz-adv-x="442" 
d="M176 840h110l-169 -960h-110zM363 840h110l-169 -960h-110z" />
    <glyph glyph-name="brokenbar.cap" unicode="&#xe465;" horiz-adv-x="255" 
d="M176 840h110l-74 -420h-110zM81 300h110l-74 -420h-110z" />
    <glyph glyph-name="bullet.cap" unicode="&#xe466;" horiz-adv-x="410" 
d="M224 270q-19 0 -36 7.5t-29.5 20t-20 29.5t-7.5 36t7.5 36t20 29.5t29.5 20t36 7.5t36 -7.5t29.5 -20t20 -29.5t7.5 -36t-7.5 -36t-20 -29.5t-29.5 -20t-36 -7.5z" />
    <glyph glyph-name="slash.smcp" unicode="&#xe467;" horiz-adv-x="496" 
d="M389 596h117l-384 -596h-116z" />
    <glyph glyph-name="backslash.smcp" unicode="&#xe468;" horiz-adv-x="496" 
d="M111 596h109l181 -596h-109z" />
    <glyph glyph-name="bar.smcp" unicode="&#xe469;" horiz-adv-x="254" 
d="M149 686h108l-138 -784h-108z" />
    <glyph glyph-name="doublebar.smcp" unicode="&#xe46a;" horiz-adv-x="438" 
d="M149 686h108l-138 -784h-108zM335 686h107l-138 -784h-107z" />
    <glyph glyph-name="onethirdemdash" unicode="&#xe471;" horiz-adv-x="453" 
d="M75 301h320l-17 -92h-320z" />
    <glyph glyph-name="threequarteremdash" unicode="&#xe472;" 
d="M75 301h505l-17 -92h-505z" />
    <glyph glyph-name="periodcentered.cap" unicode="&#xe481;" horiz-adv-x="248" 
d="M136 290q-35 0 -54 24t-13 57q5 29 27 46.5t50 17.5q37 0 54.5 -25.5t12.5 -56.5q-5 -28 -26.5 -45.5t-50.5 -17.5z" />
    <glyph glyph-name="hyphen.cap" unicode="&#xe482;" horiz-adv-x="500" 
d="M92 410h370l-17 -91h-370z" />
    <glyph glyph-name="onethirdemdash.cap" unicode="&#xe483;" horiz-adv-x="453" 
d="M92 410h320l-17 -91h-320z" />
    <glyph glyph-name="endash.cap" unicode="&#xe484;" horiz-adv-x="535" 
d="M92 410h405l-17 -91h-405z" />
    <glyph glyph-name="threequarteremdash.cap" unicode="&#xe485;" 
d="M92 410h505l-17 -91h-505z" />
    <glyph glyph-name="emdash.cap" unicode="&#xe486;" horiz-adv-x="738" 
d="M92 410h605l-17 -91h-605z" />
    <glyph glyph-name="figuredash.cap" unicode="&#xe487;" horiz-adv-x="688" 
d="M92 410h555l-17 -91h-555z" />
    <glyph glyph-name="uni2015.cap" unicode="&#xe488;" horiz-adv-x="1038" 
d="M92 410h905l-17 -91h-905z" />
    <glyph glyph-name="parenleft.cap" unicode="&#xe491;" horiz-adv-x="448" 
d="M277 -129q-54 43 -96.5 96t-69.5 118t-35 143t8 171q14 86 48 157t82 129t106.5 102.5t121.5 77.5l62 -88q-123 -61 -202.5 -157t-105.5 -236q-23 -137 15.5 -242t140.5 -184z" />
    <glyph glyph-name="parenright.cap" unicode="&#xe492;" horiz-adv-x="448" 
d="M206 859q53 -43 96 -95.5t69.5 -117t35 -142t-7.5 -170.5q-14 -86 -47.5 -158.5t-80.5 -131.5t-105 -104.5t-121 -78.5l-63 90q124 61 201 158.5t103 238.5q23 138 -15 241.5t-140 182.5z" />
    <glyph glyph-name="bracketleft.cap" unicode="&#xe493;" horiz-adv-x="416" 
d="M176 840h273l-18 -103h-163l-133 -754h163l-18 -103h-273z" />
    <glyph glyph-name="bracketright.cap" unicode="&#xe494;" horiz-adv-x="416" 
d="M22 -17h163l134 754h-163l18 103h273l-169 -960h-273z" />
    <glyph glyph-name="braceleft.cap" unicode="&#xe495;" horiz-adv-x="436" 
d="M302 -120q-63 0 -103 11t-61.5 36.5t-25 67t7.5 102.5l19 109q5 29 6 48.5t-6.5 31.5t-25.5 17t-49 5l17 101q31 0 50.5 5t31.5 16.5t19 31t12 49.5l19 112q11 61 29 102.5t48 67t74 36.5t107 11h11l-17 -99q-40 0 -65 -5t-40 -18t-23.5 -36t-14.5 -60l-20 -112
q-11 -61 -33.5 -98t-66.5 -55q37 -18 47 -54.5t-1 -95.5l-19 -109q-6 -36 -6 -59.5t11 -36.5t34 -18t63 -5l-18 -99h-11z" />
    <glyph glyph-name="braceright.cap" unicode="&#xe496;" horiz-adv-x="442" 
d="M15 -21q40 0 65 5t40 18t23.5 36.5t14.5 59.5l19 108q10 61 32.5 98t66.5 54q-37 19 -47 55.5t1 96.5l21 112q6 37 6 60t-11 36t-34 18t-63 5l17 99h11q63 0 103 -11t61.5 -36.5t25 -67t-7.5 -102.5l-20 -112q-5 -29 -5.5 -49t7 -32t25 -17t49.5 -5l-18 -101
q-31 0 -50.5 -5t-31.5 -16.5t-18.5 -31t-11.5 -49.5l-19 -108q-11 -61 -29 -102.5t-48 -67t-74 -36.5t-107 -11h-11z" />
    <glyph glyph-name="anglebracketleft.cap" unicode="&#xe497;" horiz-adv-x="413" 
d="M85 374l249 466h122l-259 -481l85 -479h-112z" />
    <glyph glyph-name="anglebracketright.cap" unicode="&#xe498;" horiz-adv-x="413" 
d="M252 360l-83 480h112l85 -494l-250 -466h-122z" />
    <glyph glyph-name="a.alt" unicode="&#xe4c0;" horiz-adv-x="612" 
d="M203 -11q-54 0 -90.5 14t-58.5 38.5t-28.5 57t-0.5 70.5q14 77 84.5 118t186.5 41h162l2 9q11 57 -21 89.5t-108 32.5q-54 0 -93.5 -19.5t-69.5 -60.5l-86 58q50 54 112 84t150 30q59 0 103.5 -16.5t72.5 -46.5t39 -71t3 -89l-57 -328h-104l15 89q-35 -45 -87 -72.5
t-126 -27.5zM443 242h-155q-75 0 -111 -22t-44 -62q-12 -75 94 -75q27 0 56.5 7.5t57 22t52 36t42.5 48.5z" />
    <glyph glyph-name="lowline" unicode="&#xe511;" horiz-adv-x="500" 
d="M36 92h370l-16 -92h-371z" />
    <glyph glyph-name="underscoremonospace" unicode="&#xe512;" horiz-adv-x="657" 
d="M12 -50h534l-16 -91h-535z" />
    <glyph glyph-name="underscoremonospace" unicode="&#xff3f;" horiz-adv-x="657" 
d="M12 -50h534l-16 -91h-535z" />
    <glyph glyph-name="at.cap" unicode="&#xe513;" horiz-adv-x="859" 
d="M418 -10q-86 0 -154 33t-112 90t-62 132t-4 159q12 71 48.5 132.5t90.5 106.5t122.5 71t145.5 26q75 0 141 -28t112.5 -77.5t68.5 -116t8 -144.5q-7 -39 -21.5 -72.5t-37.5 -59t-54.5 -40t-70.5 -14.5q-41 0 -65.5 14.5t-36.5 36.5q-20 -22 -49.5 -36t-70.5 -14t-72 15.5
t-50.5 41.5t-26.5 61t0 73q6 34 22.5 65t41.5 54t57 37t69 14t62.5 -14t40.5 -36q2 9 3.5 17t2.5 14q1 7 2 13h90l-41 -181q-11 -46 -2 -66t37 -20q19 0 33.5 10.5t24 26.5t15.5 35.5t9 37.5q10 55 -5 103.5t-48.5 85t-83 57.5t-109.5 21q-57 0 -109.5 -20t-94.5 -55.5
t-70.5 -82.5t-37.5 -101q-11 -62 1.5 -119t45 -101.5t83.5 -71t119 -26.5q60 0 106 20t88 63l72 -58q-51 -54 -117.5 -83t-156.5 -29zM434 274q42 0 68 28t34 65q5 21 2 39t-12.5 31.5t-24.5 21.5t-33 8q-22 0 -40.5 -8t-32.5 -21.5t-23.5 -31t-12.5 -35.5q-6 -39 14.5 -68
t60.5 -29z" />
    <glyph glyph-name="zero.LT" unicode="&#xe53f;" 
d="M283 -10q-57 0 -104 22t-77 64.5t-40.5 106t4.5 147.5l12 65q32 175 108.5 259.5t202.5 84.5q62 0 109.5 -23t77 -66.5t38.5 -107t-6 -144.5l-12 -66q-18 -96 -47.5 -161.5t-69.5 -105.5t-89.5 -57.5t-106.5 -17.5zM292 91q38 0 68.5 12.5t54.5 41t41.5 75.5t29.5 115
l12 66q11 62 8 107t-18.5 74t-43 42.5t-64.5 13.5q-72 0 -121.5 -58t-71.5 -186l-11 -64q-22 -118 10.5 -178.5t105.5 -60.5z" />
    <glyph glyph-name="one.LT" unicode="&#xe541;" 
d="M47 104h186l81 458q-17 -27 -51.5 -46t-77.5 -19h-11l20 113h5q36 0 62.5 11.5t45 29t29 38.5t13.5 41h105l-110 -626h194l-17 -104h-491z" />
    <glyph glyph-name="two.LT" unicode="&#xe542;" 
d="M53 104q8 45 32.5 82t59.5 68t76.5 57.5t83.5 50.5q35 21 68.5 40.5t60.5 40.5t45.5 43.5t23.5 48.5q9 48 -24.5 79.5t-93.5 31.5q-51 0 -91.5 -25t-62.5 -66l-92 45q37 66 102.5 103t148.5 37q52 0 96.5 -16t74.5 -44.5t43.5 -69.5t4.5 -90q-7 -40 -30 -73t-56 -61.5
t-72.5 -53t-79.5 -47.5q-36 -21 -70.5 -41.5t-62 -42.5t-46.5 -46t-24 -51h366l-18 -104h-481z" />
    <glyph glyph-name="three.LT" unicode="&#xe543;" 
d="M291 -10q-106 0 -171.5 38t-97.5 98l96 55q50 -93 173 -93q26 0 52.5 7t48.5 21.5t37 35.5t20 49q5 27 -3 50t-27 40t-47.5 26.5t-64.5 9.5h-81l17 100h87q70 0 113 30t51 78q9 51 -25 83t-100 32q-31 0 -57 -8t-47 -21t-37.5 -30.5t-29.5 -35.5l-85 56q19 26 44 49.5
t57 41t71 28t87 10.5q58 0 104 -16t76 -44.5t42.5 -69t3.5 -89.5q-18 -104 -133 -148q54 -26 79 -75.5t13 -119.5q-8 -44 -31.5 -79t-59 -59t-80 -37t-95.5 -13z" />
    <glyph glyph-name="four.LT" unicode="&#xe544;" 
d="M364 154h-331l16 100l413 476h110l-84 -477h100l-18 -99h-99l-27 -154h-107zM381 253l53 300l-261 -300h208z" />
    <glyph glyph-name="five.LT" unicode="&#xe545;" 
d="M282 -10q-91 0 -151 42t-89 111l106 48q17 -45 52 -73t88 -28q63 0 105.5 34.5t56.5 91.5q8 36 3.5 66.5t-21 53t-44.5 35.5t-66 13q-44 0 -80 -17.5t-60 -46.5l-92 42l117 368h417l-18 -103h-326l-60 -186q25 18 58 29.5t78 11.5q55 0 98 -22.5t70 -60t36.5 -86
t-1.5 -100.5q-11 -50 -33.5 -91t-57 -70t-81.5 -45.5t-105 -16.5z" />
    <glyph glyph-name="six.LT" unicode="&#xe546;" 
d="M315 -10q-120 0 -188 80q-42 50 -52 130t5 181q16 95 50 163t80 111.5t102 64t117 20.5q72 0 121.5 -19.5t84.5 -48.5l-76 -88q-19 20 -53 36t-83 16q-41 0 -77 -12.5t-66.5 -40.5t-54 -71.5t-37.5 -106.5q32 35 73.5 52t92.5 17q57 0 101.5 -21.5t73.5 -58t40 -84.5
t2 -100q-8 -43 -27.5 -83t-51.5 -70.5t-76 -48.5t-101 -18zM312 88q31 0 57.5 10t47 27.5t33 41.5t17.5 52q6 30 0 59.5t-23 52t-44 36.5t-64 14q-63 0 -105 -35t-53 -90q-6 -34 1 -64.5t25 -53.5t45.5 -36.5t62.5 -13.5z" />
    <glyph glyph-name="seven.LT" unicode="&#xe547;" 
d="M515 627h-385l18 103h503l-16 -94l-409 -636h-124z" />
    <glyph glyph-name="eight.LT" unicode="&#xe548;" 
d="M287 -10q-66 0 -116 17.5t-81.5 49t-43.5 76t-3 98.5q8 54 44.5 96t96.5 66q-36 29 -52 71.5t-6 97.5q7 38 26 70.5t50.5 56.5t76 37.5t102.5 13.5q60 0 105 -17.5t73.5 -48.5t39 -72t2.5 -87q-9 -50 -39.5 -84.5t-75.5 -55.5q46 -30 68 -78.5t13 -104.5
q-15 -92 -87.5 -147t-192.5 -55zM296 87q74 0 116 32.5t50 82.5q5 28 -1 52.5t-24.5 42.5t-49 28t-74.5 10q-81 0 -119 -32t-47 -85q-5 -24 2 -47t25 -42t48.5 -30.5t73.5 -11.5zM348 427q71 0 107.5 29t44.5 76q8 51 -24 82t-104 31q-68 0 -104 -26t-44 -71q-4 -25 1 -47
t20 -38.5t40.5 -26t62.5 -9.5z" />
    <glyph glyph-name="nine.LT" unicode="&#xe549;" 
d="M237 -10q-72 0 -121.5 19.5t-84.5 48.5l76 88q19 -20 53 -36t83 -16q40 0 76.5 12.5t67 40t53.5 71.5t38 107q-63 -69 -166 -69q-57 0 -101.5 21.5t-73.5 58t-40 84.5t-2 100q7 43 27 83t52 70.5t76 48.5t101 18q120 0 188 -80q42 -50 52 -130t-5 -181
q-17 -95 -50.5 -163t-79.5 -111.5t-102 -64t-117 -20.5zM330 349q63 0 105 35t53 90q6 34 -1 64.5t-25 53.5t-45.5 36.5t-62.5 13.5q-32 0 -58 -10t-46.5 -27.5t-33.5 -41.5t-17 -52q-6 -30 0 -59.5t23 -52t44 -36.5t64 -14z" />
    <glyph glyph-name="zero.inf" unicode="&#xe571;" horiz-adv-x="421" 
d="M135 -217q-39 0 -70 13t-51 39.5t-27 67.5t3 98l4 23q19 100 69.5 146.5t128.5 46.5q38 0 68.5 -13t50 -40t26.5 -67.5t-2 -94.5l-4 -23q-10 -57 -29 -95t-44.5 -60.5t-56.5 -31.5t-66 -9zM143 -126q42 0 63 29.5t31 87.5l4 23q21 113 -57 113q-43 0 -64.5 -28.5
t-31.5 -84.5l-4 -23q-21 -117 59 -117z" />
    <glyph glyph-name="one.inf" unicode="&#xe572;" horiz-adv-x="243" 
d="M17 -211l50 291q-11 -24 -35.5 -37t-50.5 -13h-6l16 91h3q45 0 67.5 24.5t30.5 65.5h89l-74 -422h-90z" />
    <glyph glyph-name="two.inf" unicode="&#xe573;" horiz-adv-x="354" 
d="M-38 -139q5 30 19 53.5t33.5 42.5t43.5 33t49 26q38 17 63 34t29 41q4 20 -11 33.5t-41 13.5q-27 0 -46.5 -15t-31.5 -41l-81 37q26 43 65.5 70.5t102.5 27.5q33 0 60 -11t44.5 -30t25 -43.5t2.5 -52.5q-5 -25 -17.5 -44.5t-30.5 -35t-40 -27.5t-44 -23
q-42 -20 -66.5 -35t-29.5 -39h193l-16 -87h-288z" />
    <glyph glyph-name="three.inf" unicode="&#xe574;" horiz-adv-x="355" 
d="M101 -217q-54 0 -95.5 20t-62.5 53l89 52q7 -17 27 -29t46 -12q29 0 44 13t19 36t-13.5 35t-47.5 12h-43l15 83h46q62 0 70 42q4 23 -9 36t-42 13q-50 0 -76 -42l-76 52q29 32 69 51t92 19q34 0 60.5 -10t44 -27.5t25 -41t3.5 -49.5q-5 -29 -23 -50t-45 -35
q26 -17 38 -44.5t6 -62.5q-9 -54 -50.5 -84t-110.5 -30z" />
    <glyph glyph-name="four.inf" unicode="&#xe575;" horiz-adv-x="391" 
d="M139 -121h-176l14 79l219 253h90l-44 -251h71l-15 -81h-70l-16 -90h-88zM153 -40l20 114l-98 -114h78z" />
    <glyph glyph-name="five.inf" unicode="&#xe576;" horiz-adv-x="358" 
d="M103 -217q-54 0 -90.5 23t-53.5 65l91 42q7 -20 23 -32t39 -12q27 0 45 14t23 37q5 29 -9.5 48.5t-43.5 19.5q-23 0 -38.5 -9t-29.5 -25l-77 30l68 227h254l-15 -86h-180l-25 -86q11 11 29.5 19.5t50.5 8.5q27 0 49.5 -12t37.5 -32.5t20.5 -48.5t-0.5 -60
q-12 -64 -56.5 -97.5t-111.5 -33.5z" />
    <glyph glyph-name="six.inf" unicode="&#xe577;" horiz-adv-x="375" 
d="M127 -221q-38 0 -68.5 13.5t-51.5 39.5q-10 15 -17.5 31t-11 36t-3 45t6.5 58q19 103 79.5 159t157.5 56q37 0 60.5 -5t40.5 -13l-52 -83q-11 8 -25.5 12t-38.5 4q-49 0 -83.5 -27t-51.5 -82q16 22 39.5 35t57.5 13q33 0 57.5 -12t40.5 -33.5t21.5 -50.5t-0.5 -62
q-11 -60 -51.5 -97t-106.5 -37zM131 -138q25 0 43 15.5t22 41.5q5 29 -10 51t-47 22q-30 0 -48 -16t-23 -39q-2 -13 0.5 -26.5t10.5 -24t21 -17.5t31 -7z" />
    <glyph glyph-name="seven.inf" unicode="&#xe578;" horiz-adv-x="340" 
d="M188 125h-186l15 86h282l-14 -80l-209 -342h-99z" />
    <glyph glyph-name="eight.inf" unicode="&#xe579;" horiz-adv-x="388" 
d="M121 -217q-82 0 -121 40t-27 103q5 29 24 53.5t49 41.5q-32 35 -23 89q10 51 51 79t102 28q34 0 60.5 -10.5t44 -28.5t24 -42.5t2.5 -53.5q-5 -27 -20 -46.5t-35 -33.5q21 -18 32 -43t6 -54q-9 -56 -51.5 -89t-117.5 -33zM126 -135q35 0 54 13.5t23 34.5q4 25 -13 41
t-53 16q-33 0 -53 -13t-24 -36t13 -39.5t53 -16.5zM160 49q29 0 44.5 11t19.5 31q3 20 -10 33.5t-43 13.5q-29 0 -45 -11t-20 -28q-4 -21 9 -35.5t45 -14.5z" />
    <glyph glyph-name="nine.inf" unicode="&#xe57a;" horiz-adv-x="381" 
d="M84 -221q-46 0 -75.5 12t-49.5 30l64 72q24 -29 76 -29q85 0 113 110q-15 -23 -39 -36t-58 -13q-33 0 -57.5 12t-40.5 33.5t-21.5 50.5t0.5 62q11 60 51.5 97t106.5 37q38 0 68.5 -13.5t51.5 -39.5q10 -15 17.5 -31t11 -36t3 -45t-6.5 -58q-19 -103 -72 -159t-143 -56z
M142 4q30 0 48 16t23 39q2 13 -0.5 26.5t-10.5 24t-21 17.5t-31 7q-25 0 -43 -15.5t-22 -41.5q-5 -29 10 -51t47 -22z" />
    <glyph glyph-name="plus.inf" unicode="&#xe57b;" horiz-adv-x="308" 
d="M10 38h69l12 68h76l-12 -68h68l-13 -76h-69l-12 -69h-76l12 69h-69z" />
    <glyph glyph-name="minus.inf" unicode="&#xe57c;" horiz-adv-x="308" 
d="M10 38h213l-13 -76h-214z" />
    <glyph glyph-name="equal.inf" unicode="&#xe57d;" horiz-adv-x="308" 
d="M18 85h214l-13 -75h-214zM0 -15h214l-13 -76h-215z" />
    <glyph glyph-name="parenleft.inf" unicode="&#xe57e;" horiz-adv-x="309" 
d="M119 -294q-31 25 -57 56.5t-42.5 70.5t-22 85.5t4.5 100.5q9 50 29 92.5t48.5 78t63.5 62.5t73 47l51 -73q-69 -34 -113 -87t-58 -130q-24 -146 87 -234z" />
    <glyph glyph-name="parenright.inf" unicode="&#xe57f;" horiz-adv-x="309" 
d="M107 296q31 -25 56.5 -56.5t42 -70.5t22 -85t-4.5 -100q-17 -100 -75 -170t-138 -111l-52 73q69 34 113 87.5t58 129.5q13 74 -9.5 132.5t-77.5 101.5z" />
    <glyph glyph-name="Anocross" unicode="&#xe731;" horiz-adv-x="714" 
d="M374 730h109l134 -730h-109l-103 585l-316 -585h-116z" />
    <glyph glyph-name="idotaccent" unicode="&#xe785;" horiz-adv-x="233" 
d="M15 0l95 540h109l-95 -540h-109zM187 626q-36 0 -55.5 25t-13.5 60q5 29 28 47.5t51 18.5q19 0 33.5 -7.5t23.5 -19.5t12.5 -27t0.5 -31q-6 -29 -27.5 -47.5t-52.5 -18.5z" />
    <glyph glyph-name="ohm" unicode="&#xe821;" horiz-adv-x="877" 
d="M445 89q43 40 79.5 75.5t65 71.5t48 75.5t27.5 87.5q8 49 -0.5 93t-32 76.5t-61 51.5t-88.5 19q-44 0 -83.5 -17t-71.5 -47t-53.5 -71t-29.5 -89t-3.5 -90.5t19 -82t38 -77t52.5 -75.5l-52 -90h-282l18 104h174q-19 27 -36.5 61.5t-28.5 75t-14 87t7 98.5q11 64 42 121.5
t77.5 100.5t106 68t128.5 25q72 0 130 -27.5t96.5 -75.5t54 -114t0.5 -143q-8 -45 -24.5 -84.5t-39 -74t-49 -64t-54.5 -54.5h181l-18 -104h-296z" />
    <glyph glyph-name="aacute.alt" unicode="&#xe891;" horiz-adv-x="612" 
d="M203 -11q-54 0 -90.5 14t-58.5 38.5t-28.5 57t-0.5 70.5q14 77 84.5 118t186.5 41h162l2 9q11 57 -21 89.5t-108 32.5q-54 0 -93.5 -19.5t-69.5 -60.5l-86 58q50 54 112 84t150 30q59 0 103.5 -16.5t72.5 -46.5t39 -71t3 -89l-57 -328h-104l15 89q-35 -45 -87 -72.5
t-126 -27.5zM443 242h-155q-75 0 -111 -22t-44 -62q-12 -75 94 -75q27 0 56.5 7.5t57 22t52 36t42.5 48.5zM459 781h114l-176 -166h-82z" />
    <glyph glyph-name="agrave.alt" unicode="&#xe892;" horiz-adv-x="612" 
d="M203 -11q-54 0 -90.5 14t-58.5 38.5t-28.5 57t-0.5 70.5q14 77 84.5 118t186.5 41h162l2 9q11 57 -21 89.5t-108 32.5q-54 0 -93.5 -19.5t-69.5 -60.5l-86 58q50 54 112 84t150 30q59 0 103.5 -16.5t72.5 -46.5t39 -71t3 -89l-57 -328h-104l15 89q-35 -45 -87 -72.5
t-126 -27.5zM443 242h-155q-75 0 -111 -22t-44 -62q-12 -75 94 -75q27 0 56.5 7.5t57 22t52 36t42.5 48.5zM228 782h113l86 -166h-81z" />
    <glyph glyph-name="acircumflex.alt" unicode="&#xe893;" horiz-adv-x="612" 
d="M203 -11q-54 0 -90.5 14t-58.5 38.5t-28.5 57t-0.5 70.5q14 77 84.5 118t186.5 41h162l2 9q11 57 -21 89.5t-108 32.5q-54 0 -93.5 -19.5t-69.5 -60.5l-86 58q50 54 112 84t150 30q59 0 103.5 -16.5t72.5 -46.5t39 -71t3 -89l-57 -328h-104l15 89q-35 -45 -87 -72.5
t-126 -27.5zM443 242h-155q-75 0 -111 -22t-44 -62q-12 -75 94 -75q27 0 56.5 7.5t57 22t52 36t42.5 48.5zM352 782h76l90 -166h-92l-48 94l-82 -94h-92z" />
    <glyph glyph-name="adieresis.alt" unicode="&#xe894;" horiz-adv-x="612" 
d="M203 -11q-54 0 -90.5 14t-58.5 38.5t-28.5 57t-0.5 70.5q14 77 84.5 118t186.5 41h162l2 9q11 57 -21 89.5t-108 32.5q-54 0 -93.5 -19.5t-69.5 -60.5l-86 58q50 54 112 84t150 30q59 0 103.5 -16.5t72.5 -46.5t39 -71t3 -89l-57 -328h-104l15 89q-35 -45 -87 -72.5
t-126 -27.5zM443 242h-155q-75 0 -111 -22t-44 -62q-12 -75 94 -75q27 0 56.5 7.5t57 22t52 36t42.5 48.5zM287 617q-32 0 -49 21.5t-11 52.5q4 25 24 41t45 16q34 0 49.5 -23t10.5 -51q-5 -26 -24 -41.5t-45 -15.5zM471 617q-32 0 -49 21.5t-11 52.5q4 25 24 41t45 16
q34 0 49.5 -23t10.5 -51q-5 -26 -24 -41.5t-45 -15.5z" />
    <glyph glyph-name="amacron.alt" unicode="&#xe895;" horiz-adv-x="612" 
d="M203 -11q-54 0 -90.5 14t-58.5 38.5t-28.5 57t-0.5 70.5q14 77 84.5 118t186.5 41h162l2 9q11 57 -21 89.5t-108 32.5q-54 0 -93.5 -19.5t-69.5 -60.5l-86 58q50 54 112 84t150 30q59 0 103.5 -16.5t72.5 -46.5t39 -71t3 -89l-57 -328h-104l15 89q-35 -45 -87 -72.5
t-126 -27.5zM443 242h-155q-75 0 -111 -22t-44 -62q-12 -75 94 -75q27 0 56.5 7.5t57 22t52 36t42.5 48.5zM271 714h264l-15 -77h-264z" />
    <glyph glyph-name="abreve.alt" unicode="&#xe896;" horiz-adv-x="612" 
d="M203 -11q-54 0 -90.5 14t-58.5 38.5t-28.5 57t-0.5 70.5q14 77 84.5 118t186.5 41h162l2 9q11 57 -21 89.5t-108 32.5q-54 0 -93.5 -19.5t-69.5 -60.5l-86 58q50 54 112 84t150 30q59 0 103.5 -16.5t72.5 -46.5t39 -71t3 -89l-57 -328h-104l15 89q-35 -45 -87 -72.5
t-126 -27.5zM443 242h-155q-75 0 -111 -22t-44 -62q-12 -75 94 -75q27 0 56.5 7.5t57 22t52 36t42.5 48.5zM374 612q-41 0 -69 13t-44 35.5t-20.5 52.5t1.5 65h76q-9 -48 9 -73.5t59 -26.5q42 1 67.5 26.5t34.5 73.5h77q-6 -35 -22.5 -65t-41 -52.5t-57 -35.5t-70.5 -13z
" />
    <glyph glyph-name="aring.alt" unicode="&#xe897;" horiz-adv-x="612" 
d="M203 -11q-54 0 -90.5 14t-58.5 38.5t-28.5 57t-0.5 70.5q14 77 84.5 118t186.5 41h162l2 9q11 57 -21 89.5t-108 32.5q-54 0 -93.5 -19.5t-69.5 -60.5l-86 58q50 54 112 84t150 30q59 0 103.5 -16.5t72.5 -46.5t39 -71t3 -89l-57 -328h-104l15 89q-35 -45 -87 -72.5
t-126 -27.5zM443 242h-155q-75 0 -111 -22t-44 -62q-12 -75 94 -75q27 0 56.5 7.5t57 22t52 36t42.5 48.5zM381 617q-25 0 -45 10.5t-32.5 28t-17 40.5t2.5 48q11 38 42.5 63t71.5 25q25 0 45 -10.5t33 -27.5t17.5 -40t-2.5 -47q-11 -40 -41 -65t-74 -25zM386 676
q19 0 34 12t20 29q5 23 -7.5 40t-35.5 17q-17 0 -31.5 -12t-19.5 -29q-6 -23 5.5 -40t34.5 -17z" />
    <glyph glyph-name="atilde.alt" unicode="&#xe898;" horiz-adv-x="612" 
d="M203 -11q-54 0 -90.5 14t-58.5 38.5t-28.5 57t-0.5 70.5q14 77 84.5 118t186.5 41h162l2 9q11 57 -21 89.5t-108 32.5q-54 0 -93.5 -19.5t-69.5 -60.5l-86 58q50 54 112 84t150 30q59 0 103.5 -16.5t72.5 -46.5t39 -71t3 -89l-57 -328h-104l15 89q-35 -45 -87 -72.5
t-126 -27.5zM443 242h-155q-75 0 -111 -22t-44 -62q-12 -75 94 -75q27 0 56.5 7.5t57 22t52 36t42.5 48.5zM193 616q11 58 43 93t80 35q26 0 43.5 -7.5t31.5 -17.5t27 -18t28 -8q31 0 40 47h71q-11 -59 -42.5 -93.5t-81.5 -34.5q-30 0 -49.5 10.5t-35.5 21.5q-11 8 -22 13.5
t-24 5.5q-30 0 -39 -47h-70z" />
    <glyph glyph-name="aogonek.alt" unicode="&#xe899;" horiz-adv-x="612" 
d="M449 -223q-33 0 -57.5 10.5t-39.5 27t-21 38t-2 43.5q6 34 24.5 61.5t48.5 52.5l14 79q-35 -45 -87 -72.5t-126 -27.5q-54 0 -90.5 14t-58.5 38.5t-28.5 57t-0.5 70.5q14 77 84.5 118t186.5 41h162l2 9q11 57 -21 89.5t-108 32.5q-54 0 -93.5 -19.5t-69.5 -60.5l-86 58
q50 54 112 84t150 30q59 0 103.5 -16.5t72.5 -46.5t39 -71t3 -89l-57 -328q-42 -30 -62.5 -55.5t-23.5 -46.5q-4 -19 7.5 -33t34.5 -14t39.5 9.5t33.5 21.5l63 -48q-67 -57 -148 -57zM443 242h-155q-75 0 -111 -22t-44 -62q-12 -75 94 -75q27 0 56.5 7.5t57 22t52 36
t42.5 48.5z" />
    <glyph glyph-name="ordfeminine.alt" unicode="&#xe926;" horiz-adv-x="437" 
d="M203 412q-31 0 -52.5 8.5t-34.5 22.5t-17.5 33.5t-1.5 40.5q8 45 49 67.5t108 22.5h93l1 5q4 21 -10 38t-52 17q-33 0 -53 -12t-38 -35l-64 50q30 31 69 48.5t95 17.5q30 0 57 -9.5t45.5 -27t27.5 -42t3 -55.5l-34 -184h-80l8 45q-20 -24 -48.5 -37.5t-70.5 -13.5z
M334 533q0 3 2 11h-87q-35 0 -51 -8t-18 -25q-2 -15 9 -23.5t34 -8.5q32 0 61.5 11.5t49.5 42.5z" />
    <glyph glyph-name="interrobangdown" unicode="&#xe935;" horiz-adv-x="596" 
d="M247 -241q-54 0 -97 17t-72 46t-41.5 67t-4.5 81q7 43 26 70.5t43.5 48t52.5 37.5t53 39.5t45 54t29 81.5l2 10h78l-2 -16q-5 -40 -14 -96t-19 -114t-19 -111.5t-15 -87.5l-5 -30q32 7 58.5 25t43.5 47l87 -55q-35 -54 -94 -84t-135 -30zM337 363q-38 0 -58.5 25.5
t-13.5 60.5q5 29 29 48t53 19q19 0 34 -7t24 -19t12.5 -27.5t0.5 -31.5q-6 -30 -28 -49t-53 -19zM136 -38q-6 -34 10 -59t48 -38l4 21q8 49 20 101t26 105q-18 -18 -35.5 -31.5t-32 -27t-25.5 -30t-15 -41.5z" />
    <glyph glyph-name="interrobangdown.cap" unicode="&#xe99b;" horiz-adv-x="596" 
d="M287 -10q-54 0 -97 17t-72 46t-41.5 67t-4.5 81q7 43 26 70.5t43.5 48t52.5 37.5t53 39.5t45 54t29 80.5l2 10h78l-2 -15q-5 -40 -14 -96t-19 -114t-19 -111.5t-15 -87.5l-5 -30q32 6 58.5 24.5t43.5 47.5l87 -55q-35 -54 -94 -84t-135 -30zM377 593q-38 0 -58.5 25.5
t-13.5 60.5q5 29 29 48t53 19q19 0 34 -7t24 -19t12.5 -27.5t0.5 -31.5q-6 -30 -28 -49t-53 -19zM176 193q-6 -34 10 -59.5t48 -38.5l4 22q8 48 20 100.5t26 104.5q-18 -18 -35.5 -31t-32 -26.5t-25.5 -30t-15 -41.5z" />
    <glyph glyph-name="registered.cap" unicode="&#xe99c;" horiz-adv-x="867" 
d="M425 -10q-85 0 -154 33.5t-114.5 90t-65 131.5t-5.5 158q13 72 49 134t89 107t119 70.5t140 25.5q85 0 154 -33.5t114.5 -90.5t65 -132t5.5 -157q-13 -72 -49 -133.5t-88.5 -107t-119 -71t-140.5 -25.5zM435 80q55 0 104.5 20t88.5 54.5t66 82t37 102.5q10 60 -3 117
t-46 100.5t-85 70t-118 26.5q-57 0 -107.5 -20t-90 -54.5t-66 -82.5t-36.5 -103q-11 -61 2.5 -117.5t47 -100t86 -69.5t120.5 -26zM339 556h168q36 0 64 -12t46 -31.5t25.5 -44.5t3.5 -52q-8 -43 -34 -70.5t-68 -38.5l57 -125h-103l-75 183h54q26 0 47 14t25 42
q5 29 -13.5 42t-47.5 14h-67l-52 -295h-96z" />
    <glyph glyph-name="Aumlaut" unicode="&#xf176;" horiz-adv-x="714" 
d="M217 607q-32 0 -49 21.5t-11 52.5q4 25 24 41t45 16q34 0 49.5 -23t10.5 -51q-5 -26 -24 -41.5t-45 -15.5zM626 607q-32 0 -49 21.5t-11 52.5q4 25 24 41t45 16q34 0 49.5 -23t10.5 -51q-5 -26 -24 -41.5t-45 -15.5zM389 730h109l149 -730h-109l-31 156h-331l-87 -156
h-116zM235 260h252l-66 333z" />
    <glyph glyph-name="Oumlaut" unicode="&#xf177;" horiz-adv-x="855" 
d="M153 645q-23 0 -35 15t-7 38q2 17 16.5 28.5t32.5 11.5q24 0 35 -16.5t7 -36.5q-3 -18 -16.5 -29t-32.5 -11zM778 645q-23 0 -35 15t-8 38q3 17 17.5 28.5t31.5 11.5q24 0 35.5 -16.5t7.5 -36.5q-3 -18 -16.5 -29t-32.5 -11zM412 -10q-85 0 -153.5 33t-114 89.5
t-64.5 131.5t-4 159q13 72 48.5 134t88.5 107t120.5 70.5t142.5 25.5q86 0 154.5 -34.5t113.5 -92t63.5 -132t4.5 -154.5q-13 -72 -48.5 -134t-88 -107t-120 -70.5t-143.5 -25.5zM422 96q54 0 101 18.5t84 51t62.5 77t34.5 95.5q10 57 -1.5 110.5t-42.5 95t-80.5 66.5
t-113.5 25q-54 0 -101.5 -18.5t-84.5 -51t-61.5 -77t-33.5 -96.5q-11 -60 2 -114t45 -94.5t80.5 -64t109.5 -23.5z" />
    <glyph glyph-name="Uumlaut" unicode="&#xf178;" horiz-adv-x="705" 
d="M344 607q-32 0 -44 21.5t-6 52.5q4 25 19 41t40 16q34 0 44.5 -23t5.5 -51q-5 -26 -19 -41.5t-40 -15.5zM494 607q-32 0 -44 21.5t-6 52.5q4 25 19 41t40 16q34 0 44.5 -23t5.5 -51q-5 -26 -19 -41.5t-40 -15.5zM319 -10q-62 0 -112.5 20t-84.5 57t-48 89t-3 117l80 457
h111l-82 -467q-6 -35 1 -66.5t26 -55t49 -37t69 -13.5q43 0 77 13.5t59 36t40.5 52t20.5 61.5l83 476h111l-83 -474q-11 -62 -37.5 -111.5t-67 -84t-93.5 -52.5t-116 -18z" />
    <glyph glyph-name="period.T" unicode="&#xf182;" horiz-adv-x="332" 
d="M124 -16q-38 0 -58 25.5t-13 60.5q5 29 28.5 48t52.5 19q19 0 34 -7t24 -19t12.5 -27.5t0.5 -31.5q-6 -30 -28 -49t-53 -19z" />
    <glyph glyph-name="comma.T" unicode="&#xf183;" horiz-adv-x="332" 
d="M28 -101q105 58 117 130v4q-12 -42 -51 -42q-28 0 -43.5 22.5t-10.5 50.5q5 30 28.5 51.5t60.5 21.5q39 0 63 -28.5t16 -76.5q-18 -106 -152 -178z" />
    <glyph glyph-name="colon.T" unicode="&#xf184;" horiz-adv-x="332" 
d="M124 -16q-38 0 -58 25.5t-13 60.5q5 29 28.5 48t52.5 19q19 0 34 -7t24 -19t12.5 -27.5t0.5 -31.5q-6 -30 -28 -49t-53 -19zM188 347q-38 0 -58 25.5t-13 60.5q5 29 28.5 48t52.5 19q19 0 34 -7t24 -19t12.5 -27.5t0.5 -31.5q-6 -30 -28 -49t-53 -19z" />
    <glyph glyph-name="semicolon.T" unicode="&#xf185;" horiz-adv-x="332" 
d="M36 -101q105 58 117 130v4q-12 -42 -51 -42q-28 0 -43.5 22.5t-10.5 50.5q5 30 28.5 51.5t60.5 21.5q39 0 63 -28.5t16 -76.5q-18 -106 -152 -178zM190 347q-38 0 -58 25.5t-13 60.5q5 29 28.5 48t52.5 19q19 0 34 -7t24 -19t12.5 -27.5t0.5 -31.5q-6 -30 -28 -49
t-53 -19z" />
    <glyph glyph-name="onesixteenth" unicode="&#xf215;" horiz-adv-x="1154" 
d="M666 730h130l-652 -730h-130zM136 308l50 291q-11 -24 -35.5 -37t-50.5 -13h-6l16 91h3q45 0 67.5 24.5t30.5 65.5h89l-74 -422h-90zM553 0l50 291q-11 -24 -35.5 -37t-50.5 -13h-6l16 91h3q45 0 67.5 24.5t30.5 65.5h89l-74 -422h-90zM911 -10q-38 0 -68.5 13.5
t-51.5 39.5q-10 15 -17.5 31t-11 36t-3 45t6.5 58q19 103 79.5 159t157.5 56q37 0 60.5 -5t40.5 -13l-52 -83q-11 8 -25.5 12t-38.5 4q-49 0 -83.5 -27t-51.5 -82q16 22 39.5 35t57.5 13q33 0 57.5 -12t40.5 -33.5t21.5 -50.5t-0.5 -62q-11 -60 -51.5 -97t-106.5 -37z
M915 73q25 0 43 15.5t22 41.5q5 29 -10 51t-47 22q-30 0 -48 -16t-23 -39q-2 -13 0.5 -26.5t10.5 -24t21 -17.5t31 -7z" />
    <glyph glyph-name="threesixteenths" unicode="&#xf216;" horiz-adv-x="1262" 
d="M661 0l50 291q-11 -24 -35.5 -37t-50.5 -13h-6l16 91h3q45 0 67.5 24.5t30.5 65.5h89l-74 -422h-90zM1019 -10q-38 0 -68.5 13.5t-51.5 39.5q-10 15 -17.5 31t-11 36t-3 45t6.5 58q19 103 79.5 159t157.5 56q37 0 60.5 -5t40.5 -13l-52 -83q-11 8 -25.5 12t-38.5 4
q-49 0 -83.5 -27t-51.5 -82q16 22 39.5 35t57.5 13q33 0 57.5 -12t40.5 -33.5t21.5 -50.5t-0.5 -62q-11 -60 -51.5 -97t-106.5 -37zM1023 73q25 0 43 15.5t22 41.5q5 29 -10 51t-47 22q-30 0 -48 -16t-23 -39q-2 -13 0.5 -26.5t10.5 -24t21 -17.5t31 -7zM220 302
q-54 0 -95.5 20t-62.5 53l89 52q7 -17 27 -29t46 -12q29 0 44 13t19 36t-13.5 35t-47.5 12h-43l15 83h46q62 0 70 42q4 23 -9 36t-42 13q-50 0 -76 -42l-76 52q29 32 69 51t92 19q34 0 60.5 -10t44 -27.5t25 -41t3.5 -49.5q-5 -29 -23 -50t-45 -35q26 -17 38 -44.5t6 -62.5
q-9 -54 -50.5 -84t-110.5 -30zM774 730h130l-652 -730h-130z" />
    <glyph glyph-name="fivesixteenths" unicode="&#xf217;" horiz-adv-x="1262" 
d="M223 302q-54 0 -90.5 23t-53.5 65l91 42q7 -20 23 -32t39 -12q27 0 45 14t23 37q5 29 -9.5 48.5t-43.5 19.5q-23 0 -38.5 -9t-29.5 -25l-77 30l68 227h254l-15 -86h-180l-25 -86q11 11 29.5 19.5t50.5 8.5q27 0 49.5 -12t37.5 -32.5t20.5 -48.5t-0.5 -60
q-12 -64 -56.5 -97.5t-111.5 -33.5zM774 730h130l-652 -730h-130zM661 0l50 291q-11 -24 -35.5 -37t-50.5 -13h-6l16 91h3q45 0 67.5 24.5t30.5 65.5h89l-74 -422h-90zM1019 -10q-38 0 -68.5 13.5t-51.5 39.5q-10 15 -17.5 31t-11 36t-3 45t6.5 58q19 103 79.5 159t157.5 56
q37 0 60.5 -5t40.5 -13l-52 -83q-11 8 -25.5 12t-38.5 4q-49 0 -83.5 -27t-51.5 -82q16 22 39.5 35t57.5 13q33 0 57.5 -12t40.5 -33.5t21.5 -50.5t-0.5 -62q-11 -60 -51.5 -97t-106.5 -37zM1023 73q25 0 43 15.5t22 41.5q5 29 -10 51t-47 22q-30 0 -48 -16t-23 -39
q-2 -13 0.5 -26.5t10.5 -24t21 -17.5t31 -7z" />
    <glyph glyph-name="sevensixteenths" unicode="&#xf218;" horiz-adv-x="1170" 
d="M307 644h-186l15 86h282l-14 -80l-209 -342h-99zM682 730h130l-652 -730h-130zM569 0l50 291q-11 -24 -35.5 -37t-50.5 -13h-6l16 91h3q45 0 67.5 24.5t30.5 65.5h89l-74 -422h-90zM927 -10q-38 0 -68.5 13.5t-51.5 39.5q-10 15 -17.5 31t-11 36t-3 45t6.5 58
q19 103 79.5 159t157.5 56q37 0 60.5 -5t40.5 -13l-52 -83q-11 8 -25.5 12t-38.5 4q-49 0 -83.5 -27t-51.5 -82q16 22 39.5 35t57.5 13q33 0 57.5 -12t40.5 -33.5t21.5 -50.5t-0.5 -62q-11 -60 -51.5 -97t-106.5 -37zM931 73q25 0 43 15.5t22 41.5q5 29 -10 51t-47 22
q-30 0 -48 -16t-23 -39q-2 -13 0.5 -26.5t10.5 -24t21 -17.5t31 -7z" />
    <glyph glyph-name="ninesixteenths" unicode="&#xf219;" horiz-adv-x="1266" 
d="M203 298q-46 0 -75.5 12t-49.5 30l64 72q24 -29 76 -29q85 0 113 110q-15 -23 -39 -36t-58 -13q-33 0 -57.5 12t-40.5 33.5t-21.5 50.5t0.5 62q11 60 51.5 97t106.5 37q38 0 68.5 -13.5t51.5 -39.5q10 -15 17.5 -31t11 -36t3 -45t-6.5 -58q-19 -103 -72 -159t-143 -56z
M261 523q30 0 48 16t23 39q2 13 -0.5 26.5t-10.5 24t-21 17.5t-31 7q-25 0 -43 -15.5t-22 -41.5q-5 -29 10 -51t47 -22zM778 730h130l-652 -730h-130zM665 0l50 291q-11 -24 -35.5 -37t-50.5 -13h-6l16 91h3q45 0 67.5 24.5t30.5 65.5h89l-74 -422h-90zM1023 -10
q-38 0 -68.5 13.5t-51.5 39.5q-10 15 -17.5 31t-11 36t-3 45t6.5 58q19 103 79.5 159t157.5 56q37 0 60.5 -5t40.5 -13l-52 -83q-11 8 -25.5 12t-38.5 4q-49 0 -83.5 -27t-51.5 -82q16 22 39.5 35t57.5 13q33 0 57.5 -12t40.5 -33.5t21.5 -50.5t-0.5 -62q-11 -60 -51.5 -97
t-106.5 -37zM1027 73q25 0 43 15.5t22 41.5q5 29 -10 51t-47 22q-30 0 -48 -16t-23 -39q-2 -13 0.5 -26.5t10.5 -24t21 -17.5t31 -7z" />
    <glyph glyph-name="elevensixteenths" unicode="&#xf220;" horiz-adv-x="1393" 
d="M905 730h130l-652 -730h-130zM136 308l50 291q-11 -24 -35.5 -37t-50.5 -13h-6l16 91h3q45 0 67.5 24.5t30.5 65.5h89l-74 -422h-90zM792 0l50 291q-11 -24 -35.5 -37t-50.5 -13h-6l16 91h3q45 0 67.5 24.5t30.5 65.5h89l-74 -422h-90zM1150 -10q-38 0 -68.5 13.5
t-51.5 39.5q-10 15 -17.5 31t-11 36t-3 45t6.5 58q19 103 79.5 159t157.5 56q37 0 60.5 -5t40.5 -13l-52 -83q-11 8 -25.5 12t-38.5 4q-49 0 -83.5 -27t-51.5 -82q16 22 39.5 35t57.5 13q33 0 57.5 -12t40.5 -33.5t21.5 -50.5t-0.5 -62q-11 -60 -51.5 -97t-106.5 -37z
M1154 73q25 0 43 15.5t22 41.5q5 29 -10 51t-47 22q-30 0 -48 -16t-23 -39q-2 -13 0.5 -26.5t10.5 -24t21 -17.5t31 -7zM375 308l50 291q-11 -24 -35.5 -37t-50.5 -13h-6l16 91h3q45 0 67.5 24.5t30.5 65.5h89l-74 -422h-90z" />
    <glyph glyph-name="thirteensixteenths" unicode="&#xf221;" horiz-adv-x="1504" 
d="M903 0l50 291q-11 -24 -35.5 -37t-50.5 -13h-6l16 91h3q45 0 67.5 24.5t30.5 65.5h89l-74 -422h-90zM1261 -10q-38 0 -68.5 13.5t-51.5 39.5q-10 15 -17.5 31t-11 36t-3 45t6.5 58q19 103 79.5 159t157.5 56q37 0 60.5 -5t40.5 -13l-52 -83q-11 8 -25.5 12t-38.5 4
q-49 0 -83.5 -27t-51.5 -82q16 22 39.5 35t57.5 13q33 0 57.5 -12t40.5 -33.5t21.5 -50.5t-0.5 -62q-11 -60 -51.5 -97t-106.5 -37zM1265 73q25 0 43 15.5t22 41.5q5 29 -10 51t-47 22q-30 0 -48 -16t-23 -39q-2 -13 0.5 -26.5t10.5 -24t21 -17.5t31 -7zM462 302
q-54 0 -95.5 20t-62.5 53l89 52q7 -17 27 -29t46 -12q29 0 44 13t19 36t-13.5 35t-47.5 12h-43l15 83h46q62 0 70 42q4 23 -9 36t-42 13q-50 0 -76 -42l-76 52q29 32 69 51t92 19q34 0 60.5 -10t44 -27.5t25 -41t3.5 -49.5q-5 -29 -23 -50t-45 -35q26 -17 38 -44.5t6 -62.5
q-9 -54 -50.5 -84t-110.5 -30zM1016 730h130l-652 -730h-130zM136 308l50 291q-11 -24 -35.5 -37t-50.5 -13h-6l16 91h3q45 0 67.5 24.5t30.5 65.5h89l-74 -422h-90z" />
    <glyph glyph-name="fifteensixteenths" unicode="&#xf222;" horiz-adv-x="1501" 
d="M136 308l50 291q-11 -24 -35.5 -37t-50.5 -13h-6l16 91h3q45 0 67.5 24.5t30.5 65.5h89l-74 -422h-90zM900 0l50 291q-11 -24 -35.5 -37t-50.5 -13h-6l16 91h3q45 0 67.5 24.5t30.5 65.5h89l-74 -422h-90zM1258 -10q-38 0 -68.5 13.5t-51.5 39.5q-10 15 -17.5 31t-11 36
t-3 45t6.5 58q19 103 79.5 159t157.5 56q37 0 60.5 -5t40.5 -13l-52 -83q-11 8 -25.5 12t-38.5 4q-49 0 -83.5 -27t-51.5 -82q16 22 39.5 35t57.5 13q33 0 57.5 -12t40.5 -33.5t21.5 -50.5t-0.5 -62q-11 -60 -51.5 -97t-106.5 -37zM1262 73q25 0 43 15.5t22 41.5
q5 29 -10 51t-47 22q-30 0 -48 -16t-23 -39q-2 -13 0.5 -26.5t10.5 -24t21 -17.5t31 -7zM462 302q-54 0 -90.5 23t-53.5 65l91 42q7 -20 23 -32t39 -12q27 0 45 14t23 37q5 29 -9.5 48.5t-43.5 19.5q-23 0 -38.5 -9t-29.5 -25l-77 30l68 227h254l-15 -86h-180l-25 -86
q11 11 29.5 19.5t50.5 8.5q27 0 49.5 -12t37.5 -32.5t20.5 -48.5t-0.5 -60q-12 -64 -56.5 -97.5t-111.5 -33.5zM1013 730h130l-652 -730h-130z" />
    <glyph glyph-name="aringacute.alt" unicode="&#xf458;" horiz-adv-x="612" 
d="M203 -11q-54 0 -90.5 14t-58.5 38.5t-28.5 57t-0.5 70.5q14 77 84.5 118t186.5 41h162l2 9q11 57 -21 89.5t-108 32.5q-54 0 -93.5 -19.5t-69.5 -60.5l-86 58q50 54 112 84t150 30q59 0 103.5 -16.5t72.5 -46.5t39 -71t3 -89l-57 -328h-104l15 89q-35 -45 -87 -72.5
t-126 -27.5zM443 242h-155q-75 0 -111 -22t-44 -62q-12 -75 94 -75q27 0 56.5 7.5t57 22t52 36t42.5 48.5zM524 1050h114l-176 -166h-82zM381 617q-25 0 -45 10.5t-32.5 28t-17 40.5t2.5 48q11 38 42.5 63t71.5 25q25 0 45 -10.5t33 -27.5t17.5 -40t-2.5 -47
q-11 -40 -41 -65t-74 -25zM386 676q19 0 34 12t20 29q5 23 -7.5 40t-35.5 17q-17 0 -31.5 -12t-19.5 -29q-6 -23 5.5 -40t34.5 -17z" />
    <glyph glyph-name="arrowdown.alt" unicode="&#xf459;" horiz-adv-x="1093" 
d="M833 151q-36 -18 -72 -41.5t-69 -52t-61 -61t-46 -66.5h-53q-20 35 -49.5 67t-63.5 59t-69 47.5t-65 32.5l51 95q49 -23 94 -60t76 -75v634h104v-628q28 38 72 75t91 63zM802 727v-57l-152 -69v38zM802 635v-57l-152 -69v38zM802 819v-57l-152 -69v38zM467 602l-147 66
v57l147 -85v-38zM467 510l-147 66v57l147 -85v-38zM467 694l-147 66v57l147 -85v-38z" />
    </font>
</defs>
</svg>
