<?xml version="1.0" encoding="UTF-8" standalone="no"?>
<!DOCTYPE svg PUBLIC "-//W3C//DTD SVG 1.1//EN" "http://www.w3.org/Graphics/SVG/1.1/DTD/svg11.dtd">
<svg width="100%" height="100%" viewBox="0 0 3000 3000" version="1.1" xmlns="http://www.w3.org/2000/svg" xmlns:xlink="http://www.w3.org/1999/xlink" xml:space="preserve" xmlns:serif="http://www.serif.com/" style="fill-rule:evenodd;clip-rule:evenodd;stroke-linejoin:round;stroke-miterlimit:2;">
    <g transform="matrix(1,0,0,1,-3248.55,-3177.79)">
        <g id="Settings" transform="matrix(1,0,0,1,3248.55,3177.79)">
            <rect x="0" y="0" width="3000" height="3000" style="fill:none;"/>
            <circle cx="1500" cy="1500" r="1500" style="fill:white;"/>
            <g transform="matrix(1,0,0,1,-3248.55,-3177.79)">
                <path d="M4899.23,4314.03C4899.23,4314.03 5111.06,4102.2 5244.69,3968.57C5303.54,3909.73 5398.94,3909.73 5457.78,3968.57C5457.78,3968.57 5457.78,3968.57 5457.78,3968.57C5516.62,4027.41 5516.62,4122.81 5457.78,4181.65C5324.15,4315.28 5112.34,4527.1 5112.34,4527.1L5600.88,4527.1C5684.09,4527.1 5751.55,4594.56 5751.55,4677.77C5751.55,4677.77 5751.55,4677.77 5751.55,4677.77C5751.55,4760.99 5684.09,4828.45 5600.88,4828.45L5112.29,4828.45C5112.29,4828.45 5324.14,5040.3 5457.78,5173.94C5516.62,5232.78 5516.62,5328.18 5457.78,5387.02C5457.78,5387.02 5457.78,5387.02 5457.78,5387.02C5398.94,5445.86 5303.54,5445.86 5244.69,5387.02C5111.06,5253.39 4899.23,5041.56 4899.23,5041.56L4899.23,5530.1C4899.23,5613.31 4831.77,5680.77 4748.56,5680.77C4748.55,5680.77 4748.55,5680.77 4748.55,5680.77C4665.34,5680.77 4597.88,5613.31 4597.88,5530.1L4597.88,5041.56C4597.88,5041.56 4386.05,5253.39 4252.41,5387.02C4193.57,5445.86 4098.17,5445.86 4039.33,5387.02C4039.33,5387.02 4039.33,5387.02 4039.33,5387.02C3980.49,5328.18 3980.49,5232.78 4039.33,5173.94C4172.97,5040.3 4384.82,4828.45 4384.82,4828.45L3896.23,4828.45C3813.02,4828.45 3745.56,4760.99 3745.56,4677.77L3745.56,4677.77C3745.56,4594.56 3813.02,4527.1 3896.23,4527.1L4384.77,4527.1C4384.77,4527.1 4172.95,4315.28 4039.33,4181.65C3980.49,4122.81 3980.49,4027.41 4039.33,3968.57C4039.33,3968.57 4039.33,3968.57 4039.33,3968.57C4098.17,3909.73 4193.57,3909.73 4252.41,3968.57C4386.05,4102.2 4597.88,4314.03 4597.88,4314.03L4597.88,3825.45C4597.88,3742.24 4665.34,3674.78 4748.55,3674.78L4748.56,3674.78C4831.77,3674.78 4899.23,3742.24 4899.23,3825.45L4899.23,4314.03Z" style="fill:url(#_Linear1);"/>
            </g>
        </g>
    </g>
    <defs>
        <linearGradient id="_Linear1" x1="0" y1="0" x2="1" y2="0" gradientUnits="userSpaceOnUse" gradientTransform="matrix(9.88709e-14,2005.99,-1614.68,1.22832e-13,4777.95,3674.78)"><stop offset="0" style="stop-color:rgb(0,255,124);stop-opacity:1"/><stop offset="1" style="stop-color:rgb(0,142,255);stop-opacity:1"/></linearGradient>
    </defs>
</svg>
